<svg xmlns="http://www.w3.org/2000/svg" width="800" height="420">
  <rect x="0" y="0" width="800" height="420" fill="#ffffff" />
  <line x1="60" y1="360" x2="740" y2="360" stroke="#333333" stroke-width="2" />
  <line x1="60" y1="60" x2="60" y2="360" stroke="#333333" stroke-width="2" />
  <text x="400.0" y="30" text-anchor="middle" font-size="22" font-family="Arial">Self-Play Episode Length</text>
  <text x="400.0" y="405" text-anchor="middle" font-size="16" font-family="Arial">Batch</text>
  <text x="24" y="210.0" text-anchor="middle" font-size="16" font-family="Arial" transform="rotate(-90 24 210.0)">Episode Length</text>
  <text x="60" y="50" font-size="13" font-family="Arial">30.000</text>
  <text x="60" y="380" font-size="13" font-family="Arial">7.000</text>
  <text x="60" y="395" font-size="13" font-family="Arial">1</text>
  <text x="740" y="395" text-anchor="end" font-size="13" font-family="Arial">1500</text>
  <polyline fill="none" stroke="#2563eb" stroke-width="3" points="60.00,177.39 60.45,177.39 60.91,125.22 61.36,177.39 61.81,281.74 62.27,151.30 62.72,229.57 63.18,112.17 63.63,242.61 64.08,255.65 64.54,281.74 64.99,294.78 65.44,320.87 65.90,203.48 66.35,242.61 66.80,255.65 67.26,190.43 67.71,255.65 68.17,255.65 68.62,229.57 69.07,307.83 69.53,255.65 69.98,60.00 70.43,229.57 70.89,255.65 71.34,346.96 71.79,255.65 72.25,151.30 72.70,255.65 73.16,281.74 73.61,242.61 74.06,294.78 74.52,333.91 74.97,346.96 75.42,229.57 75.88,346.96 76.33,294.78 76.78,242.61 77.24,229.57 77.69,255.65 78.15,255.65 78.60,190.43 79.05,281.74 79.51,307.83 79.96,255.65 80.41,268.70 80.87,255.65 81.32,294.78 81.77,268.70 82.23,229.57 82.68,294.78 83.14,255.65 83.59,307.83 84.04,320.87 84.50,242.61 84.95,320.87 85.40,216.52 85.86,320.87 86.31,151.30 86.76,360.00 87.22,229.57 87.67,229.57 88.13,229.57 88.58,255.65 89.03,294.78 89.49,294.78 89.94,229.57 90.39,281.74 90.85,255.65 91.30,281.74 91.75,294.78 92.21,320.87 92.66,229.57 93.12,320.87 93.57,307.83 94.02,307.83 94.48,320.87 94.93,281.74 95.38,294.78 95.84,307.83 96.29,99.13 96.74,242.61 97.20,242.61 97.65,320.87 98.11,281.74 98.56,346.96 99.01,294.78 99.47,360.00 99.92,346.96 100.37,229.57 100.83,333.91 101.28,307.83 101.73,281.74 102.19,268.70 102.64,229.57 103.10,294.78 103.55,229.57 104.00,294.78 104.46,255.65 104.91,307.83 105.36,307.83 105.82,281.74 106.27,255.65 106.72,268.70 107.18,360.00 107.63,242.61 108.09,307.83 108.54,281.74 108.99,307.83 109.45,294.78 109.90,333.91 110.35,281.74 110.81,307.83 111.26,203.48 111.71,268.70 112.17,333.91 112.62,360.00 113.08,360.00 113.53,229.57 113.98,203.48 114.44,320.87 114.89,294.78 115.34,255.65 115.80,255.65 116.25,268.70 116.70,360.00 117.16,255.65 117.61,281.74 118.07,281.74 118.52,281.74 118.97,294.78 119.43,346.96 119.88,255.65 120.33,281.74 120.79,203.48 121.24,294.78 121.69,320.87 122.15,333.91 122.60,333.91 123.06,307.83 123.51,203.48 123.96,320.87 124.42,255.65 124.87,294.78 125.32,242.61 125.78,294.78 126.23,307.83 126.68,281.74 127.14,229.57 127.59,360.00 128.05,190.43 128.50,203.48 128.95,360.00 129.41,360.00 129.86,268.70 130.31,255.65 130.77,281.74 131.22,307.83 131.67,307.83 132.13,294.78 132.58,360.00 133.04,307.83 133.49,320.87 133.94,333.91 134.40,320.87 134.85,307.83 135.30,307.83 135.76,229.57 136.21,294.78 136.66,242.61 137.12,307.83 137.57,190.43 138.03,281.74 138.48,360.00 138.93,164.35 139.39,255.65 139.84,320.87 140.29,255.65 140.75,255.65 141.20,242.61 141.65,294.78 142.11,294.78 142.56,360.00 143.02,281.74 143.47,320.87 143.92,294.78 144.38,268.70 144.83,294.78 145.28,333.91 145.74,203.48 146.19,268.70 146.64,294.78 147.10,242.61 147.55,281.74 148.01,320.87 148.46,281.74 148.91,333.91 149.37,255.65 149.82,203.48 150.27,333.91 150.73,307.83 151.18,360.00 151.63,333.91 152.09,360.00 152.54,333.91 153.00,294.78 153.45,281.74 153.90,333.91 154.36,333.91 154.81,360.00 155.26,307.83 155.72,281.74 156.17,320.87 156.62,346.96 157.08,360.00 157.53,360.00 157.99,320.87 158.44,346.96 158.89,320.87 159.35,333.91 159.80,294.78 160.25,216.52 160.71,255.65 161.16,307.83 161.61,360.00 162.07,320.87 162.52,346.96 162.98,307.83 163.43,307.83 163.88,229.57 164.34,255.65 164.79,307.83 165.24,333.91 165.70,307.83 166.15,333.91 166.60,281.74 167.06,268.70 167.51,346.96 167.97,307.83 168.42,320.87 168.87,242.61 169.33,320.87 169.78,333.91 170.23,281.74 170.69,307.83 171.14,281.74 171.59,255.65 172.05,333.91 172.50,229.57 172.96,333.91 173.41,294.78 173.86,333.91 174.32,242.61 174.77,307.83 175.22,307.83 175.68,255.65 176.13,333.91 176.58,320.87 177.04,307.83 177.49,294.78 177.95,307.83 178.40,177.39 178.85,333.91 179.31,229.57 179.76,281.74 180.21,307.83 180.67,320.87 181.12,242.61 181.57,281.74 182.03,268.70 182.48,360.00 182.94,229.57 183.39,281.74 183.84,268.70 184.30,281.74 184.75,229.57 185.20,320.87 185.66,268.70 186.11,346.96 186.56,190.43 187.02,255.65 187.47,255.65 187.93,360.00 188.38,333.91 188.83,294.78 189.29,307.83 189.74,268.70 190.19,320.87 190.65,333.91 191.10,320.87 191.55,216.52 192.01,307.83 192.46,307.83 192.92,360.00 193.37,333.91 193.82,307.83 194.28,346.96 194.73,360.00 195.18,346.96 195.64,333.91 196.09,242.61 196.54,151.30 197.00,333.91 197.45,320.87 197.91,151.30 198.36,360.00 198.81,294.78 199.27,320.87 199.72,360.00 200.17,360.00 200.63,360.00 201.08,307.83 201.53,255.65 201.99,307.83 202.44,255.65 202.90,229.57 203.35,333.91 203.80,268.70 204.26,360.00 204.71,320.87 205.16,294.78 205.62,229.57 206.07,307.83 206.52,307.83 206.98,346.96 207.43,255.65 207.89,294.78 208.34,294.78 208.79,360.00 209.25,333.91 209.70,242.61 210.15,360.00 210.61,294.78 211.06,294.78 211.51,242.61 211.97,229.57 212.42,294.78 212.88,281.74 213.33,307.83 213.78,346.96 214.24,307.83 214.69,333.91 215.14,281.74 215.60,346.96 216.05,346.96 216.50,360.00 216.96,333.91 217.41,255.65 217.87,307.83 218.32,281.74 218.77,360.00 219.23,333.91 219.68,360.00 220.13,333.91 220.59,333.91 221.04,333.91 221.49,255.65 221.95,333.91 222.40,229.57 222.86,268.70 223.31,255.65 223.76,307.83 224.22,346.96 224.67,333.91 225.12,242.61 225.58,307.83 226.03,229.57 226.48,190.43 226.94,294.78 227.39,333.91 227.85,333.91 228.30,346.96 228.75,320.87 229.21,360.00 229.66,281.74 230.11,294.78 230.57,333.91 231.02,333.91 231.47,294.78 231.93,360.00 232.38,360.00 232.84,281.74 233.29,320.87 233.74,360.00 234.20,229.57 234.65,294.78 235.10,307.83 235.56,320.87 236.01,360.00 236.46,229.57 236.92,255.65 237.37,360.00 237.83,360.00 238.28,333.91 238.73,242.61 239.19,307.83 239.64,346.96 240.09,346.96 240.55,320.87 241.00,333.91 241.45,255.65 241.91,333.91 242.36,360.00 242.82,242.61 243.27,307.83 243.72,268.70 244.18,333.91 244.63,294.78 245.08,268.70 245.54,307.83 245.99,360.00 246.44,320.87 246.90,294.78 247.35,268.70 247.81,360.00 248.26,346.96 248.71,346.96 249.17,268.70 249.62,307.83 250.07,360.00 250.53,294.78 250.98,346.96 251.43,333.91 251.89,203.48 252.34,307.83 252.80,307.83 253.25,333.91 253.70,281.74 254.16,281.74 254.61,320.87 255.06,281.74 255.52,255.65 255.97,177.39 256.42,255.65 256.88,333.91 257.33,242.61 257.79,307.83 258.24,333.91 258.69,307.83 259.15,281.74 259.60,346.96 260.05,320.87 260.51,333.91 260.96,333.91 261.41,360.00 261.87,281.74 262.32,333.91 262.78,346.96 263.23,307.83 263.68,307.83 264.14,307.83 264.59,333.91 265.04,294.78 265.50,242.61 265.95,255.65 266.40,333.91 266.86,229.57 267.31,333.91 267.77,346.96 268.22,307.83 268.67,307.83 269.13,333.91 269.58,294.78 270.03,294.78 270.49,346.96 270.94,346.96 271.39,320.87 271.85,333.91 272.30,346.96 272.76,203.48 273.21,320.87 273.66,294.78 274.12,360.00 274.57,320.87 275.02,216.52 275.48,360.00 275.93,333.91 276.38,294.78 276.84,333.91 277.29,255.65 277.75,333.91 278.20,307.83 278.65,346.96 279.11,320.87 279.56,294.78 280.01,229.57 280.47,333.91 280.92,307.83 281.37,320.87 281.83,320.87 282.28,307.83 282.74,242.61 283.19,320.87 283.64,333.91 284.10,360.00 284.55,346.96 285.00,268.70 285.46,360.00 285.91,360.00 286.36,307.83 286.82,346.96 287.27,268.70 287.73,346.96 288.18,203.48 288.63,177.39 289.09,320.87 289.54,281.74 289.99,294.78 290.45,268.70 290.90,360.00 291.35,307.83 291.81,268.70 292.26,281.74 292.72,294.78 293.17,294.78 293.62,360.00 294.08,333.91 294.53,360.00 294.98,216.52 295.44,294.78 295.89,268.70 296.34,268.70 296.80,346.96 297.25,320.87 297.71,333.91 298.16,281.74 298.61,333.91 299.07,307.83 299.52,333.91 299.97,360.00 300.43,281.74 300.88,320.87 301.33,268.70 301.79,307.83 302.24,125.22 302.70,346.96 303.15,255.65 303.60,360.00 304.06,255.65 304.51,255.65 304.96,346.96 305.42,360.00 305.87,360.00 306.32,320.87 306.78,333.91 307.23,281.74 307.69,333.91 308.14,307.83 308.59,320.87 309.05,360.00 309.50,294.78 309.95,360.00 310.41,360.00 310.86,320.87 311.31,307.83 311.77,268.70 312.22,346.96 312.68,229.57 313.13,346.96 313.58,320.87 314.04,346.96 314.49,346.96 314.94,346.96 315.40,307.83 315.85,360.00 316.30,177.39 316.76,333.91 317.21,307.83 317.67,307.83 318.12,177.39 318.57,281.74 319.03,360.00 319.48,333.91 319.93,360.00 320.39,333.91 320.84,360.00 321.29,307.83 321.75,294.78 322.20,307.83 322.66,333.91 323.11,320.87 323.56,268.70 324.02,360.00 324.47,333.91 324.92,346.96 325.38,268.70 325.83,346.96 326.28,346.96 326.74,360.00 327.19,360.00 327.65,255.65 328.10,333.91 328.55,242.61 329.01,320.87 329.46,307.83 329.91,294.78 330.37,294.78 330.82,360.00 331.27,307.83 331.73,346.96 332.18,333.91 332.64,268.70 333.09,320.87 333.54,307.83 334.00,294.78 334.45,333.91 334.90,268.70 335.36,294.78 335.81,333.91 336.26,229.57 336.72,360.00 337.17,281.74 337.63,281.74 338.08,320.87 338.53,333.91 338.99,294.78 339.44,333.91 339.89,333.91 340.35,360.00 340.80,242.61 341.25,333.91 341.71,333.91 342.16,307.83 342.62,281.74 343.07,360.00 343.52,320.87 343.98,268.70 344.43,333.91 344.88,333.91 345.34,360.00 345.79,268.70 346.24,346.96 346.70,242.61 347.15,281.74 347.61,360.00 348.06,333.91 348.51,268.70 348.97,151.30 349.42,307.83 349.87,281.74 350.33,360.00 350.78,242.61 351.23,281.74 351.69,360.00 352.14,333.91 352.60,360.00 353.05,281.74 353.50,307.83 353.96,333.91 354.41,307.83 354.86,281.74 355.32,346.96 355.77,360.00 356.22,151.30 356.68,307.83 357.13,320.87 357.59,333.91 358.04,307.83 358.49,333.91 358.95,281.74 359.40,346.96 359.85,294.78 360.31,333.91 360.76,229.57 361.21,320.87 361.67,320.87 362.12,294.78 362.58,307.83 363.03,229.57 363.48,333.91 363.94,360.00 364.39,268.70 364.84,360.00 365.30,333.91 365.75,268.70 366.20,360.00 366.66,320.87 367.11,255.65 367.57,294.78 368.02,333.91 368.47,333.91 368.93,281.74 369.38,255.65 369.83,333.91 370.29,294.78 370.74,333.91 371.19,360.00 371.65,229.57 372.10,281.74 372.56,307.83 373.01,307.83 373.46,360.00 373.92,333.91 374.37,346.96 374.82,307.83 375.28,255.65 375.73,346.96 376.18,360.00 376.64,320.87 377.09,346.96 377.55,294.78 378.00,333.91 378.45,360.00 378.91,333.91 379.36,307.83 379.81,360.00 380.27,360.00 380.72,268.70 381.17,281.74 381.63,333.91 382.08,320.87 382.54,333.91 382.99,333.91 383.44,333.91 383.90,320.87 384.35,281.74 384.80,333.91 385.26,360.00 385.71,320.87 386.16,346.96 386.62,255.65 387.07,281.74 387.53,320.87 387.98,307.83 388.43,281.74 388.89,346.96 389.34,333.91 389.79,333.91 390.25,333.91 390.70,203.48 391.15,307.83 391.61,281.74 392.06,333.91 392.52,281.74 392.97,346.96 393.42,268.70 393.88,229.57 394.33,360.00 394.78,333.91 395.24,320.87 395.69,333.91 396.14,294.78 396.60,281.74 397.05,242.61 397.51,307.83 397.96,242.61 398.41,320.87 398.87,255.65 399.32,333.91 399.77,307.83 400.23,360.00 400.68,346.96 401.13,333.91 401.59,333.91 402.04,346.96 402.49,320.87 402.95,346.96 403.40,242.61 403.86,360.00 404.31,268.70 404.76,333.91 405.22,360.00 405.67,307.83 406.12,281.74 406.58,307.83 407.03,320.87 407.48,360.00 407.94,307.83 408.39,346.96 408.85,333.91 409.30,294.78 409.75,320.87 410.21,255.65 410.66,346.96 411.11,242.61 411.57,333.91 412.02,346.96 412.47,229.57 412.93,320.87 413.38,268.70 413.84,307.83 414.29,307.83 414.74,360.00 415.20,360.00 415.65,346.96 416.10,360.00 416.56,333.91 417.01,268.70 417.46,307.83 417.92,346.96 418.37,255.65 418.83,320.87 419.28,360.00 419.73,346.96 420.19,255.65 420.64,320.87 421.09,320.87 421.55,333.91 422.00,333.91 422.45,307.83 422.91,320.87 423.36,346.96 423.82,346.96 424.27,360.00 424.72,320.87 425.18,360.00 425.63,333.91 426.08,281.74 426.54,281.74 426.99,281.74 427.44,333.91 427.90,177.39 428.35,346.96 428.81,346.96 429.26,268.70 429.71,333.91 430.17,360.00 430.62,281.74 431.07,320.87 431.53,346.96 431.98,333.91 432.43,333.91 432.89,360.00 433.34,333.91 433.80,307.83 434.25,281.74 434.70,307.83 435.16,151.30 435.61,294.78 436.06,346.96 436.52,360.00 436.97,294.78 437.42,346.96 437.88,268.70 438.33,333.91 438.79,333.91 439.24,346.96 439.69,360.00 440.15,320.87 440.60,294.78 441.05,360.00 441.51,242.61 441.96,203.48 442.41,216.52 442.87,229.57 443.32,294.78 443.78,360.00 444.23,360.00 444.68,333.91 445.14,268.70 445.59,281.74 446.04,333.91 446.50,216.52 446.95,333.91 447.40,294.78 447.86,268.70 448.31,333.91 448.77,255.65 449.22,333.91 449.67,255.65 450.13,320.87 450.58,360.00 451.03,281.74 451.49,333.91 451.94,307.83 452.39,229.57 452.85,346.96 453.30,360.00 453.76,307.83 454.21,242.61 454.66,294.78 455.12,255.65 455.57,320.87 456.02,281.74 456.48,307.83 456.93,307.83 457.38,360.00 457.84,307.83 458.29,307.83 458.75,360.00 459.20,333.91 459.65,307.83 460.11,320.87 460.56,294.78 461.01,268.70 461.47,307.83 461.92,307.83 462.37,294.78 462.83,255.65 463.28,346.96 463.74,320.87 464.19,177.39 464.64,307.83 465.10,281.74 465.55,294.78 466.00,294.78 466.46,242.61 466.91,333.91 467.36,333.91 467.82,333.91 468.27,333.91 468.73,294.78 469.18,333.91 469.63,360.00 470.09,307.83 470.54,360.00 470.99,294.78 471.45,346.96 471.90,177.39 472.35,346.96 472.81,333.91 473.26,294.78 473.72,360.00 474.17,320.87 474.62,346.96 475.08,281.74 475.53,333.91 475.98,320.87 476.44,333.91 476.89,255.65 477.34,360.00 477.80,346.96 478.25,320.87 478.71,360.00 479.16,320.87 479.61,229.57 480.07,360.00 480.52,281.74 480.97,255.65 481.43,360.00 481.88,360.00 482.33,360.00 482.79,294.78 483.24,216.52 483.70,333.91 484.15,307.83 484.60,333.91 485.06,281.74 485.51,333.91 485.96,360.00 486.42,268.70 486.87,320.87 487.32,333.91 487.78,346.96 488.23,268.70 488.69,333.91 489.14,333.91 489.59,281.74 490.05,294.78 490.50,360.00 490.95,229.57 491.41,320.87 491.86,294.78 492.31,229.57 492.77,281.74 493.22,320.87 493.68,360.00 494.13,281.74 494.58,320.87 495.04,281.74 495.49,268.70 495.94,346.96 496.40,320.87 496.85,307.83 497.30,294.78 497.76,333.91 498.21,320.87 498.67,346.96 499.12,307.83 499.57,281.74 500.03,333.91 500.48,360.00 500.93,320.87 501.39,360.00 501.84,307.83 502.29,346.96 502.75,307.83 503.20,307.83 503.66,268.70 504.11,360.00 504.56,307.83 505.02,333.91 505.47,281.74 505.92,242.61 506.38,255.65 506.83,229.57 507.28,268.70 507.74,333.91 508.19,320.87 508.65,333.91 509.10,333.91 509.55,346.96 510.01,281.74 510.46,164.35 510.91,333.91 511.37,360.00 511.82,216.52 512.27,294.78 512.73,307.83 513.18,360.00 513.64,242.61 514.09,346.96 514.54,320.87 515.00,294.78 515.45,360.00 515.90,294.78 516.36,294.78 516.81,294.78 517.26,268.70 517.72,360.00 518.17,281.74 518.63,333.91 519.08,268.70 519.53,360.00 519.99,281.74 520.44,281.74 520.89,333.91 521.35,203.48 521.80,333.91 522.25,346.96 522.71,268.70 523.16,360.00 523.62,307.83 524.07,307.83 524.52,320.87 524.98,307.83 525.43,346.96 525.88,229.57 526.34,320.87 526.79,281.74 527.24,294.78 527.70,229.57 528.15,333.91 528.61,307.83 529.06,281.74 529.51,281.74 529.97,294.78 530.42,320.87 530.87,320.87 531.33,320.87 531.78,281.74 532.23,346.96 532.69,333.91 533.14,307.83 533.60,360.00 534.05,320.87 534.50,360.00 534.96,346.96 535.41,281.74 535.86,281.74 536.32,216.52 536.77,333.91 537.22,307.83 537.68,307.83 538.13,360.00 538.59,360.00 539.04,268.70 539.49,268.70 539.95,360.00 540.40,281.74 540.85,333.91 541.31,360.00 541.76,333.91 542.21,294.78 542.67,333.91 543.12,333.91 543.58,307.83 544.03,360.00 544.48,360.00 544.94,307.83 545.39,294.78 545.84,281.74 546.30,307.83 546.75,307.83 547.20,360.00 547.66,360.00 548.11,268.70 548.57,268.70 549.02,294.78 549.47,333.91 549.93,281.74 550.38,333.91 550.83,177.39 551.29,333.91 551.74,307.83 552.19,320.87 552.65,333.91 553.10,346.96 553.56,320.87 554.01,320.87 554.46,333.91 554.92,268.70 555.37,360.00 555.82,307.83 556.28,294.78 556.73,360.00 557.18,320.87 557.64,320.87 558.09,333.91 558.55,346.96 559.00,333.91 559.45,307.83 559.91,281.74 560.36,333.91 560.81,320.87 561.27,360.00 561.72,307.83 562.17,307.83 562.63,268.70 563.08,333.91 563.54,333.91 563.99,307.83 564.44,216.52 564.90,360.00 565.35,177.39 565.80,346.96 566.26,320.87 566.71,307.83 567.16,294.78 567.62,294.78 568.07,320.87 568.53,320.87 568.98,281.74 569.43,320.87 569.89,320.87 570.34,320.87 570.79,333.91 571.25,307.83 571.70,255.65 572.15,346.96 572.61,307.83 573.06,333.91 573.52,346.96 573.97,294.78 574.42,333.91 574.88,281.74 575.33,346.96 575.78,242.61 576.24,360.00 576.69,333.91 577.14,333.91 577.60,307.83 578.05,333.91 578.51,294.78 578.96,320.87 579.41,320.87 579.87,281.74 580.32,333.91 580.77,320.87 581.23,360.00 581.68,360.00 582.13,346.96 582.59,268.70 583.04,294.78 583.50,360.00 583.95,255.65 584.40,281.74 584.86,320.87 585.31,320.87 585.76,307.83 586.22,360.00 586.67,307.83 587.12,255.65 587.58,360.00 588.03,307.83 588.49,294.78 588.94,281.74 589.39,333.91 589.85,229.57 590.30,360.00 590.75,333.91 591.21,333.91 591.66,320.87 592.11,320.87 592.57,320.87 593.02,333.91 593.48,307.83 593.93,203.48 594.38,138.26 594.84,268.70 595.29,333.91 595.74,242.61 596.20,294.78 596.65,360.00 597.10,307.83 597.56,307.83 598.01,333.91 598.47,242.61 598.92,333.91 599.37,360.00 599.83,307.83 600.28,333.91 600.73,360.00 601.19,268.70 601.64,346.96 602.09,333.91 602.55,294.78 603.00,307.83 603.46,320.87 603.91,255.65 604.36,307.83 604.82,333.91 605.27,307.83 605.72,307.83 606.18,333.91 606.63,281.74 607.08,281.74 607.54,346.96 607.99,294.78 608.45,333.91 608.90,333.91 609.35,281.74 609.81,320.87 610.26,307.83 610.71,216.52 611.17,294.78 611.62,320.87 612.07,346.96 612.53,294.78 612.98,320.87 613.44,333.91 613.89,320.87 614.34,333.91 614.80,360.00 615.25,360.00 615.70,151.30 616.16,138.26 616.61,346.96 617.06,320.87 617.52,346.96 617.97,281.74 618.43,346.96 618.88,333.91 619.33,281.74 619.79,360.00 620.24,268.70 620.69,268.70 621.15,294.78 621.60,268.70 622.05,346.96 622.51,307.83 622.96,268.70 623.42,281.74 623.87,307.83 624.32,333.91 624.78,360.00 625.23,281.74 625.68,320.87 626.14,333.91 626.59,307.83 627.04,294.78 627.50,307.83 627.95,255.65 628.41,333.91 628.86,294.78 629.31,360.00 629.77,320.87 630.22,333.91 630.67,268.70 631.13,281.74 631.58,307.83 632.03,307.83 632.49,333.91 632.94,360.00 633.40,281.74 633.85,360.00 634.30,320.87 634.76,320.87 635.21,203.48 635.66,125.22 636.12,216.52 636.57,360.00 637.02,281.74 637.48,333.91 637.93,307.83 638.39,320.87 638.84,320.87 639.29,333.91 639.75,294.78 640.20,360.00 640.65,216.52 641.11,333.91 641.56,346.96 642.01,360.00 642.47,281.74 642.92,333.91 643.38,281.74 643.83,281.74 644.28,333.91 644.74,294.78 645.19,346.96 645.64,333.91 646.10,229.57 646.55,281.74 647.00,333.91 647.46,268.70 647.91,242.61 648.37,281.74 648.82,320.87 649.27,307.83 649.73,360.00 650.18,360.00 650.63,307.83 651.09,307.83 651.54,268.70 651.99,360.00 652.45,281.74 652.90,320.87 653.36,346.96 653.81,346.96 654.26,242.61 654.72,281.74 655.17,333.91 655.62,294.78 656.08,320.87 656.53,281.74 656.98,281.74 657.44,333.91 657.89,360.00 658.35,268.70 658.80,333.91 659.25,333.91 659.71,346.96 660.16,307.83 660.61,307.83 661.07,360.00 661.52,307.83 661.97,360.00 662.43,229.57 662.88,333.91 663.34,255.65 663.79,320.87 664.24,333.91 664.70,360.00 665.15,360.00 665.60,346.96 666.06,360.00 666.51,255.65 666.96,307.83 667.42,360.00 667.87,255.65 668.33,255.65 668.78,360.00 669.23,307.83 669.69,307.83 670.14,268.70 670.59,242.61 671.05,281.74 671.50,360.00 671.95,333.91 672.41,346.96 672.86,203.48 673.32,203.48 673.77,360.00 674.22,346.96 674.68,333.91 675.13,360.00 675.58,346.96 676.04,229.57 676.49,360.00 676.94,320.87 677.40,307.83 677.85,281.74 678.31,333.91 678.76,320.87 679.21,360.00 679.67,333.91 680.12,255.65 680.57,320.87 681.03,307.83 681.48,333.91 681.93,255.65 682.39,190.43 682.84,242.61 683.30,360.00 683.75,360.00 684.20,333.91 684.66,307.83 685.11,281.74 685.56,307.83 686.02,281.74 686.47,333.91 686.92,281.74 687.38,346.96 687.83,333.91 688.29,294.78 688.74,360.00 689.19,333.91 689.65,360.00 690.10,360.00 690.55,229.57 691.01,333.91 691.46,307.83 691.91,360.00 692.37,320.87 692.82,307.83 693.28,229.57 693.73,294.78 694.18,333.91 694.64,333.91 695.09,216.52 695.54,333.91 696.00,255.65 696.45,164.35 696.90,281.74 697.36,320.87 697.81,333.91 698.27,333.91 698.72,333.91 699.17,333.91 699.63,360.00 700.08,333.91 700.53,346.96 700.99,346.96 701.44,242.61 701.89,360.00 702.35,307.83 702.80,177.39 703.26,320.87 703.71,229.57 704.16,281.74 704.62,307.83 705.07,333.91 705.52,281.74 705.98,307.83 706.43,281.74 706.88,333.91 707.34,346.96 707.79,307.83 708.25,333.91 708.70,268.70 709.15,360.00 709.61,307.83 710.06,360.00 710.51,307.83 710.97,294.78 711.42,242.61 711.87,281.74 712.33,333.91 712.78,307.83 713.24,346.96 713.69,346.96 714.14,281.74 714.60,281.74 715.05,346.96 715.50,360.00 715.96,203.48 716.41,268.70 716.86,320.87 717.32,307.83 717.77,320.87 718.23,320.87 718.68,360.00 719.13,307.83 719.59,255.65 720.04,268.70 720.49,307.83 720.95,360.00 721.40,307.83 721.85,333.91 722.31,360.00 722.76,307.83 723.22,255.65 723.67,125.22 724.12,268.70 724.58,307.83 725.03,320.87 725.48,229.57 725.94,360.00 726.39,307.83 726.84,333.91 727.30,281.74 727.75,307.83 728.21,307.83 728.66,281.74 729.11,346.96 729.57,320.87 730.02,346.96 730.47,294.78 730.93,360.00 731.38,294.78 731.83,333.91 732.29,360.00 732.74,307.83 733.20,320.87 733.65,307.83 734.10,307.83 734.56,333.91 735.01,255.65 735.46,307.83 735.92,360.00 736.37,320.87 736.82,268.70 737.28,346.96 737.73,360.00 738.19,360.00 738.64,346.96 739.09,294.78 739.55,294.78 740.00,294.78" />
</svg>
