<svg xmlns="http://www.w3.org/2000/svg" width="800" height="420">
  <rect x="0" y="0" width="800" height="420" fill="#ffffff" />
  <line x1="60" y1="360" x2="740" y2="360" stroke="#333333" stroke-width="2" />
  <line x1="60" y1="60" x2="60" y2="360" stroke="#333333" stroke-width="2" />
  <text x="400.0" y="30" text-anchor="middle" font-size="22" font-family="Arial">Training Loss</text>
  <text x="400.0" y="405" text-anchor="middle" font-size="16" font-family="Arial">Batch</text>
  <text x="24" y="210.0" text-anchor="middle" font-size="16" font-family="Arial" transform="rotate(-90 24 210.0)">Loss</text>
  <text x="60" y="50" font-size="13" font-family="Arial">5.127</text>
  <text x="60" y="380" font-size="13" font-family="Arial">2.036</text>
  <text x="60" y="395" font-size="13" font-family="Arial">3</text>
  <text x="740" y="395" text-anchor="end" font-size="13" font-family="Arial">1500</text>
  <polyline fill="none" stroke="#dc2626" stroke-width="3" points="60.00,60.00 60.45,66.76 60.91,77.28 61.36,81.57 61.82,83.30 62.27,88.56 62.73,90.46 63.18,91.80 63.63,94.83 64.09,96.76 64.54,100.23 65.00,100.82 65.45,103.64 65.91,105.45 66.36,109.24 66.81,107.74 67.27,111.83 67.72,113.03 68.18,113.37 68.63,114.41 69.08,118.14 69.54,121.28 69.99,121.93 70.45,124.91 70.90,124.87 71.36,127.00 71.81,127.49 72.26,131.01 72.72,130.87 73.17,130.93 73.63,134.28 74.08,132.59 74.54,134.66 74.99,134.10 75.44,134.11 75.90,136.90 76.35,139.91 76.81,139.79 77.26,145.82 77.72,143.17 78.17,143.16 78.62,139.95 79.08,144.65 79.53,146.08 79.99,145.62 80.44,144.50 80.90,148.72 81.35,147.96 81.80,148.53 82.26,146.95 82.71,148.79 83.17,151.34 83.62,149.26 84.07,150.09 84.53,152.92 84.98,152.48 85.44,150.41 85.89,151.03 86.35,151.41 86.80,154.15 87.25,151.35 87.71,152.62 88.16,150.04 88.62,152.50 89.07,154.68 89.53,157.03 89.98,152.15 90.43,157.76 90.89,152.56 91.34,150.69 91.80,156.57 92.25,159.96 92.71,155.60 93.16,158.03 93.61,160.03 94.07,154.22 94.52,154.94 94.98,153.85 95.43,156.41 95.89,155.53 96.34,157.76 96.79,159.50 97.25,162.61 97.70,157.18 98.16,159.57 98.61,164.56 99.06,162.45 99.52,163.21 99.97,164.17 100.43,164.45 100.88,166.31 101.34,165.97 101.79,166.28 102.24,167.70 102.70,166.10 103.15,163.06 103.61,168.32 104.06,165.42 104.52,167.40 104.97,165.31 105.42,169.12 105.88,171.35 106.33,168.61 106.79,169.23 107.24,168.25 107.70,171.95 108.15,173.33 108.60,168.84 109.06,174.09 109.51,170.40 109.97,167.00 110.42,172.35 110.88,170.46 111.33,174.93 111.78,173.75 112.24,172.29 112.69,172.36 113.15,171.82 113.60,174.06 114.05,174.73 114.51,170.42 114.96,175.97 115.42,180.42 115.87,175.62 116.33,180.04 116.78,176.36 117.23,181.06 117.69,181.53 118.14,177.62 118.60,180.10 119.05,183.79 119.51,180.01 119.96,182.62 120.41,180.70 120.87,179.96 121.32,183.74 121.78,183.71 122.23,184.03 122.69,184.86 123.14,185.47 123.59,187.41 124.05,186.36 124.50,190.70 124.96,186.09 125.41,187.69 125.87,190.95 126.32,185.02 126.77,184.95 127.23,184.09 127.68,190.11 128.14,187.95 128.59,187.64 129.04,187.40 129.50,189.02 129.95,190.12 130.41,188.12 130.86,188.10 131.32,185.35 131.77,186.95 132.22,187.05 132.68,189.83 133.13,186.48 133.59,192.77 134.04,193.79 134.50,190.43 134.95,193.97 135.40,190.38 135.86,193.94 136.31,191.66 136.77,194.86 137.22,192.37 137.68,193.90 138.13,192.83 138.58,192.62 139.04,192.17 139.49,193.64 139.95,194.78 140.40,195.21 140.86,194.37 141.31,194.33 141.76,194.41 142.22,193.58 142.67,196.39 143.13,197.82 143.58,195.83 144.03,194.64 144.49,195.83 144.94,198.56 145.40,197.47 145.85,198.67 146.31,197.02 146.76,197.49 147.21,200.63 147.67,197.32 148.12,201.15 148.58,196.37 149.03,199.00 149.49,197.02 149.94,201.94 150.39,202.85 150.85,204.92 151.30,203.36 151.76,199.54 152.21,203.65 152.67,200.88 153.12,202.03 153.57,205.93 154.03,207.59 154.48,203.69 154.94,202.68 155.39,202.58 155.85,203.31 156.30,205.72 156.75,199.79 157.21,205.30 157.66,204.82 158.12,205.11 158.57,208.72 159.02,208.05 159.48,204.15 159.93,211.07 160.39,203.97 160.84,213.38 161.30,210.20 161.75,206.96 162.20,210.91 162.66,210.82 163.11,210.16 163.57,209.88 164.02,211.09 164.48,211.77 164.93,210.13 165.38,209.35 165.84,207.91 166.29,205.96 166.75,212.52 167.20,212.58 167.66,209.30 168.11,209.84 168.56,207.49 169.02,214.43 169.47,216.50 169.93,221.77 170.38,209.87 170.84,212.73 171.29,211.53 171.74,214.77 172.20,205.31 172.65,209.22 173.11,214.92 173.56,222.70 174.01,212.13 174.47,216.88 174.92,214.61 175.38,215.70 175.83,216.30 176.29,215.33 176.74,211.88 177.19,215.76 177.65,218.29 178.10,216.09 178.56,223.76 179.01,219.86 179.47,221.86 179.92,218.85 180.37,224.42 180.83,220.91 181.28,221.31 181.74,228.78 182.19,223.22 182.65,221.07 183.10,221.47 183.55,229.48 184.01,223.41 184.46,226.46 184.92,227.52 185.37,224.23 185.82,222.76 186.28,232.13 186.73,226.17 187.19,228.51 187.64,235.24 188.10,229.74 188.55,221.87 189.00,226.89 189.46,229.28 189.91,228.80 190.37,229.76 190.82,224.08 191.28,236.93 191.73,227.77 192.18,229.13 192.64,224.93 193.09,235.47 193.55,232.85 194.00,231.86 194.46,231.50 194.91,227.90 195.36,237.81 195.82,236.58 196.27,232.04 196.73,236.43 197.18,245.16 197.64,224.34 198.09,227.39 198.54,228.85 199.00,235.63 199.45,242.34 199.91,231.32 200.36,238.26 200.81,235.03 201.27,233.60 201.72,239.35 202.18,239.38 202.63,245.57 203.09,242.29 203.54,244.49 203.99,237.90 204.45,237.19 204.90,244.18 205.36,242.43 205.81,244.97 206.27,236.51 206.72,252.42 207.17,242.41 207.63,238.26 208.08,242.88 208.54,244.19 208.99,243.71 209.45,240.73 209.90,250.60 210.35,250.97 210.81,241.45 211.26,252.63 211.72,243.31 212.17,241.81 212.63,241.33 213.08,245.88 213.53,250.59 213.99,242.26 214.44,249.13 214.90,249.79 215.35,247.31 215.80,248.00 216.26,260.21 216.71,254.36 217.17,254.10 217.62,260.49 218.08,255.99 218.53,262.10 218.98,262.23 219.44,251.84 219.89,255.55 220.35,252.40 220.80,259.90 221.26,259.14 221.71,263.55 222.16,265.65 222.62,247.97 223.07,251.92 223.53,265.12 223.98,260.95 224.44,258.38 224.89,252.52 225.34,269.64 225.80,261.56 226.25,257.60 226.71,260.26 227.16,254.41 227.62,259.88 228.07,256.53 228.52,257.44 228.98,264.81 229.43,267.04 229.89,259.38 230.34,256.94 230.79,262.29 231.25,267.53 231.70,262.36 232.16,264.67 232.61,259.27 233.07,262.31 233.52,265.36 233.97,257.91 234.43,261.00 234.88,263.22 235.34,268.31 235.79,254.23 236.25,267.64 236.70,268.70 237.15,270.80 237.61,274.40 238.06,273.60 238.52,268.59 238.97,269.52 239.43,270.03 239.88,265.19 240.33,260.16 240.79,260.04 241.24,274.79 241.70,263.26 242.15,264.16 242.61,267.15 243.06,273.28 243.51,272.99 243.97,271.28 244.42,275.50 244.88,269.88 245.33,275.09 245.78,273.99 246.24,271.90 246.69,269.40 247.15,269.48 247.60,271.63 248.06,265.36 248.51,270.74 248.96,276.60 249.42,263.29 249.87,270.41 250.33,273.47 250.78,267.54 251.24,277.75 251.69,276.67 252.14,282.31 252.60,276.19 253.05,272.18 253.51,282.84 253.96,273.63 254.42,279.07 254.87,279.11 255.32,274.43 255.78,278.17 256.23,273.02 256.69,270.36 257.14,276.88 257.60,278.92 258.05,284.28 258.50,279.29 258.96,285.86 259.41,273.72 259.87,279.12 260.32,283.34 260.77,279.09 261.23,281.68 261.68,286.18 262.14,282.00 262.59,280.50 263.05,282.97 263.50,279.18 263.95,287.40 264.41,287.11 264.86,270.90 265.32,291.41 265.77,286.13 266.23,283.95 266.68,290.42 267.13,281.48 267.59,284.72 268.04,278.61 268.50,286.07 268.95,285.59 269.41,287.91 269.86,284.79 270.31,273.09 270.77,288.07 271.22,293.60 271.68,280.70 272.13,278.31 272.59,274.92 273.04,276.50 273.49,282.57 273.95,274.48 274.40,275.66 274.86,281.45 275.31,277.08 275.76,284.84 276.22,272.78 276.67,283.86 277.13,275.76 277.58,285.64 278.04,280.46 278.49,287.05 278.94,280.78 279.40,284.62 279.85,279.84 280.31,281.80 280.76,284.09 281.22,284.73 281.67,279.62 282.12,281.50 282.58,286.94 283.03,282.70 283.49,288.81 283.94,282.04 284.40,284.36 284.85,282.08 285.30,281.26 285.76,282.54 286.21,286.64 286.67,290.40 287.12,286.02 287.58,280.10 288.03,282.91 288.48,292.68 288.94,280.23 289.39,284.92 289.85,284.62 290.30,289.17 290.75,287.31 291.21,289.43 291.66,284.87 292.12,287.20 292.57,285.83 293.03,282.14 293.48,281.81 293.93,281.99 294.39,279.58 294.84,278.33 295.30,283.70 295.75,277.04 296.21,277.74 296.66,289.80 297.11,286.13 297.57,280.18 298.02,283.47 298.48,283.68 298.93,283.53 299.39,280.88 299.84,278.30 300.29,287.07 300.75,286.68 301.20,279.34 301.66,285.32 302.11,281.58 302.57,287.28 303.02,284.63 303.47,286.45 303.93,287.71 304.38,288.24 304.84,277.46 305.29,284.51 305.74,290.39 306.20,277.63 306.65,283.19 307.11,287.70 307.56,281.87 308.02,286.23 308.47,280.71 308.92,273.40 309.38,288.59 309.83,282.48 310.29,283.58 310.74,281.48 311.20,282.60 311.65,284.49 312.10,280.34 312.56,277.40 313.01,285.27 313.47,276.66 313.92,283.56 314.38,288.31 314.83,278.01 315.28,288.25 315.74,284.64 316.19,284.75 316.65,278.53 317.10,286.05 317.56,282.10 318.01,284.89 318.46,287.63 318.92,285.30 319.37,292.35 319.83,281.07 320.28,278.12 320.73,289.07 321.19,288.65 321.64,288.43 322.10,286.28 322.55,281.10 323.01,286.77 323.46,289.29 323.91,288.86 324.37,282.58 324.82,291.94 325.28,290.69 325.73,292.96 326.19,287.03 326.64,294.74 327.09,288.56 327.55,285.15 328.00,284.45 328.46,286.25 328.91,286.87 329.37,294.91 329.82,281.15 330.27,285.22 330.73,284.73 331.18,289.75 331.64,288.48 332.09,290.49 332.55,283.88 333.00,283.67 333.45,292.83 333.91,282.13 334.36,292.60 334.82,290.18 335.27,287.82 335.72,282.76 336.18,286.39 336.63,292.50 337.09,274.50 337.54,285.73 338.00,296.89 338.45,286.79 338.90,286.61 339.36,289.92 339.81,290.70 340.27,293.61 340.72,288.57 341.18,288.43 341.63,294.48 342.08,301.40 342.54,295.59 342.99,286.43 343.45,289.45 343.90,292.83 344.36,298.10 344.81,294.98 345.26,284.79 345.72,293.70 346.17,296.18 346.63,292.17 347.08,281.61 347.54,291.81 347.99,290.19 348.44,293.21 348.90,292.71 349.35,288.08 349.81,289.38 350.26,291.15 350.71,294.69 351.17,287.35 351.62,291.73 352.08,290.72 352.53,294.16 352.99,290.84 353.44,291.94 353.89,291.65 354.35,298.54 354.80,295.38 355.26,298.28 355.71,303.46 356.17,284.29 356.62,295.61 357.07,295.47 357.53,296.88 357.98,295.25 358.44,295.43 358.89,289.35 359.35,287.40 359.80,298.81 360.25,294.83 360.71,299.84 361.16,296.05 361.62,291.82 362.07,291.73 362.53,293.51 362.98,292.83 363.43,289.26 363.89,294.20 364.34,306.22 364.80,308.24 365.25,303.47 365.70,303.00 366.16,303.18 366.61,305.89 367.07,299.57 367.52,298.91 367.98,304.71 368.43,312.22 368.88,300.32 369.34,302.12 369.79,306.29 370.25,297.77 370.70,299.08 371.16,297.22 371.61,296.78 372.06,302.16 372.52,303.49 372.97,303.47 373.43,307.96 373.88,301.14 374.34,305.70 374.79,300.15 375.24,306.57 375.70,303.95 376.15,302.60 376.61,304.07 377.06,304.78 377.52,307.82 377.97,304.33 378.42,308.88 378.88,302.68 379.33,302.47 379.79,307.25 380.24,310.03 380.69,311.49 381.15,304.18 381.60,307.18 382.06,314.62 382.51,306.70 382.97,311.44 383.42,313.89 383.87,308.09 384.33,310.25 384.78,325.33 385.24,301.43 385.69,308.46 386.15,324.17 386.60,316.10 387.05,319.26 387.51,321.99 387.96,323.13 388.42,314.39 388.87,314.05 389.33,321.69 389.78,311.75 390.23,307.56 390.69,319.13 391.14,320.17 391.60,326.09 392.05,314.24 392.51,316.86 392.96,324.51 393.41,311.20 393.87,321.36 394.32,315.08 394.78,314.49 395.23,313.57 395.68,319.19 396.14,313.18 396.59,307.53 397.05,313.90 397.50,310.14 397.96,306.17 398.41,316.71 398.86,320.18 399.32,318.43 399.77,315.33 400.23,317.16 400.68,308.21 401.14,313.27 401.59,310.07 402.04,313.13 402.50,313.38 402.95,313.75 403.41,310.32 403.86,317.62 404.32,315.93 404.77,315.03 405.22,306.72 405.68,321.57 406.13,311.17 406.59,316.71 407.04,317.31 407.49,308.42 407.95,295.70 408.40,309.22 408.86,304.94 409.31,310.35 409.77,310.02 410.22,310.82 410.67,305.70 411.13,306.24 411.58,313.14 412.04,303.19 412.49,311.42 412.95,307.27 413.40,313.23 413.85,310.19 414.31,319.79 414.76,312.63 415.22,309.61 415.67,316.52 416.13,306.92 416.58,316.56 417.03,310.26 417.49,315.10 417.94,312.21 418.40,314.87 418.85,315.31 419.31,308.43 419.76,315.73 420.21,305.28 420.67,310.15 421.12,310.33 421.58,311.90 422.03,305.05 422.48,314.07 422.94,315.08 423.39,311.48 423.85,309.41 424.30,314.30 424.76,309.99 425.21,317.15 425.66,320.09 426.12,314.17 426.57,311.50 427.03,317.44 427.48,313.95 427.94,304.52 428.39,308.89 428.84,318.75 429.30,312.29 429.75,315.78 430.21,319.37 430.66,316.92 431.12,309.97 431.57,315.12 432.02,318.00 432.48,308.10 432.93,320.39 433.39,320.56 433.84,310.80 434.30,322.53 434.75,313.84 435.20,318.35 435.66,315.53 436.11,312.65 436.57,323.55 437.02,323.55 437.47,308.15 437.93,320.56 438.38,317.52 438.84,316.50 439.29,310.91 439.75,317.46 440.20,314.18 440.65,317.05 441.11,318.89 441.56,313.67 442.02,318.17 442.47,311.97 442.93,320.62 443.38,320.40 443.83,316.77 444.29,316.04 444.74,316.62 445.20,306.26 445.65,310.50 446.11,316.83 446.56,315.74 447.01,300.96 447.47,311.84 447.92,311.72 448.38,305.37 448.83,313.45 449.29,311.23 449.74,313.17 450.19,324.20 450.65,314.16 451.10,315.10 451.56,323.95 452.01,306.61 452.46,308.62 452.92,311.68 453.37,314.69 453.83,319.88 454.28,302.66 454.74,319.88 455.19,313.17 455.64,309.29 456.10,322.20 456.55,314.43 457.01,322.76 457.46,320.36 457.92,317.19 458.37,319.36 458.82,319.83 459.28,322.96 459.73,328.91 460.19,311.61 460.64,309.86 461.10,315.93 461.55,323.30 462.00,312.72 462.46,323.70 462.91,322.43 463.37,315.60 463.82,323.35 464.28,310.06 464.73,321.40 465.18,321.03 465.64,314.86 466.09,309.58 466.55,322.14 467.00,323.95 467.45,322.73 467.91,317.32 468.36,320.23 468.82,308.90 469.27,312.29 469.73,325.83 470.18,313.75 470.63,313.33 471.09,312.48 471.54,319.82 472.00,317.48 472.45,327.99 472.91,318.65 473.36,317.51 473.81,326.11 474.27,322.22 474.72,314.65 475.18,316.39 475.63,310.45 476.09,320.72 476.54,327.89 476.99,317.76 477.45,328.88 477.90,318.57 478.36,321.29 478.81,316.99 479.27,324.28 479.72,325.51 480.17,327.03 480.63,317.70 481.08,316.54 481.54,322.14 481.99,326.65 482.44,314.11 482.90,323.33 483.35,324.19 483.81,323.47 484.26,318.62 484.72,329.60 485.17,328.95 485.62,322.06 486.08,333.64 486.53,312.12 486.99,314.84 487.44,319.58 487.90,317.92 488.35,328.55 488.80,324.55 489.26,327.88 489.71,330.32 490.17,315.01 490.62,321.95 491.08,322.06 491.53,319.49 491.98,319.37 492.44,325.43 492.89,324.95 493.35,315.33 493.80,319.47 494.26,317.34 494.71,322.35 495.16,325.61 495.62,320.59 496.07,322.95 496.53,313.75 496.98,323.01 497.43,319.74 497.89,313.54 498.34,319.05 498.80,320.64 499.25,327.12 499.71,324.16 500.16,318.09 500.61,323.94 501.07,320.00 501.52,323.79 501.98,326.58 502.43,320.81 502.89,319.76 503.34,324.64 503.79,317.72 504.25,324.29 504.70,322.47 505.16,325.25 505.61,315.72 506.07,323.06 506.52,316.61 506.97,312.64 507.43,328.55 507.88,317.39 508.34,316.73 508.79,317.13 509.25,316.21 509.70,325.51 510.15,318.65 510.61,323.10 511.06,315.11 511.52,310.32 511.97,314.17 512.42,322.49 512.88,317.06 513.33,310.38 513.79,318.93 514.24,313.39 514.70,322.20 515.15,317.63 515.60,320.55 516.06,322.87 516.51,317.31 516.97,315.55 517.42,310.94 517.88,319.68 518.33,311.27 518.78,318.68 519.24,314.29 519.69,322.45 520.15,318.06 520.60,319.50 521.06,326.06 521.51,319.44 521.96,316.18 522.42,323.80 522.87,323.01 523.33,325.07 523.78,309.27 524.24,314.27 524.69,318.60 525.14,307.67 525.60,314.24 526.05,318.06 526.51,327.18 526.96,319.38 527.41,321.36 527.87,320.92 528.32,309.65 528.78,321.01 529.23,327.01 529.69,320.06 530.14,318.72 530.59,315.76 531.05,312.98 531.50,316.21 531.96,319.33 532.41,312.53 532.87,316.19 533.32,313.77 533.77,313.82 534.23,314.48 534.68,320.68 535.14,318.66 535.59,315.36 536.05,306.76 536.50,321.53 536.95,316.05 537.41,312.25 537.86,314.29 538.32,314.55 538.77,324.24 539.23,320.44 539.68,323.45 540.13,316.62 540.59,313.70 541.04,316.31 541.50,316.03 541.95,317.78 542.40,318.24 542.86,319.57 543.31,322.59 543.77,312.02 544.22,318.59 544.68,321.38 545.13,323.28 545.58,314.41 546.04,322.94 546.49,320.51 546.95,326.35 547.40,336.19 547.86,316.13 548.31,314.49 548.76,321.53 549.22,327.98 549.67,322.11 550.13,321.06 550.58,322.94 551.04,320.64 551.49,316.22 551.94,315.61 552.40,319.14 552.85,327.08 553.31,320.76 553.76,313.49 554.22,326.98 554.67,317.36 555.12,327.08 555.58,318.42 556.03,318.24 556.49,327.09 556.94,318.21 557.39,323.08 557.85,320.32 558.30,323.68 558.76,316.65 559.21,333.46 559.67,327.44 560.12,317.48 560.57,322.81 561.03,321.89 561.48,323.56 561.94,318.62 562.39,321.63 562.85,327.48 563.30,328.37 563.75,331.53 564.21,327.60 564.66,329.61 565.12,327.97 565.57,321.35 566.03,323.02 566.48,326.27 566.93,324.38 567.39,327.03 567.84,329.60 568.30,316.40 568.75,332.19 569.21,338.98 569.66,328.51 570.11,324.71 570.57,328.11 571.02,319.61 571.48,329.23 571.93,338.45 572.38,331.92 572.84,333.74 573.29,327.37 573.75,325.77 574.20,330.70 574.66,328.58 575.11,318.58 575.56,330.65 576.02,329.26 576.47,329.50 576.93,325.64 577.38,327.31 577.84,327.09 578.29,334.30 578.74,327.42 579.20,319.33 579.65,325.88 580.11,336.41 580.56,332.65 581.02,330.51 581.47,326.17 581.92,331.38 582.38,334.57 582.83,326.88 583.29,327.36 583.74,333.09 584.20,329.94 584.65,327.68 585.10,328.77 585.56,326.09 586.01,338.71 586.47,329.59 586.92,332.78 587.37,327.02 587.83,325.11 588.28,334.63 588.74,338.92 589.19,333.56 589.65,345.92 590.10,336.48 590.55,349.51 591.01,325.60 591.46,340.71 591.92,338.83 592.37,341.83 592.83,339.73 593.28,330.20 593.73,340.19 594.19,335.47 594.64,336.49 595.10,333.61 595.55,329.58 596.01,335.21 596.46,336.46 596.91,335.76 597.37,326.39 597.82,329.37 598.28,334.69 598.73,333.58 599.19,341.77 599.64,334.98 600.09,340.43 600.55,339.01 601.00,333.71 601.46,334.90 601.91,337.69 602.36,332.34 602.82,334.65 603.27,329.48 603.73,338.34 604.18,333.46 604.64,335.81 605.09,334.38 605.54,336.42 606.00,330.90 606.45,327.59 606.91,346.55 607.36,341.77 607.82,336.51 608.27,339.93 608.72,329.35 609.18,348.45 609.63,347.45 610.09,339.55 610.54,331.99 611.00,336.27 611.45,333.83 611.90,328.42 612.36,337.42 612.81,331.85 613.27,332.19 613.72,333.79 614.18,332.88 614.63,337.17 615.08,329.44 615.54,334.09 615.99,326.48 616.45,328.77 616.90,332.57 617.35,329.84 617.81,330.89 618.26,330.64 618.72,340.34 619.17,331.56 619.63,329.82 620.08,325.24 620.53,330.23 620.99,335.69 621.44,332.92 621.90,330.48 622.35,328.58 622.81,341.11 623.26,322.19 623.71,330.78 624.17,331.21 624.62,335.73 625.08,332.00 625.53,328.90 625.99,335.89 626.44,328.03 626.89,330.46 627.35,333.08 627.80,330.56 628.26,337.66 628.71,336.66 629.16,340.76 629.62,326.26 630.07,338.91 630.53,330.10 630.98,333.63 631.44,333.81 631.89,343.08 632.34,328.47 632.80,331.95 633.25,334.02 633.71,336.27 634.16,331.63 634.62,335.55 635.07,330.15 635.52,330.61 635.98,329.50 636.43,328.60 636.89,329.12 637.34,333.16 637.80,325.46 638.25,337.31 638.70,329.71 639.16,325.53 639.61,334.25 640.07,334.36 640.52,328.23 640.98,329.44 641.43,336.38 641.88,326.07 642.34,334.39 642.79,333.18 643.25,332.96 643.70,338.06 644.15,334.95 644.61,335.25 645.06,329.75 645.52,327.92 645.97,336.71 646.43,337.08 646.88,333.81 647.33,332.75 647.79,335.46 648.24,321.93 648.70,336.63 649.15,339.86 649.61,331.59 650.06,340.15 650.51,332.65 650.97,334.69 651.42,330.08 651.88,324.87 652.33,333.12 652.79,335.29 653.24,336.07 653.69,346.62 654.15,328.66 654.60,334.19 655.06,335.23 655.51,339.69 655.97,331.32 656.42,334.58 656.87,333.27 657.33,325.33 657.78,329.38 658.24,333.22 658.69,336.00 659.14,339.98 659.60,333.90 660.05,333.68 660.51,346.93 660.96,336.14 661.42,335.25 661.87,340.21 662.32,333.53 662.78,339.70 663.23,343.19 663.69,344.98 664.14,330.66 664.60,351.35 665.05,340.91 665.50,341.61 665.96,345.22 666.41,338.35 666.87,346.89 667.32,353.23 667.78,334.66 668.23,333.32 668.68,342.50 669.14,340.00 669.59,342.63 670.05,341.04 670.50,338.35 670.96,333.42 671.41,340.62 671.86,346.18 672.32,345.48 672.77,334.79 673.23,344.27 673.68,345.84 674.13,343.99 674.59,359.89 675.04,343.58 675.50,344.73 675.95,346.29 676.41,348.88 676.86,347.93 677.31,353.13 677.77,350.37 678.22,357.09 678.68,348.21 679.13,349.06 679.59,356.26 680.04,357.52 680.49,350.24 680.95,346.67 681.40,351.18 681.86,346.95 682.31,341.43 682.77,345.11 683.22,345.60 683.67,343.30 684.13,344.25 684.58,347.25 685.04,347.89 685.49,359.14 685.95,343.92 686.40,350.27 686.85,343.31 687.31,346.95 687.76,356.32 688.22,341.85 688.67,351.96 689.12,346.35 689.58,343.53 690.03,340.52 690.49,347.28 690.94,350.53 691.40,350.02 691.85,339.64 692.30,342.66 692.76,344.70 693.21,353.00 693.67,348.48 694.12,350.20 694.58,344.00 695.03,348.57 695.48,353.45 695.94,350.67 696.39,341.88 696.85,347.00 697.30,332.70 697.76,348.11 698.21,340.20 698.66,343.83 699.12,335.18 699.57,340.34 700.03,342.76 700.48,349.55 700.94,350.31 701.39,344.95 701.84,348.05 702.30,345.24 702.75,347.38 703.21,338.38 703.66,345.30 704.11,345.50 704.57,337.83 705.02,343.20 705.48,360.00 705.93,349.00 706.39,343.42 706.84,359.59 707.29,354.92 707.75,339.30 708.20,349.22 708.66,344.29 709.11,345.28 709.57,346.72 710.02,350.49 710.47,358.77 710.93,353.01 711.38,342.68 711.84,348.80 712.29,356.06 712.75,349.53 713.20,348.31 713.65,344.69 714.11,344.67 714.56,347.12 715.02,341.52 715.47,356.04 715.93,339.89 716.38,351.48 716.83,347.51 717.29,352.17 717.74,343.96 718.20,347.27 718.65,345.37 719.10,347.08 719.56,337.39 720.01,334.13 720.47,341.11 720.92,347.23 721.38,345.62 721.83,348.14 722.28,351.88 722.74,342.09 723.19,349.93 723.65,345.58 724.10,333.68 724.56,342.48 725.01,343.48 725.46,340.85 725.92,340.99 726.37,330.70 726.83,349.55 727.28,346.27 727.74,344.49 728.19,347.88 728.64,344.63 729.10,350.99 729.55,352.47 730.01,337.35 730.46,348.08 730.92,345.37 731.37,332.81 731.82,351.19 732.28,343.38 732.73,336.32 733.19,353.01 733.64,338.90 734.09,332.12 734.55,348.13 735.00,340.18 735.46,349.43 735.91,349.78 736.37,342.56 736.82,341.74 737.27,338.07 737.73,341.51 738.18,341.87 738.64,340.84 739.09,340.23 739.55,340.45 740.00,348.03" />
</svg>
