<svg xmlns="http://www.w3.org/2000/svg" width="800" height="420">
  <rect x="0" y="0" width="800" height="420" fill="#ffffff" />
  <line x1="60" y1="360" x2="740" y2="360" stroke="#333333" stroke-width="2" />
  <line x1="60" y1="60" x2="60" y2="360" stroke="#333333" stroke-width="2" />
  <text x="400.0" y="30" text-anchor="middle" font-size="22" font-family="Arial">Effective Learning Rate</text>
  <text x="400.0" y="405" text-anchor="middle" font-size="16" font-family="Arial">Batch</text>
  <text x="24" y="210.0" text-anchor="middle" font-size="16" font-family="Arial" transform="rotate(-90 24 210.0)">Learning Rate</text>
  <text x="60" y="50" font-size="13" font-family="Arial">0.003</text>
  <text x="60" y="380" font-size="13" font-family="Arial">0.000</text>
  <text x="60" y="395" font-size="13" font-family="Arial">4</text>
  <text x="740" y="395" text-anchor="end" font-size="13" font-family="Arial">1500</text>
  <polyline fill="none" stroke="#0891b2" stroke-width="3" points="60.00,237.03 60.45,237.03 60.91,237.03 61.36,166.22 61.82,60.00 62.27,166.22 62.73,166.22 63.18,237.03 63.64,237.03 64.09,237.03 64.55,237.03 65.00,237.03 65.45,237.03 65.91,237.03 66.36,284.24 66.82,284.24 67.27,284.24 67.73,284.24 68.18,315.71 68.64,336.69 69.09,336.69 69.55,315.71 70.00,315.71 70.45,315.71 70.91,284.24 71.36,284.24 71.82,284.24 72.27,237.03 72.73,237.03 73.18,237.03 73.64,284.24 74.09,284.24 74.55,284.24 75.00,284.24 75.45,284.24 75.91,284.24 76.36,284.24 76.82,284.24 77.27,284.24 77.73,284.24 78.18,284.24 78.64,284.24 79.09,284.24 79.55,284.24 80.00,284.24 80.45,284.24 80.91,284.24 81.36,284.24 81.82,284.24 82.27,284.24 82.73,315.71 83.18,315.71 83.64,315.71 84.09,284.24 84.55,315.71 85.00,315.71 85.45,315.71 85.91,315.71 86.36,315.71 86.82,315.71 87.27,315.71 87.73,284.24 88.18,284.24 88.64,284.24 89.09,284.24 89.55,284.24 90.00,284.24 90.45,284.24 90.91,284.24 91.36,315.71 91.82,315.71 92.27,315.71 92.73,315.71 93.18,315.71 93.64,315.71 94.09,315.71 94.55,315.71 95.00,336.69 95.45,336.69 95.91,336.69 96.36,315.71 96.82,315.71 97.27,315.71 97.73,315.71 98.18,315.71 98.64,315.71 99.09,315.71 99.55,315.71 100.00,315.71 100.45,315.71 100.91,315.71 101.36,315.71 101.82,315.71 102.27,315.71 102.73,315.71 103.18,315.71 103.64,315.71 104.09,315.71 104.55,315.71 105.00,315.71 105.45,315.71 105.91,315.71 106.36,336.69 106.82,336.69 107.27,336.69 107.73,336.69 108.18,336.69 108.64,336.69 109.09,336.69 109.55,336.69 110.00,336.69 110.45,336.69 110.91,336.69 111.36,336.69 111.82,336.69 112.27,336.69 112.73,336.69 113.18,336.69 113.64,336.69 114.09,336.69 114.55,336.69 115.00,336.69 115.45,336.69 115.91,336.69 116.36,336.69 116.82,336.69 117.27,336.69 117.73,336.69 118.18,336.69 118.64,336.69 119.09,336.69 119.55,336.69 120.00,336.69 120.45,336.69 120.91,336.69 121.36,336.69 121.82,336.69 122.27,336.69 122.73,336.69 123.18,336.69 123.64,336.69 124.09,336.69 124.55,336.69 125.00,336.69 125.45,336.69 125.91,336.69 126.36,336.69 126.82,336.69 127.27,336.69 127.73,336.69 128.18,336.69 128.64,336.69 129.09,336.69 129.55,336.69 130.00,336.69 130.45,336.69 130.91,336.69 131.36,336.69 131.82,336.69 132.27,336.69 132.73,336.69 133.18,336.69 133.64,336.69 134.09,350.68 134.55,350.68 135.00,350.68 135.45,336.69 135.91,336.69 136.36,336.69 136.82,336.69 137.27,336.69 137.73,336.69 138.18,336.69 138.64,336.69 139.09,336.69 139.55,336.69 140.00,336.69 140.45,336.69 140.91,336.69 141.36,336.69 141.82,336.69 142.27,336.69 142.73,336.69 143.18,336.69 143.64,336.69 144.09,336.69 144.55,336.69 145.00,336.69 145.45,336.69 145.91,336.69 146.36,336.69 146.82,336.69 147.27,336.69 147.73,336.69 148.18,336.69 148.64,336.69 149.09,336.69 149.55,336.69 150.00,336.69 150.45,336.69 150.91,336.69 151.36,336.69 151.82,336.69 152.27,336.69 152.73,336.69 153.18,336.69 153.64,336.69 154.09,336.69 154.55,336.69 155.00,336.69 155.45,336.69 155.91,336.69 156.36,336.69 156.82,336.69 157.27,336.69 157.73,336.69 158.18,336.69 158.64,336.69 159.09,336.69 159.55,336.69 160.00,336.69 160.45,336.69 160.91,336.69 161.36,336.69 161.82,336.69 162.27,336.69 162.73,336.69 163.18,336.69 163.64,336.69 164.09,336.69 164.55,336.69 165.00,336.69 165.45,336.69 165.91,336.69 166.36,336.69 166.82,336.69 167.27,336.69 167.73,336.69 168.18,350.68 168.64,350.68 169.09,350.68 169.55,336.69 170.00,336.69 170.45,336.69 170.91,336.69 171.36,336.69 171.82,336.69 172.27,336.69 172.73,336.69 173.18,336.69 173.64,336.69 174.09,336.69 174.55,336.69 175.00,336.69 175.45,336.69 175.91,336.69 176.36,336.69 176.82,336.69 177.27,336.69 177.73,336.69 178.18,336.69 178.64,336.69 179.09,336.69 179.55,336.69 180.00,336.69 180.45,336.69 180.91,336.69 181.36,336.69 181.82,336.69 182.27,336.69 182.73,336.69 183.18,336.69 183.64,336.69 184.09,336.69 184.55,336.69 185.00,336.69 185.45,336.69 185.91,336.69 186.36,336.69 186.82,336.69 187.27,336.69 187.73,336.69 188.18,336.69 188.64,336.69 189.09,336.69 189.55,336.69 190.00,336.69 190.45,336.69 190.91,336.69 191.36,336.69 191.82,336.69 192.27,336.69 192.73,336.69 193.18,336.69 193.64,336.69 194.09,336.69 194.55,336.69 195.00,336.69 195.45,336.69 195.91,336.69 196.36,336.69 196.82,336.69 197.27,336.69 197.73,336.69 198.18,336.69 198.64,336.69 199.09,336.69 199.55,336.69 200.00,336.69 200.45,350.68 200.91,336.69 201.36,336.69 201.82,336.69 202.27,336.69 202.73,336.69 203.18,336.69 203.64,336.69 204.09,336.69 204.55,336.69 205.00,336.69 205.45,336.69 205.91,336.69 206.36,336.69 206.82,336.69 207.27,336.69 207.73,336.69 208.18,336.69 208.64,336.69 209.09,336.69 209.55,336.69 210.00,336.69 210.45,336.69 210.91,336.69 211.36,336.69 211.82,336.69 212.27,336.69 212.73,336.69 213.18,336.69 213.64,336.69 214.09,336.69 214.55,336.69 215.00,336.69 215.45,336.69 215.91,336.69 216.36,336.69 216.82,336.69 217.27,336.69 217.73,336.69 218.18,336.69 218.64,336.69 219.09,336.69 219.55,336.69 220.00,336.69 220.45,336.69 220.91,336.69 221.36,336.69 221.82,336.69 222.27,336.69 222.73,336.69 223.18,336.69 223.64,336.69 224.09,336.69 224.55,336.69 225.00,336.69 225.45,336.69 225.91,336.69 226.36,336.69 226.82,336.69 227.27,336.69 227.73,336.69 228.18,336.69 228.64,336.69 229.09,336.69 229.55,336.69 230.00,336.69 230.45,336.69 230.91,336.69 231.36,336.69 231.82,336.69 232.27,336.69 232.73,336.69 233.18,336.69 233.64,336.69 234.09,336.69 234.55,336.69 235.00,336.69 235.45,336.69 235.91,336.69 236.36,336.69 236.82,336.69 237.27,336.69 237.73,336.69 238.18,336.69 238.64,336.69 239.09,336.69 239.55,336.69 240.00,336.69 240.45,336.69 240.91,336.69 241.36,336.69 241.82,336.69 242.27,336.69 242.73,336.69 243.18,336.69 243.64,336.69 244.09,336.69 244.55,336.69 245.00,336.69 245.45,350.68 245.91,350.68 246.36,350.68 246.82,350.68 247.27,350.68 247.73,350.68 248.18,350.68 248.64,350.68 249.09,336.69 249.55,336.69 250.00,336.69 250.45,336.69 250.91,336.69 251.36,350.68 251.82,350.68 252.27,350.68 252.73,336.69 253.18,336.69 253.64,336.69 254.09,336.69 254.55,336.69 255.00,336.69 255.45,336.69 255.91,336.69 256.36,336.69 256.82,336.69 257.27,336.69 257.73,336.69 258.18,336.69 258.64,336.69 259.09,336.69 259.55,336.69 260.00,336.69 260.45,336.69 260.91,336.69 261.36,336.69 261.82,336.69 262.27,336.69 262.73,336.69 263.18,336.69 263.64,336.69 264.09,336.69 264.55,336.69 265.00,336.69 265.45,336.69 265.91,336.69 266.36,336.69 266.82,336.69 267.27,336.69 267.73,336.69 268.18,336.69 268.64,336.69 269.09,336.69 269.55,336.69 270.00,336.69 270.45,336.69 270.91,336.69 271.36,336.69 271.82,336.69 272.27,336.69 272.73,336.69 273.18,336.69 273.64,336.69 274.09,336.69 274.55,336.69 275.00,336.69 275.45,336.69 275.91,336.69 276.36,336.69 276.82,336.69 277.27,336.69 277.73,336.69 278.18,336.69 278.64,336.69 279.09,336.69 279.55,336.69 280.00,336.69 280.45,336.69 280.91,336.69 281.36,336.69 281.82,336.69 282.27,336.69 282.73,336.69 283.18,336.69 283.64,336.69 284.09,336.69 284.55,336.69 285.00,336.69 285.45,336.69 285.91,336.69 286.36,336.69 286.82,336.69 287.27,336.69 287.73,336.69 288.18,336.69 288.64,336.69 289.09,336.69 289.55,336.69 290.00,336.69 290.45,336.69 290.91,336.69 291.36,336.69 291.82,336.69 292.27,336.69 292.73,336.69 293.18,336.69 293.64,336.69 294.09,336.69 294.55,336.69 295.00,336.69 295.45,336.69 295.91,336.69 296.36,336.69 296.82,336.69 297.27,336.69 297.73,336.69 298.18,336.69 298.64,336.69 299.09,336.69 299.55,336.69 300.00,336.69 300.45,336.69 300.91,336.69 301.36,336.69 301.82,336.69 302.27,336.69 302.73,336.69 303.18,336.69 303.64,336.69 304.09,336.69 304.55,336.69 305.00,336.69 305.45,336.69 305.91,336.69 306.36,336.69 306.82,336.69 307.27,336.69 307.73,336.69 308.18,336.69 308.64,336.69 309.09,336.69 309.55,336.69 310.00,336.69 310.45,336.69 310.91,336.69 311.36,336.69 311.82,336.69 312.27,336.69 312.73,336.69 313.18,336.69 313.64,336.69 314.09,336.69 314.55,336.69 315.00,336.69 315.45,336.69 315.91,336.69 316.36,336.69 316.82,336.69 317.27,336.69 317.73,336.69 318.18,336.69 318.64,336.69 319.09,336.69 319.55,336.69 320.00,336.69 320.45,336.69 320.91,336.69 321.36,336.69 321.82,336.69 322.27,336.69 322.73,336.69 323.18,336.69 323.64,336.69 324.09,336.69 324.55,350.68 325.00,350.68 325.45,350.68 325.91,350.68 326.36,350.68 326.82,350.68 327.27,350.68 327.73,350.68 328.18,350.68 328.64,350.68 329.09,336.69 329.55,336.69 330.00,336.69 330.45,336.69 330.91,336.69 331.36,336.69 331.82,336.69 332.27,336.69 332.73,336.69 333.18,336.69 333.64,336.69 334.09,336.69 334.55,336.69 335.00,336.69 335.45,336.69 335.91,336.69 336.36,336.69 336.82,336.69 337.27,336.69 337.73,336.69 338.18,336.69 338.64,336.69 339.09,336.69 339.55,336.69 340.00,336.69 340.45,336.69 340.91,336.69 341.36,336.69 341.82,336.69 342.27,336.69 342.73,336.69 343.18,336.69 343.64,336.69 344.09,336.69 344.55,336.69 345.00,336.69 345.45,336.69 345.91,336.69 346.36,336.69 346.82,336.69 347.27,336.69 347.73,336.69 348.18,336.69 348.64,336.69 349.09,336.69 349.55,336.69 350.00,336.69 350.45,336.69 350.91,336.69 351.36,336.69 351.82,336.69 352.27,336.69 352.73,336.69 353.18,336.69 353.64,336.69 354.09,336.69 354.55,336.69 355.00,336.69 355.45,336.69 355.91,336.69 356.36,336.69 356.82,336.69 357.27,336.69 357.73,336.69 358.18,336.69 358.64,336.69 359.09,336.69 359.55,336.69 360.00,350.68 360.45,350.68 360.91,350.68 361.36,350.68 361.82,350.68 362.27,350.68 362.73,336.69 363.18,336.69 363.64,336.69 364.09,336.69 364.55,336.69 365.00,336.69 365.45,336.69 365.91,336.69 366.36,336.69 366.82,336.69 367.27,336.69 367.73,336.69 368.18,336.69 368.64,336.69 369.09,336.69 369.55,336.69 370.00,336.69 370.45,336.69 370.91,336.69 371.36,336.69 371.82,336.69 372.27,336.69 372.73,336.69 373.18,336.69 373.64,336.69 374.09,336.69 374.55,336.69 375.00,336.69 375.45,336.69 375.91,336.69 376.36,336.69 376.82,336.69 377.27,336.69 377.73,336.69 378.18,336.69 378.64,336.69 379.09,336.69 379.55,336.69 380.00,336.69 380.45,336.69 380.91,336.69 381.36,336.69 381.82,336.69 382.27,336.69 382.73,336.69 383.18,336.69 383.64,336.69 384.09,336.69 384.55,336.69 385.00,336.69 385.45,336.69 385.91,336.69 386.36,336.69 386.82,336.69 387.27,336.69 387.73,336.69 388.18,336.69 388.64,336.69 389.09,336.69 389.55,336.69 390.00,336.69 390.45,336.69 390.91,336.69 391.36,336.69 391.82,336.69 392.27,336.69 392.73,336.69 393.18,336.69 393.64,336.69 394.09,336.69 394.55,336.69 395.00,336.69 395.45,336.69 395.91,336.69 396.36,336.69 396.82,336.69 397.27,336.69 397.73,336.69 398.18,336.69 398.64,336.69 399.09,336.69 399.55,336.69 400.00,336.69 400.45,336.69 400.91,336.69 401.36,336.69 401.82,336.69 402.27,336.69 402.73,336.69 403.18,336.69 403.64,336.69 404.09,336.69 404.55,336.69 405.00,336.69 405.45,336.69 405.91,336.69 406.36,336.69 406.82,336.69 407.27,336.69 407.73,336.69 408.18,336.69 408.64,336.69 409.09,336.69 409.55,336.69 410.00,336.69 410.45,336.69 410.91,336.69 411.36,336.69 411.82,336.69 412.27,336.69 412.73,336.69 413.18,336.69 413.64,336.69 414.09,336.69 414.55,336.69 415.00,336.69 415.45,336.69 415.91,336.69 416.36,336.69 416.82,336.69 417.27,336.69 417.73,336.69 418.18,336.69 418.64,336.69 419.09,336.69 419.55,336.69 420.00,336.69 420.45,336.69 420.91,336.69 421.36,336.69 421.82,336.69 422.27,336.69 422.73,336.69 423.18,336.69 423.64,336.69 424.09,336.69 424.55,336.69 425.00,336.69 425.45,336.69 425.91,336.69 426.36,336.69 426.82,336.69 427.27,336.69 427.73,336.69 428.18,336.69 428.64,336.69 429.09,336.69 429.55,336.69 430.00,350.68 430.45,350.68 430.91,350.68 431.36,350.68 431.82,350.68 432.27,336.69 432.73,336.69 433.18,336.69 433.64,336.69 434.09,336.69 434.55,336.69 435.00,336.69 435.45,336.69 435.91,336.69 436.36,336.69 436.82,336.69 437.27,336.69 437.73,336.69 438.18,336.69 438.64,336.69 439.09,336.69 439.55,336.69 440.00,336.69 440.45,336.69 440.91,336.69 441.36,336.69 441.82,336.69 442.27,336.69 442.73,336.69 443.18,336.69 443.64,336.69 444.09,336.69 444.55,336.69 445.00,336.69 445.45,336.69 445.91,336.69 446.36,336.69 446.82,336.69 447.27,336.69 447.73,336.69 448.18,336.69 448.64,336.69 449.09,336.69 449.55,336.69 450.00,336.69 450.45,350.68 450.91,336.69 451.36,336.69 451.82,336.69 452.27,336.69 452.73,336.69 453.18,336.69 453.64,336.69 454.09,336.69 454.55,336.69 455.00,336.69 455.45,336.69 455.91,336.69 456.36,336.69 456.82,336.69 457.27,336.69 457.73,336.69 458.18,336.69 458.64,336.69 459.09,336.69 459.55,336.69 460.00,336.69 460.45,336.69 460.91,336.69 461.36,336.69 461.82,336.69 462.27,336.69 462.73,336.69 463.18,336.69 463.64,336.69 464.09,336.69 464.55,336.69 465.00,350.68 465.45,350.68 465.91,350.68 466.36,350.68 466.82,350.68 467.27,350.68 467.73,350.68 468.18,336.69 468.64,336.69 469.09,336.69 469.55,336.69 470.00,336.69 470.45,336.69 470.91,336.69 471.36,336.69 471.82,336.69 472.27,336.69 472.73,336.69 473.18,336.69 473.64,336.69 474.09,336.69 474.55,336.69 475.00,336.69 475.45,336.69 475.91,336.69 476.36,336.69 476.82,336.69 477.27,336.69 477.73,336.69 478.18,336.69 478.64,336.69 479.09,336.69 479.55,336.69 480.00,350.68 480.45,350.68 480.91,350.68 481.36,350.68 481.82,350.68 482.27,350.68 482.73,350.68 483.18,336.69 483.64,336.69 484.09,336.69 484.55,336.69 485.00,336.69 485.45,336.69 485.91,336.69 486.36,336.69 486.82,336.69 487.27,336.69 487.73,336.69 488.18,336.69 488.64,336.69 489.09,336.69 489.55,336.69 490.00,336.69 490.45,336.69 490.91,336.69 491.36,336.69 491.82,336.69 492.27,336.69 492.73,336.69 493.18,336.69 493.64,336.69 494.09,336.69 494.55,336.69 495.00,336.69 495.45,336.69 495.91,336.69 496.36,336.69 496.82,336.69 497.27,336.69 497.73,336.69 498.18,336.69 498.64,336.69 499.09,336.69 499.55,336.69 500.00,336.69 500.45,336.69 500.91,336.69 501.36,336.69 501.82,336.69 502.27,336.69 502.73,336.69 503.18,336.69 503.64,350.68 504.09,350.68 504.55,350.68 505.00,350.68 505.45,350.68 505.91,350.68 506.36,350.68 506.82,350.68 507.27,350.68 507.73,350.68 508.18,350.68 508.64,350.68 509.09,350.68 509.55,350.68 510.00,350.68 510.45,350.68 510.91,350.68 511.36,350.68 511.82,350.68 512.27,350.68 512.73,350.68 513.18,350.68 513.64,350.68 514.09,350.68 514.55,350.68 515.00,350.68 515.45,350.68 515.91,350.68 516.36,350.68 516.82,350.68 517.27,350.68 517.73,350.68 518.18,350.68 518.64,350.68 519.09,350.68 519.55,350.68 520.00,336.69 520.45,336.69 520.91,336.69 521.36,336.69 521.82,336.69 522.27,336.69 522.73,336.69 523.18,336.69 523.64,336.69 524.09,350.68 524.55,350.68 525.00,350.68 525.45,350.68 525.91,350.68 526.36,350.68 526.82,350.68 527.27,350.68 527.73,350.68 528.18,336.69 528.64,336.69 529.09,336.69 529.55,336.69 530.00,336.69 530.45,336.69 530.91,336.69 531.36,336.69 531.82,336.69 532.27,336.69 532.73,336.69 533.18,336.69 533.64,336.69 534.09,350.68 534.55,350.68 535.00,350.68 535.45,350.68 535.91,350.68 536.36,350.68 536.82,350.68 537.27,350.68 537.73,350.68 538.18,350.68 538.64,350.68 539.09,350.68 539.55,350.68 540.00,350.68 540.45,350.68 540.91,350.68 541.36,350.68 541.82,350.68 542.27,350.68 542.73,336.69 543.18,336.69 543.64,336.69 544.09,336.69 544.55,336.69 545.00,336.69 545.45,336.69 545.91,336.69 546.36,336.69 546.82,336.69 547.27,336.69 547.73,336.69 548.18,336.69 548.64,336.69 549.09,336.69 549.55,336.69 550.00,336.69 550.45,336.69 550.91,336.69 551.36,336.69 551.82,336.69 552.27,336.69 552.73,336.69 553.18,336.69 553.64,336.69 554.09,336.69 554.55,336.69 555.00,336.69 555.45,336.69 555.91,336.69 556.36,336.69 556.82,336.69 557.27,336.69 557.73,336.69 558.18,336.69 558.64,336.69 559.09,336.69 559.55,336.69 560.00,336.69 560.45,336.69 560.91,336.69 561.36,336.69 561.82,336.69 562.27,336.69 562.73,336.69 563.18,336.69 563.64,336.69 564.09,336.69 564.55,336.69 565.00,336.69 565.45,336.69 565.91,336.69 566.36,336.69 566.82,336.69 567.27,336.69 567.73,336.69 568.18,336.69 568.64,336.69 569.09,336.69 569.55,336.69 570.00,336.69 570.45,336.69 570.91,336.69 571.36,336.69 571.82,336.69 572.27,336.69 572.73,336.69 573.18,336.69 573.64,336.69 574.09,336.69 574.55,336.69 575.00,336.69 575.45,336.69 575.91,336.69 576.36,336.69 576.82,336.69 577.27,336.69 577.73,336.69 578.18,336.69 578.64,336.69 579.09,336.69 579.55,336.69 580.00,336.69 580.45,336.69 580.91,336.69 581.36,336.69 581.82,336.69 582.27,336.69 582.73,336.69 583.18,336.69 583.64,336.69 584.09,336.69 584.55,336.69 585.00,336.69 585.45,336.69 585.91,336.69 586.36,336.69 586.82,336.69 587.27,336.69 587.73,336.69 588.18,336.69 588.64,336.69 589.09,336.69 589.55,336.69 590.00,336.69 590.45,336.69 590.91,350.68 591.36,350.68 591.82,350.68 592.27,350.68 592.73,336.69 593.18,336.69 593.64,336.69 594.09,336.69 594.55,336.69 595.00,336.69 595.45,350.68 595.91,350.68 596.36,350.68 596.82,360.00 597.27,350.68 597.73,350.68 598.18,350.68 598.64,350.68 599.09,350.68 599.55,350.68 600.00,336.69 600.45,336.69 600.91,336.69 601.36,336.69 601.82,336.69 602.27,336.69 602.73,336.69 603.18,336.69 603.64,336.69 604.09,336.69 604.55,336.69 605.00,336.69 605.45,336.69 605.91,336.69 606.36,336.69 606.82,336.69 607.27,336.69 607.73,336.69 608.18,336.69 608.64,336.69 609.09,336.69 609.55,336.69 610.00,336.69 610.45,336.69 610.91,336.69 611.36,336.69 611.82,336.69 612.27,336.69 612.73,336.69 613.18,336.69 613.64,336.69 614.09,336.69 614.55,336.69 615.00,336.69 615.45,336.69 615.91,336.69 616.36,336.69 616.82,336.69 617.27,336.69 617.73,336.69 618.18,336.69 618.64,336.69 619.09,336.69 619.55,336.69 620.00,336.69 620.45,336.69 620.91,336.69 621.36,336.69 621.82,336.69 622.27,336.69 622.73,336.69 623.18,336.69 623.64,336.69 624.09,336.69 624.55,336.69 625.00,336.69 625.45,336.69 625.91,336.69 626.36,336.69 626.82,336.69 627.27,336.69 627.73,336.69 628.18,336.69 628.64,336.69 629.09,336.69 629.55,336.69 630.00,336.69 630.45,336.69 630.91,350.68 631.36,350.68 631.82,350.68 632.27,350.68 632.73,350.68 633.18,350.68 633.64,350.68 634.09,336.69 634.55,336.69 635.00,336.69 635.45,336.69 635.91,350.68 636.36,350.68 636.82,350.68 637.27,350.68 637.73,350.68 638.18,350.68 638.64,350.68 639.09,350.68 639.55,350.68 640.00,336.69 640.45,336.69 640.91,350.68 641.36,350.68 641.82,350.68 642.27,350.68 642.73,350.68 643.18,350.68 643.64,350.68 644.09,350.68 644.55,350.68 645.00,350.68 645.45,350.68 645.91,350.68 646.36,350.68 646.82,350.68 647.27,350.68 647.73,350.68 648.18,350.68 648.64,350.68 649.09,350.68 649.55,350.68 650.00,350.68 650.45,350.68 650.91,350.68 651.36,350.68 651.82,336.69 652.27,336.69 652.73,336.69 653.18,336.69 653.64,336.69 654.09,336.69 654.55,336.69 655.00,350.68 655.45,350.68 655.91,350.68 656.36,350.68 656.82,350.68 657.27,350.68 657.73,350.68 658.18,350.68 658.64,336.69 659.09,336.69 659.55,336.69 660.00,336.69 660.45,336.69 660.91,336.69 661.36,336.69 661.82,336.69 662.27,336.69 662.73,336.69 663.18,336.69 663.64,336.69 664.09,336.69 664.55,336.69 665.00,336.69 665.45,336.69 665.91,336.69 666.36,336.69 666.82,336.69 667.27,336.69 667.73,336.69 668.18,336.69 668.64,336.69 669.09,350.68 669.55,336.69 670.00,350.68 670.45,350.68 670.91,350.68 671.36,350.68 671.82,350.68 672.27,350.68 672.73,350.68 673.18,350.68 673.64,350.68 674.09,350.68 674.55,350.68 675.00,350.68 675.45,350.68 675.91,350.68 676.36,350.68 676.82,350.68 677.27,350.68 677.73,350.68 678.18,350.68 678.64,350.68 679.09,350.68 679.55,350.68 680.00,350.68 680.45,350.68 680.91,350.68 681.36,350.68 681.82,350.68 682.27,350.68 682.73,350.68 683.18,350.68 683.64,350.68 684.09,336.69 684.55,336.69 685.00,336.69 685.45,336.69 685.91,336.69 686.36,336.69 686.82,350.68 687.27,350.68 687.73,350.68 688.18,350.68 688.64,350.68 689.09,350.68 689.55,350.68 690.00,336.69 690.45,336.69 690.91,336.69 691.36,336.69 691.82,336.69 692.27,336.69 692.73,336.69 693.18,336.69 693.64,336.69 694.09,336.69 694.55,336.69 695.00,336.69 695.45,336.69 695.91,336.69 696.36,336.69 696.82,336.69 697.27,336.69 697.73,336.69 698.18,336.69 698.64,336.69 699.09,336.69 699.55,336.69 700.00,336.69 700.45,336.69 700.91,336.69 701.36,336.69 701.82,336.69 702.27,336.69 702.73,336.69 703.18,336.69 703.64,336.69 704.09,336.69 704.55,336.69 705.00,336.69 705.45,336.69 705.91,336.69 706.36,336.69 706.82,336.69 707.27,336.69 707.73,336.69 708.18,336.69 708.64,336.69 709.09,336.69 709.55,336.69 710.00,336.69 710.45,336.69 710.91,336.69 711.36,336.69 711.82,336.69 712.27,336.69 712.73,336.69 713.18,336.69 713.64,336.69 714.09,336.69 714.55,336.69 715.00,336.69 715.45,336.69 715.91,336.69 716.36,336.69 716.82,336.69 717.27,336.69 717.73,336.69 718.18,336.69 718.64,336.69 719.09,336.69 719.55,336.69 720.00,336.69 720.45,336.69 720.91,336.69 721.36,336.69 721.82,336.69 722.27,336.69 722.73,336.69 723.18,336.69 723.64,336.69 724.09,336.69 724.55,336.69 725.00,336.69 725.45,336.69 725.91,336.69 726.36,336.69 726.82,336.69 727.27,336.69 727.73,336.69 728.18,336.69 728.64,336.69 729.09,336.69 729.55,350.68 730.00,350.68 730.45,350.68 730.91,350.68 731.36,350.68 731.82,336.69 732.27,336.69 732.73,336.69 733.18,336.69 733.64,336.69 734.09,336.69 734.55,336.69 735.00,336.69 735.45,336.69 735.91,336.69 736.36,336.69 736.82,336.69 737.27,336.69 737.73,336.69 738.18,336.69 738.64,336.69 739.09,336.69 739.55,336.69 740.00,336.69" />
</svg>
