<svg xmlns="http://www.w3.org/2000/svg" width="800" height="420">
  <rect x="0" y="0" width="800" height="420" fill="#ffffff" />
  <line x1="60" y1="360" x2="740" y2="360" stroke="#333333" stroke-width="2" />
  <line x1="60" y1="60" x2="60" y2="360" stroke="#333333" stroke-width="2" />
  <text x="400.0" y="30" text-anchor="middle" font-size="22" font-family="Arial">Policy Entropy</text>
  <text x="400.0" y="405" text-anchor="middle" font-size="16" font-family="Arial">Batch</text>
  <text x="24" y="210.0" text-anchor="middle" font-size="16" font-family="Arial" transform="rotate(-90 24 210.0)">Entropy</text>
  <text x="60" y="50" font-size="13" font-family="Arial">3.569</text>
  <text x="60" y="380" font-size="13" font-family="Arial">1.209</text>
  <text x="60" y="395" font-size="13" font-family="Arial">4</text>
  <text x="740" y="395" text-anchor="end" font-size="13" font-family="Arial">1500</text>
  <polyline fill="none" stroke="#ea580c" stroke-width="3" points="60.00,60.89 60.45,60.00 60.91,67.14 61.36,61.44 61.82,62.24 62.27,69.72 62.73,70.62 63.18,75.50 63.64,81.22 64.09,69.39 64.55,82.56 65.00,84.07 65.45,84.75 65.91,91.44 66.36,83.04 66.82,90.69 67.27,96.13 67.73,96.36 68.18,83.14 68.64,100.20 69.09,93.26 69.55,89.05 70.00,98.39 70.45,90.65 70.91,91.51 71.36,95.82 71.82,91.68 72.27,96.96 72.73,97.02 73.18,97.81 73.64,91.42 74.09,90.12 74.55,94.94 75.00,107.77 75.45,110.18 75.91,101.63 76.36,97.91 76.82,104.92 77.27,108.15 77.73,103.06 78.18,105.55 78.64,101.83 79.09,109.57 79.55,108.37 80.00,103.47 80.45,110.26 80.91,114.71 81.36,102.17 81.82,111.96 82.27,113.20 82.73,111.04 83.18,113.17 83.64,109.21 84.09,111.33 84.55,119.55 85.00,116.72 85.45,117.64 85.91,111.33 86.36,117.92 86.82,118.30 87.27,116.09 87.73,115.43 88.18,122.40 88.64,119.58 89.09,117.79 89.55,114.26 90.00,119.25 90.45,118.65 90.91,115.55 91.36,117.64 91.82,124.52 92.27,119.27 92.73,125.52 93.18,118.03 93.64,118.22 94.09,121.47 94.55,123.27 95.00,126.31 95.45,119.10 95.91,117.23 96.36,119.41 96.82,126.24 97.27,123.37 97.73,125.74 98.18,120.42 98.64,124.92 99.09,118.56 99.55,125.55 100.00,122.02 100.45,132.76 100.91,127.25 101.36,129.57 101.82,132.23 102.27,125.69 102.73,129.50 103.18,127.95 103.64,134.12 104.09,125.38 104.55,135.05 105.00,133.58 105.45,125.59 105.91,131.20 106.36,143.86 106.82,134.06 107.27,140.90 107.73,140.39 108.18,134.11 108.64,135.57 109.09,137.58 109.55,135.65 110.00,140.24 110.45,139.89 110.91,146.58 111.36,148.88 111.82,137.28 112.27,137.86 112.73,141.07 113.18,142.23 113.64,143.81 114.09,148.45 114.55,148.95 115.00,138.81 115.45,150.00 115.91,153.70 116.36,141.54 116.82,149.62 117.27,152.08 117.73,154.65 118.18,157.16 118.64,151.09 119.09,153.33 119.55,156.79 120.00,155.85 120.45,151.32 120.91,148.70 121.36,157.65 121.82,154.17 122.27,162.65 122.73,153.45 123.18,162.92 123.64,172.19 124.09,163.90 124.55,156.85 125.00,159.14 125.45,161.16 125.91,159.88 126.36,154.29 126.82,173.46 127.27,168.54 127.73,165.81 128.18,159.78 128.64,160.66 129.09,157.48 129.55,160.95 130.00,173.94 130.45,159.04 130.91,167.52 131.36,161.56 131.82,158.28 132.27,166.31 132.73,164.96 133.18,179.00 133.64,161.19 134.09,182.96 134.55,170.15 135.00,170.07 135.45,169.47 135.91,172.82 136.36,174.03 136.82,171.34 137.27,174.28 137.73,175.58 138.18,168.71 138.64,172.19 139.09,177.78 139.55,182.63 140.00,180.83 140.45,189.14 140.91,178.51 141.36,184.09 141.82,182.66 142.27,174.37 142.73,181.54 143.18,187.85 143.64,184.32 144.09,188.88 144.55,181.84 145.00,179.64 145.45,183.33 145.91,178.45 146.36,186.05 146.82,188.79 147.27,189.18 147.73,185.95 148.18,177.49 148.64,190.98 149.09,187.63 149.55,184.38 150.00,189.20 150.45,188.03 150.91,188.21 151.36,187.36 151.82,188.08 152.27,190.96 152.73,186.48 153.18,188.49 153.64,192.25 154.09,181.80 154.55,190.38 155.00,184.23 155.45,186.75 155.91,185.44 156.36,194.91 156.82,194.69 157.27,189.56 157.73,189.66 158.18,193.63 158.64,189.82 159.09,199.26 159.55,190.54 160.00,186.96 160.45,196.22 160.91,194.13 161.36,197.67 161.82,202.84 162.27,197.97 162.73,202.57 163.18,201.51 163.64,204.50 164.09,203.79 164.55,207.37 165.00,207.18 165.45,210.43 165.91,213.06 166.36,207.12 166.82,198.03 167.27,208.04 167.73,205.38 168.18,213.67 168.64,203.36 169.09,203.43 169.55,212.63 170.00,211.55 170.45,219.25 170.91,212.46 171.36,221.56 171.82,211.54 172.27,211.26 172.73,207.15 173.18,215.49 173.64,216.11 174.09,222.55 174.55,221.67 175.00,215.38 175.45,215.25 175.91,212.30 176.36,208.97 176.82,218.09 177.27,217.51 177.73,222.10 178.18,221.40 178.64,219.10 179.09,220.25 179.55,221.15 180.00,231.37 180.45,221.19 180.91,238.90 181.36,229.25 181.82,230.22 182.27,223.27 182.73,225.73 183.18,229.47 183.64,230.73 184.09,226.27 184.55,232.95 185.00,232.94 185.45,230.09 185.91,239.93 186.36,226.72 186.82,231.56 187.27,231.07 187.73,229.64 188.18,238.83 188.64,224.65 189.09,232.69 189.55,235.86 190.00,247.53 190.45,240.02 190.91,240.23 191.36,243.73 191.82,240.21 192.27,247.70 192.73,234.55 193.18,252.52 193.64,241.77 194.09,237.83 194.55,245.09 195.00,238.61 195.45,236.65 195.91,256.63 196.36,241.44 196.82,253.35 197.27,247.83 197.73,246.45 198.18,252.74 198.64,247.49 199.09,250.07 199.55,249.39 200.00,263.98 200.45,248.76 200.91,246.19 201.36,257.16 201.82,256.46 202.27,258.02 202.73,258.62 203.18,260.58 203.64,264.10 204.09,253.22 204.55,265.47 205.00,264.36 205.45,257.32 205.91,266.85 206.36,256.67 206.82,266.47 207.27,264.51 207.73,266.93 208.18,261.52 208.64,271.89 209.09,261.77 209.55,268.52 210.00,260.58 210.45,270.87 210.91,262.64 211.36,265.88 211.82,273.21 212.27,274.44 212.73,272.01 213.18,274.62 213.64,265.64 214.09,268.96 214.55,272.12 215.00,269.85 215.45,268.13 215.91,277.94 216.36,266.72 216.82,274.15 217.27,273.61 217.73,275.89 218.18,270.70 218.64,269.65 219.09,279.19 219.55,273.88 220.00,274.51 220.45,277.23 220.91,286.48 221.36,276.10 221.82,279.08 222.27,280.64 222.73,284.29 223.18,276.07 223.64,285.06 224.09,274.56 224.55,283.49 225.00,277.60 225.45,279.30 225.91,276.15 226.36,281.03 226.82,289.54 227.27,278.88 227.73,290.68 228.18,277.73 228.64,272.98 229.09,292.73 229.55,283.42 230.00,288.22 230.45,280.76 230.91,287.70 231.36,279.46 231.82,281.41 232.27,283.01 232.73,292.88 233.18,279.23 233.64,289.38 234.09,292.72 234.55,288.71 235.00,287.67 235.45,278.95 235.91,279.76 236.36,284.42 236.82,282.79 237.27,283.48 237.73,283.73 238.18,281.76 238.64,278.67 239.09,282.20 239.55,280.37 240.00,283.61 240.45,294.47 240.91,278.80 241.36,279.81 241.82,277.05 242.27,290.68 242.73,293.28 243.18,290.46 243.64,299.67 244.09,280.08 244.55,285.52 245.00,281.51 245.45,291.76 245.91,286.77 246.36,284.57 246.82,293.34 247.27,288.59 247.73,289.16 248.18,284.45 248.64,289.46 249.09,296.76 249.55,292.50 250.00,293.94 250.45,290.57 250.91,297.08 251.36,288.66 251.82,291.06 252.27,291.33 252.73,288.24 253.18,291.47 253.64,288.14 254.09,297.34 254.55,291.35 255.00,296.74 255.45,294.03 255.91,298.18 256.36,299.75 256.82,289.81 257.27,295.90 257.73,294.01 258.18,294.70 258.64,296.86 259.09,301.21 259.55,292.05 260.00,298.18 260.45,301.40 260.91,296.18 261.36,297.98 261.82,293.63 262.27,295.81 262.73,299.05 263.18,296.35 263.64,300.41 264.09,292.96 264.55,293.04 265.00,291.10 265.45,302.40 265.91,299.03 266.36,299.37 266.82,303.50 267.27,298.13 267.73,297.73 268.18,295.72 268.64,295.87 269.09,304.22 269.55,299.80 270.00,302.19 270.45,294.99 270.91,300.54 271.36,298.77 271.82,307.77 272.27,294.88 272.73,302.65 273.18,305.38 273.64,307.93 274.09,297.76 274.55,298.87 275.00,302.87 275.45,300.65 275.91,310.84 276.36,298.78 276.82,306.33 277.27,303.04 277.73,310.87 278.18,303.88 278.64,300.27 279.09,307.02 279.55,306.44 280.00,304.64 280.45,305.65 280.91,311.63 281.36,313.19 281.82,308.27 282.27,310.53 282.73,311.05 283.18,314.47 283.64,303.73 284.09,312.89 284.55,309.11 285.00,314.79 285.45,314.35 285.91,310.61 286.36,316.97 286.82,308.60 287.27,315.03 287.73,311.71 288.18,308.30 288.64,306.33 289.09,316.35 289.55,310.74 290.00,313.20 290.45,305.90 290.91,316.00 291.36,308.03 291.82,314.22 292.27,312.92 292.73,317.63 293.18,311.45 293.64,308.35 294.09,323.49 294.55,316.26 295.00,309.48 295.45,319.58 295.91,313.02 296.36,320.22 296.82,311.34 297.27,319.39 297.73,319.70 298.18,315.37 298.64,320.84 299.09,318.26 299.55,323.49 300.00,319.20 300.45,320.84 300.91,317.19 301.36,312.18 301.82,310.64 302.27,320.38 302.73,315.87 303.18,319.03 303.64,318.50 304.09,316.44 304.55,314.91 305.00,315.84 305.45,316.63 305.91,321.66 306.36,329.80 306.82,325.44 307.27,321.12 307.73,329.71 308.18,314.94 308.64,321.47 309.09,320.41 309.55,316.77 310.00,324.25 310.45,324.39 310.91,312.62 311.36,320.26 311.82,322.35 312.27,320.13 312.73,316.63 313.18,321.40 313.64,324.65 314.09,321.77 314.55,324.19 315.00,320.86 315.45,326.57 315.91,328.32 316.36,319.07 316.82,324.05 317.27,328.03 317.73,316.79 318.18,327.17 318.64,327.55 319.09,323.93 319.55,325.93 320.00,324.47 320.45,320.78 320.91,323.28 321.36,332.68 321.82,329.92 322.27,333.25 322.73,326.54 323.18,326.85 323.64,326.72 324.09,328.18 324.55,332.42 325.00,328.37 325.45,330.17 325.91,334.41 326.36,330.61 326.82,337.06 327.27,331.33 327.73,321.34 328.18,326.69 328.64,324.41 329.09,326.38 329.55,329.20 330.00,323.91 330.45,328.45 330.91,328.69 331.36,325.46 331.82,317.94 332.27,331.01 332.73,324.37 333.18,330.29 333.64,331.12 334.09,330.88 334.55,331.05 335.00,332.53 335.45,326.83 335.91,330.61 336.36,324.82 336.82,333.36 337.27,330.45 337.73,327.24 338.18,330.99 338.64,329.70 339.09,330.28 339.55,329.76 340.00,330.68 340.45,325.20 340.91,332.32 341.36,331.76 341.82,335.94 342.27,334.57 342.73,329.70 343.18,339.92 343.64,331.53 344.09,340.65 344.55,337.71 345.00,329.74 345.45,328.08 345.91,332.05 346.36,333.34 346.82,333.03 347.27,336.68 347.73,336.37 348.18,322.89 348.64,329.04 349.09,329.14 349.55,337.66 350.00,323.29 350.45,339.40 350.91,329.21 351.36,322.26 351.82,329.08 352.27,321.02 352.73,329.83 353.18,330.95 353.64,332.17 354.09,334.02 354.55,329.22 355.00,334.67 355.45,324.17 355.91,332.34 356.36,336.28 356.82,331.31 357.27,325.79 357.73,329.83 358.18,327.03 358.64,335.70 359.09,330.54 359.55,343.55 360.00,330.35 360.45,329.02 360.91,329.95 361.36,334.28 361.82,330.16 362.27,335.49 362.73,340.36 363.18,338.92 363.64,341.05 364.09,332.26 364.55,336.04 365.00,333.79 365.45,333.51 365.91,335.79 366.36,334.15 366.82,337.27 367.27,328.83 367.73,340.59 368.18,336.35 368.64,333.88 369.09,340.60 369.55,331.53 370.00,339.53 370.45,340.74 370.91,332.92 371.36,337.45 371.82,334.78 372.27,338.67 372.73,337.12 373.18,344.49 373.64,348.42 374.09,350.10 374.55,340.71 375.00,325.70 375.45,336.79 375.91,340.15 376.36,336.62 376.82,336.65 377.27,329.47 377.73,329.42 378.18,341.34 378.64,330.64 379.09,340.60 379.55,338.21 380.00,345.22 380.45,336.55 380.91,333.72 381.36,337.70 381.82,342.54 382.27,342.92 382.73,345.64 383.18,338.20 383.64,339.20 384.09,335.42 384.55,341.50 385.00,343.46 385.45,345.01 385.91,343.50 386.36,340.95 386.82,342.45 387.27,333.10 387.73,344.34 388.18,334.75 388.64,341.51 389.09,340.23 389.55,341.65 390.00,338.19 390.45,341.40 390.91,338.05 391.36,343.16 391.82,344.97 392.27,346.17 392.73,338.79 393.18,343.73 393.64,346.61 394.09,340.01 394.55,341.96 395.00,336.61 395.45,344.13 395.91,345.50 396.36,344.35 396.82,333.15 397.27,339.61 397.73,339.25 398.18,343.67 398.64,342.76 399.09,345.91 399.55,340.56 400.00,348.39 400.45,337.33 400.91,339.67 401.36,338.72 401.82,341.73 402.27,354.61 402.73,342.52 403.18,345.64 403.64,338.63 404.09,342.89 404.55,345.95 405.00,341.17 405.45,341.30 405.91,346.35 406.36,339.12 406.82,344.76 407.27,339.28 407.73,347.25 408.18,338.16 408.64,338.36 409.09,340.74 409.55,348.91 410.00,344.46 410.45,344.34 410.91,341.22 411.36,342.06 411.82,335.29 412.27,346.28 412.73,340.51 413.18,344.95 413.64,338.73 414.09,346.14 414.55,349.92 415.00,339.40 415.45,353.21 415.91,346.07 416.36,345.79 416.82,351.62 417.27,348.32 417.73,342.40 418.18,336.53 418.64,353.72 419.09,351.70 419.55,345.40 420.00,338.25 420.45,339.01 420.91,346.68 421.36,346.56 421.82,334.06 422.27,336.23 422.73,350.39 423.18,344.55 423.64,352.96 424.09,342.41 424.55,347.40 425.00,347.10 425.45,351.18 425.91,348.15 426.36,346.22 426.82,343.22 427.27,348.18 427.73,346.90 428.18,345.99 428.64,347.55 429.09,343.16 429.55,343.75 430.00,353.16 430.45,340.23 430.91,337.94 431.36,352.17 431.82,339.65 432.27,347.02 432.73,354.74 433.18,342.46 433.64,349.93 434.09,345.08 434.55,344.69 435.00,354.01 435.45,347.22 435.91,348.55 436.36,355.18 436.82,357.30 437.27,346.58 437.73,345.14 438.18,347.93 438.64,348.06 439.09,345.92 439.55,353.07 440.00,342.56 440.45,343.84 440.91,354.59 441.36,351.99 441.82,352.06 442.27,349.52 442.73,352.01 443.18,351.45 443.64,353.31 444.09,347.39 444.55,356.79 445.00,344.87 445.45,352.66 445.91,353.79 446.36,340.00 446.82,356.00 447.27,340.70 447.73,347.52 448.18,350.79 448.64,349.37 449.09,350.13 449.55,350.90 450.00,345.70 450.45,347.74 450.91,360.00 451.36,340.00 451.82,353.09 452.27,344.34 452.73,351.66 453.18,349.95 453.64,337.62 454.09,351.33 454.55,346.02 455.00,345.50 455.45,351.17 455.91,344.41 456.36,349.82 456.82,347.36 457.27,355.53 457.73,348.34 458.18,348.36 458.64,343.75 459.09,346.38 459.55,342.72 460.00,346.31 460.45,343.95 460.91,341.69 461.36,353.42 461.82,345.08 462.27,343.65 462.73,348.27 463.18,355.52 463.64,346.73 464.09,345.01 464.55,355.37 465.00,350.72 465.45,352.13 465.91,350.30 466.36,343.25 466.82,344.98 467.27,349.81 467.73,345.22 468.18,343.47 468.64,349.13 469.09,353.68 469.55,347.18 470.00,348.04 470.45,348.47 470.91,336.23 471.36,341.56 471.82,346.69 472.27,340.88 472.73,342.02 473.18,351.56 473.64,351.81 474.09,347.92 474.55,341.08 475.00,340.96 475.45,350.48 475.91,342.12 476.36,345.13 476.82,341.52 477.27,340.81 477.73,343.93 478.18,353.11 478.64,347.18 479.09,351.79 479.55,341.08 480.00,339.35 480.45,337.09 480.91,337.27 481.36,341.77 481.82,345.30 482.27,334.02 482.73,345.53 483.18,350.12 483.64,347.03 484.09,343.77 484.55,338.97 485.00,340.89 485.45,342.83 485.91,333.39 486.36,340.02 486.82,339.32 487.27,345.12 487.73,330.49 488.18,339.53 488.64,344.39 489.09,340.69 489.55,339.70 490.00,336.54 490.45,341.34 490.91,345.31 491.36,339.49 491.82,342.95 492.27,339.47 492.73,344.43 493.18,343.28 493.64,337.96 494.09,335.66 494.55,334.74 495.00,335.53 495.45,346.27 495.91,327.71 496.36,339.80 496.82,341.40 497.27,338.34 497.73,337.05 498.18,342.32 498.64,333.90 499.09,330.53 499.55,330.91 500.00,336.01 500.45,346.87 500.91,341.25 501.36,335.76 501.82,330.69 502.27,332.51 502.73,337.95 503.18,345.60 503.64,324.38 504.09,329.23 504.55,332.56 505.00,334.72 505.45,327.76 505.91,337.20 506.36,337.35 506.82,325.45 507.27,336.40 507.73,332.89 508.18,334.61 508.64,336.81 509.09,340.94 509.55,334.29 510.00,325.71 510.45,336.45 510.91,326.13 511.36,327.79 511.82,332.29 512.27,339.51 512.73,337.35 513.18,331.12 513.64,322.37 514.09,331.46 514.55,331.35 515.00,337.99 515.45,334.33 515.91,328.44 516.36,335.76 516.82,329.57 517.27,337.99 517.73,338.99 518.18,336.16 518.64,342.89 519.09,333.83 519.55,337.39 520.00,340.93 520.45,334.27 520.91,329.55 521.36,338.12 521.82,341.06 522.27,337.47 522.73,327.85 523.18,332.49 523.64,330.33 524.09,339.11 524.55,330.16 525.00,329.68 525.45,338.62 525.91,333.85 526.36,341.97 526.82,335.95 527.27,332.63 527.73,327.30 528.18,335.25 528.64,336.22 529.09,338.38 529.55,342.30 530.00,341.79 530.45,333.98 530.91,335.11 531.36,341.64 531.82,338.91 532.27,329.86 532.73,343.27 533.18,336.32 533.64,332.32 534.09,331.90 534.55,334.53 535.00,329.69 535.45,330.25 535.91,330.70 536.36,329.59 536.82,340.01 537.27,341.52 537.73,343.12 538.18,328.60 538.64,337.11 539.09,343.33 539.55,339.97 540.00,341.29 540.45,346.43 540.91,342.86 541.36,342.23 541.82,335.50 542.27,343.65 542.73,338.65 543.18,340.46 543.64,335.21 544.09,345.39 544.55,336.49 545.00,337.56 545.45,349.79 545.91,343.07 546.36,338.95 546.82,331.49 547.27,335.79 547.73,351.11 548.18,339.59 548.64,344.57 549.09,349.73 549.55,343.37 550.00,338.12 550.45,344.62 550.91,333.78 551.36,333.16 551.82,334.15 552.27,343.41 552.73,336.88 553.18,347.67 553.64,347.82 554.09,340.05 554.55,339.57 555.00,346.56 555.45,342.27 555.91,338.55 556.36,333.24 556.82,342.64 557.27,345.83 557.73,340.82 558.18,347.15 558.64,338.63 559.09,333.07 559.55,343.47 560.00,341.27 560.45,347.97 560.91,343.31 561.36,333.13 561.82,333.79 562.27,345.65 562.73,340.27 563.18,335.59 563.64,337.22 564.09,337.69 564.55,340.50 565.00,345.03 565.45,341.71 565.91,344.18 566.36,352.72 566.82,347.90 567.27,347.49 567.73,342.13 568.18,341.81 568.64,340.24 569.09,338.24 569.55,345.37 570.00,343.98 570.45,344.69 570.91,330.75 571.36,338.47 571.82,327.54 572.27,335.72 572.73,341.91 573.18,333.37 573.64,341.94 574.09,346.12 574.55,334.96 575.00,336.26 575.45,339.82 575.91,345.06 576.36,340.54 576.82,341.80 577.27,335.59 577.73,335.93 578.18,339.77 578.64,343.85 579.09,343.58 579.55,342.39 580.00,333.09 580.45,344.64 580.91,338.90 581.36,344.36 581.82,338.93 582.27,347.91 582.73,339.36 583.18,334.32 583.64,333.20 584.09,349.42 584.55,341.19 585.00,340.98 585.45,341.53 585.91,340.42 586.36,337.76 586.82,336.45 587.27,343.51 587.73,332.03 588.18,340.09 588.64,337.03 589.09,343.21 589.55,337.06 590.00,336.37 590.45,341.75 590.91,337.36 591.36,338.69 591.82,336.27 592.27,335.26 592.73,345.39 593.18,341.78 593.64,335.80 594.09,347.75 594.55,337.57 595.00,340.45 595.45,341.97 595.91,338.34 596.36,348.18 596.82,334.08 597.27,333.40 597.73,338.96 598.18,342.33 598.64,338.63 599.09,340.62 599.55,340.43 600.00,335.01 600.45,343.02 600.91,344.87 601.36,350.86 601.82,339.42 602.27,346.49 602.73,341.23 603.18,333.94 603.64,340.52 604.09,338.41 604.55,350.49 605.00,333.98 605.45,340.99 605.91,338.84 606.36,336.14 606.82,339.72 607.27,347.07 607.73,336.34 608.18,347.21 608.64,346.96 609.09,348.65 609.55,339.58 610.00,332.26 610.45,337.22 610.91,339.49 611.36,341.85 611.82,333.22 612.27,340.73 612.73,334.53 613.18,340.94 613.64,337.18 614.09,340.85 614.55,338.20 615.00,335.95 615.45,340.21 615.91,337.97 616.36,337.39 616.82,349.55 617.27,333.53 617.73,341.94 618.18,336.96 618.64,338.48 619.09,333.61 619.55,334.41 620.00,339.41 620.45,340.18 620.91,341.41 621.36,347.06 621.82,332.49 622.27,341.04 622.73,342.53 623.18,336.86 623.64,339.14 624.09,338.26 624.55,331.42 625.00,333.04 625.45,340.42 625.91,329.49 626.36,333.43 626.82,332.30 627.27,339.96 627.73,336.17 628.18,349.30 628.64,343.57 629.09,336.88 629.55,343.97 630.00,333.73 630.45,336.47 630.91,328.26 631.36,332.21 631.82,339.54 632.27,333.95 632.73,337.23 633.18,337.33 633.64,340.72 634.09,336.24 634.55,334.84 635.00,331.52 635.45,332.96 635.91,342.09 636.36,334.61 636.82,344.55 637.27,340.80 637.73,338.75 638.18,341.09 638.64,347.88 639.09,338.44 639.55,322.56 640.00,327.18 640.45,341.41 640.91,334.65 641.36,331.53 641.82,334.99 642.27,333.84 642.73,338.83 643.18,338.73 643.64,337.51 644.09,342.21 644.55,335.84 645.00,335.36 645.45,339.78 645.91,337.97 646.36,339.04 646.82,341.93 647.27,337.00 647.73,341.52 648.18,347.68 648.64,345.74 649.09,335.06 649.55,335.31 650.00,336.67 650.45,344.33 650.91,330.04 651.36,343.97 651.82,346.48 652.27,338.40 652.73,341.05 653.18,348.55 653.64,340.37 654.09,333.84 654.55,330.04 655.00,349.48 655.45,336.47 655.91,335.45 656.36,335.43 656.82,335.00 657.27,347.93 657.73,340.12 658.18,345.72 658.64,340.79 659.09,339.10 659.55,336.19 660.00,339.42 660.45,330.17 660.91,337.16 661.36,340.91 661.82,344.80 662.27,332.91 662.73,345.91 663.18,340.35 663.64,339.00 664.09,341.43 664.55,331.91 665.00,341.22 665.45,339.21 665.91,330.54 666.36,331.99 666.82,338.36 667.27,341.18 667.73,326.98 668.18,334.20 668.64,347.79 669.09,338.46 669.55,339.00 670.00,339.99 670.45,340.77 670.91,342.55 671.36,342.65 671.82,333.01 672.27,332.59 672.73,343.53 673.18,337.77 673.64,341.60 674.09,339.11 674.55,334.00 675.00,342.61 675.45,338.26 675.91,336.03 676.36,338.94 676.82,339.15 677.27,330.63 677.73,334.58 678.18,330.80 678.64,333.40 679.09,339.10 679.55,337.39 680.00,336.24 680.45,335.52 680.91,335.62 681.36,332.52 681.82,342.74 682.27,331.05 682.73,326.28 683.18,334.88 683.64,330.46 684.09,332.28 684.55,326.57 685.00,321.96 685.45,342.52 685.91,331.12 686.36,338.02 686.82,334.15 687.27,335.58 687.73,341.09 688.18,337.33 688.64,330.98 689.09,338.94 689.55,331.48 690.00,341.40 690.45,331.27 690.91,339.62 691.36,336.62 691.82,338.43 692.27,328.06 692.73,336.28 693.18,334.65 693.64,339.86 694.09,338.78 694.55,335.23 695.00,334.72 695.45,326.79 695.91,333.94 696.36,332.91 696.82,334.61 697.27,328.52 697.73,343.35 698.18,344.12 698.64,335.77 699.09,332.58 699.55,327.67 700.00,339.97 700.45,329.45 700.91,331.89 701.36,333.52 701.82,340.26 702.27,330.20 702.73,335.92 703.18,330.69 703.64,336.42 704.09,330.17 704.55,334.33 705.00,325.91 705.45,328.14 705.91,331.76 706.36,336.65 706.82,338.67 707.27,328.26 707.73,334.65 708.18,339.71 708.64,341.93 709.09,338.47 709.55,331.94 710.00,336.11 710.45,335.36 710.91,332.46 711.36,340.80 711.82,326.80 712.27,311.08 712.73,332.57 713.18,339.12 713.64,334.54 714.09,345.27 714.55,338.23 715.00,329.22 715.45,328.08 715.91,334.18 716.36,334.96 716.82,339.21 717.27,335.41 717.73,343.01 718.18,345.93 718.64,337.42 719.09,332.68 719.55,329.38 720.00,329.77 720.45,339.70 720.91,341.47 721.36,336.50 721.82,338.31 722.27,337.80 722.73,345.47 723.18,331.72 723.64,339.76 724.09,337.22 724.55,333.63 725.00,332.93 725.45,336.08 725.91,346.18 726.36,338.20 726.82,338.35 727.27,334.46 727.73,339.75 728.18,341.99 728.64,337.69 729.09,338.12 729.55,335.33 730.00,340.27 730.45,346.78 730.91,334.49 731.36,331.31 731.82,338.64 732.27,342.50 732.73,343.17 733.18,346.78 733.64,343.00 734.09,342.53 734.55,335.47 735.00,344.81 735.45,339.17 735.91,338.93 736.36,338.10 736.82,355.01 737.27,350.38 737.73,346.43 738.18,336.35 738.64,341.38 739.09,339.70 739.55,350.37 740.00,340.26" />
</svg>
