<svg xmlns="http://www.w3.org/2000/svg" width="800" height="420">
  <rect x="0" y="0" width="800" height="420" fill="#ffffff" />
  <line x1="60" y1="360" x2="740" y2="360" stroke="#333333" stroke-width="2" />
  <line x1="60" y1="60" x2="60" y2="360" stroke="#333333" stroke-width="2" />
  <text x="400.0" y="30" text-anchor="middle" font-size="22" font-family="Arial">Self-Play Episode Length</text>
  <text x="400.0" y="405" text-anchor="middle" font-size="16" font-family="Arial">Batch</text>
  <text x="24" y="210.0" text-anchor="middle" font-size="16" font-family="Arial" transform="rotate(-90 24 210.0)">Episode Length</text>
  <text x="60" y="50" font-size="13" font-family="Arial">36.000</text>
  <text x="60" y="380" font-size="13" font-family="Arial">7.000</text>
  <text x="60" y="395" font-size="13" font-family="Arial">1</text>
  <text x="740" y="395" text-anchor="end" font-size="13" font-family="Arial">1500</text>
  <polyline fill="none" stroke="#2563eb" stroke-width="3" points="60.00,308.28 60.45,132.41 60.91,256.55 61.36,318.62 61.81,235.86 62.27,277.24 62.72,297.93 63.18,339.31 63.63,308.28 64.08,349.66 64.54,235.86 64.99,246.21 65.44,277.24 65.90,328.97 66.35,256.55 66.80,215.17 67.26,297.93 67.71,349.66 68.17,287.59 68.62,287.59 69.07,328.97 69.53,297.93 69.98,328.97 70.43,225.52 70.89,318.62 71.34,297.93 71.79,308.28 72.25,287.59 72.70,297.93 73.16,339.31 73.61,339.31 74.06,339.31 74.52,308.28 74.97,287.59 75.42,256.55 75.88,235.86 76.33,246.21 76.78,349.66 77.24,318.62 77.69,277.24 78.15,297.93 78.60,308.28 79.05,246.21 79.51,225.52 79.96,287.59 80.41,360.00 80.87,266.90 81.32,246.21 81.77,297.93 82.23,318.62 82.68,266.90 83.14,297.93 83.59,318.62 84.04,173.79 84.50,256.55 84.95,328.97 85.40,277.24 85.86,256.55 86.31,256.55 86.76,287.59 87.22,308.28 87.67,360.00 88.13,277.24 88.58,318.62 89.03,318.62 89.49,277.24 89.94,339.31 90.39,349.66 90.85,328.97 91.30,277.24 91.75,277.24 92.21,256.55 92.66,360.00 93.12,287.59 93.57,349.66 94.02,328.97 94.48,308.28 94.93,328.97 95.38,277.24 95.84,328.97 96.29,297.93 96.74,194.48 97.20,318.62 97.65,328.97 98.11,277.24 98.56,328.97 99.01,308.28 99.47,360.00 99.92,256.55 100.37,287.59 100.83,339.31 101.28,360.00 101.73,277.24 102.19,339.31 102.64,287.59 103.10,360.00 103.55,318.62 104.00,297.93 104.46,318.62 104.91,318.62 105.36,287.59 105.82,266.90 106.27,339.31 106.72,349.66 107.18,277.24 107.63,328.97 108.09,339.31 108.54,328.97 108.99,277.24 109.45,308.28 109.90,339.31 110.35,360.00 110.81,318.62 111.26,318.62 111.71,297.93 112.17,360.00 112.62,360.00 113.08,349.66 113.53,328.97 113.98,318.62 114.44,339.31 114.89,297.93 115.34,328.97 115.80,277.24 116.25,256.55 116.70,297.93 117.16,235.86 117.61,308.28 118.07,360.00 118.52,318.62 118.97,360.00 119.43,318.62 119.88,339.31 120.33,297.93 120.79,297.93 121.24,328.97 121.69,308.28 122.15,277.24 122.60,297.93 123.06,235.86 123.51,297.93 123.96,297.93 124.42,246.21 124.87,297.93 125.32,328.97 125.78,318.62 126.23,297.93 126.68,256.55 127.14,360.00 127.59,339.31 128.05,318.62 128.50,297.93 128.95,360.00 129.41,318.62 129.86,318.62 130.31,318.62 130.77,318.62 131.22,277.24 131.67,173.79 132.13,215.17 132.58,256.55 133.04,339.31 133.49,339.31 133.94,339.31 134.40,339.31 134.85,266.90 135.30,297.93 135.76,360.00 136.21,308.28 136.66,349.66 137.12,308.28 137.57,328.97 138.03,339.31 138.48,349.66 138.93,297.93 139.39,339.31 139.84,339.31 140.29,297.93 140.75,349.66 141.20,308.28 141.65,360.00 142.11,339.31 142.56,308.28 143.02,256.55 143.47,297.93 143.92,339.31 144.38,318.62 144.83,287.59 145.28,287.59 145.74,328.97 146.19,349.66 146.64,339.31 147.10,349.66 147.55,360.00 148.01,360.00 148.46,349.66 148.91,349.66 149.37,360.00 149.82,256.55 150.27,308.28 150.73,339.31 151.18,360.00 151.63,328.97 152.09,339.31 152.54,360.00 153.00,328.97 153.45,308.28 153.90,318.62 154.36,339.31 154.81,360.00 155.26,318.62 155.72,318.62 156.17,318.62 156.62,349.66 157.08,360.00 157.53,339.31 157.99,328.97 158.44,339.31 158.89,360.00 159.35,318.62 159.80,349.66 160.25,287.59 160.71,339.31 161.16,339.31 161.61,266.90 162.07,360.00 162.52,308.28 162.98,360.00 163.43,277.24 163.88,308.28 164.34,339.31 164.79,163.45 165.24,339.31 165.70,318.62 166.15,318.62 166.60,339.31 167.06,318.62 167.51,297.93 167.97,287.59 168.42,339.31 168.87,318.62 169.33,360.00 169.78,349.66 170.23,328.97 170.69,297.93 171.14,360.00 171.59,339.31 172.05,308.28 172.50,360.00 172.96,318.62 173.41,287.59 173.86,328.97 174.32,339.31 174.77,360.00 175.22,349.66 175.68,360.00 176.13,360.00 176.58,297.93 177.04,318.62 177.49,360.00 177.95,360.00 178.40,318.62 178.85,339.31 179.31,308.28 179.76,349.66 180.21,360.00 180.67,339.31 181.12,287.59 181.57,360.00 182.03,297.93 182.48,349.66 182.94,339.31 183.39,360.00 183.84,328.97 184.30,349.66 184.75,297.93 185.20,360.00 185.66,339.31 186.11,339.31 186.56,328.97 187.02,339.31 187.47,360.00 187.93,339.31 188.38,318.62 188.83,328.97 189.29,318.62 189.74,339.31 190.19,339.31 190.65,235.86 191.10,339.31 191.55,349.66 192.01,256.55 192.46,360.00 192.92,339.31 193.37,360.00 193.82,308.28 194.28,308.28 194.73,339.31 195.18,360.00 195.64,235.86 196.09,339.31 196.54,349.66 197.00,339.31 197.45,277.24 197.91,360.00 198.36,308.28 198.81,204.83 199.27,308.28 199.72,318.62 200.17,349.66 200.63,339.31 201.08,297.93 201.53,339.31 201.99,349.66 202.44,339.31 202.90,360.00 203.35,360.00 203.80,308.28 204.26,349.66 204.71,297.93 205.16,349.66 205.62,360.00 206.07,339.31 206.52,308.28 206.98,287.59 207.43,339.31 207.89,328.97 208.34,318.62 208.79,360.00 209.25,360.00 209.70,277.24 210.15,297.93 210.61,360.00 211.06,339.31 211.51,339.31 211.97,339.31 212.42,297.93 212.88,349.66 213.33,360.00 213.78,349.66 214.24,328.97 214.69,328.97 215.14,349.66 215.60,297.93 216.05,339.31 216.50,297.93 216.96,339.31 217.41,328.97 217.87,339.31 218.32,360.00 218.77,349.66 219.23,349.66 219.68,360.00 220.13,360.00 220.59,360.00 221.04,339.31 221.49,339.31 221.95,339.31 222.40,360.00 222.86,360.00 223.31,349.66 223.76,339.31 224.22,194.48 224.67,349.66 225.12,360.00 225.58,328.97 226.03,308.28 226.48,360.00 226.94,360.00 227.39,339.31 227.85,360.00 228.30,339.31 228.75,235.86 229.21,328.97 229.66,339.31 230.11,318.62 230.57,360.00 231.02,349.66 231.47,339.31 231.93,297.93 232.38,318.62 232.84,328.97 233.29,360.00 233.74,297.93 234.20,328.97 234.65,339.31 235.10,349.66 235.56,328.97 236.01,328.97 236.46,328.97 236.92,339.31 237.37,287.59 237.83,339.31 238.28,360.00 238.73,339.31 239.19,277.24 239.64,360.00 240.09,360.00 240.55,328.97 241.00,318.62 241.45,318.62 241.91,277.24 242.36,318.62 242.82,339.31 243.27,339.31 243.72,339.31 244.18,308.28 244.63,339.31 245.08,297.93 245.54,360.00 245.99,297.93 246.44,328.97 246.90,297.93 247.35,360.00 247.81,287.59 248.26,360.00 248.71,360.00 249.17,339.31 249.62,287.59 250.07,360.00 250.53,308.28 250.98,360.00 251.43,339.31 251.89,328.97 252.34,328.97 252.80,328.97 253.25,339.31 253.70,360.00 254.16,360.00 254.61,360.00 255.06,318.62 255.52,360.00 255.97,339.31 256.42,360.00 256.88,349.66 257.33,297.93 257.79,339.31 258.24,318.62 258.69,339.31 259.15,349.66 259.60,360.00 260.05,360.00 260.51,360.00 260.96,360.00 261.41,318.62 261.87,339.31 262.32,349.66 262.78,360.00 263.23,360.00 263.68,339.31 264.14,266.90 264.59,297.93 265.04,349.66 265.50,308.28 265.95,349.66 266.40,308.28 266.86,318.62 267.31,360.00 267.77,360.00 268.22,318.62 268.67,328.97 269.13,360.00 269.58,339.31 270.03,360.00 270.49,349.66 270.94,297.93 271.39,360.00 271.85,360.00 272.30,360.00 272.76,360.00 273.21,360.00 273.66,339.31 274.12,349.66 274.57,360.00 275.02,349.66 275.48,339.31 275.93,349.66 276.38,360.00 276.84,297.93 277.29,360.00 277.75,339.31 278.20,360.00 278.65,349.66 279.11,328.97 279.56,318.62 280.01,360.00 280.47,339.31 280.92,339.31 281.37,287.59 281.83,339.31 282.28,360.00 282.74,266.90 283.19,297.93 283.64,318.62 284.10,339.31 284.55,308.28 285.00,339.31 285.46,349.66 285.91,266.90 286.36,339.31 286.82,360.00 287.27,308.28 287.73,360.00 288.18,339.31 288.63,360.00 289.09,318.62 289.54,318.62 289.99,318.62 290.45,360.00 290.90,339.31 291.35,360.00 291.81,349.66 292.26,360.00 292.72,360.00 293.17,297.93 293.62,297.93 294.08,318.62 294.53,349.66 294.98,339.31 295.44,360.00 295.89,328.97 296.34,339.31 296.80,328.97 297.25,349.66 297.71,308.28 298.16,339.31 298.61,349.66 299.07,349.66 299.52,339.31 299.97,318.62 300.43,194.48 300.88,318.62 301.33,297.93 301.79,339.31 302.24,360.00 302.70,360.00 303.15,328.97 303.60,297.93 304.06,360.00 304.51,360.00 304.96,297.93 305.42,318.62 305.87,360.00 306.32,360.00 306.78,297.93 307.23,318.62 307.69,318.62 308.14,349.66 308.59,349.66 309.05,318.62 309.50,339.31 309.95,349.66 310.41,339.31 310.86,339.31 311.31,360.00 311.77,339.31 312.22,349.66 312.68,173.79 313.13,297.93 313.58,246.21 314.04,256.55 314.49,360.00 314.94,360.00 315.40,360.00 315.85,297.93 316.30,287.59 316.76,318.62 317.21,349.66 317.67,339.31 318.12,349.66 318.57,328.97 319.03,349.66 319.48,339.31 319.93,360.00 320.39,339.31 320.84,318.62 321.29,360.00 321.75,339.31 322.20,339.31 322.66,339.31 323.11,360.00 323.56,349.66 324.02,308.28 324.47,256.55 324.92,339.31 325.38,360.00 325.83,339.31 326.28,287.59 326.74,349.66 327.19,339.31 327.65,349.66 328.10,328.97 328.55,318.62 329.01,360.00 329.46,339.31 329.91,339.31 330.37,339.31 330.82,266.90 331.27,349.66 331.73,360.00 332.18,360.00 332.64,328.97 333.09,328.97 333.54,318.62 334.00,360.00 334.45,360.00 334.90,360.00 335.36,339.31 335.81,297.93 336.26,360.00 336.72,360.00 337.17,339.31 337.63,349.66 338.08,339.31 338.53,297.93 338.99,308.28 339.44,349.66 339.89,308.28 340.35,360.00 340.80,318.62 341.25,318.62 341.71,360.00 342.16,349.66 342.62,318.62 343.07,360.00 343.52,318.62 343.98,328.97 344.43,318.62 344.88,328.97 345.34,339.31 345.79,328.97 346.24,318.62 346.70,297.93 347.15,287.59 347.61,318.62 348.06,339.31 348.51,266.90 348.97,287.59 349.42,297.93 349.87,339.31 350.33,360.00 350.78,225.52 351.23,349.66 351.69,360.00 352.14,360.00 352.60,339.31 353.05,360.00 353.50,318.62 353.96,318.62 354.41,339.31 354.86,287.59 355.32,308.28 355.77,360.00 356.22,318.62 356.68,339.31 357.13,360.00 357.59,360.00 358.04,339.31 358.49,318.62 358.95,328.97 359.40,360.00 359.85,360.00 360.31,328.97 360.76,360.00 361.21,360.00 361.67,360.00 362.12,277.24 362.58,349.66 363.03,339.31 363.48,349.66 363.94,360.00 364.39,318.62 364.84,246.21 365.30,256.55 365.75,256.55 366.20,360.00 366.66,256.55 367.11,360.00 367.57,360.00 368.02,318.62 368.47,297.93 368.93,339.31 369.38,339.31 369.83,318.62 370.29,349.66 370.74,308.28 371.19,297.93 371.65,339.31 372.10,318.62 372.56,328.97 373.01,277.24 373.46,339.31 373.92,308.28 374.37,266.90 374.82,339.31 375.28,360.00 375.73,318.62 376.18,297.93 376.64,308.28 377.09,339.31 377.55,256.55 378.00,318.62 378.45,360.00 378.91,360.00 379.36,318.62 379.81,360.00 380.27,360.00 380.72,328.97 381.17,339.31 381.63,360.00 382.08,339.31 382.54,360.00 382.99,360.00 383.44,308.28 383.90,360.00 384.35,287.59 384.80,328.97 385.26,360.00 385.71,360.00 386.16,349.66 386.62,360.00 387.07,339.31 387.53,360.00 387.98,360.00 388.43,339.31 388.89,328.97 389.34,360.00 389.79,318.62 390.25,297.93 390.70,328.97 391.15,339.31 391.61,328.97 392.06,360.00 392.52,328.97 392.97,308.28 393.42,360.00 393.88,318.62 394.33,349.66 394.78,287.59 395.24,339.31 395.69,266.90 396.14,287.59 396.60,328.97 397.05,339.31 397.51,318.62 397.96,142.76 398.41,349.66 398.87,360.00 399.32,339.31 399.77,349.66 400.23,318.62 400.68,318.62 401.13,297.93 401.59,360.00 402.04,266.90 402.49,349.66 402.95,297.93 403.40,308.28 403.86,256.55 404.31,360.00 404.76,277.24 405.22,318.62 405.67,277.24 406.12,360.00 406.58,297.93 407.03,318.62 407.48,318.62 407.94,339.31 408.39,277.24 408.85,287.59 409.30,360.00 409.75,360.00 410.21,339.31 410.66,339.31 411.11,360.00 411.57,360.00 412.02,349.66 412.47,308.28 412.93,349.66 413.38,349.66 413.84,339.31 414.29,287.59 414.74,297.93 415.20,339.31 415.65,339.31 416.10,318.62 416.56,277.24 417.01,318.62 417.46,308.28 417.92,308.28 418.37,360.00 418.83,318.62 419.28,339.31 419.73,360.00 420.19,360.00 420.64,360.00 421.09,318.62 421.55,360.00 422.00,308.28 422.45,360.00 422.91,339.31 423.36,360.00 423.82,349.66 424.27,184.14 424.72,308.28 425.18,360.00 425.63,308.28 426.08,360.00 426.54,339.31 426.99,349.66 427.44,339.31 427.90,339.31 428.35,318.62 428.81,318.62 429.26,349.66 429.71,318.62 430.17,277.24 430.62,308.28 431.07,318.62 431.53,328.97 431.98,225.52 432.43,349.66 432.89,318.62 433.34,339.31 433.80,318.62 434.25,339.31 434.70,318.62 435.16,297.93 435.61,360.00 436.06,360.00 436.52,339.31 436.97,339.31 437.42,308.28 437.88,297.93 438.33,308.28 438.79,339.31 439.24,339.31 439.69,360.00 440.15,360.00 440.60,328.97 441.05,308.28 441.51,360.00 441.96,328.97 442.41,318.62 442.87,339.31 443.32,297.93 443.78,328.97 444.23,246.21 444.68,318.62 445.14,328.97 445.59,339.31 446.04,349.66 446.50,360.00 446.95,318.62 447.40,246.21 447.86,287.59 448.31,308.28 448.77,308.28 449.22,266.90 449.67,297.93 450.13,349.66 450.58,318.62 451.03,339.31 451.49,339.31 451.94,360.00 452.39,349.66 452.85,360.00 453.30,297.93 453.76,318.62 454.21,308.28 454.66,328.97 455.12,328.97 455.57,360.00 456.02,349.66 456.48,339.31 456.93,339.31 457.38,339.31 457.84,360.00 458.29,339.31 458.75,349.66 459.20,360.00 459.65,318.62 460.11,349.66 460.56,328.97 461.01,360.00 461.47,328.97 461.92,318.62 462.37,360.00 462.83,256.55 463.28,277.24 463.74,328.97 464.19,349.66 464.64,277.24 465.10,360.00 465.55,235.86 466.00,297.93 466.46,349.66 466.91,297.93 467.36,339.31 467.82,308.28 468.27,308.28 468.73,339.31 469.18,297.93 469.63,339.31 470.09,339.31 470.54,349.66 470.99,308.28 471.45,339.31 471.90,360.00 472.35,318.62 472.81,318.62 473.26,266.90 473.72,339.31 474.17,287.59 474.62,339.31 475.08,318.62 475.53,349.66 475.98,277.24 476.44,360.00 476.89,308.28 477.34,328.97 477.80,349.66 478.25,339.31 478.71,318.62 479.16,349.66 479.61,339.31 480.07,349.66 480.52,297.93 480.97,318.62 481.43,318.62 481.88,266.90 482.33,308.28 482.79,287.59 483.24,349.66 483.70,349.66 484.15,360.00 484.60,318.62 485.06,235.86 485.51,339.31 485.96,360.00 486.42,339.31 486.87,328.97 487.32,225.52 487.78,360.00 488.23,318.62 488.69,256.55 489.14,360.00 489.59,318.62 490.05,349.66 490.50,308.28 490.95,360.00 491.41,339.31 491.86,308.28 492.31,360.00 492.77,318.62 493.22,339.31 493.68,360.00 494.13,349.66 494.58,277.24 495.04,339.31 495.49,318.62 495.94,277.24 496.40,349.66 496.85,360.00 497.30,297.93 497.76,360.00 498.21,360.00 498.67,328.97 499.12,349.66 499.57,215.17 500.03,360.00 500.48,60.00 500.93,318.62 501.39,328.97 501.84,360.00 502.29,297.93 502.75,318.62 503.20,225.52 503.66,339.31 504.11,318.62 504.56,318.62 505.02,339.31 505.47,360.00 505.92,339.31 506.38,328.97 506.83,328.97 507.28,328.97 507.74,349.66 508.19,225.52 508.65,349.66 509.10,339.31 509.55,349.66 510.01,318.62 510.46,339.31 510.91,360.00 511.37,349.66 511.82,360.00 512.27,339.31 512.73,225.52 513.18,308.28 513.64,339.31 514.09,349.66 514.54,277.24 515.00,297.93 515.45,360.00 515.90,328.97 516.36,360.00 516.81,308.28 517.26,360.00 517.72,318.62 518.17,318.62 518.63,339.31 519.08,318.62 519.53,308.28 519.99,318.62 520.44,360.00 520.89,287.59 521.35,308.28 521.80,308.28 522.25,308.28 522.71,360.00 523.16,318.62 523.62,360.00 524.07,339.31 524.52,339.31 524.98,256.55 525.43,360.00 525.88,308.28 526.34,297.93 526.79,360.00 527.24,339.31 527.70,360.00 528.15,349.66 528.61,308.28 529.06,328.97 529.51,349.66 529.97,349.66 530.42,339.31 530.87,360.00 531.33,318.62 531.78,266.90 532.23,339.31 532.69,339.31 533.14,339.31 533.60,349.66 534.05,318.62 534.50,318.62 534.96,318.62 535.41,360.00 535.86,360.00 536.32,349.66 536.77,339.31 537.22,339.31 537.68,328.97 538.13,297.93 538.59,349.66 539.04,349.66 539.49,318.62 539.95,318.62 540.40,194.48 540.85,256.55 541.31,235.86 541.76,297.93 542.21,339.31 542.67,360.00 543.12,328.97 543.58,266.90 544.03,246.21 544.48,339.31 544.94,318.62 545.39,318.62 545.84,308.28 546.30,360.00 546.75,349.66 547.20,297.93 547.66,318.62 548.11,328.97 548.57,318.62 549.02,246.21 549.47,328.97 549.93,318.62 550.38,349.66 550.83,339.31 551.29,235.86 551.74,339.31 552.19,360.00 552.65,297.93 553.10,339.31 553.56,235.86 554.01,349.66 554.46,277.24 554.92,297.93 555.37,235.86 555.82,360.00 556.28,287.59 556.73,360.00 557.18,308.28 557.64,339.31 558.09,339.31 558.55,277.24 559.00,349.66 559.45,360.00 559.91,318.62 560.36,297.93 560.81,318.62 561.27,339.31 561.72,360.00 562.17,297.93 562.63,349.66 563.08,318.62 563.54,360.00 563.99,318.62 564.44,318.62 564.90,328.97 565.35,339.31 565.80,215.17 566.26,349.66 566.71,349.66 567.16,297.93 567.62,360.00 568.07,297.93 568.53,328.97 568.98,360.00 569.43,318.62 569.89,360.00 570.34,318.62 570.79,328.97 571.25,360.00 571.70,339.31 572.15,349.66 572.61,339.31 573.06,339.31 573.52,360.00 573.97,318.62 574.42,339.31 574.88,349.66 575.33,215.17 575.78,339.31 576.24,360.00 576.69,360.00 577.14,328.97 577.60,339.31 578.05,277.24 578.51,349.66 578.96,318.62 579.41,318.62 579.87,318.62 580.32,360.00 580.77,318.62 581.23,297.93 581.68,318.62 582.13,339.31 582.59,328.97 583.04,318.62 583.50,360.00 583.95,287.59 584.40,349.66 584.86,339.31 585.31,318.62 585.76,256.55 586.22,339.31 586.67,339.31 587.12,360.00 587.58,339.31 588.03,339.31 588.49,297.93 588.94,246.21 589.39,308.28 589.85,360.00 590.30,318.62 590.75,277.24 591.21,339.31 591.66,339.31 592.11,328.97 592.57,297.93 593.02,318.62 593.48,318.62 593.93,318.62 594.38,360.00 594.84,339.31 595.29,277.24 595.74,277.24 596.20,297.93 596.65,339.31 597.10,328.97 597.56,349.66 598.01,339.31 598.47,235.86 598.92,360.00 599.37,339.31 599.83,308.28 600.28,360.00 600.73,297.93 601.19,308.28 601.64,360.00 602.09,256.55 602.55,339.31 603.00,360.00 603.46,277.24 603.91,360.00 604.36,318.62 604.82,297.93 605.27,297.93 605.72,308.28 606.18,349.66 606.63,297.93 607.08,318.62 607.54,318.62 607.99,339.31 608.45,349.66 608.90,328.97 609.35,339.31 609.81,339.31 610.26,287.59 610.71,318.62 611.17,360.00 611.62,349.66 612.07,308.28 612.53,360.00 612.98,349.66 613.44,339.31 613.89,349.66 614.34,339.31 614.80,349.66 615.25,328.97 615.70,215.17 616.16,297.93 616.61,339.31 617.06,266.90 617.52,246.21 617.97,360.00 618.43,318.62 618.88,339.31 619.33,360.00 619.79,339.31 620.24,277.24 620.69,360.00 621.15,122.07 621.60,277.24 622.05,277.24 622.51,328.97 622.96,256.55 623.42,339.31 623.87,297.93 624.32,360.00 624.78,318.62 625.23,349.66 625.68,287.59 626.14,339.31 626.59,297.93 627.04,308.28 627.50,339.31 627.95,297.93 628.41,360.00 628.86,339.31 629.31,287.59 629.77,235.86 630.22,360.00 630.67,339.31 631.13,318.62 631.58,266.90 632.03,360.00 632.49,339.31 632.94,318.62 633.40,349.66 633.85,349.66 634.30,360.00 634.76,349.66 635.21,349.66 635.66,328.97 636.12,277.24 636.57,339.31 637.02,318.62 637.48,328.97 637.93,256.55 638.39,360.00 638.84,318.62 639.29,349.66 639.75,235.86 640.20,318.62 640.65,297.93 641.11,318.62 641.56,328.97 642.01,297.93 642.47,360.00 642.92,339.31 643.38,360.00 643.83,349.66 644.28,318.62 644.74,360.00 645.19,308.28 645.64,297.93 646.10,225.52 646.55,318.62 647.00,308.28 647.46,318.62 647.91,256.55 648.37,297.93 648.82,318.62 649.27,339.31 649.73,328.97 650.18,360.00 650.63,308.28 651.09,360.00 651.54,318.62 651.99,339.31 652.45,360.00 652.90,360.00 653.36,360.00 653.81,297.93 654.26,287.59 654.72,360.00 655.17,297.93 655.62,339.31 656.08,328.97 656.53,360.00 656.98,339.31 657.44,287.59 657.89,297.93 658.35,360.00 658.80,297.93 659.25,328.97 659.71,204.83 660.16,360.00 660.61,360.00 661.07,339.31 661.52,360.00 661.97,328.97 662.43,308.28 662.88,318.62 663.34,339.31 663.79,297.93 664.24,360.00 664.70,277.24 665.15,318.62 665.60,297.93 666.06,184.14 666.51,297.93 666.96,339.31 667.42,308.28 667.87,339.31 668.33,287.59 668.78,277.24 669.23,360.00 669.69,349.66 670.14,349.66 670.59,287.59 671.05,318.62 671.50,339.31 671.95,122.07 672.41,297.93 672.86,266.90 673.32,318.62 673.77,266.90 674.22,246.21 674.68,215.17 675.13,318.62 675.58,339.31 676.04,256.55 676.49,318.62 676.94,308.28 677.40,328.97 677.85,318.62 678.31,308.28 678.76,328.97 679.21,318.62 679.67,360.00 680.12,194.48 680.57,297.93 681.03,349.66 681.48,297.93 681.93,339.31 682.39,318.62 682.84,318.62 683.30,308.28 683.75,339.31 684.20,328.97 684.66,339.31 685.11,318.62 685.56,360.00 686.02,297.93 686.47,277.24 686.92,246.21 687.38,339.31 687.83,318.62 688.29,339.31 688.74,349.66 689.19,318.62 689.65,328.97 690.10,328.97 690.55,360.00 691.01,349.66 691.46,318.62 691.91,339.31 692.37,318.62 692.82,339.31 693.28,339.31 693.73,360.00 694.18,360.00 694.64,318.62 695.09,297.93 695.54,360.00 696.00,308.28 696.45,308.28 696.90,349.66 697.36,360.00 697.81,339.31 698.27,297.93 698.72,318.62 699.17,339.31 699.63,318.62 700.08,318.62 700.53,328.97 700.99,297.93 701.44,308.28 701.89,235.86 702.35,308.28 702.80,318.62 703.26,308.28 703.71,349.66 704.16,287.59 704.62,339.31 705.07,349.66 705.52,328.97 705.98,318.62 706.43,256.55 706.88,318.62 707.34,318.62 707.79,225.52 708.25,308.28 708.70,339.31 709.15,360.00 709.61,339.31 710.06,287.59 710.51,287.59 710.97,277.24 711.42,360.00 711.87,318.62 712.33,360.00 712.78,339.31 713.24,225.52 713.69,360.00 714.14,360.00 714.60,287.59 715.05,339.31 715.50,328.97 715.96,308.28 716.41,277.24 716.86,328.97 717.32,318.62 717.77,246.21 718.23,308.28 718.68,246.21 719.13,349.66 719.59,339.31 720.04,287.59 720.49,349.66 720.95,349.66 721.40,328.97 721.85,349.66 722.31,349.66 722.76,360.00 723.22,339.31 723.67,297.93 724.12,328.97 724.58,349.66 725.03,308.28 725.48,339.31 725.94,318.62 726.39,328.97 726.84,215.17 727.30,349.66 727.75,339.31 728.21,339.31 728.66,256.55 729.11,339.31 729.57,297.93 730.02,339.31 730.47,339.31 730.93,328.97 731.38,339.31 731.83,339.31 732.29,360.00 732.74,328.97 733.20,328.97 733.65,360.00 734.10,277.24 734.56,360.00 735.01,328.97 735.46,297.93 735.92,297.93 736.37,277.24 736.82,360.00 737.28,318.62 737.73,339.31 738.19,360.00 738.64,360.00 739.09,308.28 739.55,318.62 740.00,277.24" />
</svg>
