<svg xmlns="http://www.w3.org/2000/svg" width="800" height="420">
  <rect x="0" y="0" width="800" height="420" fill="#ffffff" />
  <line x1="60" y1="360" x2="740" y2="360" stroke="#333333" stroke-width="2" />
  <line x1="60" y1="60" x2="60" y2="360" stroke="#333333" stroke-width="2" />
  <text x="400.0" y="30" text-anchor="middle" font-size="22" font-family="Arial">Training Loss</text>
  <text x="400.0" y="405" text-anchor="middle" font-size="16" font-family="Arial">Batch</text>
  <text x="24" y="210.0" text-anchor="middle" font-size="16" font-family="Arial" transform="rotate(-90 24 210.0)">Loss</text>
  <text x="60" y="50" font-size="13" font-family="Arial">4.579</text>
  <text x="60" y="380" font-size="13" font-family="Arial">1.627</text>
  <text x="60" y="395" font-size="13" font-family="Arial">4</text>
  <text x="740" y="395" text-anchor="end" font-size="13" font-family="Arial">1500</text>
  <polyline fill="none" stroke="#dc2626" stroke-width="3" points="60.00,60.00 60.45,60.90 60.91,63.68 61.36,64.33 61.82,66.86 62.27,73.81 62.73,86.46 63.18,104.15 63.64,88.77 64.09,93.80 64.55,93.53 65.00,99.06 65.45,111.00 65.91,109.49 66.36,110.73 66.82,112.27 67.27,112.51 67.73,111.75 68.18,106.14 68.64,109.89 69.09,100.35 69.55,98.82 70.00,111.48 70.45,100.77 70.91,101.09 71.36,100.66 71.82,104.10 72.27,106.53 72.73,101.64 73.18,105.35 73.64,104.35 74.09,105.19 74.55,103.12 75.00,114.97 75.45,110.21 75.91,107.30 76.36,110.65 76.82,116.05 77.27,114.00 77.73,107.62 78.18,102.61 78.64,103.09 79.09,111.10 79.55,106.00 80.00,104.99 80.45,106.13 80.91,107.52 81.36,97.76 81.82,108.02 82.27,107.91 82.73,116.83 83.18,114.90 83.64,108.78 84.09,113.90 84.55,115.54 85.00,120.03 85.45,119.71 85.91,114.31 86.36,117.39 86.82,119.45 87.27,121.55 87.73,118.69 88.18,124.40 88.64,119.83 89.09,126.03 89.55,117.77 90.00,126.20 90.45,124.57 90.91,122.47 91.36,126.74 91.82,128.47 92.27,123.41 92.73,135.00 93.18,124.81 93.64,127.95 94.09,126.92 94.55,127.02 95.00,129.87 95.45,121.60 95.91,125.63 96.36,127.22 96.82,133.71 97.27,127.20 97.73,125.88 98.18,128.41 98.64,133.03 99.09,128.20 99.55,130.08 100.00,127.34 100.45,139.55 100.91,135.52 101.36,136.94 101.82,143.88 102.27,133.37 102.73,134.28 103.18,134.14 103.64,139.91 104.09,137.32 104.55,134.35 105.00,140.69 105.45,133.58 105.91,140.83 106.36,141.95 106.82,138.35 107.27,148.28 107.73,147.01 108.18,143.51 108.64,139.64 109.09,143.61 109.55,139.72 110.00,147.68 110.45,146.58 110.91,149.86 111.36,153.71 111.82,135.99 112.27,142.43 112.73,143.57 113.18,147.82 113.64,146.65 114.09,153.41 114.55,151.56 115.00,144.12 115.45,152.80 115.91,159.59 116.36,149.15 116.82,152.25 117.27,159.15 117.73,161.57 118.18,162.25 118.64,164.02 119.09,155.36 119.55,161.19 120.00,159.90 120.45,157.72 120.91,153.16 121.36,163.94 121.82,155.46 122.27,169.67 122.73,161.97 123.18,164.31 123.64,168.61 124.09,167.59 124.55,162.28 125.00,168.53 125.45,169.39 125.91,174.98 126.36,164.68 126.82,175.19 127.27,175.72 127.73,179.00 128.18,168.71 128.64,174.68 129.09,169.68 129.55,171.11 130.00,178.67 130.45,174.41 130.91,182.08 131.36,173.22 131.82,173.77 132.27,187.88 132.73,179.58 133.18,188.82 133.64,179.07 134.09,194.57 134.55,186.03 135.00,189.76 135.45,180.80 135.91,179.18 136.36,183.00 136.82,184.12 137.27,173.68 137.73,185.65 138.18,183.01 138.64,184.76 139.09,190.43 139.55,192.63 140.00,188.22 140.45,196.44 140.91,184.48 141.36,194.87 141.82,194.51 142.27,178.09 142.73,197.11 143.18,201.91 143.64,185.19 144.09,198.17 144.55,187.80 145.00,187.71 145.45,192.70 145.91,191.66 146.36,205.15 146.82,198.80 147.27,195.29 147.73,196.04 148.18,197.07 148.64,203.72 149.09,205.56 149.55,195.54 150.00,202.27 150.45,204.54 150.91,199.91 151.36,202.35 151.82,207.78 152.27,207.30 152.73,208.41 153.18,205.28 153.64,192.11 154.09,198.56 154.55,205.60 155.00,198.14 155.45,204.79 155.91,204.30 156.36,203.38 156.82,220.08 157.27,206.85 157.73,203.23 158.18,204.86 158.64,203.44 159.09,209.12 159.55,209.88 160.00,199.65 160.45,209.21 160.91,210.63 161.36,213.81 161.82,215.70 162.27,209.14 162.73,210.69 163.18,213.52 163.64,217.86 164.09,226.05 164.55,212.72 165.00,216.47 165.45,221.62 165.91,222.42 166.36,217.53 166.82,213.43 167.27,211.03 167.73,221.38 168.18,221.82 168.64,216.68 169.09,211.52 169.55,212.83 170.00,227.33 170.45,225.19 170.91,222.30 171.36,222.84 171.82,222.45 172.27,220.40 172.73,218.83 173.18,229.43 173.64,229.47 174.09,238.03 174.55,228.89 175.00,229.97 175.45,230.64 175.91,228.50 176.36,217.15 176.82,235.17 177.27,231.18 177.73,233.32 178.18,233.83 178.64,227.46 179.09,229.99 179.55,242.99 180.00,246.29 180.45,234.20 180.91,248.85 181.36,237.46 181.82,236.52 182.27,237.81 182.73,242.95 183.18,240.12 183.64,236.77 184.09,239.18 184.55,244.01 185.00,243.95 185.45,248.31 185.91,246.00 186.36,245.22 186.82,244.81 187.27,242.11 187.73,242.24 188.18,252.69 188.64,249.08 189.09,240.26 189.55,241.68 190.00,261.71 190.45,252.26 190.91,261.18 191.36,261.43 191.82,250.24 192.27,253.67 192.73,246.62 193.18,253.30 193.64,243.33 194.09,255.31 194.55,251.34 195.00,244.64 195.45,242.01 195.91,253.06 196.36,254.17 196.82,261.67 197.27,257.43 197.73,243.84 198.18,257.65 198.64,246.99 199.09,253.10 199.55,256.06 200.00,262.32 200.45,260.56 200.91,247.64 201.36,262.44 201.82,266.21 202.27,268.29 202.73,264.06 203.18,268.41 203.64,270.38 204.09,263.56 204.55,264.88 205.00,271.42 205.45,269.38 205.91,268.33 206.36,257.42 206.82,261.32 207.27,262.32 207.73,266.70 208.18,269.44 208.64,267.66 209.09,266.49 209.55,268.91 210.00,266.06 210.45,272.04 210.91,267.20 211.36,274.95 211.82,271.86 212.27,264.99 212.73,273.43 213.18,268.79 213.64,265.09 214.09,267.51 214.55,271.50 215.00,273.46 215.45,269.79 215.91,264.28 216.36,263.56 216.82,273.06 217.27,267.15 217.73,279.82 218.18,278.86 218.64,272.62 219.09,276.63 219.55,281.43 220.00,269.10 220.45,280.23 220.91,295.09 221.36,284.17 221.82,290.17 222.27,283.75 222.73,293.54 223.18,291.21 223.64,287.30 224.09,275.85 224.55,276.73 225.00,277.09 225.45,280.34 225.91,281.70 226.36,282.10 226.82,290.47 227.27,283.25 227.73,287.55 228.18,286.61 228.64,277.76 229.09,298.35 229.55,284.42 230.00,287.24 230.45,280.31 230.91,295.08 231.36,281.53 231.82,287.49 232.27,286.93 232.73,295.91 233.18,274.98 233.64,282.71 234.09,293.37 234.55,290.90 235.00,283.29 235.45,272.17 235.91,279.91 236.36,285.78 236.82,278.55 237.27,280.92 237.73,277.45 238.18,276.03 238.64,279.91 239.09,277.45 239.55,280.32 240.00,283.94 240.45,287.42 240.91,284.12 241.36,289.11 241.82,280.20 242.27,291.67 242.73,292.87 243.18,291.11 243.64,291.21 244.09,275.47 244.55,288.26 245.00,283.85 245.45,289.87 245.91,281.17 246.36,284.15 246.82,291.69 247.27,288.21 247.73,293.21 248.18,291.82 248.64,281.97 249.09,286.92 249.55,295.44 250.00,287.60 250.45,301.91 250.91,298.05 251.36,290.63 251.82,278.30 252.27,285.33 252.73,282.59 253.18,286.22 253.64,283.02 254.09,292.76 254.55,288.53 255.00,293.00 255.45,295.66 255.91,295.66 256.36,295.32 256.82,292.85 257.27,293.31 257.73,299.55 258.18,291.19 258.64,289.87 259.09,294.01 259.55,293.48 260.00,305.99 260.45,305.26 260.91,300.79 261.36,297.73 261.82,291.24 262.27,292.60 262.73,298.41 263.18,299.58 263.64,300.25 264.09,287.93 264.55,301.88 265.00,296.66 265.45,297.97 265.91,307.63 266.36,298.47 266.82,298.48 267.27,295.69 267.73,297.31 268.18,291.10 268.64,292.92 269.09,300.39 269.55,299.20 270.00,294.98 270.45,294.98 270.91,296.64 271.36,301.58 271.82,302.11 272.27,291.03 272.73,301.43 273.18,300.59 273.64,307.69 274.09,301.10 274.55,295.23 275.00,302.10 275.45,299.80 275.91,307.04 276.36,295.30 276.82,298.22 277.27,297.76 277.73,307.24 278.18,301.12 278.64,303.30 279.09,304.78 279.55,303.66 280.00,298.85 280.45,304.59 280.91,310.80 281.36,308.07 281.82,299.31 282.27,302.47 282.73,307.10 283.18,303.39 283.64,298.40 284.09,307.79 284.55,299.77 285.00,314.58 285.45,302.16 285.91,303.14 286.36,306.15 286.82,302.76 287.27,303.14 287.73,300.38 288.18,303.59 288.64,299.39 289.09,310.59 289.55,299.00 290.00,304.56 290.45,299.45 290.91,308.45 291.36,304.39 291.82,304.16 292.27,311.62 292.73,303.62 293.18,302.29 293.64,299.57 294.09,303.43 294.55,311.51 295.00,314.82 295.45,311.70 295.91,314.42 296.36,306.36 296.82,299.63 297.27,307.71 297.73,306.40 298.18,304.22 298.64,313.42 299.09,301.90 299.55,312.95 300.00,310.24 300.45,304.64 300.91,311.16 301.36,303.76 301.82,300.95 302.27,310.75 302.73,307.39 303.18,305.98 303.64,297.36 304.09,309.99 304.55,308.77 305.00,310.59 305.45,299.54 305.91,320.21 306.36,326.12 306.82,312.87 307.27,308.44 307.73,317.91 308.18,308.63 308.64,317.77 309.09,311.18 309.55,307.30 310.00,319.40 310.45,315.67 310.91,306.32 311.36,313.39 311.82,313.31 312.27,307.78 312.73,318.67 313.18,313.81 313.64,318.12 314.09,321.41 314.55,323.34 315.00,316.00 315.45,322.53 315.91,316.25 316.36,313.78 316.82,317.21 317.27,320.95 317.73,312.50 318.18,321.10 318.64,322.19 319.09,317.18 319.55,309.64 320.00,318.99 320.45,320.48 320.91,317.84 321.36,318.38 321.82,319.33 322.27,321.36 322.73,323.37 323.18,313.97 323.64,319.94 324.09,324.36 324.55,331.12 325.00,320.62 325.45,315.45 325.91,322.19 326.36,332.93 326.82,330.46 327.27,317.29 327.73,318.56 328.18,317.13 328.64,316.61 329.09,329.67 329.55,324.59 330.00,319.48 330.45,325.14 330.91,323.36 331.36,318.54 331.82,311.12 332.27,322.11 332.73,315.60 333.18,325.11 333.64,322.43 334.09,324.00 334.55,323.51 335.00,323.27 335.45,317.84 335.91,324.26 336.36,315.69 336.82,322.40 337.27,327.32 337.73,319.50 338.18,333.93 338.64,321.98 339.09,325.62 339.55,321.69 340.00,318.11 340.45,320.25 340.91,324.33 341.36,320.47 341.82,326.09 342.27,325.08 342.73,329.85 343.18,340.00 343.64,332.27 344.09,334.86 344.55,332.70 345.00,324.30 345.45,320.96 345.91,328.38 346.36,325.85 346.82,328.51 347.27,328.31 347.73,330.18 348.18,308.36 348.64,316.33 349.09,322.06 349.55,325.96 350.00,322.18 350.45,327.71 350.91,328.38 351.36,314.11 351.82,318.83 352.27,307.76 352.73,309.55 353.18,330.96 353.64,318.30 354.09,321.97 354.55,322.29 355.00,321.70 355.45,322.14 355.91,330.45 356.36,325.90 356.82,314.94 357.27,315.12 357.73,328.05 358.18,323.63 358.64,323.29 359.09,320.42 359.55,323.60 360.00,321.35 360.45,314.92 360.91,319.49 361.36,326.93 361.82,315.36 362.27,330.38 362.73,327.94 363.18,318.04 363.64,324.40 364.09,320.38 364.55,320.72 365.00,323.74 365.45,316.13 365.91,329.40 366.36,314.43 366.82,330.20 367.27,319.21 367.73,332.37 368.18,325.64 368.64,322.66 369.09,331.37 369.55,321.32 370.00,328.42 370.45,325.22 370.91,318.51 371.36,323.49 371.82,322.42 372.27,325.22 372.73,329.33 373.18,330.67 373.64,323.49 374.09,330.18 374.55,318.29 375.00,309.01 375.45,327.31 375.91,327.12 376.36,319.45 376.82,319.28 377.27,315.85 377.73,313.86 378.18,322.17 378.64,323.78 379.09,328.29 379.55,319.45 380.00,326.88 380.45,333.29 380.91,320.84 381.36,328.78 381.82,325.93 382.27,333.38 382.73,339.45 383.18,323.17 383.64,327.79 384.09,325.48 384.55,320.20 385.00,326.84 385.45,328.47 385.91,338.99 386.36,333.94 386.82,332.71 387.27,317.22 387.73,336.21 388.18,325.51 388.64,330.97 389.09,332.05 389.55,329.43 390.00,327.73 390.45,336.51 390.91,330.90 391.36,337.77 391.82,330.43 392.27,330.99 392.73,326.80 393.18,335.05 393.64,335.62 394.09,319.49 394.55,324.98 395.00,325.27 395.45,332.78 395.91,328.33 396.36,328.21 396.82,309.51 397.27,322.32 397.73,316.39 398.18,329.42 398.64,325.44 399.09,331.13 399.55,329.58 400.00,338.30 400.45,321.39 400.91,330.27 401.36,333.10 401.82,331.02 402.27,334.57 402.73,332.87 403.18,320.45 403.64,332.67 404.09,340.63 404.55,332.86 405.00,332.95 405.45,320.24 405.91,334.59 406.36,321.44 406.82,340.46 407.27,328.90 407.73,335.48 408.18,324.79 408.64,326.67 409.09,333.24 409.55,334.98 410.00,329.39 410.45,346.29 410.91,330.42 411.36,329.83 411.82,326.99 412.27,330.77 412.73,330.42 413.18,325.14 413.64,326.51 414.09,332.11 414.55,332.60 415.00,330.48 415.45,337.25 415.91,330.16 416.36,322.44 416.82,336.23 417.27,327.10 417.73,330.20 418.18,320.12 418.64,331.21 419.09,332.83 419.55,320.72 420.00,322.74 420.45,323.14 420.91,335.25 421.36,329.53 421.82,322.85 422.27,322.37 422.73,338.36 423.18,336.56 423.64,329.98 424.09,331.20 424.55,332.55 425.00,328.43 425.45,334.15 425.91,330.14 426.36,328.27 426.82,328.67 427.27,331.87 427.73,333.23 428.18,332.70 428.64,335.09 429.09,334.36 429.55,327.98 430.00,336.53 430.45,337.71 430.91,326.40 431.36,337.20 431.82,327.06 432.27,330.22 432.73,342.12 433.18,330.55 433.64,333.87 434.09,339.04 434.55,329.21 435.00,340.05 435.45,335.54 435.91,331.40 436.36,335.46 436.82,341.78 437.27,326.65 437.73,330.26 438.18,330.51 438.64,336.13 439.09,336.44 439.55,333.50 440.00,326.63 440.45,337.70 440.91,343.83 441.36,337.76 441.82,339.97 442.27,327.38 442.73,333.42 443.18,332.01 443.64,331.82 444.09,331.04 444.55,334.77 445.00,329.23 445.45,338.67 445.91,334.62 446.36,324.41 446.82,335.33 447.27,329.19 447.73,325.05 448.18,336.49 448.64,326.53 449.09,328.35 449.55,332.93 450.00,328.74 450.45,331.50 450.91,335.54 451.36,321.27 451.82,337.61 452.27,333.75 452.73,330.10 453.18,334.66 453.64,331.58 454.09,336.80 454.55,329.93 455.00,325.07 455.45,331.62 455.91,334.86 456.36,326.73 456.82,327.86 457.27,336.36 457.73,330.04 458.18,329.66 458.64,319.95 459.09,323.18 459.55,327.33 460.00,324.00 460.45,320.18 460.91,317.86 461.36,330.66 461.82,323.95 462.27,331.06 462.73,322.54 463.18,335.10 463.64,326.47 464.09,320.19 464.55,330.33 465.00,332.01 465.45,324.24 465.91,324.31 466.36,327.84 466.82,322.30 467.27,329.34 467.73,319.95 468.18,323.27 468.64,335.31 469.09,333.42 469.55,327.94 470.00,329.70 470.45,334.32 470.91,322.89 471.36,323.92 471.82,324.20 472.27,318.70 472.73,327.17 473.18,330.34 473.64,343.35 474.09,329.03 474.55,319.27 475.00,327.85 475.45,334.84 475.91,329.91 476.36,323.86 476.82,329.36 477.27,323.86 477.73,325.23 478.18,333.52 478.64,318.35 479.09,325.82 479.55,323.53 480.00,323.88 480.45,320.22 480.91,325.63 481.36,326.71 481.82,331.64 482.27,315.05 482.73,330.84 483.18,327.30 483.64,330.23 484.09,318.41 484.55,321.34 485.00,327.22 485.45,321.27 485.91,326.21 486.36,324.40 486.82,318.58 487.27,327.48 487.73,315.92 488.18,320.37 488.64,328.59 489.09,320.15 489.55,318.29 490.00,325.99 490.45,322.92 490.91,319.10 491.36,327.02 491.82,320.91 492.27,319.69 492.73,332.08 493.18,324.21 493.64,319.32 494.09,317.24 494.55,317.83 495.00,321.30 495.45,322.65 495.91,326.03 496.36,329.66 496.82,318.88 497.27,323.69 497.73,323.44 498.18,320.74 498.64,321.10 499.09,325.79 499.55,321.92 500.00,318.82 500.45,332.93 500.91,321.90 501.36,324.11 501.82,321.03 502.27,318.13 502.73,321.84 503.18,332.73 503.64,317.22 504.09,318.93 504.55,317.14 505.00,318.61 505.45,325.33 505.91,335.98 506.36,327.41 506.82,319.59 507.27,330.83 507.73,317.12 508.18,328.18 508.64,328.21 509.09,323.91 509.55,322.01 510.00,310.40 510.45,321.67 510.91,323.96 511.36,317.95 511.82,322.56 512.27,335.65 512.73,326.19 513.18,317.87 513.64,320.93 514.09,324.60 514.55,326.24 515.00,333.06 515.45,320.81 515.91,328.33 516.36,323.60 516.82,319.76 517.27,328.72 517.73,323.08 518.18,333.88 518.64,325.16 519.09,325.07 519.55,338.21 520.00,332.01 520.45,325.60 520.91,309.35 521.36,331.40 521.82,335.93 522.27,334.75 522.73,317.83 523.18,329.17 523.64,332.03 524.09,326.11 524.55,315.50 525.00,314.77 525.45,323.82 525.91,320.16 526.36,339.04 526.82,325.13 527.27,321.34 527.73,322.38 528.18,325.17 528.64,334.14 529.09,321.37 529.55,324.88 530.00,334.04 530.45,324.83 530.91,327.47 531.36,324.21 531.82,325.81 532.27,322.98 532.73,323.57 533.18,330.34 533.64,329.38 534.09,319.76 534.55,325.01 535.00,319.86 535.45,325.11 535.91,325.29 536.36,323.81 536.82,336.59 537.27,343.55 537.73,325.75 538.18,319.00 538.64,328.01 539.09,330.77 539.55,328.10 540.00,326.85 540.45,335.78 540.91,329.36 541.36,320.85 541.82,309.96 542.27,336.32 542.73,324.27 543.18,326.88 543.64,330.60 544.09,332.99 544.55,315.27 545.00,322.89 545.45,326.48 545.91,322.06 546.36,329.72 546.82,321.18 547.27,329.39 547.73,331.46 548.18,324.66 548.64,334.76 549.09,333.33 549.55,329.76 550.00,321.66 550.45,327.10 550.91,320.16 551.36,323.33 551.82,325.91 552.27,331.96 552.73,319.51 553.18,327.86 553.64,340.69 554.09,321.37 554.55,329.99 555.00,336.22 555.45,325.29 555.91,330.56 556.36,326.42 556.82,330.40 557.27,332.82 557.73,323.37 558.18,335.34 558.64,332.05 559.09,316.92 559.55,330.30 560.00,333.52 560.45,338.87 560.91,329.48 561.36,327.87 561.82,329.00 562.27,340.37 562.73,329.72 563.18,316.68 563.64,325.17 564.09,333.02 564.55,337.34 565.00,342.76 565.45,341.76 565.91,334.64 566.36,342.33 566.82,339.15 567.27,342.42 567.73,339.40 568.18,331.34 568.64,333.01 569.09,332.47 569.55,337.76 570.00,335.24 570.45,336.26 570.91,326.94 571.36,331.24 571.82,317.33 572.27,324.79 572.73,332.67 573.18,332.72 573.64,329.90 574.09,339.28 574.55,334.12 575.00,318.47 575.45,334.40 575.91,337.35 576.36,337.26 576.82,341.72 577.27,336.29 577.73,330.61 578.18,335.57 578.64,331.49 579.09,338.14 579.55,342.12 580.00,328.27 580.45,337.43 580.91,329.12 581.36,340.80 581.82,334.51 582.27,350.08 582.73,343.49 583.18,330.47 583.64,342.52 584.09,337.66 584.55,339.67 585.00,339.58 585.45,336.16 585.91,342.32 586.36,342.03 586.82,341.50 587.27,345.84 587.73,332.02 588.18,343.49 588.64,334.66 589.09,340.50 589.55,335.82 590.00,340.63 590.45,335.74 590.91,343.39 591.36,346.99 591.82,339.43 592.27,341.33 592.73,346.59 593.18,346.50 593.64,347.48 594.09,347.82 594.55,340.96 595.00,339.81 595.45,348.93 595.91,344.20 596.36,342.21 596.82,346.75 597.27,340.93 597.73,341.15 598.18,350.31 598.64,351.72 599.09,351.97 599.55,353.21 600.00,341.12 600.45,351.41 600.91,350.68 601.36,357.25 601.82,356.60 602.27,358.78 602.73,351.64 603.18,347.54 603.64,346.57 604.09,357.18 604.55,360.00 605.00,346.65 605.45,352.06 605.91,346.31 606.36,347.28 606.82,347.68 607.27,359.30 607.73,348.87 608.18,353.13 608.64,356.78 609.09,355.31 609.55,352.80 610.00,341.75 610.45,340.16 610.91,350.20 611.36,354.70 611.82,349.09 612.27,351.20 612.73,345.34 613.18,341.44 613.64,343.43 614.09,353.94 614.55,350.38 615.00,338.81 615.45,345.76 615.91,343.04 616.36,342.65 616.82,348.16 617.27,341.64 617.73,338.83 618.18,337.80 618.64,338.56 619.09,340.45 619.55,329.40 620.00,336.80 620.45,344.29 620.91,340.59 621.36,346.80 621.82,331.78 622.27,345.25 622.73,347.88 623.18,340.67 623.64,341.46 624.09,337.83 624.55,338.35 625.00,337.76 625.45,347.42 625.91,324.94 626.36,335.96 626.82,332.07 627.27,339.59 627.73,342.13 628.18,350.73 628.64,348.27 629.09,334.63 629.55,340.68 630.00,337.45 630.45,330.24 630.91,330.76 631.36,330.58 631.82,336.45 632.27,330.55 632.73,337.70 633.18,332.33 633.64,330.93 634.09,333.62 634.55,335.07 635.00,319.89 635.45,324.06 635.91,335.76 636.36,330.03 636.82,340.05 637.27,326.90 637.73,328.12 638.18,347.42 638.64,333.54 639.09,331.89 639.55,321.85 640.00,327.70 640.45,334.41 640.91,331.73 641.36,324.12 641.82,321.67 642.27,326.91 642.73,328.56 643.18,325.95 643.64,328.30 644.09,340.44 644.55,326.91 645.00,329.20 645.45,341.53 645.91,328.81 646.36,335.72 646.82,330.34 647.27,322.81 647.73,327.26 648.18,330.52 648.64,332.97 649.09,329.01 649.55,324.64 650.00,322.96 650.45,327.88 650.91,323.90 651.36,337.90 651.82,340.38 652.27,324.43 652.73,333.97 653.18,344.20 653.64,330.81 654.09,322.60 654.55,334.49 655.00,335.85 655.45,324.27 655.91,328.14 656.36,332.16 656.82,320.03 657.27,335.15 657.73,324.27 658.18,336.47 658.64,324.62 659.09,331.60 659.55,333.33 660.00,328.32 660.45,329.32 660.91,331.22 661.36,342.72 661.82,335.83 662.27,327.75 662.73,335.61 663.18,335.49 663.64,330.86 664.09,331.89 664.55,326.70 665.00,345.86 665.45,333.34 665.91,322.92 666.36,326.26 666.82,323.50 667.27,334.67 667.73,328.33 668.18,332.95 668.64,341.56 669.09,344.38 669.55,343.20 670.00,333.84 670.45,336.63 670.91,336.28 671.36,336.20 671.82,325.48 672.27,322.53 672.73,332.45 673.18,322.09 673.64,323.86 674.09,321.47 674.55,322.85 675.00,335.66 675.45,330.06 675.91,321.84 676.36,314.67 676.82,317.70 677.27,318.72 677.73,321.57 678.18,319.23 678.64,327.54 679.09,327.97 679.55,322.79 680.00,319.33 680.45,324.24 680.91,325.37 681.36,317.93 681.82,334.04 682.27,324.59 682.73,315.28 683.18,323.93 683.64,332.29 684.09,320.80 684.55,326.19 685.00,316.53 685.45,343.61 685.91,323.24 686.36,331.25 686.82,326.27 687.27,333.24 687.73,327.24 688.18,337.51 688.64,324.84 689.09,331.99 689.55,320.02 690.00,332.86 690.45,320.56 690.91,332.53 691.36,332.27 691.82,330.37 692.27,319.84 692.73,317.64 693.18,328.37 693.64,326.19 694.09,330.11 694.55,325.83 695.00,327.85 695.45,320.77 695.91,333.82 696.36,332.76 696.82,323.02 697.27,327.21 697.73,337.45 698.18,333.27 698.64,335.96 699.09,328.69 699.55,328.08 700.00,332.13 700.45,331.18 700.91,318.43 701.36,331.39 701.82,332.70 702.27,321.51 702.73,319.43 703.18,322.73 703.64,316.92 704.09,320.57 704.55,321.77 705.00,321.08 705.45,325.27 705.91,333.57 706.36,323.26 706.82,325.36 707.27,327.88 707.73,325.20 708.18,338.44 708.64,338.81 709.09,333.12 709.55,320.62 710.00,319.85 710.45,318.06 710.91,316.62 711.36,326.88 711.82,314.03 712.27,308.00 712.73,317.66 713.18,322.78 713.64,319.15 714.09,329.09 714.55,320.40 715.00,327.26 715.45,314.54 715.91,322.22 716.36,321.71 716.82,327.23 717.27,317.32 717.73,327.00 718.18,315.62 718.64,322.33 719.09,320.64 719.55,315.88 720.00,316.63 720.45,314.78 720.91,318.05 721.36,313.15 721.82,317.04 722.27,323.48 722.73,326.78 723.18,318.10 723.64,328.23 724.09,323.63 724.55,316.39 725.00,321.17 725.45,323.71 725.91,331.91 726.36,325.87 726.82,314.88 727.27,325.15 727.73,324.14 728.18,325.89 728.64,321.58 729.09,321.39 729.55,322.96 730.00,318.96 730.45,333.93 730.91,321.02 731.36,321.87 731.82,320.52 732.27,328.98 732.73,332.11 733.18,331.23 733.64,318.54 734.09,326.64 734.55,329.01 735.00,335.13 735.45,327.11 735.91,325.36 736.36,325.60 736.82,334.69 737.27,342.00 737.73,340.14 738.18,324.53 738.64,325.35 739.09,332.07 739.55,331.92 740.00,324.84" />
</svg>
