<svg xmlns="http://www.w3.org/2000/svg" width="800" height="420">
  <rect x="0" y="0" width="800" height="420" fill="#ffffff" />
  <line x1="60" y1="360" x2="740" y2="360" stroke="#333333" stroke-width="2" />
  <line x1="60" y1="60" x2="60" y2="360" stroke="#333333" stroke-width="2" />
  <text x="400.0" y="30" text-anchor="middle" font-size="22" font-family="Arial">Evaluation Win Ratio</text>
  <text x="400.0" y="405" text-anchor="middle" font-size="16" font-family="Arial">Batch</text>
  <text x="24" y="210.0" text-anchor="middle" font-size="16" font-family="Arial" transform="rotate(-90 24 210.0)">Win Ratio</text>
  <text x="60" y="50" font-size="13" font-family="Arial">1.000</text>
  <text x="60" y="380" font-size="13" font-family="Arial">0.300</text>
  <text x="60" y="395" font-size="13" font-family="Arial">50</text>
  <text x="740" y="395" text-anchor="end" font-size="13" font-family="Arial">1500</text>
  <polyline fill="none" stroke="#16a34a" stroke-width="3" points="60.00,360.00 83.45,360.00 106.90,274.29 130.34,231.43 153.79,145.71 177.24,188.57 200.69,145.71 224.14,145.71 247.59,60.00 271.03,60.00 294.48,145.71 317.93,145.71 341.38,188.57 364.83,167.14 388.28,188.57 411.72,210.00 435.17,102.86 458.62,102.86 482.07,231.43 505.52,145.71 528.97,231.43 552.41,231.43 575.86,274.29 599.31,145.71 622.76,102.86 646.21,274.29 669.66,145.71 693.10,252.86 716.55,188.57 740.00,102.86" />
</svg>
