<svg xmlns="http://www.w3.org/2000/svg" width="800" height="420">
  <rect x="0" y="0" width="800" height="420" fill="#ffffff" />
  <line x1="60" y1="360" x2="740" y2="360" stroke="#333333" stroke-width="2" />
  <line x1="60" y1="60" x2="60" y2="360" stroke="#333333" stroke-width="2" />
  <text x="400.0" y="30" text-anchor="middle" font-size="22" font-family="Arial">Replay Buffer Size</text>
  <text x="400.0" y="405" text-anchor="middle" font-size="16" font-family="Arial">Batch</text>
  <text x="24" y="210.0" text-anchor="middle" font-size="16" font-family="Arial" transform="rotate(-90 24 210.0)">Buffer Size</text>
  <text x="60" y="50" font-size="13" font-family="Arial">10000.000</text>
  <text x="60" y="380" font-size="13" font-family="Arial">168.000</text>
  <text x="60" y="395" font-size="13" font-family="Arial">1</text>
  <text x="740" y="395" text-anchor="end" font-size="13" font-family="Arial">1500</text>
  <polyline fill="none" stroke="#7c3aed" stroke-width="3" points="60.00,360.00 60.45,354.87 60.91,348.77 61.36,343.65 61.81,340.47 62.27,334.86 62.72,330.71 63.18,324.36 63.63,320.46 64.08,316.79 64.54,313.62 64.99,310.69 65.44,308.25 65.90,303.61 66.35,299.71 66.80,296.05 67.26,291.16 67.71,287.50 68.17,283.84 68.62,279.69 69.07,277.01 69.53,273.34 69.98,266.02 70.43,261.87 70.89,258.21 71.34,256.26 71.79,252.60 72.25,246.98 72.70,243.32 73.16,240.15 73.61,236.24 74.06,233.31 74.52,231.11 74.97,229.16 75.42,225.01 75.88,223.06 76.33,220.13 76.78,216.22 77.24,212.07 77.69,208.41 78.15,204.75 78.60,199.87 79.05,196.70 79.51,194.01 79.96,190.35 80.41,186.93 80.87,183.27 81.32,180.34 81.77,176.92 82.23,172.77 82.68,169.85 83.14,166.18 83.59,163.50 84.04,161.06 84.50,157.15 84.95,154.71 85.40,150.32 85.86,147.88 86.31,142.26 86.76,140.55 87.22,136.40 87.67,132.25 88.13,128.10 88.58,124.44 89.03,121.51 89.49,118.58 89.94,114.43 90.39,111.26 90.85,107.60 91.30,104.43 91.75,101.50 92.21,99.06 92.66,94.91 93.12,92.47 93.57,89.78 94.02,87.10 94.48,84.65 94.93,81.48 95.38,78.55 95.84,75.87 96.29,69.28 96.74,65.37 97.20,61.46 97.65,60.00 98.11,60.00 98.56,60.00 99.01,60.00 99.47,60.00 99.92,60.00 100.37,60.00 100.83,60.00 101.28,60.00 101.73,60.00 102.19,60.00 102.64,60.00 103.10,60.00 103.55,60.00 104.00,60.00 104.46,60.00 104.91,60.00 105.36,60.00 105.82,60.00 106.27,60.00 106.72,60.00 107.18,60.00 107.63,60.00 108.09,60.00 108.54,60.00 108.99,60.00 109.45,60.00 109.90,60.00 110.35,60.00 110.81,60.00 111.26,60.00 111.71,60.00 112.17,60.00 112.62,60.00 113.08,60.00 113.53,60.00 113.98,60.00 114.44,60.00 114.89,60.00 115.34,60.00 115.80,60.00 116.25,60.00 116.70,60.00 117.16,60.00 117.61,60.00 118.07,60.00 118.52,60.00 118.97,60.00 119.43,60.00 119.88,60.00 120.33,60.00 120.79,60.00 121.24,60.00 121.69,60.00 122.15,60.00 122.60,60.00 123.06,60.00 123.51,60.00 123.96,60.00 124.42,60.00 124.87,60.00 125.32,60.00 125.78,60.00 126.23,60.00 126.68,60.00 127.14,60.00 127.59,60.00 128.05,60.00 128.50,60.00 128.95,60.00 129.41,60.00 129.86,60.00 130.31,60.00 130.77,60.00 131.22,60.00 131.67,60.00 132.13,60.00 132.58,60.00 133.04,60.00 133.49,60.00 133.94,60.00 134.40,60.00 134.85,60.00 135.30,60.00 135.76,60.00 136.21,60.00 136.66,60.00 137.12,60.00 137.57,60.00 138.03,60.00 138.48,60.00 138.93,60.00 139.39,60.00 139.84,60.00 140.29,60.00 140.75,60.00 141.20,60.00 141.65,60.00 142.11,60.00 142.56,60.00 143.02,60.00 143.47,60.00 143.92,60.00 144.38,60.00 144.83,60.00 145.28,60.00 145.74,60.00 146.19,60.00 146.64,60.00 147.10,60.00 147.55,60.00 148.01,60.00 148.46,60.00 148.91,60.00 149.37,60.00 149.82,60.00 150.27,60.00 150.73,60.00 151.18,60.00 151.63,60.00 152.09,60.00 152.54,60.00 153.00,60.00 153.45,60.00 153.90,60.00 154.36,60.00 154.81,60.00 155.26,60.00 155.72,60.00 156.17,60.00 156.62,60.00 157.08,60.00 157.53,60.00 157.99,60.00 158.44,60.00 158.89,60.00 159.35,60.00 159.80,60.00 160.25,60.00 160.71,60.00 161.16,60.00 161.61,60.00 162.07,60.00 162.52,60.00 162.98,60.00 163.43,60.00 163.88,60.00 164.34,60.00 164.79,60.00 165.24,60.00 165.70,60.00 166.15,60.00 166.60,60.00 167.06,60.00 167.51,60.00 167.97,60.00 168.42,60.00 168.87,60.00 169.33,60.00 169.78,60.00 170.23,60.00 170.69,60.00 171.14,60.00 171.59,60.00 172.05,60.00 172.50,60.00 172.96,60.00 173.41,60.00 173.86,60.00 174.32,60.00 174.77,60.00 175.22,60.00 175.68,60.00 176.13,60.00 176.58,60.00 177.04,60.00 177.49,60.00 177.95,60.00 178.40,60.00 178.85,60.00 179.31,60.00 179.76,60.00 180.21,60.00 180.67,60.00 181.12,60.00 181.57,60.00 182.03,60.00 182.48,60.00 182.94,60.00 183.39,60.00 183.84,60.00 184.30,60.00 184.75,60.00 185.20,60.00 185.66,60.00 186.11,60.00 186.56,60.00 187.02,60.00 187.47,60.00 187.93,60.00 188.38,60.00 188.83,60.00 189.29,60.00 189.74,60.00 190.19,60.00 190.65,60.00 191.10,60.00 191.55,60.00 192.01,60.00 192.46,60.00 192.92,60.00 193.37,60.00 193.82,60.00 194.28,60.00 194.73,60.00 195.18,60.00 195.64,60.00 196.09,60.00 196.54,60.00 197.00,60.00 197.45,60.00 197.91,60.00 198.36,60.00 198.81,60.00 199.27,60.00 199.72,60.00 200.17,60.00 200.63,60.00 201.08,60.00 201.53,60.00 201.99,60.00 202.44,60.00 202.90,60.00 203.35,60.00 203.80,60.00 204.26,60.00 204.71,60.00 205.16,60.00 205.62,60.00 206.07,60.00 206.52,60.00 206.98,60.00 207.43,60.00 207.89,60.00 208.34,60.00 208.79,60.00 209.25,60.00 209.70,60.00 210.15,60.00 210.61,60.00 211.06,60.00 211.51,60.00 211.97,60.00 212.42,60.00 212.88,60.00 213.33,60.00 213.78,60.00 214.24,60.00 214.69,60.00 215.14,60.00 215.60,60.00 216.05,60.00 216.50,60.00 216.96,60.00 217.41,60.00 217.87,60.00 218.32,60.00 218.77,60.00 219.23,60.00 219.68,60.00 220.13,60.00 220.59,60.00 221.04,60.00 221.49,60.00 221.95,60.00 222.40,60.00 222.86,60.00 223.31,60.00 223.76,60.00 224.22,60.00 224.67,60.00 225.12,60.00 225.58,60.00 226.03,60.00 226.48,60.00 226.94,60.00 227.39,60.00 227.85,60.00 228.30,60.00 228.75,60.00 229.21,60.00 229.66,60.00 230.11,60.00 230.57,60.00 231.02,60.00 231.47,60.00 231.93,60.00 232.38,60.00 232.84,60.00 233.29,60.00 233.74,60.00 234.20,60.00 234.65,60.00 235.10,60.00 235.56,60.00 236.01,60.00 236.46,60.00 236.92,60.00 237.37,60.00 237.83,60.00 238.28,60.00 238.73,60.00 239.19,60.00 239.64,60.00 240.09,60.00 240.55,60.00 241.00,60.00 241.45,60.00 241.91,60.00 242.36,60.00 242.82,60.00 243.27,60.00 243.72,60.00 244.18,60.00 244.63,60.00 245.08,60.00 245.54,60.00 245.99,60.00 246.44,60.00 246.90,60.00 247.35,60.00 247.81,60.00 248.26,60.00 248.71,60.00 249.17,60.00 249.62,60.00 250.07,60.00 250.53,60.00 250.98,60.00 251.43,60.00 251.89,60.00 252.34,60.00 252.80,60.00 253.25,60.00 253.70,60.00 254.16,60.00 254.61,60.00 255.06,60.00 255.52,60.00 255.97,60.00 256.42,60.00 256.88,60.00 257.33,60.00 257.79,60.00 258.24,60.00 258.69,60.00 259.15,60.00 259.60,60.00 260.05,60.00 260.51,60.00 260.96,60.00 261.41,60.00 261.87,60.00 262.32,60.00 262.78,60.00 263.23,60.00 263.68,60.00 264.14,60.00 264.59,60.00 265.04,60.00 265.50,60.00 265.95,60.00 266.40,60.00 266.86,60.00 267.31,60.00 267.77,60.00 268.22,60.00 268.67,60.00 269.13,60.00 269.58,60.00 270.03,60.00 270.49,60.00 270.94,60.00 271.39,60.00 271.85,60.00 272.30,60.00 272.76,60.00 273.21,60.00 273.66,60.00 274.12,60.00 274.57,60.00 275.02,60.00 275.48,60.00 275.93,60.00 276.38,60.00 276.84,60.00 277.29,60.00 277.75,60.00 278.20,60.00 278.65,60.00 279.11,60.00 279.56,60.00 280.01,60.00 280.47,60.00 280.92,60.00 281.37,60.00 281.83,60.00 282.28,60.00 282.74,60.00 283.19,60.00 283.64,60.00 284.10,60.00 284.55,60.00 285.00,60.00 285.46,60.00 285.91,60.00 286.36,60.00 286.82,60.00 287.27,60.00 287.73,60.00 288.18,60.00 288.63,60.00 289.09,60.00 289.54,60.00 289.99,60.00 290.45,60.00 290.90,60.00 291.35,60.00 291.81,60.00 292.26,60.00 292.72,60.00 293.17,60.00 293.62,60.00 294.08,60.00 294.53,60.00 294.98,60.00 295.44,60.00 295.89,60.00 296.34,60.00 296.80,60.00 297.25,60.00 297.71,60.00 298.16,60.00 298.61,60.00 299.07,60.00 299.52,60.00 299.97,60.00 300.43,60.00 300.88,60.00 301.33,60.00 301.79,60.00 302.24,60.00 302.70,60.00 303.15,60.00 303.60,60.00 304.06,60.00 304.51,60.00 304.96,60.00 305.42,60.00 305.87,60.00 306.32,60.00 306.78,60.00 307.23,60.00 307.69,60.00 308.14,60.00 308.59,60.00 309.05,60.00 309.50,60.00 309.95,60.00 310.41,60.00 310.86,60.00 311.31,60.00 311.77,60.00 312.22,60.00 312.68,60.00 313.13,60.00 313.58,60.00 314.04,60.00 314.49,60.00 314.94,60.00 315.40,60.00 315.85,60.00 316.30,60.00 316.76,60.00 317.21,60.00 317.67,60.00 318.12,60.00 318.57,60.00 319.03,60.00 319.48,60.00 319.93,60.00 320.39,60.00 320.84,60.00 321.29,60.00 321.75,60.00 322.20,60.00 322.66,60.00 323.11,60.00 323.56,60.00 324.02,60.00 324.47,60.00 324.92,60.00 325.38,60.00 325.83,60.00 326.28,60.00 326.74,60.00 327.19,60.00 327.65,60.00 328.10,60.00 328.55,60.00 329.01,60.00 329.46,60.00 329.91,60.00 330.37,60.00 330.82,60.00 331.27,60.00 331.73,60.00 332.18,60.00 332.64,60.00 333.09,60.00 333.54,60.00 334.00,60.00 334.45,60.00 334.90,60.00 335.36,60.00 335.81,60.00 336.26,60.00 336.72,60.00 337.17,60.00 337.63,60.00 338.08,60.00 338.53,60.00 338.99,60.00 339.44,60.00 339.89,60.00 340.35,60.00 340.80,60.00 341.25,60.00 341.71,60.00 342.16,60.00 342.62,60.00 343.07,60.00 343.52,60.00 343.98,60.00 344.43,60.00 344.88,60.00 345.34,60.00 345.79,60.00 346.24,60.00 346.70,60.00 347.15,60.00 347.61,60.00 348.06,60.00 348.51,60.00 348.97,60.00 349.42,60.00 349.87,60.00 350.33,60.00 350.78,60.00 351.23,60.00 351.69,60.00 352.14,60.00 352.60,60.00 353.05,60.00 353.50,60.00 353.96,60.00 354.41,60.00 354.86,60.00 355.32,60.00 355.77,60.00 356.22,60.00 356.68,60.00 357.13,60.00 357.59,60.00 358.04,60.00 358.49,60.00 358.95,60.00 359.40,60.00 359.85,60.00 360.31,60.00 360.76,60.00 361.21,60.00 361.67,60.00 362.12,60.00 362.58,60.00 363.03,60.00 363.48,60.00 363.94,60.00 364.39,60.00 364.84,60.00 365.30,60.00 365.75,60.00 366.20,60.00 366.66,60.00 367.11,60.00 367.57,60.00 368.02,60.00 368.47,60.00 368.93,60.00 369.38,60.00 369.83,60.00 370.29,60.00 370.74,60.00 371.19,60.00 371.65,60.00 372.10,60.00 372.56,60.00 373.01,60.00 373.46,60.00 373.92,60.00 374.37,60.00 374.82,60.00 375.28,60.00 375.73,60.00 376.18,60.00 376.64,60.00 377.09,60.00 377.55,60.00 378.00,60.00 378.45,60.00 378.91,60.00 379.36,60.00 379.81,60.00 380.27,60.00 380.72,60.00 381.17,60.00 381.63,60.00 382.08,60.00 382.54,60.00 382.99,60.00 383.44,60.00 383.90,60.00 384.35,60.00 384.80,60.00 385.26,60.00 385.71,60.00 386.16,60.00 386.62,60.00 387.07,60.00 387.53,60.00 387.98,60.00 388.43,60.00 388.89,60.00 389.34,60.00 389.79,60.00 390.25,60.00 390.70,60.00 391.15,60.00 391.61,60.00 392.06,60.00 392.52,60.00 392.97,60.00 393.42,60.00 393.88,60.00 394.33,60.00 394.78,60.00 395.24,60.00 395.69,60.00 396.14,60.00 396.60,60.00 397.05,60.00 397.51,60.00 397.96,60.00 398.41,60.00 398.87,60.00 399.32,60.00 399.77,60.00 400.23,60.00 400.68,60.00 401.13,60.00 401.59,60.00 402.04,60.00 402.49,60.00 402.95,60.00 403.40,60.00 403.86,60.00 404.31,60.00 404.76,60.00 405.22,60.00 405.67,60.00 406.12,60.00 406.58,60.00 407.03,60.00 407.48,60.00 407.94,60.00 408.39,60.00 408.85,60.00 409.30,60.00 409.75,60.00 410.21,60.00 410.66,60.00 411.11,60.00 411.57,60.00 412.02,60.00 412.47,60.00 412.93,60.00 413.38,60.00 413.84,60.00 414.29,60.00 414.74,60.00 415.20,60.00 415.65,60.00 416.10,60.00 416.56,60.00 417.01,60.00 417.46,60.00 417.92,60.00 418.37,60.00 418.83,60.00 419.28,60.00 419.73,60.00 420.19,60.00 420.64,60.00 421.09,60.00 421.55,60.00 422.00,60.00 422.45,60.00 422.91,60.00 423.36,60.00 423.82,60.00 424.27,60.00 424.72,60.00 425.18,60.00 425.63,60.00 426.08,60.00 426.54,60.00 426.99,60.00 427.44,60.00 427.90,60.00 428.35,60.00 428.81,60.00 429.26,60.00 429.71,60.00 430.17,60.00 430.62,60.00 431.07,60.00 431.53,60.00 431.98,60.00 432.43,60.00 432.89,60.00 433.34,60.00 433.80,60.00 434.25,60.00 434.70,60.00 435.16,60.00 435.61,60.00 436.06,60.00 436.52,60.00 436.97,60.00 437.42,60.00 437.88,60.00 438.33,60.00 438.79,60.00 439.24,60.00 439.69,60.00 440.15,60.00 440.60,60.00 441.05,60.00 441.51,60.00 441.96,60.00 442.41,60.00 442.87,60.00 443.32,60.00 443.78,60.00 444.23,60.00 444.68,60.00 445.14,60.00 445.59,60.00 446.04,60.00 446.50,60.00 446.95,60.00 447.40,60.00 447.86,60.00 448.31,60.00 448.77,60.00 449.22,60.00 449.67,60.00 450.13,60.00 450.58,60.00 451.03,60.00 451.49,60.00 451.94,60.00 452.39,60.00 452.85,60.00 453.30,60.00 453.76,60.00 454.21,60.00 454.66,60.00 455.12,60.00 455.57,60.00 456.02,60.00 456.48,60.00 456.93,60.00 457.38,60.00 457.84,60.00 458.29,60.00 458.75,60.00 459.20,60.00 459.65,60.00 460.11,60.00 460.56,60.00 461.01,60.00 461.47,60.00 461.92,60.00 462.37,60.00 462.83,60.00 463.28,60.00 463.74,60.00 464.19,60.00 464.64,60.00 465.10,60.00 465.55,60.00 466.00,60.00 466.46,60.00 466.91,60.00 467.36,60.00 467.82,60.00 468.27,60.00 468.73,60.00 469.18,60.00 469.63,60.00 470.09,60.00 470.54,60.00 470.99,60.00 471.45,60.00 471.90,60.00 472.35,60.00 472.81,60.00 473.26,60.00 473.72,60.00 474.17,60.00 474.62,60.00 475.08,60.00 475.53,60.00 475.98,60.00 476.44,60.00 476.89,60.00 477.34,60.00 477.80,60.00 478.25,60.00 478.71,60.00 479.16,60.00 479.61,60.00 480.07,60.00 480.52,60.00 480.97,60.00 481.43,60.00 481.88,60.00 482.33,60.00 482.79,60.00 483.24,60.00 483.70,60.00 484.15,60.00 484.60,60.00 485.06,60.00 485.51,60.00 485.96,60.00 486.42,60.00 486.87,60.00 487.32,60.00 487.78,60.00 488.23,60.00 488.69,60.00 489.14,60.00 489.59,60.00 490.05,60.00 490.50,60.00 490.95,60.00 491.41,60.00 491.86,60.00 492.31,60.00 492.77,60.00 493.22,60.00 493.68,60.00 494.13,60.00 494.58,60.00 495.04,60.00 495.49,60.00 495.94,60.00 496.40,60.00 496.85,60.00 497.30,60.00 497.76,60.00 498.21,60.00 498.67,60.00 499.12,60.00 499.57,60.00 500.03,60.00 500.48,60.00 500.93,60.00 501.39,60.00 501.84,60.00 502.29,60.00 502.75,60.00 503.20,60.00 503.66,60.00 504.11,60.00 504.56,60.00 505.02,60.00 505.47,60.00 505.92,60.00 506.38,60.00 506.83,60.00 507.28,60.00 507.74,60.00 508.19,60.00 508.65,60.00 509.10,60.00 509.55,60.00 510.01,60.00 510.46,60.00 510.91,60.00 511.37,60.00 511.82,60.00 512.27,60.00 512.73,60.00 513.18,60.00 513.64,60.00 514.09,60.00 514.54,60.00 515.00,60.00 515.45,60.00 515.90,60.00 516.36,60.00 516.81,60.00 517.26,60.00 517.72,60.00 518.17,60.00 518.63,60.00 519.08,60.00 519.53,60.00 519.99,60.00 520.44,60.00 520.89,60.00 521.35,60.00 521.80,60.00 522.25,60.00 522.71,60.00 523.16,60.00 523.62,60.00 524.07,60.00 524.52,60.00 524.98,60.00 525.43,60.00 525.88,60.00 526.34,60.00 526.79,60.00 527.24,60.00 527.70,60.00 528.15,60.00 528.61,60.00 529.06,60.00 529.51,60.00 529.97,60.00 530.42,60.00 530.87,60.00 531.33,60.00 531.78,60.00 532.23,60.00 532.69,60.00 533.14,60.00 533.60,60.00 534.05,60.00 534.50,60.00 534.96,60.00 535.41,60.00 535.86,60.00 536.32,60.00 536.77,60.00 537.22,60.00 537.68,60.00 538.13,60.00 538.59,60.00 539.04,60.00 539.49,60.00 539.95,60.00 540.40,60.00 540.85,60.00 541.31,60.00 541.76,60.00 542.21,60.00 542.67,60.00 543.12,60.00 543.58,60.00 544.03,60.00 544.48,60.00 544.94,60.00 545.39,60.00 545.84,60.00 546.30,60.00 546.75,60.00 547.20,60.00 547.66,60.00 548.11,60.00 548.57,60.00 549.02,60.00 549.47,60.00 549.93,60.00 550.38,60.00 550.83,60.00 551.29,60.00 551.74,60.00 552.19,60.00 552.65,60.00 553.10,60.00 553.56,60.00 554.01,60.00 554.46,60.00 554.92,60.00 555.37,60.00 555.82,60.00 556.28,60.00 556.73,60.00 557.18,60.00 557.64,60.00 558.09,60.00 558.55,60.00 559.00,60.00 559.45,60.00 559.91,60.00 560.36,60.00 560.81,60.00 561.27,60.00 561.72,60.00 562.17,60.00 562.63,60.00 563.08,60.00 563.54,60.00 563.99,60.00 564.44,60.00 564.90,60.00 565.35,60.00 565.80,60.00 566.26,60.00 566.71,60.00 567.16,60.00 567.62,60.00 568.07,60.00 568.53,60.00 568.98,60.00 569.43,60.00 569.89,60.00 570.34,60.00 570.79,60.00 571.25,60.00 571.70,60.00 572.15,60.00 572.61,60.00 573.06,60.00 573.52,60.00 573.97,60.00 574.42,60.00 574.88,60.00 575.33,60.00 575.78,60.00 576.24,60.00 576.69,60.00 577.14,60.00 577.60,60.00 578.05,60.00 578.51,60.00 578.96,60.00 579.41,60.00 579.87,60.00 580.32,60.00 580.77,60.00 581.23,60.00 581.68,60.00 582.13,60.00 582.59,60.00 583.04,60.00 583.50,60.00 583.95,60.00 584.40,60.00 584.86,60.00 585.31,60.00 585.76,60.00 586.22,60.00 586.67,60.00 587.12,60.00 587.58,60.00 588.03,60.00 588.49,60.00 588.94,60.00 589.39,60.00 589.85,60.00 590.30,60.00 590.75,60.00 591.21,60.00 591.66,60.00 592.11,60.00 592.57,60.00 593.02,60.00 593.48,60.00 593.93,60.00 594.38,60.00 594.84,60.00 595.29,60.00 595.74,60.00 596.20,60.00 596.65,60.00 597.10,60.00 597.56,60.00 598.01,60.00 598.47,60.00 598.92,60.00 599.37,60.00 599.83,60.00 600.28,60.00 600.73,60.00 601.19,60.00 601.64,60.00 602.09,60.00 602.55,60.00 603.00,60.00 603.46,60.00 603.91,60.00 604.36,60.00 604.82,60.00 605.27,60.00 605.72,60.00 606.18,60.00 606.63,60.00 607.08,60.00 607.54,60.00 607.99,60.00 608.45,60.00 608.90,60.00 609.35,60.00 609.81,60.00 610.26,60.00 610.71,60.00 611.17,60.00 611.62,60.00 612.07,60.00 612.53,60.00 612.98,60.00 613.44,60.00 613.89,60.00 614.34,60.00 614.80,60.00 615.25,60.00 615.70,60.00 616.16,60.00 616.61,60.00 617.06,60.00 617.52,60.00 617.97,60.00 618.43,60.00 618.88,60.00 619.33,60.00 619.79,60.00 620.24,60.00 620.69,60.00 621.15,60.00 621.60,60.00 622.05,60.00 622.51,60.00 622.96,60.00 623.42,60.00 623.87,60.00 624.32,60.00 624.78,60.00 625.23,60.00 625.68,60.00 626.14,60.00 626.59,60.00 627.04,60.00 627.50,60.00 627.95,60.00 628.41,60.00 628.86,60.00 629.31,60.00 629.77,60.00 630.22,60.00 630.67,60.00 631.13,60.00 631.58,60.00 632.03,60.00 632.49,60.00 632.94,60.00 633.40,60.00 633.85,60.00 634.30,60.00 634.76,60.00 635.21,60.00 635.66,60.00 636.12,60.00 636.57,60.00 637.02,60.00 637.48,60.00 637.93,60.00 638.39,60.00 638.84,60.00 639.29,60.00 639.75,60.00 640.20,60.00 640.65,60.00 641.11,60.00 641.56,60.00 642.01,60.00 642.47,60.00 642.92,60.00 643.38,60.00 643.83,60.00 644.28,60.00 644.74,60.00 645.19,60.00 645.64,60.00 646.10,60.00 646.55,60.00 647.00,60.00 647.46,60.00 647.91,60.00 648.37,60.00 648.82,60.00 649.27,60.00 649.73,60.00 650.18,60.00 650.63,60.00 651.09,60.00 651.54,60.00 651.99,60.00 652.45,60.00 652.90,60.00 653.36,60.00 653.81,60.00 654.26,60.00 654.72,60.00 655.17,60.00 655.62,60.00 656.08,60.00 656.53,60.00 656.98,60.00 657.44,60.00 657.89,60.00 658.35,60.00 658.80,60.00 659.25,60.00 659.71,60.00 660.16,60.00 660.61,60.00 661.07,60.00 661.52,60.00 661.97,60.00 662.43,60.00 662.88,60.00 663.34,60.00 663.79,60.00 664.24,60.00 664.70,60.00 665.15,60.00 665.60,60.00 666.06,60.00 666.51,60.00 666.96,60.00 667.42,60.00 667.87,60.00 668.33,60.00 668.78,60.00 669.23,60.00 669.69,60.00 670.14,60.00 670.59,60.00 671.05,60.00 671.50,60.00 671.95,60.00 672.41,60.00 672.86,60.00 673.32,60.00 673.77,60.00 674.22,60.00 674.68,60.00 675.13,60.00 675.58,60.00 676.04,60.00 676.49,60.00 676.94,60.00 677.40,60.00 677.85,60.00 678.31,60.00 678.76,60.00 679.21,60.00 679.67,60.00 680.12,60.00 680.57,60.00 681.03,60.00 681.48,60.00 681.93,60.00 682.39,60.00 682.84,60.00 683.30,60.00 683.75,60.00 684.20,60.00 684.66,60.00 685.11,60.00 685.56,60.00 686.02,60.00 686.47,60.00 686.92,60.00 687.38,60.00 687.83,60.00 688.29,60.00 688.74,60.00 689.19,60.00 689.65,60.00 690.10,60.00 690.55,60.00 691.01,60.00 691.46,60.00 691.91,60.00 692.37,60.00 692.82,60.00 693.28,60.00 693.73,60.00 694.18,60.00 694.64,60.00 695.09,60.00 695.54,60.00 696.00,60.00 696.45,60.00 696.90,60.00 697.36,60.00 697.81,60.00 698.27,60.00 698.72,60.00 699.17,60.00 699.63,60.00 700.08,60.00 700.53,60.00 700.99,60.00 701.44,60.00 701.89,60.00 702.35,60.00 702.80,60.00 703.26,60.00 703.71,60.00 704.16,60.00 704.62,60.00 705.07,60.00 705.52,60.00 705.98,60.00 706.43,60.00 706.88,60.00 707.34,60.00 707.79,60.00 708.25,60.00 708.70,60.00 709.15,60.00 709.61,60.00 710.06,60.00 710.51,60.00 710.97,60.00 711.42,60.00 711.87,60.00 712.33,60.00 712.78,60.00 713.24,60.00 713.69,60.00 714.14,60.00 714.60,60.00 715.05,60.00 715.50,60.00 715.96,60.00 716.41,60.00 716.86,60.00 717.32,60.00 717.77,60.00 718.23,60.00 718.68,60.00 719.13,60.00 719.59,60.00 720.04,60.00 720.49,60.00 720.95,60.00 721.40,60.00 721.85,60.00 722.31,60.00 722.76,60.00 723.22,60.00 723.67,60.00 724.12,60.00 724.58,60.00 725.03,60.00 725.48,60.00 725.94,60.00 726.39,60.00 726.84,60.00 727.30,60.00 727.75,60.00 728.21,60.00 728.66,60.00 729.11,60.00 729.57,60.00 730.02,60.00 730.47,60.00 730.93,60.00 731.38,60.00 731.83,60.00 732.29,60.00 732.74,60.00 733.20,60.00 733.65,60.00 734.10,60.00 734.56,60.00 735.01,60.00 735.46,60.00 735.92,60.00 736.37,60.00 736.82,60.00 737.28,60.00 737.73,60.00 738.19,60.00 738.64,60.00 739.09,60.00 739.55,60.00 740.00,60.00" />
</svg>
