<svg xmlns="http://www.w3.org/2000/svg" width="800" height="420">
  <rect x="0" y="0" width="800" height="420" fill="#ffffff" />
  <line x1="60" y1="360" x2="740" y2="360" stroke="#333333" stroke-width="2" />
  <line x1="60" y1="60" x2="60" y2="360" stroke="#333333" stroke-width="2" />
  <text x="400.0" y="30" text-anchor="middle" font-size="22" font-family="Arial">Effective Learning Rate</text>
  <text x="400.0" y="405" text-anchor="middle" font-size="16" font-family="Arial">Batch</text>
  <text x="24" y="210.0" text-anchor="middle" font-size="16" font-family="Arial" transform="rotate(-90 24 210.0)">Learning Rate</text>
  <text x="60" y="50" font-size="13" font-family="Arial">0.002</text>
  <text x="60" y="380" font-size="13" font-family="Arial">0.000</text>
  <text x="60" y="395" font-size="13" font-family="Arial">3</text>
  <text x="740" y="395" text-anchor="end" font-size="13" font-family="Arial">1500</text>
  <polyline fill="none" stroke="#0891b2" stroke-width="3" points="60.00,60.00 60.45,169.62 60.91,242.71 61.36,242.71 61.82,242.71 62.27,169.62 62.73,169.62 63.18,60.00 63.63,60.00 64.09,169.62 64.54,242.71 65.00,242.71 65.45,242.71 65.91,242.71 66.36,242.71 66.81,242.71 67.27,242.71 67.72,242.71 68.18,242.71 68.63,242.71 69.08,242.71 69.54,242.71 69.99,242.71 70.45,242.71 70.90,242.71 71.36,242.71 71.81,242.71 72.26,242.71 72.72,242.71 73.17,291.43 73.63,291.43 74.08,291.43 74.54,291.43 74.99,323.91 75.44,345.56 75.90,345.56 76.35,345.56 76.81,345.56 77.26,323.91 77.72,323.91 78.17,323.91 78.62,323.91 79.08,323.91 79.53,323.91 79.99,323.91 80.44,323.91 80.90,323.91 81.35,323.91 81.80,323.91 82.26,323.91 82.71,323.91 83.17,323.91 83.62,323.91 84.07,323.91 84.53,323.91 84.98,345.56 85.44,345.56 85.89,345.56 86.35,345.56 86.80,345.56 87.25,345.56 87.71,345.56 88.16,345.56 88.62,345.56 89.07,345.56 89.53,345.56 89.98,345.56 90.43,345.56 90.89,345.56 91.34,345.56 91.80,345.56 92.25,345.56 92.71,345.56 93.16,345.56 93.61,345.56 94.07,345.56 94.52,345.56 94.98,345.56 95.43,345.56 95.89,345.56 96.34,345.56 96.79,345.56 97.25,345.56 97.70,345.56 98.16,345.56 98.61,345.56 99.06,345.56 99.52,345.56 99.97,345.56 100.43,345.56 100.88,345.56 101.34,345.56 101.79,345.56 102.24,345.56 102.70,345.56 103.15,345.56 103.61,345.56 104.06,345.56 104.52,345.56 104.97,323.91 105.42,323.91 105.88,345.56 106.33,345.56 106.79,345.56 107.24,345.56 107.70,345.56 108.15,345.56 108.60,345.56 109.06,345.56 109.51,345.56 109.97,345.56 110.42,345.56 110.88,345.56 111.33,345.56 111.78,345.56 112.24,345.56 112.69,345.56 113.15,345.56 113.60,345.56 114.05,345.56 114.51,345.56 114.96,345.56 115.42,345.56 115.87,345.56 116.33,345.56 116.78,345.56 117.23,345.56 117.69,345.56 118.14,345.56 118.60,345.56 119.05,345.56 119.51,345.56 119.96,345.56 120.41,345.56 120.87,345.56 121.32,345.56 121.78,345.56 122.23,345.56 122.69,345.56 123.14,345.56 123.59,345.56 124.05,345.56 124.50,345.56 124.96,345.56 125.41,345.56 125.87,360.00 126.32,360.00 126.77,360.00 127.23,360.00 127.68,360.00 128.14,360.00 128.59,360.00 129.04,360.00 129.50,345.56 129.95,345.56 130.41,345.56 130.86,345.56 131.32,345.56 131.77,360.00 132.22,345.56 132.68,345.56 133.13,345.56 133.59,345.56 134.04,345.56 134.50,345.56 134.95,345.56 135.40,345.56 135.86,345.56 136.31,345.56 136.77,360.00 137.22,360.00 137.68,360.00 138.13,360.00 138.58,360.00 139.04,345.56 139.49,345.56 139.95,345.56 140.40,345.56 140.86,345.56 141.31,345.56 141.76,345.56 142.22,345.56 142.67,345.56 143.13,345.56 143.58,345.56 144.03,345.56 144.49,345.56 144.94,345.56 145.40,345.56 145.85,345.56 146.31,345.56 146.76,345.56 147.21,345.56 147.67,345.56 148.12,345.56 148.58,345.56 149.03,345.56 149.49,345.56 149.94,345.56 150.39,345.56 150.85,345.56 151.30,345.56 151.76,345.56 152.21,345.56 152.67,345.56 153.12,345.56 153.57,345.56 154.03,345.56 154.48,345.56 154.94,345.56 155.39,345.56 155.85,345.56 156.30,345.56 156.75,345.56 157.21,345.56 157.66,345.56 158.12,345.56 158.57,345.56 159.02,360.00 159.48,360.00 159.93,360.00 160.39,360.00 160.84,360.00 161.30,360.00 161.75,360.00 162.20,360.00 162.66,360.00 163.11,345.56 163.57,345.56 164.02,345.56 164.48,345.56 164.93,345.56 165.38,345.56 165.84,345.56 166.29,345.56 166.75,345.56 167.20,345.56 167.66,345.56 168.11,345.56 168.56,345.56 169.02,345.56 169.47,345.56 169.93,360.00 170.38,360.00 170.84,360.00 171.29,360.00 171.74,360.00 172.20,360.00 172.65,360.00 173.11,360.00 173.56,360.00 174.01,345.56 174.47,345.56 174.92,345.56 175.38,345.56 175.83,345.56 176.29,345.56 176.74,345.56 177.19,345.56 177.65,345.56 178.10,345.56 178.56,345.56 179.01,345.56 179.47,345.56 179.92,345.56 180.37,345.56 180.83,345.56 181.28,345.56 181.74,345.56 182.19,360.00 182.65,360.00 183.10,360.00 183.55,360.00 184.01,360.00 184.46,360.00 184.92,360.00 185.37,360.00 185.82,360.00 186.28,360.00 186.73,360.00 187.19,360.00 187.64,360.00 188.10,360.00 188.55,360.00 189.00,360.00 189.46,360.00 189.91,360.00 190.37,360.00 190.82,360.00 191.28,360.00 191.73,360.00 192.18,360.00 192.64,360.00 193.09,360.00 193.55,360.00 194.00,360.00 194.46,360.00 194.91,360.00 195.36,360.00 195.82,360.00 196.27,360.00 196.73,360.00 197.18,360.00 197.64,360.00 198.09,360.00 198.54,360.00 199.00,360.00 199.45,360.00 199.91,360.00 200.36,360.00 200.81,345.56 201.27,345.56 201.72,345.56 202.18,360.00 202.63,360.00 203.09,360.00 203.54,360.00 203.99,360.00 204.45,360.00 204.90,360.00 205.36,360.00 205.81,360.00 206.27,360.00 206.72,360.00 207.17,360.00 207.63,360.00 208.08,360.00 208.54,360.00 208.99,360.00 209.45,360.00 209.90,360.00 210.35,360.00 210.81,360.00 211.26,360.00 211.72,360.00 212.17,360.00 212.63,360.00 213.08,360.00 213.53,360.00 213.99,360.00 214.44,360.00 214.90,360.00 215.35,360.00 215.80,360.00 216.26,360.00 216.71,360.00 217.17,360.00 217.62,360.00 218.08,360.00 218.53,360.00 218.98,360.00 219.44,360.00 219.89,360.00 220.35,360.00 220.80,360.00 221.26,360.00 221.71,360.00 222.16,360.00 222.62,360.00 223.07,360.00 223.53,360.00 223.98,360.00 224.44,360.00 224.89,360.00 225.34,360.00 225.80,360.00 226.25,360.00 226.71,360.00 227.16,360.00 227.62,360.00 228.07,360.00 228.52,360.00 228.98,360.00 229.43,360.00 229.89,360.00 230.34,360.00 230.79,360.00 231.25,360.00 231.70,360.00 232.16,360.00 232.61,360.00 233.07,360.00 233.52,360.00 233.97,360.00 234.43,360.00 234.88,360.00 235.34,360.00 235.79,360.00 236.25,360.00 236.70,360.00 237.15,360.00 237.61,360.00 238.06,360.00 238.52,360.00 238.97,360.00 239.43,360.00 239.88,360.00 240.33,360.00 240.79,360.00 241.24,360.00 241.70,360.00 242.15,360.00 242.61,360.00 243.06,360.00 243.51,360.00 243.97,360.00 244.42,360.00 244.88,360.00 245.33,360.00 245.78,360.00 246.24,360.00 246.69,360.00 247.15,360.00 247.60,360.00 248.06,360.00 248.51,360.00 248.96,360.00 249.42,360.00 249.87,360.00 250.33,360.00 250.78,360.00 251.24,360.00 251.69,360.00 252.14,360.00 252.60,360.00 253.05,345.56 253.51,345.56 253.96,345.56 254.42,345.56 254.87,360.00 255.32,360.00 255.78,360.00 256.23,360.00 256.69,360.00 257.14,360.00 257.60,360.00 258.05,360.00 258.50,360.00 258.96,360.00 259.41,360.00 259.87,360.00 260.32,360.00 260.77,360.00 261.23,360.00 261.68,360.00 262.14,360.00 262.59,360.00 263.05,360.00 263.50,360.00 263.95,360.00 264.41,360.00 264.86,360.00 265.32,360.00 265.77,360.00 266.23,360.00 266.68,360.00 267.13,360.00 267.59,360.00 268.04,360.00 268.50,360.00 268.95,360.00 269.41,360.00 269.86,360.00 270.31,360.00 270.77,360.00 271.22,360.00 271.68,360.00 272.13,360.00 272.59,345.56 273.04,345.56 273.49,345.56 273.95,345.56 274.40,345.56 274.86,345.56 275.31,345.56 275.76,345.56 276.22,345.56 276.67,345.56 277.13,345.56 277.58,360.00 278.04,360.00 278.49,360.00 278.94,360.00 279.40,360.00 279.85,360.00 280.31,360.00 280.76,360.00 281.22,360.00 281.67,360.00 282.12,360.00 282.58,345.56 283.03,345.56 283.49,345.56 283.94,345.56 284.40,345.56 284.85,345.56 285.30,345.56 285.76,345.56 286.21,345.56 286.67,345.56 287.12,345.56 287.58,345.56 288.03,345.56 288.48,345.56 288.94,345.56 289.39,345.56 289.85,345.56 290.30,345.56 290.75,345.56 291.21,345.56 291.66,345.56 292.12,345.56 292.57,345.56 293.03,360.00 293.48,360.00 293.93,360.00 294.39,360.00 294.84,360.00 295.30,360.00 295.75,360.00 296.21,360.00 296.66,360.00 297.11,360.00 297.57,360.00 298.02,360.00 298.48,360.00 298.93,360.00 299.39,360.00 299.84,360.00 300.29,360.00 300.75,360.00 301.20,360.00 301.66,360.00 302.11,360.00 302.57,360.00 303.02,360.00 303.47,360.00 303.93,360.00 304.38,360.00 304.84,360.00 305.29,360.00 305.74,360.00 306.20,360.00 306.65,360.00 307.11,360.00 307.56,360.00 308.02,360.00 308.47,360.00 308.92,360.00 309.38,360.00 309.83,360.00 310.29,360.00 310.74,360.00 311.20,360.00 311.65,360.00 312.10,360.00 312.56,360.00 313.01,360.00 313.47,360.00 313.92,360.00 314.38,360.00 314.83,360.00 315.28,360.00 315.74,360.00 316.19,360.00 316.65,360.00 317.10,360.00 317.56,360.00 318.01,360.00 318.46,360.00 318.92,360.00 319.37,360.00 319.83,360.00 320.28,360.00 320.73,360.00 321.19,360.00 321.64,360.00 322.10,360.00 322.55,360.00 323.01,360.00 323.46,360.00 323.91,360.00 324.37,360.00 324.82,360.00 325.28,360.00 325.73,360.00 326.19,345.56 326.64,345.56 327.09,345.56 327.55,345.56 328.00,345.56 328.46,345.56 328.91,345.56 329.37,345.56 329.82,345.56 330.27,345.56 330.73,345.56 331.18,345.56 331.64,345.56 332.09,345.56 332.55,345.56 333.00,345.56 333.45,345.56 333.91,345.56 334.36,345.56 334.82,345.56 335.27,345.56 335.72,345.56 336.18,345.56 336.63,345.56 337.09,345.56 337.54,360.00 338.00,360.00 338.45,360.00 338.90,360.00 339.36,360.00 339.81,345.56 340.27,345.56 340.72,345.56 341.18,345.56 341.63,345.56 342.08,345.56 342.54,345.56 342.99,360.00 343.45,360.00 343.90,360.00 344.36,360.00 344.81,360.00 345.26,360.00 345.72,360.00 346.17,360.00 346.63,360.00 347.08,360.00 347.54,360.00 347.99,360.00 348.44,360.00 348.90,360.00 349.35,360.00 349.81,360.00 350.26,360.00 350.71,360.00 351.17,360.00 351.62,360.00 352.08,360.00 352.53,360.00 352.99,360.00 353.44,360.00 353.89,345.56 354.35,345.56 354.80,345.56 355.26,345.56 355.71,345.56 356.17,345.56 356.62,345.56 357.07,345.56 357.53,345.56 357.98,345.56 358.44,345.56 358.89,345.56 359.35,345.56 359.80,345.56 360.25,345.56 360.71,360.00 361.16,360.00 361.62,360.00 362.07,360.00 362.53,345.56 362.98,345.56 363.43,345.56 363.89,345.56 364.34,345.56 364.80,345.56 365.25,345.56 365.70,345.56 366.16,345.56 366.61,345.56 367.07,345.56 367.52,345.56 367.98,345.56 368.43,345.56 368.88,345.56 369.34,360.00 369.79,360.00 370.25,360.00 370.70,360.00 371.16,360.00 371.61,360.00 372.06,345.56 372.52,345.56 372.97,345.56 373.43,345.56 373.88,345.56 374.34,345.56 374.79,345.56 375.24,345.56 375.70,345.56 376.15,345.56 376.61,345.56 377.06,345.56 377.52,345.56 377.97,345.56 378.42,345.56 378.88,345.56 379.33,345.56 379.79,345.56 380.24,345.56 380.69,345.56 381.15,360.00 381.60,360.00 382.06,360.00 382.51,360.00 382.97,360.00 383.42,360.00 383.87,360.00 384.33,360.00 384.78,345.56 385.24,345.56 385.69,345.56 386.15,345.56 386.60,345.56 387.05,345.56 387.51,345.56 387.96,345.56 388.42,345.56 388.87,345.56 389.33,345.56 389.78,345.56 390.23,360.00 390.69,360.00 391.14,360.00 391.60,360.00 392.05,360.00 392.51,360.00 392.96,360.00 393.41,360.00 393.87,360.00 394.32,360.00 394.78,360.00 395.23,360.00 395.68,360.00 396.14,360.00 396.59,360.00 397.05,360.00 397.50,345.56 397.96,345.56 398.41,345.56 398.86,345.56 399.32,345.56 399.77,345.56 400.23,345.56 400.68,345.56 401.14,345.56 401.59,345.56 402.04,345.56 402.50,345.56 402.95,345.56 403.41,345.56 403.86,345.56 404.32,345.56 404.77,345.56 405.22,345.56 405.68,360.00 406.13,360.00 406.59,360.00 407.04,360.00 407.49,360.00 407.95,360.00 408.40,360.00 408.86,360.00 409.31,360.00 409.77,360.00 410.22,360.00 410.67,360.00 411.13,360.00 411.58,360.00 412.04,360.00 412.49,360.00 412.95,360.00 413.40,360.00 413.85,360.00 414.31,360.00 414.76,360.00 415.22,360.00 415.67,360.00 416.13,360.00 416.58,360.00 417.03,360.00 417.49,360.00 417.94,360.00 418.40,360.00 418.85,360.00 419.31,345.56 419.76,345.56 420.21,345.56 420.67,345.56 421.12,360.00 421.58,345.56 422.03,360.00 422.48,360.00 422.94,360.00 423.39,360.00 423.85,360.00 424.30,360.00 424.76,345.56 425.21,345.56 425.66,345.56 426.12,345.56 426.57,345.56 427.03,360.00 427.48,360.00 427.94,360.00 428.39,360.00 428.84,360.00 429.30,360.00 429.75,360.00 430.21,360.00 430.66,360.00 431.12,360.00 431.57,360.00 432.02,360.00 432.48,360.00 432.93,360.00 433.39,360.00 433.84,360.00 434.30,360.00 434.75,360.00 435.20,360.00 435.66,360.00 436.11,360.00 436.57,360.00 437.02,360.00 437.47,360.00 437.93,360.00 438.38,360.00 438.84,360.00 439.29,360.00 439.75,360.00 440.20,360.00 440.65,360.00 441.11,360.00 441.56,360.00 442.02,360.00 442.47,360.00 442.93,360.00 443.38,345.56 443.83,360.00 444.29,360.00 444.74,360.00 445.20,360.00 445.65,360.00 446.11,360.00 446.56,360.00 447.01,360.00 447.47,360.00 447.92,360.00 448.38,360.00 448.83,360.00 449.29,360.00 449.74,360.00 450.19,360.00 450.65,360.00 451.10,360.00 451.56,360.00 452.01,360.00 452.46,360.00 452.92,360.00 453.37,360.00 453.83,360.00 454.28,360.00 454.74,360.00 455.19,360.00 455.64,360.00 456.10,345.56 456.55,345.56 457.01,345.56 457.46,345.56 457.92,345.56 458.37,345.56 458.82,360.00 459.28,360.00 459.73,360.00 460.19,360.00 460.64,360.00 461.10,345.56 461.55,345.56 462.00,345.56 462.46,345.56 462.91,345.56 463.37,345.56 463.82,345.56 464.28,345.56 464.73,345.56 465.18,345.56 465.64,345.56 466.09,345.56 466.55,345.56 467.00,345.56 467.45,345.56 467.91,345.56 468.36,345.56 468.82,345.56 469.27,345.56 469.73,345.56 470.18,345.56 470.63,345.56 471.09,345.56 471.54,345.56 472.00,345.56 472.45,345.56 472.91,345.56 473.36,345.56 473.81,345.56 474.27,345.56 474.72,345.56 475.18,345.56 475.63,345.56 476.09,345.56 476.54,345.56 476.99,345.56 477.45,345.56 477.90,345.56 478.36,345.56 478.81,345.56 479.27,345.56 479.72,345.56 480.17,345.56 480.63,345.56 481.08,345.56 481.54,345.56 481.99,345.56 482.44,345.56 482.90,345.56 483.35,345.56 483.81,345.56 484.26,345.56 484.72,345.56 485.17,345.56 485.62,345.56 486.08,345.56 486.53,345.56 486.99,345.56 487.44,345.56 487.90,345.56 488.35,345.56 488.80,345.56 489.26,345.56 489.71,345.56 490.17,345.56 490.62,345.56 491.08,345.56 491.53,345.56 491.98,345.56 492.44,345.56 492.89,345.56 493.35,345.56 493.80,345.56 494.26,345.56 494.71,345.56 495.16,345.56 495.62,345.56 496.07,345.56 496.53,345.56 496.98,360.00 497.43,360.00 497.89,360.00 498.34,360.00 498.80,360.00 499.25,360.00 499.71,360.00 500.16,360.00 500.61,360.00 501.07,360.00 501.52,360.00 501.98,345.56 502.43,345.56 502.89,345.56 503.34,345.56 503.79,345.56 504.25,345.56 504.70,345.56 505.16,345.56 505.61,345.56 506.07,345.56 506.52,345.56 506.97,345.56 507.43,345.56 507.88,345.56 508.34,345.56 508.79,345.56 509.25,345.56 509.70,345.56 510.15,345.56 510.61,345.56 511.06,345.56 511.52,345.56 511.97,345.56 512.42,345.56 512.88,345.56 513.33,345.56 513.79,345.56 514.24,345.56 514.70,345.56 515.15,345.56 515.60,345.56 516.06,345.56 516.51,345.56 516.97,345.56 517.42,360.00 517.88,360.00 518.33,360.00 518.78,360.00 519.24,360.00 519.69,360.00 520.15,360.00 520.60,360.00 521.06,360.00 521.51,360.00 521.96,360.00 522.42,360.00 522.87,360.00 523.33,360.00 523.78,360.00 524.24,360.00 524.69,360.00 525.14,360.00 525.60,360.00 526.05,360.00 526.51,360.00 526.96,360.00 527.41,360.00 527.87,360.00 528.32,360.00 528.78,360.00 529.23,360.00 529.69,360.00 530.14,360.00 530.59,360.00 531.05,360.00 531.50,360.00 531.96,360.00 532.41,360.00 532.87,360.00 533.32,360.00 533.77,360.00 534.23,360.00 534.68,360.00 535.14,360.00 535.59,345.56 536.05,345.56 536.50,345.56 536.95,345.56 537.41,345.56 537.86,345.56 538.32,345.56 538.77,345.56 539.23,345.56 539.68,345.56 540.13,360.00 540.59,360.00 541.04,360.00 541.50,360.00 541.95,360.00 542.40,345.56 542.86,345.56 543.31,345.56 543.77,345.56 544.22,345.56 544.68,360.00 545.13,360.00 545.58,360.00 546.04,360.00 546.49,360.00 546.95,345.56 547.40,345.56 547.86,345.56 548.31,345.56 548.76,345.56 549.22,345.56 549.67,345.56 550.13,360.00 550.58,360.00 551.04,360.00 551.49,360.00 551.94,360.00 552.40,360.00 552.85,360.00 553.31,360.00 553.76,360.00 554.22,360.00 554.67,360.00 555.12,360.00 555.58,360.00 556.03,345.56 556.49,345.56 556.94,345.56 557.39,345.56 557.85,345.56 558.30,345.56 558.76,345.56 559.21,345.56 559.67,345.56 560.12,345.56 560.57,345.56 561.03,360.00 561.48,360.00 561.94,345.56 562.39,345.56 562.85,345.56 563.30,345.56 563.75,345.56 564.21,345.56 564.66,345.56 565.12,345.56 565.57,345.56 566.03,345.56 566.48,345.56 566.93,345.56 567.39,360.00 567.84,360.00 568.30,360.00 568.75,360.00 569.21,360.00 569.66,360.00 570.11,360.00 570.57,360.00 571.02,360.00 571.48,360.00 571.93,360.00 572.38,345.56 572.84,345.56 573.29,345.56 573.75,345.56 574.20,345.56 574.66,345.56 575.11,345.56 575.56,345.56 576.02,360.00 576.47,360.00 576.93,360.00 577.38,360.00 577.84,360.00 578.29,345.56 578.74,345.56 579.20,345.56 579.65,345.56 580.11,345.56 580.56,345.56 581.02,360.00 581.47,360.00 581.92,360.00 582.38,360.00 582.83,345.56 583.29,345.56 583.74,360.00 584.20,360.00 584.65,360.00 585.10,360.00 585.56,360.00 586.01,345.56 586.47,345.56 586.92,345.56 587.37,345.56 587.83,345.56 588.28,345.56 588.74,345.56 589.19,345.56 589.65,345.56 590.10,345.56 590.55,345.56 591.01,345.56 591.46,345.56 591.92,345.56 592.37,345.56 592.83,345.56 593.28,345.56 593.73,345.56 594.19,345.56 594.64,345.56 595.10,345.56 595.55,345.56 596.01,345.56 596.46,345.56 596.91,345.56 597.37,345.56 597.82,345.56 598.28,345.56 598.73,345.56 599.19,345.56 599.64,345.56 600.09,345.56 600.55,345.56 601.00,345.56 601.46,345.56 601.91,345.56 602.36,345.56 602.82,345.56 603.27,345.56 603.73,345.56 604.18,345.56 604.64,345.56 605.09,345.56 605.54,345.56 606.00,345.56 606.45,345.56 606.91,345.56 607.36,345.56 607.82,345.56 608.27,345.56 608.72,345.56 609.18,345.56 609.63,345.56 610.09,360.00 610.54,360.00 611.00,360.00 611.45,360.00 611.90,345.56 612.36,345.56 612.81,345.56 613.27,345.56 613.72,345.56 614.18,345.56 614.63,345.56 615.08,345.56 615.54,345.56 615.99,345.56 616.45,345.56 616.90,345.56 617.35,345.56 617.81,345.56 618.26,345.56 618.72,345.56 619.17,345.56 619.63,345.56 620.08,345.56 620.53,345.56 620.99,345.56 621.44,345.56 621.90,345.56 622.35,345.56 622.81,345.56 623.26,345.56 623.71,345.56 624.17,345.56 624.62,345.56 625.08,345.56 625.53,345.56 625.99,345.56 626.44,360.00 626.89,360.00 627.35,360.00 627.80,345.56 628.26,345.56 628.71,345.56 629.16,345.56 629.62,345.56 630.07,345.56 630.53,345.56 630.98,345.56 631.44,345.56 631.89,360.00 632.34,360.00 632.80,360.00 633.25,360.00 633.71,360.00 634.16,345.56 634.62,345.56 635.07,345.56 635.52,345.56 635.98,345.56 636.43,345.56 636.89,345.56 637.34,345.56 637.80,345.56 638.25,345.56 638.70,345.56 639.16,345.56 639.61,360.00 640.07,360.00 640.52,360.00 640.98,360.00 641.43,360.00 641.88,360.00 642.34,345.56 642.79,345.56 643.25,345.56 643.70,345.56 644.15,345.56 644.61,345.56 645.06,345.56 645.52,345.56 645.97,345.56 646.43,345.56 646.88,360.00 647.33,360.00 647.79,360.00 648.24,360.00 648.70,360.00 649.15,360.00 649.61,345.56 650.06,345.56 650.51,345.56 650.97,345.56 651.42,345.56 651.88,345.56 652.33,345.56 652.79,345.56 653.24,345.56 653.69,345.56 654.15,345.56 654.60,345.56 655.06,345.56 655.51,345.56 655.97,345.56 656.42,345.56 656.87,345.56 657.33,345.56 657.78,345.56 658.24,360.00 658.69,360.00 659.14,360.00 659.60,345.56 660.05,345.56 660.51,345.56 660.96,345.56 661.42,345.56 661.87,345.56 662.32,345.56 662.78,345.56 663.23,345.56 663.69,345.56 664.14,345.56 664.60,345.56 665.05,345.56 665.50,345.56 665.96,345.56 666.41,345.56 666.87,345.56 667.32,345.56 667.78,345.56 668.23,345.56 668.68,345.56 669.14,345.56 669.59,345.56 670.05,345.56 670.50,345.56 670.96,345.56 671.41,345.56 671.86,345.56 672.32,345.56 672.77,345.56 673.23,345.56 673.68,345.56 674.13,345.56 674.59,345.56 675.04,345.56 675.50,360.00 675.95,360.00 676.41,360.00 676.86,360.00 677.31,360.00 677.77,345.56 678.22,345.56 678.68,345.56 679.13,345.56 679.59,345.56 680.04,345.56 680.49,345.56 680.95,345.56 681.40,360.00 681.86,360.00 682.31,360.00 682.77,360.00 683.22,360.00 683.67,360.00 684.13,360.00 684.58,360.00 685.04,360.00 685.49,360.00 685.95,360.00 686.40,360.00 686.85,360.00 687.31,360.00 687.76,345.56 688.22,345.56 688.67,345.56 689.12,345.56 689.58,345.56 690.03,345.56 690.49,345.56 690.94,345.56 691.40,345.56 691.85,345.56 692.30,345.56 692.76,345.56 693.21,345.56 693.67,345.56 694.12,345.56 694.58,345.56 695.03,345.56 695.48,345.56 695.94,345.56 696.39,345.56 696.85,345.56 697.30,345.56 697.76,345.56 698.21,345.56 698.66,345.56 699.12,345.56 699.57,345.56 700.03,345.56 700.48,345.56 700.94,345.56 701.39,345.56 701.84,345.56 702.30,345.56 702.75,345.56 703.21,345.56 703.66,345.56 704.11,345.56 704.57,345.56 705.02,345.56 705.48,345.56 705.93,345.56 706.39,345.56 706.84,345.56 707.29,345.56 707.75,345.56 708.20,345.56 708.66,345.56 709.11,345.56 709.57,345.56 710.02,345.56 710.47,345.56 710.93,345.56 711.38,345.56 711.84,345.56 712.29,345.56 712.75,345.56 713.20,345.56 713.65,345.56 714.11,345.56 714.56,345.56 715.02,345.56 715.47,345.56 715.93,345.56 716.38,345.56 716.83,345.56 717.29,345.56 717.74,345.56 718.20,345.56 718.65,345.56 719.10,360.00 719.56,360.00 720.01,360.00 720.47,360.00 720.92,360.00 721.38,360.00 721.83,360.00 722.28,360.00 722.74,360.00 723.19,360.00 723.65,360.00 724.10,360.00 724.56,360.00 725.01,360.00 725.46,360.00 725.92,360.00 726.37,345.56 726.83,345.56 727.28,345.56 727.74,345.56 728.19,345.56 728.64,345.56 729.10,345.56 729.55,345.56 730.01,345.56 730.46,345.56 730.92,323.91 731.37,345.56 731.82,345.56 732.28,345.56 732.73,345.56 733.19,345.56 733.64,345.56 734.09,345.56 734.55,345.56 735.00,345.56 735.46,345.56 735.91,345.56 736.37,345.56 736.82,345.56 737.27,345.56 737.73,345.56 738.18,345.56 738.64,345.56 739.09,345.56 739.55,345.56 740.00,345.56" />
</svg>
