<svg xmlns="http://www.w3.org/2000/svg" width="800" height="420">
  <rect x="0" y="0" width="800" height="420" fill="#ffffff" />
  <line x1="60" y1="360" x2="740" y2="360" stroke="#333333" stroke-width="2" />
  <line x1="60" y1="60" x2="60" y2="360" stroke="#333333" stroke-width="2" />
  <text x="400.0" y="30" text-anchor="middle" font-size="22" font-family="Arial">Policy Entropy</text>
  <text x="400.0" y="405" text-anchor="middle" font-size="16" font-family="Arial">Batch</text>
  <text x="24" y="210.0" text-anchor="middle" font-size="16" font-family="Arial" transform="rotate(-90 24 210.0)">Entropy</text>
  <text x="60" y="50" font-size="13" font-family="Arial">4.152</text>
  <text x="60" y="380" font-size="13" font-family="Arial">1.383</text>
  <text x="60" y="395" font-size="13" font-family="Arial">3</text>
  <text x="740" y="395" text-anchor="end" font-size="13" font-family="Arial">1500</text>
  <polyline fill="none" stroke="#ea580c" stroke-width="3" points="60.00,60.00 60.45,72.63 60.91,79.29 61.36,87.57 61.82,90.65 62.27,95.57 62.73,97.92 63.18,99.91 63.63,101.79 64.09,105.93 64.54,110.75 65.00,102.94 65.45,110.90 65.91,113.38 66.36,111.27 66.81,114.39 67.27,118.10 67.72,118.38 68.18,117.63 68.63,120.63 69.08,126.35 69.54,128.61 69.99,127.37 70.45,130.66 70.90,131.19 71.36,133.30 71.81,135.53 72.26,138.13 72.72,139.57 73.17,138.97 73.63,143.86 74.08,143.74 74.54,146.22 74.99,142.91 75.44,141.22 75.90,145.87 76.35,148.46 76.81,152.27 77.26,153.64 77.72,151.50 78.17,153.42 78.62,149.66 79.08,154.58 79.53,156.78 79.99,156.65 80.44,156.30 80.90,157.25 81.35,160.08 81.80,159.37 82.26,159.17 82.71,159.07 83.17,162.23 83.62,161.82 84.07,160.27 84.53,160.39 84.98,167.00 85.44,164.27 85.89,158.71 86.35,163.90 86.80,164.96 87.25,160.40 87.71,164.14 88.16,162.14 88.62,163.50 89.07,164.21 89.53,171.27 89.98,165.07 90.43,169.47 90.89,162.87 91.34,166.54 91.80,165.25 92.25,170.06 92.71,167.54 93.16,164.61 93.61,175.36 94.07,167.70 94.52,167.24 94.98,167.67 95.43,167.23 95.89,169.81 96.34,170.08 96.79,167.24 97.25,175.47 97.70,166.51 98.16,177.05 98.61,179.10 99.06,177.21 99.52,174.72 99.97,178.83 100.43,172.11 100.88,179.56 101.34,176.93 101.79,181.04 102.24,176.26 102.70,178.48 103.15,179.08 103.61,179.17 104.06,176.05 104.52,180.00 104.97,178.29 105.42,182.95 105.88,186.60 106.33,178.71 106.79,178.75 107.24,182.14 107.70,184.41 108.15,182.49 108.60,182.59 109.06,183.91 109.51,184.83 109.97,182.53 110.42,186.01 110.88,182.62 111.33,187.14 111.78,187.68 112.24,181.78 112.69,186.90 113.15,181.81 113.60,187.64 114.05,186.52 114.51,185.62 114.96,190.14 115.42,190.07 115.87,189.05 116.33,193.66 116.78,187.92 117.23,194.06 117.69,193.24 118.14,189.37 118.60,195.21 119.05,198.89 119.51,190.09 119.96,197.01 120.41,196.64 120.87,192.83 121.32,197.91 121.78,202.02 122.23,191.81 122.69,206.40 123.14,190.44 123.59,202.46 124.05,198.79 124.50,206.29 124.96,198.19 125.41,202.24 125.87,208.22 126.32,193.96 126.77,198.12 127.23,200.64 127.68,206.31 128.14,203.03 128.59,199.96 129.04,201.53 129.50,204.29 129.95,204.80 130.41,204.18 130.86,200.82 131.32,200.65 131.77,203.42 132.22,199.12 132.68,207.14 133.13,198.21 133.59,210.36 134.04,204.65 134.50,210.81 134.95,205.81 135.40,206.37 135.86,210.62 136.31,200.14 136.77,213.08 137.22,202.25 137.68,208.22 138.13,208.42 138.58,206.84 139.04,209.37 139.49,209.63 139.95,213.29 140.40,205.44 140.86,215.26 141.31,206.27 141.76,211.04 142.22,203.21 142.67,210.40 143.13,214.66 143.58,212.71 144.03,209.85 144.49,215.70 144.94,209.75 145.40,216.26 145.85,207.77 146.31,215.70 146.76,210.04 147.21,216.70 147.67,212.94 148.12,215.57 148.58,213.81 149.03,214.53 149.49,212.70 149.94,216.86 150.39,215.16 150.85,222.51 151.30,216.12 151.76,216.35 152.21,224.06 152.67,212.29 153.12,221.75 153.57,220.14 154.03,222.99 154.48,218.26 154.94,220.82 155.39,220.92 155.85,221.07 156.30,220.59 156.75,216.67 157.21,218.06 157.66,215.87 158.12,221.33 158.57,225.15 159.02,230.07 159.48,218.82 159.93,223.62 160.39,225.39 160.84,218.97 161.30,221.20 161.75,227.94 162.20,226.16 162.66,230.34 163.11,226.24 163.57,221.00 164.02,220.60 164.48,231.78 164.93,226.51 165.38,228.29 165.84,224.52 166.29,221.94 166.75,228.17 167.20,224.74 167.66,228.61 168.11,220.25 168.56,227.44 169.02,228.40 169.47,225.95 169.93,237.11 170.38,221.98 170.84,231.70 171.29,219.55 171.74,226.72 172.20,223.01 172.65,222.99 173.11,226.71 173.56,232.30 174.01,228.39 174.47,228.39 174.92,229.06 175.38,222.79 175.83,231.07 176.29,230.68 176.74,229.29 177.19,221.47 177.65,231.09 178.10,225.74 178.56,235.80 179.01,232.87 179.47,233.81 179.92,232.74 180.37,233.54 180.83,234.18 181.28,225.25 181.74,238.43 182.19,233.26 182.65,236.23 183.10,236.99 183.55,233.46 184.01,231.72 184.46,235.70 184.92,235.57 185.37,233.19 185.82,239.20 186.28,238.63 186.73,236.81 187.19,237.99 187.64,240.17 188.10,240.72 188.55,237.86 189.00,237.77 189.46,234.04 189.91,245.37 190.37,239.51 190.82,239.29 191.28,242.63 191.73,241.56 192.18,234.22 192.64,234.39 193.09,242.36 193.55,239.10 194.00,246.93 194.46,237.41 194.91,238.34 195.36,242.17 195.82,247.03 196.27,237.10 196.73,238.21 197.18,250.66 197.64,238.33 198.09,231.66 198.54,238.93 199.00,242.37 199.45,236.81 199.91,239.00 200.36,239.70 200.81,246.81 201.27,234.44 201.72,242.72 202.18,237.35 202.63,243.89 203.09,242.19 203.54,247.49 203.99,240.70 204.45,242.09 204.90,247.02 205.36,241.77 205.81,245.13 206.27,244.38 206.72,243.87 207.17,245.44 207.63,240.01 208.08,243.72 208.54,247.85 208.99,243.29 209.45,239.56 209.90,254.11 210.35,254.43 210.81,242.65 211.26,251.74 211.72,246.68 212.17,251.48 212.63,248.29 213.08,252.07 213.53,250.66 213.99,248.93 214.44,247.66 214.90,248.37 215.35,250.95 215.80,255.10 216.26,256.60 216.71,251.99 217.17,254.08 217.62,260.18 218.08,253.66 218.53,259.54 218.98,260.85 219.44,259.36 219.89,252.87 220.35,257.98 220.80,258.84 221.26,253.95 221.71,265.53 222.16,253.38 222.62,253.44 223.07,252.70 223.53,262.88 223.98,262.94 224.44,256.02 224.89,254.29 225.34,266.39 225.80,263.78 226.25,264.82 226.71,262.44 227.16,259.13 227.62,259.21 228.07,260.90 228.52,263.74 228.98,264.84 229.43,267.75 229.89,256.03 230.34,270.41 230.79,264.13 231.25,264.95 231.70,268.61 232.16,263.90 232.61,264.09 233.07,264.82 233.52,266.52 233.97,263.83 234.43,265.69 234.88,267.71 235.34,268.57 235.79,264.31 236.25,268.61 236.70,263.68 237.15,269.41 237.61,275.75 238.06,274.93 238.52,272.87 238.97,269.20 239.43,274.80 239.88,269.27 240.33,272.76 240.79,270.40 241.24,273.57 241.70,275.93 242.15,265.66 242.61,272.55 243.06,272.62 243.51,276.62 243.97,273.68 244.42,276.79 244.88,278.20 245.33,273.24 245.78,284.12 246.24,277.88 246.69,278.04 247.15,279.75 247.60,279.04 248.06,278.46 248.51,281.54 248.96,280.36 249.42,280.43 249.87,282.37 250.33,282.25 250.78,282.60 251.24,283.73 251.69,287.73 252.14,286.97 252.60,285.56 253.05,290.13 253.51,289.39 253.96,288.16 254.42,289.27 254.87,284.96 255.32,288.84 255.78,284.67 256.23,283.74 256.69,282.45 257.14,284.03 257.60,289.63 258.05,289.66 258.50,284.43 258.96,290.97 259.41,288.09 259.87,293.23 260.32,290.51 260.77,287.11 261.23,293.13 261.68,289.35 262.14,289.55 262.59,291.68 263.05,288.74 263.50,284.93 263.95,294.23 264.41,288.74 264.86,286.85 265.32,295.76 265.77,288.33 266.23,290.41 266.68,295.95 267.13,288.70 267.59,289.38 268.04,292.54 268.50,291.79 268.95,293.44 269.41,296.27 269.86,300.79 270.31,286.22 270.77,293.30 271.22,301.12 271.68,292.47 272.13,293.94 272.59,289.36 273.04,294.85 273.49,287.93 273.95,292.35 274.40,289.40 274.86,294.99 275.31,294.25 275.76,296.06 276.22,282.71 276.67,293.47 277.13,289.87 277.58,295.37 278.04,288.80 278.49,296.29 278.94,294.34 279.40,291.20 279.85,290.44 280.31,292.19 280.76,291.83 281.22,297.83 281.67,296.67 282.12,297.70 282.58,297.22 283.03,297.68 283.49,294.21 283.94,303.36 284.40,295.32 284.85,298.50 285.30,301.01 285.76,292.50 286.21,298.53 286.67,300.22 287.12,293.74 287.58,299.41 288.03,296.54 288.48,301.66 288.94,294.92 289.39,302.99 289.85,295.01 290.30,300.42 290.75,291.80 291.21,300.64 291.66,300.23 292.12,301.90 292.57,295.87 293.03,304.70 293.48,294.78 293.93,296.68 294.39,293.81 294.84,293.19 295.30,299.02 295.75,290.82 296.21,291.57 296.66,301.77 297.11,301.52 297.57,292.74 298.02,301.54 298.48,293.75 298.93,292.92 299.39,297.85 299.84,293.87 300.29,302.45 300.75,299.33 301.20,298.12 301.66,295.23 302.11,299.40 302.57,298.60 303.02,293.50 303.47,300.74 303.93,301.67 304.38,299.28 304.84,294.07 305.29,296.18 305.74,300.47 306.20,293.17 306.65,303.42 307.11,305.31 307.56,295.01 308.02,306.84 308.47,287.75 308.92,289.80 309.38,303.41 309.83,296.06 310.29,300.06 310.74,297.01 311.20,300.31 311.65,301.84 312.10,294.58 312.56,300.37 313.01,296.33 313.47,294.24 313.92,302.10 314.38,301.43 314.83,293.18 315.28,302.12 315.74,303.66 316.19,299.59 316.65,299.84 317.10,297.33 317.56,304.86 318.01,299.35 318.46,297.77 318.92,298.44 319.37,308.43 319.83,297.50 320.28,300.61 320.73,300.79 321.19,300.23 321.64,304.93 322.10,297.58 322.55,297.27 323.01,299.10 323.46,301.72 323.91,300.59 324.37,302.28 324.82,301.11 325.28,305.71 325.73,305.45 326.19,296.51 326.64,303.69 327.09,298.55 327.55,305.51 328.00,295.26 328.46,299.45 328.91,301.13 329.37,303.98 329.82,298.44 330.27,297.49 330.73,298.95 331.18,308.89 331.64,300.23 332.09,302.43 332.55,301.63 333.00,298.94 333.45,304.40 333.91,301.20 334.36,300.25 334.82,310.22 335.27,298.88 335.72,303.87 336.18,298.98 336.63,305.47 337.09,297.91 337.54,301.71 338.00,306.57 338.45,296.01 338.90,304.79 339.36,301.56 339.81,297.54 340.27,310.05 340.72,301.64 341.18,303.06 341.63,307.98 342.08,308.10 342.54,309.98 342.99,299.69 343.45,307.76 343.90,307.92 344.36,303.82 344.81,306.30 345.26,297.82 345.72,308.60 346.17,306.14 346.63,308.33 347.08,293.76 347.54,310.52 347.99,304.22 348.44,302.95 348.90,308.58 349.35,301.43 349.81,301.66 350.26,303.37 350.71,304.08 351.17,306.16 351.62,300.19 352.08,309.58 352.53,309.99 352.99,304.13 353.44,302.13 353.89,301.46 354.35,313.54 354.80,301.48 355.26,310.23 355.71,306.77 356.17,299.70 356.62,305.03 357.07,308.19 357.53,307.22 357.98,305.85 358.44,307.30 358.89,302.96 359.35,297.73 359.80,307.73 360.25,299.25 360.71,314.26 361.16,304.84 361.62,305.00 362.07,312.16 362.53,305.35 362.98,299.24 363.43,301.23 363.89,305.54 364.34,308.03 364.80,315.36 365.25,308.25 365.70,308.98 366.16,312.64 366.61,310.69 367.07,301.11 367.52,306.98 367.98,306.56 368.43,315.31 368.88,307.30 369.34,314.59 369.79,305.83 370.25,305.13 370.70,308.78 371.16,302.89 371.61,310.06 372.06,312.22 372.52,305.10 372.97,309.90 373.43,316.24 373.88,302.53 374.34,308.99 374.79,309.52 375.24,312.50 375.70,309.05 376.15,312.97 376.61,313.24 377.06,305.74 377.52,313.47 377.97,311.00 378.42,310.74 378.88,310.33 379.33,307.15 379.79,316.51 380.24,309.87 380.69,316.62 381.15,308.48 381.60,313.96 382.06,318.20 382.51,311.80 382.97,314.81 383.42,316.10 383.87,313.87 384.33,314.63 384.78,327.80 385.24,309.50 385.69,319.19 386.15,314.56 386.60,318.36 387.05,317.78 387.51,320.53 387.96,320.33 388.42,314.17 388.87,316.43 389.33,311.35 389.78,316.36 390.23,313.38 390.69,315.78 391.14,315.27 391.60,317.95 392.05,306.99 392.51,317.99 392.96,317.01 393.41,311.49 393.87,317.05 394.32,316.05 394.78,315.97 395.23,314.78 395.68,314.71 396.14,317.12 396.59,310.66 397.05,313.36 397.50,317.42 397.96,311.90 398.41,312.49 398.86,314.63 399.32,315.52 399.77,317.27 400.23,318.86 400.68,311.51 401.14,316.56 401.59,315.08 402.04,310.89 402.50,320.17 402.95,318.41 403.41,313.29 403.86,320.13 404.32,317.91 404.77,320.95 405.22,308.00 405.68,322.55 406.13,317.24 406.59,315.13 407.04,326.00 407.49,313.00 407.95,306.79 408.40,320.38 408.86,314.30 409.31,313.51 409.77,321.53 410.22,316.71 410.67,311.35 411.13,320.24 411.58,317.33 412.04,317.28 412.49,318.13 412.95,309.89 413.40,318.96 413.85,319.23 414.31,325.78 414.76,316.62 415.22,320.23 415.67,324.07 416.13,320.73 416.58,326.91 417.03,315.38 417.49,316.14 417.94,323.70 418.40,320.80 418.85,321.39 419.31,318.27 419.76,318.15 420.21,321.79 420.67,320.35 421.12,317.88 421.58,323.76 422.03,318.47 422.48,323.69 422.94,316.56 423.39,310.88 423.85,312.92 424.30,325.10 424.76,313.72 425.21,329.42 425.66,330.69 426.12,322.63 426.57,323.23 427.03,330.02 427.48,319.58 427.94,315.97 428.39,325.78 428.84,321.46 429.30,321.92 429.75,326.35 430.21,323.48 430.66,319.42 431.12,321.62 431.57,324.65 432.02,317.81 432.48,312.10 432.93,324.62 433.39,325.01 433.84,321.31 434.30,326.33 434.75,321.39 435.20,319.90 435.66,321.39 436.11,325.27 436.57,329.42 437.02,333.82 437.47,320.20 437.93,323.62 438.38,323.94 438.84,322.09 439.29,324.23 439.75,327.38 440.20,321.64 440.65,330.80 441.11,321.99 441.56,322.81 442.02,328.41 442.47,321.81 442.93,327.49 443.38,324.74 443.83,329.81 444.29,328.27 444.74,321.47 445.20,328.30 445.65,322.40 446.11,326.57 446.56,325.08 447.01,321.53 447.47,321.04 447.92,318.97 448.38,315.75 448.83,323.57 449.29,325.18 449.74,321.33 450.19,331.40 450.65,329.79 451.10,324.24 451.56,330.69 452.01,322.13 452.46,326.03 452.92,323.26 453.37,318.98 453.83,326.00 454.28,318.74 454.74,323.08 455.19,324.03 455.64,329.86 456.10,328.00 456.55,328.23 457.01,330.37 457.46,323.61 457.92,331.84 458.37,327.65 458.82,328.06 459.28,331.02 459.73,334.45 460.19,320.25 460.64,323.76 461.10,332.37 461.55,332.72 462.00,331.81 462.46,329.37 462.91,333.31 463.37,332.77 463.82,336.03 464.28,330.51 464.73,331.33 465.18,330.21 465.64,328.70 466.09,321.76 466.55,330.56 467.00,335.75 467.45,333.35 467.91,331.30 468.36,331.84 468.82,324.38 469.27,322.35 469.73,334.35 470.18,332.09 470.63,326.47 471.09,328.65 471.54,333.00 472.00,330.03 472.45,335.20 472.91,328.41 473.36,328.81 473.81,333.94 474.27,341.09 474.72,332.09 475.18,327.77 475.63,323.28 476.09,332.90 476.54,330.63 476.99,331.85 477.45,337.24 477.90,330.02 478.36,337.10 478.81,329.49 479.27,335.35 479.72,339.22 480.17,332.60 480.63,332.97 481.08,328.84 481.54,339.99 481.99,330.15 482.44,330.33 482.90,336.40 483.35,330.87 483.81,337.25 484.26,332.47 484.72,336.54 485.17,338.50 485.62,335.24 486.08,347.28 486.53,329.39 486.99,330.44 487.44,327.57 487.90,330.90 488.35,335.37 488.80,331.98 489.26,339.95 489.71,337.04 490.17,334.46 490.62,343.98 491.08,332.69 491.53,334.38 491.98,329.01 492.44,338.00 492.89,332.01 493.35,329.00 493.80,333.48 494.26,331.45 494.71,338.19 495.16,338.46 495.62,331.99 496.07,330.49 496.53,334.89 496.98,330.63 497.43,336.25 497.89,335.34 498.34,333.55 498.80,337.37 499.25,344.28 499.71,337.18 500.16,338.11 500.61,340.59 501.07,332.32 501.52,330.15 501.98,332.93 502.43,336.06 502.89,326.94 503.34,337.65 503.79,331.41 504.25,340.98 504.70,333.88 505.16,342.65 505.61,332.97 506.07,337.22 506.52,329.21 506.97,329.44 507.43,337.66 507.88,335.29 508.34,330.50 508.79,335.48 509.25,335.82 509.70,331.89 510.15,337.63 510.61,337.19 511.06,335.34 511.52,326.18 511.97,333.31 512.42,335.48 512.88,334.57 513.33,327.92 513.79,331.06 514.24,331.49 514.70,340.92 515.15,330.83 515.60,332.16 516.06,339.87 516.51,335.89 516.97,336.33 517.42,321.52 517.88,338.41 518.33,329.58 518.78,334.70 519.24,336.35 519.69,335.38 520.15,335.46 520.60,336.44 521.06,338.96 521.51,336.25 521.96,333.18 522.42,338.99 522.87,332.67 523.33,335.91 523.78,330.09 524.24,326.29 524.69,334.50 525.14,334.40 525.60,329.68 526.05,333.33 526.51,331.71 526.96,335.10 527.41,332.05 527.87,340.37 528.32,331.84 528.78,334.74 529.23,346.11 529.69,331.61 530.14,331.76 530.59,335.96 531.05,325.56 531.50,327.98 531.96,334.55 532.41,327.95 532.87,331.94 533.32,334.03 533.77,337.58 534.23,330.52 534.68,338.22 535.14,333.28 535.59,327.67 536.05,334.59 536.50,332.33 536.95,333.05 537.41,330.19 537.86,330.22 538.32,331.76 538.77,332.96 539.23,339.20 539.68,338.18 540.13,335.92 540.59,330.41 541.04,336.75 541.50,338.73 541.95,334.28 542.40,331.06 542.86,337.84 543.31,335.46 543.77,331.88 544.22,340.08 544.68,334.02 545.13,342.33 545.58,335.56 546.04,331.07 546.49,331.17 546.95,341.61 547.40,339.11 547.86,332.50 548.31,333.23 548.76,328.11 549.22,343.17 549.67,331.87 550.13,337.52 550.58,341.47 551.04,334.40 551.49,330.82 551.94,325.34 552.40,326.15 552.85,341.74 553.31,333.68 553.76,333.25 554.22,339.55 554.67,329.00 555.12,339.91 555.58,336.04 556.03,329.99 556.49,341.43 556.94,337.02 557.39,333.39 557.85,334.97 558.30,340.92 558.76,334.66 559.21,346.06 559.67,337.47 560.12,336.16 560.57,329.93 561.03,337.51 561.48,335.08 561.94,330.22 562.39,330.28 562.85,340.08 563.30,338.73 563.75,341.11 564.21,340.57 564.66,335.35 565.12,344.71 565.57,339.64 566.03,336.02 566.48,335.81 566.93,336.53 567.39,330.78 567.84,338.97 568.30,339.30 568.75,333.29 569.21,346.30 569.66,339.25 570.11,332.02 570.57,337.19 571.02,334.97 571.48,339.23 571.93,342.12 572.38,344.11 572.84,338.02 573.29,342.58 573.75,339.84 574.20,332.19 574.66,339.63 575.11,329.71 575.56,346.15 576.02,333.52 576.47,337.08 576.93,343.66 577.38,334.70 577.84,340.16 578.29,342.05 578.74,331.12 579.20,334.12 579.65,338.72 580.11,346.28 580.56,340.54 581.02,347.62 581.47,334.23 581.92,338.24 582.38,347.36 582.83,343.74 583.29,336.91 583.74,348.48 584.20,345.34 584.65,335.86 585.10,344.29 585.56,345.02 586.01,343.07 586.47,345.09 586.92,340.70 587.37,338.71 587.83,339.66 588.28,340.98 588.74,343.20 589.19,338.88 589.65,344.68 590.10,345.59 590.55,347.85 591.01,337.10 591.46,348.22 591.92,343.34 592.37,347.35 592.83,343.71 593.28,351.23 593.73,335.98 594.19,337.99 594.64,340.56 595.10,344.97 595.55,341.45 596.01,338.50 596.46,345.81 596.91,348.42 597.37,334.08 597.82,342.16 598.28,346.73 598.73,346.79 599.19,346.18 599.64,341.73 600.09,352.85 600.55,341.74 601.00,349.46 601.46,343.12 601.91,343.20 602.36,340.54 602.82,342.27 603.27,346.75 603.73,343.25 604.18,340.73 604.64,342.70 605.09,348.66 605.54,348.37 606.00,348.87 606.45,340.93 606.91,352.40 607.36,343.47 607.82,343.93 608.27,346.45 608.72,341.32 609.18,348.73 609.63,360.00 610.09,344.36 610.54,345.40 611.00,347.65 611.45,342.77 611.90,341.58 612.36,347.25 612.81,345.79 613.27,347.45 613.72,344.53 614.18,340.52 614.63,346.78 615.08,348.07 615.54,353.54 615.99,343.37 616.45,348.75 616.90,338.19 617.35,344.96 617.81,340.40 618.26,350.15 618.72,357.03 619.17,350.00 619.63,341.83 620.08,339.46 620.53,341.27 620.99,337.05 621.44,345.77 621.90,348.00 622.35,347.64 622.81,344.72 623.26,340.30 623.71,344.89 624.17,346.89 624.62,344.98 625.08,350.48 625.53,345.77 625.99,340.19 626.44,349.09 626.89,342.57 627.35,348.49 627.80,349.96 628.26,346.19 628.71,350.20 629.16,346.35 629.62,350.63 630.07,344.83 630.53,343.97 630.98,346.37 631.44,347.93 631.89,354.99 632.34,342.69 632.80,342.85 633.25,346.13 633.71,348.93 634.16,344.67 634.62,344.01 635.07,345.86 635.52,343.74 635.98,345.88 636.43,343.84 636.89,336.37 637.34,347.56 637.80,335.93 638.25,340.73 638.70,340.40 639.16,330.74 639.61,350.58 640.07,343.79 640.52,342.67 640.98,343.62 641.43,346.72 641.88,348.42 642.34,348.51 642.79,339.06 643.25,340.37 643.70,350.07 644.15,345.82 644.61,349.70 645.06,344.24 645.52,333.74 645.97,345.18 646.43,341.92 646.88,349.09 647.33,345.32 647.79,339.66 648.24,341.89 648.70,335.31 649.15,341.53 649.61,343.61 650.06,345.28 650.51,344.27 650.97,343.69 651.42,342.43 651.88,336.82 652.33,335.16 652.79,349.55 653.24,344.61 653.69,351.33 654.15,335.70 654.60,340.11 655.06,343.38 655.51,343.95 655.97,346.35 656.42,344.43 656.87,342.16 657.33,349.13 657.78,335.87 658.24,343.35 658.69,342.37 659.14,337.14 659.60,341.90 660.05,336.46 660.51,349.04 660.96,345.97 661.42,347.20 661.87,348.95 662.32,340.59 662.78,342.33 663.23,349.33 663.69,350.24 664.14,334.86 664.60,353.41 665.05,344.56 665.50,342.97 665.96,347.77 666.41,340.66 666.87,348.02 667.32,355.45 667.78,339.36 668.23,344.21 668.68,341.65 669.14,341.65 669.59,339.14 670.05,342.62 670.50,343.18 670.96,330.86 671.41,345.71 671.86,336.97 672.32,341.94 672.77,344.52 673.23,344.98 673.68,344.22 674.13,343.20 674.59,353.72 675.04,338.52 675.50,341.31 675.95,337.59 676.41,342.77 676.86,344.94 677.31,340.88 677.77,342.25 678.22,346.66 678.68,343.37 679.13,345.32 679.59,338.56 680.04,348.53 680.49,345.79 680.95,335.92 681.40,349.19 681.86,338.56 682.31,338.09 682.77,346.69 683.22,347.32 683.67,334.94 684.13,342.04 684.58,341.58 685.04,342.97 685.49,347.57 685.95,336.43 686.40,342.68 686.85,339.78 687.31,338.78 687.76,342.88 688.22,341.53 688.67,346.02 689.12,344.12 689.58,342.66 690.03,343.71 690.49,344.60 690.94,338.59 691.40,337.82 691.85,336.28 692.30,339.01 692.76,345.26 693.21,343.59 693.67,340.67 694.12,348.14 694.58,337.22 695.03,349.48 695.48,339.58 695.94,347.11 696.39,340.10 696.85,345.92 697.30,334.80 697.76,336.01 698.21,337.83 698.66,339.22 699.12,339.01 699.57,333.72 700.03,341.62 700.48,343.73 700.94,348.71 701.39,345.06 701.84,336.50 702.30,342.07 702.75,334.02 703.21,336.79 703.66,344.82 704.11,337.96 704.57,339.98 705.02,329.50 705.48,341.85 705.93,345.44 706.39,338.33 706.84,352.33 707.29,338.09 707.75,336.38 708.20,339.52 708.66,339.67 709.11,340.57 709.57,339.50 710.02,337.06 710.47,334.48 710.93,341.29 711.38,336.90 711.84,348.52 712.29,341.14 712.75,337.77 713.20,335.17 713.65,339.46 714.11,337.44 714.56,336.61 715.02,336.48 715.47,346.68 715.93,337.09 716.38,344.64 716.83,333.38 717.29,335.26 717.74,337.16 718.20,342.23 718.65,336.00 719.10,345.06 719.56,337.67 720.01,334.75 720.47,339.50 720.92,339.66 721.38,337.84 721.83,339.93 722.28,342.00 722.74,339.66 723.19,338.36 723.65,342.30 724.10,340.08 724.56,343.58 725.01,334.90 725.46,334.97 725.92,337.68 726.37,331.87 726.83,342.90 727.28,342.99 727.74,337.04 728.19,342.34 728.64,339.13 729.10,347.39 729.55,345.64 730.01,337.40 730.46,340.02 730.92,336.97 731.37,339.44 731.82,338.65 732.28,343.09 732.73,343.69 733.19,338.66 733.64,341.14 734.09,332.11 734.55,341.72 735.00,342.82 735.46,339.69 735.91,344.27 736.37,343.88 736.82,339.70 737.27,344.39 737.73,339.25 738.18,346.36 738.64,337.81 739.09,346.02 739.55,340.14 740.00,344.60" />
</svg>
