<svg xmlns="http://www.w3.org/2000/svg" width="800" height="420">
  <rect x="0" y="0" width="800" height="420" fill="#ffffff" />
  <line x1="60" y1="360" x2="740" y2="360" stroke="#333333" stroke-width="2" />
  <line x1="60" y1="60" x2="60" y2="360" stroke="#333333" stroke-width="2" />
  <text x="400.0" y="30" text-anchor="middle" font-size="22" font-family="Arial">Replay Buffer Size</text>
  <text x="400.0" y="405" text-anchor="middle" font-size="16" font-family="Arial">Batch</text>
  <text x="24" y="210.0" text-anchor="middle" font-size="16" font-family="Arial" transform="rotate(-90 24 210.0)">Buffer Size</text>
  <text x="60" y="50" font-size="13" font-family="Arial">1000.000</text>
  <text x="60" y="380" font-size="13" font-family="Arial">120.000</text>
  <text x="60" y="395" font-size="13" font-family="Arial">1</text>
  <text x="740" y="395" text-anchor="end" font-size="13" font-family="Arial">20</text>
  <polyline fill="none" stroke="#7c3aed" stroke-width="3" points="60.00,360.00 95.79,324.55 131.58,297.27 167.37,253.64 203.16,223.64 238.95,171.82 274.74,125.45 310.53,62.73 346.32,60.00 382.11,60.00 417.89,60.00 453.68,60.00 489.47,60.00 525.26,60.00 561.05,60.00 596.84,60.00 632.63,60.00 668.42,60.00 704.21,60.00 740.00,60.00" />
</svg>
