<svg xmlns="http://www.w3.org/2000/svg" width="800" height="420">
  <rect x="0" y="0" width="800" height="420" fill="#ffffff" />
  <line x1="60" y1="360" x2="740" y2="360" stroke="#333333" stroke-width="2" />
  <line x1="60" y1="60" x2="60" y2="360" stroke="#333333" stroke-width="2" />
  <text x="400.0" y="30" text-anchor="middle" font-size="22" font-family="Arial">Self-Play Episode Length</text>
  <text x="400.0" y="405" text-anchor="middle" font-size="16" font-family="Arial">Batch</text>
  <text x="24" y="210.0" text-anchor="middle" font-size="16" font-family="Arial" transform="rotate(-90 24 210.0)">Episode Length</text>
  <text x="60" y="50" font-size="13" font-family="Arial">23.000</text>
  <text x="60" y="380" font-size="13" font-family="Arial">7.000</text>
  <text x="60" y="395" font-size="13" font-family="Arial">1</text>
  <text x="740" y="395" text-anchor="end" font-size="13" font-family="Arial">20</text>
  <polyline fill="none" stroke="#2563eb" stroke-width="3" points="60.00,210.00 95.79,247.50 131.58,303.75 167.37,191.25 203.16,285.00 238.95,135.00 274.74,172.50 310.53,60.00 346.32,360.00 382.11,247.50 417.89,266.25 453.68,172.50 489.47,191.25 525.26,360.00 561.05,266.25 596.84,266.25 632.63,285.00 668.42,228.75 704.21,322.50 740.00,285.00" />
</svg>
