<svg xmlns="http://www.w3.org/2000/svg" width="800" height="420">
  <rect x="0" y="0" width="800" height="420" fill="#ffffff" />
  <line x1="60" y1="360" x2="740" y2="360" stroke="#333333" stroke-width="2" />
  <line x1="60" y1="60" x2="60" y2="360" stroke="#333333" stroke-width="2" />
  <text x="400.0" y="30" text-anchor="middle" font-size="22" font-family="Arial">Effective Learning Rate</text>
  <text x="400.0" y="405" text-anchor="middle" font-size="16" font-family="Arial">Batch</text>
  <text x="24" y="210.0" text-anchor="middle" font-size="16" font-family="Arial" transform="rotate(-90 24 210.0)">Learning Rate</text>
  <text x="60" y="50" font-size="13" font-family="Arial">0.001</text>
  <text x="60" y="380" font-size="13" font-family="Arial">0.000</text>
  <text x="60" y="395" font-size="13" font-family="Arial">3</text>
  <text x="740" y="395" text-anchor="end" font-size="13" font-family="Arial">1500</text>
  <polyline fill="none" stroke="#0891b2" stroke-width="3" points="60.00,60.00 60.45,175.17 60.91,251.94 61.36,175.17 61.82,175.17 62.27,60.00 62.73,60.00 63.18,175.17 63.63,175.17 64.09,175.17 64.54,251.94 65.00,251.94 65.45,251.94 65.91,251.94 66.36,251.94 66.81,251.94 67.27,251.94 67.72,251.94 68.18,251.94 68.63,251.94 69.08,251.94 69.54,251.94 69.99,251.94 70.45,251.94 70.90,251.94 71.36,251.94 71.81,251.94 72.26,251.94 72.72,251.94 73.17,303.13 73.63,303.13 74.08,303.13 74.54,303.13 74.99,303.13 75.44,303.13 75.90,337.25 76.35,303.13 76.81,303.13 77.26,303.13 77.72,303.13 78.17,303.13 78.62,303.13 79.08,303.13 79.53,303.13 79.99,303.13 80.44,303.13 80.90,303.13 81.35,303.13 81.80,303.13 82.26,303.13 82.71,303.13 83.17,303.13 83.62,337.25 84.07,360.00 84.53,337.25 84.98,337.25 85.44,337.25 85.89,337.25 86.35,337.25 86.80,337.25 87.25,337.25 87.71,337.25 88.16,337.25 88.62,337.25 89.07,337.25 89.53,337.25 89.98,337.25 90.43,337.25 90.89,337.25 91.34,337.25 91.80,337.25 92.25,337.25 92.71,337.25 93.16,337.25 93.61,337.25 94.07,337.25 94.52,337.25 94.98,337.25 95.43,337.25 95.89,337.25 96.34,337.25 96.79,360.00 97.25,360.00 97.70,360.00 98.16,360.00 98.61,360.00 99.06,360.00 99.52,360.00 99.97,360.00 100.43,360.00 100.88,360.00 101.34,360.00 101.79,360.00 102.24,360.00 102.70,360.00 103.15,360.00 103.61,360.00 104.06,360.00 104.52,360.00 104.97,360.00 105.42,360.00 105.88,360.00 106.33,360.00 106.79,360.00 107.24,360.00 107.70,360.00 108.15,360.00 108.60,360.00 109.06,360.00 109.51,360.00 109.97,360.00 110.42,360.00 110.88,360.00 111.33,360.00 111.78,360.00 112.24,360.00 112.69,360.00 113.15,360.00 113.60,360.00 114.05,360.00 114.51,360.00 114.96,360.00 115.42,360.00 115.87,360.00 116.33,360.00 116.78,360.00 117.23,360.00 117.69,360.00 118.14,360.00 118.60,360.00 119.05,360.00 119.51,360.00 119.96,360.00 120.41,360.00 120.87,360.00 121.32,360.00 121.78,360.00 122.23,360.00 122.69,360.00 123.14,360.00 123.59,360.00 124.05,360.00 124.50,360.00 124.96,360.00 125.41,360.00 125.87,360.00 126.32,360.00 126.77,360.00 127.23,360.00 127.68,360.00 128.14,360.00 128.59,360.00 129.04,360.00 129.50,360.00 129.95,360.00 130.41,360.00 130.86,360.00 131.32,360.00 131.77,360.00 132.22,360.00 132.68,360.00 133.13,360.00 133.59,360.00 134.04,360.00 134.50,360.00 134.95,360.00 135.40,360.00 135.86,360.00 136.31,360.00 136.77,360.00 137.22,360.00 137.68,360.00 138.13,360.00 138.58,360.00 139.04,360.00 139.49,360.00 139.95,360.00 140.40,360.00 140.86,360.00 141.31,360.00 141.76,360.00 142.22,360.00 142.67,360.00 143.13,360.00 143.58,360.00 144.03,360.00 144.49,360.00 144.94,360.00 145.40,360.00 145.85,360.00 146.31,360.00 146.76,360.00 147.21,360.00 147.67,360.00 148.12,360.00 148.58,360.00 149.03,360.00 149.49,360.00 149.94,360.00 150.39,360.00 150.85,360.00 151.30,360.00 151.76,360.00 152.21,360.00 152.67,360.00 153.12,360.00 153.57,360.00 154.03,360.00 154.48,360.00 154.94,360.00 155.39,360.00 155.85,360.00 156.30,360.00 156.75,360.00 157.21,360.00 157.66,360.00 158.12,360.00 158.57,360.00 159.02,360.00 159.48,360.00 159.93,360.00 160.39,360.00 160.84,360.00 161.30,360.00 161.75,360.00 162.20,360.00 162.66,360.00 163.11,360.00 163.57,360.00 164.02,360.00 164.48,360.00 164.93,360.00 165.38,360.00 165.84,360.00 166.29,360.00 166.75,360.00 167.20,360.00 167.66,360.00 168.11,360.00 168.56,360.00 169.02,360.00 169.47,360.00 169.93,360.00 170.38,360.00 170.84,360.00 171.29,360.00 171.74,360.00 172.20,360.00 172.65,360.00 173.11,360.00 173.56,360.00 174.01,360.00 174.47,360.00 174.92,360.00 175.38,360.00 175.83,360.00 176.29,360.00 176.74,360.00 177.19,360.00 177.65,360.00 178.10,360.00 178.56,360.00 179.01,360.00 179.47,360.00 179.92,360.00 180.37,360.00 180.83,360.00 181.28,360.00 181.74,360.00 182.19,360.00 182.65,360.00 183.10,360.00 183.55,360.00 184.01,360.00 184.46,360.00 184.92,360.00 185.37,360.00 185.82,360.00 186.28,360.00 186.73,360.00 187.19,360.00 187.64,360.00 188.10,360.00 188.55,360.00 189.00,360.00 189.46,360.00 189.91,360.00 190.37,360.00 190.82,360.00 191.28,360.00 191.73,360.00 192.18,360.00 192.64,360.00 193.09,360.00 193.55,360.00 194.00,360.00 194.46,360.00 194.91,360.00 195.36,360.00 195.82,360.00 196.27,360.00 196.73,360.00 197.18,360.00 197.64,360.00 198.09,360.00 198.54,360.00 199.00,360.00 199.45,360.00 199.91,360.00 200.36,337.25 200.81,337.25 201.27,337.25 201.72,360.00 202.18,360.00 202.63,360.00 203.09,360.00 203.54,360.00 203.99,360.00 204.45,360.00 204.90,360.00 205.36,360.00 205.81,360.00 206.27,360.00 206.72,360.00 207.17,360.00 207.63,360.00 208.08,360.00 208.54,360.00 208.99,360.00 209.45,360.00 209.90,360.00 210.35,360.00 210.81,360.00 211.26,360.00 211.72,360.00 212.17,360.00 212.63,360.00 213.08,360.00 213.53,360.00 213.99,360.00 214.44,360.00 214.90,360.00 215.35,360.00 215.80,360.00 216.26,360.00 216.71,360.00 217.17,360.00 217.62,360.00 218.08,360.00 218.53,360.00 218.98,360.00 219.44,360.00 219.89,360.00 220.35,360.00 220.80,360.00 221.26,360.00 221.71,360.00 222.16,360.00 222.62,360.00 223.07,360.00 223.53,360.00 223.98,360.00 224.44,360.00 224.89,360.00 225.34,360.00 225.80,360.00 226.25,360.00 226.71,360.00 227.16,360.00 227.62,360.00 228.07,360.00 228.52,360.00 228.98,360.00 229.43,360.00 229.89,360.00 230.34,360.00 230.79,360.00 231.25,360.00 231.70,360.00 232.16,360.00 232.61,360.00 233.07,360.00 233.52,360.00 233.97,360.00 234.43,360.00 234.88,360.00 235.34,360.00 235.79,360.00 236.25,360.00 236.70,360.00 237.15,360.00 237.61,360.00 238.06,360.00 238.52,360.00 238.97,360.00 239.43,360.00 239.88,360.00 240.33,360.00 240.79,360.00 241.24,360.00 241.70,360.00 242.15,360.00 242.61,360.00 243.06,360.00 243.51,360.00 243.97,360.00 244.42,360.00 244.88,360.00 245.33,360.00 245.78,360.00 246.24,360.00 246.69,360.00 247.15,360.00 247.60,360.00 248.06,360.00 248.51,360.00 248.96,360.00 249.42,360.00 249.87,360.00 250.33,360.00 250.78,360.00 251.24,360.00 251.69,360.00 252.14,360.00 252.60,360.00 253.05,360.00 253.51,360.00 253.96,360.00 254.42,360.00 254.87,360.00 255.32,360.00 255.78,360.00 256.23,360.00 256.69,360.00 257.14,360.00 257.60,360.00 258.05,360.00 258.50,360.00 258.96,360.00 259.41,360.00 259.87,360.00 260.32,360.00 260.77,360.00 261.23,360.00 261.68,360.00 262.14,360.00 262.59,360.00 263.05,360.00 263.50,360.00 263.95,360.00 264.41,360.00 264.86,360.00 265.32,360.00 265.77,360.00 266.23,360.00 266.68,360.00 267.13,360.00 267.59,360.00 268.04,360.00 268.50,360.00 268.95,360.00 269.41,360.00 269.86,360.00 270.31,360.00 270.77,360.00 271.22,360.00 271.68,360.00 272.13,360.00 272.59,360.00 273.04,360.00 273.49,360.00 273.95,360.00 274.40,360.00 274.86,360.00 275.31,360.00 275.76,360.00 276.22,360.00 276.67,360.00 277.13,360.00 277.58,360.00 278.04,360.00 278.49,360.00 278.94,360.00 279.40,360.00 279.85,360.00 280.31,360.00 280.76,360.00 281.22,360.00 281.67,360.00 282.12,360.00 282.58,360.00 283.03,360.00 283.49,360.00 283.94,360.00 284.40,360.00 284.85,360.00 285.30,360.00 285.76,360.00 286.21,360.00 286.67,360.00 287.12,360.00 287.58,360.00 288.03,360.00 288.48,360.00 288.94,360.00 289.39,360.00 289.85,360.00 290.30,360.00 290.75,360.00 291.21,360.00 291.66,360.00 292.12,360.00 292.57,360.00 293.03,360.00 293.48,360.00 293.93,360.00 294.39,360.00 294.84,360.00 295.30,360.00 295.75,360.00 296.21,360.00 296.66,360.00 297.11,360.00 297.57,360.00 298.02,360.00 298.48,360.00 298.93,360.00 299.39,360.00 299.84,360.00 300.29,360.00 300.75,360.00 301.20,360.00 301.66,360.00 302.11,360.00 302.57,360.00 303.02,360.00 303.47,360.00 303.93,360.00 304.38,360.00 304.84,360.00 305.29,360.00 305.74,360.00 306.20,360.00 306.65,360.00 307.11,360.00 307.56,360.00 308.02,360.00 308.47,360.00 308.92,360.00 309.38,360.00 309.83,360.00 310.29,360.00 310.74,360.00 311.20,360.00 311.65,360.00 312.10,360.00 312.56,360.00 313.01,360.00 313.47,360.00 313.92,360.00 314.38,360.00 314.83,360.00 315.28,360.00 315.74,360.00 316.19,360.00 316.65,360.00 317.10,360.00 317.56,360.00 318.01,360.00 318.46,360.00 318.92,360.00 319.37,360.00 319.83,360.00 320.28,360.00 320.73,360.00 321.19,360.00 321.64,360.00 322.10,360.00 322.55,360.00 323.01,360.00 323.46,360.00 323.91,360.00 324.37,360.00 324.82,360.00 325.28,360.00 325.73,360.00 326.19,360.00 326.64,360.00 327.09,360.00 327.55,360.00 328.00,360.00 328.46,360.00 328.91,360.00 329.37,360.00 329.82,360.00 330.27,360.00 330.73,360.00 331.18,360.00 331.64,360.00 332.09,360.00 332.55,360.00 333.00,360.00 333.45,360.00 333.91,360.00 334.36,360.00 334.82,360.00 335.27,360.00 335.72,360.00 336.18,360.00 336.63,360.00 337.09,360.00 337.54,360.00 338.00,360.00 338.45,360.00 338.90,360.00 339.36,360.00 339.81,360.00 340.27,360.00 340.72,360.00 341.18,360.00 341.63,360.00 342.08,360.00 342.54,360.00 342.99,360.00 343.45,360.00 343.90,360.00 344.36,360.00 344.81,360.00 345.26,360.00 345.72,360.00 346.17,360.00 346.63,360.00 347.08,360.00 347.54,360.00 347.99,360.00 348.44,360.00 348.90,360.00 349.35,360.00 349.81,360.00 350.26,360.00 350.71,360.00 351.17,360.00 351.62,360.00 352.08,360.00 352.53,360.00 352.99,360.00 353.44,360.00 353.89,360.00 354.35,360.00 354.80,360.00 355.26,360.00 355.71,360.00 356.17,360.00 356.62,360.00 357.07,360.00 357.53,360.00 357.98,360.00 358.44,360.00 358.89,360.00 359.35,360.00 359.80,360.00 360.25,360.00 360.71,360.00 361.16,360.00 361.62,360.00 362.07,360.00 362.53,360.00 362.98,360.00 363.43,360.00 363.89,360.00 364.34,360.00 364.80,360.00 365.25,360.00 365.70,360.00 366.16,360.00 366.61,360.00 367.07,360.00 367.52,360.00 367.98,360.00 368.43,360.00 368.88,360.00 369.34,360.00 369.79,360.00 370.25,360.00 370.70,360.00 371.16,360.00 371.61,360.00 372.06,360.00 372.52,360.00 372.97,360.00 373.43,360.00 373.88,360.00 374.34,360.00 374.79,360.00 375.24,360.00 375.70,360.00 376.15,360.00 376.61,360.00 377.06,360.00 377.52,360.00 377.97,360.00 378.42,360.00 378.88,360.00 379.33,360.00 379.79,360.00 380.24,360.00 380.69,360.00 381.15,360.00 381.60,360.00 382.06,360.00 382.51,360.00 382.97,360.00 383.42,360.00 383.87,360.00 384.33,360.00 384.78,360.00 385.24,360.00 385.69,360.00 386.15,360.00 386.60,360.00 387.05,360.00 387.51,360.00 387.96,360.00 388.42,360.00 388.87,360.00 389.33,360.00 389.78,360.00 390.23,360.00 390.69,360.00 391.14,360.00 391.60,360.00 392.05,360.00 392.51,360.00 392.96,360.00 393.41,360.00 393.87,360.00 394.32,360.00 394.78,360.00 395.23,360.00 395.68,360.00 396.14,360.00 396.59,360.00 397.05,360.00 397.50,360.00 397.96,360.00 398.41,360.00 398.86,360.00 399.32,360.00 399.77,360.00 400.23,360.00 400.68,360.00 401.14,360.00 401.59,360.00 402.04,360.00 402.50,360.00 402.95,360.00 403.41,360.00 403.86,360.00 404.32,360.00 404.77,360.00 405.22,360.00 405.68,360.00 406.13,360.00 406.59,360.00 407.04,360.00 407.49,360.00 407.95,360.00 408.40,360.00 408.86,360.00 409.31,360.00 409.77,360.00 410.22,360.00 410.67,360.00 411.13,360.00 411.58,360.00 412.04,360.00 412.49,360.00 412.95,360.00 413.40,360.00 413.85,360.00 414.31,360.00 414.76,360.00 415.22,360.00 415.67,360.00 416.13,360.00 416.58,360.00 417.03,360.00 417.49,360.00 417.94,360.00 418.40,360.00 418.85,360.00 419.31,360.00 419.76,360.00 420.21,360.00 420.67,360.00 421.12,360.00 421.58,360.00 422.03,360.00 422.48,360.00 422.94,360.00 423.39,360.00 423.85,360.00 424.30,360.00 424.76,360.00 425.21,360.00 425.66,360.00 426.12,360.00 426.57,360.00 427.03,360.00 427.48,360.00 427.94,360.00 428.39,360.00 428.84,360.00 429.30,360.00 429.75,360.00 430.21,360.00 430.66,360.00 431.12,360.00 431.57,360.00 432.02,360.00 432.48,360.00 432.93,360.00 433.39,360.00 433.84,360.00 434.30,360.00 434.75,360.00 435.20,360.00 435.66,360.00 436.11,360.00 436.57,360.00 437.02,360.00 437.47,360.00 437.93,360.00 438.38,360.00 438.84,360.00 439.29,360.00 439.75,360.00 440.20,360.00 440.65,360.00 441.11,360.00 441.56,360.00 442.02,360.00 442.47,360.00 442.93,360.00 443.38,360.00 443.83,360.00 444.29,360.00 444.74,360.00 445.20,360.00 445.65,360.00 446.11,360.00 446.56,360.00 447.01,360.00 447.47,360.00 447.92,360.00 448.38,360.00 448.83,360.00 449.29,360.00 449.74,360.00 450.19,360.00 450.65,360.00 451.10,360.00 451.56,360.00 452.01,360.00 452.46,360.00 452.92,360.00 453.37,360.00 453.83,360.00 454.28,360.00 454.74,360.00 455.19,360.00 455.64,360.00 456.10,360.00 456.55,360.00 457.01,360.00 457.46,360.00 457.92,360.00 458.37,360.00 458.82,360.00 459.28,360.00 459.73,360.00 460.19,360.00 460.64,360.00 461.10,360.00 461.55,360.00 462.00,360.00 462.46,360.00 462.91,360.00 463.37,360.00 463.82,360.00 464.28,360.00 464.73,360.00 465.18,360.00 465.64,360.00 466.09,360.00 466.55,360.00 467.00,360.00 467.45,360.00 467.91,360.00 468.36,360.00 468.82,360.00 469.27,360.00 469.73,360.00 470.18,360.00 470.63,360.00 471.09,360.00 471.54,360.00 472.00,360.00 472.45,360.00 472.91,360.00 473.36,360.00 473.81,360.00 474.27,360.00 474.72,360.00 475.18,360.00 475.63,360.00 476.09,360.00 476.54,360.00 476.99,360.00 477.45,360.00 477.90,360.00 478.36,360.00 478.81,360.00 479.27,360.00 479.72,360.00 480.17,360.00 480.63,360.00 481.08,360.00 481.54,360.00 481.99,360.00 482.44,360.00 482.90,360.00 483.35,360.00 483.81,360.00 484.26,360.00 484.72,360.00 485.17,360.00 485.62,360.00 486.08,360.00 486.53,360.00 486.99,360.00 487.44,360.00 487.90,360.00 488.35,360.00 488.80,360.00 489.26,360.00 489.71,360.00 490.17,360.00 490.62,360.00 491.08,360.00 491.53,360.00 491.98,360.00 492.44,360.00 492.89,360.00 493.35,360.00 493.80,360.00 494.26,360.00 494.71,360.00 495.16,360.00 495.62,360.00 496.07,360.00 496.53,360.00 496.98,360.00 497.43,360.00 497.89,360.00 498.34,360.00 498.80,360.00 499.25,360.00 499.71,360.00 500.16,360.00 500.61,360.00 501.07,360.00 501.52,360.00 501.98,360.00 502.43,360.00 502.89,360.00 503.34,360.00 503.79,360.00 504.25,360.00 504.70,360.00 505.16,360.00 505.61,360.00 506.07,360.00 506.52,360.00 506.97,360.00 507.43,360.00 507.88,360.00 508.34,360.00 508.79,360.00 509.25,360.00 509.70,360.00 510.15,360.00 510.61,360.00 511.06,360.00 511.52,360.00 511.97,360.00 512.42,360.00 512.88,360.00 513.33,360.00 513.79,360.00 514.24,360.00 514.70,360.00 515.15,360.00 515.60,360.00 516.06,360.00 516.51,360.00 516.97,360.00 517.42,360.00 517.88,360.00 518.33,360.00 518.78,360.00 519.24,360.00 519.69,360.00 520.15,360.00 520.60,360.00 521.06,360.00 521.51,360.00 521.96,360.00 522.42,360.00 522.87,360.00 523.33,360.00 523.78,360.00 524.24,360.00 524.69,360.00 525.14,360.00 525.60,360.00 526.05,360.00 526.51,360.00 526.96,360.00 527.41,360.00 527.87,360.00 528.32,360.00 528.78,360.00 529.23,360.00 529.69,360.00 530.14,360.00 530.59,360.00 531.05,360.00 531.50,360.00 531.96,360.00 532.41,360.00 532.87,360.00 533.32,360.00 533.77,360.00 534.23,360.00 534.68,360.00 535.14,360.00 535.59,360.00 536.05,360.00 536.50,360.00 536.95,360.00 537.41,360.00 537.86,360.00 538.32,360.00 538.77,360.00 539.23,360.00 539.68,360.00 540.13,360.00 540.59,360.00 541.04,360.00 541.50,360.00 541.95,360.00 542.40,360.00 542.86,360.00 543.31,360.00 543.77,360.00 544.22,360.00 544.68,360.00 545.13,360.00 545.58,360.00 546.04,360.00 546.49,360.00 546.95,360.00 547.40,360.00 547.86,360.00 548.31,360.00 548.76,360.00 549.22,360.00 549.67,360.00 550.13,360.00 550.58,360.00 551.04,360.00 551.49,360.00 551.94,360.00 552.40,360.00 552.85,360.00 553.31,360.00 553.76,360.00 554.22,360.00 554.67,360.00 555.12,360.00 555.58,360.00 556.03,360.00 556.49,360.00 556.94,360.00 557.39,360.00 557.85,360.00 558.30,360.00 558.76,360.00 559.21,360.00 559.67,360.00 560.12,360.00 560.57,360.00 561.03,360.00 561.48,360.00 561.94,360.00 562.39,360.00 562.85,360.00 563.30,360.00 563.75,360.00 564.21,360.00 564.66,360.00 565.12,360.00 565.57,360.00 566.03,360.00 566.48,360.00 566.93,360.00 567.39,360.00 567.84,360.00 568.30,360.00 568.75,360.00 569.21,360.00 569.66,360.00 570.11,360.00 570.57,360.00 571.02,360.00 571.48,360.00 571.93,360.00 572.38,360.00 572.84,360.00 573.29,360.00 573.75,360.00 574.20,360.00 574.66,360.00 575.11,360.00 575.56,360.00 576.02,360.00 576.47,360.00 576.93,360.00 577.38,360.00 577.84,360.00 578.29,360.00 578.74,360.00 579.20,360.00 579.65,360.00 580.11,360.00 580.56,360.00 581.02,360.00 581.47,360.00 581.92,360.00 582.38,360.00 582.83,360.00 583.29,360.00 583.74,360.00 584.20,360.00 584.65,360.00 585.10,360.00 585.56,360.00 586.01,360.00 586.47,360.00 586.92,360.00 587.37,360.00 587.83,360.00 588.28,360.00 588.74,360.00 589.19,360.00 589.65,360.00 590.10,360.00 590.55,360.00 591.01,360.00 591.46,360.00 591.92,360.00 592.37,360.00 592.83,360.00 593.28,360.00 593.73,360.00 594.19,360.00 594.64,360.00 595.10,360.00 595.55,360.00 596.01,360.00 596.46,360.00 596.91,360.00 597.37,360.00 597.82,360.00 598.28,360.00 598.73,360.00 599.19,360.00 599.64,360.00 600.09,360.00 600.55,360.00 601.00,360.00 601.46,360.00 601.91,360.00 602.36,360.00 602.82,360.00 603.27,360.00 603.73,360.00 604.18,360.00 604.64,360.00 605.09,360.00 605.54,360.00 606.00,360.00 606.45,360.00 606.91,360.00 607.36,360.00 607.82,360.00 608.27,360.00 608.72,360.00 609.18,360.00 609.63,360.00 610.09,360.00 610.54,360.00 611.00,360.00 611.45,360.00 611.90,360.00 612.36,360.00 612.81,360.00 613.27,360.00 613.72,360.00 614.18,360.00 614.63,360.00 615.08,360.00 615.54,360.00 615.99,360.00 616.45,360.00 616.90,360.00 617.35,360.00 617.81,360.00 618.26,360.00 618.72,360.00 619.17,360.00 619.63,360.00 620.08,360.00 620.53,360.00 620.99,360.00 621.44,360.00 621.90,360.00 622.35,360.00 622.81,360.00 623.26,360.00 623.71,360.00 624.17,360.00 624.62,360.00 625.08,360.00 625.53,360.00 625.99,360.00 626.44,360.00 626.89,360.00 627.35,360.00 627.80,360.00 628.26,360.00 628.71,360.00 629.16,360.00 629.62,360.00 630.07,360.00 630.53,360.00 630.98,360.00 631.44,360.00 631.89,360.00 632.34,360.00 632.80,360.00 633.25,360.00 633.71,360.00 634.16,360.00 634.62,360.00 635.07,360.00 635.52,360.00 635.98,360.00 636.43,360.00 636.89,360.00 637.34,360.00 637.80,360.00 638.25,360.00 638.70,360.00 639.16,360.00 639.61,360.00 640.07,360.00 640.52,360.00 640.98,360.00 641.43,360.00 641.88,360.00 642.34,360.00 642.79,360.00 643.25,360.00 643.70,360.00 644.15,360.00 644.61,360.00 645.06,360.00 645.52,360.00 645.97,360.00 646.43,360.00 646.88,360.00 647.33,360.00 647.79,360.00 648.24,360.00 648.70,360.00 649.15,360.00 649.61,360.00 650.06,360.00 650.51,360.00 650.97,360.00 651.42,360.00 651.88,360.00 652.33,360.00 652.79,360.00 653.24,360.00 653.69,360.00 654.15,360.00 654.60,360.00 655.06,360.00 655.51,360.00 655.97,360.00 656.42,360.00 656.87,360.00 657.33,360.00 657.78,360.00 658.24,360.00 658.69,360.00 659.14,360.00 659.60,360.00 660.05,360.00 660.51,360.00 660.96,360.00 661.42,360.00 661.87,360.00 662.32,360.00 662.78,360.00 663.23,360.00 663.69,360.00 664.14,360.00 664.60,360.00 665.05,360.00 665.50,360.00 665.96,360.00 666.41,360.00 666.87,360.00 667.32,360.00 667.78,360.00 668.23,360.00 668.68,360.00 669.14,360.00 669.59,360.00 670.05,360.00 670.50,360.00 670.96,360.00 671.41,360.00 671.86,360.00 672.32,360.00 672.77,360.00 673.23,360.00 673.68,360.00 674.13,360.00 674.59,360.00 675.04,360.00 675.50,360.00 675.95,360.00 676.41,360.00 676.86,360.00 677.31,360.00 677.77,360.00 678.22,360.00 678.68,360.00 679.13,360.00 679.59,360.00 680.04,360.00 680.49,360.00 680.95,360.00 681.40,360.00 681.86,360.00 682.31,360.00 682.77,360.00 683.22,360.00 683.67,360.00 684.13,360.00 684.58,360.00 685.04,360.00 685.49,360.00 685.95,360.00 686.40,360.00 686.85,360.00 687.31,360.00 687.76,360.00 688.22,360.00 688.67,360.00 689.12,360.00 689.58,360.00 690.03,360.00 690.49,360.00 690.94,360.00 691.40,360.00 691.85,360.00 692.30,360.00 692.76,360.00 693.21,360.00 693.67,360.00 694.12,360.00 694.58,360.00 695.03,360.00 695.48,360.00 695.94,360.00 696.39,360.00 696.85,360.00 697.30,360.00 697.76,360.00 698.21,360.00 698.66,360.00 699.12,360.00 699.57,360.00 700.03,360.00 700.48,360.00 700.94,360.00 701.39,360.00 701.84,360.00 702.30,360.00 702.75,360.00 703.21,360.00 703.66,360.00 704.11,360.00 704.57,360.00 705.02,360.00 705.48,360.00 705.93,360.00 706.39,360.00 706.84,360.00 707.29,360.00 707.75,360.00 708.20,360.00 708.66,360.00 709.11,360.00 709.57,360.00 710.02,360.00 710.47,360.00 710.93,360.00 711.38,360.00 711.84,360.00 712.29,360.00 712.75,360.00 713.20,360.00 713.65,360.00 714.11,360.00 714.56,360.00 715.02,360.00 715.47,360.00 715.93,360.00 716.38,360.00 716.83,360.00 717.29,360.00 717.74,360.00 718.20,360.00 718.65,360.00 719.10,360.00 719.56,360.00 720.01,360.00 720.47,360.00 720.92,360.00 721.38,360.00 721.83,360.00 722.28,360.00 722.74,360.00 723.19,360.00 723.65,360.00 724.10,360.00 724.56,360.00 725.01,360.00 725.46,360.00 725.92,360.00 726.37,360.00 726.83,360.00 727.28,360.00 727.74,360.00 728.19,360.00 728.64,360.00 729.10,360.00 729.55,360.00 730.01,360.00 730.46,360.00 730.92,360.00 731.37,360.00 731.82,360.00 732.28,360.00 732.73,360.00 733.19,360.00 733.64,360.00 734.09,360.00 734.55,360.00 735.00,360.00 735.46,360.00 735.91,360.00 736.37,360.00 736.82,360.00 737.27,360.00 737.73,360.00 738.18,360.00 738.64,360.00 739.09,360.00 739.55,360.00 740.00,360.00" />
</svg>
