<svg xmlns="http://www.w3.org/2000/svg" width="800" height="420">
  <rect x="0" y="0" width="800" height="420" fill="#ffffff" />
  <line x1="60" y1="360" x2="740" y2="360" stroke="#333333" stroke-width="2" />
  <line x1="60" y1="60" x2="60" y2="360" stroke="#333333" stroke-width="2" />
  <text x="400.0" y="30" text-anchor="middle" font-size="22" font-family="Arial">Policy Entropy</text>
  <text x="400.0" y="405" text-anchor="middle" font-size="16" font-family="Arial">Batch</text>
  <text x="24" y="210.0" text-anchor="middle" font-size="16" font-family="Arial" transform="rotate(-90 24 210.0)">Entropy</text>
  <text x="60" y="50" font-size="13" font-family="Arial">4.103</text>
  <text x="60" y="380" font-size="13" font-family="Arial">1.619</text>
  <text x="60" y="395" font-size="13" font-family="Arial">3</text>
  <text x="740" y="395" text-anchor="end" font-size="13" font-family="Arial">1500</text>
  <polyline fill="none" stroke="#ea580c" stroke-width="3" points="60.00,60.00 60.45,61.95 60.91,72.67 61.36,76.97 61.82,76.31 62.27,76.94 62.73,82.95 63.18,88.92 63.63,91.36 64.09,95.52 64.54,98.29 65.00,95.65 65.45,91.06 65.91,101.65 66.36,97.71 66.81,103.14 67.27,107.32 67.72,103.73 68.18,103.38 68.63,103.80 69.08,106.04 69.54,110.34 69.99,107.41 70.45,110.99 70.90,108.75 71.36,106.38 71.81,111.01 72.26,108.19 72.72,120.94 73.17,117.90 73.63,110.11 74.08,112.61 74.54,116.16 74.99,111.89 75.44,121.02 75.90,118.86 76.35,119.75 76.81,122.99 77.26,116.32 77.72,120.60 78.17,121.77 78.62,126.98 79.08,124.30 79.53,127.39 79.99,124.55 80.44,125.62 80.90,124.61 81.35,132.14 81.80,136.96 82.26,140.48 82.71,139.67 83.17,132.40 83.62,145.40 84.07,142.53 84.53,138.10 84.98,143.14 85.44,144.00 85.89,146.90 86.35,147.32 86.80,149.13 87.25,152.45 87.71,147.09 88.16,148.66 88.62,148.36 89.07,154.34 89.53,159.56 89.98,154.92 90.43,156.36 90.89,160.76 91.34,164.73 91.80,154.17 92.25,163.37 92.71,161.45 93.16,165.17 93.61,175.29 94.07,168.51 94.52,166.32 94.98,175.44 95.43,175.09 95.89,178.98 96.34,172.35 96.79,176.95 97.25,182.91 97.70,184.94 98.16,185.28 98.61,179.58 99.06,178.85 99.52,181.67 99.97,187.41 100.43,185.32 100.88,186.32 101.34,187.29 101.79,189.72 102.24,192.94 102.70,198.48 103.15,192.92 103.61,192.67 104.06,196.88 104.52,200.19 104.97,201.73 105.42,199.80 105.88,199.10 106.33,198.41 106.79,201.55 107.24,205.39 107.70,210.21 108.15,209.00 108.60,213.78 109.06,211.78 109.51,209.14 109.97,213.69 110.42,211.67 110.88,217.02 111.33,215.56 111.78,215.54 112.24,221.77 112.69,219.81 113.15,215.59 113.60,224.36 114.05,227.05 114.51,228.09 114.96,218.27 115.42,223.28 115.87,232.94 116.33,232.04 116.78,232.65 117.23,231.03 117.69,233.07 118.14,231.50 118.60,236.13 119.05,233.94 119.51,231.03 119.96,241.16 120.41,241.51 120.87,235.42 121.32,236.82 121.78,240.79 122.23,241.40 122.69,236.27 123.14,236.97 123.59,243.19 124.05,241.17 124.50,245.59 124.96,244.12 125.41,242.85 125.87,244.10 126.32,247.51 126.77,246.23 127.23,251.32 127.68,247.12 128.14,247.42 128.59,248.07 129.04,247.66 129.50,246.85 129.95,248.16 130.41,245.76 130.86,247.00 131.32,250.69 131.77,245.19 132.22,253.15 132.68,254.14 133.13,253.15 133.59,252.08 134.04,249.15 134.50,250.23 134.95,250.77 135.40,254.87 135.86,250.22 136.31,251.74 136.77,255.27 137.22,252.14 137.68,252.14 138.13,254.66 138.58,251.87 139.04,251.87 139.49,254.64 139.95,254.98 140.40,252.38 140.86,257.24 141.31,257.49 141.76,255.71 142.22,254.73 142.67,251.96 143.13,250.14 143.58,252.22 144.03,260.77 144.49,259.46 144.94,255.66 145.40,253.09 145.85,256.73 146.31,260.58 146.76,261.35 147.21,257.86 147.67,259.13 148.12,258.03 148.58,261.38 149.03,260.04 149.49,260.07 149.94,261.51 150.39,260.10 150.85,260.98 151.30,264.45 151.76,259.52 152.21,262.64 152.67,263.99 153.12,266.70 153.57,268.21 154.03,263.54 154.48,266.19 154.94,269.86 155.39,265.22 155.85,266.06 156.30,264.20 156.75,269.30 157.21,268.24 157.66,268.19 158.12,268.78 158.57,269.54 159.02,269.87 159.48,263.59 159.93,268.77 160.39,267.87 160.84,268.89 161.30,271.34 161.75,269.99 162.20,273.82 162.66,279.27 163.11,272.14 163.57,268.41 164.02,265.37 164.48,273.01 164.93,276.03 165.38,273.11 165.84,271.46 166.29,272.66 166.75,273.44 167.20,276.23 167.66,271.14 168.11,271.90 168.56,272.61 169.02,274.87 169.47,271.34 169.93,275.17 170.38,274.44 170.84,274.29 171.29,281.00 171.74,279.08 172.20,273.70 172.65,266.55 173.11,275.56 173.56,276.25 174.01,274.72 174.47,278.39 174.92,276.02 175.38,273.60 175.83,281.17 176.29,278.64 176.74,273.90 177.19,277.98 177.65,280.63 178.10,274.71 178.56,273.32 179.01,278.93 179.47,276.53 179.92,270.16 180.37,276.63 180.83,281.10 181.28,280.73 181.74,273.65 182.19,276.17 182.65,281.35 183.10,279.64 183.55,280.63 184.01,281.23 184.46,278.80 184.92,275.40 185.37,274.79 185.82,283.76 186.28,282.34 186.73,280.28 187.19,283.71 187.64,283.22 188.10,286.12 188.55,278.45 189.00,277.84 189.46,282.06 189.91,286.06 190.37,282.76 190.82,282.24 191.28,289.00 191.73,281.20 192.18,281.18 192.64,282.38 193.09,285.35 193.55,276.68 194.00,282.47 194.46,285.28 194.91,284.30 195.36,279.13 195.82,276.86 196.27,281.02 196.73,280.89 197.18,283.01 197.64,284.70 198.09,284.82 198.54,286.40 199.00,286.62 199.45,286.54 199.91,281.08 200.36,283.98 200.81,282.14 201.27,283.51 201.72,286.12 202.18,291.99 202.63,282.78 203.09,277.95 203.54,291.67 203.99,285.37 204.45,281.12 204.90,293.96 205.36,286.38 205.81,286.79 206.27,287.92 206.72,292.19 207.17,284.02 207.63,289.81 208.08,293.00 208.54,291.39 208.99,290.03 209.45,283.24 209.90,294.16 210.35,291.91 210.81,293.96 211.26,287.19 211.72,298.10 212.17,286.69 212.63,293.58 213.08,293.04 213.53,293.22 213.99,294.97 214.44,293.51 214.90,290.29 215.35,299.58 215.80,297.20 216.26,291.03 216.71,300.91 217.17,295.76 217.62,303.71 218.08,300.98 218.53,296.39 218.98,303.93 219.44,302.54 219.89,295.30 220.35,300.33 220.80,298.03 221.26,304.51 221.71,303.89 222.16,299.33 222.62,308.22 223.07,308.31 223.53,306.83 223.98,307.79 224.44,304.70 224.89,304.01 225.34,307.07 225.80,311.47 226.25,308.13 226.71,305.16 227.16,304.39 227.62,306.54 228.07,303.64 228.52,308.02 228.98,308.08 229.43,311.88 229.89,309.05 230.34,313.93 230.79,308.94 231.25,306.38 231.70,309.33 232.16,308.93 232.61,309.92 233.07,313.12 233.52,315.75 233.97,305.96 234.43,312.31 234.88,312.26 235.34,311.43 235.79,309.79 236.25,312.17 236.70,312.10 237.15,318.65 237.61,306.64 238.06,313.77 238.52,320.38 238.97,303.12 239.43,321.06 239.88,314.16 240.33,322.68 240.79,306.94 241.24,315.24 241.70,309.58 242.15,315.54 242.61,310.47 243.06,316.75 243.51,322.41 243.97,313.04 244.42,321.62 244.88,312.57 245.33,316.34 245.78,317.81 246.24,319.49 246.69,317.33 247.15,319.31 247.60,318.48 248.06,311.47 248.51,313.79 248.96,310.19 249.42,314.56 249.87,313.36 250.33,325.73 250.78,311.11 251.24,327.55 251.69,319.11 252.14,312.57 252.60,323.71 253.05,313.03 253.51,322.49 253.96,312.34 254.42,322.16 254.87,318.97 255.32,314.76 255.78,319.86 256.23,317.42 256.69,326.18 257.14,311.85 257.60,317.64 258.05,312.12 258.50,316.97 258.96,318.38 259.41,319.83 259.87,318.12 260.32,322.27 260.77,320.74 261.23,319.22 261.68,318.50 262.14,317.81 262.59,326.59 263.05,316.56 263.50,326.65 263.95,319.57 264.41,323.53 264.86,329.29 265.32,314.68 265.77,333.34 266.23,319.25 266.68,326.19 267.13,321.16 267.59,321.07 268.04,323.33 268.50,321.91 268.95,324.96 269.41,330.37 269.86,323.68 270.31,329.33 270.77,331.24 271.22,329.63 271.68,321.92 272.13,338.09 272.59,327.86 273.04,328.98 273.49,323.11 273.95,334.00 274.40,324.25 274.86,331.73 275.31,323.95 275.76,325.27 276.22,336.69 276.67,327.10 277.13,329.14 277.58,328.11 278.04,330.04 278.49,342.29 278.94,334.00 279.40,322.88 279.85,339.62 280.31,326.81 280.76,336.11 281.22,322.83 281.67,329.71 282.12,330.03 282.58,331.27 283.03,327.37 283.49,327.68 283.94,322.51 284.40,330.22 284.85,330.64 285.30,334.71 285.76,326.83 286.21,331.81 286.67,331.50 287.12,331.76 287.58,332.91 288.03,332.57 288.48,332.27 288.94,332.27 289.39,328.59 289.85,327.28 290.30,330.91 290.75,329.59 291.21,334.03 291.66,325.95 292.12,328.48 292.57,330.92 293.03,331.51 293.48,329.59 293.93,331.27 294.39,333.19 294.84,324.66 295.30,338.01 295.75,333.61 296.21,330.83 296.66,328.77 297.11,332.71 297.57,335.74 298.02,326.21 298.48,331.39 298.93,336.59 299.39,333.09 299.84,335.15 300.29,331.19 300.75,329.83 301.20,338.12 301.66,336.00 302.11,334.41 302.57,330.99 303.02,327.59 303.47,332.71 303.93,335.06 304.38,335.45 304.84,336.92 305.29,333.55 305.74,333.78 306.20,335.85 306.65,334.50 307.11,333.08 307.56,337.52 308.02,341.16 308.47,334.31 308.92,335.69 309.38,324.16 309.83,336.10 310.29,337.59 310.74,331.92 311.20,330.71 311.65,324.96 312.10,333.80 312.56,334.43 313.01,335.00 313.47,331.80 313.92,332.05 314.38,347.01 314.83,340.04 315.28,339.86 315.74,339.04 316.19,331.64 316.65,338.08 317.10,342.63 317.56,337.36 318.01,334.00 318.46,332.41 318.92,339.66 319.37,343.33 319.83,334.50 320.28,334.13 320.73,324.73 321.19,338.12 321.64,334.42 322.10,339.13 322.55,324.85 323.01,338.58 323.46,341.03 323.91,341.60 324.37,336.92 324.82,337.85 325.28,335.25 325.73,336.59 326.19,330.44 326.64,332.74 327.09,339.32 327.55,344.31 328.00,343.47 328.46,335.51 328.91,325.76 329.37,345.24 329.82,331.81 330.27,338.32 330.73,335.16 331.18,335.11 331.64,330.14 332.09,331.47 332.55,329.51 333.00,336.26 333.45,338.59 333.91,346.12 334.36,346.01 334.82,333.91 335.27,335.14 335.72,336.20 336.18,343.22 336.63,348.92 337.09,342.68 337.54,352.07 338.00,338.52 338.45,331.34 338.90,345.36 339.36,334.76 339.81,345.39 340.27,333.95 340.72,334.39 341.18,342.25 341.63,337.16 342.08,340.86 342.54,333.03 342.99,339.75 343.45,331.54 343.90,343.85 344.36,343.87 344.81,345.22 345.26,333.76 345.72,332.52 346.17,338.23 346.63,331.14 347.08,337.02 347.54,342.04 347.99,333.42 348.44,338.42 348.90,329.50 349.35,344.15 349.81,340.23 350.26,333.93 350.71,336.51 351.17,339.32 351.62,338.91 352.08,330.06 352.53,338.65 352.99,334.37 353.44,336.92 353.89,337.08 354.35,340.94 354.80,343.47 355.26,341.92 355.71,341.41 356.17,328.94 356.62,340.78 357.07,335.57 357.53,334.76 357.98,330.47 358.44,338.27 358.89,340.94 359.35,332.76 359.80,335.90 360.25,335.01 360.71,339.88 361.16,338.87 361.62,329.18 362.07,334.90 362.53,333.59 362.98,343.61 363.43,326.77 363.89,330.58 364.34,336.72 364.80,332.61 365.25,330.84 365.70,340.25 366.16,344.69 366.61,335.92 367.07,339.96 367.52,338.09 367.98,337.35 368.43,334.38 368.88,341.67 369.34,342.25 369.79,335.54 370.25,341.27 370.70,343.43 371.16,335.38 371.61,340.37 372.06,338.21 372.52,332.47 372.97,336.20 373.43,337.12 373.88,344.27 374.34,331.45 374.79,334.83 375.24,338.00 375.70,332.00 376.15,341.45 376.61,336.50 377.06,335.77 377.52,336.32 377.97,342.34 378.42,341.55 378.88,343.69 379.33,337.69 379.79,342.04 380.24,328.45 380.69,340.95 381.15,333.72 381.60,333.69 382.06,329.01 382.51,337.62 382.97,338.96 383.42,334.49 383.87,343.54 384.33,338.75 384.78,341.74 385.24,341.06 385.69,337.57 386.15,340.01 386.60,342.12 387.05,348.14 387.51,336.66 387.96,341.73 388.42,337.83 388.87,337.81 389.33,336.29 389.78,336.41 390.23,333.61 390.69,335.62 391.14,328.61 391.60,335.07 392.05,332.66 392.51,338.08 392.96,331.63 393.41,336.46 393.87,328.59 394.32,331.58 394.78,332.32 395.23,337.54 395.68,331.26 396.14,330.12 396.59,341.78 397.05,336.23 397.50,328.22 397.96,327.70 398.41,323.84 398.86,331.45 399.32,328.86 399.77,327.60 400.23,333.65 400.68,323.57 401.14,323.17 401.59,323.74 402.04,325.24 402.50,334.95 402.95,322.61 403.41,331.54 403.86,321.73 404.32,331.24 404.77,325.92 405.22,323.57 405.68,326.71 406.13,328.31 406.59,332.40 407.04,326.10 407.49,319.93 407.95,329.96 408.40,320.84 408.86,329.81 409.31,325.77 409.77,339.02 410.22,323.31 410.67,325.74 411.13,326.20 411.58,324.37 412.04,325.70 412.49,324.38 412.95,333.06 413.40,318.03 413.85,329.43 414.31,322.67 414.76,330.04 415.22,315.20 415.67,318.61 416.13,325.33 416.58,321.80 417.03,321.06 417.49,320.22 417.94,328.23 418.40,329.55 418.85,323.06 419.31,329.22 419.76,327.94 420.21,318.65 420.67,323.84 421.12,327.56 421.58,333.09 422.03,333.16 422.48,323.71 422.94,326.98 423.39,322.74 423.85,329.15 424.30,330.53 424.76,331.54 425.21,328.91 425.66,335.14 426.12,334.96 426.57,333.03 427.03,324.12 427.48,334.56 427.94,329.43 428.39,331.47 428.84,330.15 429.30,325.08 429.75,326.98 430.21,333.93 430.66,328.55 431.12,333.58 431.57,327.10 432.02,328.29 432.48,338.32 432.93,323.39 433.39,330.98 433.84,330.12 434.30,330.87 434.75,323.84 435.20,336.65 435.66,329.60 436.11,340.44 436.57,326.50 437.02,335.57 437.47,324.17 437.93,338.75 438.38,339.50 438.84,333.64 439.29,339.10 439.75,334.87 440.20,337.78 440.65,341.32 441.11,332.27 441.56,338.35 442.02,339.05 442.47,342.04 442.93,339.21 443.38,342.41 443.83,338.11 444.29,346.38 444.74,341.97 445.20,346.76 445.65,335.65 446.11,347.70 446.56,342.82 447.01,345.64 447.47,340.35 447.92,340.85 448.38,340.11 448.83,343.13 449.29,337.14 449.74,347.51 450.19,339.21 450.65,344.80 451.10,343.69 451.56,339.89 452.01,347.14 452.46,338.81 452.92,341.36 453.37,336.01 453.83,348.22 454.28,342.61 454.74,348.00 455.19,346.33 455.64,350.91 456.10,340.63 456.55,346.22 457.01,345.35 457.46,346.62 457.92,346.70 458.37,345.78 458.82,340.21 459.28,344.42 459.73,349.85 460.19,335.95 460.64,345.31 461.10,346.03 461.55,348.25 462.00,350.20 462.46,341.96 462.91,348.21 463.37,342.21 463.82,347.99 464.28,344.86 464.73,344.22 465.18,351.08 465.64,338.92 466.09,345.55 466.55,350.47 467.00,347.09 467.45,349.40 467.91,340.79 468.36,354.57 468.82,346.50 469.27,352.40 469.73,343.56 470.18,350.53 470.63,348.85 471.09,348.16 471.54,351.31 472.00,345.02 472.45,347.04 472.91,336.45 473.36,345.17 473.81,348.24 474.27,344.13 474.72,343.44 475.18,350.72 475.63,349.15 476.09,346.96 476.54,349.48 476.99,349.08 477.45,350.75 477.90,340.25 478.36,350.52 478.81,339.87 479.27,349.11 479.72,344.90 480.17,348.60 480.63,348.23 481.08,339.32 481.54,347.91 481.99,345.27 482.44,343.62 482.90,341.42 483.35,346.31 483.81,340.37 484.26,343.35 484.72,333.22 485.17,349.78 485.62,336.76 486.08,347.62 486.53,343.58 486.99,351.80 487.44,341.43 487.90,348.68 488.35,350.07 488.80,340.91 489.26,343.79 489.71,346.23 490.17,334.73 490.62,344.00 491.08,347.53 491.53,338.63 491.98,346.39 492.44,337.38 492.89,346.07 493.35,346.20 493.80,336.53 494.26,342.70 494.71,339.25 495.16,340.67 495.62,344.96 496.07,342.04 496.53,337.83 496.98,336.88 497.43,340.85 497.89,337.20 498.34,345.47 498.80,337.85 499.25,344.42 499.71,336.33 500.16,337.79 500.61,336.55 501.07,333.91 501.52,342.26 501.98,338.08 502.43,339.23 502.89,339.17 503.34,339.38 503.79,340.33 504.25,339.22 504.70,336.04 505.16,341.96 505.61,341.08 506.07,344.84 506.52,343.50 506.97,347.34 507.43,338.24 507.88,334.82 508.34,330.95 508.79,341.65 509.25,337.37 509.70,347.93 510.15,338.61 510.61,344.53 511.06,339.08 511.52,345.34 511.97,341.68 512.42,347.59 512.88,336.53 513.33,344.91 513.79,337.58 514.24,343.40 514.70,334.06 515.15,344.94 515.60,337.12 516.06,344.87 516.51,340.93 516.97,340.27 517.42,340.70 517.88,338.09 518.33,344.83 518.78,339.30 519.24,341.02 519.69,342.84 520.15,340.01 520.60,340.05 521.06,344.20 521.51,350.05 521.96,340.62 522.42,345.70 522.87,338.76 523.33,344.44 523.78,341.48 524.24,344.05 524.69,342.26 525.14,341.43 525.60,341.80 526.05,337.80 526.51,339.94 526.96,343.81 527.41,340.48 527.87,334.53 528.32,339.78 528.78,336.25 529.23,338.56 529.69,340.05 530.14,340.24 530.59,338.56 531.05,349.27 531.50,341.13 531.96,347.79 532.41,341.51 532.87,340.42 533.32,338.02 533.77,344.23 534.23,346.26 534.68,339.83 535.14,334.48 535.59,339.78 536.05,336.98 536.50,341.88 536.95,339.90 537.41,346.35 537.86,339.74 538.32,345.70 538.77,345.35 539.23,341.11 539.68,339.77 540.13,339.31 540.59,340.07 541.04,340.90 541.50,339.07 541.95,337.63 542.40,340.33 542.86,332.81 543.31,339.87 543.77,337.93 544.22,338.21 544.68,338.96 545.13,338.46 545.58,341.93 546.04,337.99 546.49,339.66 546.95,328.63 547.40,340.62 547.86,337.52 548.31,338.64 548.76,329.77 549.22,335.38 549.67,332.43 550.13,331.25 550.58,338.79 551.04,337.50 551.49,333.17 551.94,329.40 552.40,333.04 552.85,333.04 553.31,333.05 553.76,331.41 554.22,336.98 554.67,328.32 555.12,340.85 555.58,326.06 556.03,324.51 556.49,335.54 556.94,329.26 557.39,332.81 557.85,327.10 558.30,327.08 558.76,328.32 559.21,329.27 559.67,331.56 560.12,331.32 560.57,336.30 561.03,327.59 561.48,337.53 561.94,328.55 562.39,335.12 562.85,331.39 563.30,337.20 563.75,333.46 564.21,333.18 564.66,335.14 565.12,337.02 565.57,340.00 566.03,334.20 566.48,331.07 566.93,334.25 567.39,341.63 567.84,335.11 568.30,336.84 568.75,335.64 569.21,337.84 569.66,332.85 570.11,341.67 570.57,333.62 571.02,340.26 571.48,344.99 571.93,334.93 572.38,343.12 572.84,333.47 573.29,336.10 573.75,344.32 574.20,346.68 574.66,348.53 575.11,335.14 575.56,343.99 576.02,333.24 576.47,336.10 576.93,338.36 577.38,335.46 577.84,341.29 578.29,343.73 578.74,342.69 579.20,340.86 579.65,337.40 580.11,341.88 580.56,341.12 581.02,341.62 581.47,348.62 581.92,343.83 582.38,352.05 582.83,338.73 583.29,348.95 583.74,340.17 584.20,346.78 584.65,341.30 585.10,338.81 585.56,340.66 586.01,342.95 586.47,338.52 586.92,341.25 587.37,348.96 587.83,336.35 588.28,341.28 588.74,341.29 589.19,336.49 589.65,345.28 590.10,342.70 590.55,347.88 591.01,346.33 591.46,342.34 591.92,339.58 592.37,339.76 592.83,352.74 593.28,347.39 593.73,351.73 594.19,342.85 594.64,341.09 595.10,348.53 595.55,346.39 596.01,347.18 596.46,341.31 596.91,346.35 597.37,347.41 597.82,346.71 598.28,339.38 598.73,347.53 599.19,352.85 599.64,337.49 600.09,347.40 600.55,347.48 601.00,341.57 601.46,352.60 601.91,342.84 602.36,349.58 602.82,343.76 603.27,348.83 603.73,345.06 604.18,348.94 604.64,352.90 605.09,347.46 605.54,351.71 606.00,337.26 606.45,348.21 606.91,342.64 607.36,343.45 607.82,342.17 608.27,344.61 608.72,344.91 609.18,335.05 609.63,343.80 610.09,345.78 610.54,351.46 611.00,343.27 611.45,340.73 611.90,347.38 612.36,341.79 612.81,346.12 613.27,344.09 613.72,337.22 614.18,344.11 614.63,335.04 615.08,336.58 615.54,335.03 615.99,338.61 616.45,335.26 616.90,337.11 617.35,334.51 617.81,333.97 618.26,343.29 618.72,334.11 619.17,337.46 619.63,344.39 620.08,344.00 620.53,339.55 620.99,334.88 621.44,338.11 621.90,333.97 622.35,338.62 622.81,338.17 623.26,339.17 623.71,337.16 624.17,342.07 624.62,343.67 625.08,336.20 625.53,339.92 625.99,337.65 626.44,325.31 626.89,328.65 627.35,339.18 627.80,329.27 628.26,335.49 628.71,336.91 629.16,338.74 629.62,342.09 630.07,336.22 630.53,331.44 630.98,334.06 631.44,340.13 631.89,336.79 632.34,336.59 632.80,336.50 633.25,341.62 633.71,341.27 634.16,332.97 634.62,337.68 635.07,338.68 635.52,338.39 635.98,336.24 636.43,334.25 636.89,343.35 637.34,342.60 637.80,339.58 638.25,335.71 638.70,340.22 639.16,346.59 639.61,339.68 640.07,338.09 640.52,341.72 640.98,335.47 641.43,343.09 641.88,338.58 642.34,338.58 642.79,338.91 643.25,341.20 643.70,338.17 644.15,341.55 644.61,337.60 645.06,336.12 645.52,337.16 645.97,339.49 646.43,340.31 646.88,342.45 647.33,343.94 647.79,336.37 648.24,328.56 648.70,335.23 649.15,337.88 649.61,346.91 650.06,331.71 650.51,335.63 650.97,332.66 651.42,335.57 651.88,343.70 652.33,330.84 652.79,330.95 653.24,340.80 653.69,337.16 654.15,333.73 654.60,339.12 655.06,343.78 655.51,339.79 655.97,323.82 656.42,339.33 656.87,335.60 657.33,333.10 657.78,336.92 658.24,334.84 658.69,338.82 659.14,334.49 659.60,335.48 660.05,333.65 660.51,334.90 660.96,340.27 661.42,343.11 661.87,337.81 662.32,341.94 662.78,345.73 663.23,344.95 663.69,342.26 664.14,342.38 664.60,340.64 665.05,344.72 665.50,345.53 665.96,347.59 666.41,339.12 666.87,348.41 667.32,344.81 667.78,342.31 668.23,341.52 668.68,350.57 669.14,348.33 669.59,345.20 670.05,352.32 670.50,340.36 670.96,357.17 671.41,346.08 671.86,354.53 672.32,342.71 672.77,344.69 673.23,345.43 673.68,346.95 674.13,347.27 674.59,348.86 675.04,347.70 675.50,348.24 675.95,340.51 676.41,349.66 676.86,351.98 677.31,351.63 677.77,343.79 678.22,353.50 678.68,348.03 679.13,356.35 679.59,351.17 680.04,360.00 680.49,351.78 680.95,349.72 681.40,345.52 681.86,352.43 682.31,348.37 682.77,352.45 683.22,349.35 683.67,344.83 684.13,350.13 684.58,352.13 685.04,342.83 685.49,346.45 685.95,350.37 686.40,348.07 686.85,342.83 687.31,346.22 687.76,352.97 688.22,350.88 688.67,355.42 689.12,344.83 689.58,354.24 690.03,348.19 690.49,351.93 690.94,348.09 691.40,348.89 691.85,343.01 692.30,353.62 692.76,350.25 693.21,344.69 693.67,342.43 694.12,346.90 694.58,347.32 695.03,352.38 695.48,340.61 695.94,346.46 696.39,342.72 696.85,346.84 697.30,343.61 697.76,342.65 698.21,340.21 698.66,343.27 699.12,341.27 699.57,351.21 700.03,344.46 700.48,347.40 700.94,335.75 701.39,341.99 701.84,337.85 702.30,333.89 702.75,339.13 703.21,338.00 703.66,344.74 704.11,335.58 704.57,344.43 705.02,335.07 705.48,348.59 705.93,346.73 706.39,348.59 706.84,329.65 707.29,341.68 707.75,335.53 708.20,342.80 708.66,340.77 709.11,341.98 709.57,338.79 710.02,333.71 710.47,335.35 710.93,334.03 711.38,330.46 711.84,333.16 712.29,338.42 712.75,326.89 713.20,333.92 713.65,336.54 714.11,334.83 714.56,328.85 715.02,329.76 715.47,326.76 715.93,332.97 716.38,338.01 716.83,338.48 717.29,326.23 717.74,333.62 718.20,326.72 718.65,328.95 719.10,323.33 719.56,326.17 720.01,331.89 720.47,320.50 720.92,324.50 721.38,320.09 721.83,334.02 722.28,324.22 722.74,335.17 723.19,322.81 723.65,326.19 724.10,329.80 724.56,324.33 725.01,332.52 725.46,328.99 725.92,320.58 726.37,331.56 726.83,318.36 727.28,326.18 727.74,328.30 728.19,328.48 728.64,318.57 729.10,320.72 729.55,323.31 730.01,323.98 730.46,313.74 730.92,318.31 731.37,322.59 731.82,314.42 732.28,325.05 732.73,322.90 733.19,316.70 733.64,327.28 734.09,316.31 734.55,321.64 735.00,330.02 735.46,316.79 735.91,324.56 736.37,319.90 736.82,325.69 737.27,325.93 737.73,320.84 738.18,332.52 738.64,322.48 739.09,319.49 739.55,325.36 740.00,320.24" />
</svg>
