<svg xmlns="http://www.w3.org/2000/svg" width="800" height="420">
  <rect x="0" y="0" width="800" height="420" fill="#ffffff" />
  <line x1="60" y1="360" x2="740" y2="360" stroke="#333333" stroke-width="2" />
  <line x1="60" y1="60" x2="60" y2="360" stroke="#333333" stroke-width="2" />
  <text x="400.0" y="30" text-anchor="middle" font-size="22" font-family="Arial">Self-Play Episode Length</text>
  <text x="400.0" y="405" text-anchor="middle" font-size="16" font-family="Arial">Batch</text>
  <text x="24" y="210.0" text-anchor="middle" font-size="16" font-family="Arial" transform="rotate(-90 24 210.0)">Episode Length</text>
  <text x="60" y="50" font-size="13" font-family="Arial">64.000</text>
  <text x="60" y="380" font-size="13" font-family="Arial">9.000</text>
  <text x="60" y="395" font-size="13" font-family="Arial">1</text>
  <text x="740" y="395" text-anchor="end" font-size="13" font-family="Arial">1500</text>
  <polyline fill="none" stroke="#2563eb" stroke-width="3" points="60.00,327.27 60.45,207.27 60.91,294.55 61.36,278.18 61.81,272.73 62.27,250.91 62.72,294.55 63.18,261.82 63.63,305.45 64.08,267.27 64.54,327.27 64.99,327.27 65.44,169.09 65.90,267.27 66.35,185.45 66.80,245.45 67.26,283.64 67.71,316.36 68.17,234.55 68.62,272.73 69.07,250.91 69.53,229.09 69.98,196.36 70.43,316.36 70.89,283.64 71.34,321.82 71.79,185.45 72.25,316.36 72.70,234.55 73.16,283.64 73.61,267.27 74.06,229.09 74.52,130.91 74.97,250.91 75.42,261.82 75.88,272.73 76.33,338.18 76.78,272.73 77.24,327.27 77.69,300.00 78.15,207.27 78.60,201.82 79.05,343.64 79.51,305.45 79.96,158.18 80.41,332.73 80.87,245.45 81.32,245.45 81.77,245.45 82.23,310.91 82.68,316.36 83.14,294.55 83.59,272.73 84.04,229.09 84.50,300.00 84.95,300.00 85.40,283.64 85.86,321.82 86.31,245.45 86.76,272.73 87.22,294.55 87.67,185.45 88.13,316.36 88.58,294.55 89.03,338.18 89.49,190.91 89.94,294.55 90.39,310.91 90.85,250.91 91.30,327.27 91.75,272.73 92.21,294.55 92.66,316.36 93.12,305.45 93.57,234.55 94.02,316.36 94.48,294.55 94.93,207.27 95.38,240.00 95.84,169.09 96.29,261.82 96.74,278.18 97.20,125.45 97.65,278.18 98.11,305.45 98.56,272.73 99.01,185.45 99.47,327.27 99.92,201.82 100.37,256.36 100.83,267.27 101.28,272.73 101.73,272.73 102.19,289.09 102.64,60.00 103.10,207.27 103.55,300.00 104.00,272.73 104.46,283.64 104.91,190.91 105.36,180.00 105.82,223.64 106.27,261.82 106.72,294.55 107.18,283.64 107.63,338.18 108.09,207.27 108.54,327.27 108.99,289.09 109.45,196.36 109.90,272.73 110.35,278.18 110.81,283.64 111.26,250.91 111.71,185.45 112.17,338.18 112.62,316.36 113.08,300.00 113.53,321.82 113.98,256.36 114.44,207.27 114.89,267.27 115.34,321.82 115.80,272.73 116.25,316.36 116.70,294.55 117.16,316.36 117.61,289.09 118.07,278.18 118.52,305.45 118.97,300.00 119.43,321.82 119.88,207.27 120.33,294.55 120.79,310.91 121.24,294.55 121.69,185.45 122.15,305.45 122.60,190.91 123.06,294.55 123.51,300.00 123.96,294.55 124.42,332.73 124.87,327.27 125.32,223.64 125.78,321.82 126.23,261.82 126.68,338.18 127.14,332.73 127.59,278.18 128.05,338.18 128.50,332.73 128.95,234.55 129.41,201.82 129.86,234.55 130.31,240.00 130.77,267.27 131.22,294.55 131.67,250.91 132.13,305.45 132.58,289.09 133.04,283.64 133.49,250.91 133.94,327.27 134.40,316.36 134.85,207.27 135.30,240.00 135.76,332.73 136.21,201.82 136.66,305.45 137.12,321.82 137.57,338.18 138.03,332.73 138.48,278.18 138.93,267.27 139.39,256.36 139.84,261.82 140.29,327.27 140.75,223.64 141.20,294.55 141.65,294.55 142.11,229.09 142.56,332.73 143.02,300.00 143.47,256.36 143.92,289.09 144.38,201.82 144.83,278.18 145.28,316.36 145.74,316.36 146.19,180.00 146.64,343.64 147.10,207.27 147.55,180.00 148.01,300.00 148.46,261.82 148.91,310.91 149.37,327.27 149.82,316.36 150.27,283.64 150.73,294.55 151.18,316.36 151.63,310.91 152.09,267.27 152.54,354.55 153.00,289.09 153.45,300.00 153.90,272.73 154.36,283.64 154.81,250.91 155.26,272.73 155.72,283.64 156.17,305.45 156.62,305.45 157.08,190.91 157.53,300.00 157.99,207.27 158.44,300.00 158.89,300.00 159.35,310.91 159.80,125.45 160.25,283.64 160.71,294.55 161.16,343.64 161.61,332.73 162.07,272.73 162.52,283.64 162.98,316.36 163.43,300.00 163.88,207.27 164.34,327.27 164.79,327.27 165.24,300.00 165.70,305.45 166.15,272.73 166.60,289.09 167.06,349.09 167.51,327.27 167.97,349.09 168.42,190.91 168.87,256.36 169.33,360.00 169.78,283.64 170.23,267.27 170.69,294.55 171.14,316.36 171.59,305.45 172.05,338.18 172.50,267.27 172.96,283.64 173.41,305.45 173.86,305.45 174.32,240.00 174.77,294.55 175.22,272.73 175.68,332.73 176.13,207.27 176.58,267.27 177.04,305.45 177.49,272.73 177.95,272.73 178.40,201.82 178.85,272.73 179.31,316.36 179.76,207.27 180.21,316.36 180.67,305.45 181.12,207.27 181.57,250.91 182.03,310.91 182.48,332.73 182.94,338.18 183.39,316.36 183.84,349.09 184.30,278.18 184.75,327.27 185.20,316.36 185.66,283.64 186.11,316.36 186.56,261.82 187.02,289.09 187.47,289.09 187.93,310.91 188.38,321.82 188.83,338.18 189.29,267.27 189.74,294.55 190.19,289.09 190.65,327.27 191.10,229.09 191.55,283.64 192.01,310.91 192.46,327.27 192.92,300.00 193.37,332.73 193.82,343.64 194.28,256.36 194.73,141.82 195.18,207.27 195.64,343.64 196.09,300.00 196.54,267.27 197.00,245.45 197.45,294.55 197.91,158.18 198.36,316.36 198.81,272.73 199.27,316.36 199.72,354.55 200.17,283.64 200.63,201.82 201.08,332.73 201.53,321.82 201.99,278.18 202.44,283.64 202.90,305.45 203.35,316.36 203.80,261.82 204.26,327.27 204.71,169.09 205.16,212.73 205.62,196.36 206.07,300.00 206.52,294.55 206.98,163.64 207.43,343.64 207.89,267.27 208.34,294.55 208.79,289.09 209.25,250.91 209.70,321.82 210.15,316.36 210.61,267.27 211.06,212.73 211.51,305.45 211.97,283.64 212.42,300.00 212.88,283.64 213.33,283.64 213.78,310.91 214.24,316.36 214.69,174.55 215.14,223.64 215.60,305.45 216.05,289.09 216.50,338.18 216.96,158.18 217.41,283.64 217.87,289.09 218.32,261.82 218.77,272.73 219.23,338.18 219.68,294.55 220.13,278.18 220.59,278.18 221.04,338.18 221.49,300.00 221.95,316.36 222.40,332.73 222.86,267.27 223.31,250.91 223.76,272.73 224.22,261.82 224.67,338.18 225.12,212.73 225.58,294.55 226.03,327.27 226.48,327.27 226.94,316.36 227.39,294.55 227.85,289.09 228.30,294.55 228.75,289.09 229.21,250.91 229.66,234.55 230.11,272.73 230.57,343.64 231.02,300.00 231.47,250.91 231.93,338.18 232.38,327.27 232.84,300.00 233.29,300.00 233.74,327.27 234.20,267.27 234.65,332.73 235.10,300.00 235.56,343.64 236.01,316.36 236.46,310.91 236.92,327.27 237.37,305.45 237.83,180.00 238.28,343.64 238.73,316.36 239.19,267.27 239.64,294.55 240.09,321.82 240.55,283.64 241.00,305.45 241.45,278.18 241.91,316.36 242.36,289.09 242.82,327.27 243.27,283.64 243.72,272.73 244.18,310.91 244.63,354.55 245.08,256.36 245.54,300.00 245.99,218.18 246.44,240.00 246.90,316.36 247.35,267.27 247.81,163.64 248.26,316.36 248.71,305.45 249.17,354.55 249.62,294.55 250.07,294.55 250.53,283.64 250.98,310.91 251.43,321.82 251.89,349.09 252.34,338.18 252.80,289.09 253.25,234.55 253.70,240.00 254.16,229.09 254.61,185.45 255.06,327.27 255.52,283.64 255.97,316.36 256.42,294.55 256.88,278.18 257.33,321.82 257.79,267.27 258.24,305.45 258.69,327.27 259.15,300.00 259.60,174.55 260.05,278.18 260.51,250.91 260.96,245.45 261.41,261.82 261.87,190.91 262.32,261.82 262.78,272.73 263.23,316.36 263.68,310.91 264.14,305.45 264.59,300.00 265.04,207.27 265.50,250.91 265.95,316.36 266.40,310.91 266.86,207.27 267.31,332.73 267.77,289.09 268.22,327.27 268.67,240.00 269.13,349.09 269.58,272.73 270.03,294.55 270.49,169.09 270.94,245.45 271.39,321.82 271.85,300.00 272.30,332.73 272.76,310.91 273.21,294.55 273.66,294.55 274.12,256.36 274.57,343.64 275.02,321.82 275.48,240.00 275.93,240.00 276.38,321.82 276.84,354.55 277.29,229.09 277.75,338.18 278.20,338.18 278.65,305.45 279.11,338.18 279.56,250.91 280.01,332.73 280.47,283.64 280.92,185.45 281.37,310.91 281.83,321.82 282.28,289.09 282.74,152.73 283.19,98.18 283.64,327.27 284.10,294.55 284.55,163.64 285.00,201.82 285.46,289.09 285.91,343.64 286.36,332.73 286.82,300.00 287.27,223.64 287.73,316.36 288.18,343.64 288.63,349.09 289.09,327.27 289.54,354.55 289.99,207.27 290.45,338.18 290.90,321.82 291.35,196.36 291.81,196.36 292.26,294.55 292.72,300.00 293.17,327.27 293.62,316.36 294.08,300.00 294.53,305.45 294.98,300.00 295.44,289.09 295.89,289.09 296.34,169.09 296.80,321.82 297.25,316.36 297.71,332.73 298.16,190.91 298.61,300.00 299.07,332.73 299.52,332.73 299.97,283.64 300.43,294.55 300.88,349.09 301.33,201.82 301.79,218.18 302.24,218.18 302.70,343.64 303.15,218.18 303.60,289.09 304.06,332.73 304.51,316.36 304.96,360.00 305.42,201.82 305.87,349.09 306.32,207.27 306.78,349.09 307.23,185.45 307.69,272.73 308.14,354.55 308.59,234.55 309.05,201.82 309.50,272.73 309.95,316.36 310.41,272.73 310.86,180.00 311.31,349.09 311.77,327.27 312.22,349.09 312.68,349.09 313.13,300.00 313.58,316.36 314.04,305.45 314.49,256.36 314.94,349.09 315.40,316.36 315.85,360.00 316.30,283.64 316.76,245.45 317.21,338.18 317.67,305.45 318.12,332.73 318.57,327.27 319.03,272.73 319.48,300.00 319.93,283.64 320.39,196.36 320.84,300.00 321.29,321.82 321.75,338.18 322.20,229.09 322.66,283.64 323.11,207.27 323.56,332.73 324.02,310.91 324.47,190.91 324.92,332.73 325.38,201.82 325.83,338.18 326.28,327.27 326.74,272.73 327.19,289.09 327.65,250.91 328.10,278.18 328.55,190.91 329.01,283.64 329.46,327.27 329.91,316.36 330.37,196.36 330.82,201.82 331.27,272.73 331.73,332.73 332.18,327.27 332.64,272.73 333.09,316.36 333.54,349.09 334.00,267.27 334.45,349.09 334.90,332.73 335.36,316.36 335.81,332.73 336.26,327.27 336.72,316.36 337.17,327.27 337.63,180.00 338.08,354.55 338.53,60.00 338.99,343.64 339.44,283.64 339.89,305.45 340.35,300.00 340.80,310.91 341.25,310.91 341.71,289.09 342.16,343.64 342.62,196.36 343.07,272.73 343.52,305.45 343.98,343.64 344.43,201.82 344.88,207.27 345.34,256.36 345.79,278.18 346.24,240.00 346.70,294.55 347.15,229.09 347.61,207.27 348.06,267.27 348.51,327.27 348.97,305.45 349.42,283.64 349.87,272.73 350.33,300.00 350.78,338.18 351.23,294.55 351.69,278.18 352.14,327.27 352.60,267.27 353.05,343.64 353.50,207.27 353.96,267.27 354.41,272.73 354.86,234.55 355.32,278.18 355.77,201.82 356.22,316.36 356.68,300.00 357.13,278.18 357.59,261.82 358.04,278.18 358.49,321.82 358.95,261.82 359.40,316.36 359.85,338.18 360.31,283.64 360.76,305.45 361.21,310.91 361.67,272.73 362.12,327.27 362.58,201.82 363.03,163.64 363.48,305.45 363.94,327.27 364.39,310.91 364.84,283.64 365.30,349.09 365.75,283.64 366.20,250.91 366.66,283.64 367.11,327.27 367.57,207.27 368.02,289.09 368.47,300.00 368.93,267.27 369.38,316.36 369.83,338.18 370.29,310.91 370.74,332.73 371.19,305.45 371.65,316.36 372.10,289.09 372.56,283.64 373.01,354.55 373.46,321.82 373.92,272.73 374.37,360.00 374.82,272.73 375.28,250.91 375.73,310.91 376.18,343.64 376.64,294.55 377.09,338.18 377.55,234.55 378.00,218.18 378.45,289.09 378.91,174.55 379.36,272.73 379.81,338.18 380.27,305.45 380.72,240.00 381.17,310.91 381.63,305.45 382.08,294.55 382.54,272.73 382.99,300.00 383.44,327.27 383.90,338.18 384.35,305.45 384.80,261.82 385.26,289.09 385.71,250.91 386.16,349.09 386.62,343.64 387.07,343.64 387.53,245.45 387.98,240.00 388.43,338.18 388.89,294.55 389.34,310.91 389.79,250.91 390.25,321.82 390.70,332.73 391.15,332.73 391.61,310.91 392.06,332.73 392.52,349.09 392.97,283.64 393.42,349.09 393.88,240.00 394.33,327.27 394.78,278.18 395.24,196.36 395.69,321.82 396.14,272.73 396.60,316.36 397.05,300.00 397.51,152.73 397.96,305.45 398.41,289.09 398.87,234.55 399.32,305.45 399.77,305.45 400.23,343.64 400.68,152.73 401.13,190.91 401.59,310.91 402.04,338.18 402.49,261.82 402.95,332.73 403.40,300.00 403.86,332.73 404.31,338.18 404.76,283.64 405.22,305.45 405.67,360.00 406.12,338.18 406.58,316.36 407.03,321.82 407.48,223.64 407.94,283.64 408.39,294.55 408.85,272.73 409.30,300.00 409.75,294.55 410.21,250.91 410.66,349.09 411.11,278.18 411.57,185.45 412.02,289.09 412.47,294.55 412.93,327.27 413.38,338.18 413.84,300.00 414.29,332.73 414.74,305.45 415.20,349.09 415.65,283.64 416.10,354.55 416.56,185.45 417.01,349.09 417.46,349.09 417.92,278.18 418.37,349.09 418.83,267.27 419.28,321.82 419.73,316.36 420.19,190.91 420.64,332.73 421.09,294.55 421.55,338.18 422.00,267.27 422.45,332.73 422.91,289.09 423.36,267.27 423.82,294.55 424.27,272.73 424.72,305.45 425.18,327.27 425.63,278.18 426.08,289.09 426.54,278.18 426.99,289.09 427.44,289.09 427.90,158.18 428.35,321.82 428.81,310.91 429.26,349.09 429.71,190.91 430.17,190.91 430.62,256.36 431.07,338.18 431.53,305.45 431.98,338.18 432.43,332.73 432.89,207.27 433.34,343.64 433.80,278.18 434.25,332.73 434.70,174.55 435.16,283.64 435.61,283.64 436.06,349.09 436.52,283.64 436.97,201.82 437.42,201.82 437.88,321.82 438.33,310.91 438.79,321.82 439.24,349.09 439.69,223.64 440.15,196.36 440.60,310.91 441.05,212.73 441.51,310.91 441.96,272.73 442.41,300.00 442.87,261.82 443.32,267.27 443.78,305.45 444.23,305.45 444.68,283.64 445.14,278.18 445.59,327.27 446.04,218.18 446.50,343.64 446.95,180.00 447.40,234.55 447.86,321.82 448.31,305.45 448.77,272.73 449.22,267.27 449.67,223.64 450.13,261.82 450.58,250.91 451.03,261.82 451.49,305.45 451.94,321.82 452.39,327.27 452.85,305.45 453.30,283.64 453.76,321.82 454.21,267.27 454.66,349.09 455.12,310.91 455.57,327.27 456.02,201.82 456.48,294.55 456.93,310.91 457.38,207.27 457.84,316.36 458.29,141.82 458.75,185.45 459.20,245.45 459.65,300.00 460.11,256.36 460.56,201.82 461.01,349.09 461.47,212.73 461.92,223.64 462.37,234.55 462.83,196.36 463.28,327.27 463.74,327.27 464.19,267.27 464.64,310.91 465.10,278.18 465.55,207.27 466.00,305.45 466.46,349.09 466.91,283.64 467.36,305.45 467.82,240.00 468.27,272.73 468.73,338.18 469.18,196.36 469.63,294.55 470.09,261.82 470.54,360.00 470.99,278.18 471.45,338.18 471.90,321.82 472.35,305.45 472.81,278.18 473.26,316.36 473.72,256.36 474.17,283.64 474.62,256.36 475.08,240.00 475.53,283.64 475.98,261.82 476.44,218.18 476.89,201.82 477.34,234.55 477.80,321.82 478.25,305.45 478.71,278.18 479.16,272.73 479.61,174.55 480.07,147.27 480.52,278.18 480.97,294.55 481.43,316.36 481.88,332.73 482.33,338.18 482.79,267.27 483.24,305.45 483.70,343.64 484.15,261.82 484.60,310.91 485.06,229.09 485.51,343.64 485.96,256.36 486.42,207.27 486.87,321.82 487.32,185.45 487.78,327.27 488.23,283.64 488.69,310.91 489.14,300.00 489.59,294.55 490.05,185.45 490.50,360.00 490.95,289.09 491.41,332.73 491.86,327.27 492.31,240.00 492.77,283.64 493.22,240.00 493.68,289.09 494.13,272.73 494.58,207.27 495.04,256.36 495.49,294.55 495.94,212.73 496.40,283.64 496.85,245.45 497.30,316.36 497.76,310.91 498.21,261.82 498.67,207.27 499.12,294.55 499.57,305.45 500.03,229.09 500.48,196.36 500.93,207.27 501.39,327.27 501.84,267.27 502.29,240.00 502.75,338.18 503.20,316.36 503.66,343.64 504.11,300.00 504.56,321.82 505.02,207.27 505.47,321.82 505.92,338.18 506.38,234.55 506.83,278.18 507.28,349.09 507.74,300.00 508.19,300.00 508.65,310.91 509.10,349.09 509.55,240.00 510.01,316.36 510.46,207.27 510.91,207.27 511.37,294.55 511.82,316.36 512.27,196.36 512.73,354.55 513.18,310.91 513.64,321.82 514.09,294.55 514.54,201.82 515.00,272.73 515.45,354.55 515.90,327.27 516.36,207.27 516.81,294.55 517.26,278.18 517.72,354.55 518.17,163.64 518.63,310.91 519.08,321.82 519.53,305.45 519.99,229.09 520.44,60.00 520.89,316.36 521.35,289.09 521.80,185.45 522.25,278.18 522.71,338.18 523.16,294.55 523.62,327.27 524.07,321.82 524.52,223.64 524.98,272.73 525.43,278.18 525.88,338.18 526.34,332.73 526.79,294.55 527.24,278.18 527.70,349.09 528.15,305.45 528.61,300.00 529.06,321.82 529.51,136.36 529.97,321.82 530.42,300.00 530.87,250.91 531.33,321.82 531.78,305.45 532.23,354.55 532.69,305.45 533.14,261.82 533.60,354.55 534.05,316.36 534.50,289.09 534.96,256.36 535.41,196.36 535.86,305.45 536.32,267.27 536.77,261.82 537.22,349.09 537.68,310.91 538.13,267.27 538.59,294.55 539.04,289.09 539.49,201.82 539.95,349.09 540.40,278.18 540.85,240.00 541.31,305.45 541.76,272.73 542.21,305.45 542.67,169.09 543.12,360.00 543.58,338.18 544.03,327.27 544.48,321.82 544.94,310.91 545.39,207.27 545.84,354.55 546.30,327.27 546.75,327.27 547.20,327.27 547.66,207.27 548.11,196.36 548.57,305.45 549.02,278.18 549.47,267.27 549.93,185.45 550.38,310.91 550.83,180.00 551.29,240.00 551.74,305.45 552.19,294.55 552.65,256.36 553.10,327.27 553.56,321.82 554.01,338.18 554.46,343.64 554.92,283.64 555.37,327.27 555.82,185.45 556.28,185.45 556.73,180.00 557.18,207.27 557.64,60.00 558.09,218.18 558.55,261.82 559.00,343.64 559.45,343.64 559.91,207.27 560.36,267.27 560.81,267.27 561.27,283.64 561.72,316.36 562.17,289.09 562.63,310.91 563.08,310.91 563.54,294.55 563.99,305.45 564.44,158.18 564.90,261.82 565.35,338.18 565.80,300.00 566.26,201.82 566.71,310.91 567.16,272.73 567.62,332.73 568.07,349.09 568.53,338.18 568.98,360.00 569.43,321.82 569.89,300.00 570.34,207.27 570.79,272.73 571.25,250.91 571.70,343.64 572.15,332.73 572.61,201.82 573.06,305.45 573.52,338.18 573.97,327.27 574.42,207.27 574.88,332.73 575.33,327.27 575.78,267.27 576.24,207.27 576.69,245.45 577.14,327.27 577.60,310.91 578.05,294.55 578.51,234.55 578.96,349.09 579.41,338.18 579.87,278.18 580.32,343.64 580.77,283.64 581.23,289.09 581.68,305.45 582.13,338.18 582.59,343.64 583.04,229.09 583.50,327.27 583.95,300.00 584.40,300.00 584.86,305.45 585.31,294.55 585.76,349.09 586.22,343.64 586.67,327.27 587.12,289.09 587.58,327.27 588.03,360.00 588.49,349.09 588.94,201.82 589.39,321.82 589.85,360.00 590.30,327.27 590.75,360.00 591.21,278.18 591.66,163.64 592.11,349.09 592.57,207.27 593.02,338.18 593.48,310.91 593.93,250.91 594.38,289.09 594.84,278.18 595.29,212.73 595.74,272.73 596.20,294.55 596.65,360.00 597.10,294.55 597.56,321.82 598.01,316.36 598.47,349.09 598.92,327.27 599.37,294.55 599.83,338.18 600.28,272.73 600.73,250.91 601.19,316.36 601.64,283.64 602.09,207.27 602.55,207.27 603.00,250.91 603.46,289.09 603.91,207.27 604.36,332.73 604.82,261.82 605.27,278.18 605.72,305.45 606.18,261.82 606.63,327.27 607.08,294.55 607.54,327.27 607.99,305.45 608.45,349.09 608.90,245.45 609.35,338.18 609.81,196.36 610.26,354.55 610.71,300.00 611.17,207.27 611.62,234.55 612.07,283.64 612.53,120.00 612.98,256.36 613.44,316.36 613.89,283.64 614.34,245.45 614.80,250.91 615.25,201.82 615.70,207.27 616.16,125.45 616.61,305.45 617.06,305.45 617.52,332.73 617.97,310.91 618.43,267.27 618.88,316.36 619.33,349.09 619.79,349.09 620.24,201.82 620.69,294.55 621.15,294.55 621.60,338.18 622.05,305.45 622.51,261.82 622.96,196.36 623.42,294.55 623.87,310.91 624.32,349.09 624.78,316.36 625.23,267.27 625.68,289.09 626.14,305.45 626.59,316.36 627.04,272.73 627.50,349.09 627.95,267.27 628.41,321.82 628.86,283.64 629.31,196.36 629.77,349.09 630.22,201.82 630.67,201.82 631.13,305.45 631.58,289.09 632.03,278.18 632.49,310.91 632.94,305.45 633.40,212.73 633.85,256.36 634.30,305.45 634.76,338.18 635.21,109.09 635.66,250.91 636.12,349.09 636.57,316.36 637.02,245.45 637.48,321.82 637.93,174.55 638.39,289.09 638.84,294.55 639.29,343.64 639.75,354.55 640.20,310.91 640.65,360.00 641.11,283.64 641.56,234.55 642.01,294.55 642.47,196.36 642.92,310.91 643.38,201.82 643.83,316.36 644.28,305.45 644.74,316.36 645.19,349.09 645.64,283.64 646.10,360.00 646.55,60.00 647.00,300.00 647.46,196.36 647.91,169.09 648.37,360.00 648.82,310.91 649.27,349.09 649.73,278.18 650.18,196.36 650.63,250.91 651.09,294.55 651.54,294.55 651.99,60.00 652.45,278.18 652.90,245.45 653.36,332.73 653.81,196.36 654.26,180.00 654.72,289.09 655.17,343.64 655.62,321.82 656.08,305.45 656.53,196.36 656.98,349.09 657.44,349.09 657.89,207.27 658.35,278.18 658.80,272.73 659.25,245.45 659.71,316.36 660.16,180.00 660.61,305.45 661.07,245.45 661.52,229.09 661.97,305.45 662.43,305.45 662.88,278.18 663.34,272.73 663.79,321.82 664.24,289.09 664.70,218.18 665.15,278.18 665.60,321.82 666.06,256.36 666.51,289.09 666.96,300.00 667.42,338.18 667.87,278.18 668.33,289.09 668.78,305.45 669.23,212.73 669.69,338.18 670.14,349.09 670.59,250.91 671.05,321.82 671.50,229.09 671.95,250.91 672.41,305.45 672.86,332.73 673.32,278.18 673.77,240.00 674.22,349.09 674.68,305.45 675.13,294.55 675.58,338.18 676.04,349.09 676.49,321.82 676.94,321.82 677.40,207.27 677.85,332.73 678.31,294.55 678.76,327.27 679.21,349.09 679.67,305.45 680.12,338.18 680.57,289.09 681.03,289.09 681.48,174.55 681.93,196.36 682.39,305.45 682.84,272.73 683.30,300.00 683.75,360.00 684.20,245.45 684.66,354.55 685.11,207.27 685.56,207.27 686.02,250.91 686.47,349.09 686.92,343.64 687.38,261.82 687.83,245.45 688.29,349.09 688.74,261.82 689.19,250.91 689.65,278.18 690.10,338.18 690.55,338.18 691.01,338.18 691.46,136.36 691.91,272.73 692.37,289.09 692.82,349.09 693.28,300.00 693.73,240.00 694.18,201.82 694.64,207.27 695.09,256.36 695.54,310.91 696.00,305.45 696.45,321.82 696.90,207.27 697.36,201.82 697.81,316.36 698.27,310.91 698.72,180.00 699.17,250.91 699.63,294.55 700.08,327.27 700.53,267.27 700.99,305.45 701.44,201.82 701.89,289.09 702.35,261.82 702.80,294.55 703.26,338.18 703.71,327.27 704.16,316.36 704.62,338.18 705.07,294.55 705.52,294.55 705.98,289.09 706.43,321.82 706.88,201.82 707.34,245.45 707.79,278.18 708.25,360.00 708.70,283.64 709.15,283.64 709.61,240.00 710.06,294.55 710.51,283.64 710.97,229.09 711.42,294.55 711.87,338.18 712.33,289.09 712.78,327.27 713.24,267.27 713.69,349.09 714.14,349.09 714.60,332.73 715.05,321.82 715.50,343.64 715.96,207.27 716.41,310.91 716.86,338.18 717.32,185.45 717.77,316.36 718.23,130.91 718.68,321.82 719.13,234.55 719.59,207.27 720.04,360.00 720.49,338.18 720.95,201.82 721.40,289.09 721.85,338.18 722.31,343.64 722.76,300.00 723.22,229.09 723.67,338.18 724.12,207.27 724.58,196.36 725.03,327.27 725.48,300.00 725.94,300.00 726.39,332.73 726.84,207.27 727.30,174.55 727.75,256.36 728.21,316.36 728.66,305.45 729.11,185.45 729.57,141.82 730.02,300.00 730.47,201.82 730.93,300.00 731.38,250.91 731.83,332.73 732.29,349.09 732.74,332.73 733.20,240.00 733.65,294.55 734.10,163.64 734.56,267.27 735.01,354.55 735.46,278.18 735.92,283.64 736.37,289.09 736.82,327.27 737.28,207.27 737.73,169.09 738.19,207.27 738.64,305.45 739.09,261.82 739.55,245.45 740.00,332.73" />
</svg>
