<svg xmlns="http://www.w3.org/2000/svg" width="800" height="420">
  <rect x="0" y="0" width="800" height="420" fill="#ffffff" />
  <line x1="60" y1="360" x2="740" y2="360" stroke="#333333" stroke-width="2" />
  <line x1="60" y1="60" x2="60" y2="360" stroke="#333333" stroke-width="2" />
  <text x="400.0" y="30" text-anchor="middle" font-size="22" font-family="Arial">Training Loss</text>
  <text x="400.0" y="405" text-anchor="middle" font-size="16" font-family="Arial">Batch</text>
  <text x="24" y="210.0" text-anchor="middle" font-size="16" font-family="Arial" transform="rotate(-90 24 210.0)">Loss</text>
  <text x="60" y="50" font-size="13" font-family="Arial">4.877</text>
  <text x="60" y="380" font-size="13" font-family="Arial">2.308</text>
  <text x="60" y="395" font-size="13" font-family="Arial">3</text>
  <text x="740" y="395" text-anchor="end" font-size="13" font-family="Arial">1500</text>
  <polyline fill="none" stroke="#dc2626" stroke-width="3" points="60.00,94.67 60.45,60.00 60.91,72.72 61.36,91.69 61.82,86.55 62.27,97.05 62.73,104.01 63.18,98.19 63.63,109.04 64.09,118.45 64.54,88.98 65.00,83.50 65.45,86.26 65.91,86.15 66.36,92.55 66.81,91.47 67.27,89.46 67.72,90.17 68.18,90.89 68.63,94.72 69.08,99.18 69.54,97.07 69.99,107.21 70.45,103.89 70.90,105.81 71.36,106.53 71.81,111.31 72.26,108.81 72.72,108.34 73.17,105.65 73.63,118.91 74.08,112.63 74.54,119.12 74.99,121.29 75.44,127.42 75.90,121.28 76.35,127.09 76.81,126.02 77.26,125.62 77.72,129.97 78.17,121.85 78.62,135.80 79.08,128.23 79.53,133.65 79.99,123.50 80.44,127.00 80.90,121.71 81.35,122.70 81.80,132.39 82.26,134.18 82.71,132.35 83.17,141.50 83.62,135.65 84.07,133.05 84.53,137.46 84.98,142.31 85.44,130.21 85.89,141.23 86.35,138.92 86.80,138.64 87.25,143.23 87.71,149.47 88.16,147.12 88.62,149.35 89.07,155.91 89.53,157.74 89.98,155.10 90.43,157.59 90.89,157.14 91.34,165.58 91.80,155.02 92.25,165.43 92.71,151.20 93.16,156.47 93.61,173.37 94.07,165.30 94.52,169.14 94.98,162.25 95.43,160.43 95.89,168.30 96.34,163.13 96.79,162.90 97.25,160.06 97.70,166.94 98.16,165.02 98.61,171.56 99.06,170.51 99.52,166.56 99.97,165.12 100.43,169.68 100.88,172.69 101.34,179.40 101.79,180.82 102.24,188.30 102.70,188.23 103.15,188.83 103.61,191.95 104.06,186.91 104.52,187.37 104.97,186.56 105.42,189.66 105.88,194.46 106.33,197.03 106.79,206.39 107.24,200.90 107.70,204.48 108.15,202.55 108.60,202.36 109.06,200.73 109.51,205.15 109.97,205.09 110.42,210.44 110.88,210.62 111.33,211.17 111.78,212.88 112.24,209.70 112.69,211.27 113.15,208.26 113.60,214.22 114.05,213.86 114.51,211.14 114.96,212.50 115.42,220.53 115.87,221.01 116.33,225.28 116.78,228.78 117.23,223.48 117.69,228.96 118.14,221.58 118.60,227.06 119.05,220.03 119.51,229.35 119.96,233.25 120.41,237.35 120.87,236.62 121.32,236.20 121.78,235.79 122.23,228.95 122.69,229.69 123.14,231.87 123.59,236.00 124.05,231.60 124.50,234.77 124.96,234.20 125.41,234.19 125.87,235.09 126.32,237.40 126.77,234.41 127.23,231.90 127.68,240.98 128.14,232.87 128.59,238.83 129.04,232.06 129.50,229.45 129.95,239.47 130.41,236.11 130.86,227.39 131.32,235.38 131.77,233.93 132.22,244.75 132.68,243.44 133.13,233.55 133.59,238.75 134.04,246.85 134.50,241.87 134.95,240.00 135.40,233.44 135.86,239.33 136.31,237.92 136.77,238.43 137.22,235.80 137.68,236.00 138.13,232.81 138.58,233.91 139.04,231.95 139.49,240.40 139.95,238.11 140.40,229.92 140.86,226.92 141.31,240.47 141.76,234.05 142.22,242.52 142.67,230.00 143.13,238.52 143.58,235.46 144.03,242.99 144.49,241.61 144.94,238.96 145.40,242.60 145.85,239.26 146.31,233.67 146.76,234.30 147.21,238.02 147.67,235.05 148.12,238.23 148.58,238.38 149.03,242.68 149.49,234.42 149.94,241.01 150.39,238.63 150.85,238.28 151.30,243.20 151.76,244.07 152.21,245.85 152.67,242.97 153.12,245.62 153.57,245.19 154.03,237.58 154.48,241.61 154.94,244.83 155.39,240.13 155.85,248.60 156.30,242.13 156.75,247.97 157.21,246.90 157.66,245.46 158.12,242.04 158.57,242.53 159.02,246.62 159.48,251.25 159.93,249.33 160.39,245.36 160.84,241.39 161.30,250.43 161.75,247.10 162.20,246.62 162.66,249.92 163.11,246.10 163.57,248.13 164.02,249.12 164.48,252.00 164.93,252.24 165.38,248.09 165.84,245.89 166.29,254.78 166.75,251.47 167.20,245.16 167.66,248.67 168.11,242.24 168.56,253.27 169.02,249.93 169.47,250.30 169.93,253.97 170.38,246.79 170.84,250.30 171.29,251.74 171.74,249.29 172.20,247.89 172.65,246.97 173.11,255.52 173.56,256.36 174.01,257.71 174.47,258.63 174.92,253.95 175.38,259.91 175.83,253.99 176.29,264.05 176.74,255.86 177.19,260.95 177.65,265.34 178.10,259.11 178.56,258.29 179.01,266.92 179.47,250.95 179.92,261.19 180.37,263.71 180.83,264.00 181.28,262.41 181.74,264.62 182.19,262.50 182.65,264.41 183.10,264.17 183.55,263.42 184.01,270.08 184.46,266.55 184.92,265.95 185.37,271.37 185.82,275.78 186.28,273.07 186.73,263.96 187.19,270.59 187.64,275.61 188.10,272.28 188.55,260.53 189.00,275.31 189.46,266.35 189.91,262.67 190.37,264.86 190.82,267.23 191.28,274.84 191.73,263.67 192.18,268.86 192.64,264.30 193.09,270.38 193.55,265.75 194.00,261.89 194.46,263.58 194.91,269.32 195.36,270.58 195.82,261.55 196.27,262.69 196.73,259.41 197.18,265.71 197.64,258.19 198.09,264.72 198.54,259.27 199.00,261.54 199.45,264.14 199.91,257.68 200.36,263.24 200.81,260.34 201.27,259.87 201.72,264.21 202.18,263.04 202.63,268.67 203.09,264.59 203.54,272.72 203.99,267.36 204.45,272.48 204.90,260.58 205.36,270.05 205.81,266.05 206.27,262.69 206.72,267.08 207.17,266.79 207.63,272.89 208.08,272.59 208.54,274.89 208.99,276.21 209.45,270.92 209.90,274.60 210.35,275.16 210.81,279.17 211.26,270.79 211.72,274.93 212.17,270.84 212.63,276.07 213.08,282.54 213.53,278.39 213.99,275.58 214.44,273.59 214.90,269.01 215.35,276.17 215.80,278.74 216.26,271.88 216.71,279.88 217.17,274.54 217.62,279.34 218.08,272.58 218.53,272.85 218.98,275.66 219.44,275.23 219.89,273.39 220.35,280.15 220.80,279.88 221.26,281.21 221.71,290.36 222.16,280.72 222.62,287.95 223.07,288.30 223.53,283.46 223.98,284.84 224.44,289.50 224.89,288.57 225.34,283.95 225.80,284.43 226.25,285.70 226.71,284.31 227.16,281.24 227.62,292.27 228.07,282.12 228.52,285.60 228.98,283.62 229.43,289.44 229.89,286.97 230.34,292.88 230.79,288.41 231.25,288.55 231.70,285.13 232.16,291.20 232.61,289.54 233.07,290.60 233.52,293.92 233.97,297.58 234.43,288.18 234.88,297.11 235.34,286.25 235.79,293.28 236.25,296.61 236.70,296.42 237.15,293.87 237.61,295.31 238.06,295.99 238.52,305.56 238.97,290.32 239.43,295.16 239.88,292.74 240.33,296.86 240.79,293.67 241.24,304.04 241.70,300.08 242.15,304.46 242.61,307.78 243.06,304.55 243.51,313.14 243.97,310.94 244.42,306.46 244.88,303.03 245.33,305.84 245.78,309.64 246.24,295.31 246.69,307.23 247.15,303.87 247.60,303.57 248.06,301.51 248.51,304.87 248.96,302.82 249.42,300.97 249.87,299.53 250.33,303.83 250.78,303.44 251.24,308.31 251.69,303.14 252.14,304.36 252.60,300.69 253.05,305.95 253.51,304.22 253.96,303.04 254.42,298.83 254.87,301.62 255.32,293.42 255.78,296.85 256.23,299.60 256.69,303.14 257.14,294.19 257.60,294.03 258.05,294.52 258.50,294.50 258.96,293.47 259.41,296.37 259.87,307.13 260.32,310.05 260.77,311.82 261.23,305.16 261.68,303.90 262.14,307.71 262.59,297.93 263.05,316.65 263.50,309.31 263.95,318.33 264.41,320.04 264.86,328.39 265.32,316.24 265.77,318.94 266.23,322.02 266.68,321.52 267.13,314.82 267.59,314.13 268.04,316.16 268.50,324.70 268.95,329.87 269.41,333.01 269.86,332.77 270.31,328.54 270.77,333.20 271.22,322.34 271.68,321.98 272.13,332.67 272.59,321.04 273.04,330.09 273.49,321.82 273.95,328.91 274.40,322.47 274.86,325.65 275.31,321.26 275.76,317.91 276.22,327.64 276.67,321.99 277.13,320.70 277.58,327.20 278.04,321.74 278.49,331.65 278.94,334.93 279.40,320.98 279.85,320.53 280.31,324.81 280.76,329.89 281.22,327.29 281.67,323.34 282.12,338.07 282.58,331.13 283.03,325.21 283.49,330.22 283.94,335.38 284.40,333.18 284.85,336.83 285.30,339.07 285.76,340.22 286.21,340.12 286.67,324.62 287.12,331.79 287.58,327.94 288.03,327.61 288.48,329.47 288.94,323.04 289.39,323.45 289.85,324.85 290.30,317.43 290.75,317.08 291.21,329.83 291.66,323.06 292.12,311.84 292.57,329.58 293.03,328.19 293.48,328.06 293.93,323.18 294.39,321.65 294.84,308.87 295.30,320.89 295.75,319.83 296.21,320.73 296.66,324.61 297.11,322.02 297.57,322.30 298.02,315.65 298.48,320.16 298.93,319.75 299.39,315.44 299.84,321.84 300.29,315.45 300.75,324.65 301.20,321.22 301.66,321.98 302.11,321.21 302.57,323.82 303.02,322.50 303.47,320.29 303.93,328.33 304.38,328.20 304.84,324.44 305.29,328.10 305.74,317.44 306.20,320.46 306.65,321.46 307.11,325.23 307.56,324.06 308.02,312.29 308.47,303.62 308.92,308.64 309.38,309.61 309.83,315.31 310.29,299.71 310.74,308.75 311.20,301.03 311.65,306.22 312.10,310.66 312.56,309.11 313.01,312.78 313.47,307.73 313.92,311.39 314.38,317.70 314.83,319.73 315.28,318.34 315.74,311.07 316.19,318.38 316.65,316.97 317.10,316.74 317.56,317.48 318.01,314.24 318.46,310.94 318.92,316.80 319.37,311.04 319.83,307.57 320.28,307.49 320.73,309.13 321.19,312.23 321.64,309.19 322.10,317.65 322.55,302.63 323.01,313.88 323.46,329.26 323.91,324.75 324.37,330.25 324.82,326.77 325.28,319.39 325.73,320.77 326.19,316.88 326.64,311.14 327.09,316.61 327.55,320.45 328.00,321.18 328.46,309.47 328.91,307.94 329.37,318.63 329.82,320.41 330.27,315.24 330.73,320.88 331.18,318.35 331.64,310.50 332.09,317.46 332.55,318.66 333.00,314.67 333.45,325.85 333.91,331.06 334.36,326.29 334.82,329.39 335.27,321.91 335.72,328.50 336.18,333.94 336.63,341.52 337.09,337.29 337.54,337.40 338.00,337.54 338.45,319.17 338.90,344.01 339.36,335.05 339.81,339.99 340.27,339.72 340.72,335.29 341.18,330.15 341.63,333.98 342.08,330.45 342.54,328.28 342.99,335.76 343.45,336.25 343.90,334.81 344.36,341.10 344.81,330.83 345.26,329.89 345.72,319.06 346.17,324.58 346.63,320.99 347.08,324.07 347.54,329.97 347.99,324.35 348.44,321.37 348.90,324.70 349.35,329.97 349.81,324.22 350.26,321.58 350.71,320.85 351.17,328.90 351.62,321.29 352.08,318.03 352.53,326.67 352.99,324.07 353.44,332.15 353.89,335.80 354.35,330.12 354.80,328.35 355.26,323.46 355.71,319.23 356.17,319.51 356.62,324.43 357.07,322.36 357.53,329.50 357.98,324.39 358.44,332.37 358.89,332.80 359.35,316.82 359.80,318.97 360.25,319.07 360.71,327.09 361.16,330.39 361.62,325.42 362.07,319.42 362.53,318.79 362.98,325.17 363.43,310.82 363.89,312.40 364.34,317.80 364.80,321.05 365.25,310.02 365.70,321.60 366.16,327.46 366.61,323.29 367.07,323.40 367.52,316.25 367.98,318.87 368.43,317.98 368.88,320.55 369.34,320.00 369.79,305.29 370.25,314.88 370.70,323.49 371.16,314.85 371.61,317.60 372.06,317.41 372.52,318.29 372.97,317.09 373.43,316.10 373.88,313.96 374.34,305.73 374.79,313.63 375.24,316.46 375.70,315.37 376.15,316.04 376.61,311.78 377.06,308.80 377.52,312.32 377.97,315.57 378.42,321.20 378.88,318.37 379.33,312.16 379.79,321.14 380.24,313.89 380.69,314.92 381.15,319.25 381.60,324.25 382.06,317.06 382.51,318.21 382.97,329.89 383.42,327.27 383.87,324.36 384.33,331.75 384.78,332.16 385.24,325.57 385.69,328.98 386.15,329.62 386.60,334.94 387.05,334.08 387.51,330.25 387.96,331.15 388.42,332.70 388.87,324.96 389.33,326.46 389.78,331.07 390.23,320.87 390.69,325.19 391.14,317.06 391.60,314.52 392.05,316.29 392.51,321.48 392.96,318.92 393.41,314.86 393.87,314.56 394.32,313.45 394.78,319.80 395.23,326.70 395.68,319.80 396.14,324.02 396.59,323.46 397.05,324.38 397.50,323.23 397.96,314.65 398.41,319.63 398.86,318.72 399.32,313.93 399.77,318.46 400.23,323.24 400.68,317.43 401.14,318.16 401.59,318.65 402.04,315.74 402.50,317.77 402.95,318.23 403.41,313.66 403.86,308.39 404.32,319.31 404.77,317.89 405.22,312.68 405.68,323.94 406.13,323.18 406.59,316.99 407.04,306.99 407.49,309.84 407.95,310.81 408.40,307.90 408.86,305.62 409.31,315.71 409.77,322.76 410.22,315.24 410.67,311.68 411.13,305.07 411.58,308.11 412.04,308.04 412.49,315.57 412.95,316.55 413.40,312.95 413.85,314.85 414.31,318.63 414.76,315.24 415.22,307.36 415.67,301.89 416.13,321.36 416.58,309.07 417.03,321.25 417.49,317.68 417.94,328.65 418.40,317.18 418.85,313.59 419.31,313.39 419.76,307.28 420.21,313.83 420.67,307.33 421.12,314.35 421.58,312.41 422.03,321.52 422.48,319.93 422.94,317.46 423.39,316.38 423.85,321.13 424.30,323.09 424.76,321.53 425.21,326.12 425.66,336.67 426.12,325.62 426.57,314.30 427.03,310.29 427.48,319.51 427.94,315.91 428.39,318.95 428.84,318.40 429.30,325.12 429.75,312.60 430.21,318.28 430.66,315.21 431.12,313.20 431.57,319.55 432.02,316.91 432.48,323.20 432.93,315.77 433.39,310.21 433.84,311.57 434.30,317.37 434.75,318.64 435.20,317.99 435.66,321.09 436.11,319.68 436.57,313.47 437.02,326.19 437.47,322.27 437.93,339.61 438.38,336.50 438.84,333.01 439.29,330.87 439.75,329.04 440.20,328.32 440.65,329.02 441.11,327.95 441.56,334.82 442.02,339.97 442.47,338.77 442.93,338.93 443.38,333.87 443.83,334.89 444.29,329.90 444.74,328.32 445.20,335.98 445.65,329.73 446.11,333.52 446.56,330.64 447.01,326.77 447.47,332.23 447.92,331.96 448.38,335.04 448.83,329.65 449.29,338.53 449.74,330.33 450.19,332.59 450.65,333.00 451.10,330.79 451.56,316.44 452.01,331.60 452.46,326.36 452.92,327.35 453.37,323.76 453.83,328.72 454.28,328.60 454.74,338.76 455.19,341.70 455.64,346.29 456.10,334.68 456.55,335.43 457.01,337.79 457.46,327.24 457.92,319.50 458.37,320.59 458.82,314.01 459.28,317.71 459.73,321.86 460.19,309.80 460.64,318.33 461.10,316.71 461.55,320.75 462.00,326.09 462.46,319.98 462.91,325.33 463.37,323.40 463.82,318.86 464.28,325.48 464.73,325.37 465.18,327.49 465.64,324.59 466.09,328.37 466.55,335.57 467.00,331.92 467.45,331.68 467.91,329.38 468.36,341.31 468.82,333.72 469.27,334.36 469.73,338.24 470.18,333.71 470.63,336.87 471.09,335.96 471.54,334.01 472.00,331.06 472.45,332.63 472.91,323.04 473.36,325.05 473.81,325.96 474.27,323.83 474.72,326.25 475.18,340.85 475.63,333.88 476.09,334.26 476.54,333.17 476.99,331.04 477.45,323.73 477.90,317.96 478.36,334.09 478.81,319.20 479.27,333.67 479.72,327.44 480.17,331.01 480.63,330.60 481.08,323.50 481.54,333.24 481.99,333.98 482.44,323.42 482.90,328.38 483.35,332.84 483.81,330.94 484.26,337.70 484.72,327.18 485.17,338.41 485.62,327.11 486.08,336.66 486.53,339.18 486.99,327.94 487.44,337.49 487.90,327.95 488.35,331.47 488.80,327.79 489.26,327.68 489.71,335.73 490.17,321.07 490.62,322.98 491.08,328.72 491.53,324.17 491.98,329.73 492.44,332.85 492.89,324.03 493.35,328.89 493.80,321.97 494.26,334.24 494.71,325.46 495.16,317.77 495.62,326.24 496.07,323.17 496.53,325.52 496.98,322.86 497.43,323.40 497.89,335.40 498.34,327.91 498.80,316.19 499.25,321.01 499.71,318.67 500.16,329.11 500.61,331.49 501.07,325.08 501.52,323.43 501.98,336.39 502.43,337.44 502.89,332.52 503.34,332.04 503.79,334.61 504.25,324.57 504.70,335.43 505.16,339.01 505.61,334.01 506.07,340.16 506.52,334.59 506.97,337.07 507.43,332.12 507.88,327.29 508.34,325.52 508.79,338.12 509.25,330.61 509.70,335.76 510.15,337.93 510.61,338.45 511.06,336.46 511.52,339.65 511.97,339.25 512.42,351.48 512.88,349.50 513.33,337.73 513.79,325.79 514.24,334.64 514.70,337.31 515.15,339.08 515.60,334.86 516.06,340.75 516.51,346.98 516.97,344.79 517.42,342.14 517.88,342.42 518.33,344.42 518.78,350.33 519.24,349.94 519.69,356.71 520.15,354.61 520.60,352.08 521.06,356.04 521.51,352.71 521.96,337.88 522.42,339.47 522.87,338.87 523.33,342.14 523.78,342.47 524.24,332.34 524.69,345.58 525.14,343.44 525.60,328.82 526.05,335.16 526.51,339.02 526.96,335.96 527.41,328.58 527.87,328.66 528.32,337.19 528.78,337.21 529.23,322.32 529.69,325.06 530.14,324.21 530.59,320.87 531.05,340.92 531.50,326.34 531.96,330.51 532.41,323.48 532.87,340.76 533.32,326.50 533.77,332.79 534.23,328.83 534.68,326.62 535.14,325.42 535.59,333.92 536.05,328.49 536.50,325.71 536.95,325.20 537.41,332.61 537.86,329.67 538.32,327.01 538.77,336.29 539.23,323.12 539.68,320.11 540.13,322.46 540.59,324.95 541.04,326.92 541.50,324.81 541.95,318.43 542.40,314.11 542.86,322.46 543.31,315.16 543.77,327.29 544.22,332.04 544.68,323.50 545.13,317.90 545.58,315.30 546.04,316.04 546.49,317.13 546.95,314.99 547.40,313.95 547.86,316.24 548.31,317.63 548.76,305.48 549.22,311.55 549.67,314.86 550.13,315.09 550.58,303.76 551.04,317.65 551.49,313.54 551.94,311.34 552.40,315.66 552.85,307.59 553.31,309.24 553.76,310.81 554.22,314.28 554.67,314.03 555.12,317.38 555.58,315.59 556.03,311.54 556.49,322.30 556.94,315.19 557.39,325.62 557.85,324.23 558.30,318.54 558.76,313.30 559.21,323.67 559.67,319.67 560.12,319.98 560.57,327.08 561.03,322.98 561.48,321.98 561.94,327.25 562.39,315.95 562.85,329.65 563.30,330.71 563.75,321.37 564.21,327.22 564.66,333.27 565.12,325.64 565.57,330.02 566.03,324.94 566.48,317.69 566.93,321.19 567.39,332.70 567.84,320.88 568.30,324.75 568.75,324.60 569.21,324.11 569.66,314.48 570.11,326.18 570.57,323.28 571.02,323.60 571.48,326.38 571.93,321.72 572.38,319.04 572.84,317.08 573.29,326.90 573.75,326.39 574.20,337.47 574.66,328.13 575.11,327.98 575.56,329.96 576.02,321.41 576.47,321.11 576.93,325.51 577.38,318.83 577.84,326.20 578.29,328.07 578.74,320.81 579.20,325.57 579.65,319.99 580.11,325.33 580.56,325.58 581.02,330.84 581.47,323.56 581.92,323.88 582.38,331.17 582.83,319.48 583.29,326.74 583.74,318.61 584.20,323.42 584.65,312.19 585.10,314.21 585.56,315.31 586.01,318.81 586.47,313.57 586.92,320.72 587.37,320.98 587.83,317.69 588.28,318.90 588.74,322.03 589.19,321.64 589.65,319.67 590.10,323.99 590.55,324.73 591.01,317.28 591.46,312.88 591.92,319.05 592.37,314.77 592.83,323.17 593.28,330.38 593.73,329.69 594.19,316.70 594.64,313.29 595.10,323.72 595.55,325.60 596.01,324.59 596.46,318.31 596.91,331.65 597.37,325.34 597.82,324.32 598.28,321.66 598.73,328.78 599.19,333.44 599.64,327.50 600.09,329.51 600.55,337.12 601.00,337.47 601.46,338.01 601.91,341.56 602.36,332.78 602.82,339.91 603.27,336.65 603.73,341.35 604.18,335.44 604.64,338.87 605.09,349.84 605.54,337.53 606.00,327.26 606.45,340.78 606.91,339.53 607.36,341.38 607.82,341.88 608.27,346.94 608.72,344.16 609.18,335.13 609.63,337.91 610.09,336.57 610.54,352.92 611.00,346.42 611.45,343.32 611.90,346.01 612.36,352.42 612.81,349.52 613.27,345.45 613.72,337.46 614.18,343.43 614.63,345.39 615.08,345.20 615.54,348.84 615.99,338.93 616.45,337.58 616.90,333.63 617.35,336.66 617.81,336.33 618.26,353.03 618.72,350.14 619.17,349.87 619.63,360.00 620.08,346.03 620.53,340.43 620.99,342.52 621.44,351.86 621.90,347.33 622.35,357.20 622.81,347.59 623.26,344.57 623.71,333.41 624.17,339.54 624.62,339.66 625.08,336.47 625.53,325.24 625.99,323.54 626.44,320.32 626.89,322.66 627.35,335.56 627.80,322.56 628.26,337.43 628.71,334.29 629.16,334.04 629.62,338.66 630.07,326.23 630.53,315.23 630.98,321.34 631.44,329.83 631.89,320.90 632.34,322.64 632.80,329.35 633.25,335.66 633.71,329.23 634.16,324.85 634.62,324.17 635.07,321.46 635.52,326.48 635.98,323.79 636.43,319.30 636.89,331.60 637.34,329.47 637.80,323.05 638.25,322.33 638.70,330.35 639.16,326.55 639.61,328.68 640.07,327.12 640.52,328.36 640.98,324.08 641.43,328.51 641.88,324.90 642.34,324.83 642.79,329.29 643.25,323.06 643.70,327.03 644.15,325.80 644.61,331.41 645.06,327.11 645.52,329.23 645.97,330.63 646.43,332.30 646.88,327.10 647.33,327.14 647.79,326.61 648.24,321.79 648.70,326.15 649.15,329.44 649.61,335.72 650.06,331.96 650.51,330.04 650.97,326.99 651.42,322.18 651.88,340.64 652.33,328.34 652.79,341.79 653.24,337.01 653.69,340.85 654.15,332.75 654.60,335.85 655.06,345.96 655.51,339.96 655.97,325.10 656.42,339.20 656.87,332.26 657.33,334.28 657.78,338.03 658.24,332.98 658.69,333.79 659.14,332.29 659.60,337.57 660.05,336.49 660.51,341.45 660.96,344.88 661.42,339.44 661.87,337.79 662.32,339.80 662.78,348.66 663.23,345.12 663.69,349.45 664.14,342.10 664.60,338.20 665.05,346.46 665.50,353.21 665.96,346.16 666.41,344.83 666.87,341.33 667.32,343.43 667.78,341.87 668.23,335.30 668.68,344.64 669.14,347.59 669.59,340.12 670.05,345.45 670.50,338.06 670.96,352.41 671.41,332.22 671.86,339.13 672.32,331.54 672.77,340.26 673.23,340.43 673.68,336.58 674.13,334.25 674.59,334.86 675.04,341.96 675.50,341.38 675.95,335.51 676.41,338.68 676.86,340.32 677.31,331.21 677.77,330.87 678.22,340.02 678.68,334.69 679.13,339.02 679.59,334.95 680.04,336.95 680.49,329.33 680.95,328.29 681.40,328.59 681.86,338.05 682.31,338.80 682.77,338.90 683.22,332.78 683.67,326.09 684.13,337.17 684.58,330.34 685.04,325.92 685.49,333.86 685.95,330.77 686.40,326.47 686.85,323.30 687.31,332.67 687.76,332.01 688.22,324.83 688.67,341.29 689.12,328.56 689.58,337.48 690.03,338.43 690.49,329.30 690.94,336.07 691.40,331.49 691.85,333.85 692.30,336.26 692.76,341.50 693.21,327.39 693.67,332.28 694.12,336.54 694.58,341.67 695.03,330.67 695.48,328.40 695.94,344.16 696.39,328.67 696.85,338.88 697.30,327.53 697.76,329.99 698.21,332.14 698.66,325.44 699.12,324.21 699.57,325.14 700.03,335.30 700.48,320.12 700.94,318.53 701.39,323.54 701.84,315.35 702.30,317.48 702.75,320.81 703.21,328.92 703.66,325.67 704.11,331.92 704.57,326.61 705.02,329.99 705.48,334.42 705.93,330.18 706.39,329.79 706.84,331.37 707.29,333.30 707.75,325.68 708.20,326.35 708.66,327.50 709.11,329.28 709.57,316.73 710.02,325.45 710.47,314.55 710.93,318.88 711.38,322.58 711.84,329.65 712.29,321.20 712.75,320.49 713.20,321.88 713.65,318.96 714.11,324.52 714.56,327.08 715.02,319.08 715.47,321.77 715.93,326.26 716.38,322.29 716.83,321.12 717.29,317.35 717.74,317.29 718.20,311.98 718.65,306.99 719.10,308.09 719.56,304.03 720.01,321.60 720.47,307.51 720.92,312.09 721.38,305.17 721.83,314.71 722.28,308.01 722.74,322.45 723.19,324.98 723.65,320.92 724.10,322.67 724.56,317.99 725.01,331.26 725.46,314.32 725.92,320.12 726.37,324.91 726.83,323.05 727.28,328.49 727.74,327.55 728.19,324.37 728.64,317.34 729.10,319.29 729.55,332.30 730.01,317.84 730.46,316.22 730.92,321.41 731.37,323.48 731.82,321.99 732.28,333.54 732.73,330.42 733.19,325.03 733.64,329.51 734.09,326.67 734.55,336.34 735.00,331.87 735.46,324.44 735.91,326.39 736.37,321.28 736.82,324.51 737.27,336.33 737.73,317.82 738.18,336.88 738.64,329.40 739.09,318.80 739.55,320.68 740.00,310.21" />
</svg>
