<svg xmlns="http://www.w3.org/2000/svg" width="800" height="420">
  <rect x="0" y="0" width="800" height="420" fill="#ffffff" />
  <line x1="60" y1="360" x2="740" y2="360" stroke="#333333" stroke-width="2" />
  <line x1="60" y1="60" x2="60" y2="360" stroke="#333333" stroke-width="2" />
  <text x="400.0" y="30" text-anchor="middle" font-size="22" font-family="Arial">Evaluation Win Ratio</text>
  <text x="400.0" y="405" text-anchor="middle" font-size="16" font-family="Arial">Batch</text>
  <text x="24" y="210.0" text-anchor="middle" font-size="16" font-family="Arial" transform="rotate(-90 24 210.0)">Win Ratio</text>
  <text x="60" y="50" font-size="13" font-family="Arial">0.600</text>
  <text x="60" y="380" font-size="13" font-family="Arial">0.000</text>
  <text x="60" y="395" font-size="13" font-family="Arial">50</text>
  <text x="740" y="395" text-anchor="end" font-size="13" font-family="Arial">1500</text>
  <polyline fill="none" stroke="#16a34a" stroke-width="3" points="60.00,360.00 83.45,310.00 106.90,260.00 130.34,260.00 153.79,210.00 177.24,260.00 200.69,260.00 224.14,210.00 247.59,260.00 271.03,260.00 294.48,210.00 317.93,210.00 341.38,360.00 364.83,310.00 388.28,310.00 411.72,160.00 435.17,210.00 458.62,260.00 482.07,160.00 505.52,110.00 528.97,310.00 552.41,160.00 575.86,260.00 599.31,210.00 622.76,160.00 646.21,110.00 669.66,160.00 693.10,310.00 716.55,60.00 740.00,110.00" />
</svg>
