<svg xmlns="http://www.w3.org/2000/svg" width="1000" height="520">
  <rect x="0" y="0" width="1000" height="520" fill="#ffffff" />
  <line x1="70" y1="450" x2="930" y2="450" stroke="#333333" stroke-width="2" />
  <line x1="70" y1="70" x2="70" y2="450" stroke="#333333" stroke-width="2" />
  <text x="500.0" y="35" text-anchor="middle" font-size="24" font-family="Arial">Replay Buffer Size Comparison</text>
  <text x="500.0" y="500" text-anchor="middle" font-size="16" font-family="Arial">Batch</text>
  <text x="28" y="260.0" text-anchor="middle" font-size="16" font-family="Arial" transform="rotate(-90 28 260.0)">Buffer Size</text>
  <text x="70" y="58" font-size="13" font-family="Arial">10000.000</text>
  <text x="70" y="470" font-size="13" font-family="Arial">96.000</text>
  <text x="70" y="488" font-size="13" font-family="Arial">1</text>
  <text x="930" y="488" text-anchor="end" font-size="13" font-family="Arial">1500</text>
  <line x1="70" y1="146.00" x2="930" y2="146.00" stroke="#dddddd" stroke-width="1" stroke-dasharray="4,4" />
  <line x1="70" y1="222.00" x2="930" y2="222.00" stroke="#dddddd" stroke-width="1" stroke-dasharray="4,4" />
  <line x1="70" y1="298.00" x2="930" y2="298.00" stroke="#dddddd" stroke-width="1" stroke-dasharray="4,4" />
  <line x1="70" y1="374.00" x2="930" y2="374.00" stroke="#dddddd" stroke-width="1" stroke-dasharray="4,4" />
  <polyline fill="none" stroke="#2563eb" stroke-width="3" points="70.00,450.00 70.57,441.10 71.15,435.88 71.72,432.50 72.29,426.67 72.87,422.07 73.44,418.08 74.02,415.32 74.59,411.63 75.16,409.18 75.74,403.34 76.31,397.82 76.88,393.21 77.46,390.15 78.03,384.93 78.61,378.48 79.18,374.49 79.75,372.04 80.33,367.74 80.90,363.44 81.47,360.37 82.05,356.38 82.62,353.31 83.20,347.17 83.77,343.80 84.34,339.81 84.92,336.12 85.49,331.83 86.06,327.84 86.64,325.07 87.21,322.31 87.79,319.55 88.36,315.86 88.93,311.57 89.51,306.35 90.08,300.52 90.65,294.99 91.23,292.54 91.80,289.16 92.37,284.56 92.95,280.57 93.52,276.88 94.10,271.36 94.67,265.22 95.24,260.92 95.82,258.77 96.39,253.86 96.96,248.34 97.54,244.35 98.11,240.97 98.69,236.06 99.26,232.07 99.83,228.69 100.41,221.02 100.98,215.80 101.55,212.73 102.13,208.13 102.70,202.91 103.28,197.69 103.85,193.39 104.42,189.71 105.00,187.56 105.57,182.96 106.14,179.58 106.72,176.20 107.29,171.60 107.87,168.84 108.44,166.38 109.01,163.31 109.59,158.71 110.16,154.10 110.73,148.89 111.31,146.74 111.88,142.44 112.45,139.98 113.03,136.91 113.60,133.23 114.18,130.16 114.75,125.56 115.32,122.49 115.90,118.50 116.47,111.44 117.04,108.06 117.62,104.99 118.19,100.39 118.77,97.32 119.34,93.63 119.91,91.49 120.49,86.27 121.06,81.97 121.63,79.21 122.21,77.06 122.78,72.46 123.36,70.00 123.93,70.00 124.50,70.00 125.08,70.00 125.65,70.00 126.22,70.00 126.80,70.00 127.37,70.00 127.95,70.00 128.52,70.00 129.09,70.00 129.67,70.00 130.24,70.00 130.81,70.00 131.39,70.00 131.96,70.00 132.54,70.00 133.11,70.00 133.68,70.00 134.26,70.00 134.83,70.00 135.40,70.00 135.98,70.00 136.55,70.00 137.12,70.00 137.70,70.00 138.27,70.00 138.85,70.00 139.42,70.00 139.99,70.00 140.57,70.00 141.14,70.00 141.71,70.00 142.29,70.00 142.86,70.00 143.44,70.00 144.01,70.00 144.58,70.00 145.16,70.00 145.73,70.00 146.30,70.00 146.88,70.00 147.45,70.00 148.03,70.00 148.60,70.00 149.17,70.00 149.75,70.00 150.32,70.00 150.89,70.00 151.47,70.00 152.04,70.00 152.62,70.00 153.19,70.00 153.76,70.00 154.34,70.00 154.91,70.00 155.48,70.00 156.06,70.00 156.63,70.00 157.20,70.00 157.78,70.00 158.35,70.00 158.93,70.00 159.50,70.00 160.07,70.00 160.65,70.00 161.22,70.00 161.79,70.00 162.37,70.00 162.94,70.00 163.52,70.00 164.09,70.00 164.66,70.00 165.24,70.00 165.81,70.00 166.38,70.00 166.96,70.00 167.53,70.00 168.11,70.00 168.68,70.00 169.25,70.00 169.83,70.00 170.40,70.00 170.97,70.00 171.55,70.00 172.12,70.00 172.70,70.00 173.27,70.00 173.84,70.00 174.42,70.00 174.99,70.00 175.56,70.00 176.14,70.00 176.71,70.00 177.28,70.00 177.86,70.00 178.43,70.00 179.01,70.00 179.58,70.00 180.15,70.00 180.73,70.00 181.30,70.00 181.87,70.00 182.45,70.00 183.02,70.00 183.60,70.00 184.17,70.00 184.74,70.00 185.32,70.00 185.89,70.00 186.46,70.00 187.04,70.00 187.61,70.00 188.19,70.00 188.76,70.00 189.33,70.00 189.91,70.00 190.48,70.00 191.05,70.00 191.63,70.00 192.20,70.00 192.78,70.00 193.35,70.00 193.92,70.00 194.50,70.00 195.07,70.00 195.64,70.00 196.22,70.00 196.79,70.00 197.36,70.00 197.94,70.00 198.51,70.00 199.09,70.00 199.66,70.00 200.23,70.00 200.81,70.00 201.38,70.00 201.95,70.00 202.53,70.00 203.10,70.00 203.68,70.00 204.25,70.00 204.82,70.00 205.40,70.00 205.97,70.00 206.54,70.00 207.12,70.00 207.69,70.00 208.27,70.00 208.84,70.00 209.41,70.00 209.99,70.00 210.56,70.00 211.13,70.00 211.71,70.00 212.28,70.00 212.86,70.00 213.43,70.00 214.00,70.00 214.58,70.00 215.15,70.00 215.72,70.00 216.30,70.00 216.87,70.00 217.44,70.00 218.02,70.00 218.59,70.00 219.17,70.00 219.74,70.00 220.31,70.00 220.89,70.00 221.46,70.00 222.03,70.00 222.61,70.00 223.18,70.00 223.76,70.00 224.33,70.00 224.90,70.00 225.48,70.00 226.05,70.00 226.62,70.00 227.20,70.00 227.77,70.00 228.35,70.00 228.92,70.00 229.49,70.00 230.07,70.00 230.64,70.00 231.21,70.00 231.79,70.00 232.36,70.00 232.94,70.00 233.51,70.00 234.08,70.00 234.66,70.00 235.23,70.00 235.80,70.00 236.38,70.00 236.95,70.00 237.53,70.00 238.10,70.00 238.67,70.00 239.25,70.00 239.82,70.00 240.39,70.00 240.97,70.00 241.54,70.00 242.11,70.00 242.69,70.00 243.26,70.00 243.84,70.00 244.41,70.00 244.98,70.00 245.56,70.00 246.13,70.00 246.70,70.00 247.28,70.00 247.85,70.00 248.43,70.00 249.00,70.00 249.57,70.00 250.15,70.00 250.72,70.00 251.29,70.00 251.87,70.00 252.44,70.00 253.02,70.00 253.59,70.00 254.16,70.00 254.74,70.00 255.31,70.00 255.88,70.00 256.46,70.00 257.03,70.00 257.61,70.00 258.18,70.00 258.75,70.00 259.33,70.00 259.90,70.00 260.47,70.00 261.05,70.00 261.62,70.00 262.19,70.00 262.77,70.00 263.34,70.00 263.92,70.00 264.49,70.00 265.06,70.00 265.64,70.00 266.21,70.00 266.78,70.00 267.36,70.00 267.93,70.00 268.51,70.00 269.08,70.00 269.65,70.00 270.23,70.00 270.80,70.00 271.37,70.00 271.95,70.00 272.52,70.00 273.10,70.00 273.67,70.00 274.24,70.00 274.82,70.00 275.39,70.00 275.96,70.00 276.54,70.00 277.11,70.00 277.69,70.00 278.26,70.00 278.83,70.00 279.41,70.00 279.98,70.00 280.55,70.00 281.13,70.00 281.70,70.00 282.27,70.00 282.85,70.00 283.42,70.00 284.00,70.00 284.57,70.00 285.14,70.00 285.72,70.00 286.29,70.00 286.86,70.00 287.44,70.00 288.01,70.00 288.59,70.00 289.16,70.00 289.73,70.00 290.31,70.00 290.88,70.00 291.45,70.00 292.03,70.00 292.60,70.00 293.18,70.00 293.75,70.00 294.32,70.00 294.90,70.00 295.47,70.00 296.04,70.00 296.62,70.00 297.19,70.00 297.77,70.00 298.34,70.00 298.91,70.00 299.49,70.00 300.06,70.00 300.63,70.00 301.21,70.00 301.78,70.00 302.35,70.00 302.93,70.00 303.50,70.00 304.08,70.00 304.65,70.00 305.22,70.00 305.80,70.00 306.37,70.00 306.94,70.00 307.52,70.00 308.09,70.00 308.67,70.00 309.24,70.00 309.81,70.00 310.39,70.00 310.96,70.00 311.53,70.00 312.11,70.00 312.68,70.00 313.26,70.00 313.83,70.00 314.40,70.00 314.98,70.00 315.55,70.00 316.12,70.00 316.70,70.00 317.27,70.00 317.85,70.00 318.42,70.00 318.99,70.00 319.57,70.00 320.14,70.00 320.71,70.00 321.29,70.00 321.86,70.00 322.43,70.00 323.01,70.00 323.58,70.00 324.16,70.00 324.73,70.00 325.30,70.00 325.88,70.00 326.45,70.00 327.02,70.00 327.60,70.00 328.17,70.00 328.75,70.00 329.32,70.00 329.89,70.00 330.47,70.00 331.04,70.00 331.61,70.00 332.19,70.00 332.76,70.00 333.34,70.00 333.91,70.00 334.48,70.00 335.06,70.00 335.63,70.00 336.20,70.00 336.78,70.00 337.35,70.00 337.93,70.00 338.50,70.00 339.07,70.00 339.65,70.00 340.22,70.00 340.79,70.00 341.37,70.00 341.94,70.00 342.52,70.00 343.09,70.00 343.66,70.00 344.24,70.00 344.81,70.00 345.38,70.00 345.96,70.00 346.53,70.00 347.10,70.00 347.68,70.00 348.25,70.00 348.83,70.00 349.40,70.00 349.97,70.00 350.55,70.00 351.12,70.00 351.69,70.00 352.27,70.00 352.84,70.00 353.42,70.00 353.99,70.00 354.56,70.00 355.14,70.00 355.71,70.00 356.28,70.00 356.86,70.00 357.43,70.00 358.01,70.00 358.58,70.00 359.15,70.00 359.73,70.00 360.30,70.00 360.87,70.00 361.45,70.00 362.02,70.00 362.60,70.00 363.17,70.00 363.74,70.00 364.32,70.00 364.89,70.00 365.46,70.00 366.04,70.00 366.61,70.00 367.18,70.00 367.76,70.00 368.33,70.00 368.91,70.00 369.48,70.00 370.05,70.00 370.63,70.00 371.20,70.00 371.77,70.00 372.35,70.00 372.92,70.00 373.50,70.00 374.07,70.00 374.64,70.00 375.22,70.00 375.79,70.00 376.36,70.00 376.94,70.00 377.51,70.00 378.09,70.00 378.66,70.00 379.23,70.00 379.81,70.00 380.38,70.00 380.95,70.00 381.53,70.00 382.10,70.00 382.68,70.00 383.25,70.00 383.82,70.00 384.40,70.00 384.97,70.00 385.54,70.00 386.12,70.00 386.69,70.00 387.26,70.00 387.84,70.00 388.41,70.00 388.99,70.00 389.56,70.00 390.13,70.00 390.71,70.00 391.28,70.00 391.85,70.00 392.43,70.00 393.00,70.00 393.58,70.00 394.15,70.00 394.72,70.00 395.30,70.00 395.87,70.00 396.44,70.00 397.02,70.00 397.59,70.00 398.17,70.00 398.74,70.00 399.31,70.00 399.89,70.00 400.46,70.00 401.03,70.00 401.61,70.00 402.18,70.00 402.76,70.00 403.33,70.00 403.90,70.00 404.48,70.00 405.05,70.00 405.62,70.00 406.20,70.00 406.77,70.00 407.34,70.00 407.92,70.00 408.49,70.00 409.07,70.00 409.64,70.00 410.21,70.00 410.79,70.00 411.36,70.00 411.93,70.00 412.51,70.00 413.08,70.00 413.66,70.00 414.23,70.00 414.80,70.00 415.38,70.00 415.95,70.00 416.52,70.00 417.10,70.00 417.67,70.00 418.25,70.00 418.82,70.00 419.39,70.00 419.97,70.00 420.54,70.00 421.11,70.00 421.69,70.00 422.26,70.00 422.84,70.00 423.41,70.00 423.98,70.00 424.56,70.00 425.13,70.00 425.70,70.00 426.28,70.00 426.85,70.00 427.42,70.00 428.00,70.00 428.57,70.00 429.15,70.00 429.72,70.00 430.29,70.00 430.87,70.00 431.44,70.00 432.01,70.00 432.59,70.00 433.16,70.00 433.74,70.00 434.31,70.00 434.88,70.00 435.46,70.00 436.03,70.00 436.60,70.00 437.18,70.00 437.75,70.00 438.33,70.00 438.90,70.00 439.47,70.00 440.05,70.00 440.62,70.00 441.19,70.00 441.77,70.00 442.34,70.00 442.92,70.00 443.49,70.00 444.06,70.00 444.64,70.00 445.21,70.00 445.78,70.00 446.36,70.00 446.93,70.00 447.51,70.00 448.08,70.00 448.65,70.00 449.23,70.00 449.80,70.00 450.37,70.00 450.95,70.00 451.52,70.00 452.09,70.00 452.67,70.00 453.24,70.00 453.82,70.00 454.39,70.00 454.96,70.00 455.54,70.00 456.11,70.00 456.68,70.00 457.26,70.00 457.83,70.00 458.41,70.00 458.98,70.00 459.55,70.00 460.13,70.00 460.70,70.00 461.27,70.00 461.85,70.00 462.42,70.00 463.00,70.00 463.57,70.00 464.14,70.00 464.72,70.00 465.29,70.00 465.86,70.00 466.44,70.00 467.01,70.00 467.59,70.00 468.16,70.00 468.73,70.00 469.31,70.00 469.88,70.00 470.45,70.00 471.03,70.00 471.60,70.00 472.17,70.00 472.75,70.00 473.32,70.00 473.90,70.00 474.47,70.00 475.04,70.00 475.62,70.00 476.19,70.00 476.76,70.00 477.34,70.00 477.91,70.00 478.49,70.00 479.06,70.00 479.63,70.00 480.21,70.00 480.78,70.00 481.35,70.00 481.93,70.00 482.50,70.00 483.08,70.00 483.65,70.00 484.22,70.00 484.80,70.00 485.37,70.00 485.94,70.00 486.52,70.00 487.09,70.00 487.67,70.00 488.24,70.00 488.81,70.00 489.39,70.00 489.96,70.00 490.53,70.00 491.11,70.00 491.68,70.00 492.25,70.00 492.83,70.00 493.40,70.00 493.98,70.00 494.55,70.00 495.12,70.00 495.70,70.00 496.27,70.00 496.84,70.00 497.42,70.00 497.99,70.00 498.57,70.00 499.14,70.00 499.71,70.00 500.29,70.00 500.86,70.00 501.43,70.00 502.01,70.00 502.58,70.00 503.16,70.00 503.73,70.00 504.30,70.00 504.88,70.00 505.45,70.00 506.02,70.00 506.60,70.00 507.17,70.00 507.75,70.00 508.32,70.00 508.89,70.00 509.47,70.00 510.04,70.00 510.61,70.00 511.19,70.00 511.76,70.00 512.33,70.00 512.91,70.00 513.48,70.00 514.06,70.00 514.63,70.00 515.20,70.00 515.78,70.00 516.35,70.00 516.92,70.00 517.50,70.00 518.07,70.00 518.65,70.00 519.22,70.00 519.79,70.00 520.37,70.00 520.94,70.00 521.51,70.00 522.09,70.00 522.66,70.00 523.24,70.00 523.81,70.00 524.38,70.00 524.96,70.00 525.53,70.00 526.10,70.00 526.68,70.00 527.25,70.00 527.83,70.00 528.40,70.00 528.97,70.00 529.55,70.00 530.12,70.00 530.69,70.00 531.27,70.00 531.84,70.00 532.41,70.00 532.99,70.00 533.56,70.00 534.14,70.00 534.71,70.00 535.28,70.00 535.86,70.00 536.43,70.00 537.00,70.00 537.58,70.00 538.15,70.00 538.73,70.00 539.30,70.00 539.87,70.00 540.45,70.00 541.02,70.00 541.59,70.00 542.17,70.00 542.74,70.00 543.32,70.00 543.89,70.00 544.46,70.00 545.04,70.00 545.61,70.00 546.18,70.00 546.76,70.00 547.33,70.00 547.91,70.00 548.48,70.00 549.05,70.00 549.63,70.00 550.20,70.00 550.77,70.00 551.35,70.00 551.92,70.00 552.49,70.00 553.07,70.00 553.64,70.00 554.22,70.00 554.79,70.00 555.36,70.00 555.94,70.00 556.51,70.00 557.08,70.00 557.66,70.00 558.23,70.00 558.81,70.00 559.38,70.00 559.95,70.00 560.53,70.00 561.10,70.00 561.67,70.00 562.25,70.00 562.82,70.00 563.40,70.00 563.97,70.00 564.54,70.00 565.12,70.00 565.69,70.00 566.26,70.00 566.84,70.00 567.41,70.00 567.99,70.00 568.56,70.00 569.13,70.00 569.71,70.00 570.28,70.00 570.85,70.00 571.43,70.00 572.00,70.00 572.58,70.00 573.15,70.00 573.72,70.00 574.30,70.00 574.87,70.00 575.44,70.00 576.02,70.00 576.59,70.00 577.16,70.00 577.74,70.00 578.31,70.00 578.89,70.00 579.46,70.00 580.03,70.00 580.61,70.00 581.18,70.00 581.75,70.00 582.33,70.00 582.90,70.00 583.48,70.00 584.05,70.00 584.62,70.00 585.20,70.00 585.77,70.00 586.34,70.00 586.92,70.00 587.49,70.00 588.07,70.00 588.64,70.00 589.21,70.00 589.79,70.00 590.36,70.00 590.93,70.00 591.51,70.00 592.08,70.00 592.66,70.00 593.23,70.00 593.80,70.00 594.38,70.00 594.95,70.00 595.52,70.00 596.10,70.00 596.67,70.00 597.24,70.00 597.82,70.00 598.39,70.00 598.97,70.00 599.54,70.00 600.11,70.00 600.69,70.00 601.26,70.00 601.83,70.00 602.41,70.00 602.98,70.00 603.56,70.00 604.13,70.00 604.70,70.00 605.28,70.00 605.85,70.00 606.42,70.00 607.00,70.00 607.57,70.00 608.15,70.00 608.72,70.00 609.29,70.00 609.87,70.00 610.44,70.00 611.01,70.00 611.59,70.00 612.16,70.00 612.74,70.00 613.31,70.00 613.88,70.00 614.46,70.00 615.03,70.00 615.60,70.00 616.18,70.00 616.75,70.00 617.32,70.00 617.90,70.00 618.47,70.00 619.05,70.00 619.62,70.00 620.19,70.00 620.77,70.00 621.34,70.00 621.91,70.00 622.49,70.00 623.06,70.00 623.64,70.00 624.21,70.00 624.78,70.00 625.36,70.00 625.93,70.00 626.50,70.00 627.08,70.00 627.65,70.00 628.23,70.00 628.80,70.00 629.37,70.00 629.95,70.00 630.52,70.00 631.09,70.00 631.67,70.00 632.24,70.00 632.82,70.00 633.39,70.00 633.96,70.00 634.54,70.00 635.11,70.00 635.68,70.00 636.26,70.00 636.83,70.00 637.40,70.00 637.98,70.00 638.55,70.00 639.13,70.00 639.70,70.00 640.27,70.00 640.85,70.00 641.42,70.00 641.99,70.00 642.57,70.00 643.14,70.00 643.72,70.00 644.29,70.00 644.86,70.00 645.44,70.00 646.01,70.00 646.58,70.00 647.16,70.00 647.73,70.00 648.31,70.00 648.88,70.00 649.45,70.00 650.03,70.00 650.60,70.00 651.17,70.00 651.75,70.00 652.32,70.00 652.90,70.00 653.47,70.00 654.04,70.00 654.62,70.00 655.19,70.00 655.76,70.00 656.34,70.00 656.91,70.00 657.48,70.00 658.06,70.00 658.63,70.00 659.21,70.00 659.78,70.00 660.35,70.00 660.93,70.00 661.50,70.00 662.07,70.00 662.65,70.00 663.22,70.00 663.80,70.00 664.37,70.00 664.94,70.00 665.52,70.00 666.09,70.00 666.66,70.00 667.24,70.00 667.81,70.00 668.39,70.00 668.96,70.00 669.53,70.00 670.11,70.00 670.68,70.00 671.25,70.00 671.83,70.00 672.40,70.00 672.98,70.00 673.55,70.00 674.12,70.00 674.70,70.00 675.27,70.00 675.84,70.00 676.42,70.00 676.99,70.00 677.57,70.00 678.14,70.00 678.71,70.00 679.29,70.00 679.86,70.00 680.43,70.00 681.01,70.00 681.58,70.00 682.15,70.00 682.73,70.00 683.30,70.00 683.88,70.00 684.45,70.00 685.02,70.00 685.60,70.00 686.17,70.00 686.74,70.00 687.32,70.00 687.89,70.00 688.47,70.00 689.04,70.00 689.61,70.00 690.19,70.00 690.76,70.00 691.33,70.00 691.91,70.00 692.48,70.00 693.06,70.00 693.63,70.00 694.20,70.00 694.78,70.00 695.35,70.00 695.92,70.00 696.50,70.00 697.07,70.00 697.65,70.00 698.22,70.00 698.79,70.00 699.37,70.00 699.94,70.00 700.51,70.00 701.09,70.00 701.66,70.00 702.23,70.00 702.81,70.00 703.38,70.00 703.96,70.00 704.53,70.00 705.10,70.00 705.68,70.00 706.25,70.00 706.82,70.00 707.40,70.00 707.97,70.00 708.55,70.00 709.12,70.00 709.69,70.00 710.27,70.00 710.84,70.00 711.41,70.00 711.99,70.00 712.56,70.00 713.14,70.00 713.71,70.00 714.28,70.00 714.86,70.00 715.43,70.00 716.00,70.00 716.58,70.00 717.15,70.00 717.73,70.00 718.30,70.00 718.87,70.00 719.45,70.00 720.02,70.00 720.59,70.00 721.17,70.00 721.74,70.00 722.31,70.00 722.89,70.00 723.46,70.00 724.04,70.00 724.61,70.00 725.18,70.00 725.76,70.00 726.33,70.00 726.90,70.00 727.48,70.00 728.05,70.00 728.63,70.00 729.20,70.00 729.77,70.00 730.35,70.00 730.92,70.00 731.49,70.00 732.07,70.00 732.64,70.00 733.22,70.00 733.79,70.00 734.36,70.00 734.94,70.00 735.51,70.00 736.08,70.00 736.66,70.00 737.23,70.00 737.81,70.00 738.38,70.00 738.95,70.00 739.53,70.00 740.10,70.00 740.67,70.00 741.25,70.00 741.82,70.00 742.39,70.00 742.97,70.00 743.54,70.00 744.12,70.00 744.69,70.00 745.26,70.00 745.84,70.00 746.41,70.00 746.98,70.00 747.56,70.00 748.13,70.00 748.71,70.00 749.28,70.00 749.85,70.00 750.43,70.00 751.00,70.00 751.57,70.00 752.15,70.00 752.72,70.00 753.30,70.00 753.87,70.00 754.44,70.00 755.02,70.00 755.59,70.00 756.16,70.00 756.74,70.00 757.31,70.00 757.89,70.00 758.46,70.00 759.03,70.00 759.61,70.00 760.18,70.00 760.75,70.00 761.33,70.00 761.90,70.00 762.47,70.00 763.05,70.00 763.62,70.00 764.20,70.00 764.77,70.00 765.34,70.00 765.92,70.00 766.49,70.00 767.06,70.00 767.64,70.00 768.21,70.00 768.79,70.00 769.36,70.00 769.93,70.00 770.51,70.00 771.08,70.00 771.65,70.00 772.23,70.00 772.80,70.00 773.38,70.00 773.95,70.00 774.52,70.00 775.10,70.00 775.67,70.00 776.24,70.00 776.82,70.00 777.39,70.00 777.97,70.00 778.54,70.00 779.11,70.00 779.69,70.00 780.26,70.00 780.83,70.00 781.41,70.00 781.98,70.00 782.56,70.00 783.13,70.00 783.70,70.00 784.28,70.00 784.85,70.00 785.42,70.00 786.00,70.00 786.57,70.00 787.14,70.00 787.72,70.00 788.29,70.00 788.87,70.00 789.44,70.00 790.01,70.00 790.59,70.00 791.16,70.00 791.73,70.00 792.31,70.00 792.88,70.00 793.46,70.00 794.03,70.00 794.60,70.00 795.18,70.00 795.75,70.00 796.32,70.00 796.90,70.00 797.47,70.00 798.05,70.00 798.62,70.00 799.19,70.00 799.77,70.00 800.34,70.00 800.91,70.00 801.49,70.00 802.06,70.00 802.64,70.00 803.21,70.00 803.78,70.00 804.36,70.00 804.93,70.00 805.50,70.00 806.08,70.00 806.65,70.00 807.22,70.00 807.80,70.00 808.37,70.00 808.95,70.00 809.52,70.00 810.09,70.00 810.67,70.00 811.24,70.00 811.81,70.00 812.39,70.00 812.96,70.00 813.54,70.00 814.11,70.00 814.68,70.00 815.26,70.00 815.83,70.00 816.40,70.00 816.98,70.00 817.55,70.00 818.13,70.00 818.70,70.00 819.27,70.00 819.85,70.00 820.42,70.00 820.99,70.00 821.57,70.00 822.14,70.00 822.72,70.00 823.29,70.00 823.86,70.00 824.44,70.00 825.01,70.00 825.58,70.00 826.16,70.00 826.73,70.00 827.30,70.00 827.88,70.00 828.45,70.00 829.03,70.00 829.60,70.00 830.17,70.00 830.75,70.00 831.32,70.00 831.89,70.00 832.47,70.00 833.04,70.00 833.62,70.00 834.19,70.00 834.76,70.00 835.34,70.00 835.91,70.00 836.48,70.00 837.06,70.00 837.63,70.00 838.21,70.00 838.78,70.00 839.35,70.00 839.93,70.00 840.50,70.00 841.07,70.00 841.65,70.00 842.22,70.00 842.80,70.00 843.37,70.00 843.94,70.00 844.52,70.00 845.09,70.00 845.66,70.00 846.24,70.00 846.81,70.00 847.38,70.00 847.96,70.00 848.53,70.00 849.11,70.00 849.68,70.00 850.25,70.00 850.83,70.00 851.40,70.00 851.97,70.00 852.55,70.00 853.12,70.00 853.70,70.00 854.27,70.00 854.84,70.00 855.42,70.00 855.99,70.00 856.56,70.00 857.14,70.00 857.71,70.00 858.29,70.00 858.86,70.00 859.43,70.00 860.01,70.00 860.58,70.00 861.15,70.00 861.73,70.00 862.30,70.00 862.88,70.00 863.45,70.00 864.02,70.00 864.60,70.00 865.17,70.00 865.74,70.00 866.32,70.00 866.89,70.00 867.46,70.00 868.04,70.00 868.61,70.00 869.19,70.00 869.76,70.00 870.33,70.00 870.91,70.00 871.48,70.00 872.05,70.00 872.63,70.00 873.20,70.00 873.78,70.00 874.35,70.00 874.92,70.00 875.50,70.00 876.07,70.00 876.64,70.00 877.22,70.00 877.79,70.00 878.37,70.00 878.94,70.00 879.51,70.00 880.09,70.00 880.66,70.00 881.23,70.00 881.81,70.00 882.38,70.00 882.96,70.00 883.53,70.00 884.10,70.00 884.68,70.00 885.25,70.00 885.82,70.00 886.40,70.00 886.97,70.00 887.55,70.00 888.12,70.00 888.69,70.00 889.27,70.00 889.84,70.00 890.41,70.00 890.99,70.00 891.56,70.00 892.13,70.00 892.71,70.00 893.28,70.00 893.86,70.00 894.43,70.00 895.00,70.00 895.58,70.00 896.15,70.00 896.72,70.00 897.30,70.00 897.87,70.00 898.45,70.00 899.02,70.00 899.59,70.00 900.17,70.00 900.74,70.00 901.31,70.00 901.89,70.00 902.46,70.00 903.04,70.00 903.61,70.00 904.18,70.00 904.76,70.00 905.33,70.00 905.90,70.00 906.48,70.00 907.05,70.00 907.63,70.00 908.20,70.00 908.77,70.00 909.35,70.00 909.92,70.00 910.49,70.00 911.07,70.00 911.64,70.00 912.21,70.00 912.79,70.00 913.36,70.00 913.94,70.00 914.51,70.00 915.08,70.00 915.66,70.00 916.23,70.00 916.80,70.00 917.38,70.00 917.95,70.00 918.53,70.00 919.10,70.00 919.67,70.00 920.25,70.00 920.82,70.00 921.39,70.00 921.97,70.00 922.54,70.00 923.12,70.00 923.69,70.00 924.26,70.00 924.84,70.00 925.41,70.00 925.98,70.00 926.56,70.00 927.13,70.00 927.71,70.00 928.28,70.00 928.85,70.00 929.43,70.00 930.00,70.00" />
  <polyline fill="none" stroke="#dc2626" stroke-width="3" points="70.00,447.24 70.57,440.79 71.15,433.12 71.72,426.67 72.29,422.68 72.87,415.62 73.44,410.40 74.02,402.42 74.59,397.51 75.16,392.91 75.74,388.92 76.31,385.23 76.88,382.16 77.46,376.33 78.03,371.42 78.61,366.82 79.18,360.68 79.75,356.07 80.33,351.47 80.90,346.25 81.47,342.88 82.05,338.27 82.62,329.06 83.20,323.84 83.77,319.24 84.34,316.79 84.92,312.18 85.49,305.12 86.06,300.52 86.64,296.53 87.21,291.62 87.79,287.93 88.36,285.17 88.93,282.71 89.51,277.50 90.08,275.04 90.65,271.36 91.23,266.45 91.80,261.23 92.37,256.62 92.95,252.02 93.52,245.88 94.10,241.89 94.67,238.51 95.24,233.91 95.82,229.61 96.39,225.01 96.96,221.32 97.54,217.03 98.11,211.81 98.69,208.13 99.26,203.52 99.83,200.15 100.41,197.08 100.98,192.16 101.55,189.10 102.13,183.57 102.70,180.50 103.28,173.44 103.85,171.29 104.42,166.07 105.00,160.86 105.57,155.64 106.14,151.03 106.72,147.35 107.29,143.67 107.87,138.45 108.44,134.46 109.01,129.85 109.59,125.86 110.16,122.18 110.73,119.11 111.31,113.89 111.88,110.82 112.45,107.45 113.03,104.07 113.60,101.00 114.18,97.01 114.75,93.33 115.32,89.95 115.90,81.66 116.47,76.75 117.04,71.84 117.62,70.00 118.19,70.00 118.77,70.00 119.34,70.00 119.91,70.00 120.49,70.00 121.06,70.00 121.63,70.00 122.21,70.00 122.78,70.00 123.36,70.00 123.93,70.00 124.50,70.00 125.08,70.00 125.65,70.00 126.22,70.00 126.80,70.00 127.37,70.00 127.95,70.00 128.52,70.00 129.09,70.00 129.67,70.00 130.24,70.00 130.81,70.00 131.39,70.00 131.96,70.00 132.54,70.00 133.11,70.00 133.68,70.00 134.26,70.00 134.83,70.00 135.40,70.00 135.98,70.00 136.55,70.00 137.12,70.00 137.70,70.00 138.27,70.00 138.85,70.00 139.42,70.00 139.99,70.00 140.57,70.00 141.14,70.00 141.71,70.00 142.29,70.00 142.86,70.00 143.44,70.00 144.01,70.00 144.58,70.00 145.16,70.00 145.73,70.00 146.30,70.00 146.88,70.00 147.45,70.00 148.03,70.00 148.60,70.00 149.17,70.00 149.75,70.00 150.32,70.00 150.89,70.00 151.47,70.00 152.04,70.00 152.62,70.00 153.19,70.00 153.76,70.00 154.34,70.00 154.91,70.00 155.48,70.00 156.06,70.00 156.63,70.00 157.20,70.00 157.78,70.00 158.35,70.00 158.93,70.00 159.50,70.00 160.07,70.00 160.65,70.00 161.22,70.00 161.79,70.00 162.37,70.00 162.94,70.00 163.52,70.00 164.09,70.00 164.66,70.00 165.24,70.00 165.81,70.00 166.38,70.00 166.96,70.00 167.53,70.00 168.11,70.00 168.68,70.00 169.25,70.00 169.83,70.00 170.40,70.00 170.97,70.00 171.55,70.00 172.12,70.00 172.70,70.00 173.27,70.00 173.84,70.00 174.42,70.00 174.99,70.00 175.56,70.00 176.14,70.00 176.71,70.00 177.28,70.00 177.86,70.00 178.43,70.00 179.01,70.00 179.58,70.00 180.15,70.00 180.73,70.00 181.30,70.00 181.87,70.00 182.45,70.00 183.02,70.00 183.60,70.00 184.17,70.00 184.74,70.00 185.32,70.00 185.89,70.00 186.46,70.00 187.04,70.00 187.61,70.00 188.19,70.00 188.76,70.00 189.33,70.00 189.91,70.00 190.48,70.00 191.05,70.00 191.63,70.00 192.20,70.00 192.78,70.00 193.35,70.00 193.92,70.00 194.50,70.00 195.07,70.00 195.64,70.00 196.22,70.00 196.79,70.00 197.36,70.00 197.94,70.00 198.51,70.00 199.09,70.00 199.66,70.00 200.23,70.00 200.81,70.00 201.38,70.00 201.95,70.00 202.53,70.00 203.10,70.00 203.68,70.00 204.25,70.00 204.82,70.00 205.40,70.00 205.97,70.00 206.54,70.00 207.12,70.00 207.69,70.00 208.27,70.00 208.84,70.00 209.41,70.00 209.99,70.00 210.56,70.00 211.13,70.00 211.71,70.00 212.28,70.00 212.86,70.00 213.43,70.00 214.00,70.00 214.58,70.00 215.15,70.00 215.72,70.00 216.30,70.00 216.87,70.00 217.44,70.00 218.02,70.00 218.59,70.00 219.17,70.00 219.74,70.00 220.31,70.00 220.89,70.00 221.46,70.00 222.03,70.00 222.61,70.00 223.18,70.00 223.76,70.00 224.33,70.00 224.90,70.00 225.48,70.00 226.05,70.00 226.62,70.00 227.20,70.00 227.77,70.00 228.35,70.00 228.92,70.00 229.49,70.00 230.07,70.00 230.64,70.00 231.21,70.00 231.79,70.00 232.36,70.00 232.94,70.00 233.51,70.00 234.08,70.00 234.66,70.00 235.23,70.00 235.80,70.00 236.38,70.00 236.95,70.00 237.53,70.00 238.10,70.00 238.67,70.00 239.25,70.00 239.82,70.00 240.39,70.00 240.97,70.00 241.54,70.00 242.11,70.00 242.69,70.00 243.26,70.00 243.84,70.00 244.41,70.00 244.98,70.00 245.56,70.00 246.13,70.00 246.70,70.00 247.28,70.00 247.85,70.00 248.43,70.00 249.00,70.00 249.57,70.00 250.15,70.00 250.72,70.00 251.29,70.00 251.87,70.00 252.44,70.00 253.02,70.00 253.59,70.00 254.16,70.00 254.74,70.00 255.31,70.00 255.88,70.00 256.46,70.00 257.03,70.00 257.61,70.00 258.18,70.00 258.75,70.00 259.33,70.00 259.90,70.00 260.47,70.00 261.05,70.00 261.62,70.00 262.19,70.00 262.77,70.00 263.34,70.00 263.92,70.00 264.49,70.00 265.06,70.00 265.64,70.00 266.21,70.00 266.78,70.00 267.36,70.00 267.93,70.00 268.51,70.00 269.08,70.00 269.65,70.00 270.23,70.00 270.80,70.00 271.37,70.00 271.95,70.00 272.52,70.00 273.10,70.00 273.67,70.00 274.24,70.00 274.82,70.00 275.39,70.00 275.96,70.00 276.54,70.00 277.11,70.00 277.69,70.00 278.26,70.00 278.83,70.00 279.41,70.00 279.98,70.00 280.55,70.00 281.13,70.00 281.70,70.00 282.27,70.00 282.85,70.00 283.42,70.00 284.00,70.00 284.57,70.00 285.14,70.00 285.72,70.00 286.29,70.00 286.86,70.00 287.44,70.00 288.01,70.00 288.59,70.00 289.16,70.00 289.73,70.00 290.31,70.00 290.88,70.00 291.45,70.00 292.03,70.00 292.60,70.00 293.18,70.00 293.75,70.00 294.32,70.00 294.90,70.00 295.47,70.00 296.04,70.00 296.62,70.00 297.19,70.00 297.77,70.00 298.34,70.00 298.91,70.00 299.49,70.00 300.06,70.00 300.63,70.00 301.21,70.00 301.78,70.00 302.35,70.00 302.93,70.00 303.50,70.00 304.08,70.00 304.65,70.00 305.22,70.00 305.80,70.00 306.37,70.00 306.94,70.00 307.52,70.00 308.09,70.00 308.67,70.00 309.24,70.00 309.81,70.00 310.39,70.00 310.96,70.00 311.53,70.00 312.11,70.00 312.68,70.00 313.26,70.00 313.83,70.00 314.40,70.00 314.98,70.00 315.55,70.00 316.12,70.00 316.70,70.00 317.27,70.00 317.85,70.00 318.42,70.00 318.99,70.00 319.57,70.00 320.14,70.00 320.71,70.00 321.29,70.00 321.86,70.00 322.43,70.00 323.01,70.00 323.58,70.00 324.16,70.00 324.73,70.00 325.30,70.00 325.88,70.00 326.45,70.00 327.02,70.00 327.60,70.00 328.17,70.00 328.75,70.00 329.32,70.00 329.89,70.00 330.47,70.00 331.04,70.00 331.61,70.00 332.19,70.00 332.76,70.00 333.34,70.00 333.91,70.00 334.48,70.00 335.06,70.00 335.63,70.00 336.20,70.00 336.78,70.00 337.35,70.00 337.93,70.00 338.50,70.00 339.07,70.00 339.65,70.00 340.22,70.00 340.79,70.00 341.37,70.00 341.94,70.00 342.52,70.00 343.09,70.00 343.66,70.00 344.24,70.00 344.81,70.00 345.38,70.00 345.96,70.00 346.53,70.00 347.10,70.00 347.68,70.00 348.25,70.00 348.83,70.00 349.40,70.00 349.97,70.00 350.55,70.00 351.12,70.00 351.69,70.00 352.27,70.00 352.84,70.00 353.42,70.00 353.99,70.00 354.56,70.00 355.14,70.00 355.71,70.00 356.28,70.00 356.86,70.00 357.43,70.00 358.01,70.00 358.58,70.00 359.15,70.00 359.73,70.00 360.30,70.00 360.87,70.00 361.45,70.00 362.02,70.00 362.60,70.00 363.17,70.00 363.74,70.00 364.32,70.00 364.89,70.00 365.46,70.00 366.04,70.00 366.61,70.00 367.18,70.00 367.76,70.00 368.33,70.00 368.91,70.00 369.48,70.00 370.05,70.00 370.63,70.00 371.20,70.00 371.77,70.00 372.35,70.00 372.92,70.00 373.50,70.00 374.07,70.00 374.64,70.00 375.22,70.00 375.79,70.00 376.36,70.00 376.94,70.00 377.51,70.00 378.09,70.00 378.66,70.00 379.23,70.00 379.81,70.00 380.38,70.00 380.95,70.00 381.53,70.00 382.10,70.00 382.68,70.00 383.25,70.00 383.82,70.00 384.40,70.00 384.97,70.00 385.54,70.00 386.12,70.00 386.69,70.00 387.26,70.00 387.84,70.00 388.41,70.00 388.99,70.00 389.56,70.00 390.13,70.00 390.71,70.00 391.28,70.00 391.85,70.00 392.43,70.00 393.00,70.00 393.58,70.00 394.15,70.00 394.72,70.00 395.30,70.00 395.87,70.00 396.44,70.00 397.02,70.00 397.59,70.00 398.17,70.00 398.74,70.00 399.31,70.00 399.89,70.00 400.46,70.00 401.03,70.00 401.61,70.00 402.18,70.00 402.76,70.00 403.33,70.00 403.90,70.00 404.48,70.00 405.05,70.00 405.62,70.00 406.20,70.00 406.77,70.00 407.34,70.00 407.92,70.00 408.49,70.00 409.07,70.00 409.64,70.00 410.21,70.00 410.79,70.00 411.36,70.00 411.93,70.00 412.51,70.00 413.08,70.00 413.66,70.00 414.23,70.00 414.80,70.00 415.38,70.00 415.95,70.00 416.52,70.00 417.10,70.00 417.67,70.00 418.25,70.00 418.82,70.00 419.39,70.00 419.97,70.00 420.54,70.00 421.11,70.00 421.69,70.00 422.26,70.00 422.84,70.00 423.41,70.00 423.98,70.00 424.56,70.00 425.13,70.00 425.70,70.00 426.28,70.00 426.85,70.00 427.42,70.00 428.00,70.00 428.57,70.00 429.15,70.00 429.72,70.00 430.29,70.00 430.87,70.00 431.44,70.00 432.01,70.00 432.59,70.00 433.16,70.00 433.74,70.00 434.31,70.00 434.88,70.00 435.46,70.00 436.03,70.00 436.60,70.00 437.18,70.00 437.75,70.00 438.33,70.00 438.90,70.00 439.47,70.00 440.05,70.00 440.62,70.00 441.19,70.00 441.77,70.00 442.34,70.00 442.92,70.00 443.49,70.00 444.06,70.00 444.64,70.00 445.21,70.00 445.78,70.00 446.36,70.00 446.93,70.00 447.51,70.00 448.08,70.00 448.65,70.00 449.23,70.00 449.80,70.00 450.37,70.00 450.95,70.00 451.52,70.00 452.09,70.00 452.67,70.00 453.24,70.00 453.82,70.00 454.39,70.00 454.96,70.00 455.54,70.00 456.11,70.00 456.68,70.00 457.26,70.00 457.83,70.00 458.41,70.00 458.98,70.00 459.55,70.00 460.13,70.00 460.70,70.00 461.27,70.00 461.85,70.00 462.42,70.00 463.00,70.00 463.57,70.00 464.14,70.00 464.72,70.00 465.29,70.00 465.86,70.00 466.44,70.00 467.01,70.00 467.59,70.00 468.16,70.00 468.73,70.00 469.31,70.00 469.88,70.00 470.45,70.00 471.03,70.00 471.60,70.00 472.17,70.00 472.75,70.00 473.32,70.00 473.90,70.00 474.47,70.00 475.04,70.00 475.62,70.00 476.19,70.00 476.76,70.00 477.34,70.00 477.91,70.00 478.49,70.00 479.06,70.00 479.63,70.00 480.21,70.00 480.78,70.00 481.35,70.00 481.93,70.00 482.50,70.00 483.08,70.00 483.65,70.00 484.22,70.00 484.80,70.00 485.37,70.00 485.94,70.00 486.52,70.00 487.09,70.00 487.67,70.00 488.24,70.00 488.81,70.00 489.39,70.00 489.96,70.00 490.53,70.00 491.11,70.00 491.68,70.00 492.25,70.00 492.83,70.00 493.40,70.00 493.98,70.00 494.55,70.00 495.12,70.00 495.70,70.00 496.27,70.00 496.84,70.00 497.42,70.00 497.99,70.00 498.57,70.00 499.14,70.00 499.71,70.00 500.29,70.00 500.86,70.00 501.43,70.00 502.01,70.00 502.58,70.00 503.16,70.00 503.73,70.00 504.30,70.00 504.88,70.00 505.45,70.00 506.02,70.00 506.60,70.00 507.17,70.00 507.75,70.00 508.32,70.00 508.89,70.00 509.47,70.00 510.04,70.00 510.61,70.00 511.19,70.00 511.76,70.00 512.33,70.00 512.91,70.00 513.48,70.00 514.06,70.00 514.63,70.00 515.20,70.00 515.78,70.00 516.35,70.00 516.92,70.00 517.50,70.00 518.07,70.00 518.65,70.00 519.22,70.00 519.79,70.00 520.37,70.00 520.94,70.00 521.51,70.00 522.09,70.00 522.66,70.00 523.24,70.00 523.81,70.00 524.38,70.00 524.96,70.00 525.53,70.00 526.10,70.00 526.68,70.00 527.25,70.00 527.83,70.00 528.40,70.00 528.97,70.00 529.55,70.00 530.12,70.00 530.69,70.00 531.27,70.00 531.84,70.00 532.41,70.00 532.99,70.00 533.56,70.00 534.14,70.00 534.71,70.00 535.28,70.00 535.86,70.00 536.43,70.00 537.00,70.00 537.58,70.00 538.15,70.00 538.73,70.00 539.30,70.00 539.87,70.00 540.45,70.00 541.02,70.00 541.59,70.00 542.17,70.00 542.74,70.00 543.32,70.00 543.89,70.00 544.46,70.00 545.04,70.00 545.61,70.00 546.18,70.00 546.76,70.00 547.33,70.00 547.91,70.00 548.48,70.00 549.05,70.00 549.63,70.00 550.20,70.00 550.77,70.00 551.35,70.00 551.92,70.00 552.49,70.00 553.07,70.00 553.64,70.00 554.22,70.00 554.79,70.00 555.36,70.00 555.94,70.00 556.51,70.00 557.08,70.00 557.66,70.00 558.23,70.00 558.81,70.00 559.38,70.00 559.95,70.00 560.53,70.00 561.10,70.00 561.67,70.00 562.25,70.00 562.82,70.00 563.40,70.00 563.97,70.00 564.54,70.00 565.12,70.00 565.69,70.00 566.26,70.00 566.84,70.00 567.41,70.00 567.99,70.00 568.56,70.00 569.13,70.00 569.71,70.00 570.28,70.00 570.85,70.00 571.43,70.00 572.00,70.00 572.58,70.00 573.15,70.00 573.72,70.00 574.30,70.00 574.87,70.00 575.44,70.00 576.02,70.00 576.59,70.00 577.16,70.00 577.74,70.00 578.31,70.00 578.89,70.00 579.46,70.00 580.03,70.00 580.61,70.00 581.18,70.00 581.75,70.00 582.33,70.00 582.90,70.00 583.48,70.00 584.05,70.00 584.62,70.00 585.20,70.00 585.77,70.00 586.34,70.00 586.92,70.00 587.49,70.00 588.07,70.00 588.64,70.00 589.21,70.00 589.79,70.00 590.36,70.00 590.93,70.00 591.51,70.00 592.08,70.00 592.66,70.00 593.23,70.00 593.80,70.00 594.38,70.00 594.95,70.00 595.52,70.00 596.10,70.00 596.67,70.00 597.24,70.00 597.82,70.00 598.39,70.00 598.97,70.00 599.54,70.00 600.11,70.00 600.69,70.00 601.26,70.00 601.83,70.00 602.41,70.00 602.98,70.00 603.56,70.00 604.13,70.00 604.70,70.00 605.28,70.00 605.85,70.00 606.42,70.00 607.00,70.00 607.57,70.00 608.15,70.00 608.72,70.00 609.29,70.00 609.87,70.00 610.44,70.00 611.01,70.00 611.59,70.00 612.16,70.00 612.74,70.00 613.31,70.00 613.88,70.00 614.46,70.00 615.03,70.00 615.60,70.00 616.18,70.00 616.75,70.00 617.32,70.00 617.90,70.00 618.47,70.00 619.05,70.00 619.62,70.00 620.19,70.00 620.77,70.00 621.34,70.00 621.91,70.00 622.49,70.00 623.06,70.00 623.64,70.00 624.21,70.00 624.78,70.00 625.36,70.00 625.93,70.00 626.50,70.00 627.08,70.00 627.65,70.00 628.23,70.00 628.80,70.00 629.37,70.00 629.95,70.00 630.52,70.00 631.09,70.00 631.67,70.00 632.24,70.00 632.82,70.00 633.39,70.00 633.96,70.00 634.54,70.00 635.11,70.00 635.68,70.00 636.26,70.00 636.83,70.00 637.40,70.00 637.98,70.00 638.55,70.00 639.13,70.00 639.70,70.00 640.27,70.00 640.85,70.00 641.42,70.00 641.99,70.00 642.57,70.00 643.14,70.00 643.72,70.00 644.29,70.00 644.86,70.00 645.44,70.00 646.01,70.00 646.58,70.00 647.16,70.00 647.73,70.00 648.31,70.00 648.88,70.00 649.45,70.00 650.03,70.00 650.60,70.00 651.17,70.00 651.75,70.00 652.32,70.00 652.90,70.00 653.47,70.00 654.04,70.00 654.62,70.00 655.19,70.00 655.76,70.00 656.34,70.00 656.91,70.00 657.48,70.00 658.06,70.00 658.63,70.00 659.21,70.00 659.78,70.00 660.35,70.00 660.93,70.00 661.50,70.00 662.07,70.00 662.65,70.00 663.22,70.00 663.80,70.00 664.37,70.00 664.94,70.00 665.52,70.00 666.09,70.00 666.66,70.00 667.24,70.00 667.81,70.00 668.39,70.00 668.96,70.00 669.53,70.00 670.11,70.00 670.68,70.00 671.25,70.00 671.83,70.00 672.40,70.00 672.98,70.00 673.55,70.00 674.12,70.00 674.70,70.00 675.27,70.00 675.84,70.00 676.42,70.00 676.99,70.00 677.57,70.00 678.14,70.00 678.71,70.00 679.29,70.00 679.86,70.00 680.43,70.00 681.01,70.00 681.58,70.00 682.15,70.00 682.73,70.00 683.30,70.00 683.88,70.00 684.45,70.00 685.02,70.00 685.60,70.00 686.17,70.00 686.74,70.00 687.32,70.00 687.89,70.00 688.47,70.00 689.04,70.00 689.61,70.00 690.19,70.00 690.76,70.00 691.33,70.00 691.91,70.00 692.48,70.00 693.06,70.00 693.63,70.00 694.20,70.00 694.78,70.00 695.35,70.00 695.92,70.00 696.50,70.00 697.07,70.00 697.65,70.00 698.22,70.00 698.79,70.00 699.37,70.00 699.94,70.00 700.51,70.00 701.09,70.00 701.66,70.00 702.23,70.00 702.81,70.00 703.38,70.00 703.96,70.00 704.53,70.00 705.10,70.00 705.68,70.00 706.25,70.00 706.82,70.00 707.40,70.00 707.97,70.00 708.55,70.00 709.12,70.00 709.69,70.00 710.27,70.00 710.84,70.00 711.41,70.00 711.99,70.00 712.56,70.00 713.14,70.00 713.71,70.00 714.28,70.00 714.86,70.00 715.43,70.00 716.00,70.00 716.58,70.00 717.15,70.00 717.73,70.00 718.30,70.00 718.87,70.00 719.45,70.00 720.02,70.00 720.59,70.00 721.17,70.00 721.74,70.00 722.31,70.00 722.89,70.00 723.46,70.00 724.04,70.00 724.61,70.00 725.18,70.00 725.76,70.00 726.33,70.00 726.90,70.00 727.48,70.00 728.05,70.00 728.63,70.00 729.20,70.00 729.77,70.00 730.35,70.00 730.92,70.00 731.49,70.00 732.07,70.00 732.64,70.00 733.22,70.00 733.79,70.00 734.36,70.00 734.94,70.00 735.51,70.00 736.08,70.00 736.66,70.00 737.23,70.00 737.81,70.00 738.38,70.00 738.95,70.00 739.53,70.00 740.10,70.00 740.67,70.00 741.25,70.00 741.82,70.00 742.39,70.00 742.97,70.00 743.54,70.00 744.12,70.00 744.69,70.00 745.26,70.00 745.84,70.00 746.41,70.00 746.98,70.00 747.56,70.00 748.13,70.00 748.71,70.00 749.28,70.00 749.85,70.00 750.43,70.00 751.00,70.00 751.57,70.00 752.15,70.00 752.72,70.00 753.30,70.00 753.87,70.00 754.44,70.00 755.02,70.00 755.59,70.00 756.16,70.00 756.74,70.00 757.31,70.00 757.89,70.00 758.46,70.00 759.03,70.00 759.61,70.00 760.18,70.00 760.75,70.00 761.33,70.00 761.90,70.00 762.47,70.00 763.05,70.00 763.62,70.00 764.20,70.00 764.77,70.00 765.34,70.00 765.92,70.00 766.49,70.00 767.06,70.00 767.64,70.00 768.21,70.00 768.79,70.00 769.36,70.00 769.93,70.00 770.51,70.00 771.08,70.00 771.65,70.00 772.23,70.00 772.80,70.00 773.38,70.00 773.95,70.00 774.52,70.00 775.10,70.00 775.67,70.00 776.24,70.00 776.82,70.00 777.39,70.00 777.97,70.00 778.54,70.00 779.11,70.00 779.69,70.00 780.26,70.00 780.83,70.00 781.41,70.00 781.98,70.00 782.56,70.00 783.13,70.00 783.70,70.00 784.28,70.00 784.85,70.00 785.42,70.00 786.00,70.00 786.57,70.00 787.14,70.00 787.72,70.00 788.29,70.00 788.87,70.00 789.44,70.00 790.01,70.00 790.59,70.00 791.16,70.00 791.73,70.00 792.31,70.00 792.88,70.00 793.46,70.00 794.03,70.00 794.60,70.00 795.18,70.00 795.75,70.00 796.32,70.00 796.90,70.00 797.47,70.00 798.05,70.00 798.62,70.00 799.19,70.00 799.77,70.00 800.34,70.00 800.91,70.00 801.49,70.00 802.06,70.00 802.64,70.00 803.21,70.00 803.78,70.00 804.36,70.00 804.93,70.00 805.50,70.00 806.08,70.00 806.65,70.00 807.22,70.00 807.80,70.00 808.37,70.00 808.95,70.00 809.52,70.00 810.09,70.00 810.67,70.00 811.24,70.00 811.81,70.00 812.39,70.00 812.96,70.00 813.54,70.00 814.11,70.00 814.68,70.00 815.26,70.00 815.83,70.00 816.40,70.00 816.98,70.00 817.55,70.00 818.13,70.00 818.70,70.00 819.27,70.00 819.85,70.00 820.42,70.00 820.99,70.00 821.57,70.00 822.14,70.00 822.72,70.00 823.29,70.00 823.86,70.00 824.44,70.00 825.01,70.00 825.58,70.00 826.16,70.00 826.73,70.00 827.30,70.00 827.88,70.00 828.45,70.00 829.03,70.00 829.60,70.00 830.17,70.00 830.75,70.00 831.32,70.00 831.89,70.00 832.47,70.00 833.04,70.00 833.62,70.00 834.19,70.00 834.76,70.00 835.34,70.00 835.91,70.00 836.48,70.00 837.06,70.00 837.63,70.00 838.21,70.00 838.78,70.00 839.35,70.00 839.93,70.00 840.50,70.00 841.07,70.00 841.65,70.00 842.22,70.00 842.80,70.00 843.37,70.00 843.94,70.00 844.52,70.00 845.09,70.00 845.66,70.00 846.24,70.00 846.81,70.00 847.38,70.00 847.96,70.00 848.53,70.00 849.11,70.00 849.68,70.00 850.25,70.00 850.83,70.00 851.40,70.00 851.97,70.00 852.55,70.00 853.12,70.00 853.70,70.00 854.27,70.00 854.84,70.00 855.42,70.00 855.99,70.00 856.56,70.00 857.14,70.00 857.71,70.00 858.29,70.00 858.86,70.00 859.43,70.00 860.01,70.00 860.58,70.00 861.15,70.00 861.73,70.00 862.30,70.00 862.88,70.00 863.45,70.00 864.02,70.00 864.60,70.00 865.17,70.00 865.74,70.00 866.32,70.00 866.89,70.00 867.46,70.00 868.04,70.00 868.61,70.00 869.19,70.00 869.76,70.00 870.33,70.00 870.91,70.00 871.48,70.00 872.05,70.00 872.63,70.00 873.20,70.00 873.78,70.00 874.35,70.00 874.92,70.00 875.50,70.00 876.07,70.00 876.64,70.00 877.22,70.00 877.79,70.00 878.37,70.00 878.94,70.00 879.51,70.00 880.09,70.00 880.66,70.00 881.23,70.00 881.81,70.00 882.38,70.00 882.96,70.00 883.53,70.00 884.10,70.00 884.68,70.00 885.25,70.00 885.82,70.00 886.40,70.00 886.97,70.00 887.55,70.00 888.12,70.00 888.69,70.00 889.27,70.00 889.84,70.00 890.41,70.00 890.99,70.00 891.56,70.00 892.13,70.00 892.71,70.00 893.28,70.00 893.86,70.00 894.43,70.00 895.00,70.00 895.58,70.00 896.15,70.00 896.72,70.00 897.30,70.00 897.87,70.00 898.45,70.00 899.02,70.00 899.59,70.00 900.17,70.00 900.74,70.00 901.31,70.00 901.89,70.00 902.46,70.00 903.04,70.00 903.61,70.00 904.18,70.00 904.76,70.00 905.33,70.00 905.90,70.00 906.48,70.00 907.05,70.00 907.63,70.00 908.20,70.00 908.77,70.00 909.35,70.00 909.92,70.00 910.49,70.00 911.07,70.00 911.64,70.00 912.21,70.00 912.79,70.00 913.36,70.00 913.94,70.00 914.51,70.00 915.08,70.00 915.66,70.00 916.23,70.00 916.80,70.00 917.38,70.00 917.95,70.00 918.53,70.00 919.10,70.00 919.67,70.00 920.25,70.00 920.82,70.00 921.39,70.00 921.97,70.00 922.54,70.00 923.12,70.00 923.69,70.00 924.26,70.00 924.84,70.00 925.41,70.00 925.98,70.00 926.56,70.00 927.13,70.00 927.71,70.00 928.28,70.00 928.85,70.00 929.43,70.00 930.00,70.00" />
  <polyline fill="none" stroke="#16a34a" stroke-width="3" points="70.00,449.08 70.57,437.72 71.15,431.28 71.72,423.91 72.29,416.24 72.87,407.33 73.44,400.89 74.02,392.60 74.59,386.77 75.16,378.79 75.74,374.18 76.31,369.58 76.88,356.07 77.46,348.09 78.03,335.51 78.61,326.30 79.18,319.24 79.75,314.02 80.33,304.20 80.90,296.53 81.47,287.63 82.05,277.50 82.62,265.53 83.20,260.31 83.77,253.25 84.34,248.34 84.92,235.75 85.49,230.53 86.06,220.71 86.64,213.65 87.21,205.67 87.79,195.54 88.36,179.89 88.93,170.99 89.51,162.70 90.08,155.02 90.65,151.03 91.23,143.36 91.80,138.76 92.37,132.62 92.95,121.26 93.52,109.60 94.10,105.91 94.67,100.08 95.24,85.96 95.82,81.66 96.39,72.46 96.96,70.00 97.54,70.00 98.11,70.00 98.69,70.00 99.26,70.00 99.83,70.00 100.41,70.00 100.98,70.00 101.55,70.00 102.13,70.00 102.70,70.00 103.28,70.00 103.85,70.00 104.42,70.00 105.00,70.00 105.57,70.00 106.14,70.00 106.72,70.00 107.29,70.00 107.87,70.00 108.44,70.00 109.01,70.00 109.59,70.00 110.16,70.00 110.73,70.00 111.31,70.00 111.88,70.00 112.45,70.00 113.03,70.00 113.60,70.00 114.18,70.00 114.75,70.00 115.32,70.00 115.90,70.00 116.47,70.00 117.04,70.00 117.62,70.00 118.19,70.00 118.77,70.00 119.34,70.00 119.91,70.00 120.49,70.00 121.06,70.00 121.63,70.00 122.21,70.00 122.78,70.00 123.36,70.00 123.93,70.00 124.50,70.00 125.08,70.00 125.65,70.00 126.22,70.00 126.80,70.00 127.37,70.00 127.95,70.00 128.52,70.00 129.09,70.00 129.67,70.00 130.24,70.00 130.81,70.00 131.39,70.00 131.96,70.00 132.54,70.00 133.11,70.00 133.68,70.00 134.26,70.00 134.83,70.00 135.40,70.00 135.98,70.00 136.55,70.00 137.12,70.00 137.70,70.00 138.27,70.00 138.85,70.00 139.42,70.00 139.99,70.00 140.57,70.00 141.14,70.00 141.71,70.00 142.29,70.00 142.86,70.00 143.44,70.00 144.01,70.00 144.58,70.00 145.16,70.00 145.73,70.00 146.30,70.00 146.88,70.00 147.45,70.00 148.03,70.00 148.60,70.00 149.17,70.00 149.75,70.00 150.32,70.00 150.89,70.00 151.47,70.00 152.04,70.00 152.62,70.00 153.19,70.00 153.76,70.00 154.34,70.00 154.91,70.00 155.48,70.00 156.06,70.00 156.63,70.00 157.20,70.00 157.78,70.00 158.35,70.00 158.93,70.00 159.50,70.00 160.07,70.00 160.65,70.00 161.22,70.00 161.79,70.00 162.37,70.00 162.94,70.00 163.52,70.00 164.09,70.00 164.66,70.00 165.24,70.00 165.81,70.00 166.38,70.00 166.96,70.00 167.53,70.00 168.11,70.00 168.68,70.00 169.25,70.00 169.83,70.00 170.40,70.00 170.97,70.00 171.55,70.00 172.12,70.00 172.70,70.00 173.27,70.00 173.84,70.00 174.42,70.00 174.99,70.00 175.56,70.00 176.14,70.00 176.71,70.00 177.28,70.00 177.86,70.00 178.43,70.00 179.01,70.00 179.58,70.00 180.15,70.00 180.73,70.00 181.30,70.00 181.87,70.00 182.45,70.00 183.02,70.00 183.60,70.00 184.17,70.00 184.74,70.00 185.32,70.00 185.89,70.00 186.46,70.00 187.04,70.00 187.61,70.00 188.19,70.00 188.76,70.00 189.33,70.00 189.91,70.00 190.48,70.00 191.05,70.00 191.63,70.00 192.20,70.00 192.78,70.00 193.35,70.00 193.92,70.00 194.50,70.00 195.07,70.00 195.64,70.00 196.22,70.00 196.79,70.00 197.36,70.00 197.94,70.00 198.51,70.00 199.09,70.00 199.66,70.00 200.23,70.00 200.81,70.00 201.38,70.00 201.95,70.00 202.53,70.00 203.10,70.00 203.68,70.00 204.25,70.00 204.82,70.00 205.40,70.00 205.97,70.00 206.54,70.00 207.12,70.00 207.69,70.00 208.27,70.00 208.84,70.00 209.41,70.00 209.99,70.00 210.56,70.00 211.13,70.00 211.71,70.00 212.28,70.00 212.86,70.00 213.43,70.00 214.00,70.00 214.58,70.00 215.15,70.00 215.72,70.00 216.30,70.00 216.87,70.00 217.44,70.00 218.02,70.00 218.59,70.00 219.17,70.00 219.74,70.00 220.31,70.00 220.89,70.00 221.46,70.00 222.03,70.00 222.61,70.00 223.18,70.00 223.76,70.00 224.33,70.00 224.90,70.00 225.48,70.00 226.05,70.00 226.62,70.00 227.20,70.00 227.77,70.00 228.35,70.00 228.92,70.00 229.49,70.00 230.07,70.00 230.64,70.00 231.21,70.00 231.79,70.00 232.36,70.00 232.94,70.00 233.51,70.00 234.08,70.00 234.66,70.00 235.23,70.00 235.80,70.00 236.38,70.00 236.95,70.00 237.53,70.00 238.10,70.00 238.67,70.00 239.25,70.00 239.82,70.00 240.39,70.00 240.97,70.00 241.54,70.00 242.11,70.00 242.69,70.00 243.26,70.00 243.84,70.00 244.41,70.00 244.98,70.00 245.56,70.00 246.13,70.00 246.70,70.00 247.28,70.00 247.85,70.00 248.43,70.00 249.00,70.00 249.57,70.00 250.15,70.00 250.72,70.00 251.29,70.00 251.87,70.00 252.44,70.00 253.02,70.00 253.59,70.00 254.16,70.00 254.74,70.00 255.31,70.00 255.88,70.00 256.46,70.00 257.03,70.00 257.61,70.00 258.18,70.00 258.75,70.00 259.33,70.00 259.90,70.00 260.47,70.00 261.05,70.00 261.62,70.00 262.19,70.00 262.77,70.00 263.34,70.00 263.92,70.00 264.49,70.00 265.06,70.00 265.64,70.00 266.21,70.00 266.78,70.00 267.36,70.00 267.93,70.00 268.51,70.00 269.08,70.00 269.65,70.00 270.23,70.00 270.80,70.00 271.37,70.00 271.95,70.00 272.52,70.00 273.10,70.00 273.67,70.00 274.24,70.00 274.82,70.00 275.39,70.00 275.96,70.00 276.54,70.00 277.11,70.00 277.69,70.00 278.26,70.00 278.83,70.00 279.41,70.00 279.98,70.00 280.55,70.00 281.13,70.00 281.70,70.00 282.27,70.00 282.85,70.00 283.42,70.00 284.00,70.00 284.57,70.00 285.14,70.00 285.72,70.00 286.29,70.00 286.86,70.00 287.44,70.00 288.01,70.00 288.59,70.00 289.16,70.00 289.73,70.00 290.31,70.00 290.88,70.00 291.45,70.00 292.03,70.00 292.60,70.00 293.18,70.00 293.75,70.00 294.32,70.00 294.90,70.00 295.47,70.00 296.04,70.00 296.62,70.00 297.19,70.00 297.77,70.00 298.34,70.00 298.91,70.00 299.49,70.00 300.06,70.00 300.63,70.00 301.21,70.00 301.78,70.00 302.35,70.00 302.93,70.00 303.50,70.00 304.08,70.00 304.65,70.00 305.22,70.00 305.80,70.00 306.37,70.00 306.94,70.00 307.52,70.00 308.09,70.00 308.67,70.00 309.24,70.00 309.81,70.00 310.39,70.00 310.96,70.00 311.53,70.00 312.11,70.00 312.68,70.00 313.26,70.00 313.83,70.00 314.40,70.00 314.98,70.00 315.55,70.00 316.12,70.00 316.70,70.00 317.27,70.00 317.85,70.00 318.42,70.00 318.99,70.00 319.57,70.00 320.14,70.00 320.71,70.00 321.29,70.00 321.86,70.00 322.43,70.00 323.01,70.00 323.58,70.00 324.16,70.00 324.73,70.00 325.30,70.00 325.88,70.00 326.45,70.00 327.02,70.00 327.60,70.00 328.17,70.00 328.75,70.00 329.32,70.00 329.89,70.00 330.47,70.00 331.04,70.00 331.61,70.00 332.19,70.00 332.76,70.00 333.34,70.00 333.91,70.00 334.48,70.00 335.06,70.00 335.63,70.00 336.20,70.00 336.78,70.00 337.35,70.00 337.93,70.00 338.50,70.00 339.07,70.00 339.65,70.00 340.22,70.00 340.79,70.00 341.37,70.00 341.94,70.00 342.52,70.00 343.09,70.00 343.66,70.00 344.24,70.00 344.81,70.00 345.38,70.00 345.96,70.00 346.53,70.00 347.10,70.00 347.68,70.00 348.25,70.00 348.83,70.00 349.40,70.00 349.97,70.00 350.55,70.00 351.12,70.00 351.69,70.00 352.27,70.00 352.84,70.00 353.42,70.00 353.99,70.00 354.56,70.00 355.14,70.00 355.71,70.00 356.28,70.00 356.86,70.00 357.43,70.00 358.01,70.00 358.58,70.00 359.15,70.00 359.73,70.00 360.30,70.00 360.87,70.00 361.45,70.00 362.02,70.00 362.60,70.00 363.17,70.00 363.74,70.00 364.32,70.00 364.89,70.00 365.46,70.00 366.04,70.00 366.61,70.00 367.18,70.00 367.76,70.00 368.33,70.00 368.91,70.00 369.48,70.00 370.05,70.00 370.63,70.00 371.20,70.00 371.77,70.00 372.35,70.00 372.92,70.00 373.50,70.00 374.07,70.00 374.64,70.00 375.22,70.00 375.79,70.00 376.36,70.00 376.94,70.00 377.51,70.00 378.09,70.00 378.66,70.00 379.23,70.00 379.81,70.00 380.38,70.00 380.95,70.00 381.53,70.00 382.10,70.00 382.68,70.00 383.25,70.00 383.82,70.00 384.40,70.00 384.97,70.00 385.54,70.00 386.12,70.00 386.69,70.00 387.26,70.00 387.84,70.00 388.41,70.00 388.99,70.00 389.56,70.00 390.13,70.00 390.71,70.00 391.28,70.00 391.85,70.00 392.43,70.00 393.00,70.00 393.58,70.00 394.15,70.00 394.72,70.00 395.30,70.00 395.87,70.00 396.44,70.00 397.02,70.00 397.59,70.00 398.17,70.00 398.74,70.00 399.31,70.00 399.89,70.00 400.46,70.00 401.03,70.00 401.61,70.00 402.18,70.00 402.76,70.00 403.33,70.00 403.90,70.00 404.48,70.00 405.05,70.00 405.62,70.00 406.20,70.00 406.77,70.00 407.34,70.00 407.92,70.00 408.49,70.00 409.07,70.00 409.64,70.00 410.21,70.00 410.79,70.00 411.36,70.00 411.93,70.00 412.51,70.00 413.08,70.00 413.66,70.00 414.23,70.00 414.80,70.00 415.38,70.00 415.95,70.00 416.52,70.00 417.10,70.00 417.67,70.00 418.25,70.00 418.82,70.00 419.39,70.00 419.97,70.00 420.54,70.00 421.11,70.00 421.69,70.00 422.26,70.00 422.84,70.00 423.41,70.00 423.98,70.00 424.56,70.00 425.13,70.00 425.70,70.00 426.28,70.00 426.85,70.00 427.42,70.00 428.00,70.00 428.57,70.00 429.15,70.00 429.72,70.00 430.29,70.00 430.87,70.00 431.44,70.00 432.01,70.00 432.59,70.00 433.16,70.00 433.74,70.00 434.31,70.00 434.88,70.00 435.46,70.00 436.03,70.00 436.60,70.00 437.18,70.00 437.75,70.00 438.33,70.00 438.90,70.00 439.47,70.00 440.05,70.00 440.62,70.00 441.19,70.00 441.77,70.00 442.34,70.00 442.92,70.00 443.49,70.00 444.06,70.00 444.64,70.00 445.21,70.00 445.78,70.00 446.36,70.00 446.93,70.00 447.51,70.00 448.08,70.00 448.65,70.00 449.23,70.00 449.80,70.00 450.37,70.00 450.95,70.00 451.52,70.00 452.09,70.00 452.67,70.00 453.24,70.00 453.82,70.00 454.39,70.00 454.96,70.00 455.54,70.00 456.11,70.00 456.68,70.00 457.26,70.00 457.83,70.00 458.41,70.00 458.98,70.00 459.55,70.00 460.13,70.00 460.70,70.00 461.27,70.00 461.85,70.00 462.42,70.00 463.00,70.00 463.57,70.00 464.14,70.00 464.72,70.00 465.29,70.00 465.86,70.00 466.44,70.00 467.01,70.00 467.59,70.00 468.16,70.00 468.73,70.00 469.31,70.00 469.88,70.00 470.45,70.00 471.03,70.00 471.60,70.00 472.17,70.00 472.75,70.00 473.32,70.00 473.90,70.00 474.47,70.00 475.04,70.00 475.62,70.00 476.19,70.00 476.76,70.00 477.34,70.00 477.91,70.00 478.49,70.00 479.06,70.00 479.63,70.00 480.21,70.00 480.78,70.00 481.35,70.00 481.93,70.00 482.50,70.00 483.08,70.00 483.65,70.00 484.22,70.00 484.80,70.00 485.37,70.00 485.94,70.00 486.52,70.00 487.09,70.00 487.67,70.00 488.24,70.00 488.81,70.00 489.39,70.00 489.96,70.00 490.53,70.00 491.11,70.00 491.68,70.00 492.25,70.00 492.83,70.00 493.40,70.00 493.98,70.00 494.55,70.00 495.12,70.00 495.70,70.00 496.27,70.00 496.84,70.00 497.42,70.00 497.99,70.00 498.57,70.00 499.14,70.00 499.71,70.00 500.29,70.00 500.86,70.00 501.43,70.00 502.01,70.00 502.58,70.00 503.16,70.00 503.73,70.00 504.30,70.00 504.88,70.00 505.45,70.00 506.02,70.00 506.60,70.00 507.17,70.00 507.75,70.00 508.32,70.00 508.89,70.00 509.47,70.00 510.04,70.00 510.61,70.00 511.19,70.00 511.76,70.00 512.33,70.00 512.91,70.00 513.48,70.00 514.06,70.00 514.63,70.00 515.20,70.00 515.78,70.00 516.35,70.00 516.92,70.00 517.50,70.00 518.07,70.00 518.65,70.00 519.22,70.00 519.79,70.00 520.37,70.00 520.94,70.00 521.51,70.00 522.09,70.00 522.66,70.00 523.24,70.00 523.81,70.00 524.38,70.00 524.96,70.00 525.53,70.00 526.10,70.00 526.68,70.00 527.25,70.00 527.83,70.00 528.40,70.00 528.97,70.00 529.55,70.00 530.12,70.00 530.69,70.00 531.27,70.00 531.84,70.00 532.41,70.00 532.99,70.00 533.56,70.00 534.14,70.00 534.71,70.00 535.28,70.00 535.86,70.00 536.43,70.00 537.00,70.00 537.58,70.00 538.15,70.00 538.73,70.00 539.30,70.00 539.87,70.00 540.45,70.00 541.02,70.00 541.59,70.00 542.17,70.00 542.74,70.00 543.32,70.00 543.89,70.00 544.46,70.00 545.04,70.00 545.61,70.00 546.18,70.00 546.76,70.00 547.33,70.00 547.91,70.00 548.48,70.00 549.05,70.00 549.63,70.00 550.20,70.00 550.77,70.00 551.35,70.00 551.92,70.00 552.49,70.00 553.07,70.00 553.64,70.00 554.22,70.00 554.79,70.00 555.36,70.00 555.94,70.00 556.51,70.00 557.08,70.00 557.66,70.00 558.23,70.00 558.81,70.00 559.38,70.00 559.95,70.00 560.53,70.00 561.10,70.00 561.67,70.00 562.25,70.00 562.82,70.00 563.40,70.00 563.97,70.00 564.54,70.00 565.12,70.00 565.69,70.00 566.26,70.00 566.84,70.00 567.41,70.00 567.99,70.00 568.56,70.00 569.13,70.00 569.71,70.00 570.28,70.00 570.85,70.00 571.43,70.00 572.00,70.00 572.58,70.00 573.15,70.00 573.72,70.00 574.30,70.00 574.87,70.00 575.44,70.00 576.02,70.00 576.59,70.00 577.16,70.00 577.74,70.00 578.31,70.00 578.89,70.00 579.46,70.00 580.03,70.00 580.61,70.00 581.18,70.00 581.75,70.00 582.33,70.00 582.90,70.00 583.48,70.00 584.05,70.00 584.62,70.00 585.20,70.00 585.77,70.00 586.34,70.00 586.92,70.00 587.49,70.00 588.07,70.00 588.64,70.00 589.21,70.00 589.79,70.00 590.36,70.00 590.93,70.00 591.51,70.00 592.08,70.00 592.66,70.00 593.23,70.00 593.80,70.00 594.38,70.00 594.95,70.00 595.52,70.00 596.10,70.00 596.67,70.00 597.24,70.00 597.82,70.00 598.39,70.00 598.97,70.00 599.54,70.00 600.11,70.00 600.69,70.00 601.26,70.00 601.83,70.00 602.41,70.00 602.98,70.00 603.56,70.00 604.13,70.00 604.70,70.00 605.28,70.00 605.85,70.00 606.42,70.00 607.00,70.00 607.57,70.00 608.15,70.00 608.72,70.00 609.29,70.00 609.87,70.00 610.44,70.00 611.01,70.00 611.59,70.00 612.16,70.00 612.74,70.00 613.31,70.00 613.88,70.00 614.46,70.00 615.03,70.00 615.60,70.00 616.18,70.00 616.75,70.00 617.32,70.00 617.90,70.00 618.47,70.00 619.05,70.00 619.62,70.00 620.19,70.00 620.77,70.00 621.34,70.00 621.91,70.00 622.49,70.00 623.06,70.00 623.64,70.00 624.21,70.00 624.78,70.00 625.36,70.00 625.93,70.00 626.50,70.00 627.08,70.00 627.65,70.00 628.23,70.00 628.80,70.00 629.37,70.00 629.95,70.00 630.52,70.00 631.09,70.00 631.67,70.00 632.24,70.00 632.82,70.00 633.39,70.00 633.96,70.00 634.54,70.00 635.11,70.00 635.68,70.00 636.26,70.00 636.83,70.00 637.40,70.00 637.98,70.00 638.55,70.00 639.13,70.00 639.70,70.00 640.27,70.00 640.85,70.00 641.42,70.00 641.99,70.00 642.57,70.00 643.14,70.00 643.72,70.00 644.29,70.00 644.86,70.00 645.44,70.00 646.01,70.00 646.58,70.00 647.16,70.00 647.73,70.00 648.31,70.00 648.88,70.00 649.45,70.00 650.03,70.00 650.60,70.00 651.17,70.00 651.75,70.00 652.32,70.00 652.90,70.00 653.47,70.00 654.04,70.00 654.62,70.00 655.19,70.00 655.76,70.00 656.34,70.00 656.91,70.00 657.48,70.00 658.06,70.00 658.63,70.00 659.21,70.00 659.78,70.00 660.35,70.00 660.93,70.00 661.50,70.00 662.07,70.00 662.65,70.00 663.22,70.00 663.80,70.00 664.37,70.00 664.94,70.00 665.52,70.00 666.09,70.00 666.66,70.00 667.24,70.00 667.81,70.00 668.39,70.00 668.96,70.00 669.53,70.00 670.11,70.00 670.68,70.00 671.25,70.00 671.83,70.00 672.40,70.00 672.98,70.00 673.55,70.00 674.12,70.00 674.70,70.00 675.27,70.00 675.84,70.00 676.42,70.00 676.99,70.00 677.57,70.00 678.14,70.00 678.71,70.00 679.29,70.00 679.86,70.00 680.43,70.00 681.01,70.00 681.58,70.00 682.15,70.00 682.73,70.00 683.30,70.00 683.88,70.00 684.45,70.00 685.02,70.00 685.60,70.00 686.17,70.00 686.74,70.00 687.32,70.00 687.89,70.00 688.47,70.00 689.04,70.00 689.61,70.00 690.19,70.00 690.76,70.00 691.33,70.00 691.91,70.00 692.48,70.00 693.06,70.00 693.63,70.00 694.20,70.00 694.78,70.00 695.35,70.00 695.92,70.00 696.50,70.00 697.07,70.00 697.65,70.00 698.22,70.00 698.79,70.00 699.37,70.00 699.94,70.00 700.51,70.00 701.09,70.00 701.66,70.00 702.23,70.00 702.81,70.00 703.38,70.00 703.96,70.00 704.53,70.00 705.10,70.00 705.68,70.00 706.25,70.00 706.82,70.00 707.40,70.00 707.97,70.00 708.55,70.00 709.12,70.00 709.69,70.00 710.27,70.00 710.84,70.00 711.41,70.00 711.99,70.00 712.56,70.00 713.14,70.00 713.71,70.00 714.28,70.00 714.86,70.00 715.43,70.00 716.00,70.00 716.58,70.00 717.15,70.00 717.73,70.00 718.30,70.00 718.87,70.00 719.45,70.00 720.02,70.00 720.59,70.00 721.17,70.00 721.74,70.00 722.31,70.00 722.89,70.00 723.46,70.00 724.04,70.00 724.61,70.00 725.18,70.00 725.76,70.00 726.33,70.00 726.90,70.00 727.48,70.00 728.05,70.00 728.63,70.00 729.20,70.00 729.77,70.00 730.35,70.00 730.92,70.00 731.49,70.00 732.07,70.00 732.64,70.00 733.22,70.00 733.79,70.00 734.36,70.00 734.94,70.00 735.51,70.00 736.08,70.00 736.66,70.00 737.23,70.00 737.81,70.00 738.38,70.00 738.95,70.00 739.53,70.00 740.10,70.00 740.67,70.00 741.25,70.00 741.82,70.00 742.39,70.00 742.97,70.00 743.54,70.00 744.12,70.00 744.69,70.00 745.26,70.00 745.84,70.00 746.41,70.00 746.98,70.00 747.56,70.00 748.13,70.00 748.71,70.00 749.28,70.00 749.85,70.00 750.43,70.00 751.00,70.00 751.57,70.00 752.15,70.00 752.72,70.00 753.30,70.00 753.87,70.00 754.44,70.00 755.02,70.00 755.59,70.00 756.16,70.00 756.74,70.00 757.31,70.00 757.89,70.00 758.46,70.00 759.03,70.00 759.61,70.00 760.18,70.00 760.75,70.00 761.33,70.00 761.90,70.00 762.47,70.00 763.05,70.00 763.62,70.00 764.20,70.00 764.77,70.00 765.34,70.00 765.92,70.00 766.49,70.00 767.06,70.00 767.64,70.00 768.21,70.00 768.79,70.00 769.36,70.00 769.93,70.00 770.51,70.00 771.08,70.00 771.65,70.00 772.23,70.00 772.80,70.00 773.38,70.00 773.95,70.00 774.52,70.00 775.10,70.00 775.67,70.00 776.24,70.00 776.82,70.00 777.39,70.00 777.97,70.00 778.54,70.00 779.11,70.00 779.69,70.00 780.26,70.00 780.83,70.00 781.41,70.00 781.98,70.00 782.56,70.00 783.13,70.00 783.70,70.00 784.28,70.00 784.85,70.00 785.42,70.00 786.00,70.00 786.57,70.00 787.14,70.00 787.72,70.00 788.29,70.00 788.87,70.00 789.44,70.00 790.01,70.00 790.59,70.00 791.16,70.00 791.73,70.00 792.31,70.00 792.88,70.00 793.46,70.00 794.03,70.00 794.60,70.00 795.18,70.00 795.75,70.00 796.32,70.00 796.90,70.00 797.47,70.00 798.05,70.00 798.62,70.00 799.19,70.00 799.77,70.00 800.34,70.00 800.91,70.00 801.49,70.00 802.06,70.00 802.64,70.00 803.21,70.00 803.78,70.00 804.36,70.00 804.93,70.00 805.50,70.00 806.08,70.00 806.65,70.00 807.22,70.00 807.80,70.00 808.37,70.00 808.95,70.00 809.52,70.00 810.09,70.00 810.67,70.00 811.24,70.00 811.81,70.00 812.39,70.00 812.96,70.00 813.54,70.00 814.11,70.00 814.68,70.00 815.26,70.00 815.83,70.00 816.40,70.00 816.98,70.00 817.55,70.00 818.13,70.00 818.70,70.00 819.27,70.00 819.85,70.00 820.42,70.00 820.99,70.00 821.57,70.00 822.14,70.00 822.72,70.00 823.29,70.00 823.86,70.00 824.44,70.00 825.01,70.00 825.58,70.00 826.16,70.00 826.73,70.00 827.30,70.00 827.88,70.00 828.45,70.00 829.03,70.00 829.60,70.00 830.17,70.00 830.75,70.00 831.32,70.00 831.89,70.00 832.47,70.00 833.04,70.00 833.62,70.00 834.19,70.00 834.76,70.00 835.34,70.00 835.91,70.00 836.48,70.00 837.06,70.00 837.63,70.00 838.21,70.00 838.78,70.00 839.35,70.00 839.93,70.00 840.50,70.00 841.07,70.00 841.65,70.00 842.22,70.00 842.80,70.00 843.37,70.00 843.94,70.00 844.52,70.00 845.09,70.00 845.66,70.00 846.24,70.00 846.81,70.00 847.38,70.00 847.96,70.00 848.53,70.00 849.11,70.00 849.68,70.00 850.25,70.00 850.83,70.00 851.40,70.00 851.97,70.00 852.55,70.00 853.12,70.00 853.70,70.00 854.27,70.00 854.84,70.00 855.42,70.00 855.99,70.00 856.56,70.00 857.14,70.00 857.71,70.00 858.29,70.00 858.86,70.00 859.43,70.00 860.01,70.00 860.58,70.00 861.15,70.00 861.73,70.00 862.30,70.00 862.88,70.00 863.45,70.00 864.02,70.00 864.60,70.00 865.17,70.00 865.74,70.00 866.32,70.00 866.89,70.00 867.46,70.00 868.04,70.00 868.61,70.00 869.19,70.00 869.76,70.00 870.33,70.00 870.91,70.00 871.48,70.00 872.05,70.00 872.63,70.00 873.20,70.00 873.78,70.00 874.35,70.00 874.92,70.00 875.50,70.00 876.07,70.00 876.64,70.00 877.22,70.00 877.79,70.00 878.37,70.00 878.94,70.00 879.51,70.00 880.09,70.00 880.66,70.00 881.23,70.00 881.81,70.00 882.38,70.00 882.96,70.00 883.53,70.00 884.10,70.00 884.68,70.00 885.25,70.00 885.82,70.00 886.40,70.00 886.97,70.00 887.55,70.00 888.12,70.00 888.69,70.00 889.27,70.00 889.84,70.00 890.41,70.00 890.99,70.00 891.56,70.00 892.13,70.00 892.71,70.00 893.28,70.00 893.86,70.00 894.43,70.00 895.00,70.00 895.58,70.00 896.15,70.00 896.72,70.00 897.30,70.00 897.87,70.00 898.45,70.00 899.02,70.00 899.59,70.00 900.17,70.00 900.74,70.00 901.31,70.00 901.89,70.00 902.46,70.00 903.04,70.00 903.61,70.00 904.18,70.00 904.76,70.00 905.33,70.00 905.90,70.00 906.48,70.00 907.05,70.00 907.63,70.00 908.20,70.00 908.77,70.00 909.35,70.00 909.92,70.00 910.49,70.00 911.07,70.00 911.64,70.00 912.21,70.00 912.79,70.00 913.36,70.00 913.94,70.00 914.51,70.00 915.08,70.00 915.66,70.00 916.23,70.00 916.80,70.00 917.38,70.00 917.95,70.00 918.53,70.00 919.10,70.00 919.67,70.00 920.25,70.00 920.82,70.00 921.39,70.00 921.97,70.00 922.54,70.00 923.12,70.00 923.69,70.00 924.26,70.00 924.84,70.00 925.41,70.00 925.98,70.00 926.56,70.00 927.13,70.00 927.71,70.00 928.28,70.00 928.85,70.00 929.43,70.00 930.00,70.00" />
  <polyline fill="none" stroke="#ea580c" stroke-width="3" points="70.00,444.47 70.57,437.72 71.15,430.97 71.72,423.60 72.29,416.24 72.87,408.26 73.44,401.20 74.02,392.91 74.59,383.39 75.16,376.03 75.74,371.11 76.31,364.05 76.88,352.39 77.46,344.72 78.03,338.27 78.61,327.84 79.18,316.48 79.75,308.19 80.33,298.98 80.90,293.76 81.47,282.41 82.05,274.12 82.62,269.52 83.20,263.68 83.77,257.85 84.34,254.78 84.92,246.19 85.49,233.60 86.06,222.25 86.64,214.88 87.21,207.51 87.79,204.44 88.36,197.08 88.93,190.63 89.51,183.88 90.08,175.28 90.65,167.92 91.23,163.62 91.80,154.72 92.37,142.75 92.95,134.15 93.52,125.25 94.10,120.34 94.67,112.36 95.24,99.16 95.82,90.87 96.39,82.58 96.96,70.00 97.54,70.00 98.11,70.00 98.69,70.00 99.26,70.00 99.83,70.00 100.41,70.00 100.98,70.00 101.55,70.00 102.13,70.00 102.70,70.00 103.28,70.00 103.85,70.00 104.42,70.00 105.00,70.00 105.57,70.00 106.14,70.00 106.72,70.00 107.29,70.00 107.87,70.00 108.44,70.00 109.01,70.00 109.59,70.00 110.16,70.00 110.73,70.00 111.31,70.00 111.88,70.00 112.45,70.00 113.03,70.00 113.60,70.00 114.18,70.00 114.75,70.00 115.32,70.00 115.90,70.00 116.47,70.00 117.04,70.00 117.62,70.00 118.19,70.00 118.77,70.00 119.34,70.00 119.91,70.00 120.49,70.00 121.06,70.00 121.63,70.00 122.21,70.00 122.78,70.00 123.36,70.00 123.93,70.00 124.50,70.00 125.08,70.00 125.65,70.00 126.22,70.00 126.80,70.00 127.37,70.00 127.95,70.00 128.52,70.00 129.09,70.00 129.67,70.00 130.24,70.00 130.81,70.00 131.39,70.00 131.96,70.00 132.54,70.00 133.11,70.00 133.68,70.00 134.26,70.00 134.83,70.00 135.40,70.00 135.98,70.00 136.55,70.00 137.12,70.00 137.70,70.00 138.27,70.00 138.85,70.00 139.42,70.00 139.99,70.00 140.57,70.00 141.14,70.00 141.71,70.00 142.29,70.00 142.86,70.00 143.44,70.00 144.01,70.00 144.58,70.00 145.16,70.00 145.73,70.00 146.30,70.00 146.88,70.00 147.45,70.00 148.03,70.00 148.60,70.00 149.17,70.00 149.75,70.00 150.32,70.00 150.89,70.00 151.47,70.00 152.04,70.00 152.62,70.00 153.19,70.00 153.76,70.00 154.34,70.00 154.91,70.00 155.48,70.00 156.06,70.00 156.63,70.00 157.20,70.00 157.78,70.00 158.35,70.00 158.93,70.00 159.50,70.00 160.07,70.00 160.65,70.00 161.22,70.00 161.79,70.00 162.37,70.00 162.94,70.00 163.52,70.00 164.09,70.00 164.66,70.00 165.24,70.00 165.81,70.00 166.38,70.00 166.96,70.00 167.53,70.00 168.11,70.00 168.68,70.00 169.25,70.00 169.83,70.00 170.40,70.00 170.97,70.00 171.55,70.00 172.12,70.00 172.70,70.00 173.27,70.00 173.84,70.00 174.42,70.00 174.99,70.00 175.56,70.00 176.14,70.00 176.71,70.00 177.28,70.00 177.86,70.00 178.43,70.00 179.01,70.00 179.58,70.00 180.15,70.00 180.73,70.00 181.30,70.00 181.87,70.00 182.45,70.00 183.02,70.00 183.60,70.00 184.17,70.00 184.74,70.00 185.32,70.00 185.89,70.00 186.46,70.00 187.04,70.00 187.61,70.00 188.19,70.00 188.76,70.00 189.33,70.00 189.91,70.00 190.48,70.00 191.05,70.00 191.63,70.00 192.20,70.00 192.78,70.00 193.35,70.00 193.92,70.00 194.50,70.00 195.07,70.00 195.64,70.00 196.22,70.00 196.79,70.00 197.36,70.00 197.94,70.00 198.51,70.00 199.09,70.00 199.66,70.00 200.23,70.00 200.81,70.00 201.38,70.00 201.95,70.00 202.53,70.00 203.10,70.00 203.68,70.00 204.25,70.00 204.82,70.00 205.40,70.00 205.97,70.00 206.54,70.00 207.12,70.00 207.69,70.00 208.27,70.00 208.84,70.00 209.41,70.00 209.99,70.00 210.56,70.00 211.13,70.00 211.71,70.00 212.28,70.00 212.86,70.00 213.43,70.00 214.00,70.00 214.58,70.00 215.15,70.00 215.72,70.00 216.30,70.00 216.87,70.00 217.44,70.00 218.02,70.00 218.59,70.00 219.17,70.00 219.74,70.00 220.31,70.00 220.89,70.00 221.46,70.00 222.03,70.00 222.61,70.00 223.18,70.00 223.76,70.00 224.33,70.00 224.90,70.00 225.48,70.00 226.05,70.00 226.62,70.00 227.20,70.00 227.77,70.00 228.35,70.00 228.92,70.00 229.49,70.00 230.07,70.00 230.64,70.00 231.21,70.00 231.79,70.00 232.36,70.00 232.94,70.00 233.51,70.00 234.08,70.00 234.66,70.00 235.23,70.00 235.80,70.00 236.38,70.00 236.95,70.00 237.53,70.00 238.10,70.00 238.67,70.00 239.25,70.00 239.82,70.00 240.39,70.00 240.97,70.00 241.54,70.00 242.11,70.00 242.69,70.00 243.26,70.00 243.84,70.00 244.41,70.00 244.98,70.00 245.56,70.00 246.13,70.00 246.70,70.00 247.28,70.00 247.85,70.00 248.43,70.00 249.00,70.00 249.57,70.00 250.15,70.00 250.72,70.00 251.29,70.00 251.87,70.00 252.44,70.00 253.02,70.00 253.59,70.00 254.16,70.00 254.74,70.00 255.31,70.00 255.88,70.00 256.46,70.00 257.03,70.00 257.61,70.00 258.18,70.00 258.75,70.00 259.33,70.00 259.90,70.00 260.47,70.00 261.05,70.00 261.62,70.00 262.19,70.00 262.77,70.00 263.34,70.00 263.92,70.00 264.49,70.00 265.06,70.00 265.64,70.00 266.21,70.00 266.78,70.00 267.36,70.00 267.93,70.00 268.51,70.00 269.08,70.00 269.65,70.00 270.23,70.00 270.80,70.00 271.37,70.00 271.95,70.00 272.52,70.00 273.10,70.00 273.67,70.00 274.24,70.00 274.82,70.00 275.39,70.00 275.96,70.00 276.54,70.00 277.11,70.00 277.69,70.00 278.26,70.00 278.83,70.00 279.41,70.00 279.98,70.00 280.55,70.00 281.13,70.00 281.70,70.00 282.27,70.00 282.85,70.00 283.42,70.00 284.00,70.00 284.57,70.00 285.14,70.00 285.72,70.00 286.29,70.00 286.86,70.00 287.44,70.00 288.01,70.00 288.59,70.00 289.16,70.00 289.73,70.00 290.31,70.00 290.88,70.00 291.45,70.00 292.03,70.00 292.60,70.00 293.18,70.00 293.75,70.00 294.32,70.00 294.90,70.00 295.47,70.00 296.04,70.00 296.62,70.00 297.19,70.00 297.77,70.00 298.34,70.00 298.91,70.00 299.49,70.00 300.06,70.00 300.63,70.00 301.21,70.00 301.78,70.00 302.35,70.00 302.93,70.00 303.50,70.00 304.08,70.00 304.65,70.00 305.22,70.00 305.80,70.00 306.37,70.00 306.94,70.00 307.52,70.00 308.09,70.00 308.67,70.00 309.24,70.00 309.81,70.00 310.39,70.00 310.96,70.00 311.53,70.00 312.11,70.00 312.68,70.00 313.26,70.00 313.83,70.00 314.40,70.00 314.98,70.00 315.55,70.00 316.12,70.00 316.70,70.00 317.27,70.00 317.85,70.00 318.42,70.00 318.99,70.00 319.57,70.00 320.14,70.00 320.71,70.00 321.29,70.00 321.86,70.00 322.43,70.00 323.01,70.00 323.58,70.00 324.16,70.00 324.73,70.00 325.30,70.00 325.88,70.00 326.45,70.00 327.02,70.00 327.60,70.00 328.17,70.00 328.75,70.00 329.32,70.00 329.89,70.00 330.47,70.00 331.04,70.00 331.61,70.00 332.19,70.00 332.76,70.00 333.34,70.00 333.91,70.00 334.48,70.00 335.06,70.00 335.63,70.00 336.20,70.00 336.78,70.00 337.35,70.00 337.93,70.00 338.50,70.00 339.07,70.00 339.65,70.00 340.22,70.00 340.79,70.00 341.37,70.00 341.94,70.00 342.52,70.00 343.09,70.00 343.66,70.00 344.24,70.00 344.81,70.00 345.38,70.00 345.96,70.00 346.53,70.00 347.10,70.00 347.68,70.00 348.25,70.00 348.83,70.00 349.40,70.00 349.97,70.00 350.55,70.00 351.12,70.00 351.69,70.00 352.27,70.00 352.84,70.00 353.42,70.00 353.99,70.00 354.56,70.00 355.14,70.00 355.71,70.00 356.28,70.00 356.86,70.00 357.43,70.00 358.01,70.00 358.58,70.00 359.15,70.00 359.73,70.00 360.30,70.00 360.87,70.00 361.45,70.00 362.02,70.00 362.60,70.00 363.17,70.00 363.74,70.00 364.32,70.00 364.89,70.00 365.46,70.00 366.04,70.00 366.61,70.00 367.18,70.00 367.76,70.00 368.33,70.00 368.91,70.00 369.48,70.00 370.05,70.00 370.63,70.00 371.20,70.00 371.77,70.00 372.35,70.00 372.92,70.00 373.50,70.00 374.07,70.00 374.64,70.00 375.22,70.00 375.79,70.00 376.36,70.00 376.94,70.00 377.51,70.00 378.09,70.00 378.66,70.00 379.23,70.00 379.81,70.00 380.38,70.00 380.95,70.00 381.53,70.00 382.10,70.00 382.68,70.00 383.25,70.00 383.82,70.00 384.40,70.00 384.97,70.00 385.54,70.00 386.12,70.00 386.69,70.00 387.26,70.00 387.84,70.00 388.41,70.00 388.99,70.00 389.56,70.00 390.13,70.00 390.71,70.00 391.28,70.00 391.85,70.00 392.43,70.00 393.00,70.00 393.58,70.00 394.15,70.00 394.72,70.00 395.30,70.00 395.87,70.00 396.44,70.00 397.02,70.00 397.59,70.00 398.17,70.00 398.74,70.00 399.31,70.00 399.89,70.00 400.46,70.00 401.03,70.00 401.61,70.00 402.18,70.00 402.76,70.00 403.33,70.00 403.90,70.00 404.48,70.00 405.05,70.00 405.62,70.00 406.20,70.00 406.77,70.00 407.34,70.00 407.92,70.00 408.49,70.00 409.07,70.00 409.64,70.00 410.21,70.00 410.79,70.00 411.36,70.00 411.93,70.00 412.51,70.00 413.08,70.00 413.66,70.00 414.23,70.00 414.80,70.00 415.38,70.00 415.95,70.00 416.52,70.00 417.10,70.00 417.67,70.00 418.25,70.00 418.82,70.00 419.39,70.00 419.97,70.00 420.54,70.00 421.11,70.00 421.69,70.00 422.26,70.00 422.84,70.00 423.41,70.00 423.98,70.00 424.56,70.00 425.13,70.00 425.70,70.00 426.28,70.00 426.85,70.00 427.42,70.00 428.00,70.00 428.57,70.00 429.15,70.00 429.72,70.00 430.29,70.00 430.87,70.00 431.44,70.00 432.01,70.00 432.59,70.00 433.16,70.00 433.74,70.00 434.31,70.00 434.88,70.00 435.46,70.00 436.03,70.00 436.60,70.00 437.18,70.00 437.75,70.00 438.33,70.00 438.90,70.00 439.47,70.00 440.05,70.00 440.62,70.00 441.19,70.00 441.77,70.00 442.34,70.00 442.92,70.00 443.49,70.00 444.06,70.00 444.64,70.00 445.21,70.00 445.78,70.00 446.36,70.00 446.93,70.00 447.51,70.00 448.08,70.00 448.65,70.00 449.23,70.00 449.80,70.00 450.37,70.00 450.95,70.00 451.52,70.00 452.09,70.00 452.67,70.00 453.24,70.00 453.82,70.00 454.39,70.00 454.96,70.00 455.54,70.00 456.11,70.00 456.68,70.00 457.26,70.00 457.83,70.00 458.41,70.00 458.98,70.00 459.55,70.00 460.13,70.00 460.70,70.00 461.27,70.00 461.85,70.00 462.42,70.00 463.00,70.00 463.57,70.00 464.14,70.00 464.72,70.00 465.29,70.00 465.86,70.00 466.44,70.00 467.01,70.00 467.59,70.00 468.16,70.00 468.73,70.00 469.31,70.00 469.88,70.00 470.45,70.00 471.03,70.00 471.60,70.00 472.17,70.00 472.75,70.00 473.32,70.00 473.90,70.00 474.47,70.00 475.04,70.00 475.62,70.00 476.19,70.00 476.76,70.00 477.34,70.00 477.91,70.00 478.49,70.00 479.06,70.00 479.63,70.00 480.21,70.00 480.78,70.00 481.35,70.00 481.93,70.00 482.50,70.00 483.08,70.00 483.65,70.00 484.22,70.00 484.80,70.00 485.37,70.00 485.94,70.00 486.52,70.00 487.09,70.00 487.67,70.00 488.24,70.00 488.81,70.00 489.39,70.00 489.96,70.00 490.53,70.00 491.11,70.00 491.68,70.00 492.25,70.00 492.83,70.00 493.40,70.00 493.98,70.00 494.55,70.00 495.12,70.00 495.70,70.00 496.27,70.00 496.84,70.00 497.42,70.00 497.99,70.00 498.57,70.00 499.14,70.00 499.71,70.00 500.29,70.00 500.86,70.00 501.43,70.00 502.01,70.00 502.58,70.00 503.16,70.00 503.73,70.00 504.30,70.00 504.88,70.00 505.45,70.00 506.02,70.00 506.60,70.00 507.17,70.00 507.75,70.00 508.32,70.00 508.89,70.00 509.47,70.00 510.04,70.00 510.61,70.00 511.19,70.00 511.76,70.00 512.33,70.00 512.91,70.00 513.48,70.00 514.06,70.00 514.63,70.00 515.20,70.00 515.78,70.00 516.35,70.00 516.92,70.00 517.50,70.00 518.07,70.00 518.65,70.00 519.22,70.00 519.79,70.00 520.37,70.00 520.94,70.00 521.51,70.00 522.09,70.00 522.66,70.00 523.24,70.00 523.81,70.00 524.38,70.00 524.96,70.00 525.53,70.00 526.10,70.00 526.68,70.00 527.25,70.00 527.83,70.00 528.40,70.00 528.97,70.00 529.55,70.00 530.12,70.00 530.69,70.00 531.27,70.00 531.84,70.00 532.41,70.00 532.99,70.00 533.56,70.00 534.14,70.00 534.71,70.00 535.28,70.00 535.86,70.00 536.43,70.00 537.00,70.00 537.58,70.00 538.15,70.00 538.73,70.00 539.30,70.00 539.87,70.00 540.45,70.00 541.02,70.00 541.59,70.00 542.17,70.00 542.74,70.00 543.32,70.00 543.89,70.00 544.46,70.00 545.04,70.00 545.61,70.00 546.18,70.00 546.76,70.00 547.33,70.00 547.91,70.00 548.48,70.00 549.05,70.00 549.63,70.00 550.20,70.00 550.77,70.00 551.35,70.00 551.92,70.00 552.49,70.00 553.07,70.00 553.64,70.00 554.22,70.00 554.79,70.00 555.36,70.00 555.94,70.00 556.51,70.00 557.08,70.00 557.66,70.00 558.23,70.00 558.81,70.00 559.38,70.00 559.95,70.00 560.53,70.00 561.10,70.00 561.67,70.00 562.25,70.00 562.82,70.00 563.40,70.00 563.97,70.00 564.54,70.00 565.12,70.00 565.69,70.00 566.26,70.00 566.84,70.00 567.41,70.00 567.99,70.00 568.56,70.00 569.13,70.00 569.71,70.00 570.28,70.00 570.85,70.00 571.43,70.00 572.00,70.00 572.58,70.00 573.15,70.00 573.72,70.00 574.30,70.00 574.87,70.00 575.44,70.00 576.02,70.00 576.59,70.00 577.16,70.00 577.74,70.00 578.31,70.00 578.89,70.00 579.46,70.00 580.03,70.00 580.61,70.00 581.18,70.00 581.75,70.00 582.33,70.00 582.90,70.00 583.48,70.00 584.05,70.00 584.62,70.00 585.20,70.00 585.77,70.00 586.34,70.00 586.92,70.00 587.49,70.00 588.07,70.00 588.64,70.00 589.21,70.00 589.79,70.00 590.36,70.00 590.93,70.00 591.51,70.00 592.08,70.00 592.66,70.00 593.23,70.00 593.80,70.00 594.38,70.00 594.95,70.00 595.52,70.00 596.10,70.00 596.67,70.00 597.24,70.00 597.82,70.00 598.39,70.00 598.97,70.00 599.54,70.00 600.11,70.00 600.69,70.00 601.26,70.00 601.83,70.00 602.41,70.00 602.98,70.00 603.56,70.00 604.13,70.00 604.70,70.00 605.28,70.00 605.85,70.00 606.42,70.00 607.00,70.00 607.57,70.00 608.15,70.00 608.72,70.00 609.29,70.00 609.87,70.00 610.44,70.00 611.01,70.00 611.59,70.00 612.16,70.00 612.74,70.00 613.31,70.00 613.88,70.00 614.46,70.00 615.03,70.00 615.60,70.00 616.18,70.00 616.75,70.00 617.32,70.00 617.90,70.00 618.47,70.00 619.05,70.00 619.62,70.00 620.19,70.00 620.77,70.00 621.34,70.00 621.91,70.00 622.49,70.00 623.06,70.00 623.64,70.00 624.21,70.00 624.78,70.00 625.36,70.00 625.93,70.00 626.50,70.00 627.08,70.00 627.65,70.00 628.23,70.00 628.80,70.00 629.37,70.00 629.95,70.00 630.52,70.00 631.09,70.00 631.67,70.00 632.24,70.00 632.82,70.00 633.39,70.00 633.96,70.00 634.54,70.00 635.11,70.00 635.68,70.00 636.26,70.00 636.83,70.00 637.40,70.00 637.98,70.00 638.55,70.00 639.13,70.00 639.70,70.00 640.27,70.00 640.85,70.00 641.42,70.00 641.99,70.00 642.57,70.00 643.14,70.00 643.72,70.00 644.29,70.00 644.86,70.00 645.44,70.00 646.01,70.00 646.58,70.00 647.16,70.00 647.73,70.00 648.31,70.00 648.88,70.00 649.45,70.00 650.03,70.00 650.60,70.00 651.17,70.00 651.75,70.00 652.32,70.00 652.90,70.00 653.47,70.00 654.04,70.00 654.62,70.00 655.19,70.00 655.76,70.00 656.34,70.00 656.91,70.00 657.48,70.00 658.06,70.00 658.63,70.00 659.21,70.00 659.78,70.00 660.35,70.00 660.93,70.00 661.50,70.00 662.07,70.00 662.65,70.00 663.22,70.00 663.80,70.00 664.37,70.00 664.94,70.00 665.52,70.00 666.09,70.00 666.66,70.00 667.24,70.00 667.81,70.00 668.39,70.00 668.96,70.00 669.53,70.00 670.11,70.00 670.68,70.00 671.25,70.00 671.83,70.00 672.40,70.00 672.98,70.00 673.55,70.00 674.12,70.00 674.70,70.00 675.27,70.00 675.84,70.00 676.42,70.00 676.99,70.00 677.57,70.00 678.14,70.00 678.71,70.00 679.29,70.00 679.86,70.00 680.43,70.00 681.01,70.00 681.58,70.00 682.15,70.00 682.73,70.00 683.30,70.00 683.88,70.00 684.45,70.00 685.02,70.00 685.60,70.00 686.17,70.00 686.74,70.00 687.32,70.00 687.89,70.00 688.47,70.00 689.04,70.00 689.61,70.00 690.19,70.00 690.76,70.00 691.33,70.00 691.91,70.00 692.48,70.00 693.06,70.00 693.63,70.00 694.20,70.00 694.78,70.00 695.35,70.00 695.92,70.00 696.50,70.00 697.07,70.00 697.65,70.00 698.22,70.00 698.79,70.00 699.37,70.00 699.94,70.00 700.51,70.00 701.09,70.00 701.66,70.00 702.23,70.00 702.81,70.00 703.38,70.00 703.96,70.00 704.53,70.00 705.10,70.00 705.68,70.00 706.25,70.00 706.82,70.00 707.40,70.00 707.97,70.00 708.55,70.00 709.12,70.00 709.69,70.00 710.27,70.00 710.84,70.00 711.41,70.00 711.99,70.00 712.56,70.00 713.14,70.00 713.71,70.00 714.28,70.00 714.86,70.00 715.43,70.00 716.00,70.00 716.58,70.00 717.15,70.00 717.73,70.00 718.30,70.00 718.87,70.00 719.45,70.00 720.02,70.00 720.59,70.00 721.17,70.00 721.74,70.00 722.31,70.00 722.89,70.00 723.46,70.00 724.04,70.00 724.61,70.00 725.18,70.00 725.76,70.00 726.33,70.00 726.90,70.00 727.48,70.00 728.05,70.00 728.63,70.00 729.20,70.00 729.77,70.00 730.35,70.00 730.92,70.00 731.49,70.00 732.07,70.00 732.64,70.00 733.22,70.00 733.79,70.00 734.36,70.00 734.94,70.00 735.51,70.00 736.08,70.00 736.66,70.00 737.23,70.00 737.81,70.00 738.38,70.00 738.95,70.00 739.53,70.00 740.10,70.00 740.67,70.00 741.25,70.00 741.82,70.00 742.39,70.00 742.97,70.00 743.54,70.00 744.12,70.00 744.69,70.00 745.26,70.00 745.84,70.00 746.41,70.00 746.98,70.00 747.56,70.00 748.13,70.00 748.71,70.00 749.28,70.00 749.85,70.00 750.43,70.00 751.00,70.00 751.57,70.00 752.15,70.00 752.72,70.00 753.30,70.00 753.87,70.00 754.44,70.00 755.02,70.00 755.59,70.00 756.16,70.00 756.74,70.00 757.31,70.00 757.89,70.00 758.46,70.00 759.03,70.00 759.61,70.00 760.18,70.00 760.75,70.00 761.33,70.00 761.90,70.00 762.47,70.00 763.05,70.00 763.62,70.00 764.20,70.00 764.77,70.00 765.34,70.00 765.92,70.00 766.49,70.00 767.06,70.00 767.64,70.00 768.21,70.00 768.79,70.00 769.36,70.00 769.93,70.00 770.51,70.00 771.08,70.00 771.65,70.00 772.23,70.00 772.80,70.00 773.38,70.00 773.95,70.00 774.52,70.00 775.10,70.00 775.67,70.00 776.24,70.00 776.82,70.00 777.39,70.00 777.97,70.00 778.54,70.00 779.11,70.00 779.69,70.00 780.26,70.00 780.83,70.00 781.41,70.00 781.98,70.00 782.56,70.00 783.13,70.00 783.70,70.00 784.28,70.00 784.85,70.00 785.42,70.00 786.00,70.00 786.57,70.00 787.14,70.00 787.72,70.00 788.29,70.00 788.87,70.00 789.44,70.00 790.01,70.00 790.59,70.00 791.16,70.00 791.73,70.00 792.31,70.00 792.88,70.00 793.46,70.00 794.03,70.00 794.60,70.00 795.18,70.00 795.75,70.00 796.32,70.00 796.90,70.00 797.47,70.00 798.05,70.00 798.62,70.00 799.19,70.00 799.77,70.00 800.34,70.00 800.91,70.00 801.49,70.00 802.06,70.00 802.64,70.00 803.21,70.00 803.78,70.00 804.36,70.00 804.93,70.00 805.50,70.00 806.08,70.00 806.65,70.00 807.22,70.00 807.80,70.00 808.37,70.00 808.95,70.00 809.52,70.00 810.09,70.00 810.67,70.00 811.24,70.00 811.81,70.00 812.39,70.00 812.96,70.00 813.54,70.00 814.11,70.00 814.68,70.00 815.26,70.00 815.83,70.00 816.40,70.00 816.98,70.00 817.55,70.00 818.13,70.00 818.70,70.00 819.27,70.00 819.85,70.00 820.42,70.00 820.99,70.00 821.57,70.00 822.14,70.00 822.72,70.00 823.29,70.00 823.86,70.00 824.44,70.00 825.01,70.00 825.58,70.00 826.16,70.00 826.73,70.00 827.30,70.00 827.88,70.00 828.45,70.00 829.03,70.00 829.60,70.00 830.17,70.00 830.75,70.00 831.32,70.00 831.89,70.00 832.47,70.00 833.04,70.00 833.62,70.00 834.19,70.00 834.76,70.00 835.34,70.00 835.91,70.00 836.48,70.00 837.06,70.00 837.63,70.00 838.21,70.00 838.78,70.00 839.35,70.00 839.93,70.00 840.50,70.00 841.07,70.00 841.65,70.00 842.22,70.00 842.80,70.00 843.37,70.00 843.94,70.00 844.52,70.00 845.09,70.00 845.66,70.00 846.24,70.00 846.81,70.00 847.38,70.00 847.96,70.00 848.53,70.00 849.11,70.00 849.68,70.00 850.25,70.00 850.83,70.00 851.40,70.00 851.97,70.00 852.55,70.00 853.12,70.00 853.70,70.00 854.27,70.00 854.84,70.00 855.42,70.00 855.99,70.00 856.56,70.00 857.14,70.00 857.71,70.00 858.29,70.00 858.86,70.00 859.43,70.00 860.01,70.00 860.58,70.00 861.15,70.00 861.73,70.00 862.30,70.00 862.88,70.00 863.45,70.00 864.02,70.00 864.60,70.00 865.17,70.00 865.74,70.00 866.32,70.00 866.89,70.00 867.46,70.00 868.04,70.00 868.61,70.00 869.19,70.00 869.76,70.00 870.33,70.00 870.91,70.00 871.48,70.00 872.05,70.00 872.63,70.00 873.20,70.00 873.78,70.00 874.35,70.00 874.92,70.00 875.50,70.00 876.07,70.00 876.64,70.00 877.22,70.00 877.79,70.00 878.37,70.00 878.94,70.00 879.51,70.00 880.09,70.00 880.66,70.00 881.23,70.00 881.81,70.00 882.38,70.00 882.96,70.00 883.53,70.00 884.10,70.00 884.68,70.00 885.25,70.00 885.82,70.00 886.40,70.00 886.97,70.00 887.55,70.00 888.12,70.00 888.69,70.00 889.27,70.00 889.84,70.00 890.41,70.00 890.99,70.00 891.56,70.00 892.13,70.00 892.71,70.00 893.28,70.00 893.86,70.00 894.43,70.00 895.00,70.00 895.58,70.00 896.15,70.00 896.72,70.00 897.30,70.00 897.87,70.00 898.45,70.00 899.02,70.00 899.59,70.00 900.17,70.00 900.74,70.00 901.31,70.00 901.89,70.00 902.46,70.00 903.04,70.00 903.61,70.00 904.18,70.00 904.76,70.00 905.33,70.00 905.90,70.00 906.48,70.00 907.05,70.00 907.63,70.00 908.20,70.00 908.77,70.00 909.35,70.00 909.92,70.00 910.49,70.00 911.07,70.00 911.64,70.00 912.21,70.00 912.79,70.00 913.36,70.00 913.94,70.00 914.51,70.00 915.08,70.00 915.66,70.00 916.23,70.00 916.80,70.00 917.38,70.00 917.95,70.00 918.53,70.00 919.10,70.00 919.67,70.00 920.25,70.00 920.82,70.00 921.39,70.00 921.97,70.00 922.54,70.00 923.12,70.00 923.69,70.00 924.26,70.00 924.84,70.00 925.41,70.00 925.98,70.00 926.56,70.00 927.13,70.00 927.71,70.00 928.28,70.00 928.85,70.00 929.43,70.00 930.00,70.00" />
  <rect x="720" y="80" width="190" height="127" fill="#ffffff" stroke="#cccccc" stroke-width="1" rx="8" ry="8" />
  <line x1="732" y1="105" x2="762" y2="105" stroke="#2563eb" stroke-width="4" />
  <text x="770" y="110" font-size="14" font-family="Arial">base_data</text>
  <line x1="732" y1="133" x2="762" y2="133" stroke="#dc2626" stroke-width="4" />
  <text x="770" y="138" font-size="14" font-family="Arial">pruning_884</text>
  <line x1="732" y1="161" x2="762" y2="161" stroke="#16a34a" stroke-width="4" />
  <text x="770" y="166" font-size="14" font-family="Arial">pruning_mcts_885</text>
  <line x1="732" y1="189" x2="762" y2="189" stroke="#ea580c" stroke-width="4" />
  <text x="770" y="194" font-size="14" font-family="Arial">pruning_best885</text>
</svg>