<svg xmlns="http://www.w3.org/2000/svg" width="1000" height="520">
  <rect x="0" y="0" width="1000" height="520" fill="#ffffff" />
  <line x1="70" y1="450" x2="930" y2="450" stroke="#333333" stroke-width="2" />
  <line x1="70" y1="70" x2="70" y2="450" stroke="#333333" stroke-width="2" />
  <text x="500.0" y="35" text-anchor="middle" font-size="24" font-family="Arial">Effective Learning Rate Comparison</text>
  <text x="500.0" y="500" text-anchor="middle" font-size="16" font-family="Arial">Batch</text>
  <text x="28" y="260.0" text-anchor="middle" font-size="16" font-family="Arial" transform="rotate(-90 28 260.0)">Learning Rate</text>
  <text x="70" y="58" font-size="13" font-family="Arial">0.003</text>
  <text x="70" y="470" font-size="13" font-family="Arial">0.000</text>
  <text x="70" y="488" font-size="13" font-family="Arial">3</text>
  <text x="930" y="488" text-anchor="end" font-size="13" font-family="Arial">1500</text>
  <line x1="70" y1="146.00" x2="930" y2="146.00" stroke="#dddddd" stroke-width="1" stroke-dasharray="4,4" />
  <line x1="70" y1="222.00" x2="930" y2="222.00" stroke="#dddddd" stroke-width="1" stroke-dasharray="4,4" />
  <line x1="70" y1="298.00" x2="930" y2="298.00" stroke="#dddddd" stroke-width="1" stroke-dasharray="4,4" />
  <line x1="70" y1="374.00" x2="930" y2="374.00" stroke="#dddddd" stroke-width="1" stroke-dasharray="4,4" />
  <polyline fill="none" stroke="#2563eb" stroke-width="3" points="70.57,294.24 71.15,294.24 71.72,294.24 72.30,204.54 72.87,70.00 73.45,204.54 74.02,204.54 74.60,294.24 75.17,294.24 75.74,294.24 76.32,294.24 76.89,294.24 77.47,294.24 78.04,294.24 78.62,354.03 79.19,354.03 79.77,354.03 80.34,354.03 80.92,393.90 81.49,420.47 82.06,420.47 82.64,393.90 83.21,393.90 83.79,393.90 84.36,354.03 84.94,354.03 85.51,354.03 86.09,294.24 86.66,294.24 87.23,294.24 87.81,354.03 88.38,354.03 88.96,354.03 89.53,354.03 90.11,354.03 90.68,354.03 91.26,354.03 91.83,354.03 92.40,354.03 92.98,354.03 93.55,354.03 94.13,354.03 94.70,354.03 95.28,354.03 95.85,354.03 96.43,354.03 97.00,354.03 97.58,354.03 98.15,354.03 98.72,354.03 99.30,393.90 99.87,393.90 100.45,393.90 101.02,354.03 101.60,393.90 102.17,393.90 102.75,393.90 103.32,393.90 103.89,393.90 104.47,393.90 105.04,393.90 105.62,354.03 106.19,354.03 106.77,354.03 107.34,354.03 107.92,354.03 108.49,354.03 109.06,354.03 109.64,354.03 110.21,393.90 110.79,393.90 111.36,393.90 111.94,393.90 112.51,393.90 113.09,393.90 113.66,393.90 114.24,393.90 114.81,420.47 115.38,420.47 115.96,420.47 116.53,393.90 117.11,393.90 117.68,393.90 118.26,393.90 118.83,393.90 119.41,393.90 119.98,393.90 120.55,393.90 121.13,393.90 121.70,393.90 122.28,393.90 122.85,393.90 123.43,393.90 124.00,393.90 124.58,393.90 125.15,393.90 125.72,393.90 126.30,393.90 126.87,393.90 127.45,393.90 128.02,393.90 128.60,393.90 129.17,420.47 129.75,420.47 130.32,420.47 130.90,420.47 131.47,420.47 132.04,420.47 132.62,420.47 133.19,420.47 133.77,420.47 134.34,420.47 134.92,420.47 135.49,420.47 136.07,420.47 136.64,420.47 137.21,420.47 137.79,420.47 138.36,420.47 138.94,420.47 139.51,420.47 140.09,420.47 140.66,420.47 141.24,420.47 141.81,420.47 142.38,420.47 142.96,420.47 143.53,420.47 144.11,420.47 144.68,420.47 145.26,420.47 145.83,420.47 146.41,420.47 146.98,420.47 147.56,420.47 148.13,420.47 148.70,420.47 149.28,420.47 149.85,420.47 150.43,420.47 151.00,420.47 151.58,420.47 152.15,420.47 152.73,420.47 153.30,420.47 153.87,420.47 154.45,420.47 155.02,420.47 155.60,420.47 156.17,420.47 156.75,420.47 157.32,420.47 157.90,420.47 158.47,420.47 159.04,420.47 159.62,420.47 160.19,420.47 160.77,420.47 161.34,420.47 161.92,420.47 162.49,420.47 163.07,420.47 163.64,420.47 164.22,438.19 164.79,438.19 165.36,438.19 165.94,420.47 166.51,420.47 167.09,420.47 167.66,420.47 168.24,420.47 168.81,420.47 169.39,420.47 169.96,420.47 170.53,420.47 171.11,420.47 171.68,420.47 172.26,420.47 172.83,420.47 173.41,420.47 173.98,420.47 174.56,420.47 175.13,420.47 175.70,420.47 176.28,420.47 176.85,420.47 177.43,420.47 178.00,420.47 178.58,420.47 179.15,420.47 179.73,420.47 180.30,420.47 180.88,420.47 181.45,420.47 182.02,420.47 182.60,420.47 183.17,420.47 183.75,420.47 184.32,420.47 184.90,420.47 185.47,420.47 186.05,420.47 186.62,420.47 187.19,420.47 187.77,420.47 188.34,420.47 188.92,420.47 189.49,420.47 190.07,420.47 190.64,420.47 191.22,420.47 191.79,420.47 192.36,420.47 192.94,420.47 193.51,420.47 194.09,420.47 194.66,420.47 195.24,420.47 195.81,420.47 196.39,420.47 196.96,420.47 197.54,420.47 198.11,420.47 198.68,420.47 199.26,420.47 199.83,420.47 200.41,420.47 200.98,420.47 201.56,420.47 202.13,420.47 202.71,420.47 203.28,420.47 203.85,420.47 204.43,420.47 205.00,420.47 205.58,420.47 206.15,420.47 206.73,420.47 207.30,438.19 207.88,438.19 208.45,438.19 209.02,420.47 209.60,420.47 210.17,420.47 210.75,420.47 211.32,420.47 211.90,420.47 212.47,420.47 213.05,420.47 213.62,420.47 214.20,420.47 214.77,420.47 215.34,420.47 215.92,420.47 216.49,420.47 217.07,420.47 217.64,420.47 218.22,420.47 218.79,420.47 219.37,420.47 219.94,420.47 220.51,420.47 221.09,420.47 221.66,420.47 222.24,420.47 222.81,420.47 223.39,420.47 223.96,420.47 224.54,420.47 225.11,420.47 225.68,420.47 226.26,420.47 226.83,420.47 227.41,420.47 227.98,420.47 228.56,420.47 229.13,420.47 229.71,420.47 230.28,420.47 230.86,420.47 231.43,420.47 232.00,420.47 232.58,420.47 233.15,420.47 233.73,420.47 234.30,420.47 234.88,420.47 235.45,420.47 236.03,420.47 236.60,420.47 237.17,420.47 237.75,420.47 238.32,420.47 238.90,420.47 239.47,420.47 240.05,420.47 240.62,420.47 241.20,420.47 241.77,420.47 242.34,420.47 242.92,420.47 243.49,420.47 244.07,420.47 244.64,420.47 245.22,420.47 245.79,420.47 246.37,420.47 246.94,420.47 247.52,420.47 248.09,438.19 248.66,420.47 249.24,420.47 249.81,420.47 250.39,420.47 250.96,420.47 251.54,420.47 252.11,420.47 252.69,420.47 253.26,420.47 253.83,420.47 254.41,420.47 254.98,420.47 255.56,420.47 256.13,420.47 256.71,420.47 257.28,420.47 257.86,420.47 258.43,420.47 259.00,420.47 259.58,420.47 260.15,420.47 260.73,420.47 261.30,420.47 261.88,420.47 262.45,420.47 263.03,420.47 263.60,420.47 264.18,420.47 264.75,420.47 265.32,420.47 265.90,420.47 266.47,420.47 267.05,420.47 267.62,420.47 268.20,420.47 268.77,420.47 269.35,420.47 269.92,420.47 270.49,420.47 271.07,420.47 271.64,420.47 272.22,420.47 272.79,420.47 273.37,420.47 273.94,420.47 274.52,420.47 275.09,420.47 275.66,420.47 276.24,420.47 276.81,420.47 277.39,420.47 277.96,420.47 278.54,420.47 279.11,420.47 279.69,420.47 280.26,420.47 280.84,420.47 281.41,420.47 281.98,420.47 282.56,420.47 283.13,420.47 283.71,420.47 284.28,420.47 284.86,420.47 285.43,420.47 286.01,420.47 286.58,420.47 287.15,420.47 287.73,420.47 288.30,420.47 288.88,420.47 289.45,420.47 290.03,420.47 290.60,420.47 291.18,420.47 291.75,420.47 292.32,420.47 292.90,420.47 293.47,420.47 294.05,420.47 294.62,420.47 295.20,420.47 295.77,420.47 296.35,420.47 296.92,420.47 297.49,420.47 298.07,420.47 298.64,420.47 299.22,420.47 299.79,420.47 300.37,420.47 300.94,420.47 301.52,420.47 302.09,420.47 302.67,420.47 303.24,420.47 303.81,420.47 304.39,420.47 304.96,438.19 305.54,438.19 306.11,438.19 306.69,438.19 307.26,438.19 307.84,438.19 308.41,438.19 308.98,438.19 309.56,420.47 310.13,420.47 310.71,420.47 311.28,420.47 311.86,420.47 312.43,438.19 313.01,438.19 313.58,438.19 314.15,420.47 314.73,420.47 315.30,420.47 315.88,420.47 316.45,420.47 317.03,420.47 317.60,420.47 318.18,420.47 318.75,420.47 319.33,420.47 319.90,420.47 320.47,420.47 321.05,420.47 321.62,420.47 322.20,420.47 322.77,420.47 323.35,420.47 323.92,420.47 324.50,420.47 325.07,420.47 325.64,420.47 326.22,420.47 326.79,420.47 327.37,420.47 327.94,420.47 328.52,420.47 329.09,420.47 329.67,420.47 330.24,420.47 330.81,420.47 331.39,420.47 331.96,420.47 332.54,420.47 333.11,420.47 333.69,420.47 334.26,420.47 334.84,420.47 335.41,420.47 335.99,420.47 336.56,420.47 337.13,420.47 337.71,420.47 338.28,420.47 338.86,420.47 339.43,420.47 340.01,420.47 340.58,420.47 341.16,420.47 341.73,420.47 342.30,420.47 342.88,420.47 343.45,420.47 344.03,420.47 344.60,420.47 345.18,420.47 345.75,420.47 346.33,420.47 346.90,420.47 347.47,420.47 348.05,420.47 348.62,420.47 349.20,420.47 349.77,420.47 350.35,420.47 350.92,420.47 351.50,420.47 352.07,420.47 352.65,420.47 353.22,420.47 353.79,420.47 354.37,420.47 354.94,420.47 355.52,420.47 356.09,420.47 356.67,420.47 357.24,420.47 357.82,420.47 358.39,420.47 358.96,420.47 359.54,420.47 360.11,420.47 360.69,420.47 361.26,420.47 361.84,420.47 362.41,420.47 362.99,420.47 363.56,420.47 364.13,420.47 364.71,420.47 365.28,420.47 365.86,420.47 366.43,420.47 367.01,420.47 367.58,420.47 368.16,420.47 368.73,420.47 369.31,420.47 369.88,420.47 370.45,420.47 371.03,420.47 371.60,420.47 372.18,420.47 372.75,420.47 373.33,420.47 373.90,420.47 374.48,420.47 375.05,420.47 375.62,420.47 376.20,420.47 376.77,420.47 377.35,420.47 377.92,420.47 378.50,420.47 379.07,420.47 379.65,420.47 380.22,420.47 380.79,420.47 381.37,420.47 381.94,420.47 382.52,420.47 383.09,420.47 383.67,420.47 384.24,420.47 384.82,420.47 385.39,420.47 385.97,420.47 386.54,420.47 387.11,420.47 387.69,420.47 388.26,420.47 388.84,420.47 389.41,420.47 389.99,420.47 390.56,420.47 391.14,420.47 391.71,420.47 392.28,420.47 392.86,420.47 393.43,420.47 394.01,420.47 394.58,420.47 395.16,420.47 395.73,420.47 396.31,420.47 396.88,420.47 397.45,420.47 398.03,420.47 398.60,420.47 399.18,420.47 399.75,420.47 400.33,420.47 400.90,420.47 401.48,420.47 402.05,420.47 402.63,420.47 403.20,420.47 403.77,420.47 404.35,420.47 404.92,438.19 405.50,438.19 406.07,438.19 406.65,438.19 407.22,438.19 407.80,438.19 408.37,438.19 408.94,438.19 409.52,438.19 410.09,438.19 410.67,420.47 411.24,420.47 411.82,420.47 412.39,420.47 412.97,420.47 413.54,420.47 414.11,420.47 414.69,420.47 415.26,420.47 415.84,420.47 416.41,420.47 416.99,420.47 417.56,420.47 418.14,420.47 418.71,420.47 419.29,420.47 419.86,420.47 420.43,420.47 421.01,420.47 421.58,420.47 422.16,420.47 422.73,420.47 423.31,420.47 423.88,420.47 424.46,420.47 425.03,420.47 425.60,420.47 426.18,420.47 426.75,420.47 427.33,420.47 427.90,420.47 428.48,420.47 429.05,420.47 429.63,420.47 430.20,420.47 430.77,420.47 431.35,420.47 431.92,420.47 432.50,420.47 433.07,420.47 433.65,420.47 434.22,420.47 434.80,420.47 435.37,420.47 435.95,420.47 436.52,420.47 437.09,420.47 437.67,420.47 438.24,420.47 438.82,420.47 439.39,420.47 439.97,420.47 440.54,420.47 441.12,420.47 441.69,420.47 442.26,420.47 442.84,420.47 443.41,420.47 443.99,420.47 444.56,420.47 445.14,420.47 445.71,420.47 446.29,420.47 446.86,420.47 447.43,420.47 448.01,420.47 448.58,420.47 449.16,420.47 449.73,438.19 450.31,438.19 450.88,438.19 451.46,438.19 452.03,438.19 452.61,438.19 453.18,420.47 453.75,420.47 454.33,420.47 454.90,420.47 455.48,420.47 456.05,420.47 456.63,420.47 457.20,420.47 457.78,420.47 458.35,420.47 458.92,420.47 459.50,420.47 460.07,420.47 460.65,420.47 461.22,420.47 461.80,420.47 462.37,420.47 462.95,420.47 463.52,420.47 464.09,420.47 464.67,420.47 465.24,420.47 465.82,420.47 466.39,420.47 466.97,420.47 467.54,420.47 468.12,420.47 468.69,420.47 469.27,420.47 469.84,420.47 470.41,420.47 470.99,420.47 471.56,420.47 472.14,420.47 472.71,420.47 473.29,420.47 473.86,420.47 474.44,420.47 475.01,420.47 475.58,420.47 476.16,420.47 476.73,420.47 477.31,420.47 477.88,420.47 478.46,420.47 479.03,420.47 479.61,420.47 480.18,420.47 480.75,420.47 481.33,420.47 481.90,420.47 482.48,420.47 483.05,420.47 483.63,420.47 484.20,420.47 484.78,420.47 485.35,420.47 485.93,420.47 486.50,420.47 487.07,420.47 487.65,420.47 488.22,420.47 488.80,420.47 489.37,420.47 489.95,420.47 490.52,420.47 491.10,420.47 491.67,420.47 492.24,420.47 492.82,420.47 493.39,420.47 493.97,420.47 494.54,420.47 495.12,420.47 495.69,420.47 496.27,420.47 496.84,420.47 497.41,420.47 497.99,420.47 498.56,420.47 499.14,420.47 499.71,420.47 500.29,420.47 500.86,420.47 501.44,420.47 502.01,420.47 502.59,420.47 503.16,420.47 503.73,420.47 504.31,420.47 504.88,420.47 505.46,420.47 506.03,420.47 506.61,420.47 507.18,420.47 507.76,420.47 508.33,420.47 508.90,420.47 509.48,420.47 510.05,420.47 510.63,420.47 511.20,420.47 511.78,420.47 512.35,420.47 512.93,420.47 513.50,420.47 514.07,420.47 514.65,420.47 515.22,420.47 515.80,420.47 516.37,420.47 516.95,420.47 517.52,420.47 518.10,420.47 518.67,420.47 519.25,420.47 519.82,420.47 520.39,420.47 520.97,420.47 521.54,420.47 522.12,420.47 522.69,420.47 523.27,420.47 523.84,420.47 524.42,420.47 524.99,420.47 525.56,420.47 526.14,420.47 526.71,420.47 527.29,420.47 527.86,420.47 528.44,420.47 529.01,420.47 529.59,420.47 530.16,420.47 530.73,420.47 531.31,420.47 531.88,420.47 532.46,420.47 533.03,420.47 533.61,420.47 534.18,420.47 534.76,420.47 535.33,420.47 535.91,420.47 536.48,420.47 537.05,420.47 537.63,420.47 538.20,438.19 538.78,438.19 539.35,438.19 539.93,438.19 540.50,438.19 541.08,420.47 541.65,420.47 542.22,420.47 542.80,420.47 543.37,420.47 543.95,420.47 544.52,420.47 545.10,420.47 545.67,420.47 546.25,420.47 546.82,420.47 547.39,420.47 547.97,420.47 548.54,420.47 549.12,420.47 549.69,420.47 550.27,420.47 550.84,420.47 551.42,420.47 551.99,420.47 552.57,420.47 553.14,420.47 553.71,420.47 554.29,420.47 554.86,420.47 555.44,420.47 556.01,420.47 556.59,420.47 557.16,420.47 557.74,420.47 558.31,420.47 558.88,420.47 559.46,420.47 560.03,420.47 560.61,420.47 561.18,420.47 561.76,420.47 562.33,420.47 562.91,420.47 563.48,420.47 564.05,438.19 564.63,420.47 565.20,420.47 565.78,420.47 566.35,420.47 566.93,420.47 567.50,420.47 568.08,420.47 568.65,420.47 569.23,420.47 569.80,420.47 570.37,420.47 570.95,420.47 571.52,420.47 572.10,420.47 572.67,420.47 573.25,420.47 573.82,420.47 574.40,420.47 574.97,420.47 575.54,420.47 576.12,420.47 576.69,420.47 577.27,420.47 577.84,420.47 578.42,420.47 578.99,420.47 579.57,420.47 580.14,420.47 580.71,420.47 581.29,420.47 581.86,420.47 582.44,438.19 583.01,438.19 583.59,438.19 584.16,438.19 584.74,438.19 585.31,438.19 585.89,438.19 586.46,420.47 587.03,420.47 587.61,420.47 588.18,420.47 588.76,420.47 589.33,420.47 589.91,420.47 590.48,420.47 591.06,420.47 591.63,420.47 592.20,420.47 592.78,420.47 593.35,420.47 593.93,420.47 594.50,420.47 595.08,420.47 595.65,420.47 596.23,420.47 596.80,420.47 597.37,420.47 597.95,420.47 598.52,420.47 599.10,420.47 599.67,420.47 600.25,420.47 600.82,420.47 601.40,438.19 601.97,438.19 602.55,438.19 603.12,438.19 603.69,438.19 604.27,438.19 604.84,438.19 605.42,420.47 605.99,420.47 606.57,420.47 607.14,420.47 607.72,420.47 608.29,420.47 608.86,420.47 609.44,420.47 610.01,420.47 610.59,420.47 611.16,420.47 611.74,420.47 612.31,420.47 612.89,420.47 613.46,420.47 614.03,420.47 614.61,420.47 615.18,420.47 615.76,420.47 616.33,420.47 616.91,420.47 617.48,420.47 618.06,420.47 618.63,420.47 619.21,420.47 619.78,420.47 620.35,420.47 620.93,420.47 621.50,420.47 622.08,420.47 622.65,420.47 623.23,420.47 623.80,420.47 624.38,420.47 624.95,420.47 625.52,420.47 626.10,420.47 626.67,420.47 627.25,420.47 627.82,420.47 628.40,420.47 628.97,420.47 629.55,420.47 630.12,420.47 630.69,420.47 631.27,438.19 631.84,438.19 632.42,438.19 632.99,438.19 633.57,438.19 634.14,438.19 634.72,438.19 635.29,438.19 635.87,438.19 636.44,438.19 637.01,438.19 637.59,438.19 638.16,438.19 638.74,438.19 639.31,438.19 639.89,438.19 640.46,438.19 641.04,438.19 641.61,438.19 642.18,438.19 642.76,438.19 643.33,438.19 643.91,438.19 644.48,438.19 645.06,438.19 645.63,438.19 646.21,438.19 646.78,438.19 647.35,438.19 647.93,438.19 648.50,438.19 649.08,438.19 649.65,438.19 650.23,438.19 650.80,438.19 651.38,438.19 651.95,420.47 652.53,420.47 653.10,420.47 653.67,420.47 654.25,420.47 654.82,420.47 655.40,420.47 655.97,420.47 656.55,420.47 657.12,438.19 657.70,438.19 658.27,438.19 658.84,438.19 659.42,438.19 659.99,438.19 660.57,438.19 661.14,438.19 661.72,438.19 662.29,420.47 662.87,420.47 663.44,420.47 664.01,420.47 664.59,420.47 665.16,420.47 665.74,420.47 666.31,420.47 666.89,420.47 667.46,420.47 668.04,420.47 668.61,420.47 669.19,420.47 669.76,438.19 670.33,438.19 670.91,438.19 671.48,438.19 672.06,438.19 672.63,438.19 673.21,438.19 673.78,438.19 674.36,438.19 674.93,438.19 675.50,438.19 676.08,438.19 676.65,438.19 677.23,438.19 677.80,438.19 678.38,438.19 678.95,438.19 679.53,438.19 680.10,438.19 680.67,420.47 681.25,420.47 681.82,420.47 682.40,420.47 682.97,420.47 683.55,420.47 684.12,420.47 684.70,420.47 685.27,420.47 685.85,420.47 686.42,420.47 686.99,420.47 687.57,420.47 688.14,420.47 688.72,420.47 689.29,420.47 689.87,420.47 690.44,420.47 691.02,420.47 691.59,420.47 692.16,420.47 692.74,420.47 693.31,420.47 693.89,420.47 694.46,420.47 695.04,420.47 695.61,420.47 696.19,420.47 696.76,420.47 697.33,420.47 697.91,420.47 698.48,420.47 699.06,420.47 699.63,420.47 700.21,420.47 700.78,420.47 701.36,420.47 701.93,420.47 702.51,420.47 703.08,420.47 703.65,420.47 704.23,420.47 704.80,420.47 705.38,420.47 705.95,420.47 706.53,420.47 707.10,420.47 707.68,420.47 708.25,420.47 708.82,420.47 709.40,420.47 709.97,420.47 710.55,420.47 711.12,420.47 711.70,420.47 712.27,420.47 712.85,420.47 713.42,420.47 713.99,420.47 714.57,420.47 715.14,420.47 715.72,420.47 716.29,420.47 716.87,420.47 717.44,420.47 718.02,420.47 718.59,420.47 719.16,420.47 719.74,420.47 720.31,420.47 720.89,420.47 721.46,420.47 722.04,420.47 722.61,420.47 723.19,420.47 723.76,420.47 724.34,420.47 724.91,420.47 725.48,420.47 726.06,420.47 726.63,420.47 727.21,420.47 727.78,420.47 728.36,420.47 728.93,420.47 729.51,420.47 730.08,420.47 730.65,420.47 731.23,420.47 731.80,420.47 732.38,420.47 732.95,420.47 733.53,420.47 734.10,420.47 734.68,420.47 735.25,420.47 735.82,420.47 736.40,420.47 736.97,420.47 737.55,420.47 738.12,420.47 738.70,420.47 739.27,420.47 739.85,420.47 740.42,420.47 741.00,420.47 741.57,438.19 742.14,438.19 742.72,438.19 743.29,438.19 743.87,420.47 744.44,420.47 745.02,420.47 745.59,420.47 746.17,420.47 746.74,420.47 747.31,438.19 747.89,438.19 748.46,438.19 749.04,450.00 749.61,438.19 750.19,438.19 750.76,438.19 751.34,438.19 751.91,438.19 752.48,438.19 753.06,420.47 753.63,420.47 754.21,420.47 754.78,420.47 755.36,420.47 755.93,420.47 756.51,420.47 757.08,420.47 757.66,420.47 758.23,420.47 758.80,420.47 759.38,420.47 759.95,420.47 760.53,420.47 761.10,420.47 761.68,420.47 762.25,420.47 762.83,420.47 763.40,420.47 763.97,420.47 764.55,420.47 765.12,420.47 765.70,420.47 766.27,420.47 766.85,420.47 767.42,420.47 768.00,420.47 768.57,420.47 769.14,420.47 769.72,420.47 770.29,420.47 770.87,420.47 771.44,420.47 772.02,420.47 772.59,420.47 773.17,420.47 773.74,420.47 774.32,420.47 774.89,420.47 775.46,420.47 776.04,420.47 776.61,420.47 777.19,420.47 777.76,420.47 778.34,420.47 778.91,420.47 779.49,420.47 780.06,420.47 780.63,420.47 781.21,420.47 781.78,420.47 782.36,420.47 782.93,420.47 783.51,420.47 784.08,420.47 784.66,420.47 785.23,420.47 785.80,420.47 786.38,420.47 786.95,420.47 787.53,420.47 788.10,420.47 788.68,420.47 789.25,420.47 789.83,420.47 790.40,420.47 790.98,420.47 791.55,420.47 792.12,438.19 792.70,438.19 793.27,438.19 793.85,438.19 794.42,438.19 795.00,438.19 795.57,438.19 796.15,420.47 796.72,420.47 797.29,420.47 797.87,420.47 798.44,438.19 799.02,438.19 799.59,438.19 800.17,438.19 800.74,438.19 801.32,438.19 801.89,438.19 802.46,438.19 803.04,438.19 803.61,420.47 804.19,420.47 804.76,438.19 805.34,438.19 805.91,438.19 806.49,438.19 807.06,438.19 807.64,438.19 808.21,438.19 808.78,438.19 809.36,438.19 809.93,438.19 810.51,438.19 811.08,438.19 811.66,438.19 812.23,438.19 812.81,438.19 813.38,438.19 813.95,438.19 814.53,438.19 815.10,438.19 815.68,438.19 816.25,438.19 816.83,438.19 817.40,438.19 817.98,438.19 818.55,420.47 819.12,420.47 819.70,420.47 820.27,420.47 820.85,420.47 821.42,420.47 822.00,420.47 822.57,438.19 823.15,438.19 823.72,438.19 824.30,438.19 824.87,438.19 825.44,438.19 826.02,438.19 826.59,438.19 827.17,420.47 827.74,420.47 828.32,420.47 828.89,420.47 829.47,420.47 830.04,420.47 830.61,420.47 831.19,420.47 831.76,420.47 832.34,420.47 832.91,420.47 833.49,420.47 834.06,420.47 834.64,420.47 835.21,420.47 835.78,420.47 836.36,420.47 836.93,420.47 837.51,420.47 838.08,420.47 838.66,420.47 839.23,420.47 839.81,420.47 840.38,438.19 840.96,420.47 841.53,438.19 842.10,438.19 842.68,438.19 843.25,438.19 843.83,438.19 844.40,438.19 844.98,438.19 845.55,438.19 846.13,438.19 846.70,438.19 847.27,438.19 847.85,438.19 848.42,438.19 849.00,438.19 849.57,438.19 850.15,438.19 850.72,438.19 851.30,438.19 851.87,438.19 852.44,438.19 853.02,438.19 853.59,438.19 854.17,438.19 854.74,438.19 855.32,438.19 855.89,438.19 856.47,438.19 857.04,438.19 857.62,438.19 858.19,438.19 858.76,438.19 859.34,420.47 859.91,420.47 860.49,420.47 861.06,420.47 861.64,420.47 862.21,420.47 862.79,438.19 863.36,438.19 863.93,438.19 864.51,438.19 865.08,438.19 865.66,438.19 866.23,438.19 866.81,420.47 867.38,420.47 867.96,420.47 868.53,420.47 869.10,420.47 869.68,420.47 870.25,420.47 870.83,420.47 871.40,420.47 871.98,420.47 872.55,420.47 873.13,420.47 873.70,420.47 874.28,420.47 874.85,420.47 875.42,420.47 876.00,420.47 876.57,420.47 877.15,420.47 877.72,420.47 878.30,420.47 878.87,420.47 879.45,420.47 880.02,420.47 880.59,420.47 881.17,420.47 881.74,420.47 882.32,420.47 882.89,420.47 883.47,420.47 884.04,420.47 884.62,420.47 885.19,420.47 885.76,420.47 886.34,420.47 886.91,420.47 887.49,420.47 888.06,420.47 888.64,420.47 889.21,420.47 889.79,420.47 890.36,420.47 890.94,420.47 891.51,420.47 892.08,420.47 892.66,420.47 893.23,420.47 893.81,420.47 894.38,420.47 894.96,420.47 895.53,420.47 896.11,420.47 896.68,420.47 897.25,420.47 897.83,420.47 898.40,420.47 898.98,420.47 899.55,420.47 900.13,420.47 900.70,420.47 901.28,420.47 901.85,420.47 902.42,420.47 903.00,420.47 903.57,420.47 904.15,420.47 904.72,420.47 905.30,420.47 905.87,420.47 906.45,420.47 907.02,420.47 907.60,420.47 908.17,420.47 908.74,420.47 909.32,420.47 909.89,420.47 910.47,420.47 911.04,420.47 911.62,420.47 912.19,420.47 912.77,420.47 913.34,420.47 913.91,420.47 914.49,420.47 915.06,420.47 915.64,420.47 916.21,420.47 916.79,438.19 917.36,438.19 917.94,438.19 918.51,438.19 919.08,438.19 919.66,420.47 920.23,420.47 920.81,420.47 921.38,420.47 921.96,420.47 922.53,420.47 923.11,420.47 923.68,420.47 924.26,420.47 924.83,420.47 925.40,420.47 925.98,420.47 926.55,420.47 927.13,420.47 927.70,420.47 928.28,420.47 928.85,420.47 929.43,420.47 930.00,420.47" />
  <polyline fill="none" stroke="#dc2626" stroke-width="3" points="70.00,204.54 70.57,294.24 71.15,354.03 71.72,354.03 72.30,354.03 72.87,294.24 73.45,294.24 74.02,204.54 74.60,204.54 75.17,294.24 75.74,354.03 76.32,354.03 76.89,354.03 77.47,354.03 78.04,354.03 78.62,354.03 79.19,354.03 79.77,354.03 80.34,354.03 80.92,354.03 81.49,354.03 82.06,354.03 82.64,354.03 83.21,354.03 83.79,354.03 84.36,354.03 84.94,354.03 85.51,354.03 86.09,354.03 86.66,393.90 87.23,393.90 87.81,393.90 88.38,393.90 88.96,420.47 89.53,438.19 90.11,438.19 90.68,438.19 91.26,438.19 91.83,420.47 92.40,420.47 92.98,420.47 93.55,420.47 94.13,420.47 94.70,420.47 95.28,420.47 95.85,420.47 96.43,420.47 97.00,420.47 97.58,420.47 98.15,420.47 98.72,420.47 99.30,420.47 99.87,420.47 100.45,420.47 101.02,420.47 101.60,438.19 102.17,438.19 102.75,438.19 103.32,438.19 103.89,438.19 104.47,438.19 105.04,438.19 105.62,438.19 106.19,438.19 106.77,438.19 107.34,438.19 107.92,438.19 108.49,438.19 109.06,438.19 109.64,438.19 110.21,438.19 110.79,438.19 111.36,438.19 111.94,438.19 112.51,438.19 113.09,438.19 113.66,438.19 114.24,438.19 114.81,438.19 115.38,438.19 115.96,438.19 116.53,438.19 117.11,438.19 117.68,438.19 118.26,438.19 118.83,438.19 119.41,438.19 119.98,438.19 120.55,438.19 121.13,438.19 121.70,438.19 122.28,438.19 122.85,438.19 123.43,438.19 124.00,438.19 124.58,438.19 125.15,438.19 125.72,438.19 126.30,438.19 126.87,420.47 127.45,420.47 128.02,438.19 128.60,438.19 129.17,438.19 129.75,438.19 130.32,438.19 130.90,438.19 131.47,438.19 132.04,438.19 132.62,438.19 133.19,438.19 133.77,438.19 134.34,438.19 134.92,438.19 135.49,438.19 136.07,438.19 136.64,438.19 137.21,438.19 137.79,438.19 138.36,438.19 138.94,438.19 139.51,438.19 140.09,438.19 140.66,438.19 141.24,438.19 141.81,438.19 142.38,438.19 142.96,438.19 143.53,438.19 144.11,438.19 144.68,438.19 145.26,438.19 145.83,438.19 146.41,438.19 146.98,438.19 147.56,438.19 148.13,438.19 148.70,438.19 149.28,438.19 149.85,438.19 150.43,438.19 151.00,438.19 151.58,438.19 152.15,438.19 152.73,438.19 153.30,450.00 153.87,450.00 154.45,450.00 155.02,450.00 155.60,450.00 156.17,450.00 156.75,450.00 157.32,450.00 157.90,438.19 158.47,438.19 159.04,438.19 159.62,438.19 160.19,438.19 160.77,450.00 161.34,438.19 161.92,438.19 162.49,438.19 163.07,438.19 163.64,438.19 164.22,438.19 164.79,438.19 165.36,438.19 165.94,438.19 166.51,438.19 167.09,450.00 167.66,450.00 168.24,450.00 168.81,450.00 169.39,450.00 169.96,438.19 170.53,438.19 171.11,438.19 171.68,438.19 172.26,438.19 172.83,438.19 173.41,438.19 173.98,438.19 174.56,438.19 175.13,438.19 175.70,438.19 176.28,438.19 176.85,438.19 177.43,438.19 178.00,438.19 178.58,438.19 179.15,438.19 179.73,438.19 180.30,438.19 180.88,438.19 181.45,438.19 182.02,438.19 182.60,438.19 183.17,438.19 183.75,438.19 184.32,438.19 184.90,438.19 185.47,438.19 186.05,438.19 186.62,438.19 187.19,438.19 187.77,438.19 188.34,438.19 188.92,438.19 189.49,438.19 190.07,438.19 190.64,438.19 191.22,438.19 191.79,438.19 192.36,438.19 192.94,438.19 193.51,438.19 194.09,438.19 194.66,438.19 195.24,450.00 195.81,450.00 196.39,450.00 196.96,450.00 197.54,450.00 198.11,450.00 198.68,450.00 199.26,450.00 199.83,450.00 200.41,438.19 200.98,438.19 201.56,438.19 202.13,438.19 202.71,438.19 203.28,438.19 203.85,438.19 204.43,438.19 205.00,438.19 205.58,438.19 206.15,438.19 206.73,438.19 207.30,438.19 207.88,438.19 208.45,438.19 209.02,450.00 209.60,450.00 210.17,450.00 210.75,450.00 211.32,450.00 211.90,450.00 212.47,450.00 213.05,450.00 213.62,450.00 214.20,438.19 214.77,438.19 215.34,438.19 215.92,438.19 216.49,438.19 217.07,438.19 217.64,438.19 218.22,438.19 218.79,438.19 219.37,438.19 219.94,438.19 220.51,438.19 221.09,438.19 221.66,438.19 222.24,438.19 222.81,438.19 223.39,438.19 223.96,438.19 224.54,450.00 225.11,450.00 225.68,450.00 226.26,450.00 226.83,450.00 227.41,450.00 227.98,450.00 228.56,450.00 229.13,450.00 229.71,450.00 230.28,450.00 230.86,450.00 231.43,450.00 232.00,450.00 232.58,450.00 233.15,450.00 233.73,450.00 234.30,450.00 234.88,450.00 235.45,450.00 236.03,450.00 236.60,450.00 237.17,450.00 237.75,450.00 238.32,450.00 238.90,450.00 239.47,450.00 240.05,450.00 240.62,450.00 241.20,450.00 241.77,450.00 242.34,450.00 242.92,450.00 243.49,450.00 244.07,450.00 244.64,450.00 245.22,450.00 245.79,450.00 246.37,450.00 246.94,450.00 247.52,450.00 248.09,438.19 248.66,438.19 249.24,438.19 249.81,450.00 250.39,450.00 250.96,450.00 251.54,450.00 252.11,450.00 252.69,450.00 253.26,450.00 253.83,450.00 254.41,450.00 254.98,450.00 255.56,450.00 256.13,450.00 256.71,450.00 257.28,450.00 257.86,450.00 258.43,450.00 259.00,450.00 259.58,450.00 260.15,450.00 260.73,450.00 261.30,450.00 261.88,450.00 262.45,450.00 263.03,450.00 263.60,450.00 264.18,450.00 264.75,450.00 265.32,450.00 265.90,450.00 266.47,450.00 267.05,450.00 267.62,450.00 268.20,450.00 268.77,450.00 269.35,450.00 269.92,450.00 270.49,450.00 271.07,450.00 271.64,450.00 272.22,450.00 272.79,450.00 273.37,450.00 273.94,450.00 274.52,450.00 275.09,450.00 275.66,450.00 276.24,450.00 276.81,450.00 277.39,450.00 277.96,450.00 278.54,450.00 279.11,450.00 279.69,450.00 280.26,450.00 280.84,450.00 281.41,450.00 281.98,450.00 282.56,450.00 283.13,450.00 283.71,450.00 284.28,450.00 284.86,450.00 285.43,450.00 286.01,450.00 286.58,450.00 287.15,450.00 287.73,450.00 288.30,450.00 288.88,450.00 289.45,450.00 290.03,450.00 290.60,450.00 291.18,450.00 291.75,450.00 292.32,450.00 292.90,450.00 293.47,450.00 294.05,450.00 294.62,450.00 295.20,450.00 295.77,450.00 296.35,450.00 296.92,450.00 297.49,450.00 298.07,450.00 298.64,450.00 299.22,450.00 299.79,450.00 300.37,450.00 300.94,450.00 301.52,450.00 302.09,450.00 302.67,450.00 303.24,450.00 303.81,450.00 304.39,450.00 304.96,450.00 305.54,450.00 306.11,450.00 306.69,450.00 307.26,450.00 307.84,450.00 308.41,450.00 308.98,450.00 309.56,450.00 310.13,450.00 310.71,450.00 311.28,450.00 311.86,450.00 312.43,450.00 313.01,450.00 313.58,450.00 314.15,438.19 314.73,438.19 315.30,438.19 315.88,438.19 316.45,450.00 317.03,450.00 317.60,450.00 318.18,450.00 318.75,450.00 319.33,450.00 319.90,450.00 320.47,450.00 321.05,450.00 321.62,450.00 322.20,450.00 322.77,450.00 323.35,450.00 323.92,450.00 324.50,450.00 325.07,450.00 325.64,450.00 326.22,450.00 326.79,450.00 327.37,450.00 327.94,450.00 328.52,450.00 329.09,450.00 329.67,450.00 330.24,450.00 330.81,450.00 331.39,450.00 331.96,450.00 332.54,450.00 333.11,450.00 333.69,450.00 334.26,450.00 334.84,450.00 335.41,450.00 335.99,450.00 336.56,450.00 337.13,450.00 337.71,450.00 338.28,450.00 338.86,438.19 339.43,438.19 340.01,438.19 340.58,438.19 341.16,438.19 341.73,438.19 342.30,438.19 342.88,438.19 343.45,438.19 344.03,438.19 344.60,438.19 345.18,450.00 345.75,450.00 346.33,450.00 346.90,450.00 347.47,450.00 348.05,450.00 348.62,450.00 349.20,450.00 349.77,450.00 350.35,450.00 350.92,450.00 351.50,438.19 352.07,438.19 352.65,438.19 353.22,438.19 353.79,438.19 354.37,438.19 354.94,438.19 355.52,438.19 356.09,438.19 356.67,438.19 357.24,438.19 357.82,438.19 358.39,438.19 358.96,438.19 359.54,438.19 360.11,438.19 360.69,438.19 361.26,438.19 361.84,438.19 362.41,438.19 362.99,438.19 363.56,438.19 364.13,438.19 364.71,450.00 365.28,450.00 365.86,450.00 366.43,450.00 367.01,450.00 367.58,450.00 368.16,450.00 368.73,450.00 369.31,450.00 369.88,450.00 370.45,450.00 371.03,450.00 371.60,450.00 372.18,450.00 372.75,450.00 373.33,450.00 373.90,450.00 374.48,450.00 375.05,450.00 375.62,450.00 376.20,450.00 376.77,450.00 377.35,450.00 377.92,450.00 378.50,450.00 379.07,450.00 379.65,450.00 380.22,450.00 380.79,450.00 381.37,450.00 381.94,450.00 382.52,450.00 383.09,450.00 383.67,450.00 384.24,450.00 384.82,450.00 385.39,450.00 385.97,450.00 386.54,450.00 387.11,450.00 387.69,450.00 388.26,450.00 388.84,450.00 389.41,450.00 389.99,450.00 390.56,450.00 391.14,450.00 391.71,450.00 392.28,450.00 392.86,450.00 393.43,450.00 394.01,450.00 394.58,450.00 395.16,450.00 395.73,450.00 396.31,450.00 396.88,450.00 397.45,450.00 398.03,450.00 398.60,450.00 399.18,450.00 399.75,450.00 400.33,450.00 400.90,450.00 401.48,450.00 402.05,450.00 402.63,450.00 403.20,450.00 403.77,450.00 404.35,450.00 404.92,450.00 405.50,450.00 406.07,450.00 406.65,438.19 407.22,438.19 407.80,438.19 408.37,438.19 408.94,438.19 409.52,438.19 410.09,438.19 410.67,438.19 411.24,438.19 411.82,438.19 412.39,438.19 412.97,438.19 413.54,438.19 414.11,438.19 414.69,438.19 415.26,438.19 415.84,438.19 416.41,438.19 416.99,438.19 417.56,438.19 418.14,438.19 418.71,438.19 419.29,438.19 419.86,438.19 420.43,438.19 421.01,450.00 421.58,450.00 422.16,450.00 422.73,450.00 423.31,450.00 423.88,438.19 424.46,438.19 425.03,438.19 425.60,438.19 426.18,438.19 426.75,438.19 427.33,438.19 427.90,450.00 428.48,450.00 429.05,450.00 429.63,450.00 430.20,450.00 430.77,450.00 431.35,450.00 431.92,450.00 432.50,450.00 433.07,450.00 433.65,450.00 434.22,450.00 434.80,450.00 435.37,450.00 435.95,450.00 436.52,450.00 437.09,450.00 437.67,450.00 438.24,450.00 438.82,450.00 439.39,450.00 439.97,450.00 440.54,450.00 441.12,450.00 441.69,438.19 442.26,438.19 442.84,438.19 443.41,438.19 443.99,438.19 444.56,438.19 445.14,438.19 445.71,438.19 446.29,438.19 446.86,438.19 447.43,438.19 448.01,438.19 448.58,438.19 449.16,438.19 449.73,438.19 450.31,450.00 450.88,450.00 451.46,450.00 452.03,450.00 452.61,438.19 453.18,438.19 453.75,438.19 454.33,438.19 454.90,438.19 455.48,438.19 456.05,438.19 456.63,438.19 457.20,438.19 457.78,438.19 458.35,438.19 458.92,438.19 459.50,438.19 460.07,438.19 460.65,438.19 461.22,450.00 461.80,450.00 462.37,450.00 462.95,450.00 463.52,450.00 464.09,450.00 464.67,438.19 465.24,438.19 465.82,438.19 466.39,438.19 466.97,438.19 467.54,438.19 468.12,438.19 468.69,438.19 469.27,438.19 469.84,438.19 470.41,438.19 470.99,438.19 471.56,438.19 472.14,438.19 472.71,438.19 473.29,438.19 473.86,438.19 474.44,438.19 475.01,438.19 475.58,438.19 476.16,450.00 476.73,450.00 477.31,450.00 477.88,450.00 478.46,450.00 479.03,450.00 479.61,450.00 480.18,450.00 480.75,438.19 481.33,438.19 481.90,438.19 482.48,438.19 483.05,438.19 483.63,438.19 484.20,438.19 484.78,438.19 485.35,438.19 485.93,438.19 486.50,438.19 487.07,438.19 487.65,450.00 488.22,450.00 488.80,450.00 489.37,450.00 489.95,450.00 490.52,450.00 491.10,450.00 491.67,450.00 492.24,450.00 492.82,450.00 493.39,450.00 493.97,450.00 494.54,450.00 495.12,450.00 495.69,450.00 496.27,450.00 496.84,438.19 497.41,438.19 497.99,438.19 498.56,438.19 499.14,438.19 499.71,438.19 500.29,438.19 500.86,438.19 501.44,438.19 502.01,438.19 502.59,438.19 503.16,438.19 503.73,438.19 504.31,438.19 504.88,438.19 505.46,438.19 506.03,438.19 506.61,438.19 507.18,450.00 507.76,450.00 508.33,450.00 508.90,450.00 509.48,450.00 510.05,450.00 510.63,450.00 511.20,450.00 511.78,450.00 512.35,450.00 512.93,450.00 513.50,450.00 514.07,450.00 514.65,450.00 515.22,450.00 515.80,450.00 516.37,450.00 516.95,450.00 517.52,450.00 518.10,450.00 518.67,450.00 519.25,450.00 519.82,450.00 520.39,450.00 520.97,450.00 521.54,450.00 522.12,450.00 522.69,450.00 523.27,450.00 523.84,450.00 524.42,438.19 524.99,438.19 525.56,438.19 526.14,438.19 526.71,450.00 527.29,438.19 527.86,450.00 528.44,450.00 529.01,450.00 529.59,450.00 530.16,450.00 530.73,450.00 531.31,438.19 531.88,438.19 532.46,438.19 533.03,438.19 533.61,438.19 534.18,450.00 534.76,450.00 535.33,450.00 535.91,450.00 536.48,450.00 537.05,450.00 537.63,450.00 538.20,450.00 538.78,450.00 539.35,450.00 539.93,450.00 540.50,450.00 541.08,450.00 541.65,450.00 542.22,450.00 542.80,450.00 543.37,450.00 543.95,450.00 544.52,450.00 545.10,450.00 545.67,450.00 546.25,450.00 546.82,450.00 547.39,450.00 547.97,450.00 548.54,450.00 549.12,450.00 549.69,450.00 550.27,450.00 550.84,450.00 551.42,450.00 551.99,450.00 552.57,450.00 553.14,450.00 553.71,450.00 554.29,450.00 554.86,438.19 555.44,450.00 556.01,450.00 556.59,450.00 557.16,450.00 557.74,450.00 558.31,450.00 558.88,450.00 559.46,450.00 560.03,450.00 560.61,450.00 561.18,450.00 561.76,450.00 562.33,450.00 562.91,450.00 563.48,450.00 564.05,450.00 564.63,450.00 565.20,450.00 565.78,450.00 566.35,450.00 566.93,450.00 567.50,450.00 568.08,450.00 568.65,450.00 569.23,450.00 569.80,450.00 570.37,450.00 570.95,438.19 571.52,438.19 572.10,438.19 572.67,438.19 573.25,438.19 573.82,438.19 574.40,450.00 574.97,450.00 575.54,450.00 576.12,450.00 576.69,450.00 577.27,438.19 577.84,438.19 578.42,438.19 578.99,438.19 579.57,438.19 580.14,438.19 580.71,438.19 581.29,438.19 581.86,438.19 582.44,438.19 583.01,438.19 583.59,438.19 584.16,438.19 584.74,438.19 585.31,438.19 585.89,438.19 586.46,438.19 587.03,438.19 587.61,438.19 588.18,438.19 588.76,438.19 589.33,438.19 589.91,438.19 590.48,438.19 591.06,438.19 591.63,438.19 592.20,438.19 592.78,438.19 593.35,438.19 593.93,438.19 594.50,438.19 595.08,438.19 595.65,438.19 596.23,438.19 596.80,438.19 597.37,438.19 597.95,438.19 598.52,438.19 599.10,438.19 599.67,438.19 600.25,438.19 600.82,438.19 601.40,438.19 601.97,438.19 602.55,438.19 603.12,438.19 603.69,438.19 604.27,438.19 604.84,438.19 605.42,438.19 605.99,438.19 606.57,438.19 607.14,438.19 607.72,438.19 608.29,438.19 608.86,438.19 609.44,438.19 610.01,438.19 610.59,438.19 611.16,438.19 611.74,438.19 612.31,438.19 612.89,438.19 613.46,438.19 614.03,438.19 614.61,438.19 615.18,438.19 615.76,438.19 616.33,438.19 616.91,438.19 617.48,438.19 618.06,438.19 618.63,438.19 619.21,438.19 619.78,438.19 620.35,438.19 620.93,438.19 621.50,438.19 622.08,438.19 622.65,450.00 623.23,450.00 623.80,450.00 624.38,450.00 624.95,450.00 625.52,450.00 626.10,450.00 626.67,450.00 627.25,450.00 627.82,450.00 628.40,450.00 628.97,438.19 629.55,438.19 630.12,438.19 630.69,438.19 631.27,438.19 631.84,438.19 632.42,438.19 632.99,438.19 633.57,438.19 634.14,438.19 634.72,438.19 635.29,438.19 635.87,438.19 636.44,438.19 637.01,438.19 637.59,438.19 638.16,438.19 638.74,438.19 639.31,438.19 639.89,438.19 640.46,438.19 641.04,438.19 641.61,438.19 642.18,438.19 642.76,438.19 643.33,438.19 643.91,438.19 644.48,438.19 645.06,438.19 645.63,438.19 646.21,438.19 646.78,438.19 647.35,438.19 647.93,438.19 648.50,450.00 649.08,450.00 649.65,450.00 650.23,450.00 650.80,450.00 651.38,450.00 651.95,450.00 652.53,450.00 653.10,450.00 653.67,450.00 654.25,450.00 654.82,450.00 655.40,450.00 655.97,450.00 656.55,450.00 657.12,450.00 657.70,450.00 658.27,450.00 658.84,450.00 659.42,450.00 659.99,450.00 660.57,450.00 661.14,450.00 661.72,450.00 662.29,450.00 662.87,450.00 663.44,450.00 664.01,450.00 664.59,450.00 665.16,450.00 665.74,450.00 666.31,450.00 666.89,450.00 667.46,450.00 668.04,450.00 668.61,450.00 669.19,450.00 669.76,450.00 670.33,450.00 670.91,450.00 671.48,438.19 672.06,438.19 672.63,438.19 673.21,438.19 673.78,438.19 674.36,438.19 674.93,438.19 675.50,438.19 676.08,438.19 676.65,438.19 677.23,450.00 677.80,450.00 678.38,450.00 678.95,450.00 679.53,450.00 680.10,438.19 680.67,438.19 681.25,438.19 681.82,438.19 682.40,438.19 682.97,450.00 683.55,450.00 684.12,450.00 684.70,450.00 685.27,450.00 685.85,438.19 686.42,438.19 686.99,438.19 687.57,438.19 688.14,438.19 688.72,438.19 689.29,438.19 689.87,450.00 690.44,450.00 691.02,450.00 691.59,450.00 692.16,450.00 692.74,450.00 693.31,450.00 693.89,450.00 694.46,450.00 695.04,450.00 695.61,450.00 696.19,450.00 696.76,450.00 697.33,438.19 697.91,438.19 698.48,438.19 699.06,438.19 699.63,438.19 700.21,438.19 700.78,438.19 701.36,438.19 701.93,438.19 702.51,438.19 703.08,438.19 703.65,450.00 704.23,450.00 704.80,438.19 705.38,438.19 705.95,438.19 706.53,438.19 707.10,438.19 707.68,438.19 708.25,438.19 708.82,438.19 709.40,438.19 709.97,438.19 710.55,438.19 711.12,438.19 711.70,450.00 712.27,450.00 712.85,450.00 713.42,450.00 713.99,450.00 714.57,450.00 715.14,450.00 715.72,450.00 716.29,450.00 716.87,450.00 717.44,450.00 718.02,438.19 718.59,438.19 719.16,438.19 719.74,438.19 720.31,438.19 720.89,438.19 721.46,438.19 722.04,438.19 722.61,450.00 723.19,450.00 723.76,450.00 724.34,450.00 724.91,450.00 725.48,438.19 726.06,438.19 726.63,438.19 727.21,438.19 727.78,438.19 728.36,438.19 728.93,450.00 729.51,450.00 730.08,450.00 730.65,450.00 731.23,438.19 731.80,438.19 732.38,450.00 732.95,450.00 733.53,450.00 734.10,450.00 734.68,450.00 735.25,438.19 735.82,438.19 736.40,438.19 736.97,438.19 737.55,438.19 738.12,438.19 738.70,438.19 739.27,438.19 739.85,438.19 740.42,438.19 741.00,438.19 741.57,438.19 742.14,438.19 742.72,438.19 743.29,438.19 743.87,438.19 744.44,438.19 745.02,438.19 745.59,438.19 746.17,438.19 746.74,438.19 747.31,438.19 747.89,438.19 748.46,438.19 749.04,438.19 749.61,438.19 750.19,438.19 750.76,438.19 751.34,438.19 751.91,438.19 752.48,438.19 753.06,438.19 753.63,438.19 754.21,438.19 754.78,438.19 755.36,438.19 755.93,438.19 756.51,438.19 757.08,438.19 757.66,438.19 758.23,438.19 758.80,438.19 759.38,438.19 759.95,438.19 760.53,438.19 761.10,438.19 761.68,438.19 762.25,438.19 762.83,438.19 763.40,438.19 763.97,438.19 764.55,438.19 765.12,438.19 765.70,450.00 766.27,450.00 766.85,450.00 767.42,450.00 768.00,438.19 768.57,438.19 769.14,438.19 769.72,438.19 770.29,438.19 770.87,438.19 771.44,438.19 772.02,438.19 772.59,438.19 773.17,438.19 773.74,438.19 774.32,438.19 774.89,438.19 775.46,438.19 776.04,438.19 776.61,438.19 777.19,438.19 777.76,438.19 778.34,438.19 778.91,438.19 779.49,438.19 780.06,438.19 780.63,438.19 781.21,438.19 781.78,438.19 782.36,438.19 782.93,438.19 783.51,438.19 784.08,438.19 784.66,438.19 785.23,438.19 785.80,438.19 786.38,450.00 786.95,450.00 787.53,450.00 788.10,438.19 788.68,438.19 789.25,438.19 789.83,438.19 790.40,438.19 790.98,438.19 791.55,438.19 792.12,438.19 792.70,438.19 793.27,450.00 793.85,450.00 794.42,450.00 795.00,450.00 795.57,450.00 796.15,438.19 796.72,438.19 797.29,438.19 797.87,438.19 798.44,438.19 799.02,438.19 799.59,438.19 800.17,438.19 800.74,438.19 801.32,438.19 801.89,438.19 802.46,438.19 803.04,450.00 803.61,450.00 804.19,450.00 804.76,450.00 805.34,450.00 805.91,450.00 806.49,438.19 807.06,438.19 807.64,438.19 808.21,438.19 808.78,438.19 809.36,438.19 809.93,438.19 810.51,438.19 811.08,438.19 811.66,438.19 812.23,450.00 812.81,450.00 813.38,450.00 813.95,450.00 814.53,450.00 815.10,450.00 815.68,438.19 816.25,438.19 816.83,438.19 817.40,438.19 817.98,438.19 818.55,438.19 819.12,438.19 819.70,438.19 820.27,438.19 820.85,438.19 821.42,438.19 822.00,438.19 822.57,438.19 823.15,438.19 823.72,438.19 824.30,438.19 824.87,438.19 825.44,438.19 826.02,438.19 826.59,450.00 827.17,450.00 827.74,450.00 828.32,438.19 828.89,438.19 829.47,438.19 830.04,438.19 830.61,438.19 831.19,438.19 831.76,438.19 832.34,438.19 832.91,438.19 833.49,438.19 834.06,438.19 834.64,438.19 835.21,438.19 835.78,438.19 836.36,438.19 836.93,438.19 837.51,438.19 838.08,438.19 838.66,438.19 839.23,438.19 839.81,438.19 840.38,438.19 840.96,438.19 841.53,438.19 842.10,438.19 842.68,438.19 843.25,438.19 843.83,438.19 844.40,438.19 844.98,438.19 845.55,438.19 846.13,438.19 846.70,438.19 847.27,438.19 847.85,438.19 848.42,450.00 849.00,450.00 849.57,450.00 850.15,450.00 850.72,450.00 851.30,438.19 851.87,438.19 852.44,438.19 853.02,438.19 853.59,438.19 854.17,438.19 854.74,438.19 855.32,438.19 855.89,450.00 856.47,450.00 857.04,450.00 857.62,450.00 858.19,450.00 858.76,450.00 859.34,450.00 859.91,450.00 860.49,450.00 861.06,450.00 861.64,450.00 862.21,450.00 862.79,450.00 863.36,450.00 863.93,438.19 864.51,438.19 865.08,438.19 865.66,438.19 866.23,438.19 866.81,438.19 867.38,438.19 867.96,438.19 868.53,438.19 869.10,438.19 869.68,438.19 870.25,438.19 870.83,438.19 871.40,438.19 871.98,438.19 872.55,438.19 873.13,438.19 873.70,438.19 874.28,438.19 874.85,438.19 875.42,438.19 876.00,438.19 876.57,438.19 877.15,438.19 877.72,438.19 878.30,438.19 878.87,438.19 879.45,438.19 880.02,438.19 880.59,438.19 881.17,438.19 881.74,438.19 882.32,438.19 882.89,438.19 883.47,438.19 884.04,438.19 884.62,438.19 885.19,438.19 885.76,438.19 886.34,438.19 886.91,438.19 887.49,438.19 888.06,438.19 888.64,438.19 889.21,438.19 889.79,438.19 890.36,438.19 890.94,438.19 891.51,438.19 892.08,438.19 892.66,438.19 893.23,438.19 893.81,438.19 894.38,438.19 894.96,438.19 895.53,438.19 896.11,438.19 896.68,438.19 897.25,438.19 897.83,438.19 898.40,438.19 898.98,438.19 899.55,438.19 900.13,438.19 900.70,438.19 901.28,438.19 901.85,438.19 902.42,438.19 903.00,438.19 903.57,450.00 904.15,450.00 904.72,450.00 905.30,450.00 905.87,450.00 906.45,450.00 907.02,450.00 907.60,450.00 908.17,450.00 908.74,450.00 909.32,450.00 909.89,450.00 910.47,450.00 911.04,450.00 911.62,450.00 912.19,450.00 912.77,438.19 913.34,438.19 913.91,438.19 914.49,438.19 915.06,438.19 915.64,438.19 916.21,438.19 916.79,438.19 917.36,438.19 917.94,438.19 918.51,420.47 919.08,438.19 919.66,438.19 920.23,438.19 920.81,438.19 921.38,438.19 921.96,438.19 922.53,438.19 923.11,438.19 923.68,438.19 924.26,438.19 924.83,438.19 925.40,438.19 925.98,438.19 926.55,438.19 927.13,438.19 927.70,438.19 928.28,438.19 928.85,438.19 929.43,438.19 930.00,438.19" />
  <polyline fill="none" stroke="#16a34a" stroke-width="3" points="70.00,294.24 70.57,354.03 71.15,393.90 71.72,354.03 72.30,354.03 72.87,294.24 73.45,294.24 74.02,354.03 74.60,354.03 75.17,354.03 75.74,393.90 76.32,393.90 76.89,393.90 77.47,393.90 78.04,393.90 78.62,393.90 79.19,393.90 79.77,393.90 80.34,393.90 80.92,393.90 81.49,393.90 82.06,393.90 82.64,393.90 83.21,393.90 83.79,393.90 84.36,393.90 84.94,393.90 85.51,393.90 86.09,393.90 86.66,420.47 87.23,420.47 87.81,420.47 88.38,420.47 88.96,420.47 89.53,420.47 90.11,438.19 90.68,420.47 91.26,420.47 91.83,420.47 92.40,420.47 92.98,420.47 93.55,420.47 94.13,420.47 94.70,420.47 95.28,420.47 95.85,420.47 96.43,420.47 97.00,420.47 97.58,420.47 98.15,420.47 98.72,420.47 99.30,420.47 99.87,438.19 100.45,450.00 101.02,438.19 101.60,438.19 102.17,438.19 102.75,438.19 103.32,438.19 103.89,438.19 104.47,438.19 105.04,438.19 105.62,438.19 106.19,438.19 106.77,438.19 107.34,438.19 107.92,438.19 108.49,438.19 109.06,438.19 109.64,438.19 110.21,438.19 110.79,438.19 111.36,438.19 111.94,438.19 112.51,438.19 113.09,438.19 113.66,438.19 114.24,438.19 114.81,438.19 115.38,438.19 115.96,438.19 116.53,450.00 117.11,450.00 117.68,450.00 118.26,450.00 118.83,450.00 119.41,450.00 119.98,450.00 120.55,450.00 121.13,450.00 121.70,450.00 122.28,450.00 122.85,450.00 123.43,450.00 124.00,450.00 124.58,450.00 125.15,450.00 125.72,450.00 126.30,450.00 126.87,450.00 127.45,450.00 128.02,450.00 128.60,450.00 129.17,450.00 129.75,450.00 130.32,450.00 130.90,450.00 131.47,450.00 132.04,450.00 132.62,450.00 133.19,450.00 133.77,450.00 134.34,450.00 134.92,450.00 135.49,450.00 136.07,450.00 136.64,450.00 137.21,450.00 137.79,450.00 138.36,450.00 138.94,450.00 139.51,450.00 140.09,450.00 140.66,450.00 141.24,450.00 141.81,450.00 142.38,450.00 142.96,450.00 143.53,450.00 144.11,450.00 144.68,450.00 145.26,450.00 145.83,450.00 146.41,450.00 146.98,450.00 147.56,450.00 148.13,450.00 148.70,450.00 149.28,450.00 149.85,450.00 150.43,450.00 151.00,450.00 151.58,450.00 152.15,450.00 152.73,450.00 153.30,450.00 153.87,450.00 154.45,450.00 155.02,450.00 155.60,450.00 156.17,450.00 156.75,450.00 157.32,450.00 157.90,450.00 158.47,450.00 159.04,450.00 159.62,450.00 160.19,450.00 160.77,450.00 161.34,450.00 161.92,450.00 162.49,450.00 163.07,450.00 163.64,450.00 164.22,450.00 164.79,450.00 165.36,450.00 165.94,450.00 166.51,450.00 167.09,450.00 167.66,450.00 168.24,450.00 168.81,450.00 169.39,450.00 169.96,450.00 170.53,450.00 171.11,450.00 171.68,450.00 172.26,450.00 172.83,450.00 173.41,450.00 173.98,450.00 174.56,450.00 175.13,450.00 175.70,450.00 176.28,450.00 176.85,450.00 177.43,450.00 178.00,450.00 178.58,450.00 179.15,450.00 179.73,450.00 180.30,450.00 180.88,450.00 181.45,450.00 182.02,450.00 182.60,450.00 183.17,450.00 183.75,450.00 184.32,450.00 184.90,450.00 185.47,450.00 186.05,450.00 186.62,450.00 187.19,450.00 187.77,450.00 188.34,450.00 188.92,450.00 189.49,450.00 190.07,450.00 190.64,450.00 191.22,450.00 191.79,450.00 192.36,450.00 192.94,450.00 193.51,450.00 194.09,450.00 194.66,450.00 195.24,450.00 195.81,450.00 196.39,450.00 196.96,450.00 197.54,450.00 198.11,450.00 198.68,450.00 199.26,450.00 199.83,450.00 200.41,450.00 200.98,450.00 201.56,450.00 202.13,450.00 202.71,450.00 203.28,450.00 203.85,450.00 204.43,450.00 205.00,450.00 205.58,450.00 206.15,450.00 206.73,450.00 207.30,450.00 207.88,450.00 208.45,450.00 209.02,450.00 209.60,450.00 210.17,450.00 210.75,450.00 211.32,450.00 211.90,450.00 212.47,450.00 213.05,450.00 213.62,450.00 214.20,450.00 214.77,450.00 215.34,450.00 215.92,450.00 216.49,450.00 217.07,450.00 217.64,450.00 218.22,450.00 218.79,450.00 219.37,450.00 219.94,450.00 220.51,450.00 221.09,450.00 221.66,450.00 222.24,450.00 222.81,450.00 223.39,450.00 223.96,450.00 224.54,450.00 225.11,450.00 225.68,450.00 226.26,450.00 226.83,450.00 227.41,450.00 227.98,450.00 228.56,450.00 229.13,450.00 229.71,450.00 230.28,450.00 230.86,450.00 231.43,450.00 232.00,450.00 232.58,450.00 233.15,450.00 233.73,450.00 234.30,450.00 234.88,450.00 235.45,450.00 236.03,450.00 236.60,450.00 237.17,450.00 237.75,450.00 238.32,450.00 238.90,450.00 239.47,450.00 240.05,450.00 240.62,450.00 241.20,450.00 241.77,450.00 242.34,450.00 242.92,450.00 243.49,450.00 244.07,450.00 244.64,450.00 245.22,450.00 245.79,450.00 246.37,450.00 246.94,450.00 247.52,438.19 248.09,438.19 248.66,438.19 249.24,450.00 249.81,450.00 250.39,450.00 250.96,450.00 251.54,450.00 252.11,450.00 252.69,450.00 253.26,450.00 253.83,450.00 254.41,450.00 254.98,450.00 255.56,450.00 256.13,450.00 256.71,450.00 257.28,450.00 257.86,450.00 258.43,450.00 259.00,450.00 259.58,450.00 260.15,450.00 260.73,450.00 261.30,450.00 261.88,450.00 262.45,450.00 263.03,450.00 263.60,450.00 264.18,450.00 264.75,450.00 265.32,450.00 265.90,450.00 266.47,450.00 267.05,450.00 267.62,450.00 268.20,450.00 268.77,450.00 269.35,450.00 269.92,450.00 270.49,450.00 271.07,450.00 271.64,450.00 272.22,450.00 272.79,450.00 273.37,450.00 273.94,450.00 274.52,450.00 275.09,450.00 275.66,450.00 276.24,450.00 276.81,450.00 277.39,450.00 277.96,450.00 278.54,450.00 279.11,450.00 279.69,450.00 280.26,450.00 280.84,450.00 281.41,450.00 281.98,450.00 282.56,450.00 283.13,450.00 283.71,450.00 284.28,450.00 284.86,450.00 285.43,450.00 286.01,450.00 286.58,450.00 287.15,450.00 287.73,450.00 288.30,450.00 288.88,450.00 289.45,450.00 290.03,450.00 290.60,450.00 291.18,450.00 291.75,450.00 292.32,450.00 292.90,450.00 293.47,450.00 294.05,450.00 294.62,450.00 295.20,450.00 295.77,450.00 296.35,450.00 296.92,450.00 297.49,450.00 298.07,450.00 298.64,450.00 299.22,450.00 299.79,450.00 300.37,450.00 300.94,450.00 301.52,450.00 302.09,450.00 302.67,450.00 303.24,450.00 303.81,450.00 304.39,450.00 304.96,450.00 305.54,450.00 306.11,450.00 306.69,450.00 307.26,450.00 307.84,450.00 308.41,450.00 308.98,450.00 309.56,450.00 310.13,450.00 310.71,450.00 311.28,450.00 311.86,450.00 312.43,450.00 313.01,450.00 313.58,450.00 314.15,450.00 314.73,450.00 315.30,450.00 315.88,450.00 316.45,450.00 317.03,450.00 317.60,450.00 318.18,450.00 318.75,450.00 319.33,450.00 319.90,450.00 320.47,450.00 321.05,450.00 321.62,450.00 322.20,450.00 322.77,450.00 323.35,450.00 323.92,450.00 324.50,450.00 325.07,450.00 325.64,450.00 326.22,450.00 326.79,450.00 327.37,450.00 327.94,450.00 328.52,450.00 329.09,450.00 329.67,450.00 330.24,450.00 330.81,450.00 331.39,450.00 331.96,450.00 332.54,450.00 333.11,450.00 333.69,450.00 334.26,450.00 334.84,450.00 335.41,450.00 335.99,450.00 336.56,450.00 337.13,450.00 337.71,450.00 338.28,450.00 338.86,450.00 339.43,450.00 340.01,450.00 340.58,450.00 341.16,450.00 341.73,450.00 342.30,450.00 342.88,450.00 343.45,450.00 344.03,450.00 344.60,450.00 345.18,450.00 345.75,450.00 346.33,450.00 346.90,450.00 347.47,450.00 348.05,450.00 348.62,450.00 349.20,450.00 349.77,450.00 350.35,450.00 350.92,450.00 351.50,450.00 352.07,450.00 352.65,450.00 353.22,450.00 353.79,450.00 354.37,450.00 354.94,450.00 355.52,450.00 356.09,450.00 356.67,450.00 357.24,450.00 357.82,450.00 358.39,450.00 358.96,450.00 359.54,450.00 360.11,450.00 360.69,450.00 361.26,450.00 361.84,450.00 362.41,450.00 362.99,450.00 363.56,450.00 364.13,450.00 364.71,450.00 365.28,450.00 365.86,450.00 366.43,450.00 367.01,450.00 367.58,450.00 368.16,450.00 368.73,450.00 369.31,450.00 369.88,450.00 370.45,450.00 371.03,450.00 371.60,450.00 372.18,450.00 372.75,450.00 373.33,450.00 373.90,450.00 374.48,450.00 375.05,450.00 375.62,450.00 376.20,450.00 376.77,450.00 377.35,450.00 377.92,450.00 378.50,450.00 379.07,450.00 379.65,450.00 380.22,450.00 380.79,450.00 381.37,450.00 381.94,450.00 382.52,450.00 383.09,450.00 383.67,450.00 384.24,450.00 384.82,450.00 385.39,450.00 385.97,450.00 386.54,450.00 387.11,450.00 387.69,450.00 388.26,450.00 388.84,450.00 389.41,450.00 389.99,450.00 390.56,450.00 391.14,450.00 391.71,450.00 392.28,450.00 392.86,450.00 393.43,450.00 394.01,450.00 394.58,450.00 395.16,450.00 395.73,450.00 396.31,450.00 396.88,450.00 397.45,450.00 398.03,450.00 398.60,450.00 399.18,450.00 399.75,450.00 400.33,450.00 400.90,450.00 401.48,450.00 402.05,450.00 402.63,450.00 403.20,450.00 403.77,450.00 404.35,450.00 404.92,450.00 405.50,450.00 406.07,450.00 406.65,450.00 407.22,450.00 407.80,450.00 408.37,450.00 408.94,450.00 409.52,450.00 410.09,450.00 410.67,450.00 411.24,450.00 411.82,450.00 412.39,450.00 412.97,450.00 413.54,450.00 414.11,450.00 414.69,450.00 415.26,450.00 415.84,450.00 416.41,450.00 416.99,450.00 417.56,450.00 418.14,450.00 418.71,450.00 419.29,450.00 419.86,450.00 420.43,450.00 421.01,450.00 421.58,450.00 422.16,450.00 422.73,450.00 423.31,450.00 423.88,450.00 424.46,450.00 425.03,450.00 425.60,450.00 426.18,450.00 426.75,450.00 427.33,450.00 427.90,450.00 428.48,450.00 429.05,450.00 429.63,450.00 430.20,450.00 430.77,450.00 431.35,450.00 431.92,450.00 432.50,450.00 433.07,450.00 433.65,450.00 434.22,450.00 434.80,450.00 435.37,450.00 435.95,450.00 436.52,450.00 437.09,450.00 437.67,450.00 438.24,450.00 438.82,450.00 439.39,450.00 439.97,450.00 440.54,450.00 441.12,450.00 441.69,450.00 442.26,450.00 442.84,450.00 443.41,450.00 443.99,450.00 444.56,450.00 445.14,450.00 445.71,450.00 446.29,450.00 446.86,450.00 447.43,450.00 448.01,450.00 448.58,450.00 449.16,450.00 449.73,450.00 450.31,450.00 450.88,450.00 451.46,450.00 452.03,450.00 452.61,450.00 453.18,450.00 453.75,450.00 454.33,450.00 454.90,450.00 455.48,450.00 456.05,450.00 456.63,450.00 457.20,450.00 457.78,450.00 458.35,450.00 458.92,450.00 459.50,450.00 460.07,450.00 460.65,450.00 461.22,450.00 461.80,450.00 462.37,450.00 462.95,450.00 463.52,450.00 464.09,450.00 464.67,450.00 465.24,450.00 465.82,450.00 466.39,450.00 466.97,450.00 467.54,450.00 468.12,450.00 468.69,450.00 469.27,450.00 469.84,450.00 470.41,450.00 470.99,450.00 471.56,450.00 472.14,450.00 472.71,450.00 473.29,450.00 473.86,450.00 474.44,450.00 475.01,450.00 475.58,450.00 476.16,450.00 476.73,450.00 477.31,450.00 477.88,450.00 478.46,450.00 479.03,450.00 479.61,450.00 480.18,450.00 480.75,450.00 481.33,450.00 481.90,450.00 482.48,450.00 483.05,450.00 483.63,450.00 484.20,450.00 484.78,450.00 485.35,450.00 485.93,450.00 486.50,450.00 487.07,450.00 487.65,450.00 488.22,450.00 488.80,450.00 489.37,450.00 489.95,450.00 490.52,450.00 491.10,450.00 491.67,450.00 492.24,450.00 492.82,450.00 493.39,450.00 493.97,450.00 494.54,450.00 495.12,450.00 495.69,450.00 496.27,450.00 496.84,450.00 497.41,450.00 497.99,450.00 498.56,450.00 499.14,450.00 499.71,450.00 500.29,450.00 500.86,450.00 501.44,450.00 502.01,450.00 502.59,450.00 503.16,450.00 503.73,450.00 504.31,450.00 504.88,450.00 505.46,450.00 506.03,450.00 506.61,450.00 507.18,450.00 507.76,450.00 508.33,450.00 508.90,450.00 509.48,450.00 510.05,450.00 510.63,450.00 511.20,450.00 511.78,450.00 512.35,450.00 512.93,450.00 513.50,450.00 514.07,450.00 514.65,450.00 515.22,450.00 515.80,450.00 516.37,450.00 516.95,450.00 517.52,450.00 518.10,450.00 518.67,450.00 519.25,450.00 519.82,450.00 520.39,450.00 520.97,450.00 521.54,450.00 522.12,450.00 522.69,450.00 523.27,450.00 523.84,450.00 524.42,450.00 524.99,450.00 525.56,450.00 526.14,450.00 526.71,450.00 527.29,450.00 527.86,450.00 528.44,450.00 529.01,450.00 529.59,450.00 530.16,450.00 530.73,450.00 531.31,450.00 531.88,450.00 532.46,450.00 533.03,450.00 533.61,450.00 534.18,450.00 534.76,450.00 535.33,450.00 535.91,450.00 536.48,450.00 537.05,450.00 537.63,450.00 538.20,450.00 538.78,450.00 539.35,450.00 539.93,450.00 540.50,450.00 541.08,450.00 541.65,450.00 542.22,450.00 542.80,450.00 543.37,450.00 543.95,450.00 544.52,450.00 545.10,450.00 545.67,450.00 546.25,450.00 546.82,450.00 547.39,450.00 547.97,450.00 548.54,450.00 549.12,450.00 549.69,450.00 550.27,450.00 550.84,450.00 551.42,450.00 551.99,450.00 552.57,450.00 553.14,450.00 553.71,450.00 554.29,450.00 554.86,450.00 555.44,450.00 556.01,450.00 556.59,450.00 557.16,450.00 557.74,450.00 558.31,450.00 558.88,450.00 559.46,450.00 560.03,450.00 560.61,450.00 561.18,450.00 561.76,450.00 562.33,450.00 562.91,450.00 563.48,450.00 564.05,450.00 564.63,450.00 565.20,450.00 565.78,450.00 566.35,450.00 566.93,450.00 567.50,450.00 568.08,450.00 568.65,450.00 569.23,450.00 569.80,450.00 570.37,450.00 570.95,450.00 571.52,450.00 572.10,450.00 572.67,450.00 573.25,450.00 573.82,450.00 574.40,450.00 574.97,450.00 575.54,450.00 576.12,450.00 576.69,450.00 577.27,450.00 577.84,450.00 578.42,450.00 578.99,450.00 579.57,450.00 580.14,450.00 580.71,450.00 581.29,450.00 581.86,450.00 582.44,450.00 583.01,450.00 583.59,450.00 584.16,450.00 584.74,450.00 585.31,450.00 585.89,450.00 586.46,450.00 587.03,450.00 587.61,450.00 588.18,450.00 588.76,450.00 589.33,450.00 589.91,450.00 590.48,450.00 591.06,450.00 591.63,450.00 592.20,450.00 592.78,450.00 593.35,450.00 593.93,450.00 594.50,450.00 595.08,450.00 595.65,450.00 596.23,450.00 596.80,450.00 597.37,450.00 597.95,450.00 598.52,450.00 599.10,450.00 599.67,450.00 600.25,450.00 600.82,450.00 601.40,450.00 601.97,450.00 602.55,450.00 603.12,450.00 603.69,450.00 604.27,450.00 604.84,450.00 605.42,450.00 605.99,450.00 606.57,450.00 607.14,450.00 607.72,450.00 608.29,450.00 608.86,450.00 609.44,450.00 610.01,450.00 610.59,450.00 611.16,450.00 611.74,450.00 612.31,450.00 612.89,450.00 613.46,450.00 614.03,450.00 614.61,450.00 615.18,450.00 615.76,450.00 616.33,450.00 616.91,450.00 617.48,450.00 618.06,450.00 618.63,450.00 619.21,450.00 619.78,450.00 620.35,450.00 620.93,450.00 621.50,450.00 622.08,450.00 622.65,450.00 623.23,450.00 623.80,450.00 624.38,450.00 624.95,450.00 625.52,450.00 626.10,450.00 626.67,450.00 627.25,450.00 627.82,450.00 628.40,450.00 628.97,450.00 629.55,450.00 630.12,450.00 630.69,450.00 631.27,450.00 631.84,450.00 632.42,450.00 632.99,450.00 633.57,450.00 634.14,450.00 634.72,450.00 635.29,450.00 635.87,450.00 636.44,450.00 637.01,450.00 637.59,450.00 638.16,450.00 638.74,450.00 639.31,450.00 639.89,450.00 640.46,450.00 641.04,450.00 641.61,450.00 642.18,450.00 642.76,450.00 643.33,450.00 643.91,450.00 644.48,450.00 645.06,450.00 645.63,450.00 646.21,450.00 646.78,450.00 647.35,450.00 647.93,450.00 648.50,450.00 649.08,450.00 649.65,450.00 650.23,450.00 650.80,450.00 651.38,450.00 651.95,450.00 652.53,450.00 653.10,450.00 653.67,450.00 654.25,450.00 654.82,450.00 655.40,450.00 655.97,450.00 656.55,450.00 657.12,450.00 657.70,450.00 658.27,450.00 658.84,450.00 659.42,450.00 659.99,450.00 660.57,450.00 661.14,450.00 661.72,450.00 662.29,450.00 662.87,450.00 663.44,450.00 664.01,450.00 664.59,450.00 665.16,450.00 665.74,450.00 666.31,450.00 666.89,450.00 667.46,450.00 668.04,450.00 668.61,450.00 669.19,450.00 669.76,450.00 670.33,450.00 670.91,450.00 671.48,450.00 672.06,450.00 672.63,450.00 673.21,450.00 673.78,450.00 674.36,450.00 674.93,450.00 675.50,450.00 676.08,450.00 676.65,450.00 677.23,450.00 677.80,450.00 678.38,450.00 678.95,450.00 679.53,450.00 680.10,450.00 680.67,450.00 681.25,450.00 681.82,450.00 682.40,450.00 682.97,450.00 683.55,450.00 684.12,450.00 684.70,450.00 685.27,450.00 685.85,450.00 686.42,450.00 686.99,450.00 687.57,450.00 688.14,450.00 688.72,450.00 689.29,450.00 689.87,450.00 690.44,450.00 691.02,450.00 691.59,450.00 692.16,450.00 692.74,450.00 693.31,450.00 693.89,450.00 694.46,450.00 695.04,450.00 695.61,450.00 696.19,450.00 696.76,450.00 697.33,450.00 697.91,450.00 698.48,450.00 699.06,450.00 699.63,450.00 700.21,450.00 700.78,450.00 701.36,450.00 701.93,450.00 702.51,450.00 703.08,450.00 703.65,450.00 704.23,450.00 704.80,450.00 705.38,450.00 705.95,450.00 706.53,450.00 707.10,450.00 707.68,450.00 708.25,450.00 708.82,450.00 709.40,450.00 709.97,450.00 710.55,450.00 711.12,450.00 711.70,450.00 712.27,450.00 712.85,450.00 713.42,450.00 713.99,450.00 714.57,450.00 715.14,450.00 715.72,450.00 716.29,450.00 716.87,450.00 717.44,450.00 718.02,450.00 718.59,450.00 719.16,450.00 719.74,450.00 720.31,450.00 720.89,450.00 721.46,450.00 722.04,450.00 722.61,450.00 723.19,450.00 723.76,450.00 724.34,450.00 724.91,450.00 725.48,450.00 726.06,450.00 726.63,450.00 727.21,450.00 727.78,450.00 728.36,450.00 728.93,450.00 729.51,450.00 730.08,450.00 730.65,450.00 731.23,450.00 731.80,450.00 732.38,450.00 732.95,450.00 733.53,450.00 734.10,450.00 734.68,450.00 735.25,450.00 735.82,450.00 736.40,450.00 736.97,450.00 737.55,450.00 738.12,450.00 738.70,450.00 739.27,450.00 739.85,450.00 740.42,450.00 741.00,450.00 741.57,450.00 742.14,450.00 742.72,450.00 743.29,450.00 743.87,450.00 744.44,450.00 745.02,450.00 745.59,450.00 746.17,450.00 746.74,450.00 747.31,450.00 747.89,450.00 748.46,450.00 749.04,450.00 749.61,450.00 750.19,450.00 750.76,450.00 751.34,450.00 751.91,450.00 752.48,450.00 753.06,450.00 753.63,450.00 754.21,450.00 754.78,450.00 755.36,450.00 755.93,450.00 756.51,450.00 757.08,450.00 757.66,450.00 758.23,450.00 758.80,450.00 759.38,450.00 759.95,450.00 760.53,450.00 761.10,450.00 761.68,450.00 762.25,450.00 762.83,450.00 763.40,450.00 763.97,450.00 764.55,450.00 765.12,450.00 765.70,450.00 766.27,450.00 766.85,450.00 767.42,450.00 768.00,450.00 768.57,450.00 769.14,450.00 769.72,450.00 770.29,450.00 770.87,450.00 771.44,450.00 772.02,450.00 772.59,450.00 773.17,450.00 773.74,450.00 774.32,450.00 774.89,450.00 775.46,450.00 776.04,450.00 776.61,450.00 777.19,450.00 777.76,450.00 778.34,450.00 778.91,450.00 779.49,450.00 780.06,450.00 780.63,450.00 781.21,450.00 781.78,450.00 782.36,450.00 782.93,450.00 783.51,450.00 784.08,450.00 784.66,450.00 785.23,450.00 785.80,450.00 786.38,450.00 786.95,450.00 787.53,450.00 788.10,450.00 788.68,450.00 789.25,450.00 789.83,450.00 790.40,450.00 790.98,450.00 791.55,450.00 792.12,450.00 792.70,450.00 793.27,450.00 793.85,450.00 794.42,450.00 795.00,450.00 795.57,450.00 796.15,450.00 796.72,450.00 797.29,450.00 797.87,450.00 798.44,450.00 799.02,450.00 799.59,450.00 800.17,450.00 800.74,450.00 801.32,450.00 801.89,450.00 802.46,450.00 803.04,450.00 803.61,450.00 804.19,450.00 804.76,450.00 805.34,450.00 805.91,450.00 806.49,450.00 807.06,450.00 807.64,450.00 808.21,450.00 808.78,450.00 809.36,450.00 809.93,450.00 810.51,450.00 811.08,450.00 811.66,450.00 812.23,450.00 812.81,450.00 813.38,450.00 813.95,450.00 814.53,450.00 815.10,450.00 815.68,450.00 816.25,450.00 816.83,450.00 817.40,450.00 817.98,450.00 818.55,450.00 819.12,450.00 819.70,450.00 820.27,450.00 820.85,450.00 821.42,450.00 822.00,450.00 822.57,450.00 823.15,450.00 823.72,450.00 824.30,450.00 824.87,450.00 825.44,450.00 826.02,450.00 826.59,450.00 827.17,450.00 827.74,450.00 828.32,450.00 828.89,450.00 829.47,450.00 830.04,450.00 830.61,450.00 831.19,450.00 831.76,450.00 832.34,450.00 832.91,450.00 833.49,450.00 834.06,450.00 834.64,450.00 835.21,450.00 835.78,450.00 836.36,450.00 836.93,450.00 837.51,450.00 838.08,450.00 838.66,450.00 839.23,450.00 839.81,450.00 840.38,450.00 840.96,450.00 841.53,450.00 842.10,450.00 842.68,450.00 843.25,450.00 843.83,450.00 844.40,450.00 844.98,450.00 845.55,450.00 846.13,450.00 846.70,450.00 847.27,450.00 847.85,450.00 848.42,450.00 849.00,450.00 849.57,450.00 850.15,450.00 850.72,450.00 851.30,450.00 851.87,450.00 852.44,450.00 853.02,450.00 853.59,450.00 854.17,450.00 854.74,450.00 855.32,450.00 855.89,450.00 856.47,450.00 857.04,450.00 857.62,450.00 858.19,450.00 858.76,450.00 859.34,450.00 859.91,450.00 860.49,450.00 861.06,450.00 861.64,450.00 862.21,450.00 862.79,450.00 863.36,450.00 863.93,450.00 864.51,450.00 865.08,450.00 865.66,450.00 866.23,450.00 866.81,450.00 867.38,450.00 867.96,450.00 868.53,450.00 869.10,450.00 869.68,450.00 870.25,450.00 870.83,450.00 871.40,450.00 871.98,450.00 872.55,450.00 873.13,450.00 873.70,450.00 874.28,450.00 874.85,450.00 875.42,450.00 876.00,450.00 876.57,450.00 877.15,450.00 877.72,450.00 878.30,450.00 878.87,450.00 879.45,450.00 880.02,450.00 880.59,450.00 881.17,450.00 881.74,450.00 882.32,450.00 882.89,450.00 883.47,450.00 884.04,450.00 884.62,450.00 885.19,450.00 885.76,450.00 886.34,450.00 886.91,450.00 887.49,450.00 888.06,450.00 888.64,450.00 889.21,450.00 889.79,450.00 890.36,450.00 890.94,450.00 891.51,450.00 892.08,450.00 892.66,450.00 893.23,450.00 893.81,450.00 894.38,450.00 894.96,450.00 895.53,450.00 896.11,450.00 896.68,450.00 897.25,450.00 897.83,450.00 898.40,450.00 898.98,450.00 899.55,450.00 900.13,450.00 900.70,450.00 901.28,450.00 901.85,450.00 902.42,450.00 903.00,450.00 903.57,450.00 904.15,450.00 904.72,450.00 905.30,450.00 905.87,450.00 906.45,450.00 907.02,450.00 907.60,450.00 908.17,450.00 908.74,450.00 909.32,450.00 909.89,450.00 910.47,450.00 911.04,450.00 911.62,450.00 912.19,450.00 912.77,450.00 913.34,450.00 913.91,450.00 914.49,450.00 915.06,450.00 915.64,450.00 916.21,450.00 916.79,450.00 917.36,450.00 917.94,450.00 918.51,450.00 919.08,450.00 919.66,450.00 920.23,450.00 920.81,450.00 921.38,450.00 921.96,450.00 922.53,450.00 923.11,450.00 923.68,450.00 924.26,450.00 924.83,450.00 925.40,450.00 925.98,450.00 926.55,450.00 927.13,450.00 927.70,450.00 928.28,450.00 928.85,450.00 929.43,450.00 930.00,450.00" />
  <polyline fill="none" stroke="#ea580c" stroke-width="3" points="70.00,204.54 70.57,294.24 71.15,354.03 71.72,354.03 72.30,354.03 72.87,354.03 73.45,354.03 74.02,354.03 74.60,354.03 75.17,393.90 75.74,420.47 76.32,420.47 76.89,420.47 77.47,420.47 78.04,438.19 78.62,438.19 79.19,438.19 79.77,438.19 80.34,438.19 80.92,438.19 81.49,438.19 82.06,438.19 82.64,438.19 83.21,438.19 83.79,438.19 84.36,438.19 84.94,438.19 85.51,438.19 86.09,438.19 86.66,438.19 87.23,438.19 87.81,438.19 88.38,438.19 88.96,438.19 89.53,438.19 90.11,438.19 90.68,438.19 91.26,438.19 91.83,438.19 92.40,438.19 92.98,438.19 93.55,438.19 94.13,438.19 94.70,438.19 95.28,438.19 95.85,438.19 96.43,438.19 97.00,438.19 97.58,438.19 98.15,438.19 98.72,438.19 99.30,438.19 99.87,438.19 100.45,438.19 101.02,438.19 101.60,438.19 102.17,438.19 102.75,438.19 103.32,438.19 103.89,438.19 104.47,438.19 105.04,438.19 105.62,438.19 106.19,438.19 106.77,438.19 107.34,438.19 107.92,438.19 108.49,438.19 109.06,438.19 109.64,438.19 110.21,438.19 110.79,438.19 111.36,438.19 111.94,438.19 112.51,438.19 113.09,438.19 113.66,438.19 114.24,438.19 114.81,438.19 115.38,438.19 115.96,438.19 116.53,438.19 117.11,438.19 117.68,438.19 118.26,438.19 118.83,438.19 119.41,450.00 119.98,438.19 120.55,438.19 121.13,438.19 121.70,438.19 122.28,438.19 122.85,438.19 123.43,438.19 124.00,438.19 124.58,438.19 125.15,438.19 125.72,438.19 126.30,438.19 126.87,438.19 127.45,438.19 128.02,438.19 128.60,450.00 129.17,450.00 129.75,450.00 130.32,450.00 130.90,450.00 131.47,450.00 132.04,450.00 132.62,450.00 133.19,450.00 133.77,450.00 134.34,450.00 134.92,450.00 135.49,450.00 136.07,450.00 136.64,450.00 137.21,450.00 137.79,450.00 138.36,450.00 138.94,450.00 139.51,450.00 140.09,450.00 140.66,450.00 141.24,450.00 141.81,450.00 142.38,450.00 142.96,450.00 143.53,450.00 144.11,450.00 144.68,450.00 145.26,450.00 145.83,450.00 146.41,450.00 146.98,450.00 147.56,450.00 148.13,450.00 148.70,450.00 149.28,450.00 149.85,450.00 150.43,450.00 151.00,450.00 151.58,450.00 152.15,450.00 152.73,450.00 153.30,450.00 153.87,450.00 154.45,450.00 155.02,450.00 155.60,450.00 156.17,450.00 156.75,450.00 157.32,450.00 157.90,450.00 158.47,450.00 159.04,450.00 159.62,450.00 160.19,450.00 160.77,450.00 161.34,450.00 161.92,450.00 162.49,450.00 163.07,450.00 163.64,450.00 164.22,450.00 164.79,450.00 165.36,450.00 165.94,450.00 166.51,450.00 167.09,450.00 167.66,450.00 168.24,450.00 168.81,450.00 169.39,450.00 169.96,450.00 170.53,450.00 171.11,450.00 171.68,450.00 172.26,450.00 172.83,450.00 173.41,450.00 173.98,450.00 174.56,450.00 175.13,450.00 175.70,450.00 176.28,450.00 176.85,450.00 177.43,450.00 178.00,450.00 178.58,450.00 179.15,450.00 179.73,450.00 180.30,450.00 180.88,450.00 181.45,450.00 182.02,450.00 182.60,450.00 183.17,450.00 183.75,450.00 184.32,450.00 184.90,450.00 185.47,450.00 186.05,450.00 186.62,450.00 187.19,450.00 187.77,450.00 188.34,450.00 188.92,450.00 189.49,450.00 190.07,450.00 190.64,450.00 191.22,450.00 191.79,450.00 192.36,450.00 192.94,450.00 193.51,450.00 194.09,450.00 194.66,450.00 195.24,450.00 195.81,450.00 196.39,450.00 196.96,450.00 197.54,450.00 198.11,450.00 198.68,450.00 199.26,450.00 199.83,450.00 200.41,450.00 200.98,450.00 201.56,450.00 202.13,450.00 202.71,450.00 203.28,450.00 203.85,450.00 204.43,450.00 205.00,450.00 205.58,450.00 206.15,450.00 206.73,450.00 207.30,450.00 207.88,450.00 208.45,450.00 209.02,450.00 209.60,450.00 210.17,450.00 210.75,450.00 211.32,450.00 211.90,450.00 212.47,450.00 213.05,450.00 213.62,450.00 214.20,450.00 214.77,450.00 215.34,450.00 215.92,450.00 216.49,450.00 217.07,450.00 217.64,450.00 218.22,450.00 218.79,450.00 219.37,450.00 219.94,450.00 220.51,450.00 221.09,450.00 221.66,450.00 222.24,450.00 222.81,450.00 223.39,450.00 223.96,450.00 224.54,450.00 225.11,450.00 225.68,450.00 226.26,450.00 226.83,450.00 227.41,450.00 227.98,450.00 228.56,450.00 229.13,450.00 229.71,450.00 230.28,450.00 230.86,450.00 231.43,450.00 232.00,450.00 232.58,450.00 233.15,450.00 233.73,450.00 234.30,450.00 234.88,450.00 235.45,450.00 236.03,450.00 236.60,450.00 237.17,450.00 237.75,450.00 238.32,450.00 238.90,450.00 239.47,450.00 240.05,450.00 240.62,450.00 241.20,450.00 241.77,450.00 242.34,450.00 242.92,450.00 243.49,450.00 244.07,450.00 244.64,450.00 245.22,450.00 245.79,450.00 246.37,450.00 246.94,450.00 247.52,450.00 248.09,450.00 248.66,450.00 249.24,450.00 249.81,450.00 250.39,450.00 250.96,450.00 251.54,450.00 252.11,450.00 252.69,450.00 253.26,450.00 253.83,450.00 254.41,450.00 254.98,450.00 255.56,450.00 256.13,450.00 256.71,450.00 257.28,450.00 257.86,450.00 258.43,450.00 259.00,450.00 259.58,450.00 260.15,450.00 260.73,450.00 261.30,450.00 261.88,450.00 262.45,450.00 263.03,450.00 263.60,450.00 264.18,450.00 264.75,450.00 265.32,450.00 265.90,450.00 266.47,450.00 267.05,450.00 267.62,450.00 268.20,450.00 268.77,450.00 269.35,450.00 269.92,450.00 270.49,450.00 271.07,450.00 271.64,450.00 272.22,450.00 272.79,450.00 273.37,450.00 273.94,450.00 274.52,450.00 275.09,450.00 275.66,450.00 276.24,450.00 276.81,450.00 277.39,450.00 277.96,450.00 278.54,450.00 279.11,450.00 279.69,450.00 280.26,450.00 280.84,450.00 281.41,450.00 281.98,450.00 282.56,450.00 283.13,450.00 283.71,450.00 284.28,450.00 284.86,450.00 285.43,450.00 286.01,450.00 286.58,450.00 287.15,450.00 287.73,450.00 288.30,450.00 288.88,450.00 289.45,450.00 290.03,450.00 290.60,450.00 291.18,450.00 291.75,450.00 292.32,450.00 292.90,450.00 293.47,450.00 294.05,450.00 294.62,450.00 295.20,450.00 295.77,450.00 296.35,450.00 296.92,450.00 297.49,450.00 298.07,450.00 298.64,450.00 299.22,450.00 299.79,450.00 300.37,450.00 300.94,450.00 301.52,450.00 302.09,450.00 302.67,450.00 303.24,450.00 303.81,450.00 304.39,450.00 304.96,450.00 305.54,450.00 306.11,450.00 306.69,450.00 307.26,450.00 307.84,450.00 308.41,450.00 308.98,450.00 309.56,450.00 310.13,450.00 310.71,450.00 311.28,450.00 311.86,450.00 312.43,450.00 313.01,450.00 313.58,450.00 314.15,450.00 314.73,450.00 315.30,450.00 315.88,450.00 316.45,450.00 317.03,450.00 317.60,450.00 318.18,450.00 318.75,450.00 319.33,450.00 319.90,450.00 320.47,450.00 321.05,450.00 321.62,450.00 322.20,450.00 322.77,450.00 323.35,450.00 323.92,450.00 324.50,450.00 325.07,450.00 325.64,450.00 326.22,450.00 326.79,450.00 327.37,450.00 327.94,450.00 328.52,450.00 329.09,450.00 329.67,450.00 330.24,450.00 330.81,450.00 331.39,450.00 331.96,450.00 332.54,450.00 333.11,450.00 333.69,450.00 334.26,450.00 334.84,450.00 335.41,450.00 335.99,450.00 336.56,450.00 337.13,450.00 337.71,450.00 338.28,450.00 338.86,450.00 339.43,450.00 340.01,450.00 340.58,450.00 341.16,450.00 341.73,450.00 342.30,450.00 342.88,450.00 343.45,450.00 344.03,450.00 344.60,450.00 345.18,450.00 345.75,450.00 346.33,450.00 346.90,450.00 347.47,450.00 348.05,450.00 348.62,450.00 349.20,450.00 349.77,450.00 350.35,450.00 350.92,450.00 351.50,450.00 352.07,450.00 352.65,450.00 353.22,450.00 353.79,450.00 354.37,450.00 354.94,450.00 355.52,450.00 356.09,450.00 356.67,450.00 357.24,450.00 357.82,450.00 358.39,450.00 358.96,450.00 359.54,450.00 360.11,450.00 360.69,450.00 361.26,450.00 361.84,450.00 362.41,450.00 362.99,450.00 363.56,450.00 364.13,450.00 364.71,450.00 365.28,450.00 365.86,450.00 366.43,450.00 367.01,450.00 367.58,450.00 368.16,450.00 368.73,450.00 369.31,450.00 369.88,450.00 370.45,450.00 371.03,450.00 371.60,450.00 372.18,450.00 372.75,450.00 373.33,450.00 373.90,450.00 374.48,450.00 375.05,450.00 375.62,450.00 376.20,450.00 376.77,450.00 377.35,450.00 377.92,450.00 378.50,450.00 379.07,450.00 379.65,450.00 380.22,450.00 380.79,450.00 381.37,450.00 381.94,450.00 382.52,450.00 383.09,450.00 383.67,450.00 384.24,450.00 384.82,450.00 385.39,450.00 385.97,450.00 386.54,450.00 387.11,450.00 387.69,450.00 388.26,450.00 388.84,450.00 389.41,450.00 389.99,450.00 390.56,450.00 391.14,450.00 391.71,450.00 392.28,450.00 392.86,450.00 393.43,450.00 394.01,450.00 394.58,450.00 395.16,450.00 395.73,450.00 396.31,450.00 396.88,450.00 397.45,450.00 398.03,450.00 398.60,450.00 399.18,450.00 399.75,450.00 400.33,450.00 400.90,450.00 401.48,450.00 402.05,450.00 402.63,450.00 403.20,450.00 403.77,450.00 404.35,450.00 404.92,450.00 405.50,450.00 406.07,450.00 406.65,450.00 407.22,450.00 407.80,450.00 408.37,450.00 408.94,450.00 409.52,450.00 410.09,450.00 410.67,450.00 411.24,450.00 411.82,450.00 412.39,450.00 412.97,450.00 413.54,450.00 414.11,450.00 414.69,450.00 415.26,450.00 415.84,450.00 416.41,450.00 416.99,450.00 417.56,450.00 418.14,450.00 418.71,450.00 419.29,450.00 419.86,450.00 420.43,450.00 421.01,450.00 421.58,450.00 422.16,450.00 422.73,450.00 423.31,450.00 423.88,450.00 424.46,450.00 425.03,450.00 425.60,450.00 426.18,450.00 426.75,450.00 427.33,450.00 427.90,450.00 428.48,450.00 429.05,450.00 429.63,450.00 430.20,450.00 430.77,450.00 431.35,450.00 431.92,450.00 432.50,450.00 433.07,450.00 433.65,450.00 434.22,450.00 434.80,450.00 435.37,450.00 435.95,450.00 436.52,450.00 437.09,450.00 437.67,450.00 438.24,450.00 438.82,450.00 439.39,450.00 439.97,450.00 440.54,450.00 441.12,450.00 441.69,450.00 442.26,450.00 442.84,450.00 443.41,450.00 443.99,450.00 444.56,450.00 445.14,450.00 445.71,450.00 446.29,450.00 446.86,450.00 447.43,450.00 448.01,450.00 448.58,450.00 449.16,450.00 449.73,450.00 450.31,450.00 450.88,450.00 451.46,450.00 452.03,450.00 452.61,450.00 453.18,450.00 453.75,450.00 454.33,450.00 454.90,450.00 455.48,450.00 456.05,450.00 456.63,450.00 457.20,450.00 457.78,450.00 458.35,450.00 458.92,450.00 459.50,450.00 460.07,450.00 460.65,450.00 461.22,450.00 461.80,450.00 462.37,450.00 462.95,450.00 463.52,450.00 464.09,450.00 464.67,450.00 465.24,450.00 465.82,450.00 466.39,450.00 466.97,450.00 467.54,450.00 468.12,450.00 468.69,450.00 469.27,450.00 469.84,450.00 470.41,450.00 470.99,450.00 471.56,450.00 472.14,450.00 472.71,450.00 473.29,450.00 473.86,450.00 474.44,450.00 475.01,450.00 475.58,450.00 476.16,450.00 476.73,450.00 477.31,450.00 477.88,450.00 478.46,450.00 479.03,450.00 479.61,450.00 480.18,450.00 480.75,450.00 481.33,450.00 481.90,450.00 482.48,450.00 483.05,450.00 483.63,450.00 484.20,450.00 484.78,450.00 485.35,450.00 485.93,450.00 486.50,450.00 487.07,450.00 487.65,450.00 488.22,450.00 488.80,450.00 489.37,450.00 489.95,450.00 490.52,450.00 491.10,450.00 491.67,450.00 492.24,450.00 492.82,450.00 493.39,450.00 493.97,450.00 494.54,450.00 495.12,450.00 495.69,450.00 496.27,450.00 496.84,450.00 497.41,450.00 497.99,450.00 498.56,450.00 499.14,450.00 499.71,450.00 500.29,450.00 500.86,450.00 501.44,450.00 502.01,450.00 502.59,450.00 503.16,450.00 503.73,450.00 504.31,450.00 504.88,450.00 505.46,450.00 506.03,450.00 506.61,450.00 507.18,450.00 507.76,450.00 508.33,450.00 508.90,450.00 509.48,450.00 510.05,450.00 510.63,450.00 511.20,450.00 511.78,450.00 512.35,450.00 512.93,450.00 513.50,450.00 514.07,450.00 514.65,450.00 515.22,450.00 515.80,450.00 516.37,450.00 516.95,450.00 517.52,450.00 518.10,450.00 518.67,450.00 519.25,450.00 519.82,450.00 520.39,450.00 520.97,450.00 521.54,450.00 522.12,450.00 522.69,450.00 523.27,450.00 523.84,450.00 524.42,450.00 524.99,450.00 525.56,450.00 526.14,450.00 526.71,450.00 527.29,450.00 527.86,450.00 528.44,450.00 529.01,450.00 529.59,450.00 530.16,450.00 530.73,450.00 531.31,450.00 531.88,450.00 532.46,450.00 533.03,450.00 533.61,450.00 534.18,450.00 534.76,450.00 535.33,450.00 535.91,450.00 536.48,450.00 537.05,450.00 537.63,450.00 538.20,450.00 538.78,450.00 539.35,450.00 539.93,450.00 540.50,450.00 541.08,450.00 541.65,450.00 542.22,450.00 542.80,450.00 543.37,450.00 543.95,450.00 544.52,450.00 545.10,450.00 545.67,450.00 546.25,450.00 546.82,450.00 547.39,450.00 547.97,450.00 548.54,450.00 549.12,450.00 549.69,450.00 550.27,450.00 550.84,450.00 551.42,450.00 551.99,450.00 552.57,450.00 553.14,450.00 553.71,450.00 554.29,450.00 554.86,450.00 555.44,450.00 556.01,450.00 556.59,450.00 557.16,450.00 557.74,450.00 558.31,450.00 558.88,450.00 559.46,450.00 560.03,450.00 560.61,450.00 561.18,450.00 561.76,450.00 562.33,450.00 562.91,450.00 563.48,450.00 564.05,450.00 564.63,450.00 565.20,450.00 565.78,450.00 566.35,450.00 566.93,450.00 567.50,450.00 568.08,450.00 568.65,450.00 569.23,450.00 569.80,450.00 570.37,450.00 570.95,450.00 571.52,450.00 572.10,450.00 572.67,450.00 573.25,450.00 573.82,450.00 574.40,450.00 574.97,450.00 575.54,450.00 576.12,450.00 576.69,450.00 577.27,450.00 577.84,450.00 578.42,450.00 578.99,450.00 579.57,450.00 580.14,450.00 580.71,450.00 581.29,450.00 581.86,450.00 582.44,450.00 583.01,450.00 583.59,450.00 584.16,450.00 584.74,450.00 585.31,450.00 585.89,450.00 586.46,450.00 587.03,450.00 587.61,450.00 588.18,450.00 588.76,450.00 589.33,450.00 589.91,450.00 590.48,450.00 591.06,450.00 591.63,450.00 592.20,450.00 592.78,450.00 593.35,450.00 593.93,450.00 594.50,450.00 595.08,450.00 595.65,450.00 596.23,450.00 596.80,450.00 597.37,450.00 597.95,450.00 598.52,450.00 599.10,450.00 599.67,450.00 600.25,450.00 600.82,450.00 601.40,450.00 601.97,450.00 602.55,450.00 603.12,450.00 603.69,450.00 604.27,450.00 604.84,450.00 605.42,450.00 605.99,450.00 606.57,450.00 607.14,450.00 607.72,450.00 608.29,450.00 608.86,450.00 609.44,450.00 610.01,450.00 610.59,450.00 611.16,450.00 611.74,450.00 612.31,450.00 612.89,450.00 613.46,450.00 614.03,450.00 614.61,450.00 615.18,450.00 615.76,450.00 616.33,450.00 616.91,450.00 617.48,450.00 618.06,450.00 618.63,450.00 619.21,450.00 619.78,450.00 620.35,450.00 620.93,450.00 621.50,450.00 622.08,450.00 622.65,450.00 623.23,450.00 623.80,450.00 624.38,450.00 624.95,450.00 625.52,450.00 626.10,450.00 626.67,450.00 627.25,450.00 627.82,450.00 628.40,450.00 628.97,450.00 629.55,450.00 630.12,450.00 630.69,450.00 631.27,450.00 631.84,450.00 632.42,450.00 632.99,450.00 633.57,450.00 634.14,450.00 634.72,450.00 635.29,450.00 635.87,450.00 636.44,450.00 637.01,450.00 637.59,450.00 638.16,450.00 638.74,450.00 639.31,450.00 639.89,450.00 640.46,450.00 641.04,450.00 641.61,450.00 642.18,450.00 642.76,450.00 643.33,450.00 643.91,450.00 644.48,450.00 645.06,450.00 645.63,450.00 646.21,450.00 646.78,450.00 647.35,450.00 647.93,450.00 648.50,450.00 649.08,450.00 649.65,450.00 650.23,450.00 650.80,450.00 651.38,450.00 651.95,450.00 652.53,450.00 653.10,450.00 653.67,450.00 654.25,450.00 654.82,450.00 655.40,450.00 655.97,450.00 656.55,450.00 657.12,450.00 657.70,450.00 658.27,450.00 658.84,450.00 659.42,450.00 659.99,450.00 660.57,450.00 661.14,450.00 661.72,450.00 662.29,450.00 662.87,450.00 663.44,450.00 664.01,450.00 664.59,450.00 665.16,450.00 665.74,450.00 666.31,450.00 666.89,450.00 667.46,450.00 668.04,450.00 668.61,450.00 669.19,450.00 669.76,450.00 670.33,450.00 670.91,450.00 671.48,450.00 672.06,450.00 672.63,450.00 673.21,450.00 673.78,450.00 674.36,450.00 674.93,450.00 675.50,450.00 676.08,450.00 676.65,450.00 677.23,450.00 677.80,450.00 678.38,450.00 678.95,450.00 679.53,450.00 680.10,450.00 680.67,450.00 681.25,450.00 681.82,450.00 682.40,450.00 682.97,450.00 683.55,450.00 684.12,450.00 684.70,450.00 685.27,450.00 685.85,450.00 686.42,450.00 686.99,450.00 687.57,450.00 688.14,450.00 688.72,450.00 689.29,450.00 689.87,450.00 690.44,450.00 691.02,450.00 691.59,450.00 692.16,450.00 692.74,450.00 693.31,450.00 693.89,450.00 694.46,450.00 695.04,450.00 695.61,450.00 696.19,450.00 696.76,450.00 697.33,450.00 697.91,450.00 698.48,450.00 699.06,450.00 699.63,450.00 700.21,450.00 700.78,450.00 701.36,450.00 701.93,450.00 702.51,450.00 703.08,450.00 703.65,450.00 704.23,450.00 704.80,450.00 705.38,450.00 705.95,450.00 706.53,450.00 707.10,450.00 707.68,450.00 708.25,450.00 708.82,450.00 709.40,450.00 709.97,450.00 710.55,450.00 711.12,450.00 711.70,450.00 712.27,450.00 712.85,450.00 713.42,450.00 713.99,450.00 714.57,450.00 715.14,450.00 715.72,450.00 716.29,450.00 716.87,450.00 717.44,450.00 718.02,450.00 718.59,450.00 719.16,450.00 719.74,450.00 720.31,450.00 720.89,450.00 721.46,450.00 722.04,450.00 722.61,450.00 723.19,450.00 723.76,450.00 724.34,450.00 724.91,450.00 725.48,450.00 726.06,450.00 726.63,450.00 727.21,450.00 727.78,450.00 728.36,450.00 728.93,450.00 729.51,450.00 730.08,450.00 730.65,450.00 731.23,450.00 731.80,450.00 732.38,450.00 732.95,450.00 733.53,450.00 734.10,450.00 734.68,450.00 735.25,450.00 735.82,450.00 736.40,450.00 736.97,450.00 737.55,450.00 738.12,450.00 738.70,450.00 739.27,450.00 739.85,450.00 740.42,450.00 741.00,450.00 741.57,450.00 742.14,450.00 742.72,450.00 743.29,450.00 743.87,450.00 744.44,450.00 745.02,450.00 745.59,450.00 746.17,450.00 746.74,450.00 747.31,450.00 747.89,450.00 748.46,450.00 749.04,450.00 749.61,450.00 750.19,450.00 750.76,450.00 751.34,450.00 751.91,450.00 752.48,450.00 753.06,450.00 753.63,450.00 754.21,450.00 754.78,450.00 755.36,450.00 755.93,450.00 756.51,450.00 757.08,450.00 757.66,450.00 758.23,450.00 758.80,450.00 759.38,450.00 759.95,450.00 760.53,450.00 761.10,450.00 761.68,450.00 762.25,450.00 762.83,450.00 763.40,450.00 763.97,450.00 764.55,450.00 765.12,450.00 765.70,450.00 766.27,450.00 766.85,450.00 767.42,450.00 768.00,450.00 768.57,450.00 769.14,450.00 769.72,450.00 770.29,450.00 770.87,450.00 771.44,450.00 772.02,450.00 772.59,450.00 773.17,450.00 773.74,450.00 774.32,450.00 774.89,450.00 775.46,450.00 776.04,450.00 776.61,450.00 777.19,450.00 777.76,450.00 778.34,450.00 778.91,450.00 779.49,450.00 780.06,450.00 780.63,450.00 781.21,450.00 781.78,450.00 782.36,450.00 782.93,450.00 783.51,450.00 784.08,450.00 784.66,450.00 785.23,450.00 785.80,450.00 786.38,450.00 786.95,450.00 787.53,450.00 788.10,450.00 788.68,450.00 789.25,450.00 789.83,450.00 790.40,450.00 790.98,450.00 791.55,450.00 792.12,450.00 792.70,450.00 793.27,450.00 793.85,450.00 794.42,450.00 795.00,450.00 795.57,450.00 796.15,450.00 796.72,450.00 797.29,450.00 797.87,450.00 798.44,450.00 799.02,450.00 799.59,450.00 800.17,450.00 800.74,450.00 801.32,450.00 801.89,450.00 802.46,450.00 803.04,450.00 803.61,450.00 804.19,450.00 804.76,450.00 805.34,450.00 805.91,450.00 806.49,450.00 807.06,450.00 807.64,450.00 808.21,450.00 808.78,450.00 809.36,450.00 809.93,450.00 810.51,450.00 811.08,450.00 811.66,450.00 812.23,450.00 812.81,450.00 813.38,450.00 813.95,450.00 814.53,450.00 815.10,450.00 815.68,450.00 816.25,450.00 816.83,450.00 817.40,450.00 817.98,450.00 818.55,450.00 819.12,450.00 819.70,450.00 820.27,450.00 820.85,450.00 821.42,450.00 822.00,450.00 822.57,450.00 823.15,450.00 823.72,450.00 824.30,450.00 824.87,450.00 825.44,450.00 826.02,450.00 826.59,450.00 827.17,450.00 827.74,450.00 828.32,450.00 828.89,450.00 829.47,450.00 830.04,450.00 830.61,450.00 831.19,450.00 831.76,450.00 832.34,450.00 832.91,450.00 833.49,450.00 834.06,450.00 834.64,450.00 835.21,450.00 835.78,450.00 836.36,450.00 836.93,450.00 837.51,450.00 838.08,450.00 838.66,450.00 839.23,450.00 839.81,450.00 840.38,450.00 840.96,450.00 841.53,450.00 842.10,450.00 842.68,450.00 843.25,450.00 843.83,450.00 844.40,450.00 844.98,450.00 845.55,450.00 846.13,450.00 846.70,450.00 847.27,450.00 847.85,450.00 848.42,450.00 849.00,450.00 849.57,450.00 850.15,450.00 850.72,450.00 851.30,450.00 851.87,450.00 852.44,450.00 853.02,450.00 853.59,450.00 854.17,450.00 854.74,450.00 855.32,450.00 855.89,450.00 856.47,450.00 857.04,450.00 857.62,450.00 858.19,450.00 858.76,450.00 859.34,450.00 859.91,450.00 860.49,450.00 861.06,450.00 861.64,450.00 862.21,450.00 862.79,450.00 863.36,450.00 863.93,450.00 864.51,450.00 865.08,450.00 865.66,450.00 866.23,450.00 866.81,450.00 867.38,450.00 867.96,450.00 868.53,450.00 869.10,450.00 869.68,450.00 870.25,450.00 870.83,450.00 871.40,450.00 871.98,450.00 872.55,450.00 873.13,450.00 873.70,450.00 874.28,450.00 874.85,450.00 875.42,450.00 876.00,450.00 876.57,450.00 877.15,450.00 877.72,450.00 878.30,450.00 878.87,450.00 879.45,450.00 880.02,450.00 880.59,450.00 881.17,450.00 881.74,450.00 882.32,450.00 882.89,450.00 883.47,450.00 884.04,450.00 884.62,450.00 885.19,450.00 885.76,450.00 886.34,450.00 886.91,450.00 887.49,450.00 888.06,450.00 888.64,450.00 889.21,450.00 889.79,450.00 890.36,450.00 890.94,450.00 891.51,450.00 892.08,450.00 892.66,450.00 893.23,450.00 893.81,450.00 894.38,450.00 894.96,450.00 895.53,450.00 896.11,450.00 896.68,450.00 897.25,450.00 897.83,450.00 898.40,450.00 898.98,450.00 899.55,450.00 900.13,450.00 900.70,450.00 901.28,450.00 901.85,450.00 902.42,450.00 903.00,450.00 903.57,450.00 904.15,450.00 904.72,450.00 905.30,450.00 905.87,450.00 906.45,450.00 907.02,450.00 907.60,450.00 908.17,450.00 908.74,450.00 909.32,450.00 909.89,450.00 910.47,450.00 911.04,450.00 911.62,450.00 912.19,450.00 912.77,450.00 913.34,450.00 913.91,450.00 914.49,450.00 915.06,450.00 915.64,450.00 916.21,450.00 916.79,450.00 917.36,450.00 917.94,450.00 918.51,450.00 919.08,450.00 919.66,450.00 920.23,450.00 920.81,450.00 921.38,450.00 921.96,450.00 922.53,450.00 923.11,450.00 923.68,450.00 924.26,450.00 924.83,450.00 925.40,450.00 925.98,450.00 926.55,450.00 927.13,450.00 927.70,450.00 928.28,450.00 928.85,450.00 929.43,450.00 930.00,450.00" />
  <rect x="720" y="80" width="190" height="127" fill="#ffffff" stroke="#cccccc" stroke-width="1" rx="8" ry="8" />
  <line x1="732" y1="105" x2="762" y2="105" stroke="#2563eb" stroke-width="4" />
  <text x="770" y="110" font-size="14" font-family="Arial">base_data</text>
  <line x1="732" y1="133" x2="762" y2="133" stroke="#dc2626" stroke-width="4" />
  <text x="770" y="138" font-size="14" font-family="Arial">pruning_884</text>
  <line x1="732" y1="161" x2="762" y2="161" stroke="#16a34a" stroke-width="4" />
  <text x="770" y="166" font-size="14" font-family="Arial">pruning_mcts_885</text>
  <line x1="732" y1="189" x2="762" y2="189" stroke="#ea580c" stroke-width="4" />
  <text x="770" y="194" font-size="14" font-family="Arial">pruning_best885</text>
</svg>