<svg xmlns="http://www.w3.org/2000/svg" width="1000" height="520">
  <rect x="0" y="0" width="1000" height="520" fill="#ffffff" />
  <line x1="70" y1="450" x2="930" y2="450" stroke="#333333" stroke-width="2" />
  <line x1="70" y1="70" x2="70" y2="450" stroke="#333333" stroke-width="2" />
  <text x="500.0" y="35" text-anchor="middle" font-size="24" font-family="Arial">Policy Entropy Comparison</text>
  <text x="500.0" y="500" text-anchor="middle" font-size="16" font-family="Arial">Batch</text>
  <text x="28" y="260.0" text-anchor="middle" font-size="16" font-family="Arial" transform="rotate(-90 28 260.0)">Entropy</text>
  <text x="70" y="58" font-size="13" font-family="Arial">4.152</text>
  <text x="70" y="470" font-size="13" font-family="Arial">1.209</text>
  <text x="70" y="488" font-size="13" font-family="Arial">3</text>
  <text x="930" y="488" text-anchor="end" font-size="13" font-family="Arial">1500</text>
  <line x1="70" y1="146.00" x2="930" y2="146.00" stroke="#dddddd" stroke-width="1" stroke-dasharray="4,4" />
  <line x1="70" y1="222.00" x2="930" y2="222.00" stroke="#dddddd" stroke-width="1" stroke-dasharray="4,4" />
  <line x1="70" y1="298.00" x2="930" y2="298.00" stroke="#dddddd" stroke-width="1" stroke-dasharray="4,4" />
  <line x1="70" y1="374.00" x2="930" y2="374.00" stroke="#dddddd" stroke-width="1" stroke-dasharray="4,4" />
  <polyline fill="none" stroke="#2563eb" stroke-width="3" points="70.57,146.18 71.15,145.27 71.72,152.52 72.30,146.73 72.87,147.54 73.45,155.14 74.02,156.06 74.60,161.02 75.17,166.83 75.74,154.81 76.32,168.19 76.89,169.72 77.47,170.41 78.04,177.20 78.62,168.67 79.19,176.44 79.77,181.97 80.34,182.21 80.92,168.78 81.49,186.11 82.06,179.06 82.64,174.78 83.21,184.26 83.79,176.40 84.36,177.28 84.94,181.65 85.51,177.45 86.09,182.81 86.66,182.88 87.23,183.67 87.81,177.19 88.38,175.87 88.96,180.76 89.53,193.79 90.11,196.25 90.68,187.56 91.26,183.78 91.83,190.90 92.40,194.18 92.98,189.01 93.55,191.54 94.13,187.76 94.70,195.62 95.28,194.40 95.85,189.43 96.43,196.32 97.00,200.84 97.58,188.11 98.15,198.05 98.72,199.31 99.30,197.12 99.87,199.28 100.45,195.26 101.02,197.41 101.60,205.76 102.17,202.89 102.75,203.82 103.32,197.41 103.89,204.11 104.47,204.49 105.04,202.25 105.62,201.58 106.19,208.65 106.77,205.79 107.34,203.97 107.92,200.39 108.49,205.46 109.06,204.85 109.64,201.70 110.21,203.82 110.79,210.81 111.36,205.48 111.94,211.82 112.51,204.21 113.09,204.40 113.66,207.71 114.24,209.54 114.81,212.62 115.38,205.31 115.96,203.40 116.53,205.61 117.11,212.55 117.68,209.64 118.26,212.05 118.83,206.64 119.41,211.22 119.98,204.75 120.55,211.85 121.13,208.27 121.70,219.18 122.28,213.59 122.85,215.94 123.43,218.64 124.00,211.99 124.58,215.86 125.15,214.30 125.72,220.56 126.30,211.68 126.87,221.50 127.45,220.01 128.02,211.90 128.60,217.60 129.17,230.46 129.75,220.50 130.32,227.45 130.90,226.93 131.47,220.55 132.04,222.04 132.62,224.08 133.19,222.12 133.77,226.78 134.34,226.42 134.92,233.22 135.49,235.55 136.07,223.77 136.64,224.36 137.21,227.62 137.79,228.80 138.36,230.40 138.94,235.12 139.51,235.62 140.09,225.33 140.66,236.69 141.24,240.44 141.81,228.09 142.38,236.31 142.96,238.80 143.53,241.42 144.11,243.96 144.68,237.80 145.26,240.08 145.83,243.58 146.41,242.63 146.98,238.03 147.56,235.37 148.13,244.46 148.70,240.92 149.28,249.53 149.85,240.20 150.43,249.81 151.00,259.23 151.58,250.81 152.15,243.65 152.73,245.97 153.30,248.02 153.87,246.73 154.45,241.05 155.02,260.52 155.60,255.53 156.17,252.75 156.75,246.62 157.32,247.51 157.90,244.29 158.47,247.81 159.04,261.00 159.62,245.87 160.19,254.48 160.77,248.44 161.34,245.10 161.92,253.26 162.49,251.88 163.07,266.15 163.64,248.06 164.22,270.17 164.79,257.15 165.36,257.08 165.94,256.47 166.51,259.87 167.09,261.10 167.66,258.36 168.24,261.35 168.81,262.67 169.39,255.70 169.96,259.23 170.53,264.91 171.11,269.83 171.68,268.00 172.26,276.45 172.83,265.65 173.41,271.31 173.98,269.86 174.56,261.44 175.13,268.72 175.70,275.14 176.28,271.55 176.85,276.18 177.43,269.03 178.00,266.80 178.58,270.54 179.15,265.59 179.73,273.30 180.30,276.09 180.88,276.49 181.45,273.20 182.02,264.61 182.60,278.32 183.17,274.91 183.75,271.61 184.32,276.51 184.90,275.32 185.47,275.50 186.05,274.64 186.62,275.37 187.19,278.29 187.77,273.75 188.34,275.79 188.92,279.61 189.49,268.99 190.07,277.70 190.64,271.46 191.22,274.02 191.79,272.69 192.36,282.31 192.94,282.08 193.51,276.87 194.09,276.97 194.66,281.01 195.24,277.14 195.81,286.73 196.39,277.86 196.96,274.24 197.54,283.64 198.11,281.52 198.68,285.11 199.26,290.36 199.83,285.41 200.41,290.09 200.98,289.01 201.56,292.05 202.13,291.32 202.71,294.96 203.28,294.77 203.85,298.08 204.43,300.74 205.00,294.71 205.58,285.48 206.15,295.64 206.73,292.95 207.30,301.36 207.88,290.89 208.45,290.96 209.02,300.31 209.60,299.21 210.17,307.03 210.75,300.13 211.32,309.38 211.90,299.20 212.47,298.92 213.05,294.74 213.62,303.21 214.20,303.84 214.77,310.39 215.34,309.49 215.92,303.10 216.49,302.97 217.07,299.97 217.64,296.59 218.22,305.86 218.79,305.26 219.37,309.92 219.94,309.21 220.51,306.87 221.09,308.05 221.66,308.96 222.24,319.35 222.81,309.00 223.39,326.99 223.96,317.19 224.54,318.18 225.11,311.12 225.68,313.61 226.26,317.41 226.83,318.69 227.41,314.16 227.98,320.94 228.56,320.93 229.13,318.05 229.71,328.03 230.28,314.62 230.86,319.53 231.43,319.04 232.00,317.58 232.58,326.92 233.15,312.52 233.73,320.68 234.30,323.90 234.88,335.76 235.45,328.13 236.03,328.34 236.60,331.90 237.17,328.32 237.75,335.93 238.32,322.57 238.90,340.83 239.47,329.90 240.05,325.91 240.62,333.28 241.20,326.70 241.77,324.71 242.34,345.00 242.92,329.57 243.49,341.67 244.07,336.07 244.64,334.66 245.22,341.05 245.79,335.72 246.37,338.34 246.94,337.64 247.52,352.47 248.09,337.00 248.66,334.40 249.24,345.54 249.81,344.83 250.39,346.41 250.96,347.02 251.54,349.01 252.11,352.59 252.69,341.54 253.26,353.98 253.83,352.86 254.41,345.70 254.98,355.38 255.56,345.04 256.13,354.99 256.71,353.00 257.28,355.46 257.86,349.97 258.43,360.50 259.00,350.22 259.58,357.08 260.15,349.02 260.73,359.46 261.30,351.11 261.88,354.40 262.45,361.84 263.03,363.09 263.60,360.63 264.18,363.28 264.75,354.15 265.32,357.52 265.90,360.74 266.47,358.43 267.05,356.69 267.62,366.64 268.20,355.25 268.77,362.79 269.35,362.25 269.92,364.56 270.49,359.30 271.07,358.22 271.64,367.91 272.22,362.53 272.79,363.17 273.37,365.93 273.94,375.33 274.52,364.78 275.09,367.81 275.66,369.39 276.24,373.10 276.81,364.75 277.39,373.88 277.96,363.21 278.54,372.28 279.11,366.31 279.69,368.03 280.26,364.83 280.84,369.78 281.41,378.43 281.98,367.60 282.56,379.59 283.13,366.43 283.71,361.61 284.28,381.67 284.86,372.22 285.43,377.09 286.01,369.51 286.58,376.56 287.15,368.19 287.73,370.17 288.30,371.80 288.88,381.82 289.45,367.96 290.03,378.27 290.60,381.66 291.18,377.59 291.75,376.53 292.32,367.68 292.90,368.50 293.47,373.23 294.05,371.57 294.62,372.28 295.20,372.53 295.77,370.53 296.35,367.39 296.92,370.97 297.49,369.11 298.07,372.41 298.64,383.44 299.22,367.52 299.79,368.55 300.37,365.74 300.94,379.58 301.52,382.23 302.09,379.36 302.67,388.71 303.24,368.82 303.81,374.34 304.39,370.27 304.96,380.68 305.54,375.62 306.11,373.38 306.69,382.29 307.26,377.47 307.84,378.05 308.41,373.26 308.98,378.35 309.56,385.77 310.13,381.43 310.71,382.90 311.28,379.47 311.86,386.08 312.43,377.54 313.01,379.97 313.58,380.25 314.15,377.11 314.73,380.39 315.30,377.01 315.88,386.35 316.45,380.27 317.03,385.74 317.60,382.99 318.18,387.21 318.75,388.80 319.33,378.70 319.90,384.89 320.47,382.97 321.05,383.67 321.62,385.87 322.20,390.28 322.77,380.98 323.35,387.21 323.92,390.48 324.50,385.18 325.07,387.00 325.64,382.59 326.22,384.80 326.79,388.09 327.37,385.35 327.94,389.48 328.52,381.91 329.09,381.98 329.67,380.02 330.24,391.49 330.81,388.07 331.39,388.41 331.96,392.61 332.54,387.15 333.11,386.75 333.69,384.71 334.26,384.86 334.84,393.34 335.41,388.85 335.99,391.28 336.56,383.97 337.13,389.60 337.71,387.81 338.28,396.95 338.86,383.86 339.43,391.74 340.01,394.52 340.58,397.11 341.16,386.78 341.73,387.91 342.30,391.97 342.88,389.72 343.45,400.06 344.03,387.82 344.60,395.48 345.18,392.15 345.75,400.09 346.33,392.99 346.90,389.33 347.47,396.18 348.05,395.60 348.62,393.77 349.20,394.80 349.77,400.87 350.35,402.46 350.92,397.45 351.50,399.75 352.07,400.28 352.65,403.75 353.22,392.84 353.79,402.15 354.37,398.31 354.94,404.08 355.52,403.64 356.09,399.83 356.67,406.29 357.24,397.79 357.82,404.32 358.39,400.95 358.96,397.49 359.54,395.49 360.11,405.66 360.69,399.97 361.26,402.46 361.84,395.05 362.41,405.31 362.99,397.22 363.56,403.50 364.13,402.18 364.71,406.96 365.28,400.68 365.86,397.53 366.43,412.91 367.01,405.57 367.58,398.69 368.16,408.94 368.73,402.28 369.31,409.59 369.88,400.57 370.45,408.75 371.03,409.07 371.60,404.66 372.18,410.22 372.75,407.60 373.33,412.91 373.90,408.56 374.48,410.22 375.05,406.52 375.62,401.42 376.20,399.86 376.77,409.75 377.35,405.18 377.92,408.38 378.50,407.85 379.07,405.76 379.65,404.20 380.22,405.14 380.79,405.94 381.37,411.05 381.94,419.32 382.52,414.90 383.09,410.51 383.67,419.23 384.24,404.23 384.82,410.87 385.39,409.79 385.97,406.09 386.54,413.69 387.11,413.83 387.69,401.87 388.26,409.64 388.84,411.76 389.41,409.50 389.99,405.94 390.56,410.79 391.14,414.09 391.71,411.17 392.28,413.62 392.86,410.24 393.43,416.04 394.01,417.82 394.58,408.42 395.16,413.48 395.73,417.52 396.31,406.11 396.88,416.65 397.45,417.03 398.03,413.36 398.60,415.39 399.18,413.91 399.75,410.16 400.33,412.71 400.90,422.25 401.48,419.45 402.05,422.82 402.63,416.02 403.20,416.32 403.77,416.20 404.35,417.68 404.92,421.99 405.50,417.87 406.07,419.70 406.65,424.01 407.22,420.15 407.80,426.70 408.37,420.88 408.94,410.73 409.52,416.17 410.09,413.85 410.67,415.85 411.24,418.71 411.82,413.35 412.39,417.95 412.97,418.20 413.54,414.92 414.11,407.27 414.69,420.56 415.26,413.80 415.84,419.82 416.41,420.66 416.99,420.43 417.56,420.59 418.14,422.10 418.71,416.31 419.29,420.15 419.86,414.26 420.43,422.94 421.01,419.99 421.58,416.72 422.16,420.53 422.73,419.22 423.31,419.81 423.88,419.28 424.46,420.22 425.03,414.65 425.60,421.88 426.18,421.31 426.75,425.56 427.33,424.17 427.90,419.22 428.48,429.61 429.05,421.09 429.63,430.35 430.20,427.36 430.77,419.26 431.35,417.57 431.92,421.61 432.50,422.92 433.07,422.60 433.65,426.31 434.22,426.00 434.80,412.31 435.37,418.55 435.95,418.65 436.52,427.30 437.09,412.71 437.67,429.08 438.24,418.72 438.82,411.67 439.39,418.60 439.97,410.41 440.54,419.36 441.12,420.49 441.69,421.73 442.26,423.61 442.84,418.74 443.41,424.27 443.99,413.61 444.56,421.90 445.14,425.91 445.71,420.86 446.29,415.25 446.86,419.36 447.43,416.51 448.01,425.31 448.58,420.08 449.16,433.29 449.73,419.88 450.31,418.53 450.88,419.47 451.46,423.87 452.03,419.69 452.61,425.10 453.18,430.05 453.75,428.58 454.33,430.75 454.90,421.83 455.48,425.66 456.05,423.38 456.63,423.09 457.20,425.41 457.78,423.74 458.35,426.91 458.92,418.34 459.50,430.29 460.07,425.98 460.65,423.47 461.22,430.30 461.80,421.08 462.37,429.20 462.95,430.44 463.52,422.49 464.09,427.09 464.67,424.38 465.24,428.33 465.82,426.76 466.39,434.25 466.97,438.24 467.54,439.95 468.12,430.41 468.69,415.16 469.27,426.43 469.84,429.83 470.41,426.25 470.99,426.28 471.56,418.99 472.14,418.94 472.71,431.05 473.29,420.18 473.86,430.29 474.44,427.87 475.01,434.99 475.58,426.18 476.16,423.31 476.73,427.35 477.31,432.27 477.88,432.65 478.46,435.41 479.03,427.86 479.61,428.87 480.18,425.03 480.75,431.21 481.33,433.20 481.90,434.78 482.48,433.24 483.05,430.65 483.63,432.17 484.20,422.68 484.78,434.09 485.35,424.35 485.93,431.22 486.50,429.92 487.07,431.36 487.65,427.85 488.22,431.10 488.80,427.71 489.37,432.90 489.95,434.73 490.52,435.95 491.10,428.46 491.67,433.47 492.24,436.40 492.82,429.69 493.39,431.67 493.97,426.25 494.54,433.88 495.12,435.27 495.69,434.11 496.27,422.73 496.84,429.29 497.41,428.93 497.99,433.42 498.56,432.49 499.14,435.69 499.71,430.25 500.29,438.21 500.86,426.97 501.44,429.35 502.01,428.39 502.59,431.44 503.16,444.53 503.73,432.25 504.31,435.41 504.88,428.29 505.46,432.62 506.03,435.73 506.61,430.88 507.18,431.00 507.76,436.13 508.33,428.79 508.90,434.52 509.48,428.95 510.05,437.05 510.63,427.82 511.20,428.01 511.78,430.44 512.35,438.74 512.93,434.22 513.50,434.10 514.07,430.93 514.65,431.78 515.22,424.90 515.80,436.07 516.37,430.21 516.95,434.72 517.52,428.39 518.10,435.92 518.67,439.76 519.25,429.08 519.82,443.11 520.39,435.85 520.97,435.57 521.54,441.48 522.12,438.13 522.69,432.12 523.27,426.16 523.84,443.62 524.42,441.57 524.99,435.17 525.56,427.91 526.14,428.68 526.71,436.47 527.29,436.35 527.86,423.65 528.44,425.86 529.01,440.23 529.59,434.31 530.16,442.85 530.73,432.13 531.31,437.20 531.88,436.89 532.46,441.04 533.03,437.96 533.61,436.00 534.18,432.95 534.76,438.00 535.33,436.69 535.91,435.77 536.48,437.36 537.05,432.90 537.63,433.49 538.20,443.05 538.78,429.92 539.35,427.60 539.93,442.05 540.50,429.33 541.08,436.82 541.65,444.66 542.22,432.18 542.80,439.77 543.37,434.84 543.95,434.45 544.52,443.92 545.10,437.02 545.67,438.37 546.25,445.10 546.82,447.26 547.39,436.37 547.97,434.90 548.54,437.74 549.12,437.87 549.69,435.70 550.27,442.96 550.84,432.28 551.42,433.58 551.99,444.51 552.57,441.87 553.14,441.94 553.71,439.35 554.29,441.89 554.86,441.31 555.44,443.21 556.01,437.19 556.59,446.74 557.16,434.63 557.74,442.54 558.31,443.69 558.88,429.68 559.46,445.94 560.03,430.39 560.61,437.32 561.18,440.64 561.76,439.20 562.33,439.97 562.91,440.76 563.48,435.47 564.05,437.54 564.63,450.00 565.20,429.69 565.78,442.98 566.35,434.09 566.93,441.53 567.50,439.79 568.08,427.27 568.65,441.19 569.23,435.80 569.80,435.27 570.37,441.03 570.95,434.16 571.52,439.66 572.10,437.17 572.67,445.46 573.25,438.16 573.82,438.17 574.40,433.49 574.97,436.17 575.54,432.45 576.12,436.10 576.69,433.70 577.27,431.40 577.84,443.31 578.42,434.84 578.99,433.39 579.57,438.09 580.14,445.44 580.71,436.52 581.29,434.78 581.86,445.29 582.44,440.57 583.01,442.00 583.59,440.14 584.16,432.98 584.74,434.74 585.31,439.65 585.89,434.98 586.46,433.21 587.03,438.96 587.61,443.58 588.18,436.98 588.76,437.85 589.33,438.29 589.91,425.86 590.48,431.27 591.06,436.48 591.63,430.58 592.20,431.74 592.78,441.42 593.35,441.68 593.93,437.73 594.50,430.78 595.08,430.66 595.65,440.33 596.23,431.84 596.80,434.90 597.37,431.23 597.95,430.51 598.52,433.68 599.10,443.00 599.67,436.98 600.25,441.66 600.82,430.78 601.40,429.03 601.97,426.73 602.55,426.91 603.12,431.48 603.69,435.06 604.27,423.61 604.84,435.31 605.42,439.97 605.99,436.82 606.57,433.52 607.14,428.64 607.72,430.59 608.29,432.56 608.86,422.97 609.44,429.71 610.01,428.99 610.59,434.89 611.16,420.03 611.74,429.21 612.31,434.14 612.89,430.39 613.46,429.38 614.03,426.17 614.61,431.05 615.18,435.08 615.76,429.17 616.33,432.68 616.91,429.15 617.48,434.18 618.06,433.02 618.63,427.61 619.21,425.28 619.78,424.34 620.35,425.15 620.93,436.05 621.50,417.20 622.08,429.48 622.65,431.10 623.23,428.00 623.80,426.69 624.38,432.04 624.95,423.49 625.52,420.06 626.10,420.46 626.67,425.64 627.25,436.66 627.82,430.95 628.40,425.38 628.97,420.23 629.55,422.08 630.12,427.60 630.69,435.38 631.27,413.82 631.84,418.74 632.42,422.13 632.99,424.32 633.57,417.25 634.14,426.84 634.72,426.99 635.29,414.90 635.87,426.03 636.44,422.46 637.01,424.21 637.59,426.44 638.16,430.64 638.74,423.89 639.31,415.16 639.89,426.08 640.46,415.59 641.04,417.29 641.61,421.86 642.18,429.19 642.76,426.99 643.33,420.66 643.91,411.78 644.48,421.01 645.06,420.90 645.63,427.65 646.21,423.92 646.78,417.95 647.35,425.38 647.93,419.09 648.50,427.65 649.08,428.66 649.65,425.79 650.23,432.62 650.80,423.41 651.38,427.03 651.95,430.63 652.53,423.86 653.10,419.07 653.67,427.78 654.25,430.76 654.82,427.12 655.40,417.34 655.97,422.05 656.55,419.87 657.12,428.78 657.70,419.69 658.27,419.20 658.84,428.28 659.42,423.44 659.99,431.68 660.57,425.57 661.14,422.20 661.72,416.78 662.29,424.86 662.87,425.84 663.44,428.04 664.01,432.03 664.59,431.50 665.16,423.57 665.74,424.72 666.31,431.36 666.89,428.58 667.46,419.38 668.04,433.01 668.61,425.95 669.19,421.89 669.76,421.46 670.33,424.12 670.91,419.21 671.48,419.78 672.06,420.24 672.63,419.11 673.21,429.70 673.78,431.23 674.36,432.85 674.93,418.10 675.50,426.75 676.08,433.07 676.65,429.65 677.23,430.99 677.80,436.22 678.38,432.59 678.95,431.95 679.53,425.11 680.10,433.39 680.67,428.31 681.25,430.15 681.82,424.82 682.40,435.16 682.97,426.12 683.55,427.21 684.12,439.63 684.70,432.80 685.27,428.62 685.85,421.04 686.42,425.41 686.99,440.97 687.57,429.27 688.14,434.33 688.72,439.57 689.29,433.11 689.87,427.77 690.44,434.38 691.02,423.36 691.59,422.74 692.16,423.75 692.74,433.14 693.31,426.52 693.89,437.48 694.46,437.63 695.04,429.73 695.61,429.24 696.19,436.35 696.76,431.99 697.33,428.21 697.91,422.82 698.48,432.36 699.06,435.61 699.63,430.52 700.21,436.95 700.78,428.29 701.36,422.65 701.93,433.21 702.51,430.97 703.08,437.78 703.65,433.05 704.23,422.70 704.80,423.37 705.38,435.43 705.95,429.96 706.53,425.21 707.10,426.86 707.68,427.34 708.25,430.20 708.82,434.79 709.40,431.43 709.97,433.93 710.55,442.60 711.12,437.71 711.70,437.29 712.27,431.85 712.85,431.52 713.42,429.93 713.99,427.90 714.57,435.14 715.14,433.73 715.72,434.45 716.29,420.29 716.87,428.13 717.44,417.03 718.02,425.34 718.59,431.62 719.16,422.95 719.74,431.66 720.31,435.91 720.89,424.57 721.46,425.89 722.04,429.50 722.61,434.83 723.19,430.23 723.76,431.51 724.34,425.21 724.91,425.55 725.48,429.45 726.06,433.60 726.63,433.32 727.21,432.11 727.78,422.66 728.36,434.40 728.93,428.56 729.51,434.11 730.08,428.60 730.65,437.72 731.23,429.04 731.80,423.92 732.38,422.78 732.95,439.25 733.53,430.89 734.10,430.68 734.68,431.24 735.25,430.12 735.82,427.41 736.40,426.08 736.97,433.25 737.55,421.59 738.12,429.78 738.70,426.67 739.27,432.94 739.85,426.70 740.42,425.99 741.00,431.47 741.57,427.00 742.14,428.36 742.72,425.89 743.29,424.87 743.87,435.16 744.44,431.49 745.02,425.42 745.59,437.56 746.17,427.21 746.74,430.14 747.31,431.68 747.89,428.00 748.46,437.99 749.04,423.67 749.61,422.98 750.19,428.63 750.76,432.05 751.34,428.29 751.91,430.31 752.48,430.12 753.06,424.62 753.63,432.75 754.21,434.63 754.78,440.71 755.36,429.10 755.93,436.28 756.51,430.94 757.08,423.52 757.66,430.22 758.23,428.07 758.80,440.34 759.38,423.57 759.95,430.69 760.53,428.51 761.10,425.76 761.68,429.40 762.25,436.87 762.83,425.97 763.40,437.01 763.97,436.75 764.55,438.47 765.12,429.26 765.70,421.82 766.27,426.86 766.85,429.17 767.42,431.57 768.00,422.80 768.57,430.42 769.14,424.13 769.72,430.63 770.29,426.82 770.87,430.54 771.44,427.86 772.02,425.58 772.59,429.90 773.17,427.63 773.74,427.03 774.32,439.38 774.89,423.12 775.46,431.65 776.04,426.60 776.61,428.14 777.19,423.20 777.76,424.01 778.34,429.08 778.91,429.87 779.49,431.12 780.06,436.85 780.63,422.06 781.21,430.75 781.78,432.25 782.36,426.49 782.93,428.81 783.51,427.92 784.08,420.97 784.66,422.62 785.23,430.12 785.80,419.00 786.38,423.02 786.95,421.87 787.53,429.65 788.10,425.80 788.68,439.13 789.25,433.32 789.83,426.52 790.40,433.72 790.98,423.31 791.55,426.09 792.12,417.76 792.70,421.77 793.27,429.22 793.85,423.54 794.42,426.87 795.00,426.97 795.57,430.41 796.15,425.87 796.72,424.45 797.29,421.07 797.87,422.53 798.44,431.81 799.02,424.21 799.59,434.30 800.17,430.50 800.74,428.41 801.32,430.79 801.89,437.69 802.46,428.10 803.04,411.97 803.61,416.66 804.19,431.12 804.76,424.25 805.34,421.08 805.91,424.60 806.49,423.43 807.06,428.50 807.64,428.40 808.21,427.16 808.78,431.93 809.36,425.46 809.93,424.97 810.51,429.46 811.08,427.62 811.66,428.71 812.23,431.65 812.81,426.64 813.38,431.23 813.95,437.49 814.53,435.52 815.10,424.66 815.68,424.93 816.25,426.30 816.83,434.08 817.40,419.56 817.98,433.71 818.55,436.26 819.12,428.06 819.70,430.75 820.27,438.36 820.85,430.06 821.42,423.43 822.00,419.57 822.57,439.31 823.15,426.10 823.72,425.06 824.30,425.05 824.87,424.61 825.44,437.74 826.02,429.81 826.59,435.49 827.17,430.48 827.74,428.77 828.32,425.81 828.89,429.10 829.47,419.70 830.04,426.80 830.61,430.60 831.19,434.56 831.76,422.48 832.34,435.69 832.91,430.04 833.49,428.67 834.06,431.14 834.64,421.47 835.21,430.93 835.78,428.88 836.36,420.08 836.93,421.55 837.51,428.02 838.08,430.89 838.66,416.46 839.23,423.79 839.81,437.60 840.38,428.12 840.96,428.67 841.53,429.68 842.10,430.47 842.68,432.27 843.25,432.37 843.83,422.59 844.40,422.16 844.98,433.27 845.55,427.42 846.13,431.31 846.70,428.78 847.27,423.59 847.85,432.33 848.42,427.92 849.00,425.66 849.57,428.61 850.15,428.82 850.72,420.17 851.30,424.18 851.87,420.34 852.44,422.98 853.02,428.77 853.59,427.03 854.17,425.87 854.74,425.14 855.32,425.23 855.89,422.09 856.47,432.46 857.04,420.59 857.62,415.75 858.19,424.48 858.76,420.00 859.34,421.84 859.91,416.04 860.49,411.36 861.06,432.24 861.64,420.67 862.21,427.67 862.79,423.74 863.36,425.20 863.93,430.79 864.51,426.97 865.08,420.53 865.66,428.61 866.23,421.03 866.81,431.11 867.38,420.82 867.96,429.30 868.53,426.25 869.10,428.09 869.68,417.56 870.25,425.91 870.83,424.25 871.40,429.55 871.98,428.45 872.55,424.84 873.13,424.32 873.70,416.27 874.28,423.52 874.85,422.49 875.42,424.21 876.00,418.02 876.57,433.09 877.15,433.87 877.72,425.38 878.30,422.15 878.87,417.16 879.45,429.65 880.02,418.97 880.59,421.44 881.17,423.10 881.74,429.95 882.32,419.73 882.89,425.54 883.47,420.23 884.04,426.05 884.62,419.70 885.19,423.92 885.76,415.38 886.34,417.64 886.91,421.32 887.49,426.28 888.06,428.34 888.64,417.76 889.21,424.25 889.79,429.39 890.36,431.65 890.94,428.13 891.51,421.50 892.08,425.73 892.66,424.97 893.23,422.03 893.81,430.50 894.38,416.28 894.96,400.31 895.53,422.14 896.11,428.79 896.68,424.14 897.25,435.04 897.83,427.89 898.40,418.74 898.98,417.58 899.55,423.77 900.13,424.57 900.70,428.88 901.28,425.02 901.85,432.74 902.42,435.71 903.00,427.06 903.57,422.25 904.15,418.90 904.72,419.30 905.30,429.38 905.87,431.18 906.45,426.13 907.02,427.97 907.60,427.45 908.17,435.24 908.74,421.28 909.32,429.45 909.89,426.86 910.47,423.21 911.04,422.51 911.62,425.71 912.19,435.96 912.77,427.85 913.34,428.01 913.91,424.06 914.49,429.43 915.06,431.71 915.64,427.34 916.21,427.78 916.79,424.94 917.36,429.96 917.94,436.58 918.51,424.09 919.08,420.86 919.66,428.31 920.23,432.22 920.81,432.90 921.38,436.57 921.96,432.73 922.53,432.25 923.11,425.08 923.68,434.57 924.26,428.84 924.83,428.59 925.40,427.75 925.98,444.93 926.55,440.23 927.13,436.22 927.70,425.98 928.28,431.09 928.85,429.38 929.43,440.22 930.00,429.95" />
  <polyline fill="none" stroke="#dc2626" stroke-width="3" points="70.00,70.00 70.57,85.05 71.15,93.00 71.72,102.87 72.30,106.53 72.87,112.40 73.45,115.20 74.02,117.58 74.60,119.81 75.17,124.75 75.74,130.49 76.32,121.18 76.89,130.67 77.47,133.63 78.04,131.10 78.62,134.83 79.19,139.26 79.77,139.59 80.34,138.69 80.92,142.27 81.49,149.09 82.06,151.77 82.64,150.30 83.21,154.22 83.79,154.85 84.36,157.37 84.94,160.02 85.51,163.12 86.09,164.84 86.66,164.12 87.23,169.95 87.81,169.81 88.38,172.77 88.96,168.83 89.53,166.81 90.11,172.36 90.68,175.44 91.26,179.97 91.83,181.61 92.40,179.06 92.98,181.34 93.55,176.86 94.13,182.73 94.70,185.36 95.28,185.19 95.85,184.79 96.43,185.91 97.00,189.29 97.58,188.44 98.15,188.20 98.72,188.09 99.30,191.85 99.87,191.36 100.45,189.52 101.02,189.66 101.60,197.53 102.17,194.28 102.75,187.66 103.32,193.84 103.89,195.11 104.47,189.67 105.04,194.12 105.62,191.74 106.19,193.37 106.77,194.22 107.34,202.62 107.92,195.24 108.49,200.47 109.06,192.61 109.64,196.99 110.21,195.46 110.79,201.19 111.36,198.18 111.94,194.69 112.51,207.50 113.09,198.37 113.66,197.82 114.24,198.34 114.81,197.81 115.38,200.88 115.96,201.21 116.53,197.82 117.11,207.63 117.68,196.95 118.26,209.52 118.83,211.96 119.41,209.70 119.98,206.74 120.55,211.64 121.13,203.62 121.70,212.50 122.28,209.37 122.85,214.27 123.43,208.57 124.00,211.22 124.58,211.94 125.15,212.04 125.72,208.32 126.30,213.04 126.87,210.99 127.45,216.54 128.02,220.90 128.60,211.50 129.17,211.54 129.75,215.59 130.32,218.29 130.90,216.00 131.47,216.11 132.04,217.69 132.62,218.79 133.19,216.05 133.77,220.19 134.34,216.15 134.92,221.55 135.49,222.18 136.07,215.16 136.64,221.25 137.21,215.19 137.79,222.14 138.36,220.80 138.94,219.73 139.51,225.12 140.09,225.03 140.66,223.81 141.24,229.32 141.81,222.47 142.38,229.79 142.96,228.81 143.53,224.19 144.11,231.16 144.68,235.55 145.26,225.06 145.83,233.31 146.41,232.87 146.98,228.32 147.56,234.37 148.13,239.27 148.70,227.11 149.28,244.50 149.85,225.47 150.43,239.80 151.00,235.43 151.58,244.37 152.15,234.71 152.73,239.53 153.30,246.66 153.87,229.67 154.45,234.63 155.02,237.63 155.60,244.39 156.17,240.48 156.75,236.82 157.32,238.69 157.90,241.99 158.47,242.60 159.04,241.85 159.62,237.85 160.19,237.64 160.77,240.95 161.34,235.82 161.92,245.38 162.49,234.73 163.07,249.21 163.64,242.41 164.22,249.75 164.79,243.79 165.36,244.46 165.94,249.53 166.51,237.04 167.09,252.46 167.66,239.55 168.24,246.67 168.81,246.91 169.39,245.02 169.96,248.03 170.53,248.35 171.11,252.71 171.68,243.36 172.26,255.05 172.83,244.34 173.41,250.03 173.98,240.69 174.56,249.27 175.13,254.35 175.70,252.02 176.28,248.61 176.85,255.58 177.43,248.49 178.00,256.25 178.58,246.14 179.15,255.58 179.73,248.84 180.30,256.77 180.88,252.29 181.45,255.43 182.02,253.34 182.60,254.19 183.17,252.01 183.75,256.96 184.32,254.93 184.90,263.70 185.47,256.09 186.05,256.36 186.62,265.54 187.19,251.52 187.77,262.80 188.34,260.88 188.92,264.27 189.49,258.63 190.07,261.69 190.64,261.80 191.22,261.98 191.79,261.41 192.36,256.73 192.94,258.39 193.51,255.79 194.09,262.29 194.66,266.84 195.24,272.71 195.81,259.30 196.39,265.02 196.96,267.13 197.54,259.48 198.11,262.13 198.68,270.17 199.26,268.05 199.83,273.03 200.41,268.15 200.98,261.90 201.56,261.43 202.13,274.75 202.71,268.46 203.28,270.59 203.85,266.10 204.43,263.02 205.00,270.44 205.58,266.36 206.15,270.97 206.73,261.00 207.30,269.57 207.88,270.72 208.45,267.80 209.02,281.10 209.60,263.07 210.17,274.65 210.75,260.17 211.32,268.71 211.90,264.30 212.47,264.28 213.05,268.70 213.62,275.37 214.20,270.71 214.77,270.70 215.34,271.51 215.92,264.03 216.49,273.90 217.07,273.44 217.64,271.78 218.22,262.45 218.79,273.93 219.37,267.55 219.94,279.54 220.51,276.05 221.09,277.17 221.66,275.89 222.24,276.85 222.81,277.61 223.39,266.97 223.96,282.68 224.54,276.52 225.11,280.06 225.68,280.96 226.26,276.75 226.83,274.68 227.41,279.42 227.98,279.27 228.56,276.42 229.13,283.59 229.71,282.92 230.28,280.75 230.86,282.16 231.43,284.75 232.00,285.40 232.58,282.00 233.15,281.89 233.73,277.44 234.30,290.95 234.88,283.96 235.45,283.70 236.03,287.69 236.60,286.41 237.17,277.66 237.75,277.86 238.32,287.36 238.90,283.48 239.47,292.80 240.05,281.45 240.62,282.57 241.20,287.13 241.77,292.92 242.34,281.09 242.92,282.42 243.49,297.26 244.07,282.55 244.64,274.60 245.22,283.27 245.79,287.37 246.37,280.74 246.94,283.35 247.52,284.19 248.09,292.67 248.66,277.92 249.24,287.79 249.81,281.38 250.39,289.18 250.96,287.16 251.54,293.48 252.11,285.38 252.69,287.04 253.26,292.91 253.83,286.65 254.41,290.66 254.98,289.77 255.56,289.16 256.13,291.03 256.71,284.56 257.28,288.98 257.86,293.90 258.43,288.47 259.00,284.02 259.58,301.37 260.15,301.75 260.73,287.70 261.30,298.54 261.88,292.51 262.45,298.23 263.03,294.43 263.60,298.94 264.18,297.25 264.75,295.19 265.32,293.68 265.90,294.52 266.47,297.60 267.05,302.55 267.62,304.33 268.20,298.84 268.77,301.33 269.35,308.59 269.92,300.82 270.49,307.84 271.07,309.40 271.64,307.62 272.22,299.89 272.79,305.98 273.37,307.00 273.94,301.17 274.52,314.98 275.09,300.50 275.66,300.56 276.24,299.69 276.81,311.82 277.39,311.89 277.96,303.64 278.54,301.58 279.11,316.00 279.69,312.89 280.26,314.13 280.84,311.30 281.41,307.35 281.98,307.44 282.56,309.45 283.13,312.84 283.71,314.15 284.28,317.63 284.86,303.65 285.43,320.79 286.01,313.31 286.58,314.28 287.15,318.65 287.73,313.03 288.30,313.27 288.88,314.12 289.45,316.16 290.03,312.94 290.60,315.17 291.18,317.57 291.75,318.60 292.32,313.52 292.90,318.65 293.47,312.78 294.05,319.60 294.62,327.15 295.20,326.18 295.77,323.73 296.35,319.35 296.92,326.03 297.49,319.44 298.07,323.59 298.64,320.79 299.22,324.56 299.79,327.37 300.37,315.13 300.94,323.34 301.52,323.42 302.09,328.20 302.67,324.69 303.24,328.40 303.81,330.08 304.39,324.16 304.96,337.13 305.54,329.70 306.11,329.89 306.69,331.92 307.26,331.07 307.84,330.38 308.41,334.06 308.98,332.65 309.56,332.73 310.13,335.05 310.71,334.91 311.28,335.32 311.86,336.67 312.43,341.43 313.01,340.53 313.58,338.84 314.15,344.30 314.73,343.41 315.30,341.95 315.88,343.28 316.45,338.14 317.03,342.75 317.60,337.79 318.18,336.69 318.75,335.15 319.33,337.02 319.90,343.71 320.47,343.73 321.05,337.50 321.62,345.30 322.20,341.86 322.77,348.00 323.35,344.75 323.92,340.70 324.50,347.88 325.07,343.37 325.64,343.60 326.22,346.15 326.79,342.64 327.37,338.10 327.94,349.19 328.52,342.64 329.09,340.39 329.67,351.01 330.24,342.16 330.81,344.63 331.39,351.23 331.96,342.59 332.54,343.40 333.11,347.17 333.69,346.27 334.26,348.24 334.84,351.61 335.41,357.00 335.99,339.64 336.56,348.07 337.13,357.39 337.71,347.08 338.28,348.84 338.86,343.38 339.43,349.92 340.01,341.67 340.58,346.95 341.16,343.43 341.73,350.09 342.30,349.21 342.88,351.37 343.45,335.46 344.03,348.28 344.60,343.99 345.18,350.54 345.75,342.71 346.33,351.64 346.90,349.32 347.47,345.57 348.05,344.66 348.62,346.75 349.20,346.32 349.77,353.47 350.35,352.10 350.92,353.32 351.50,352.75 352.07,353.30 352.65,349.16 353.22,360.07 353.79,350.48 354.37,354.28 354.94,357.27 355.52,347.13 356.09,354.31 356.67,356.32 357.24,348.59 357.82,355.36 358.39,351.93 358.96,358.04 359.54,350.01 360.11,359.63 360.69,350.11 361.26,356.56 361.84,346.29 362.41,356.82 362.99,356.34 363.56,358.33 364.13,351.14 364.71,361.66 365.28,349.84 365.86,352.11 366.43,348.69 367.01,347.95 367.58,354.90 368.16,345.13 368.73,346.01 369.31,358.17 369.88,357.87 370.45,347.41 371.03,357.90 371.60,348.62 372.18,347.63 372.75,353.50 373.33,348.76 373.90,358.98 374.48,355.26 375.05,353.82 375.62,350.38 376.20,355.34 376.77,354.39 377.35,348.32 377.92,356.94 378.50,358.05 379.07,355.21 379.65,349.00 380.22,351.51 380.79,356.62 381.37,347.92 381.94,360.14 382.52,362.39 383.09,350.11 383.67,364.21 384.24,341.46 384.82,343.90 385.39,360.13 385.97,351.36 386.54,356.13 387.11,352.50 387.69,356.43 388.26,358.25 388.84,349.60 389.41,356.51 389.99,351.69 390.56,349.19 391.14,358.57 391.71,357.76 392.28,347.94 392.86,358.59 393.43,360.42 394.01,355.57 394.58,355.87 395.16,352.87 395.73,361.85 396.31,355.28 396.88,353.40 397.45,354.21 398.03,366.11 398.60,353.09 399.18,356.79 399.75,357.00 400.33,356.33 400.90,361.94 401.48,353.18 402.05,352.81 402.63,354.99 403.20,358.11 403.77,356.76 404.35,358.78 404.92,357.38 405.50,362.87 406.07,362.56 406.65,351.90 407.22,360.46 407.80,354.33 408.37,362.63 408.94,350.41 409.52,355.41 410.09,357.41 410.67,360.80 411.24,354.20 411.82,353.07 412.39,354.81 412.97,366.66 413.54,356.33 414.11,358.95 414.69,358.00 415.26,354.80 415.84,361.31 416.41,357.49 416.99,356.36 417.56,368.25 418.14,354.73 418.71,360.68 419.29,354.85 419.86,362.58 420.43,353.57 421.01,358.10 421.58,363.89 422.16,351.30 422.73,361.77 423.31,357.92 423.88,353.13 424.46,368.04 425.03,358.02 425.60,359.71 426.18,365.58 426.75,365.72 427.33,367.96 427.90,355.70 428.48,365.32 429.05,365.50 429.63,360.62 430.20,363.57 430.77,353.46 431.35,366.31 431.92,363.38 432.50,365.99 433.07,348.63 433.65,368.60 434.22,361.09 434.80,359.58 435.37,366.28 435.95,357.76 436.52,358.04 437.09,360.07 437.67,360.93 438.24,363.41 438.82,356.29 439.39,367.48 439.97,367.97 440.54,360.98 441.12,358.60 441.69,357.80 442.26,372.20 442.84,357.82 443.41,368.26 443.99,364.13 444.56,355.70 445.14,362.06 445.71,365.82 446.29,364.66 446.86,363.04 447.43,364.76 448.01,359.59 448.58,353.36 449.16,365.28 449.73,355.16 450.31,373.06 450.88,361.83 451.46,362.02 452.03,370.56 452.61,362.44 453.18,355.16 453.75,357.53 454.33,362.67 454.90,365.64 455.48,374.38 456.05,365.89 456.63,366.76 457.20,371.12 457.78,368.80 458.35,357.38 458.92,364.38 459.50,363.88 460.07,374.31 460.65,364.76 461.22,373.46 461.80,363.01 462.37,362.18 462.95,366.53 463.52,359.51 464.09,368.05 464.67,370.63 465.24,362.14 465.82,367.86 466.39,375.41 466.97,359.08 467.54,366.77 468.12,367.41 468.69,370.96 469.27,366.85 469.84,371.52 470.41,371.84 470.99,362.91 471.56,372.12 472.14,369.17 472.71,368.86 473.29,368.37 473.86,364.59 474.44,375.74 475.01,367.82 475.58,375.87 476.16,366.17 476.73,372.71 477.31,377.76 477.88,370.12 478.46,373.71 479.03,375.25 479.61,372.60 480.18,373.50 480.75,389.20 481.33,367.38 481.90,378.93 482.48,373.42 483.05,377.94 483.63,377.25 484.20,380.53 484.78,380.30 485.35,372.95 485.93,375.65 486.50,369.59 487.07,375.56 487.65,372.01 488.22,374.87 488.80,374.26 489.37,377.46 489.95,364.40 490.52,377.51 491.10,376.34 491.67,369.76 492.24,376.38 492.82,375.20 493.39,375.09 493.97,373.67 494.54,373.59 495.12,376.47 495.69,368.77 496.27,371.99 496.84,376.82 497.41,370.25 497.99,370.95 498.56,373.50 499.14,374.55 499.71,376.64 500.29,378.54 500.86,369.78 501.44,375.80 502.01,374.04 502.59,369.04 503.16,380.10 503.73,378.00 504.31,371.91 504.88,380.06 505.46,377.41 506.03,381.03 506.61,365.60 507.18,382.94 507.76,376.61 508.33,374.09 508.90,387.05 509.48,371.56 510.05,364.15 510.63,380.35 511.20,373.11 511.78,372.16 512.35,381.72 512.93,375.98 513.50,369.59 514.07,380.18 514.65,376.72 515.22,376.66 515.80,377.68 516.37,367.85 516.95,378.66 517.52,378.99 518.10,386.79 518.67,375.87 519.25,380.18 519.82,384.75 520.39,380.77 520.97,388.14 521.54,374.39 522.12,375.30 522.69,384.31 523.27,380.86 523.84,381.56 524.42,377.84 524.99,377.70 525.56,382.03 526.14,380.31 526.71,377.38 527.29,384.39 527.86,378.08 528.44,384.30 529.01,375.80 529.59,369.04 530.16,371.46 530.73,385.98 531.31,372.41 531.88,391.13 532.46,392.64 533.03,383.03 533.61,383.75 534.18,391.84 534.76,379.40 535.33,375.10 535.91,386.79 536.48,381.65 537.05,382.18 537.63,387.47 538.20,384.05 538.78,379.21 539.35,381.83 539.93,385.44 540.50,377.29 541.08,370.48 541.65,385.41 542.22,385.87 542.80,381.46 543.37,387.44 543.95,381.56 544.52,379.78 545.10,381.56 545.67,386.18 546.25,391.13 546.82,396.37 547.39,380.14 547.97,384.22 548.54,384.60 549.12,382.39 549.69,384.95 550.27,388.70 550.84,381.85 551.42,392.78 551.99,382.27 552.57,383.25 553.14,389.92 553.71,382.06 554.29,388.82 554.86,385.55 555.44,391.59 556.01,389.76 556.59,381.65 557.16,389.79 557.74,382.76 558.31,387.73 558.88,385.96 559.46,381.73 560.03,381.14 560.61,378.68 561.18,374.83 561.76,384.15 562.33,386.08 562.91,381.49 563.48,393.49 564.05,391.57 564.63,384.95 565.20,392.64 565.78,382.44 566.35,387.08 566.93,383.79 567.50,378.69 568.08,387.05 568.65,378.39 569.23,383.57 569.80,384.70 570.37,391.65 570.95,389.43 571.52,389.71 572.10,392.26 572.67,384.21 573.25,394.02 573.82,389.02 574.40,389.51 574.97,393.04 575.54,397.12 576.12,380.20 576.69,384.39 577.27,394.65 577.84,395.06 578.42,393.97 578.99,391.06 579.57,395.76 580.14,395.12 580.71,399.01 581.29,392.43 581.86,393.41 582.44,392.07 583.01,390.27 583.59,382.00 584.16,392.49 584.74,398.68 585.31,395.81 585.89,393.37 586.46,394.02 587.03,385.13 587.61,382.70 588.18,397.00 588.76,394.31 589.33,387.61 589.91,390.21 590.48,395.40 591.06,391.85 591.63,398.01 592.20,389.92 592.78,390.40 593.35,396.52 593.93,405.04 594.50,394.31 595.08,389.16 595.65,383.81 596.23,395.28 596.80,392.57 597.37,394.03 597.95,400.45 598.52,391.84 599.10,400.29 599.67,391.21 600.25,398.19 600.82,402.81 601.40,394.92 601.97,395.35 602.55,390.44 603.12,403.72 603.69,392.00 604.27,392.21 604.84,399.45 605.42,392.86 605.99,400.46 606.57,394.77 607.14,399.62 607.72,401.95 608.29,398.07 608.86,412.42 609.44,391.09 610.01,392.34 610.59,388.92 611.16,392.89 611.74,398.22 612.31,394.18 612.89,403.67 613.46,400.21 614.03,397.13 614.61,408.49 615.18,395.03 615.76,397.04 616.33,390.64 616.91,401.36 617.48,394.21 618.06,390.63 618.63,395.97 619.21,393.55 619.78,401.58 620.35,401.91 620.93,394.19 621.50,392.40 622.08,397.65 622.65,392.58 623.23,399.27 623.80,398.18 624.38,396.05 624.95,400.61 625.52,408.84 626.10,400.38 626.67,401.48 627.25,404.44 627.82,394.59 628.40,392.00 628.97,395.31 629.55,399.05 630.12,388.17 630.69,400.94 631.27,393.50 631.84,404.91 632.42,396.44 632.99,406.90 633.57,395.36 634.14,400.42 634.72,390.88 635.29,391.15 635.87,400.95 636.44,398.12 637.01,392.42 637.59,398.35 638.16,398.75 638.74,394.08 639.31,400.91 639.89,400.39 640.46,398.18 641.04,387.26 641.61,395.77 642.18,398.35 642.76,397.27 643.33,389.34 643.91,393.08 644.48,393.60 645.06,404.84 645.63,392.81 646.21,394.40 646.78,403.58 647.35,398.84 647.93,399.36 648.50,381.71 649.08,401.84 649.65,391.32 650.23,397.42 650.80,399.39 651.38,398.24 651.95,398.32 652.53,399.50 653.10,402.49 653.67,399.27 654.25,395.62 654.82,402.53 655.40,395.00 655.97,398.87 656.55,391.93 657.12,387.39 657.70,397.18 658.27,397.06 658.84,391.44 659.42,395.79 659.99,393.86 660.57,397.90 661.14,394.27 661.72,404.17 662.29,394.01 662.87,397.47 663.44,411.02 664.01,393.74 664.59,393.92 665.16,398.92 665.74,386.53 666.31,389.41 666.89,397.25 667.46,389.38 668.04,394.14 668.61,396.62 669.19,400.85 669.76,392.44 670.33,401.61 670.91,395.73 671.48,389.04 672.06,397.29 672.63,394.60 673.21,395.45 673.78,392.04 674.36,392.08 674.93,393.91 675.50,395.35 676.08,402.78 676.65,401.57 677.23,398.88 677.80,392.31 678.38,399.86 678.95,402.22 679.53,396.92 680.10,393.09 680.67,401.16 681.25,398.33 681.82,394.06 682.40,403.83 682.97,396.61 683.55,406.52 684.12,398.45 684.70,393.10 685.27,393.22 685.85,405.66 686.42,402.68 686.99,394.80 687.57,395.67 688.14,389.57 688.72,407.52 689.29,394.05 689.87,400.78 690.44,405.49 691.02,397.06 691.59,392.80 692.16,386.26 692.74,387.23 693.31,405.82 693.89,396.20 694.46,395.69 695.04,403.20 695.61,390.62 696.19,403.63 696.76,399.02 697.33,391.80 697.91,405.44 698.48,400.18 699.06,395.86 699.63,397.74 700.21,404.83 700.78,397.38 701.36,410.96 701.93,400.72 702.51,399.16 703.08,391.74 703.65,400.77 704.23,397.87 704.80,392.08 705.38,392.16 705.95,403.83 706.53,402.22 707.10,405.06 707.68,404.41 708.25,398.19 708.82,409.35 709.40,403.31 709.97,398.99 710.55,398.74 711.12,399.60 711.70,392.74 712.27,402.51 712.85,402.91 713.42,395.74 713.99,411.25 714.57,402.84 715.14,394.23 715.72,400.39 716.29,397.75 716.87,402.82 717.44,406.27 718.02,408.63 718.59,401.38 719.16,406.81 719.74,403.54 720.31,394.43 720.89,403.30 721.46,391.47 722.04,411.06 722.61,396.01 723.19,400.26 723.76,408.11 724.34,397.42 724.91,403.92 725.48,406.18 726.06,393.16 726.63,396.73 727.21,402.21 727.78,411.22 728.36,404.38 728.93,412.83 729.51,396.86 730.08,401.64 730.65,412.51 731.23,408.20 731.80,400.05 732.38,413.85 732.95,410.11 733.53,398.81 734.10,408.85 734.68,409.72 735.25,407.40 735.82,409.81 736.40,404.58 736.97,402.20 737.55,403.33 738.12,404.91 738.70,407.55 739.27,402.41 739.85,409.32 740.42,410.40 741.00,413.09 741.57,400.28 742.14,413.54 742.72,407.72 743.29,412.50 743.87,408.16 744.44,417.12 745.02,398.95 745.59,401.34 746.17,404.40 746.74,409.66 747.31,405.47 747.89,401.96 748.46,410.67 749.04,413.78 749.61,396.68 750.19,406.31 750.76,411.76 751.34,411.83 751.91,411.10 752.48,405.80 753.06,419.06 753.63,405.81 754.21,415.01 754.78,407.46 755.36,407.55 755.93,404.38 756.51,406.45 757.08,411.78 757.66,407.61 758.23,404.61 758.80,406.96 759.38,414.06 759.95,413.72 760.53,414.31 761.10,404.85 761.68,418.51 762.25,407.88 762.83,408.43 763.40,411.43 763.97,405.31 764.55,414.15 765.12,427.58 765.70,408.93 766.27,410.18 766.85,412.85 767.42,407.03 768.00,405.62 768.57,412.38 769.14,410.64 769.72,412.61 770.29,409.14 770.87,404.35 771.44,411.82 772.02,413.36 772.59,419.88 773.17,407.76 773.74,414.17 774.32,401.58 774.89,409.66 775.46,404.22 776.04,415.83 776.61,424.04 777.19,415.65 777.76,405.92 778.34,403.09 778.91,405.26 779.49,400.23 780.06,410.62 780.63,413.27 781.21,412.85 781.78,409.36 782.36,404.09 782.93,409.57 783.51,411.96 784.08,409.67 784.66,416.23 785.23,410.61 785.80,403.97 786.38,414.57 786.95,406.81 787.53,413.86 788.10,415.61 788.68,411.12 789.25,415.89 789.83,411.31 790.40,416.41 790.98,409.50 791.55,408.47 792.12,411.34 792.70,413.19 793.27,421.60 793.85,406.95 794.42,407.13 795.00,411.04 795.57,414.39 796.15,409.30 796.72,408.52 797.29,410.72 797.87,408.20 798.44,410.75 799.02,408.31 799.59,399.41 800.17,412.75 800.74,398.89 801.32,404.61 801.89,404.22 802.46,392.70 803.04,416.35 803.61,408.26 804.19,406.93 804.76,408.05 805.34,411.75 805.91,413.77 806.49,413.89 807.06,402.62 807.64,404.18 808.21,415.74 808.78,410.67 809.36,415.30 809.93,408.79 810.51,396.28 811.08,409.91 811.66,406.02 812.23,414.57 812.81,410.08 813.38,403.33 813.95,405.99 814.53,398.15 815.10,405.57 815.68,408.04 816.25,410.03 816.83,408.83 817.40,408.14 817.98,406.64 818.55,399.95 819.12,397.97 819.70,415.12 820.27,409.23 820.85,417.24 821.42,398.61 822.00,403.87 822.57,407.77 823.15,408.45 823.72,411.31 824.30,409.02 824.87,406.31 825.44,414.62 826.02,398.82 826.59,407.74 827.17,406.57 827.74,400.33 828.32,406.00 828.89,399.52 829.47,414.51 830.04,410.86 830.61,412.32 831.19,414.40 831.76,404.44 832.34,406.51 832.91,414.86 833.49,415.94 834.06,397.61 834.64,419.72 835.21,409.17 835.78,407.27 836.36,413.00 836.93,404.53 837.51,413.30 838.08,422.16 838.66,402.97 839.23,408.76 839.81,405.71 840.38,405.70 840.96,402.72 841.53,406.86 842.10,407.53 842.68,392.84 843.25,410.55 843.83,400.13 844.40,406.05 844.98,409.12 845.55,409.68 846.13,408.77 846.70,407.55 847.27,420.09 847.85,401.97 848.42,405.30 849.00,400.87 849.57,407.04 850.15,409.62 850.72,404.79 851.30,406.42 851.87,411.68 852.44,407.76 853.02,410.08 853.59,402.02 854.17,413.91 854.74,410.64 855.32,398.88 855.89,414.69 856.47,402.02 857.04,401.46 857.62,411.71 858.19,412.46 858.76,397.71 859.34,406.17 859.91,405.62 860.49,407.27 861.06,412.76 861.64,399.48 862.21,406.93 862.79,403.47 863.36,402.28 863.93,407.17 864.51,405.56 865.08,410.92 865.66,408.65 866.23,406.92 866.81,408.15 867.38,409.22 867.96,402.06 868.53,401.15 869.10,399.30 869.68,402.56 870.25,410.01 870.83,408.02 871.40,404.54 871.98,413.44 872.55,400.43 873.13,415.04 873.70,403.24 874.28,412.22 874.85,403.86 875.42,410.79 876.00,397.54 876.57,398.99 877.15,401.15 877.72,402.80 878.30,402.55 878.87,396.26 879.45,405.67 880.02,408.18 880.59,414.12 881.17,409.78 881.74,399.56 882.32,406.21 882.89,396.61 883.47,399.92 884.04,409.49 884.62,401.31 885.19,403.72 885.76,391.22 886.34,405.94 886.91,410.22 887.49,401.75 888.06,418.44 888.64,401.46 889.21,399.43 889.79,403.16 890.36,403.35 890.94,404.41 891.51,403.14 892.08,400.23 892.66,397.16 893.23,405.27 893.81,400.04 894.38,413.90 894.96,405.09 895.53,401.09 896.11,397.98 896.68,403.10 897.25,400.69 897.83,399.70 898.40,399.54 898.98,411.70 899.55,400.27 900.13,409.26 900.70,395.85 901.28,398.09 901.85,400.36 902.42,406.40 903.00,398.97 903.57,409.77 904.15,400.96 904.72,397.48 905.30,403.14 905.87,403.33 906.45,401.16 907.02,403.66 907.60,406.12 908.17,403.34 908.74,401.79 909.32,406.48 909.89,403.83 910.47,408.00 911.04,397.66 911.62,397.75 912.19,400.97 912.77,394.04 913.34,407.19 913.91,407.30 914.49,400.21 915.06,406.52 915.64,402.71 916.21,412.55 916.79,410.46 917.36,400.64 917.94,403.76 918.51,400.12 919.08,403.07 919.66,402.13 920.23,407.43 920.81,408.14 921.38,402.14 921.96,405.09 922.53,394.33 923.11,405.79 923.68,407.10 924.26,403.37 924.83,408.83 925.40,408.37 925.98,403.39 926.55,408.97 927.13,402.85 927.70,411.32 928.28,401.13 928.85,410.91 929.43,403.91 930.00,409.22" />
  <polyline fill="none" stroke="#16a34a" stroke-width="3" points="70.00,76.31 70.57,78.39 71.15,89.85 71.72,94.45 72.30,93.74 72.87,94.42 73.45,100.84 74.02,107.23 74.60,109.83 75.17,114.28 75.74,117.24 76.32,114.42 76.89,109.51 77.47,120.84 78.04,116.63 78.62,122.44 79.19,126.90 79.77,123.06 80.34,122.69 80.92,123.13 81.49,125.53 82.06,130.13 82.64,127.00 83.21,130.82 83.79,128.43 84.36,125.90 84.94,130.85 85.51,127.83 86.09,141.46 86.66,138.22 87.23,129.88 87.81,132.56 88.38,136.35 88.96,131.79 89.53,141.55 90.11,139.24 90.68,140.19 91.26,143.66 91.83,136.52 92.40,141.10 92.98,142.35 93.55,147.92 94.13,145.05 94.70,148.36 95.28,145.32 95.85,146.46 96.43,145.39 97.00,153.43 97.58,158.59 98.15,162.35 98.72,161.49 99.30,153.72 99.87,167.62 100.45,164.55 101.02,159.81 101.60,165.20 102.17,166.12 102.75,169.22 103.32,169.66 103.89,171.61 104.47,175.15 105.04,169.43 105.62,171.11 106.19,170.77 106.77,177.17 107.34,182.75 107.92,177.80 108.49,179.33 109.06,184.04 109.64,188.28 110.21,176.99 110.79,186.83 111.36,184.78 111.94,188.75 112.51,199.57 113.09,192.33 113.66,189.98 114.24,199.73 114.81,199.36 115.38,203.52 115.96,196.43 116.53,201.35 117.11,207.72 117.68,209.89 118.26,210.26 118.83,204.16 119.41,203.38 119.98,206.40 120.55,212.53 121.13,210.29 121.70,211.37 122.28,212.40 122.85,215.00 123.43,218.44 124.00,224.37 124.58,218.42 125.15,218.15 125.72,222.66 126.30,226.20 126.87,227.84 127.45,225.78 128.02,225.03 128.60,224.30 129.17,227.65 129.75,231.76 130.32,236.91 130.90,235.62 131.47,240.73 132.04,238.59 132.62,235.76 133.19,240.63 133.77,238.47 134.34,244.19 134.92,242.63 135.49,242.61 136.07,249.27 136.64,247.18 137.21,242.66 137.79,252.04 138.36,254.91 138.94,256.03 139.51,245.53 140.09,250.88 140.66,261.21 141.24,260.25 141.81,260.90 142.38,259.17 142.96,261.36 143.53,259.68 144.11,264.63 144.68,262.29 145.26,259.17 145.83,270.00 146.41,270.38 146.98,263.86 147.56,265.36 148.13,269.60 148.70,270.26 149.28,264.78 149.85,265.52 150.43,272.17 151.00,270.01 151.58,274.74 152.15,273.17 152.73,271.81 153.30,273.15 153.87,276.80 154.45,275.43 155.02,280.86 155.60,276.38 156.17,276.70 156.75,277.39 157.32,276.95 157.90,276.08 158.47,277.48 159.04,274.91 159.62,276.24 160.19,280.19 160.77,274.31 161.34,282.83 161.92,283.88 162.49,282.82 163.07,281.68 163.64,278.55 164.22,279.70 164.79,280.28 165.36,284.66 165.94,279.69 166.51,281.31 167.09,285.09 167.66,281.74 168.24,281.74 168.81,284.43 169.39,281.46 169.96,281.45 170.53,284.42 171.11,284.78 171.68,282.00 172.26,287.20 172.83,287.46 173.41,285.56 173.98,284.51 174.56,281.55 175.13,279.60 175.70,281.83 176.28,290.97 176.85,289.57 177.43,285.51 178.00,282.75 178.58,286.65 179.15,290.76 179.73,291.59 180.30,287.86 180.88,289.22 181.45,288.03 182.02,291.62 182.60,290.19 183.17,290.22 183.75,291.76 184.32,290.25 184.90,291.19 185.47,294.90 186.05,289.63 186.62,292.97 187.19,294.41 187.77,297.31 188.34,298.93 188.92,293.93 189.49,296.76 190.07,300.69 190.64,295.72 191.22,296.62 191.79,294.63 192.36,300.09 192.94,298.95 193.51,298.90 194.09,299.53 194.66,300.35 195.24,300.70 195.81,293.99 196.39,299.52 196.96,298.56 197.54,299.65 198.11,302.27 198.68,300.83 199.26,304.92 199.83,310.75 200.41,303.12 200.98,299.14 201.56,295.88 202.13,304.06 202.71,307.28 203.28,304.17 203.85,302.40 204.43,303.68 205.00,304.52 205.58,307.50 206.15,302.06 206.73,302.87 207.30,303.63 207.88,306.05 208.45,302.27 209.02,306.36 209.60,305.58 210.17,305.42 210.75,312.60 211.32,310.54 211.90,304.79 212.47,297.15 213.05,306.79 213.62,307.52 214.20,305.88 214.77,309.81 215.34,307.27 215.92,304.68 216.49,312.78 217.07,310.08 217.64,305.00 218.22,309.37 218.79,312.20 219.37,305.88 219.94,304.39 220.51,310.38 221.09,307.82 221.66,301.01 222.24,307.93 222.81,312.71 223.39,312.30 223.96,304.74 224.54,307.43 225.11,312.98 225.68,311.14 226.26,312.21 226.83,312.84 227.41,310.25 227.98,306.62 228.56,305.96 229.13,315.55 229.71,314.03 230.28,311.83 230.86,315.50 231.43,314.97 232.00,318.08 232.58,309.88 233.15,309.22 233.73,313.73 234.30,318.01 234.88,314.48 235.45,313.93 236.03,321.15 236.60,312.82 237.17,312.79 237.75,314.08 238.32,317.25 238.90,307.98 239.47,314.17 240.05,317.18 240.62,316.12 241.20,310.60 241.77,308.17 242.34,312.62 242.92,312.48 243.49,314.74 244.07,316.56 244.64,316.68 245.22,318.37 245.79,318.61 246.37,318.53 246.94,312.69 247.52,315.78 248.09,313.82 248.66,315.28 249.24,318.08 249.81,324.35 250.39,314.50 250.96,309.34 251.54,324.00 252.11,317.27 252.69,312.73 253.26,326.45 253.83,318.35 254.41,318.79 254.98,320.00 255.56,324.56 256.13,315.82 256.71,322.02 257.28,325.43 257.86,323.70 258.43,322.25 259.00,314.99 259.58,326.67 260.15,324.27 260.73,326.46 261.30,319.22 261.88,330.88 262.45,318.68 263.03,326.05 263.60,325.48 264.18,325.66 264.75,327.53 265.32,325.97 265.90,322.53 266.47,332.46 267.05,329.92 267.62,323.32 268.20,333.89 268.77,328.38 269.35,336.88 269.92,333.96 270.49,329.06 271.07,337.11 271.64,335.63 272.22,327.89 272.79,333.27 273.37,330.81 273.94,337.73 274.52,337.07 275.09,332.20 275.66,341.70 276.24,341.80 276.81,340.21 277.39,341.25 277.96,337.94 278.54,337.20 279.11,340.47 279.69,345.18 280.26,341.61 280.84,338.43 281.41,337.61 281.98,339.90 282.56,336.80 283.13,341.49 283.71,341.55 284.28,345.61 284.86,342.59 285.43,347.80 286.01,342.47 286.58,339.74 287.15,342.89 287.73,342.46 288.30,343.52 288.88,346.94 289.45,349.76 290.03,339.28 290.60,346.08 291.18,346.02 291.75,345.13 292.32,343.38 292.90,345.93 293.47,345.85 294.05,352.86 294.62,340.01 295.20,347.64 295.77,354.71 296.35,336.25 296.92,355.43 297.49,348.05 298.07,357.16 298.64,340.33 299.22,349.21 299.79,343.16 300.37,349.53 300.94,344.11 301.52,350.83 302.09,356.87 302.67,346.85 303.24,356.03 303.81,346.36 304.39,350.38 304.96,351.95 305.54,353.75 306.11,351.44 306.69,353.56 307.26,352.67 307.84,345.18 308.41,347.66 308.98,343.81 309.56,348.48 310.13,347.20 310.71,360.42 311.28,344.79 311.86,362.37 312.43,353.35 313.01,346.35 313.58,358.26 314.15,346.85 314.73,356.96 315.30,346.11 315.88,356.60 316.45,353.20 317.03,348.70 317.60,354.14 318.18,351.54 318.75,360.91 319.33,345.58 319.90,351.78 320.47,345.87 321.05,351.06 321.62,352.57 322.20,354.12 322.77,352.29 323.35,356.72 323.92,355.09 324.50,353.46 325.07,352.69 325.64,351.96 326.22,361.34 326.79,350.61 327.37,361.41 327.94,353.83 328.52,358.07 329.09,364.23 329.67,348.61 330.24,368.56 330.81,353.50 331.39,360.91 331.96,355.54 332.54,355.44 333.11,357.86 333.69,356.34 334.26,359.60 334.84,365.39 335.41,358.23 335.99,364.28 336.56,366.32 337.13,364.60 337.71,356.35 338.28,373.63 338.86,362.71 339.43,363.89 340.01,357.62 340.58,369.27 341.16,358.84 341.73,366.84 342.30,358.52 342.88,359.93 343.45,372.14 344.03,361.89 344.60,364.07 345.18,362.97 345.75,365.04 346.33,378.13 346.90,369.27 347.47,357.37 348.05,375.28 348.62,361.57 349.20,371.52 349.77,357.32 350.35,364.68 350.92,365.02 351.50,366.34 352.07,362.18 352.65,362.51 353.22,356.98 353.79,365.22 354.37,365.67 354.94,370.03 355.52,361.60 356.09,366.92 356.67,366.59 357.24,366.88 357.82,368.10 358.39,367.74 358.96,367.42 359.54,367.42 360.11,363.48 360.69,362.08 361.26,365.96 361.84,364.55 362.41,369.30 362.99,360.66 363.56,363.36 364.13,365.97 364.71,366.61 365.28,364.55 365.86,366.34 366.43,368.40 367.01,359.28 367.58,373.56 368.16,368.85 368.73,365.87 369.31,363.68 369.88,367.89 370.45,371.13 371.03,360.93 371.60,366.48 372.18,372.03 372.75,368.29 373.33,370.49 373.90,366.27 374.48,364.81 375.05,373.67 375.62,371.40 376.20,369.71 376.77,366.05 377.35,362.41 377.92,367.89 378.50,370.40 379.07,370.82 379.65,372.39 380.22,368.78 380.79,369.04 381.37,371.25 381.94,369.80 382.52,368.29 383.09,373.03 383.67,376.92 384.24,369.60 384.82,371.08 385.39,358.75 385.97,371.52 386.54,373.10 387.11,367.04 387.69,365.75 388.26,359.60 388.84,369.06 389.41,369.73 389.99,370.34 390.56,366.92 391.14,367.18 391.71,383.18 392.28,375.72 392.86,375.54 393.43,374.66 394.01,366.74 394.58,373.63 395.16,378.49 395.73,372.86 396.31,369.26 396.88,367.57 397.45,375.31 398.03,379.24 398.60,369.80 399.18,369.40 399.75,359.36 400.33,373.67 400.90,369.72 401.48,374.75 402.05,359.48 402.63,374.16 403.20,376.79 403.77,377.39 404.35,372.39 404.92,373.38 405.50,370.60 406.07,372.03 406.65,365.46 407.22,367.92 407.80,374.96 408.37,380.29 408.94,379.39 409.52,370.88 410.09,360.46 410.67,381.29 411.24,366.92 411.82,373.89 412.39,370.51 412.97,370.45 413.54,365.13 414.11,366.56 414.69,364.46 415.26,371.68 415.84,374.18 416.41,382.22 416.99,382.11 417.56,369.17 418.14,370.49 418.71,371.61 419.29,379.13 419.86,385.22 420.43,378.55 421.01,388.58 421.58,374.10 422.16,366.42 422.73,381.41 423.31,370.08 423.88,381.44 424.46,369.21 425.03,369.69 425.60,378.09 426.18,372.65 426.75,376.61 427.33,368.23 427.90,375.42 428.48,366.63 429.05,379.80 429.63,379.81 430.20,381.26 430.77,369.01 431.35,367.69 431.92,373.79 432.50,366.20 433.07,372.50 433.65,377.87 434.22,368.65 434.80,373.99 435.37,364.46 435.95,380.12 436.52,375.93 437.09,369.19 437.67,371.95 438.24,374.96 438.82,374.52 439.39,365.05 439.97,374.24 440.54,369.67 441.12,372.39 441.69,372.56 442.26,376.69 442.84,379.39 443.41,377.73 443.99,377.19 444.56,363.85 445.14,376.52 445.71,370.95 446.29,370.08 446.86,365.49 447.43,373.84 448.01,376.69 448.58,367.94 449.16,371.30 449.73,370.34 450.31,375.55 450.88,374.48 451.46,364.12 452.03,370.23 452.61,368.83 453.18,379.54 453.75,361.54 454.33,365.61 454.90,372.18 455.48,367.79 456.05,365.89 456.63,375.95 457.20,380.70 457.78,371.32 458.35,375.64 458.92,373.64 459.50,372.85 460.07,369.67 460.65,377.47 461.22,378.09 461.80,370.92 462.37,377.04 462.95,379.35 463.52,370.74 464.09,376.07 464.67,373.77 465.24,367.63 465.82,371.62 466.39,372.61 466.97,380.24 467.54,366.54 468.12,370.16 468.69,373.54 469.27,367.12 469.84,377.23 470.41,371.94 470.99,371.16 471.56,371.75 472.14,378.18 472.71,377.34 473.29,379.63 473.86,373.21 474.44,377.86 475.01,363.33 475.58,376.69 476.16,368.97 476.73,368.94 477.31,363.94 477.88,373.14 478.46,374.57 479.03,369.79 479.61,379.47 480.18,374.35 480.75,377.54 481.33,376.81 481.90,373.09 482.48,375.69 483.05,377.95 483.63,384.38 484.20,372.11 484.78,377.53 485.35,373.36 485.93,373.34 486.50,371.72 487.07,371.84 487.65,368.85 488.22,371.00 488.80,363.50 489.37,370.41 489.95,367.83 490.52,373.63 491.10,366.73 491.67,371.90 492.24,363.48 492.82,366.68 493.39,367.46 493.97,373.05 494.54,366.33 495.12,365.12 495.69,377.58 496.27,371.65 496.84,363.09 497.41,362.53 497.99,358.40 498.56,366.54 499.14,363.77 499.71,362.42 500.29,368.89 500.86,358.11 501.44,357.69 502.01,358.30 502.59,359.90 503.16,370.28 503.73,357.08 504.31,366.64 504.88,356.14 505.46,366.32 506.03,360.62 506.61,358.12 507.18,361.47 507.76,363.19 508.33,367.55 508.90,360.82 509.48,354.22 510.05,364.94 510.63,355.20 511.20,364.78 511.78,360.46 512.35,374.63 512.93,357.84 513.50,360.43 514.07,360.92 514.65,358.96 515.22,360.39 515.80,358.98 516.37,368.26 516.95,352.19 517.52,364.37 518.10,357.16 518.67,365.03 519.25,349.16 519.82,352.81 520.39,359.99 520.97,356.22 521.54,355.43 522.12,354.54 522.69,363.09 523.27,364.51 523.84,357.57 524.42,364.16 524.99,362.79 525.56,352.85 526.14,358.40 526.71,362.39 527.29,368.30 527.86,368.37 528.44,358.27 529.01,361.76 529.59,357.22 530.16,364.08 530.73,365.56 531.31,366.64 531.88,363.82 532.46,370.49 533.03,370.29 533.61,368.22 534.18,358.70 534.76,369.87 535.33,364.38 535.91,366.56 536.48,365.15 537.05,359.73 537.63,361.76 538.20,369.20 538.78,363.44 539.35,368.82 539.93,361.89 540.50,363.16 541.08,373.88 541.65,357.92 542.22,366.04 542.80,365.11 543.37,365.92 543.95,358.40 544.52,372.10 545.10,364.57 545.67,376.15 546.25,361.25 546.82,370.94 547.39,358.75 547.97,374.34 548.54,375.14 549.12,368.88 549.69,374.72 550.27,370.20 550.84,373.31 551.42,377.09 551.99,367.42 552.57,373.91 553.14,374.67 553.71,377.86 554.29,374.83 554.86,378.26 555.44,373.66 556.01,382.51 556.59,377.79 557.16,382.91 557.74,371.03 558.31,383.92 558.88,378.69 559.46,381.71 560.03,376.05 560.61,376.59 561.18,375.80 561.76,379.03 562.33,372.63 562.91,383.71 563.48,374.84 564.05,380.82 564.63,379.63 565.20,375.57 565.78,383.31 566.35,374.41 566.93,377.14 567.50,371.42 568.08,384.47 568.65,378.47 569.23,384.23 569.80,382.45 570.37,387.34 570.95,376.36 571.52,382.33 572.10,381.40 572.67,382.76 573.25,382.84 573.82,381.87 574.40,375.91 574.97,380.41 575.54,386.22 576.12,371.35 576.69,381.36 577.27,382.13 577.84,384.50 578.42,386.58 578.99,377.78 579.57,384.46 580.14,378.04 580.71,384.23 581.29,380.88 581.86,380.20 582.44,387.53 583.01,374.52 583.59,381.62 584.16,386.87 584.74,383.27 585.31,385.73 585.89,376.53 586.46,391.26 587.03,382.63 587.61,388.94 588.18,379.49 588.76,386.94 589.33,385.15 589.91,384.41 590.48,387.78 591.06,381.05 591.63,383.21 592.20,371.88 592.78,381.20 593.35,384.49 593.93,380.10 594.50,379.36 595.08,387.14 595.65,385.46 596.23,383.12 596.80,385.82 597.37,385.39 597.95,387.17 598.52,375.95 599.10,386.93 599.67,375.54 600.25,385.42 600.82,380.92 601.40,384.88 601.97,384.48 602.55,374.95 603.12,384.13 603.69,381.32 604.27,379.56 604.84,377.20 605.42,382.43 605.99,376.08 606.57,379.27 607.14,368.44 607.72,386.14 608.29,372.22 608.86,383.83 609.44,379.50 610.01,388.30 610.59,377.21 611.16,384.96 611.74,386.45 612.31,376.65 612.89,379.73 613.46,382.34 614.03,370.04 614.61,379.96 615.18,383.73 615.76,374.22 616.33,382.51 616.91,372.88 617.48,382.17 618.06,382.31 618.63,371.97 619.21,378.57 619.78,374.88 620.35,376.40 620.93,380.98 621.50,377.86 622.08,373.36 622.65,372.35 623.23,376.59 623.80,372.68 624.38,381.53 624.95,373.39 625.52,380.40 626.10,371.76 626.67,373.32 627.25,371.99 627.82,369.17 628.40,378.10 628.97,373.63 629.55,374.86 630.12,374.79 630.69,375.02 631.27,376.03 631.84,374.85 632.42,371.45 632.99,377.78 633.57,376.84 634.14,380.85 634.72,379.43 635.29,383.53 635.87,373.80 636.44,370.14 637.01,366.00 637.59,377.45 638.16,372.87 638.74,384.16 639.31,374.20 639.89,380.52 640.46,374.69 641.04,381.39 641.61,377.48 642.18,383.80 642.76,371.97 643.33,380.93 643.91,373.10 644.48,379.31 645.06,369.33 645.63,380.97 646.21,372.60 646.78,380.88 647.35,376.68 647.93,375.97 648.50,376.43 649.08,373.64 649.65,380.85 650.23,374.93 650.80,376.78 651.38,378.72 651.95,375.69 652.53,375.73 653.10,380.17 653.67,386.42 654.25,376.34 654.82,381.77 655.40,374.35 655.97,380.43 656.55,377.27 657.12,380.01 657.70,378.10 658.27,377.21 658.84,377.61 659.42,373.33 659.99,375.61 660.57,379.75 661.14,376.19 661.72,369.83 662.29,375.44 662.87,371.67 663.44,374.15 664.01,375.73 664.59,375.94 665.16,374.15 665.74,385.59 666.31,376.89 666.89,384.01 667.46,377.30 668.04,376.13 668.61,373.56 669.19,380.20 669.76,382.37 670.33,375.50 670.91,369.78 671.48,375.45 672.06,372.45 672.63,377.69 673.21,375.57 673.78,382.47 674.36,375.40 674.93,381.78 675.50,381.40 676.08,376.87 676.65,375.44 677.23,374.94 677.80,375.76 678.38,376.65 678.95,374.69 679.53,373.15 680.10,376.03 680.67,368.00 681.25,375.55 681.82,373.47 682.40,373.77 682.97,374.57 683.55,374.04 684.12,377.75 684.70,373.53 685.27,375.32 685.85,363.52 686.42,376.35 686.99,373.03 687.57,374.23 688.14,364.74 688.72,370.74 689.29,367.59 689.87,366.33 690.44,374.39 691.02,373.00 691.59,368.38 692.16,364.35 692.74,368.24 693.31,368.24 693.89,368.25 694.46,366.50 695.04,372.46 695.61,363.19 696.19,376.59 696.76,360.77 697.33,359.12 697.91,370.92 698.48,364.19 699.06,367.99 699.63,361.89 700.21,361.86 700.78,363.20 701.36,364.21 701.93,366.66 702.51,366.40 703.08,371.72 703.65,362.41 704.23,373.04 704.80,363.44 705.38,370.46 705.95,366.48 706.53,372.69 707.10,368.69 707.68,368.39 708.25,370.49 708.82,372.50 709.40,375.68 709.97,369.48 710.55,366.13 711.12,369.54 711.70,377.43 712.27,370.45 712.85,372.31 713.42,371.02 713.99,373.37 714.57,368.04 715.14,377.47 715.72,368.86 716.29,375.96 716.87,381.01 717.44,370.26 718.02,379.02 718.59,368.70 719.16,371.51 719.74,380.30 720.31,382.82 720.89,384.80 721.46,370.48 722.04,379.95 722.61,368.46 723.19,371.51 723.76,373.93 724.34,370.83 724.91,377.06 725.48,379.67 726.06,378.55 726.63,376.61 727.21,372.90 727.78,377.69 728.36,376.88 728.93,377.42 729.51,384.90 730.08,379.78 730.65,388.57 731.23,374.32 731.80,385.26 732.38,375.87 732.95,382.93 733.53,377.07 734.10,374.41 734.68,376.38 735.25,378.83 735.82,374.10 736.40,377.02 736.97,385.26 737.55,371.78 738.12,377.05 738.70,377.06 739.27,371.92 739.85,381.33 740.42,378.57 741.00,384.11 741.57,382.45 742.14,378.19 742.72,375.23 743.29,375.42 743.87,389.30 744.44,383.58 745.02,388.23 745.59,378.73 746.17,376.85 746.74,384.80 747.31,382.51 747.89,383.35 748.46,377.08 749.04,382.47 749.61,383.60 750.19,382.86 750.76,375.02 751.34,383.74 751.91,389.42 752.48,373.00 753.06,383.60 753.63,383.68 754.21,377.36 754.78,389.15 755.36,378.72 755.93,385.93 756.51,379.70 757.08,385.12 757.66,381.09 758.23,385.24 758.80,389.47 759.38,383.66 759.95,388.20 760.53,372.75 761.10,384.45 761.68,378.51 762.25,379.37 762.83,378.00 763.40,380.61 763.97,380.94 764.55,370.39 765.12,379.75 765.70,381.86 766.27,387.94 766.85,379.18 767.42,376.47 768.00,383.57 768.57,377.59 769.14,382.23 769.72,380.05 770.29,372.71 770.87,380.08 771.44,370.38 772.02,372.03 772.59,370.36 773.17,374.20 773.74,370.61 774.32,372.59 774.89,369.82 775.46,369.23 776.04,379.20 776.61,369.39 777.19,372.97 777.76,380.37 778.34,379.96 778.91,375.20 779.49,370.20 780.06,373.66 780.63,369.23 781.21,374.20 781.78,373.72 782.36,374.79 782.93,372.64 783.51,377.89 784.08,379.60 784.66,371.61 785.23,375.60 785.80,373.17 786.38,359.97 786.95,363.54 787.53,374.80 788.10,364.21 788.68,370.86 789.25,372.38 789.83,374.33 790.40,377.91 790.98,371.64 791.55,366.52 792.12,369.33 792.70,375.82 793.27,372.24 793.85,372.03 794.42,371.94 795.00,377.42 795.57,377.04 796.15,368.16 796.72,373.21 797.29,374.27 797.87,373.96 798.44,371.66 799.02,369.53 799.59,379.26 800.17,378.47 800.74,375.23 801.32,371.09 801.89,375.91 802.46,382.73 803.04,375.34 803.61,373.63 804.19,377.52 804.76,370.84 805.34,378.98 805.91,374.16 806.49,374.16 807.06,374.51 807.64,376.97 808.21,373.72 808.78,377.34 809.36,373.12 809.93,371.53 810.51,372.65 811.08,375.13 811.66,376.02 812.23,378.30 812.81,379.90 813.38,371.80 813.95,363.45 814.53,370.58 815.10,373.42 815.68,383.07 816.25,366.82 816.83,371.01 817.40,367.83 817.98,370.95 818.55,379.64 819.12,365.89 819.70,366.01 820.27,376.54 820.85,372.64 821.42,368.97 822.00,374.75 822.57,379.72 823.15,375.46 823.72,358.38 824.30,374.97 824.87,370.97 825.44,368.30 826.02,372.39 826.59,370.16 827.17,374.42 827.74,369.79 828.32,370.85 828.89,368.90 829.47,370.23 830.04,375.97 830.61,379.01 831.19,373.34 831.76,377.75 832.34,381.81 832.91,380.98 833.49,378.10 834.06,378.23 834.64,376.36 835.21,380.73 835.78,381.60 836.36,383.79 836.93,374.74 837.51,384.67 838.08,380.82 838.66,378.15 839.23,377.30 839.81,386.99 840.38,384.59 840.96,381.24 841.53,388.85 842.10,376.07 842.68,394.04 843.25,382.19 843.83,391.22 844.40,378.58 844.98,380.70 845.55,381.48 846.13,383.11 846.70,383.45 847.27,385.16 847.85,383.92 848.42,384.49 849.00,376.22 849.57,386.01 850.15,388.49 850.72,388.12 851.30,379.73 851.87,390.12 852.44,384.27 853.02,393.16 853.59,387.63 854.17,397.07 854.74,388.27 855.32,386.08 855.89,381.59 856.47,388.97 857.04,384.63 857.62,388.99 858.19,385.68 858.76,380.84 859.34,386.52 859.91,388.65 860.49,378.71 861.06,382.58 861.64,386.77 862.21,384.31 862.79,378.71 863.36,382.33 863.93,389.55 864.51,387.31 865.08,392.17 865.66,380.85 866.23,390.91 866.81,384.44 867.38,388.43 867.96,384.33 868.53,385.19 869.10,378.90 869.68,390.25 870.25,386.64 870.83,380.69 871.40,378.28 871.98,383.06 872.55,383.51 873.13,388.92 873.70,376.33 874.28,382.59 874.85,378.59 875.42,382.99 876.00,379.54 876.57,378.52 877.15,375.90 877.72,379.18 878.30,377.04 878.87,387.67 879.45,380.45 880.02,383.59 880.59,371.14 881.17,377.80 881.74,373.38 882.32,369.15 882.89,374.75 883.47,373.54 884.04,380.75 884.62,370.95 885.19,380.42 885.76,370.41 886.34,384.87 886.91,382.88 887.49,384.87 888.06,364.62 888.64,377.48 889.21,370.90 889.79,378.68 890.36,376.50 890.94,377.79 891.51,374.39 892.08,368.96 892.66,370.71 893.23,369.30 893.81,365.48 894.38,368.37 894.96,374.00 895.53,361.67 896.11,369.18 896.68,371.98 897.25,370.15 897.83,363.76 898.40,364.73 898.98,361.52 899.55,368.17 900.13,373.56 900.70,374.06 901.28,360.96 901.85,368.86 902.42,361.49 903.00,363.87 903.57,357.86 904.15,360.90 904.72,367.01 905.30,354.83 905.87,359.11 906.45,354.39 907.02,369.28 907.60,358.81 908.17,370.51 908.74,357.31 909.32,360.91 909.89,364.78 910.47,358.93 911.04,367.68 911.62,363.91 912.19,354.92 912.77,366.66 913.34,352.55 913.91,360.91 914.49,363.17 915.06,363.36 915.64,352.77 916.21,355.07 916.79,357.84 917.36,358.56 917.94,347.61 918.51,352.49 919.08,357.06 919.66,348.33 920.23,359.70 920.81,357.40 921.38,350.77 921.96,362.08 922.53,350.36 923.11,356.05 923.68,365.01 924.26,350.87 924.83,359.17 925.40,354.20 925.98,360.38 926.55,360.64 927.13,355.20 927.70,367.68 928.28,356.94 928.85,353.75 929.43,360.03 930.00,354.56" />
  <polyline fill="none" stroke="#ea580c" stroke-width="3" points="70.00,70.41 70.57,91.64 71.15,99.39 71.72,96.62 72.30,95.91 72.87,107.64 73.45,98.38 74.02,107.96 74.60,108.83 75.17,106.95 75.74,117.91 76.32,113.38 76.89,113.02 77.47,118.97 78.04,117.14 78.62,115.37 79.19,118.72 79.77,118.01 80.34,115.97 80.92,117.34 81.49,120.67 82.06,119.01 82.64,118.33 83.21,119.64 83.79,123.93 84.36,125.11 84.94,126.05 85.51,125.24 86.09,127.40 86.66,122.55 87.23,120.50 87.81,122.91 88.38,125.03 88.96,125.57 89.53,128.05 90.11,128.14 90.68,130.82 91.26,128.90 91.83,125.65 92.40,126.66 92.98,127.89 93.55,126.77 94.13,126.00 94.70,130.91 95.28,130.38 95.85,131.54 96.43,129.34 97.00,128.25 97.58,129.71 98.15,132.04 98.72,133.61 99.30,137.17 99.87,139.60 100.45,134.15 101.02,137.39 101.60,136.88 102.17,134.42 102.75,133.73 103.32,137.36 103.89,134.73 104.47,138.68 105.04,135.08 105.62,140.38 106.19,137.03 106.77,140.11 107.34,133.27 107.92,139.59 108.49,134.97 109.06,135.97 109.64,134.92 110.21,140.55 110.79,140.89 111.36,138.55 111.94,144.06 112.51,143.26 113.09,142.24 113.66,144.81 114.24,144.51 114.81,142.77 115.38,142.65 115.96,145.16 116.53,147.71 117.11,143.49 117.68,147.51 118.26,150.60 118.83,156.36 119.41,141.12 119.98,141.33 120.55,147.89 121.13,153.23 121.70,152.50 122.28,150.52 122.85,155.01 123.43,155.68 124.00,148.55 124.58,158.78 125.15,161.76 125.72,153.91 126.30,162.12 126.87,156.40 127.45,164.04 128.02,165.61 128.60,164.50 129.17,164.97 129.75,166.48 130.32,175.39 130.90,171.14 131.47,169.88 132.04,170.20 132.62,175.13 133.19,178.04 133.77,178.06 134.34,172.57 134.92,176.84 135.49,175.78 136.07,176.88 136.64,183.91 137.21,187.45 137.79,187.21 138.36,187.42 138.94,183.87 139.51,187.30 140.09,188.23 140.66,187.95 141.24,197.31 141.81,196.59 142.38,193.53 142.96,198.70 143.53,208.84 144.11,202.90 144.68,200.22 145.26,205.16 145.83,206.77 146.41,213.84 146.98,207.62 147.56,211.01 148.13,212.30 148.70,218.71 149.28,216.73 149.85,218.88 150.43,227.84 151.00,223.12 151.58,215.63 152.15,231.08 152.73,232.13 153.30,228.11 153.87,227.43 154.45,226.99 155.02,236.66 155.60,236.73 156.17,231.24 156.75,233.50 157.32,242.09 157.90,237.48 158.47,240.99 159.04,242.55 159.62,239.80 160.19,249.68 160.77,246.06 161.34,249.02 161.92,246.45 162.49,246.77 163.07,251.90 163.64,254.37 164.22,249.79 164.79,256.56 165.36,256.66 165.94,250.39 166.51,259.56 167.09,259.12 167.66,257.04 168.24,263.70 168.81,263.75 169.39,261.92 169.96,260.89 170.53,265.34 171.11,263.42 171.68,259.78 172.26,265.15 172.83,262.95 173.41,264.76 173.98,265.47 174.56,267.51 175.13,270.20 175.70,267.04 176.28,272.25 176.85,266.81 177.43,269.15 178.00,268.47 178.58,273.61 179.15,273.76 179.73,266.14 180.30,271.72 180.88,270.30 181.45,269.47 182.02,278.81 182.60,268.92 183.17,278.17 183.75,276.04 184.32,270.16 184.90,279.29 185.47,273.29 186.05,273.86 186.62,279.90 187.19,280.16 187.77,274.43 188.34,276.35 188.92,280.67 189.49,279.61 190.07,279.80 190.64,278.76 191.22,281.95 191.79,286.43 192.36,284.99 192.94,281.79 193.51,282.14 194.09,282.43 194.66,287.22 195.24,289.56 195.81,289.23 196.39,284.62 196.96,290.05 197.54,288.25 198.11,289.07 198.68,289.53 199.26,294.63 199.83,293.73 200.41,290.02 200.98,284.34 201.56,295.90 202.13,293.38 202.71,291.67 203.28,290.46 203.85,294.15 204.43,291.37 205.00,293.24 205.58,292.30 206.15,291.83 206.73,298.70 207.30,295.64 207.88,296.44 208.45,300.69 209.02,296.85 209.60,300.82 210.17,299.07 210.75,301.84 211.32,298.61 211.90,295.90 212.47,297.80 213.05,297.21 213.62,300.89 214.20,302.54 214.77,299.75 215.34,298.57 215.92,305.03 216.49,298.91 217.07,303.81 217.64,304.22 218.22,299.32 218.79,300.78 219.37,302.50 219.94,300.58 220.51,302.76 221.09,301.05 221.66,298.86 222.24,304.53 222.81,301.95 223.39,301.39 223.96,301.76 224.54,301.72 225.11,306.72 225.68,302.72 226.26,305.52 226.83,306.24 227.41,299.33 227.98,305.99 228.56,304.96 229.13,308.93 229.71,311.43 230.28,305.14 230.86,302.79 231.43,308.42 232.00,306.18 232.58,304.01 233.15,302.08 233.73,300.59 234.30,301.13 234.88,308.14 235.45,311.50 236.03,298.13 236.60,307.10 237.17,312.26 237.75,304.76 238.32,307.04 238.90,304.60 239.47,305.14 240.05,300.31 240.62,304.68 241.20,303.99 241.77,303.78 242.34,311.91 242.92,304.00 243.49,302.23 244.07,305.71 244.64,306.88 245.22,306.05 245.79,308.06 246.37,301.98 246.94,298.85 247.52,300.97 248.09,300.47 248.66,299.44 249.24,300.42 249.81,294.39 250.39,305.87 250.96,308.04 251.54,308.61 252.11,305.45 252.69,303.27 253.26,307.99 253.83,303.61 254.41,302.72 254.98,300.69 255.56,308.51 256.13,301.90 256.71,305.64 257.28,300.80 257.86,303.56 258.43,304.62 259.00,303.30 259.58,307.23 260.15,306.13 260.73,299.48 261.30,301.69 261.88,304.16 262.45,305.42 263.03,304.76 263.60,303.78 264.18,305.61 264.75,305.18 265.32,308.21 265.90,308.25 266.47,307.28 267.05,309.48 267.62,308.92 268.20,310.51 268.77,308.40 269.35,310.81 269.92,308.55 270.49,310.58 271.07,312.34 271.64,307.03 272.22,310.65 272.79,310.08 273.37,317.78 273.94,307.27 274.52,304.93 275.09,312.30 275.66,313.49 276.24,316.73 276.81,314.33 277.39,315.72 277.96,313.81 278.54,310.29 279.11,305.47 279.69,312.41 280.26,312.51 280.84,316.51 281.41,317.23 281.98,316.25 282.56,317.55 283.13,317.33 283.71,311.63 284.28,310.64 284.86,313.98 285.43,313.17 286.01,311.84 286.58,317.49 287.15,317.66 287.73,316.56 288.30,312.71 288.88,317.90 289.45,323.27 290.03,318.89 290.60,320.39 291.18,320.37 291.75,326.12 292.32,320.19 292.90,318.94 293.47,324.60 294.05,325.55 294.62,319.43 295.20,319.82 295.77,320.06 296.35,323.62 296.92,319.06 297.49,317.07 298.07,323.78 298.64,318.70 299.22,318.92 299.79,320.00 300.37,319.97 300.94,319.86 301.52,318.57 302.09,316.87 302.67,321.96 303.24,322.42 303.81,316.18 304.39,318.83 304.96,322.28 305.54,321.36 306.11,323.11 306.69,324.07 307.26,319.77 307.84,315.16 308.41,319.18 308.98,316.57 309.56,321.01 310.13,321.14 310.71,317.52 311.28,312.43 311.86,317.45 312.43,316.72 313.01,319.55 313.58,323.20 314.15,322.05 314.73,317.64 315.30,319.46 315.88,323.86 316.45,316.18 317.03,321.74 317.60,320.82 318.18,321.94 318.75,311.81 319.33,317.13 319.90,317.65 320.47,320.83 321.05,314.85 321.62,314.25 322.20,321.74 322.77,316.54 323.35,311.09 323.92,319.69 324.50,318.98 325.07,318.23 325.64,311.54 326.22,322.50 326.79,316.07 327.37,315.11 327.94,316.53 328.52,315.70 329.09,310.99 329.67,314.16 330.24,313.89 330.81,320.69 331.39,312.02 331.96,311.53 332.54,311.30 333.11,320.81 333.69,313.21 334.26,316.53 334.84,315.32 335.41,321.11 335.99,313.01 336.56,315.63 337.13,314.65 337.71,309.75 338.28,311.67 338.86,319.33 339.43,316.18 340.01,308.50 340.58,303.64 341.16,314.63 341.73,309.39 342.30,320.85 342.88,318.47 343.45,317.60 344.03,316.01 344.60,309.01 345.18,318.35 345.75,320.21 346.33,318.40 346.90,313.72 347.47,313.46 348.05,314.38 348.62,312.24 349.20,319.26 349.77,314.07 350.35,314.14 350.92,313.05 351.50,312.77 352.07,313.68 352.65,312.08 353.22,311.75 353.79,318.18 354.37,314.18 354.94,321.19 355.52,316.41 356.09,320.85 356.67,313.10 357.24,318.11 357.82,316.09 358.39,316.05 358.96,312.21 359.54,323.20 360.11,314.17 360.69,320.88 361.26,313.03 361.84,317.32 362.41,316.05 362.99,315.77 363.56,319.26 364.13,321.11 364.71,313.70 365.28,319.74 365.86,322.40 366.43,322.37 367.01,314.63 367.58,311.68 368.16,313.06 368.73,319.41 369.31,319.41 369.88,308.31 370.45,315.54 371.03,318.18 371.60,319.63 372.18,322.24 372.75,321.64 373.33,311.50 373.90,320.21 374.48,321.04 375.05,322.40 375.62,319.51 376.20,320.20 376.77,314.20 377.35,318.16 377.92,316.81 378.50,314.06 379.07,315.51 379.65,316.82 380.22,316.26 380.79,318.26 381.37,321.64 381.94,320.15 382.52,315.85 383.09,318.52 383.67,317.38 384.24,320.59 384.82,315.93 385.39,314.22 385.97,323.11 386.54,324.41 387.11,314.68 387.69,317.19 388.26,319.43 388.84,319.82 389.41,321.83 389.99,325.42 390.56,321.59 391.14,324.40 391.71,322.65 392.28,323.43 392.86,320.26 393.43,316.71 394.01,325.61 394.58,319.36 395.16,323.11 395.73,323.07 396.31,318.25 396.88,321.64 397.45,317.39 398.03,326.53 398.60,325.40 399.18,322.74 399.75,326.88 400.33,321.45 400.90,323.29 401.48,324.54 402.05,321.54 402.63,323.11 403.20,315.42 403.77,330.72 404.35,325.21 404.92,325.96 405.50,329.12 406.07,321.51 406.65,320.63 407.22,326.52 407.80,322.56 408.37,318.44 408.94,323.60 409.52,328.18 410.09,327.33 410.67,323.18 411.24,320.68 411.82,326.02 412.39,322.07 412.97,320.11 413.54,325.07 414.11,317.97 414.69,333.12 415.26,316.03 415.84,319.69 416.41,316.48 416.99,330.27 417.56,320.12 418.14,328.07 418.71,318.68 419.29,331.12 419.86,321.82 420.43,323.99 421.01,323.53 421.58,326.46 422.16,323.22 422.73,326.15 423.31,314.96 423.88,324.42 424.46,327.82 425.03,330.70 425.60,327.03 426.18,323.97 426.75,329.50 427.33,326.86 427.90,328.92 428.48,327.52 429.05,332.03 429.63,320.95 430.20,329.83 430.77,324.65 431.35,319.26 431.92,324.87 432.50,323.60 433.07,330.35 433.65,324.80 434.22,327.02 434.80,326.23 435.37,329.85 435.95,325.93 436.52,333.90 437.09,324.88 437.67,325.13 438.24,330.75 438.82,325.96 439.39,322.50 439.97,325.54 440.54,332.58 441.12,329.17 441.69,328.45 442.26,327.87 442.84,330.95 443.41,325.56 443.99,328.73 444.56,323.97 445.14,328.42 445.71,326.12 446.29,328.10 446.86,321.52 447.43,326.07 448.01,323.24 448.58,329.10 449.16,325.07 449.73,317.57 450.31,326.43 450.88,327.21 451.46,324.91 452.03,321.45 452.61,322.20 453.18,320.14 453.75,326.01 454.33,319.78 454.90,326.83 455.48,323.70 456.05,320.69 456.63,321.90 457.20,319.99 457.78,320.38 458.35,319.02 458.92,325.19 459.50,322.46 460.07,327.58 460.65,320.43 461.22,323.09 461.80,312.18 462.37,325.34 462.95,313.92 463.52,329.44 464.09,323.12 464.67,324.95 465.24,326.52 465.82,322.24 466.39,320.74 466.97,332.45 467.54,320.30 468.12,332.33 468.69,319.27 469.27,325.62 469.84,324.81 470.41,325.29 470.99,326.69 471.56,319.88 472.14,334.29 472.71,323.20 473.29,326.31 473.86,322.08 474.44,322.00 475.01,324.28 475.58,320.09 476.16,330.45 476.73,325.48 477.31,322.93 477.88,324.22 478.46,318.51 479.03,324.65 479.61,325.32 480.18,325.20 480.75,327.28 481.33,326.22 481.90,325.57 482.48,325.27 483.05,330.08 483.63,329.58 484.20,331.57 484.78,329.00 485.35,328.12 485.93,332.67 486.50,325.67 487.07,332.35 487.65,324.34 488.22,328.11 488.80,329.22 489.37,325.35 489.95,331.11 490.52,327.61 491.10,330.41 491.67,330.93 492.24,328.53 492.82,332.48 493.39,329.44 493.97,327.40 494.54,330.42 495.12,326.18 495.69,323.22 496.27,331.51 496.84,327.86 497.41,327.74 497.99,324.80 498.56,329.91 499.14,329.24 499.71,326.28 500.29,332.13 500.86,328.60 501.44,327.92 502.01,335.37 502.59,334.10 503.16,326.75 503.73,329.31 504.31,328.11 504.88,331.12 505.46,330.45 506.03,331.30 506.61,330.32 507.18,334.37 507.76,333.59 508.33,333.65 508.90,332.41 509.48,334.44 510.05,330.65 510.63,330.80 511.20,334.39 511.78,332.96 512.35,338.74 512.93,336.63 513.50,336.99 514.07,336.33 514.65,332.60 515.22,334.14 515.80,332.00 516.37,332.84 516.95,332.43 517.52,326.16 518.10,331.01 518.67,334.09 519.25,328.87 519.82,334.78 520.39,333.44 520.97,333.22 521.54,336.87 522.12,330.95 522.69,336.51 523.27,335.18 523.84,328.03 524.42,336.91 524.99,334.85 525.56,331.31 526.14,337.73 526.71,332.33 527.29,334.51 527.86,337.14 528.44,335.75 529.01,336.50 529.59,332.15 530.16,329.41 530.73,334.17 531.31,338.93 531.88,334.39 532.46,342.37 533.03,337.37 533.61,334.71 534.18,341.75 534.76,334.05 535.33,337.19 535.91,335.68 536.48,335.02 537.05,344.65 537.63,341.89 538.20,331.99 538.78,336.87 539.35,336.96 539.93,338.06 540.50,342.24 541.08,342.15 541.65,338.36 542.22,335.29 542.80,330.03 543.37,339.31 543.95,335.57 544.52,341.18 545.10,337.74 545.67,333.03 546.25,337.11 546.82,335.69 547.39,340.04 547.97,332.27 548.54,339.21 549.12,343.87 549.69,333.98 550.27,338.50 550.84,341.56 551.42,346.23 551.99,339.97 552.57,341.75 553.14,341.70 553.71,347.80 554.29,338.61 554.86,331.02 555.44,334.42 556.01,338.22 556.59,335.28 557.16,345.59 557.74,340.99 558.31,338.02 558.88,340.65 559.46,343.16 560.03,351.00 560.61,340.59 561.18,347.32 561.76,348.66 562.33,343.29 562.91,342.49 563.48,342.21 564.05,345.10 564.63,350.13 565.20,343.86 565.78,344.63 566.35,342.04 566.93,342.75 567.50,349.86 568.08,346.78 568.65,350.25 569.23,356.64 569.80,345.60 570.37,350.94 570.95,350.82 571.52,348.14 572.10,345.04 572.67,349.35 573.25,348.62 573.82,346.91 574.40,347.74 574.97,346.47 575.54,355.42 576.12,352.03 576.69,344.69 577.27,348.98 577.84,349.85 578.42,349.40 578.99,355.37 579.57,352.69 580.14,353.39 580.71,348.26 581.29,353.45 581.86,348.36 582.44,350.20 583.01,356.98 583.59,353.79 584.16,356.32 584.74,357.69 585.31,360.29 585.89,359.30 586.46,346.91 587.03,357.14 587.61,353.06 588.18,355.31 588.76,358.61 589.33,360.35 589.91,364.17 590.48,363.44 591.06,359.34 591.63,357.99 592.20,355.54 592.78,353.12 593.35,361.71 593.93,363.35 594.50,359.25 595.08,355.99 595.65,357.11 596.23,359.01 596.80,348.96 597.37,352.32 597.95,361.50 598.52,359.82 599.10,362.24 599.67,361.27 600.25,361.08 600.82,356.40 601.40,351.51 601.97,358.95 602.55,367.28 603.12,360.31 603.69,361.75 604.27,357.97 604.84,354.02 605.42,360.51 605.99,359.59 606.57,363.99 607.14,357.87 607.72,356.09 608.29,365.07 608.86,361.15 609.44,362.45 610.01,364.15 610.59,364.80 611.16,360.35 611.74,359.01 612.31,359.05 612.89,356.58 613.46,361.50 614.03,365.29 614.61,356.13 615.18,355.31 615.76,363.52 616.33,360.08 616.91,353.17 617.48,358.36 618.06,355.13 618.63,349.84 619.21,357.80 619.78,357.21 620.35,365.20 620.93,350.82 621.50,358.90 622.08,358.16 622.65,355.21 623.23,352.43 623.80,354.30 624.38,355.44 624.95,356.15 625.52,358.41 626.10,346.22 626.67,350.41 627.25,352.45 627.82,356.45 628.40,362.02 628.97,351.59 629.55,362.48 630.12,349.62 630.69,352.65 631.27,354.71 631.84,355.10 632.42,350.51 632.99,342.59 633.57,350.62 634.14,351.26 634.72,345.69 635.29,344.25 635.87,343.78 636.44,347.48 637.01,350.76 637.59,344.75 638.16,347.83 638.74,342.06 639.31,347.38 639.89,349.07 640.46,347.60 641.04,347.08 641.61,345.80 642.18,345.82 642.76,349.49 643.33,341.40 643.91,343.23 644.48,341.13 645.06,346.92 645.63,353.04 646.21,345.70 646.78,344.14 647.35,344.85 647.93,345.55 648.50,348.54 649.08,343.81 649.65,345.14 650.23,348.24 650.80,347.79 651.38,343.52 651.95,348.84 652.53,348.67 653.10,341.68 653.67,345.73 654.25,349.59 654.82,347.75 655.40,351.72 655.97,345.83 656.55,354.78 657.12,352.68 657.70,350.26 658.27,352.45 658.84,354.74 659.42,345.82 659.99,347.94 660.57,358.53 661.14,352.77 661.72,354.36 662.29,362.35 662.87,348.79 663.44,354.76 664.01,357.19 664.59,356.43 665.16,355.23 665.74,356.58 666.31,357.83 666.89,355.09 667.46,357.20 668.04,353.72 668.61,359.67 669.19,353.05 669.76,361.33 670.33,361.82 670.91,360.15 671.48,353.48 672.06,356.87 672.63,367.07 673.21,357.71 673.78,359.01 674.36,357.58 674.93,361.36 675.50,361.50 676.08,362.60 676.65,360.06 677.23,358.92 677.80,359.68 678.38,365.79 678.95,362.27 679.53,360.65 680.10,366.34 680.67,370.72 681.25,365.45 681.82,366.38 682.40,362.99 682.97,359.12 683.55,365.36 684.12,370.87 684.70,370.65 685.27,361.88 685.85,364.00 686.42,364.06 686.99,363.00 687.57,366.64 688.14,368.93 688.72,368.43 689.29,370.50 689.87,376.60 690.44,372.79 691.02,370.00 691.59,363.28 692.16,364.10 692.74,370.82 693.31,366.70 693.89,362.94 694.46,375.90 695.04,368.61 695.61,371.19 696.19,365.95 696.76,374.55 697.33,375.23 697.91,368.52 698.48,371.30 699.06,375.46 699.63,379.17 700.21,376.49 700.78,370.96 701.36,365.66 701.93,371.08 702.51,373.86 703.08,377.31 703.65,367.82 704.23,369.98 704.80,377.59 705.38,369.01 705.95,371.43 706.53,372.89 707.10,368.96 707.68,373.38 708.25,372.98 708.82,363.24 709.40,370.86 709.97,373.21 710.55,374.96 711.12,372.32 711.70,367.73 712.27,374.34 712.85,368.72 713.42,370.49 713.99,367.38 714.57,362.22 715.14,374.49 715.72,374.08 716.29,374.80 716.87,365.96 717.44,370.94 718.02,363.07 718.59,376.01 719.16,370.24 719.74,367.55 720.31,354.97 720.89,370.68 721.46,370.09 722.04,365.14 722.61,369.03 723.19,366.93 723.76,375.72 724.34,374.44 724.91,368.51 725.48,368.73 726.06,369.07 726.63,370.54 727.21,368.23 727.78,368.40 728.36,369.77 728.93,369.23 729.51,369.05 730.08,370.36 730.65,376.28 731.23,371.80 731.80,369.51 732.38,378.76 732.95,376.49 733.53,371.95 734.10,375.34 734.68,365.65 735.25,365.75 735.82,366.71 736.40,373.04 736.97,375.00 737.55,382.05 738.12,369.23 738.70,373.61 739.27,370.72 739.85,369.87 740.42,376.80 741.00,376.99 741.57,376.69 742.14,379.96 742.72,377.87 743.29,378.72 743.87,376.65 744.44,367.69 745.02,372.95 745.59,379.01 746.17,379.68 746.74,381.02 747.31,380.32 747.89,380.03 748.46,377.48 749.04,379.69 749.61,384.85 750.19,378.50 750.76,376.91 751.34,384.43 751.91,379.71 752.48,376.30 753.06,376.19 753.63,383.41 754.21,382.68 754.78,383.82 755.36,382.65 755.93,381.38 756.51,376.29 757.08,384.17 757.66,383.52 758.23,380.41 758.80,389.49 759.38,384.03 759.95,384.14 760.53,385.12 761.10,385.72 761.68,377.91 762.25,368.95 762.83,374.24 763.40,382.52 763.97,375.19 764.55,380.43 765.12,380.38 765.70,376.82 766.27,382.31 766.85,375.86 767.42,376.37 768.00,377.33 768.57,374.29 769.14,372.39 769.72,371.12 770.29,374.59 770.87,378.67 771.44,379.76 772.02,379.53 772.59,379.44 773.17,374.54 773.74,372.43 774.32,365.61 774.89,379.51 775.46,378.37 776.04,378.12 776.61,370.65 777.19,371.68 777.76,361.75 778.34,366.14 778.91,372.83 779.49,369.03 780.06,371.32 780.63,371.63 781.21,372.45 781.78,372.76 782.36,371.32 782.93,370.26 783.51,365.38 784.08,366.02 784.66,369.35 785.23,371.26 785.80,377.39 786.38,368.48 786.95,372.34 787.53,365.11 788.10,365.39 788.68,371.92 789.25,373.27 789.83,368.24 790.40,369.33 790.98,372.09 791.55,371.30 792.12,364.31 792.70,377.85 793.27,372.47 793.85,374.38 794.42,364.86 795.00,367.09 795.57,368.82 796.15,368.86 796.72,373.95 797.29,370.39 797.87,371.05 798.44,371.46 799.02,365.18 799.59,365.49 800.17,366.98 800.74,366.12 801.32,365.94 801.89,364.98 802.46,373.15 803.04,372.58 803.61,362.76 804.19,364.62 804.76,370.56 805.34,372.64 805.91,369.41 806.49,367.13 807.06,375.12 807.64,374.43 808.21,371.32 808.78,372.73 809.36,373.07 809.93,375.46 810.51,382.19 811.08,372.87 811.66,372.79 812.23,371.31 812.81,380.63 813.38,374.33 813.95,378.72 814.53,382.72 815.10,374.51 815.68,375.51 816.25,376.73 816.83,377.87 817.40,376.51 817.98,380.10 818.55,373.31 819.12,379.93 819.70,373.07 820.27,382.07 820.85,384.29 821.42,379.41 822.00,379.79 822.57,380.96 823.15,380.75 823.72,375.37 824.30,378.29 824.87,380.27 825.44,378.19 826.02,378.04 826.59,377.56 827.17,370.34 827.74,378.01 828.32,380.95 828.89,377.75 829.47,376.95 830.04,387.46 830.61,381.01 831.19,373.44 831.76,382.46 832.34,379.49 832.91,384.90 833.49,375.32 834.06,380.33 834.64,378.75 835.21,379.86 835.78,389.43 836.36,377.46 836.93,381.92 837.51,373.52 838.08,375.25 838.66,374.51 839.23,382.17 839.81,384.32 840.38,386.04 840.96,381.41 841.53,375.80 842.10,379.93 842.68,374.82 843.25,379.80 843.83,383.02 844.40,382.76 844.98,377.96 845.55,373.05 846.13,372.25 846.70,378.22 847.27,382.37 847.85,375.90 848.42,373.32 849.00,375.50 849.57,378.57 850.15,380.28 850.72,384.03 851.30,382.07 851.87,383.43 852.44,375.26 853.02,376.77 853.59,383.30 854.17,380.67 854.74,378.05 855.32,381.00 855.89,388.42 856.47,383.93 857.04,375.02 857.62,388.50 858.19,385.81 858.76,380.16 859.34,379.85 859.91,381.62 860.49,383.28 861.06,384.68 861.64,382.79 862.21,392.14 862.79,380.22 863.36,386.92 863.93,390.04 864.51,386.94 865.08,379.53 865.66,379.22 866.23,386.30 866.81,381.27 867.38,377.94 867.96,385.55 868.53,383.83 869.10,381.51 869.68,381.80 870.25,385.38 870.83,382.18 871.40,381.21 871.98,386.14 872.55,381.14 873.13,383.30 873.70,384.01 874.28,385.03 874.85,376.41 875.42,377.20 876.00,377.71 876.57,375.09 877.15,375.47 877.72,377.99 878.30,387.26 878.87,375.68 879.45,370.61 880.02,376.89 880.59,379.65 881.17,374.62 881.74,378.02 882.32,373.94 882.89,369.69 883.47,379.23 884.04,370.49 884.62,374.55 885.19,378.40 885.76,375.72 886.34,373.15 886.91,369.61 887.49,371.58 888.06,366.60 888.64,366.75 889.21,374.87 889.79,369.18 890.36,372.70 890.94,362.42 891.51,366.25 892.08,372.43 892.66,367.57 893.23,369.39 893.81,364.82 894.38,360.02 894.96,363.08 895.53,364.90 896.11,359.24 896.68,368.45 897.25,370.77 897.83,368.18 898.40,362.64 898.98,361.72 899.55,359.86 900.13,362.88 900.70,362.80 901.28,362.81 901.85,366.16 902.42,360.97 903.00,364.10 903.57,365.47 904.15,368.87 904.72,363.78 905.30,368.22 905.87,367.20 906.45,366.76 907.02,362.59 907.60,365.65 908.17,362.80 908.74,363.04 909.32,364.62 909.89,362.20 910.47,362.33 911.04,365.67 911.62,364.35 912.19,363.97 912.77,365.99 913.34,363.29 913.91,365.20 914.49,360.34 915.06,364.43 915.64,366.95 916.21,365.87 916.79,364.41 917.36,364.02 917.94,370.94 918.51,371.34 919.08,366.86 919.66,374.13 920.23,372.74 920.81,371.62 921.38,370.18 921.96,370.14 922.53,376.44 923.11,368.38 923.68,365.78 924.26,379.74 924.83,374.99 925.40,376.65 925.98,376.76 926.55,369.89 927.13,375.75 927.70,377.01 928.28,373.48 928.85,369.87 929.43,373.40 930.00,371.28" />
  <rect x="720" y="80" width="190" height="127" fill="#ffffff" stroke="#cccccc" stroke-width="1" rx="8" ry="8" />
  <line x1="732" y1="105" x2="762" y2="105" stroke="#2563eb" stroke-width="4" />
  <text x="770" y="110" font-size="14" font-family="Arial">base_data</text>
  <line x1="732" y1="133" x2="762" y2="133" stroke="#dc2626" stroke-width="4" />
  <text x="770" y="138" font-size="14" font-family="Arial">pruning_884</text>
  <line x1="732" y1="161" x2="762" y2="161" stroke="#16a34a" stroke-width="4" />
  <text x="770" y="166" font-size="14" font-family="Arial">pruning_mcts_885</text>
  <line x1="732" y1="189" x2="762" y2="189" stroke="#ea580c" stroke-width="4" />
  <text x="770" y="194" font-size="14" font-family="Arial">pruning_best885</text>
</svg>