<svg xmlns="http://www.w3.org/2000/svg" width="1000" height="520">
  <rect x="0" y="0" width="1000" height="520" fill="#ffffff" />
  <line x1="70" y1="450" x2="930" y2="450" stroke="#333333" stroke-width="2" />
  <line x1="70" y1="70" x2="70" y2="450" stroke="#333333" stroke-width="2" />
  <text x="500.0" y="35" text-anchor="middle" font-size="24" font-family="Arial">Self-Play Episode Length</text>
  <text x="500.0" y="500" text-anchor="middle" font-size="16" font-family="Arial">Batch</text>
  <text x="28" y="260.0" text-anchor="middle" font-size="16" font-family="Arial" transform="rotate(-90 28 260.0)">Episode Length</text>
  <text x="70" y="58" font-size="13" font-family="Arial">64.000</text>
  <text x="70" y="470" font-size="13" font-family="Arial">7.000</text>
  <text x="70" y="488" font-size="13" font-family="Arial">1</text>
  <text x="930" y="488" text-anchor="end" font-size="13" font-family="Arial">1500</text>
  <line x1="70" y1="146.00" x2="930" y2="146.00" stroke="#dddddd" stroke-width="1" stroke-dasharray="4,4" />
  <line x1="70" y1="222.00" x2="930" y2="222.00" stroke="#dddddd" stroke-width="1" stroke-dasharray="4,4" />
  <line x1="70" y1="298.00" x2="930" y2="298.00" stroke="#dddddd" stroke-width="1" stroke-dasharray="4,4" />
  <line x1="70" y1="374.00" x2="930" y2="374.00" stroke="#dddddd" stroke-width="1" stroke-dasharray="4,4" />
  <polyline fill="none" stroke="#2563eb" stroke-width="3" points="70.00,416.67 70.57,303.33 71.15,383.33 71.72,423.33 72.29,370.00 72.87,396.67 73.44,410.00 74.02,436.67 74.59,416.67 75.16,443.33 75.74,370.00 76.31,376.67 76.88,396.67 77.46,430.00 78.03,383.33 78.61,356.67 79.18,410.00 79.75,443.33 80.33,403.33 80.90,403.33 81.47,430.00 82.05,410.00 82.62,430.00 83.20,363.33 83.77,423.33 84.34,410.00 84.92,416.67 85.49,403.33 86.06,410.00 86.64,436.67 87.21,436.67 87.79,436.67 88.36,416.67 88.93,403.33 89.51,383.33 90.08,370.00 90.65,376.67 91.23,443.33 91.80,423.33 92.37,396.67 92.95,410.00 93.52,416.67 94.10,376.67 94.67,363.33 95.24,403.33 95.82,450.00 96.39,390.00 96.96,376.67 97.54,410.00 98.11,423.33 98.69,390.00 99.26,410.00 99.83,423.33 100.41,330.00 100.98,383.33 101.55,430.00 102.13,396.67 102.70,383.33 103.28,383.33 103.85,403.33 104.42,416.67 105.00,450.00 105.57,396.67 106.14,423.33 106.72,423.33 107.29,396.67 107.87,436.67 108.44,443.33 109.01,430.00 109.59,396.67 110.16,396.67 110.73,383.33 111.31,450.00 111.88,403.33 112.45,443.33 113.03,430.00 113.60,416.67 114.18,430.00 114.75,396.67 115.32,430.00 115.90,410.00 116.47,343.33 117.04,423.33 117.62,430.00 118.19,396.67 118.77,430.00 119.34,416.67 119.91,450.00 120.49,383.33 121.06,403.33 121.63,436.67 122.21,450.00 122.78,396.67 123.36,436.67 123.93,403.33 124.50,450.00 125.08,423.33 125.65,410.00 126.22,423.33 126.80,423.33 127.37,403.33 127.95,390.00 128.52,436.67 129.09,443.33 129.67,396.67 130.24,430.00 130.81,436.67 131.39,430.00 131.96,396.67 132.54,416.67 133.11,436.67 133.68,450.00 134.26,423.33 134.83,423.33 135.40,410.00 135.98,450.00 136.55,450.00 137.12,443.33 137.70,430.00 138.27,423.33 138.85,436.67 139.42,410.00 139.99,430.00 140.57,396.67 141.14,383.33 141.71,410.00 142.29,370.00 142.86,416.67 143.44,450.00 144.01,423.33 144.58,450.00 145.16,423.33 145.73,436.67 146.30,410.00 146.88,410.00 147.45,430.00 148.03,416.67 148.60,396.67 149.17,410.00 149.75,370.00 150.32,410.00 150.89,410.00 151.47,376.67 152.04,410.00 152.62,430.00 153.19,423.33 153.76,410.00 154.34,383.33 154.91,450.00 155.48,436.67 156.06,423.33 156.63,410.00 157.20,450.00 157.78,423.33 158.35,423.33 158.93,423.33 159.50,423.33 160.07,396.67 160.65,330.00 161.22,356.67 161.79,383.33 162.37,436.67 162.94,436.67 163.52,436.67 164.09,436.67 164.66,390.00 165.24,410.00 165.81,450.00 166.38,416.67 166.96,443.33 167.53,416.67 168.11,430.00 168.68,436.67 169.25,443.33 169.83,410.00 170.40,436.67 170.97,436.67 171.55,410.00 172.12,443.33 172.70,416.67 173.27,450.00 173.84,436.67 174.42,416.67 174.99,383.33 175.56,410.00 176.14,436.67 176.71,423.33 177.28,403.33 177.86,403.33 178.43,430.00 179.01,443.33 179.58,436.67 180.15,443.33 180.73,450.00 181.30,450.00 181.87,443.33 182.45,443.33 183.02,450.00 183.60,383.33 184.17,416.67 184.74,436.67 185.32,450.00 185.89,430.00 186.46,436.67 187.04,450.00 187.61,430.00 188.19,416.67 188.76,423.33 189.33,436.67 189.91,450.00 190.48,423.33 191.05,423.33 191.63,423.33 192.20,443.33 192.78,450.00 193.35,436.67 193.92,430.00 194.50,436.67 195.07,450.00 195.64,423.33 196.22,443.33 196.79,403.33 197.36,436.67 197.94,436.67 198.51,390.00 199.09,450.00 199.66,416.67 200.23,450.00 200.81,396.67 201.38,416.67 201.95,436.67 202.53,323.33 203.10,436.67 203.68,423.33 204.25,423.33 204.82,436.67 205.40,423.33 205.97,410.00 206.54,403.33 207.12,436.67 207.69,423.33 208.27,450.00 208.84,443.33 209.41,430.00 209.99,410.00 210.56,450.00 211.13,436.67 211.71,416.67 212.28,450.00 212.86,423.33 213.43,403.33 214.00,430.00 214.58,436.67 215.15,450.00 215.72,443.33 216.30,450.00 216.87,450.00 217.44,410.00 218.02,423.33 218.59,450.00 219.17,450.00 219.74,423.33 220.31,436.67 220.89,416.67 221.46,443.33 222.03,450.00 222.61,436.67 223.18,403.33 223.76,450.00 224.33,410.00 224.90,443.33 225.48,436.67 226.05,450.00 226.62,430.00 227.20,443.33 227.77,410.00 228.35,450.00 228.92,436.67 229.49,436.67 230.07,430.00 230.64,436.67 231.21,450.00 231.79,436.67 232.36,423.33 232.94,430.00 233.51,423.33 234.08,436.67 234.66,436.67 235.23,370.00 235.80,436.67 236.38,443.33 236.95,383.33 237.53,450.00 238.10,436.67 238.67,450.00 239.25,416.67 239.82,416.67 240.39,436.67 240.97,450.00 241.54,370.00 242.11,436.67 242.69,443.33 243.26,436.67 243.84,396.67 244.41,450.00 244.98,416.67 245.56,350.00 246.13,416.67 246.70,423.33 247.28,443.33 247.85,436.67 248.43,410.00 249.00,436.67 249.57,443.33 250.15,436.67 250.72,450.00 251.29,450.00 251.87,416.67 252.44,443.33 253.02,410.00 253.59,443.33 254.16,450.00 254.74,436.67 255.31,416.67 255.88,403.33 256.46,436.67 257.03,430.00 257.61,423.33 258.18,450.00 258.75,450.00 259.33,396.67 259.90,410.00 260.47,450.00 261.05,436.67 261.62,436.67 262.19,436.67 262.77,410.00 263.34,443.33 263.92,450.00 264.49,443.33 265.06,430.00 265.64,430.00 266.21,443.33 266.78,410.00 267.36,436.67 267.93,410.00 268.51,436.67 269.08,430.00 269.65,436.67 270.23,450.00 270.80,443.33 271.37,443.33 271.95,450.00 272.52,450.00 273.10,450.00 273.67,436.67 274.24,436.67 274.82,436.67 275.39,450.00 275.96,450.00 276.54,443.33 277.11,436.67 277.69,343.33 278.26,443.33 278.83,450.00 279.41,430.00 279.98,416.67 280.55,450.00 281.13,450.00 281.70,436.67 282.27,450.00 282.85,436.67 283.42,370.00 284.00,430.00 284.57,436.67 285.14,423.33 285.72,450.00 286.29,443.33 286.86,436.67 287.44,410.00 288.01,423.33 288.59,430.00 289.16,450.00 289.73,410.00 290.31,430.00 290.88,436.67 291.45,443.33 292.03,430.00 292.60,430.00 293.18,430.00 293.75,436.67 294.32,403.33 294.90,436.67 295.47,450.00 296.04,436.67 296.62,396.67 297.19,450.00 297.77,450.00 298.34,430.00 298.91,423.33 299.49,423.33 300.06,396.67 300.63,423.33 301.21,436.67 301.78,436.67 302.35,436.67 302.93,416.67 303.50,436.67 304.08,410.00 304.65,450.00 305.22,410.00 305.80,430.00 306.37,410.00 306.94,450.00 307.52,403.33 308.09,450.00 308.67,450.00 309.24,436.67 309.81,403.33 310.39,450.00 310.96,416.67 311.53,450.00 312.11,436.67 312.68,430.00 313.26,430.00 313.83,430.00 314.40,436.67 314.98,450.00 315.55,450.00 316.12,450.00 316.70,423.33 317.27,450.00 317.85,436.67 318.42,450.00 318.99,443.33 319.57,410.00 320.14,436.67 320.71,423.33 321.29,436.67 321.86,443.33 322.43,450.00 323.01,450.00 323.58,450.00 324.16,450.00 324.73,423.33 325.30,436.67 325.88,443.33 326.45,450.00 327.02,450.00 327.60,436.67 328.17,390.00 328.75,410.00 329.32,443.33 329.89,416.67 330.47,443.33 331.04,416.67 331.61,423.33 332.19,450.00 332.76,450.00 333.34,423.33 333.91,430.00 334.48,450.00 335.06,436.67 335.63,450.00 336.20,443.33 336.78,410.00 337.35,450.00 337.93,450.00 338.50,450.00 339.07,450.00 339.65,450.00 340.22,436.67 340.79,443.33 341.37,450.00 341.94,443.33 342.52,436.67 343.09,443.33 343.66,450.00 344.24,410.00 344.81,450.00 345.38,436.67 345.96,450.00 346.53,443.33 347.10,430.00 347.68,423.33 348.25,450.00 348.83,436.67 349.40,436.67 349.97,403.33 350.55,436.67 351.12,450.00 351.69,390.00 352.27,410.00 352.84,423.33 353.42,436.67 353.99,416.67 354.56,436.67 355.14,443.33 355.71,390.00 356.28,436.67 356.86,450.00 357.43,416.67 358.01,450.00 358.58,436.67 359.15,450.00 359.73,423.33 360.30,423.33 360.87,423.33 361.45,450.00 362.02,436.67 362.60,450.00 363.17,443.33 363.74,450.00 364.32,450.00 364.89,410.00 365.46,410.00 366.04,423.33 366.61,443.33 367.18,436.67 367.76,450.00 368.33,430.00 368.91,436.67 369.48,430.00 370.05,443.33 370.63,416.67 371.20,436.67 371.77,443.33 372.35,443.33 372.92,436.67 373.50,423.33 374.07,343.33 374.64,423.33 375.22,410.00 375.79,436.67 376.36,450.00 376.94,450.00 377.51,430.00 378.09,410.00 378.66,450.00 379.23,450.00 379.81,410.00 380.38,423.33 380.95,450.00 381.53,450.00 382.10,410.00 382.68,423.33 383.25,423.33 383.82,443.33 384.40,443.33 384.97,423.33 385.54,436.67 386.12,443.33 386.69,436.67 387.26,436.67 387.84,450.00 388.41,436.67 388.99,443.33 389.56,330.00 390.13,410.00 390.71,376.67 391.28,383.33 391.85,450.00 392.43,450.00 393.00,450.00 393.58,410.00 394.15,403.33 394.72,423.33 395.30,443.33 395.87,436.67 396.44,443.33 397.02,430.00 397.59,443.33 398.17,436.67 398.74,450.00 399.31,436.67 399.89,423.33 400.46,450.00 401.03,436.67 401.61,436.67 402.18,436.67 402.76,450.00 403.33,443.33 403.90,416.67 404.48,383.33 405.05,436.67 405.62,450.00 406.20,436.67 406.77,403.33 407.34,443.33 407.92,436.67 408.49,443.33 409.07,430.00 409.64,423.33 410.21,450.00 410.79,436.67 411.36,436.67 411.93,436.67 412.51,390.00 413.08,443.33 413.66,450.00 414.23,450.00 414.80,430.00 415.38,430.00 415.95,423.33 416.52,450.00 417.10,450.00 417.67,450.00 418.25,436.67 418.82,410.00 419.39,450.00 419.97,450.00 420.54,436.67 421.11,443.33 421.69,436.67 422.26,410.00 422.84,416.67 423.41,443.33 423.98,416.67 424.56,450.00 425.13,423.33 425.70,423.33 426.28,450.00 426.85,443.33 427.42,423.33 428.00,450.00 428.57,423.33 429.15,430.00 429.72,423.33 430.29,430.00 430.87,436.67 431.44,430.00 432.01,423.33 432.59,410.00 433.16,403.33 433.74,423.33 434.31,436.67 434.88,390.00 435.46,403.33 436.03,410.00 436.60,436.67 437.18,450.00 437.75,363.33 438.33,443.33 438.90,450.00 439.47,450.00 440.05,436.67 440.62,450.00 441.19,423.33 441.77,423.33 442.34,436.67 442.92,403.33 443.49,416.67 444.06,450.00 444.64,423.33 445.21,436.67 445.78,450.00 446.36,450.00 446.93,436.67 447.51,423.33 448.08,430.00 448.65,450.00 449.23,450.00 449.80,430.00 450.37,450.00 450.95,450.00 451.52,450.00 452.09,396.67 452.67,443.33 453.24,436.67 453.82,443.33 454.39,450.00 454.96,423.33 455.54,376.67 456.11,383.33 456.68,383.33 457.26,450.00 457.83,383.33 458.41,450.00 458.98,450.00 459.55,423.33 460.13,410.00 460.70,436.67 461.27,436.67 461.85,423.33 462.42,443.33 463.00,416.67 463.57,410.00 464.14,436.67 464.72,423.33 465.29,430.00 465.86,396.67 466.44,436.67 467.01,416.67 467.59,390.00 468.16,436.67 468.73,450.00 469.31,423.33 469.88,410.00 470.45,416.67 471.03,436.67 471.60,383.33 472.17,423.33 472.75,450.00 473.32,450.00 473.90,423.33 474.47,450.00 475.04,450.00 475.62,430.00 476.19,436.67 476.76,450.00 477.34,436.67 477.91,450.00 478.49,450.00 479.06,416.67 479.63,450.00 480.21,403.33 480.78,430.00 481.35,450.00 481.93,450.00 482.50,443.33 483.08,450.00 483.65,436.67 484.22,450.00 484.80,450.00 485.37,436.67 485.94,430.00 486.52,450.00 487.09,423.33 487.67,410.00 488.24,430.00 488.81,436.67 489.39,430.00 489.96,450.00 490.53,430.00 491.11,416.67 491.68,450.00 492.25,423.33 492.83,443.33 493.40,403.33 493.98,436.67 494.55,390.00 495.12,403.33 495.70,430.00 496.27,436.67 496.84,423.33 497.42,310.00 497.99,443.33 498.57,450.00 499.14,436.67 499.71,443.33 500.29,423.33 500.86,423.33 501.43,410.00 502.01,450.00 502.58,390.00 503.16,443.33 503.73,410.00 504.30,416.67 504.88,383.33 505.45,450.00 506.02,396.67 506.60,423.33 507.17,396.67 507.75,450.00 508.32,410.00 508.89,423.33 509.47,423.33 510.04,436.67 510.61,396.67 511.19,403.33 511.76,450.00 512.33,450.00 512.91,436.67 513.48,436.67 514.06,450.00 514.63,450.00 515.20,443.33 515.78,416.67 516.35,443.33 516.92,443.33 517.50,436.67 518.07,403.33 518.65,410.00 519.22,436.67 519.79,436.67 520.37,423.33 520.94,396.67 521.51,423.33 522.09,416.67 522.66,416.67 523.24,450.00 523.81,423.33 524.38,436.67 524.96,450.00 525.53,450.00 526.10,450.00 526.68,423.33 527.25,450.00 527.83,416.67 528.40,450.00 528.97,436.67 529.55,450.00 530.12,443.33 530.69,336.67 531.27,416.67 531.84,450.00 532.41,416.67 532.99,450.00 533.56,436.67 534.14,443.33 534.71,436.67 535.28,436.67 535.86,423.33 536.43,423.33 537.00,443.33 537.58,423.33 538.15,396.67 538.73,416.67 539.30,423.33 539.87,430.00 540.45,363.33 541.02,443.33 541.59,423.33 542.17,436.67 542.74,423.33 543.32,436.67 543.89,423.33 544.46,410.00 545.04,450.00 545.61,450.00 546.18,436.67 546.76,436.67 547.33,416.67 547.91,410.00 548.48,416.67 549.05,436.67 549.63,436.67 550.20,450.00 550.77,450.00 551.35,430.00 551.92,416.67 552.49,450.00 553.07,430.00 553.64,423.33 554.22,436.67 554.79,410.00 555.36,430.00 555.94,376.67 556.51,423.33 557.08,430.00 557.66,436.67 558.23,443.33 558.81,450.00 559.38,423.33 559.95,376.67 560.53,403.33 561.10,416.67 561.67,416.67 562.25,390.00 562.82,410.00 563.40,443.33 563.97,423.33 564.54,436.67 565.12,436.67 565.69,450.00 566.26,443.33 566.84,450.00 567.41,410.00 567.99,423.33 568.56,416.67 569.13,430.00 569.71,430.00 570.28,450.00 570.85,443.33 571.43,436.67 572.00,436.67 572.58,436.67 573.15,450.00 573.72,436.67 574.30,443.33 574.87,450.00 575.44,423.33 576.02,443.33 576.59,430.00 577.16,450.00 577.74,430.00 578.31,423.33 578.89,450.00 579.46,383.33 580.03,396.67 580.61,430.00 581.18,443.33 581.75,396.67 582.33,450.00 582.90,370.00 583.48,410.00 584.05,443.33 584.62,410.00 585.20,436.67 585.77,416.67 586.34,416.67 586.92,436.67 587.49,410.00 588.07,436.67 588.64,436.67 589.21,443.33 589.79,416.67 590.36,436.67 590.93,450.00 591.51,423.33 592.08,423.33 592.66,390.00 593.23,436.67 593.80,403.33 594.38,436.67 594.95,423.33 595.52,443.33 596.10,396.67 596.67,450.00 597.24,416.67 597.82,430.00 598.39,443.33 598.97,436.67 599.54,423.33 600.11,443.33 600.69,436.67 601.26,443.33 601.83,410.00 602.41,423.33 602.98,423.33 603.56,390.00 604.13,416.67 604.70,403.33 605.28,443.33 605.85,443.33 606.42,450.00 607.00,423.33 607.57,370.00 608.15,436.67 608.72,450.00 609.29,436.67 609.87,430.00 610.44,363.33 611.01,450.00 611.59,423.33 612.16,383.33 612.74,450.00 613.31,423.33 613.88,443.33 614.46,416.67 615.03,450.00 615.60,436.67 616.18,416.67 616.75,450.00 617.32,423.33 617.90,436.67 618.47,450.00 619.05,443.33 619.62,396.67 620.19,436.67 620.77,423.33 621.34,396.67 621.91,443.33 622.49,450.00 623.06,410.00 623.64,450.00 624.21,450.00 624.78,430.00 625.36,443.33 625.93,356.67 626.50,450.00 627.08,256.67 627.65,423.33 628.23,430.00 628.80,450.00 629.37,410.00 629.95,423.33 630.52,363.33 631.09,436.67 631.67,423.33 632.24,423.33 632.82,436.67 633.39,450.00 633.96,436.67 634.54,430.00 635.11,430.00 635.68,430.00 636.26,443.33 636.83,363.33 637.40,443.33 637.98,436.67 638.55,443.33 639.13,423.33 639.70,436.67 640.27,450.00 640.85,443.33 641.42,450.00 641.99,436.67 642.57,363.33 643.14,416.67 643.72,436.67 644.29,443.33 644.86,396.67 645.44,410.00 646.01,450.00 646.58,430.00 647.16,450.00 647.73,416.67 648.31,450.00 648.88,423.33 649.45,423.33 650.03,436.67 650.60,423.33 651.17,416.67 651.75,423.33 652.32,450.00 652.90,403.33 653.47,416.67 654.04,416.67 654.62,416.67 655.19,450.00 655.76,423.33 656.34,450.00 656.91,436.67 657.48,436.67 658.06,383.33 658.63,450.00 659.21,416.67 659.78,410.00 660.35,450.00 660.93,436.67 661.50,450.00 662.07,443.33 662.65,416.67 663.22,430.00 663.80,443.33 664.37,443.33 664.94,436.67 665.52,450.00 666.09,423.33 666.66,390.00 667.24,436.67 667.81,436.67 668.39,436.67 668.96,443.33 669.53,423.33 670.11,423.33 670.68,423.33 671.25,450.00 671.83,450.00 672.40,443.33 672.98,436.67 673.55,436.67 674.12,430.00 674.70,410.00 675.27,443.33 675.84,443.33 676.42,423.33 676.99,423.33 677.57,343.33 678.14,383.33 678.71,370.00 679.29,410.00 679.86,436.67 680.43,450.00 681.01,430.00 681.58,390.00 682.15,376.67 682.73,436.67 683.30,423.33 683.88,423.33 684.45,416.67 685.02,450.00 685.60,443.33 686.17,410.00 686.74,423.33 687.32,430.00 687.89,423.33 688.47,376.67 689.04,430.00 689.61,423.33 690.19,443.33 690.76,436.67 691.33,370.00 691.91,436.67 692.48,450.00 693.06,410.00 693.63,436.67 694.20,370.00 694.78,443.33 695.35,396.67 695.92,410.00 696.50,370.00 697.07,450.00 697.65,403.33 698.22,450.00 698.79,416.67 699.37,436.67 699.94,436.67 700.51,396.67 701.09,443.33 701.66,450.00 702.23,423.33 702.81,410.00 703.38,423.33 703.96,436.67 704.53,450.00 705.10,410.00 705.68,443.33 706.25,423.33 706.82,450.00 707.40,423.33 707.97,423.33 708.55,430.00 709.12,436.67 709.69,356.67 710.27,443.33 710.84,443.33 711.41,410.00 711.99,450.00 712.56,410.00 713.14,430.00 713.71,450.00 714.28,423.33 714.86,450.00 715.43,423.33 716.00,430.00 716.58,450.00 717.15,436.67 717.73,443.33 718.30,436.67 718.87,436.67 719.45,450.00 720.02,423.33 720.59,436.67 721.17,443.33 721.74,356.67 722.31,436.67 722.89,450.00 723.46,450.00 724.04,430.00 724.61,436.67 725.18,396.67 725.76,443.33 726.33,423.33 726.90,423.33 727.48,423.33 728.05,450.00 728.63,423.33 729.20,410.00 729.77,423.33 730.35,436.67 730.92,430.00 731.49,423.33 732.07,450.00 732.64,403.33 733.22,443.33 733.79,436.67 734.36,423.33 734.94,383.33 735.51,436.67 736.08,436.67 736.66,450.00 737.23,436.67 737.81,436.67 738.38,410.00 738.95,376.67 739.53,416.67 740.10,450.00 740.67,423.33 741.25,396.67 741.82,436.67 742.39,436.67 742.97,430.00 743.54,410.00 744.12,423.33 744.69,423.33 745.26,423.33 745.84,450.00 746.41,436.67 746.98,396.67 747.56,396.67 748.13,410.00 748.71,436.67 749.28,430.00 749.85,443.33 750.43,436.67 751.00,370.00 751.57,450.00 752.15,436.67 752.72,416.67 753.30,450.00 753.87,410.00 754.44,416.67 755.02,450.00 755.59,383.33 756.16,436.67 756.74,450.00 757.31,396.67 757.89,450.00 758.46,423.33 759.03,410.00 759.61,410.00 760.18,416.67 760.75,443.33 761.33,410.00 761.90,423.33 762.47,423.33 763.05,436.67 763.62,443.33 764.20,430.00 764.77,436.67 765.34,436.67 765.92,403.33 766.49,423.33 767.06,450.00 767.64,443.33 768.21,416.67 768.79,450.00 769.36,443.33 769.93,436.67 770.51,443.33 771.08,436.67 771.65,443.33 772.23,430.00 772.80,356.67 773.38,410.00 773.95,436.67 774.52,390.00 775.10,376.67 775.67,450.00 776.24,423.33 776.82,436.67 777.39,450.00 777.97,436.67 778.54,396.67 779.11,450.00 779.69,296.67 780.26,396.67 780.83,396.67 781.41,430.00 781.98,383.33 782.56,436.67 783.13,410.00 783.70,450.00 784.28,423.33 784.85,443.33 785.42,403.33 786.00,436.67 786.57,410.00 787.14,416.67 787.72,436.67 788.29,410.00 788.87,450.00 789.44,436.67 790.01,403.33 790.59,370.00 791.16,450.00 791.73,436.67 792.31,423.33 792.88,390.00 793.46,450.00 794.03,436.67 794.60,423.33 795.18,443.33 795.75,443.33 796.32,450.00 796.90,443.33 797.47,443.33 798.05,430.00 798.62,396.67 799.19,436.67 799.77,423.33 800.34,430.00 800.91,383.33 801.49,450.00 802.06,423.33 802.64,443.33 803.21,370.00 803.78,423.33 804.36,410.00 804.93,423.33 805.50,430.00 806.08,410.00 806.65,450.00 807.22,436.67 807.80,450.00 808.37,443.33 808.95,423.33 809.52,450.00 810.09,416.67 810.67,410.00 811.24,363.33 811.81,423.33 812.39,416.67 812.96,423.33 813.54,383.33 814.11,410.00 814.68,423.33 815.26,436.67 815.83,430.00 816.40,450.00 816.98,416.67 817.55,450.00 818.13,423.33 818.70,436.67 819.27,450.00 819.85,450.00 820.42,450.00 820.99,410.00 821.57,403.33 822.14,450.00 822.72,410.00 823.29,436.67 823.86,430.00 824.44,450.00 825.01,436.67 825.58,403.33 826.16,410.00 826.73,450.00 827.30,410.00 827.88,430.00 828.45,350.00 829.03,450.00 829.60,450.00 830.17,436.67 830.75,450.00 831.32,430.00 831.89,416.67 832.47,423.33 833.04,436.67 833.62,410.00 834.19,450.00 834.76,396.67 835.34,423.33 835.91,410.00 836.48,336.67 837.06,410.00 837.63,436.67 838.21,416.67 838.78,436.67 839.35,403.33 839.93,396.67 840.50,450.00 841.07,443.33 841.65,443.33 842.22,403.33 842.80,423.33 843.37,436.67 843.94,296.67 844.52,410.00 845.09,390.00 845.66,423.33 846.24,390.00 846.81,376.67 847.38,356.67 847.96,423.33 848.53,436.67 849.11,383.33 849.68,423.33 850.25,416.67 850.83,430.00 851.40,423.33 851.97,416.67 852.55,430.00 853.12,423.33 853.70,450.00 854.27,343.33 854.84,410.00 855.42,443.33 855.99,410.00 856.56,436.67 857.14,423.33 857.71,423.33 858.29,416.67 858.86,436.67 859.43,430.00 860.01,436.67 860.58,423.33 861.15,450.00 861.73,410.00 862.30,396.67 862.88,376.67 863.45,436.67 864.02,423.33 864.60,436.67 865.17,443.33 865.74,423.33 866.32,430.00 866.89,430.00 867.46,450.00 868.04,443.33 868.61,423.33 869.19,436.67 869.76,423.33 870.33,436.67 870.91,436.67 871.48,450.00 872.05,450.00 872.63,423.33 873.20,410.00 873.78,450.00 874.35,416.67 874.92,416.67 875.50,443.33 876.07,450.00 876.64,436.67 877.22,410.00 877.79,423.33 878.37,436.67 878.94,423.33 879.51,423.33 880.09,430.00 880.66,410.00 881.23,416.67 881.81,370.00 882.38,416.67 882.96,423.33 883.53,416.67 884.10,443.33 884.68,403.33 885.25,436.67 885.82,443.33 886.40,430.00 886.97,423.33 887.55,383.33 888.12,423.33 888.69,423.33 889.27,363.33 889.84,416.67 890.41,436.67 890.99,450.00 891.56,436.67 892.13,403.33 892.71,403.33 893.28,396.67 893.86,450.00 894.43,423.33 895.00,450.00 895.58,436.67 896.15,363.33 896.72,450.00 897.30,450.00 897.87,403.33 898.45,436.67 899.02,430.00 899.59,416.67 900.17,396.67 900.74,430.00 901.31,423.33 901.89,376.67 902.46,416.67 903.04,376.67 903.61,443.33 904.18,436.67 904.76,403.33 905.33,443.33 905.90,443.33 906.48,430.00 907.05,443.33 907.63,443.33 908.20,450.00 908.77,436.67 909.35,410.00 909.92,430.00 910.49,443.33 911.07,416.67 911.64,436.67 912.21,423.33 912.79,430.00 913.36,356.67 913.94,443.33 914.51,436.67 915.08,436.67 915.66,383.33 916.23,436.67 916.80,410.00 917.38,436.67 917.95,436.67 918.53,430.00 919.10,436.67 919.67,436.67 920.25,450.00 920.82,430.00 921.39,430.00 921.97,450.00 922.54,396.67 923.12,450.00 923.69,430.00 924.26,410.00 924.84,410.00 925.41,396.67 925.98,450.00 926.56,423.33 927.13,436.67 927.71,450.00 928.28,450.00 928.85,416.67 929.43,423.33 930.00,396.67" />
  <polyline fill="none" stroke="#dc2626" stroke-width="3" points="70.00,356.67 70.57,356.67 71.15,330.00 71.72,356.67 72.29,410.00 72.87,343.33 73.44,383.33 74.02,323.33 74.59,390.00 75.16,396.67 75.74,410.00 76.31,416.67 76.88,430.00 77.46,370.00 78.03,390.00 78.61,396.67 79.18,363.33 79.75,396.67 80.33,396.67 80.90,383.33 81.47,423.33 82.05,396.67 82.62,296.67 83.20,383.33 83.77,396.67 84.34,443.33 84.92,396.67 85.49,343.33 86.06,396.67 86.64,410.00 87.21,390.00 87.79,416.67 88.36,436.67 88.93,443.33 89.51,383.33 90.08,443.33 90.65,416.67 91.23,390.00 91.80,383.33 92.37,396.67 92.95,396.67 93.52,363.33 94.10,410.00 94.67,423.33 95.24,396.67 95.82,403.33 96.39,396.67 96.96,416.67 97.54,403.33 98.11,383.33 98.69,416.67 99.26,396.67 99.83,423.33 100.41,430.00 100.98,390.00 101.55,430.00 102.13,376.67 102.70,430.00 103.28,343.33 103.85,450.00 104.42,383.33 105.00,383.33 105.57,383.33 106.14,396.67 106.72,416.67 107.29,416.67 107.87,383.33 108.44,410.00 109.01,396.67 109.59,410.00 110.16,416.67 110.73,430.00 111.31,383.33 111.88,430.00 112.45,423.33 113.03,423.33 113.60,430.00 114.18,410.00 114.75,416.67 115.32,423.33 115.90,316.67 116.47,390.00 117.04,390.00 117.62,430.00 118.19,410.00 118.77,443.33 119.34,416.67 119.91,450.00 120.49,443.33 121.06,383.33 121.63,436.67 122.21,423.33 122.78,410.00 123.36,403.33 123.93,383.33 124.50,416.67 125.08,383.33 125.65,416.67 126.22,396.67 126.80,423.33 127.37,423.33 127.95,410.00 128.52,396.67 129.09,403.33 129.67,450.00 130.24,390.00 130.81,423.33 131.39,410.00 131.96,423.33 132.54,416.67 133.11,436.67 133.68,410.00 134.26,423.33 134.83,370.00 135.40,403.33 135.98,436.67 136.55,450.00 137.12,450.00 137.70,383.33 138.27,370.00 138.85,430.00 139.42,416.67 139.99,396.67 140.57,396.67 141.14,403.33 141.71,450.00 142.29,396.67 142.86,410.00 143.44,410.00 144.01,410.00 144.58,416.67 145.16,443.33 145.73,396.67 146.30,410.00 146.88,370.00 147.45,416.67 148.03,430.00 148.60,436.67 149.17,436.67 149.75,423.33 150.32,370.00 150.89,430.00 151.47,396.67 152.04,416.67 152.62,390.00 153.19,416.67 153.76,423.33 154.34,410.00 154.91,383.33 155.48,450.00 156.06,363.33 156.63,370.00 157.20,450.00 157.78,450.00 158.35,403.33 158.93,396.67 159.50,410.00 160.07,423.33 160.65,423.33 161.22,416.67 161.79,450.00 162.37,423.33 162.94,430.00 163.52,436.67 164.09,430.00 164.66,423.33 165.24,423.33 165.81,383.33 166.38,416.67 166.96,390.00 167.53,423.33 168.11,363.33 168.68,410.00 169.25,450.00 169.83,350.00 170.40,396.67 170.97,430.00 171.55,396.67 172.12,396.67 172.70,390.00 173.27,416.67 173.84,416.67 174.42,450.00 174.99,410.00 175.56,430.00 176.14,416.67 176.71,403.33 177.28,416.67 177.86,436.67 178.43,370.00 179.01,403.33 179.58,416.67 180.15,390.00 180.73,410.00 181.30,430.00 181.87,410.00 182.45,436.67 183.02,396.67 183.60,370.00 184.17,436.67 184.74,423.33 185.32,450.00 185.89,436.67 186.46,450.00 187.04,436.67 187.61,416.67 188.19,410.00 188.76,436.67 189.33,436.67 189.91,450.00 190.48,423.33 191.05,410.00 191.63,430.00 192.20,443.33 192.78,450.00 193.35,450.00 193.92,430.00 194.50,443.33 195.07,430.00 195.64,436.67 196.22,416.67 196.79,376.67 197.36,396.67 197.94,423.33 198.51,450.00 199.09,430.00 199.66,443.33 200.23,423.33 200.81,423.33 201.38,383.33 201.95,396.67 202.53,423.33 203.10,436.67 203.68,423.33 204.25,436.67 204.82,410.00 205.40,403.33 205.97,443.33 206.54,423.33 207.12,430.00 207.69,390.00 208.27,430.00 208.84,436.67 209.41,410.00 209.99,423.33 210.56,410.00 211.13,396.67 211.71,436.67 212.28,383.33 212.86,436.67 213.43,416.67 214.00,436.67 214.58,390.00 215.15,423.33 215.72,423.33 216.30,396.67 216.87,436.67 217.44,430.00 218.02,423.33 218.59,416.67 219.17,423.33 219.74,356.67 220.31,436.67 220.89,383.33 221.46,410.00 222.03,423.33 222.61,430.00 223.18,390.00 223.76,410.00 224.33,403.33 224.90,450.00 225.48,383.33 226.05,410.00 226.62,403.33 227.20,410.00 227.77,383.33 228.35,430.00 228.92,403.33 229.49,443.33 230.07,363.33 230.64,396.67 231.21,396.67 231.79,450.00 232.36,436.67 232.94,416.67 233.51,423.33 234.08,403.33 234.66,430.00 235.23,436.67 235.80,430.00 236.38,376.67 236.95,423.33 237.53,423.33 238.10,450.00 238.67,436.67 239.25,423.33 239.82,443.33 240.39,450.00 240.97,443.33 241.54,436.67 242.11,390.00 242.69,343.33 243.26,436.67 243.84,430.00 244.41,343.33 244.98,450.00 245.56,416.67 246.13,430.00 246.70,450.00 247.28,450.00 247.85,450.00 248.43,423.33 249.00,396.67 249.57,423.33 250.15,396.67 250.72,383.33 251.29,436.67 251.87,403.33 252.44,450.00 253.02,430.00 253.59,416.67 254.16,383.33 254.74,423.33 255.31,423.33 255.88,443.33 256.46,396.67 257.03,416.67 257.61,416.67 258.18,450.00 258.75,436.67 259.33,390.00 259.90,450.00 260.47,416.67 261.05,416.67 261.62,390.00 262.19,383.33 262.77,416.67 263.34,410.00 263.92,423.33 264.49,443.33 265.06,423.33 265.64,436.67 266.21,410.00 266.78,443.33 267.36,443.33 267.93,450.00 268.51,436.67 269.08,396.67 269.65,423.33 270.23,410.00 270.80,450.00 271.37,436.67 271.95,450.00 272.52,436.67 273.10,436.67 273.67,436.67 274.24,396.67 274.82,436.67 275.39,383.33 275.96,403.33 276.54,396.67 277.11,423.33 277.69,443.33 278.26,436.67 278.83,390.00 279.41,423.33 279.98,383.33 280.55,363.33 281.13,416.67 281.70,436.67 282.27,436.67 282.85,443.33 283.42,430.00 284.00,450.00 284.57,410.00 285.14,416.67 285.72,436.67 286.29,436.67 286.86,416.67 287.44,450.00 288.01,450.00 288.59,410.00 289.16,430.00 289.73,450.00 290.31,383.33 290.88,416.67 291.45,423.33 292.03,430.00 292.60,450.00 293.18,383.33 293.75,396.67 294.32,450.00 294.90,450.00 295.47,436.67 296.04,390.00 296.62,423.33 297.19,443.33 297.77,443.33 298.34,430.00 298.91,436.67 299.49,396.67 300.06,436.67 300.63,450.00 301.21,390.00 301.78,423.33 302.35,403.33 302.93,436.67 303.50,416.67 304.08,403.33 304.65,423.33 305.22,450.00 305.80,430.00 306.37,416.67 306.94,403.33 307.52,450.00 308.09,443.33 308.67,443.33 309.24,403.33 309.81,423.33 310.39,450.00 310.96,416.67 311.53,443.33 312.11,436.67 312.68,370.00 313.26,423.33 313.83,423.33 314.40,436.67 314.98,410.00 315.55,410.00 316.12,430.00 316.70,410.00 317.27,396.67 317.85,356.67 318.42,396.67 318.99,436.67 319.57,390.00 320.14,423.33 320.71,436.67 321.29,423.33 321.86,410.00 322.43,443.33 323.01,430.00 323.58,436.67 324.16,436.67 324.73,450.00 325.30,410.00 325.88,436.67 326.45,443.33 327.02,423.33 327.60,423.33 328.17,423.33 328.75,436.67 329.32,416.67 329.89,390.00 330.47,396.67 331.04,436.67 331.61,383.33 332.19,436.67 332.76,443.33 333.34,423.33 333.91,423.33 334.48,436.67 335.06,416.67 335.63,416.67 336.20,443.33 336.78,443.33 337.35,430.00 337.93,436.67 338.50,443.33 339.07,370.00 339.65,430.00 340.22,416.67 340.79,450.00 341.37,430.00 341.94,376.67 342.52,450.00 343.09,436.67 343.66,416.67 344.24,436.67 344.81,396.67 345.38,436.67 345.96,423.33 346.53,443.33 347.10,430.00 347.68,416.67 348.25,383.33 348.83,436.67 349.40,423.33 349.97,430.00 350.55,430.00 351.12,423.33 351.69,390.00 352.27,430.00 352.84,436.67 353.42,450.00 353.99,443.33 354.56,403.33 355.14,450.00 355.71,450.00 356.28,423.33 356.86,443.33 357.43,403.33 358.01,443.33 358.58,370.00 359.15,356.67 359.73,430.00 360.30,410.00 360.87,416.67 361.45,403.33 362.02,450.00 362.60,423.33 363.17,403.33 363.74,410.00 364.32,416.67 364.89,416.67 365.46,450.00 366.04,436.67 366.61,450.00 367.18,376.67 367.76,416.67 368.33,403.33 368.91,403.33 369.48,443.33 370.05,430.00 370.63,436.67 371.20,410.00 371.77,436.67 372.35,423.33 372.92,436.67 373.50,450.00 374.07,410.00 374.64,430.00 375.22,403.33 375.79,423.33 376.36,330.00 376.94,443.33 377.51,396.67 378.09,450.00 378.66,396.67 379.23,396.67 379.81,443.33 380.38,450.00 380.95,450.00 381.53,430.00 382.10,436.67 382.68,410.00 383.25,436.67 383.82,423.33 384.40,430.00 384.97,450.00 385.54,416.67 386.12,450.00 386.69,450.00 387.26,430.00 387.84,423.33 388.41,403.33 388.99,443.33 389.56,383.33 390.13,443.33 390.71,430.00 391.28,443.33 391.85,443.33 392.43,443.33 393.00,423.33 393.58,450.00 394.15,356.67 394.72,436.67 395.30,423.33 395.87,423.33 396.44,356.67 397.02,410.00 397.59,450.00 398.17,436.67 398.74,450.00 399.31,436.67 399.89,450.00 400.46,423.33 401.03,416.67 401.61,423.33 402.18,436.67 402.76,430.00 403.33,403.33 403.90,450.00 404.48,436.67 405.05,443.33 405.62,403.33 406.20,443.33 406.77,443.33 407.34,450.00 407.92,450.00 408.49,396.67 409.07,436.67 409.64,390.00 410.21,430.00 410.79,423.33 411.36,416.67 411.93,416.67 412.51,450.00 413.08,423.33 413.66,443.33 414.23,436.67 414.80,403.33 415.38,430.00 415.95,423.33 416.52,416.67 417.10,436.67 417.67,403.33 418.25,416.67 418.82,436.67 419.39,383.33 419.97,450.00 420.54,410.00 421.11,410.00 421.69,430.00 422.26,436.67 422.84,416.67 423.41,436.67 423.98,436.67 424.56,450.00 425.13,390.00 425.70,436.67 426.28,436.67 426.85,423.33 427.42,410.00 428.00,450.00 428.57,430.00 429.15,403.33 429.72,436.67 430.29,436.67 430.87,450.00 431.44,403.33 432.01,443.33 432.59,390.00 433.16,410.00 433.74,450.00 434.31,436.67 434.88,403.33 435.46,343.33 436.03,423.33 436.60,410.00 437.18,450.00 437.75,390.00 438.33,410.00 438.90,450.00 439.47,436.67 440.05,450.00 440.62,410.00 441.19,423.33 441.77,436.67 442.34,423.33 442.92,410.00 443.49,443.33 444.06,450.00 444.64,343.33 445.21,423.33 445.78,430.00 446.36,436.67 446.93,423.33 447.51,436.67 448.08,410.00 448.65,443.33 449.23,416.67 449.80,436.67 450.37,383.33 450.95,430.00 451.52,430.00 452.09,416.67 452.67,423.33 453.24,383.33 453.82,436.67 454.39,450.00 454.96,403.33 455.54,450.00 456.11,436.67 456.68,403.33 457.26,450.00 457.83,430.00 458.41,396.67 458.98,416.67 459.55,436.67 460.13,436.67 460.70,410.00 461.27,396.67 461.85,436.67 462.42,416.67 463.00,436.67 463.57,450.00 464.14,383.33 464.72,410.00 465.29,423.33 465.86,423.33 466.44,450.00 467.01,436.67 467.59,443.33 468.16,423.33 468.73,396.67 469.31,443.33 469.88,450.00 470.45,430.00 471.03,443.33 471.60,416.67 472.17,436.67 472.75,450.00 473.32,436.67 473.90,423.33 474.47,450.00 475.04,450.00 475.62,403.33 476.19,410.00 476.76,436.67 477.34,430.00 477.91,436.67 478.49,436.67 479.06,436.67 479.63,430.00 480.21,410.00 480.78,436.67 481.35,450.00 481.93,430.00 482.50,443.33 483.08,396.67 483.65,410.00 484.22,430.00 484.80,423.33 485.37,410.00 485.94,443.33 486.52,436.67 487.09,436.67 487.67,436.67 488.24,370.00 488.81,423.33 489.39,410.00 489.96,436.67 490.53,410.00 491.11,443.33 491.68,403.33 492.25,383.33 492.83,450.00 493.40,436.67 493.98,430.00 494.55,436.67 495.12,416.67 495.70,410.00 496.27,390.00 496.84,423.33 497.42,390.00 497.99,430.00 498.57,396.67 499.14,436.67 499.71,423.33 500.29,450.00 500.86,443.33 501.43,436.67 502.01,436.67 502.58,443.33 503.16,430.00 503.73,443.33 504.30,390.00 504.88,450.00 505.45,403.33 506.02,436.67 506.60,450.00 507.17,423.33 507.75,410.00 508.32,423.33 508.89,430.00 509.47,450.00 510.04,423.33 510.61,443.33 511.19,436.67 511.76,416.67 512.33,430.00 512.91,396.67 513.48,443.33 514.06,390.00 514.63,436.67 515.20,443.33 515.78,383.33 516.35,430.00 516.92,403.33 517.50,423.33 518.07,423.33 518.65,450.00 519.22,450.00 519.79,443.33 520.37,450.00 520.94,436.67 521.51,403.33 522.09,423.33 522.66,443.33 523.24,396.67 523.81,430.00 524.38,450.00 524.96,443.33 525.53,396.67 526.10,430.00 526.68,430.00 527.25,436.67 527.83,436.67 528.40,423.33 528.97,430.00 529.55,443.33 530.12,443.33 530.69,450.00 531.27,430.00 531.84,450.00 532.41,436.67 532.99,410.00 533.56,410.00 534.14,410.00 534.71,436.67 535.28,356.67 535.86,443.33 536.43,443.33 537.00,403.33 537.58,436.67 538.15,450.00 538.73,410.00 539.30,430.00 539.87,443.33 540.45,436.67 541.02,436.67 541.59,450.00 542.17,436.67 542.74,423.33 543.32,410.00 543.89,423.33 544.46,343.33 545.04,416.67 545.61,443.33 546.18,450.00 546.76,416.67 547.33,443.33 547.91,403.33 548.48,436.67 549.05,436.67 549.63,443.33 550.20,450.00 550.77,430.00 551.35,416.67 551.92,450.00 552.49,390.00 553.07,370.00 553.64,376.67 554.22,383.33 554.79,416.67 555.36,450.00 555.94,450.00 556.51,436.67 557.08,403.33 557.66,410.00 558.23,436.67 558.81,376.67 559.38,436.67 559.95,416.67 560.53,403.33 561.10,436.67 561.67,396.67 562.25,436.67 562.82,396.67 563.40,430.00 563.97,450.00 564.54,410.00 565.12,436.67 565.69,423.33 566.26,383.33 566.84,443.33 567.41,450.00 567.99,423.33 568.56,390.00 569.13,416.67 569.71,396.67 570.28,430.00 570.85,410.00 571.43,423.33 572.00,423.33 572.58,450.00 573.15,423.33 573.72,423.33 574.30,450.00 574.87,436.67 575.44,423.33 576.02,430.00 576.59,416.67 577.16,403.33 577.74,423.33 578.31,423.33 578.89,416.67 579.46,396.67 580.03,443.33 580.61,430.00 581.18,356.67 581.75,423.33 582.33,410.00 582.90,416.67 583.48,416.67 584.05,390.00 584.62,436.67 585.20,436.67 585.77,436.67 586.34,436.67 586.92,416.67 587.49,436.67 588.07,450.00 588.64,423.33 589.21,450.00 589.79,416.67 590.36,443.33 590.93,356.67 591.51,443.33 592.08,436.67 592.66,416.67 593.23,450.00 593.80,430.00 594.38,443.33 594.95,410.00 595.52,436.67 596.10,430.00 596.67,436.67 597.24,396.67 597.82,450.00 598.39,443.33 598.97,430.00 599.54,450.00 600.11,430.00 600.69,383.33 601.26,450.00 601.83,410.00 602.41,396.67 602.98,450.00 603.56,450.00 604.13,450.00 604.70,416.67 605.28,376.67 605.85,436.67 606.42,423.33 607.00,436.67 607.57,410.00 608.15,436.67 608.72,450.00 609.29,403.33 609.87,430.00 610.44,436.67 611.01,443.33 611.59,403.33 612.16,436.67 612.74,436.67 613.31,410.00 613.88,416.67 614.46,450.00 615.03,383.33 615.60,430.00 616.18,416.67 616.75,383.33 617.32,410.00 617.90,430.00 618.47,450.00 619.05,410.00 619.62,430.00 620.19,410.00 620.77,403.33 621.34,443.33 621.91,430.00 622.49,423.33 623.06,416.67 623.64,436.67 624.21,430.00 624.78,443.33 625.36,423.33 625.93,410.00 626.50,436.67 627.08,450.00 627.65,430.00 628.23,450.00 628.80,423.33 629.37,443.33 629.95,423.33 630.52,423.33 631.09,403.33 631.67,450.00 632.24,423.33 632.82,436.67 633.39,410.00 633.96,390.00 634.54,396.67 635.11,383.33 635.68,403.33 636.26,436.67 636.83,430.00 637.40,436.67 637.98,436.67 638.55,443.33 639.13,410.00 639.70,350.00 640.27,436.67 640.85,450.00 641.42,376.67 641.99,416.67 642.57,423.33 643.14,450.00 643.72,390.00 644.29,443.33 644.86,430.00 645.44,416.67 646.01,450.00 646.58,416.67 647.16,416.67 647.73,416.67 648.31,403.33 648.88,450.00 649.45,410.00 650.03,436.67 650.60,403.33 651.17,450.00 651.75,410.00 652.32,410.00 652.90,436.67 653.47,370.00 654.04,436.67 654.62,443.33 655.19,403.33 655.76,450.00 656.34,423.33 656.91,423.33 657.48,430.00 658.06,423.33 658.63,443.33 659.21,383.33 659.78,430.00 660.35,410.00 660.93,416.67 661.50,383.33 662.07,436.67 662.65,423.33 663.22,410.00 663.80,410.00 664.37,416.67 664.94,430.00 665.52,430.00 666.09,430.00 666.66,410.00 667.24,443.33 667.81,436.67 668.39,423.33 668.96,450.00 669.53,430.00 670.11,450.00 670.68,443.33 671.25,410.00 671.83,410.00 672.40,376.67 672.98,436.67 673.55,423.33 674.12,423.33 674.70,450.00 675.27,450.00 675.84,403.33 676.42,403.33 676.99,450.00 677.57,410.00 678.14,436.67 678.71,450.00 679.29,436.67 679.86,416.67 680.43,436.67 681.01,436.67 681.58,423.33 682.15,450.00 682.73,450.00 683.30,423.33 683.88,416.67 684.45,410.00 685.02,423.33 685.60,423.33 686.17,450.00 686.74,450.00 687.32,403.33 687.89,403.33 688.47,416.67 689.04,436.67 689.61,410.00 690.19,436.67 690.76,356.67 691.33,436.67 691.91,423.33 692.48,430.00 693.06,436.67 693.63,443.33 694.20,430.00 694.78,430.00 695.35,436.67 695.92,403.33 696.50,450.00 697.07,423.33 697.65,416.67 698.22,450.00 698.79,430.00 699.37,430.00 699.94,436.67 700.51,443.33 701.09,436.67 701.66,423.33 702.23,410.00 702.81,436.67 703.38,430.00 703.96,450.00 704.53,423.33 705.10,423.33 705.68,403.33 706.25,436.67 706.82,436.67 707.40,423.33 707.97,376.67 708.55,450.00 709.12,356.67 709.69,443.33 710.27,430.00 710.84,423.33 711.41,416.67 711.99,416.67 712.56,430.00 713.14,430.00 713.71,410.00 714.28,430.00 714.86,430.00 715.43,430.00 716.00,436.67 716.58,423.33 717.15,396.67 717.73,443.33 718.30,423.33 718.87,436.67 719.45,443.33 720.02,416.67 720.59,436.67 721.17,410.00 721.74,443.33 722.31,390.00 722.89,450.00 723.46,436.67 724.04,436.67 724.61,423.33 725.18,436.67 725.76,416.67 726.33,430.00 726.90,430.00 727.48,410.00 728.05,436.67 728.63,430.00 729.20,450.00 729.77,450.00 730.35,443.33 730.92,403.33 731.49,416.67 732.07,450.00 732.64,396.67 733.22,410.00 733.79,430.00 734.36,430.00 734.94,423.33 735.51,450.00 736.08,423.33 736.66,396.67 737.23,450.00 737.81,423.33 738.38,416.67 738.95,410.00 739.53,436.67 740.10,383.33 740.67,450.00 741.25,436.67 741.82,436.67 742.39,430.00 742.97,430.00 743.54,430.00 744.12,436.67 744.69,423.33 745.26,370.00 745.84,336.67 746.41,403.33 746.98,436.67 747.56,390.00 748.13,416.67 748.71,450.00 749.28,423.33 749.85,423.33 750.43,436.67 751.00,390.00 751.57,436.67 752.15,450.00 752.72,423.33 753.30,436.67 753.87,450.00 754.44,403.33 755.02,443.33 755.59,436.67 756.16,416.67 756.74,423.33 757.31,430.00 757.89,396.67 758.46,423.33 759.03,436.67 759.61,423.33 760.18,423.33 760.75,436.67 761.33,410.00 761.90,410.00 762.47,443.33 763.05,416.67 763.62,436.67 764.20,436.67 764.77,410.00 765.34,430.00 765.92,423.33 766.49,376.67 767.06,416.67 767.64,430.00 768.21,443.33 768.79,416.67 769.36,430.00 769.93,436.67 770.51,430.00 771.08,436.67 771.65,450.00 772.23,450.00 772.80,343.33 773.38,336.67 773.95,443.33 774.52,430.00 775.10,443.33 775.67,410.00 776.24,443.33 776.82,436.67 777.39,410.00 777.97,450.00 778.54,403.33 779.11,403.33 779.69,416.67 780.26,403.33 780.83,443.33 781.41,423.33 781.98,403.33 782.56,410.00 783.13,423.33 783.70,436.67 784.28,450.00 784.85,410.00 785.42,430.00 786.00,436.67 786.57,423.33 787.14,416.67 787.72,423.33 788.29,396.67 788.87,436.67 789.44,416.67 790.01,450.00 790.59,430.00 791.16,436.67 791.73,403.33 792.31,410.00 792.88,423.33 793.46,423.33 794.03,436.67 794.60,450.00 795.18,410.00 795.75,450.00 796.32,430.00 796.90,430.00 797.47,370.00 798.05,330.00 798.62,376.67 799.19,450.00 799.77,410.00 800.34,436.67 800.91,423.33 801.49,430.00 802.06,430.00 802.64,436.67 803.21,416.67 803.78,450.00 804.36,376.67 804.93,436.67 805.50,443.33 806.08,450.00 806.65,410.00 807.22,436.67 807.80,410.00 808.37,410.00 808.95,436.67 809.52,416.67 810.09,443.33 810.67,436.67 811.24,383.33 811.81,410.00 812.39,436.67 812.96,403.33 813.54,390.00 814.11,410.00 814.68,430.00 815.26,423.33 815.83,450.00 816.40,450.00 816.98,423.33 817.55,423.33 818.13,403.33 818.70,450.00 819.27,410.00 819.85,430.00 820.42,443.33 820.99,443.33 821.57,390.00 822.14,410.00 822.72,436.67 823.29,416.67 823.86,430.00 824.44,410.00 825.01,410.00 825.58,436.67 826.16,450.00 826.73,403.33 827.30,436.67 827.88,436.67 828.45,443.33 829.03,423.33 829.60,423.33 830.17,450.00 830.75,423.33 831.32,450.00 831.89,383.33 832.47,436.67 833.04,396.67 833.62,430.00 834.19,436.67 834.76,450.00 835.34,450.00 835.91,443.33 836.48,450.00 837.06,396.67 837.63,423.33 838.21,450.00 838.78,396.67 839.35,396.67 839.93,450.00 840.50,423.33 841.07,423.33 841.65,403.33 842.22,390.00 842.80,410.00 843.37,450.00 843.94,436.67 844.52,443.33 845.09,370.00 845.66,370.00 846.24,450.00 846.81,443.33 847.38,436.67 847.96,450.00 848.53,443.33 849.11,383.33 849.68,450.00 850.25,430.00 850.83,423.33 851.40,410.00 851.97,436.67 852.55,430.00 853.12,450.00 853.70,436.67 854.27,396.67 854.84,430.00 855.42,423.33 855.99,436.67 856.56,396.67 857.14,363.33 857.71,390.00 858.29,450.00 858.86,450.00 859.43,436.67 860.01,423.33 860.58,410.00 861.15,423.33 861.73,410.00 862.30,436.67 862.88,410.00 863.45,443.33 864.02,436.67 864.60,416.67 865.17,450.00 865.74,436.67 866.32,450.00 866.89,450.00 867.46,383.33 868.04,436.67 868.61,423.33 869.19,450.00 869.76,430.00 870.33,423.33 870.91,383.33 871.48,416.67 872.05,436.67 872.63,436.67 873.20,376.67 873.78,436.67 874.35,396.67 874.92,350.00 875.50,410.00 876.07,430.00 876.64,436.67 877.22,436.67 877.79,436.67 878.37,436.67 878.94,450.00 879.51,436.67 880.09,443.33 880.66,443.33 881.23,390.00 881.81,450.00 882.38,423.33 882.96,356.67 883.53,430.00 884.10,383.33 884.68,410.00 885.25,423.33 885.82,436.67 886.40,410.00 886.97,423.33 887.55,410.00 888.12,436.67 888.69,443.33 889.27,423.33 889.84,436.67 890.41,403.33 890.99,450.00 891.56,423.33 892.13,450.00 892.71,423.33 893.28,416.67 893.86,390.00 894.43,410.00 895.00,436.67 895.58,423.33 896.15,443.33 896.72,443.33 897.30,410.00 897.87,410.00 898.45,443.33 899.02,450.00 899.59,370.00 900.17,403.33 900.74,430.00 901.31,423.33 901.89,430.00 902.46,430.00 903.04,450.00 903.61,423.33 904.18,396.67 904.76,403.33 905.33,423.33 905.90,450.00 906.48,423.33 907.05,436.67 907.63,450.00 908.20,423.33 908.77,396.67 909.35,330.00 909.92,403.33 910.49,423.33 911.07,430.00 911.64,383.33 912.21,450.00 912.79,423.33 913.36,436.67 913.94,410.00 914.51,423.33 915.08,423.33 915.66,410.00 916.23,443.33 916.80,430.00 917.38,443.33 917.95,416.67 918.53,450.00 919.10,416.67 919.67,436.67 920.25,450.00 920.82,423.33 921.39,430.00 921.97,423.33 922.54,423.33 923.12,436.67 923.69,396.67 924.26,423.33 924.84,450.00 925.41,430.00 925.98,403.33 926.56,443.33 927.13,450.00 927.71,450.00 928.28,443.33 928.85,416.67 929.43,416.67 930.00,416.67" />
  <polyline fill="none" stroke="#16a34a" stroke-width="3" points="70.00,396.67 70.57,250.00 71.15,356.67 71.72,336.67 72.29,330.00 72.87,303.33 73.44,356.67 74.02,316.67 74.59,370.00 75.16,323.33 75.74,396.67 76.31,396.67 76.88,203.33 77.46,323.33 78.03,223.33 78.61,296.67 79.18,343.33 79.75,383.33 80.33,283.33 80.90,330.00 81.47,303.33 82.05,276.67 82.62,236.67 83.20,383.33 83.77,343.33 84.34,390.00 84.92,223.33 85.49,383.33 86.06,283.33 86.64,343.33 87.21,323.33 87.79,276.67 88.36,156.67 88.93,303.33 89.51,316.67 90.08,330.00 90.65,410.00 91.23,330.00 91.80,396.67 92.37,363.33 92.95,250.00 93.52,243.33 94.10,416.67 94.67,370.00 95.24,190.00 95.82,403.33 96.39,296.67 96.96,296.67 97.54,296.67 98.11,376.67 98.69,383.33 99.26,356.67 99.83,330.00 100.41,276.67 100.98,363.33 101.55,363.33 102.13,343.33 102.70,390.00 103.28,296.67 103.85,330.00 104.42,356.67 105.00,223.33 105.57,383.33 106.14,356.67 106.72,410.00 107.29,230.00 107.87,356.67 108.44,376.67 109.01,303.33 109.59,396.67 110.16,330.00 110.73,356.67 111.31,383.33 111.88,370.00 112.45,283.33 113.03,383.33 113.60,356.67 114.18,250.00 114.75,290.00 115.32,203.33 115.90,316.67 116.47,336.67 117.04,150.00 117.62,336.67 118.19,370.00 118.77,330.00 119.34,223.33 119.91,396.67 120.49,243.33 121.06,310.00 121.63,323.33 122.21,330.00 122.78,330.00 123.36,350.00 123.93,70.00 124.50,250.00 125.08,363.33 125.65,330.00 126.22,343.33 126.80,230.00 127.37,216.67 127.95,270.00 128.52,316.67 129.09,356.67 129.67,343.33 130.24,410.00 130.81,250.00 131.39,396.67 131.96,350.00 132.54,236.67 133.11,330.00 133.68,336.67 134.26,343.33 134.83,303.33 135.40,223.33 135.98,410.00 136.55,383.33 137.12,363.33 137.70,390.00 138.27,310.00 138.85,250.00 139.42,323.33 139.99,390.00 140.57,330.00 141.14,383.33 141.71,356.67 142.29,383.33 142.86,350.00 143.44,336.67 144.01,370.00 144.58,363.33 145.16,390.00 145.73,250.00 146.30,356.67 146.88,376.67 147.45,356.67 148.03,223.33 148.60,370.00 149.17,230.00 149.75,356.67 150.32,363.33 150.89,356.67 151.47,403.33 152.04,396.67 152.62,270.00 153.19,390.00 153.76,316.67 154.34,410.00 154.91,403.33 155.48,336.67 156.06,410.00 156.63,403.33 157.20,283.33 157.78,243.33 158.35,283.33 158.93,290.00 159.50,323.33 160.07,356.67 160.65,303.33 161.22,370.00 161.79,350.00 162.37,343.33 162.94,303.33 163.52,396.67 164.09,383.33 164.66,250.00 165.24,290.00 165.81,403.33 166.38,243.33 166.96,370.00 167.53,390.00 168.11,410.00 168.68,403.33 169.25,336.67 169.83,323.33 170.40,310.00 170.97,316.67 171.55,396.67 172.12,270.00 172.70,356.67 173.27,356.67 173.84,276.67 174.42,403.33 174.99,363.33 175.56,310.00 176.14,350.00 176.71,243.33 177.28,336.67 177.86,383.33 178.43,383.33 179.01,216.67 179.58,416.67 180.15,250.00 180.73,216.67 181.30,363.33 181.87,316.67 182.45,376.67 183.02,396.67 183.60,383.33 184.17,343.33 184.74,356.67 185.32,383.33 185.89,376.67 186.46,323.33 187.04,430.00 187.61,350.00 188.19,363.33 188.76,330.00 189.33,343.33 189.91,303.33 190.48,330.00 191.05,343.33 191.63,370.00 192.20,370.00 192.78,230.00 193.35,363.33 193.92,250.00 194.50,363.33 195.07,363.33 195.64,376.67 196.22,150.00 196.79,343.33 197.36,356.67 197.94,416.67 198.51,403.33 199.09,330.00 199.66,343.33 200.23,383.33 200.81,363.33 201.38,250.00 201.95,396.67 202.53,396.67 203.10,363.33 203.68,370.00 204.25,330.00 204.82,350.00 205.40,423.33 205.97,396.67 206.54,423.33 207.12,230.00 207.69,310.00 208.27,436.67 208.84,343.33 209.41,323.33 209.99,356.67 210.56,383.33 211.13,370.00 211.71,410.00 212.28,323.33 212.86,343.33 213.43,370.00 214.00,370.00 214.58,290.00 215.15,356.67 215.72,330.00 216.30,403.33 216.87,250.00 217.44,323.33 218.02,370.00 218.59,330.00 219.17,330.00 219.74,243.33 220.31,330.00 220.89,383.33 221.46,250.00 222.03,383.33 222.61,370.00 223.18,250.00 223.76,303.33 224.33,376.67 224.90,403.33 225.48,410.00 226.05,383.33 226.62,423.33 227.20,336.67 227.77,396.67 228.35,383.33 228.92,343.33 229.49,383.33 230.07,316.67 230.64,350.00 231.21,350.00 231.79,376.67 232.36,390.00 232.94,410.00 233.51,323.33 234.08,356.67 234.66,350.00 235.23,396.67 235.80,276.67 236.38,343.33 236.95,376.67 237.53,396.67 238.10,363.33 238.67,403.33 239.25,416.67 239.82,310.00 240.39,170.00 240.97,250.00 241.54,416.67 242.11,363.33 242.69,323.33 243.26,296.67 243.84,356.67 244.41,190.00 244.98,383.33 245.56,330.00 246.13,383.33 246.70,430.00 247.28,343.33 247.85,243.33 248.43,403.33 249.00,390.00 249.57,336.67 250.15,343.33 250.72,370.00 251.29,383.33 251.87,316.67 252.44,396.67 253.02,203.33 253.59,256.67 254.16,236.67 254.74,363.33 255.31,356.67 255.88,196.67 256.46,416.67 257.03,323.33 257.61,356.67 258.18,350.00 258.75,303.33 259.33,390.00 259.90,383.33 260.47,323.33 261.05,256.67 261.62,370.00 262.19,343.33 262.77,363.33 263.34,343.33 263.92,343.33 264.49,376.67 265.06,383.33 265.64,210.00 266.21,270.00 266.78,370.00 267.36,350.00 267.93,410.00 268.51,190.00 269.08,343.33 269.65,350.00 270.23,316.67 270.80,330.00 271.37,410.00 271.95,356.67 272.52,336.67 273.10,336.67 273.67,410.00 274.24,363.33 274.82,383.33 275.39,403.33 275.96,323.33 276.54,303.33 277.11,330.00 277.69,316.67 278.26,410.00 278.83,256.67 279.41,356.67 279.98,396.67 280.55,396.67 281.13,383.33 281.70,356.67 282.27,350.00 282.85,356.67 283.42,350.00 284.00,303.33 284.57,283.33 285.14,330.00 285.72,416.67 286.29,363.33 286.86,303.33 287.44,410.00 288.01,396.67 288.59,363.33 289.16,363.33 289.73,396.67 290.31,323.33 290.88,403.33 291.45,363.33 292.03,416.67 292.60,383.33 293.18,376.67 293.75,396.67 294.32,370.00 294.90,216.67 295.47,416.67 296.04,383.33 296.62,323.33 297.19,356.67 297.77,390.00 298.34,343.33 298.91,370.00 299.49,336.67 300.06,383.33 300.63,350.00 301.21,396.67 301.78,343.33 302.35,330.00 302.93,376.67 303.50,430.00 304.08,310.00 304.65,363.33 305.22,263.33 305.80,290.00 306.37,383.33 306.94,323.33 307.52,196.67 308.09,383.33 308.67,370.00 309.24,430.00 309.81,356.67 310.39,356.67 310.96,343.33 311.53,376.67 312.11,390.00 312.68,423.33 313.26,410.00 313.83,350.00 314.40,283.33 314.98,290.00 315.55,276.67 316.12,223.33 316.70,396.67 317.27,343.33 317.85,383.33 318.42,356.67 318.99,336.67 319.57,390.00 320.14,323.33 320.71,370.00 321.29,396.67 321.86,363.33 322.43,210.00 323.01,336.67 323.58,303.33 324.16,296.67 324.73,316.67 325.30,230.00 325.88,316.67 326.45,330.00 327.02,383.33 327.60,376.67 328.17,370.00 328.75,363.33 329.32,250.00 329.89,303.33 330.47,383.33 331.04,376.67 331.61,250.00 332.19,403.33 332.76,350.00 333.34,396.67 333.91,290.00 334.48,423.33 335.06,330.00 335.63,356.67 336.20,203.33 336.78,296.67 337.35,390.00 337.93,363.33 338.50,403.33 339.07,376.67 339.65,356.67 340.22,356.67 340.79,310.00 341.37,416.67 341.94,390.00 342.52,290.00 343.09,290.00 343.66,390.00 344.24,430.00 344.81,276.67 345.38,410.00 345.96,410.00 346.53,370.00 347.10,410.00 347.68,303.33 348.25,403.33 348.83,343.33 349.40,223.33 349.97,376.67 350.55,390.00 351.12,350.00 351.69,183.33 352.27,116.67 352.84,396.67 353.42,356.67 353.99,196.67 354.56,243.33 355.14,350.00 355.71,416.67 356.28,403.33 356.86,363.33 357.43,270.00 358.01,383.33 358.58,416.67 359.15,423.33 359.73,396.67 360.30,430.00 360.87,250.00 361.45,410.00 362.02,390.00 362.60,236.67 363.17,236.67 363.74,356.67 364.32,363.33 364.89,396.67 365.46,383.33 366.04,363.33 366.61,370.00 367.18,363.33 367.76,350.00 368.33,350.00 368.91,203.33 369.48,390.00 370.05,383.33 370.63,403.33 371.20,230.00 371.77,363.33 372.35,403.33 372.92,403.33 373.50,343.33 374.07,356.67 374.64,423.33 375.22,243.33 375.79,263.33 376.36,263.33 376.94,416.67 377.51,263.33 378.09,350.00 378.66,403.33 379.23,383.33 379.81,436.67 380.38,243.33 380.95,423.33 381.53,250.00 382.10,423.33 382.68,223.33 383.25,330.00 383.82,430.00 384.40,283.33 384.97,243.33 385.54,330.00 386.12,383.33 386.69,330.00 387.26,216.67 387.84,423.33 388.41,396.67 388.99,423.33 389.56,423.33 390.13,363.33 390.71,383.33 391.28,370.00 391.85,310.00 392.43,423.33 393.00,383.33 393.58,436.67 394.15,343.33 394.72,296.67 395.30,410.00 395.87,370.00 396.44,403.33 397.02,396.67 397.59,330.00 398.17,363.33 398.74,343.33 399.31,236.67 399.89,363.33 400.46,390.00 401.03,410.00 401.61,276.67 402.18,343.33 402.76,250.00 403.33,403.33 403.90,376.67 404.48,230.00 405.05,403.33 405.62,243.33 406.20,410.00 406.77,396.67 407.34,330.00 407.92,350.00 408.49,303.33 409.07,336.67 409.64,230.00 410.21,343.33 410.79,396.67 411.36,383.33 411.93,236.67 412.51,243.33 413.08,330.00 413.66,403.33 414.23,396.67 414.80,330.00 415.38,383.33 415.95,423.33 416.52,323.33 417.10,423.33 417.67,403.33 418.25,383.33 418.82,403.33 419.39,396.67 419.97,383.33 420.54,396.67 421.11,216.67 421.69,430.00 422.26,70.00 422.84,416.67 423.41,343.33 423.98,370.00 424.56,363.33 425.13,376.67 425.70,376.67 426.28,350.00 426.85,416.67 427.42,236.67 428.00,330.00 428.57,370.00 429.15,416.67 429.72,243.33 430.29,250.00 430.87,310.00 431.44,336.67 432.01,290.00 432.59,356.67 433.16,276.67 433.74,250.00 434.31,323.33 434.88,396.67 435.46,370.00 436.03,343.33 436.60,330.00 437.18,363.33 437.75,410.00 438.33,356.67 438.90,336.67 439.47,396.67 440.05,323.33 440.62,416.67 441.19,250.00 441.77,323.33 442.34,330.00 442.92,283.33 443.49,336.67 444.06,243.33 444.64,383.33 445.21,363.33 445.78,336.67 446.36,316.67 446.93,336.67 447.51,390.00 448.08,316.67 448.65,383.33 449.23,410.00 449.80,343.33 450.37,370.00 450.95,376.67 451.52,330.00 452.09,396.67 452.67,243.33 453.24,196.67 453.82,370.00 454.39,396.67 454.96,376.67 455.54,343.33 456.11,423.33 456.68,343.33 457.26,303.33 457.83,343.33 458.41,396.67 458.98,250.00 459.55,350.00 460.13,363.33 460.70,323.33 461.27,383.33 461.85,410.00 462.42,376.67 463.00,403.33 463.57,370.00 464.14,383.33 464.72,350.00 465.29,343.33 465.86,430.00 466.44,390.00 467.01,330.00 467.59,436.67 468.16,330.00 468.73,303.33 469.31,376.67 469.88,416.67 470.45,356.67 471.03,410.00 471.60,283.33 472.17,263.33 472.75,350.00 473.32,210.00 473.90,330.00 474.47,410.00 475.04,370.00 475.62,290.00 476.19,376.67 476.76,370.00 477.34,356.67 477.91,330.00 478.49,363.33 479.06,396.67 479.63,410.00 480.21,370.00 480.78,316.67 481.35,350.00 481.93,303.33 482.50,423.33 483.08,416.67 483.65,416.67 484.22,296.67 484.80,290.00 485.37,410.00 485.94,356.67 486.52,376.67 487.09,303.33 487.67,390.00 488.24,403.33 488.81,403.33 489.39,376.67 489.96,403.33 490.53,423.33 491.11,343.33 491.68,423.33 492.25,290.00 492.83,396.67 493.40,336.67 493.98,236.67 494.55,390.00 495.12,330.00 495.70,383.33 496.27,363.33 496.84,183.33 497.42,370.00 497.99,350.00 498.57,283.33 499.14,370.00 499.71,370.00 500.29,416.67 500.86,183.33 501.43,230.00 502.01,376.67 502.58,410.00 503.16,316.67 503.73,403.33 504.30,363.33 504.88,403.33 505.45,410.00 506.02,343.33 506.60,370.00 507.17,436.67 507.75,410.00 508.32,383.33 508.89,390.00 509.47,270.00 510.04,343.33 510.61,356.67 511.19,330.00 511.76,363.33 512.33,356.67 512.91,303.33 513.48,423.33 514.06,336.67 514.63,223.33 515.20,350.00 515.78,356.67 516.35,396.67 516.92,410.00 517.50,363.33 518.07,403.33 518.65,370.00 519.22,423.33 519.79,343.33 520.37,430.00 520.94,223.33 521.51,423.33 522.09,423.33 522.66,336.67 523.24,423.33 523.81,323.33 524.38,390.00 524.96,383.33 525.53,230.00 526.10,403.33 526.68,356.67 527.25,410.00 527.83,323.33 528.40,403.33 528.97,350.00 529.55,323.33 530.12,356.67 530.69,330.00 531.27,370.00 531.84,396.67 532.41,336.67 532.99,350.00 533.56,336.67 534.14,350.00 534.71,350.00 535.28,190.00 535.86,390.00 536.43,376.67 537.00,423.33 537.58,230.00 538.15,230.00 538.73,310.00 539.30,410.00 539.87,370.00 540.45,410.00 541.02,403.33 541.59,250.00 542.17,416.67 542.74,336.67 543.32,403.33 543.89,210.00 544.46,343.33 545.04,343.33 545.61,423.33 546.18,343.33 546.76,243.33 547.33,243.33 547.91,390.00 548.48,376.67 549.05,390.00 549.63,423.33 550.20,270.00 550.77,236.67 551.35,376.67 551.92,256.67 552.49,376.67 553.07,330.00 553.64,363.33 554.22,316.67 554.79,323.33 555.36,370.00 555.94,370.00 556.51,343.33 557.08,336.67 557.66,396.67 558.23,263.33 558.81,416.67 559.38,216.67 559.95,283.33 560.53,390.00 561.10,370.00 561.67,330.00 562.25,323.33 562.82,270.00 563.40,316.67 563.97,303.33 564.54,316.67 565.12,370.00 565.69,390.00 566.26,396.67 566.84,370.00 567.41,343.33 567.99,390.00 568.56,323.33 569.13,423.33 569.71,376.67 570.28,396.67 570.85,243.33 571.43,356.67 572.00,376.67 572.58,250.00 573.15,383.33 573.72,170.00 574.30,223.33 574.87,296.67 575.44,363.33 576.02,310.00 576.59,243.33 577.16,423.33 577.74,256.67 578.31,270.00 578.89,283.33 579.46,236.67 580.03,396.67 580.61,396.67 581.18,323.33 581.75,376.67 582.33,336.67 582.90,250.00 583.48,370.00 584.05,423.33 584.62,343.33 585.20,370.00 585.77,290.00 586.34,330.00 586.92,410.00 587.49,236.67 588.07,356.67 588.64,316.67 589.21,436.67 589.79,336.67 590.36,410.00 590.93,390.00 591.51,370.00 592.08,336.67 592.66,383.33 593.23,310.00 593.80,343.33 594.38,310.00 594.95,290.00 595.52,343.33 596.10,316.67 596.67,263.33 597.24,243.33 597.82,283.33 598.39,390.00 598.97,370.00 599.54,336.67 600.11,330.00 600.69,210.00 601.26,176.67 601.83,336.67 602.41,356.67 602.98,383.33 603.56,403.33 604.13,410.00 604.70,323.33 605.28,370.00 605.85,416.67 606.42,316.67 607.00,376.67 607.57,276.67 608.15,416.67 608.72,310.00 609.29,250.00 609.87,390.00 610.44,223.33 611.01,396.67 611.59,343.33 612.16,376.67 612.74,363.33 613.31,356.67 613.88,223.33 614.46,436.67 615.03,350.00 615.60,403.33 616.18,396.67 616.75,290.00 617.32,343.33 617.90,290.00 618.47,350.00 619.05,330.00 619.62,250.00 620.19,310.00 620.77,356.67 621.34,256.67 621.91,343.33 622.49,296.67 623.06,383.33 623.64,376.67 624.21,316.67 624.78,250.00 625.36,356.67 625.93,370.00 626.50,276.67 627.08,236.67 627.65,250.00 628.23,396.67 628.80,323.33 629.37,290.00 629.95,410.00 630.52,383.33 631.09,416.67 631.67,363.33 632.24,390.00 632.82,250.00 633.39,390.00 633.96,410.00 634.54,283.33 635.11,336.67 635.68,423.33 636.26,363.33 636.83,363.33 637.40,376.67 637.98,423.33 638.55,290.00 639.13,383.33 639.70,250.00 640.27,250.00 640.85,356.67 641.42,383.33 641.99,236.67 642.57,430.00 643.14,376.67 643.72,390.00 644.29,356.67 644.86,243.33 645.44,330.00 646.01,430.00 646.58,396.67 647.16,250.00 647.73,356.67 648.31,336.67 648.88,430.00 649.45,196.67 650.03,376.67 650.60,390.00 651.17,370.00 651.75,276.67 652.32,70.00 652.90,383.33 653.47,350.00 654.04,223.33 654.62,336.67 655.19,410.00 655.76,356.67 656.34,396.67 656.91,390.00 657.48,270.00 658.06,330.00 658.63,336.67 659.21,410.00 659.78,403.33 660.35,356.67 660.93,336.67 661.50,423.33 662.07,370.00 662.65,363.33 663.22,390.00 663.80,163.33 664.37,390.00 664.94,363.33 665.52,303.33 666.09,390.00 666.66,370.00 667.24,430.00 667.81,370.00 668.39,316.67 668.96,430.00 669.53,383.33 670.11,350.00 670.68,310.00 671.25,236.67 671.83,370.00 672.40,323.33 672.98,316.67 673.55,423.33 674.12,376.67 674.70,323.33 675.27,356.67 675.84,350.00 676.42,243.33 676.99,423.33 677.57,336.67 678.14,290.00 678.71,370.00 679.29,330.00 679.86,370.00 680.43,203.33 681.01,436.67 681.58,410.00 682.15,396.67 682.73,390.00 683.30,376.67 683.88,250.00 684.45,430.00 685.02,396.67 685.60,396.67 686.17,396.67 686.74,250.00 687.32,236.67 687.89,370.00 688.47,336.67 689.04,323.33 689.61,223.33 690.19,376.67 690.76,216.67 691.33,290.00 691.91,370.00 692.48,356.67 693.06,310.00 693.63,396.67 694.20,390.00 694.78,410.00 695.35,416.67 695.92,343.33 696.50,396.67 697.07,223.33 697.65,223.33 698.22,216.67 698.79,250.00 699.37,70.00 699.94,263.33 700.51,316.67 701.09,416.67 701.66,416.67 702.23,250.00 702.81,323.33 703.38,323.33 703.96,343.33 704.53,383.33 705.10,350.00 705.68,376.67 706.25,376.67 706.82,356.67 707.40,370.00 707.97,190.00 708.55,316.67 709.12,410.00 709.69,363.33 710.27,243.33 710.84,376.67 711.41,330.00 711.99,403.33 712.56,423.33 713.14,410.00 713.71,436.67 714.28,390.00 714.86,363.33 715.43,250.00 716.00,330.00 716.58,303.33 717.15,416.67 717.73,403.33 718.30,243.33 718.87,370.00 719.45,410.00 720.02,396.67 720.59,250.00 721.17,403.33 721.74,396.67 722.31,323.33 722.89,250.00 723.46,296.67 724.04,396.67 724.61,376.67 725.18,356.67 725.76,283.33 726.33,423.33 726.90,410.00 727.48,336.67 728.05,416.67 728.63,343.33 729.20,350.00 729.77,370.00 730.35,410.00 730.92,416.67 731.49,276.67 732.07,396.67 732.64,363.33 733.22,363.33 733.79,370.00 734.36,356.67 734.94,423.33 735.51,416.67 736.08,396.67 736.66,350.00 737.23,396.67 737.81,436.67 738.38,423.33 738.95,243.33 739.53,390.00 740.10,436.67 740.67,396.67 741.25,436.67 741.82,336.67 742.39,196.67 742.97,423.33 743.54,250.00 744.12,410.00 744.69,376.67 745.26,303.33 745.84,350.00 746.41,336.67 746.98,256.67 747.56,330.00 748.13,356.67 748.71,436.67 749.28,356.67 749.85,390.00 750.43,383.33 751.00,423.33 751.57,396.67 752.15,356.67 752.72,410.00 753.30,330.00 753.87,303.33 754.44,383.33 755.02,343.33 755.59,250.00 756.16,250.00 756.74,303.33 757.31,350.00 757.89,250.00 758.46,403.33 759.03,316.67 759.61,336.67 760.18,370.00 760.75,316.67 761.33,396.67 761.90,356.67 762.47,396.67 763.05,370.00 763.62,423.33 764.20,296.67 764.77,410.00 765.34,236.67 765.92,430.00 766.49,363.33 767.06,250.00 767.64,283.33 768.21,343.33 768.79,143.33 769.36,310.00 769.93,383.33 770.51,343.33 771.08,296.67 771.65,303.33 772.23,243.33 772.80,250.00 773.38,150.00 773.95,370.00 774.52,370.00 775.10,403.33 775.67,376.67 776.24,323.33 776.82,383.33 777.39,423.33 777.97,423.33 778.54,243.33 779.11,356.67 779.69,356.67 780.26,410.00 780.83,370.00 781.41,316.67 781.98,236.67 782.56,356.67 783.13,376.67 783.70,423.33 784.28,383.33 784.85,323.33 785.42,350.00 786.00,370.00 786.57,383.33 787.14,330.00 787.72,423.33 788.29,323.33 788.87,390.00 789.44,343.33 790.01,236.67 790.59,423.33 791.16,243.33 791.73,243.33 792.31,370.00 792.88,350.00 793.46,336.67 794.03,376.67 794.60,370.00 795.18,256.67 795.75,310.00 796.32,370.00 796.90,410.00 797.47,130.00 798.05,303.33 798.62,423.33 799.19,383.33 799.77,296.67 800.34,390.00 800.91,210.00 801.49,350.00 802.06,356.67 802.64,416.67 803.21,430.00 803.78,376.67 804.36,436.67 804.93,343.33 805.50,283.33 806.08,356.67 806.65,236.67 807.22,376.67 807.80,243.33 808.37,383.33 808.95,370.00 809.52,383.33 810.09,423.33 810.67,343.33 811.24,436.67 811.81,70.00 812.39,363.33 812.96,236.67 813.54,203.33 814.11,436.67 814.68,376.67 815.26,423.33 815.83,336.67 816.40,236.67 816.98,303.33 817.55,356.67 818.13,356.67 818.70,70.00 819.27,336.67 819.85,296.67 820.42,403.33 820.99,236.67 821.57,216.67 822.14,350.00 822.72,416.67 823.29,390.00 823.86,370.00 824.44,236.67 825.01,423.33 825.58,423.33 826.16,250.00 826.73,336.67 827.30,330.00 827.88,296.67 828.45,383.33 829.03,216.67 829.60,370.00 830.17,296.67 830.75,276.67 831.32,370.00 831.89,370.00 832.47,336.67 833.04,330.00 833.62,390.00 834.19,350.00 834.76,263.33 835.34,336.67 835.91,390.00 836.48,310.00 837.06,350.00 837.63,363.33 838.21,410.00 838.78,336.67 839.35,350.00 839.93,370.00 840.50,256.67 841.07,410.00 841.65,423.33 842.22,303.33 842.80,390.00 843.37,276.67 843.94,303.33 844.52,370.00 845.09,403.33 845.66,336.67 846.24,290.00 846.81,423.33 847.38,370.00 847.96,356.67 848.53,410.00 849.11,423.33 849.68,390.00 850.25,390.00 850.83,250.00 851.40,403.33 851.97,356.67 852.55,396.67 853.12,423.33 853.70,370.00 854.27,410.00 854.84,350.00 855.42,350.00 855.99,210.00 856.56,236.67 857.14,370.00 857.71,330.00 858.29,363.33 858.86,436.67 859.43,296.67 860.01,430.00 860.58,250.00 861.15,250.00 861.73,303.33 862.30,423.33 862.88,416.67 863.45,316.67 864.02,296.67 864.60,423.33 865.17,316.67 865.74,303.33 866.32,336.67 866.89,410.00 867.46,410.00 868.04,410.00 868.61,163.33 869.19,330.00 869.76,350.00 870.33,423.33 870.91,363.33 871.48,290.00 872.05,243.33 872.63,250.00 873.20,310.00 873.78,376.67 874.35,370.00 874.92,390.00 875.50,250.00 876.07,243.33 876.64,383.33 877.22,376.67 877.79,216.67 878.37,303.33 878.94,356.67 879.51,396.67 880.09,323.33 880.66,370.00 881.23,243.33 881.81,350.00 882.38,316.67 882.96,356.67 883.53,410.00 884.10,396.67 884.68,383.33 885.25,410.00 885.82,356.67 886.40,356.67 886.97,350.00 887.55,390.00 888.12,243.33 888.69,296.67 889.27,336.67 889.84,436.67 890.41,343.33 890.99,343.33 891.56,290.00 892.13,356.67 892.71,343.33 893.28,276.67 893.86,356.67 894.43,410.00 895.00,350.00 895.58,396.67 896.15,323.33 896.72,423.33 897.30,423.33 897.87,403.33 898.45,390.00 899.02,416.67 899.59,250.00 900.17,376.67 900.74,410.00 901.31,223.33 901.89,383.33 902.46,156.67 903.04,390.00 903.61,283.33 904.18,250.00 904.76,436.67 905.33,410.00 905.90,243.33 906.48,350.00 907.05,410.00 907.63,416.67 908.20,363.33 908.77,276.67 909.35,410.00 909.92,250.00 910.49,236.67 911.07,396.67 911.64,363.33 912.21,363.33 912.79,403.33 913.36,250.00 913.94,210.00 914.51,310.00 915.08,383.33 915.66,370.00 916.23,223.33 916.80,170.00 917.38,363.33 917.95,243.33 918.53,363.33 919.10,303.33 919.67,403.33 920.25,423.33 920.82,403.33 921.39,290.00 921.97,356.67 922.54,196.67 923.12,323.33 923.69,430.00 924.26,336.67 924.84,343.33 925.41,350.00 925.98,396.67 926.56,250.00 927.13,203.33 927.71,250.00 928.28,370.00 928.85,316.67 929.43,296.67 930.00,403.33" />
  <polyline fill="none" stroke="#ea580c" stroke-width="3" points="70.00,296.67 70.57,350.00 71.15,350.00 71.72,336.67 72.29,336.67 72.87,323.33 73.44,343.33 74.02,316.67 74.59,290.00 75.16,336.67 75.74,390.00 76.31,343.33 76.88,243.33 77.46,330.00 78.03,356.67 78.61,270.00 79.18,250.00 79.75,316.67 80.33,296.67 80.90,383.33 81.47,250.00 82.05,316.67 82.62,396.67 83.20,370.00 83.77,370.00 84.34,430.00 84.92,310.00 85.49,223.33 86.06,250.00 86.64,336.67 87.21,336.67 87.79,430.00 88.36,336.67 88.93,356.67 89.51,350.00 90.08,310.00 90.65,336.67 91.23,403.33 91.80,303.33 92.37,236.67 92.95,310.00 93.52,303.33 94.10,390.00 94.67,323.33 95.24,210.00 95.82,316.67 96.39,316.67 96.96,223.33 97.54,370.00 98.11,303.33 98.69,370.00 99.26,343.33 99.83,290.00 100.41,383.33 100.98,343.33 101.55,330.00 102.13,390.00 102.70,356.67 103.28,283.33 103.85,356.67 104.42,243.33 105.00,403.33 105.57,396.67 106.14,330.00 106.72,363.33 107.29,323.33 107.87,170.00 108.44,390.00 109.01,336.67 109.59,363.33 110.16,210.00 110.73,303.33 111.31,396.67 111.88,383.33 112.45,290.00 113.03,356.67 113.60,396.67 114.18,303.33 114.75,170.00 115.32,330.00 115.90,330.00 116.47,350.00 117.04,363.33 117.62,316.67 118.19,396.67 118.77,396.67 119.34,236.67 119.91,70.00 120.49,356.67 121.06,196.67 121.63,396.67 122.21,383.33 122.78,210.00 123.36,350.00 123.93,330.00 124.50,250.00 125.08,316.67 125.65,70.00 126.22,250.00 126.80,356.67 127.37,336.67 127.95,343.33 128.52,356.67 129.09,156.67 129.67,356.67 130.24,210.00 130.81,330.00 131.39,223.33 131.96,223.33 132.54,263.33 133.11,236.67 133.68,383.33 134.26,383.33 134.83,190.00 135.40,236.67 135.98,356.67 136.55,343.33 137.12,250.00 137.70,363.33 138.27,223.33 138.85,336.67 139.42,350.00 139.99,70.00 140.57,183.33 141.14,303.33 141.71,236.67 142.29,336.67 142.86,336.67 143.44,356.67 144.01,363.33 144.58,390.00 145.16,316.67 145.73,370.00 146.30,376.67 146.88,243.33 147.45,243.33 148.03,343.33 148.60,370.00 149.17,343.33 149.75,323.33 150.32,250.00 150.89,323.33 151.47,396.67 152.04,330.00 152.62,250.00 153.19,383.33 153.76,370.00 154.34,383.33 154.91,336.67 155.48,343.33 156.06,356.67 156.63,330.00 157.20,316.67 157.78,323.33 158.35,356.67 158.93,316.67 159.50,236.67 160.07,343.33 160.65,290.00 161.22,336.67 161.79,156.67 162.37,396.67 162.94,316.67 163.52,403.33 164.09,370.00 164.66,356.67 165.24,236.67 165.81,236.67 166.38,330.00 166.96,350.00 167.53,383.33 168.11,376.67 168.68,223.33 169.25,170.00 169.83,323.33 170.40,390.00 170.97,356.67 171.55,303.33 172.12,410.00 172.70,250.00 173.27,270.00 173.84,336.67 174.42,230.00 174.99,250.00 175.56,363.33 176.14,303.33 176.71,323.33 177.28,343.33 177.86,343.33 178.43,383.33 179.01,303.33 179.58,390.00 180.15,356.67 180.73,416.67 181.30,163.33 181.87,230.00 182.45,336.67 183.02,336.67 183.60,436.67 184.17,370.00 184.74,263.33 185.32,343.33 185.89,183.33 186.46,223.33 187.04,303.33 187.61,363.33 188.19,310.00 188.76,316.67 189.33,70.00 189.91,410.00 190.48,356.67 191.05,223.33 191.63,276.67 192.20,203.33 192.78,376.67 193.35,350.00 193.92,356.67 194.50,376.67 195.07,343.33 195.64,376.67 196.22,343.33 196.79,230.00 197.36,376.67 197.94,316.67 198.51,316.67 199.09,376.67 199.66,336.67 200.23,290.00 200.81,390.00 201.38,210.00 201.95,336.67 202.53,370.00 203.10,323.33 203.68,336.67 204.25,370.00 204.82,370.00 205.40,303.33 205.97,303.33 206.54,376.67 207.12,423.33 207.69,416.67 208.27,376.67 208.84,223.33 209.41,383.33 209.99,310.00 210.56,370.00 211.13,343.33 211.71,363.33 212.28,370.00 212.86,236.67 213.43,370.00 214.00,203.33 214.58,256.67 215.15,196.67 215.72,383.33 216.30,363.33 216.87,316.67 217.44,356.67 218.02,230.00 218.59,356.67 219.17,223.33 219.74,343.33 220.31,310.00 220.89,423.33 221.46,223.33 222.03,356.67 222.61,396.67 223.18,376.67 223.76,416.67 224.33,383.33 224.90,396.67 225.48,396.67 226.05,236.67 226.62,196.67 227.20,330.00 227.77,356.67 228.35,383.33 228.92,296.67 229.49,296.67 230.07,396.67 230.64,390.00 231.21,390.00 231.79,370.00 232.36,403.33 232.94,356.67 233.51,403.33 234.08,336.67 234.66,323.33 235.23,423.33 235.80,336.67 236.38,303.33 236.95,330.00 237.53,323.33 238.10,383.33 238.67,216.67 239.25,396.67 239.82,363.33 240.39,423.33 240.97,390.00 241.54,416.67 242.11,390.00 242.69,363.33 243.26,403.33 243.84,336.67 244.41,396.67 244.98,290.00 245.56,416.67 246.13,343.33 246.70,376.67 247.28,316.67 247.85,416.67 248.43,336.67 249.00,390.00 249.57,403.33 250.15,343.33 250.72,390.00 251.29,303.33 251.87,336.67 252.44,370.00 253.02,303.33 253.59,243.33 254.16,303.33 254.74,343.33 255.31,350.00 255.88,316.67 256.46,403.33 257.03,336.67 257.61,376.67 258.18,250.00 258.75,416.67 259.33,390.00 259.90,356.67 260.47,290.00 261.05,390.00 261.62,396.67 262.19,383.33 262.77,376.67 263.34,423.33 263.92,396.67 264.49,390.00 265.06,350.00 265.64,370.00 266.21,356.67 266.78,230.00 267.36,190.00 267.93,223.33 268.51,356.67 269.08,70.00 269.65,330.00 270.23,376.67 270.80,350.00 271.37,330.00 271.95,370.00 272.52,383.33 273.10,423.33 273.67,330.00 274.24,243.33 274.82,356.67 275.39,363.33 275.96,243.33 276.54,343.33 277.11,383.33 277.69,270.00 278.26,303.33 278.83,343.33 279.41,370.00 279.98,323.33 280.55,236.67 281.13,376.67 281.70,410.00 282.27,343.33 282.85,363.33 283.42,356.67 284.00,370.00 284.57,290.00 285.14,363.33 285.72,376.67 286.29,236.67 286.86,390.00 287.44,230.00 288.01,203.33 288.59,330.00 289.16,316.67 289.73,236.67 290.31,370.00 290.88,396.67 291.45,303.33 292.03,370.00 292.60,336.67 293.18,250.00 293.75,330.00 294.32,383.33 294.90,330.00 295.47,430.00 296.04,223.33 296.62,436.67 297.19,336.67 297.77,383.33 298.34,390.00 298.91,370.00 299.49,363.33 300.06,396.67 300.63,363.33 301.21,356.67 301.78,363.33 302.35,356.67 302.93,243.33 303.50,383.33 304.08,276.67 304.65,370.00 305.22,356.67 305.80,370.00 306.37,356.67 306.94,290.00 307.52,370.00 308.09,403.33 308.67,403.33 309.24,436.67 309.81,370.00 310.39,383.33 310.96,390.00 311.53,216.67 312.11,330.00 312.68,383.33 313.26,390.00 313.83,403.33 314.40,356.67 314.98,256.67 315.55,416.67 316.12,336.67 316.70,350.00 317.27,390.00 317.85,323.33 318.42,343.33 318.99,376.67 319.57,423.33 320.14,303.33 320.71,390.00 321.29,296.67 321.86,376.67 322.43,416.67 323.01,370.00 323.58,303.33 324.16,403.33 324.73,423.33 325.30,403.33 325.88,416.67 326.45,350.00 327.02,356.67 327.60,330.00 328.17,243.33 328.75,330.00 329.32,356.67 329.89,336.67 330.47,403.33 331.04,416.67 331.61,396.67 332.19,343.33 332.76,336.67 333.34,350.00 333.91,283.33 334.48,403.33 335.06,250.00 335.63,283.33 336.20,356.67 336.78,403.33 337.35,410.00 337.93,396.67 338.50,303.33 339.07,323.33 339.65,370.00 340.22,363.33 340.79,390.00 341.37,310.00 341.94,410.00 342.52,330.00 343.09,336.67 343.66,290.00 344.24,283.33 344.81,350.00 345.38,370.00 345.96,383.33 346.53,250.00 347.10,330.00 347.68,363.33 348.25,236.67 348.83,390.00 349.40,290.00 349.97,363.33 350.55,190.00 351.12,243.33 351.69,390.00 352.27,383.33 352.84,356.67 353.42,390.00 353.99,376.67 354.56,430.00 355.14,356.67 355.71,410.00 356.28,310.00 356.86,243.33 357.43,436.67 358.01,376.67 358.58,350.00 359.15,350.00 359.73,370.00 360.30,356.67 360.87,383.33 361.45,416.67 362.02,403.33 362.60,296.67 363.17,316.67 363.74,230.00 364.32,250.00 364.89,396.67 365.46,356.67 366.04,350.00 366.61,403.33 367.18,370.00 367.76,356.67 368.33,410.00 368.91,310.00 369.48,383.33 370.05,230.00 370.63,316.67 371.20,370.00 371.77,396.67 372.35,243.33 372.92,356.67 373.50,350.00 374.07,376.67 374.64,203.33 375.22,423.33 375.79,403.33 376.36,250.00 376.94,396.67 377.51,250.00 378.09,383.33 378.66,343.33 379.23,243.33 379.81,350.00 380.38,290.00 380.95,343.33 381.53,250.00 382.10,356.67 382.68,383.33 383.25,356.67 383.82,396.67 384.40,430.00 384.97,330.00 385.54,343.33 386.12,416.67 386.69,250.00 387.26,250.00 387.84,396.67 388.41,283.33 388.99,390.00 389.56,330.00 390.13,396.67 390.71,356.67 391.28,390.00 391.85,323.33 392.43,316.67 393.00,383.33 393.58,223.33 394.15,356.67 394.72,410.00 395.30,243.33 395.87,396.67 396.44,303.33 397.02,343.33 397.59,396.67 398.17,396.67 398.74,390.00 399.31,383.33 399.89,343.33 400.46,410.00 401.03,303.33 401.61,303.33 402.18,383.33 402.76,370.00 403.33,383.33 403.90,310.00 404.48,343.33 405.05,303.33 405.62,363.33 406.20,323.33 406.77,276.67 407.34,303.33 407.92,343.33 408.49,303.33 409.07,336.67 409.64,250.00 410.21,210.00 410.79,290.00 411.36,383.33 411.93,356.67 412.51,350.00 413.08,343.33 413.66,363.33 414.23,290.00 414.80,396.67 415.38,250.00 415.95,363.33 416.52,216.67 417.10,383.33 417.67,70.00 418.25,143.33 418.82,310.00 419.39,303.33 419.97,383.33 420.54,396.67 421.11,403.33 421.69,343.33 422.26,290.00 422.84,330.00 423.41,210.00 423.98,250.00 424.56,196.67 425.13,223.33 425.70,356.67 426.28,383.33 426.85,370.00 427.42,403.33 428.00,316.67 428.57,363.33 429.15,343.33 429.72,370.00 430.29,316.67 430.87,356.67 431.44,370.00 432.01,370.00 432.59,70.00 433.16,330.00 433.74,330.00 434.31,376.67 434.88,370.00 435.46,283.33 436.03,216.67 436.60,383.33 437.18,290.00 437.75,356.67 438.33,416.67 438.90,390.00 439.47,383.33 440.05,343.33 440.62,390.00 441.19,356.67 441.77,316.67 442.34,330.00 442.92,356.67 443.49,336.67 444.06,363.33 444.64,310.00 445.21,430.00 445.78,423.33 446.36,356.67 446.93,290.00 447.51,370.00 448.08,356.67 448.65,343.33 449.23,236.67 449.80,403.33 450.37,390.00 450.95,350.00 451.52,396.67 452.09,403.33 452.67,363.33 453.24,383.33 453.82,370.00 454.39,296.67 454.96,403.33 455.54,316.67 456.11,416.67 456.68,330.00 457.26,343.33 457.83,370.00 458.41,356.67 458.98,343.33 459.55,416.67 460.13,343.33 460.70,376.67 461.27,370.00 461.85,370.00 462.42,303.33 463.00,390.00 463.57,276.67 464.14,376.67 464.72,263.33 465.29,396.67 465.86,336.67 466.44,343.33 467.01,223.33 467.59,370.00 468.16,356.67 468.73,423.33 469.31,303.33 469.88,350.00 470.45,403.33 471.03,363.33 471.60,323.33 472.17,236.67 472.75,250.00 473.32,343.33 473.90,336.67 474.47,350.00 475.04,363.33 475.62,363.33 476.19,370.00 476.76,390.00 477.34,423.33 477.91,396.67 478.49,416.67 479.06,303.33 479.63,243.33 480.21,350.00 480.78,356.67 481.35,296.67 481.93,376.67 482.50,283.33 483.08,350.00 483.65,390.00 484.22,370.00 484.80,263.33 485.37,416.67 485.94,343.33 486.52,343.33 487.09,330.00 487.67,410.00 488.24,370.00 488.81,403.33 489.39,236.67 489.96,416.67 490.53,343.33 491.11,330.00 491.68,410.00 492.25,410.00 492.83,370.00 493.40,336.67 493.98,396.67 494.55,430.00 495.12,343.33 495.70,290.00 496.27,363.33 496.84,250.00 497.42,390.00 497.99,370.00 498.57,396.67 499.14,396.67 499.71,410.00 500.29,403.33 500.86,370.00 501.43,250.00 502.01,410.00 502.58,390.00 503.16,276.67 503.73,383.33 504.30,203.33 504.88,416.67 505.45,343.33 506.02,330.00 506.60,236.67 507.17,390.00 507.75,356.67 508.32,430.00 508.89,376.67 509.47,316.67 510.04,363.33 510.61,383.33 511.19,390.00 511.76,356.67 512.33,336.67 512.91,383.33 513.48,383.33 514.06,343.33 514.63,256.67 515.20,330.00 515.78,370.00 516.35,250.00 516.92,356.67 517.50,403.33 518.07,403.33 518.65,350.00 519.22,370.00 519.79,276.67 520.37,250.00 520.94,330.00 521.51,376.67 522.09,390.00 522.66,356.67 523.24,430.00 523.81,383.33 524.38,376.67 524.96,363.33 525.53,343.33 526.10,436.67 526.68,330.00 527.25,370.00 527.83,383.33 528.40,376.67 528.97,376.67 529.55,350.00 530.12,370.00 530.69,403.33 531.27,410.00 531.84,390.00 532.41,223.33 532.99,323.33 533.56,403.33 534.14,230.00 534.71,310.00 535.28,356.67 535.86,303.33 536.43,330.00 537.00,383.33 537.58,303.33 538.15,343.33 538.73,396.67 539.30,430.00 539.87,416.67 540.45,423.33 541.02,183.33 541.59,376.67 542.17,196.67 542.74,403.33 543.32,403.33 543.89,376.67 544.46,323.33 545.04,290.00 545.61,296.67 546.18,376.67 546.76,283.33 547.33,350.00 547.91,410.00 548.48,330.00 549.05,370.00 549.63,416.67 550.20,343.33 550.77,396.67 551.35,363.33 551.92,383.33 552.49,350.00 553.07,350.00 553.64,350.00 554.22,396.67 554.79,363.33 555.36,370.00 555.94,416.67 556.51,343.33 557.08,390.00 557.66,436.67 558.23,336.67 558.81,276.67 559.38,396.67 559.95,330.00 560.53,430.00 561.10,396.67 561.67,370.00 562.25,330.00 562.82,276.67 563.40,376.67 563.97,390.00 564.54,343.33 565.12,383.33 565.69,330.00 566.26,383.33 566.84,303.33 567.41,336.67 567.99,363.33 568.56,356.67 569.13,236.67 569.71,263.33 570.28,250.00 570.85,370.00 571.43,376.67 572.00,383.33 572.58,383.33 573.15,390.00 573.72,390.00 574.30,343.33 574.87,403.33 575.44,230.00 576.02,376.67 576.59,423.33 577.16,363.33 577.74,376.67 578.31,250.00 578.89,343.33 579.46,376.67 580.03,423.33 580.61,276.67 581.18,396.67 581.75,416.67 582.33,343.33 582.90,410.00 583.48,316.67 584.05,303.33 584.62,396.67 585.20,343.33 585.77,370.00 586.34,330.00 586.92,410.00 587.49,350.00 588.07,363.33 588.64,230.00 589.21,336.67 589.79,410.00 590.36,356.67 590.93,370.00 591.51,336.67 592.08,350.00 592.66,390.00 593.23,276.67 593.80,336.67 594.38,250.00 594.95,390.00 595.52,363.33 596.10,390.00 596.67,316.67 597.24,356.67 597.82,403.33 598.39,396.67 598.97,383.33 599.54,343.33 600.11,323.33 600.69,330.00 601.26,396.67 601.83,423.33 602.41,356.67 602.98,383.33 603.56,330.00 604.13,316.67 604.70,410.00 605.28,350.00 605.85,350.00 606.42,243.33 607.00,350.00 607.57,330.00 608.15,223.33 608.72,350.00 609.29,403.33 609.87,243.33 610.44,390.00 611.01,343.33 611.59,330.00 612.16,316.67 612.74,370.00 613.31,316.67 613.88,370.00 614.46,390.00 615.03,396.67 615.60,310.00 616.18,363.33 616.75,356.67 617.32,343.33 617.90,310.00 618.47,156.67 619.05,423.33 619.62,403.33 620.19,430.00 620.77,350.00 621.34,203.33 621.91,363.33 622.49,383.33 623.06,376.67 623.64,403.33 624.21,323.33 624.78,390.00 625.36,263.33 625.93,370.00 626.50,396.67 627.08,396.67 627.65,396.67 628.23,430.00 628.80,356.67 629.37,323.33 629.95,423.33 630.52,410.00 631.09,243.33 631.67,376.67 632.24,416.67 632.82,370.00 633.39,376.67 633.96,403.33 634.54,430.00 635.11,376.67 635.68,343.33 636.26,236.67 636.83,383.33 637.40,223.33 637.98,363.33 638.55,383.33 639.13,363.33 639.70,430.00 640.27,243.33 640.85,410.00 641.42,370.00 641.99,363.33 642.57,250.00 643.14,383.33 643.72,270.00 644.29,396.67 644.86,316.67 645.44,390.00 646.01,230.00 646.58,383.33 647.16,403.33 647.73,250.00 648.31,190.00 648.88,363.33 649.45,243.33 650.03,363.33 650.60,390.00 651.17,410.00 651.75,396.67 652.32,316.67 652.90,376.67 653.47,403.33 654.04,310.00 654.62,270.00 655.19,216.67 655.76,156.67 656.34,423.33 656.91,423.33 657.48,316.67 658.06,250.00 658.63,310.00 659.21,370.00 659.78,290.00 660.35,336.67 660.93,330.00 661.50,416.67 662.07,356.67 662.65,330.00 663.22,410.00 663.80,243.33 664.37,290.00 664.94,390.00 665.52,390.00 666.09,403.33 666.66,336.67 667.24,383.33 667.81,256.67 668.39,396.67 668.96,376.67 669.53,356.67 670.11,370.00 670.68,370.00 671.25,330.00 671.83,403.33 672.40,250.00 672.98,216.67 673.55,363.33 674.12,410.00 674.70,370.00 675.27,363.33 675.84,336.67 676.42,336.67 676.99,323.33 677.57,390.00 678.14,370.00 678.71,370.00 679.29,383.33 679.86,250.00 680.43,350.00 681.01,390.00 681.58,396.67 682.15,336.67 682.73,223.33 683.30,356.67 683.88,303.33 684.45,396.67 685.02,343.33 685.60,403.33 686.17,383.33 686.74,416.67 687.32,370.00 687.89,350.00 688.47,423.33 689.04,370.00 689.61,416.67 690.19,316.67 690.76,330.00 691.33,343.33 691.91,303.33 692.48,390.00 693.06,210.00 693.63,276.67 694.20,403.33 694.78,350.00 695.35,436.67 695.92,396.67 696.50,356.67 697.07,416.67 697.65,403.33 698.22,356.67 698.79,410.00 699.37,376.67 699.94,356.67 700.51,403.33 701.09,296.67 701.66,343.33 702.23,350.00 702.81,403.33 703.38,290.00 703.96,230.00 704.53,436.67 705.10,436.67 705.68,436.67 706.25,343.33 706.82,423.33 707.40,376.67 707.97,423.33 708.55,250.00 709.12,230.00 709.69,336.67 710.27,390.00 710.84,423.33 711.41,363.33 711.99,363.33 712.56,416.67 713.14,336.67 713.71,423.33 714.28,423.33 714.86,310.00 715.43,250.00 716.00,430.00 716.58,310.00 717.15,343.33 717.73,303.33 718.30,343.33 718.87,250.00 719.45,343.33 720.02,396.67 720.59,343.33 721.17,430.00 721.74,350.00 722.31,410.00 722.89,396.67 723.46,436.67 724.04,363.33 724.61,370.00 725.18,410.00 725.76,423.33 726.33,336.67 726.90,310.00 727.48,336.67 728.05,343.33 728.63,436.67 729.20,423.33 729.77,276.67 730.35,370.00 730.92,376.67 731.49,383.33 732.07,236.67 732.64,250.00 733.22,376.67 733.79,250.00 734.36,416.67 734.94,410.00 735.51,396.67 736.08,323.33 736.66,410.00 737.23,330.00 737.81,436.67 738.38,383.33 738.95,430.00 739.53,370.00 740.10,290.00 740.67,343.33 741.25,416.67 741.82,383.33 742.39,250.00 742.97,423.33 743.54,283.33 744.12,383.33 744.69,243.33 745.26,430.00 745.84,430.00 746.41,430.00 746.98,403.33 747.56,383.33 748.13,250.00 748.71,403.33 749.28,350.00 749.85,390.00 750.43,383.33 751.00,316.67 751.57,363.33 752.15,410.00 752.72,390.00 753.30,210.00 753.87,430.00 754.44,383.33 755.02,296.67 755.59,396.67 756.16,416.67 756.74,370.00 757.31,356.67 757.89,436.67 758.46,323.33 759.03,296.67 759.61,323.33 760.18,396.67 760.75,410.00 761.33,316.67 761.90,343.33 762.47,316.67 763.05,383.33 763.62,316.67 764.20,390.00 764.77,243.33 765.34,436.67 765.92,223.33 766.49,350.00 767.06,290.00 767.64,383.33 768.21,410.00 768.79,356.67 769.36,263.33 769.93,390.00 770.51,343.33 771.08,330.00 771.65,283.33 772.23,316.67 772.80,396.67 773.38,356.67 773.95,170.00 774.52,363.33 775.10,323.33 775.67,316.67 776.24,410.00 776.82,330.00 777.39,410.00 777.97,236.67 778.54,350.00 779.11,423.33 779.69,350.00 780.26,356.67 780.83,230.00 781.41,350.00 781.98,323.33 782.56,423.33 783.13,396.67 783.70,423.33 784.28,396.67 784.85,350.00 785.42,296.67 786.00,250.00 786.57,370.00 787.14,330.00 787.72,416.67 788.29,336.67 788.87,383.33 789.44,356.67 790.01,363.33 790.59,296.67 791.16,363.33 791.73,356.67 792.31,390.00 792.88,250.00 793.46,396.67 794.03,436.67 794.60,410.00 795.18,250.00 795.75,343.33 796.32,176.67 796.90,370.00 797.47,423.33 798.05,356.67 798.62,370.00 799.19,390.00 799.77,376.67 800.34,290.00 800.91,383.33 801.49,336.67 802.06,350.00 802.64,216.67 803.21,436.67 803.78,396.67 804.36,250.00 804.93,336.67 805.50,423.33 806.08,403.33 806.65,243.33 807.22,436.67 807.80,410.00 808.37,396.67 808.95,376.67 809.52,410.00 810.09,376.67 810.67,390.00 811.24,436.67 811.81,370.00 812.39,336.67 812.96,403.33 813.54,250.00 814.11,343.33 814.68,370.00 815.26,256.67 815.83,250.00 816.40,430.00 816.98,250.00 817.55,390.00 818.13,396.67 818.70,356.67 819.27,250.00 819.85,430.00 820.42,243.33 820.99,236.67 821.57,223.33 822.14,376.67 822.72,363.33 823.29,363.33 823.86,356.67 824.44,410.00 825.01,370.00 825.58,250.00 826.16,336.67 826.73,423.33 827.30,356.67 827.88,343.33 828.45,263.33 829.03,283.33 829.60,183.33 830.17,316.67 830.75,316.67 831.32,370.00 831.89,410.00 832.47,323.33 833.04,370.00 833.62,296.67 834.19,383.33 834.76,323.33 835.34,323.33 835.91,270.00 836.48,350.00 837.06,316.67 837.63,370.00 838.21,130.00 838.78,203.33 839.35,370.00 839.93,303.33 840.50,343.33 841.07,243.33 841.65,276.67 842.22,250.00 842.80,303.33 843.37,410.00 843.94,123.33 844.52,243.33 845.09,243.33 845.66,343.33 846.24,296.67 846.81,403.33 847.38,436.67 847.96,250.00 848.53,423.33 849.11,343.33 849.68,323.33 850.25,396.67 850.83,70.00 851.40,416.67 851.97,350.00 852.55,336.67 853.12,410.00 853.70,323.33 854.27,390.00 854.84,250.00 855.42,410.00 855.99,410.00 856.56,423.33 857.14,396.67 857.71,316.67 858.29,383.33 858.86,343.33 859.43,376.67 860.01,236.67 860.58,343.33 861.15,250.00 861.73,383.33 862.30,330.00 862.88,343.33 863.45,396.67 864.02,243.33 864.60,383.33 865.17,410.00 865.74,316.67 866.32,403.33 866.89,376.67 867.46,323.33 868.04,416.67 868.61,410.00 869.19,350.00 869.76,423.33 870.33,430.00 870.91,390.00 871.48,296.67 872.05,316.67 872.63,363.33 873.20,323.33 873.78,310.00 874.35,403.33 874.92,250.00 875.50,236.67 876.07,376.67 876.64,290.00 877.22,330.00 877.79,416.67 878.37,143.33 878.94,410.00 879.51,416.67 880.09,343.33 880.66,216.67 881.23,356.67 881.81,356.67 882.38,370.00 882.96,390.00 883.53,396.67 884.10,423.33 884.68,356.67 885.25,410.00 885.82,330.00 886.40,410.00 886.97,430.00 887.55,230.00 888.12,323.33 888.69,416.67 889.27,396.67 889.84,343.33 890.41,323.33 890.99,423.33 891.56,303.33 892.13,356.67 892.71,356.67 893.28,330.00 893.86,76.67 894.43,230.00 895.00,356.67 895.58,390.00 896.15,216.67 896.72,436.67 897.30,210.00 897.87,403.33 898.45,410.00 899.02,370.00 899.59,236.67 900.17,316.67 900.74,376.67 901.31,410.00 901.89,423.33 902.46,390.00 903.04,243.33 903.61,250.00 904.18,436.67 904.76,423.33 905.33,383.33 905.90,290.00 906.48,303.33 907.05,423.33 907.63,383.33 908.20,316.67 908.77,370.00 909.35,403.33 909.92,350.00 910.49,350.00 911.07,423.33 911.64,370.00 912.21,356.67 912.79,403.33 913.36,343.33 913.94,423.33 914.51,410.00 915.08,390.00 915.66,310.00 916.23,430.00 916.80,370.00 917.38,403.33 917.95,70.00 918.53,243.33 919.10,303.33 919.67,350.00 920.25,430.00 920.82,290.00 921.39,383.33 921.97,370.00 922.54,223.33 923.12,356.67 923.69,316.67 924.26,323.33 924.84,410.00 925.41,410.00 925.98,350.00 926.56,236.67 927.13,243.33 927.71,376.67 928.28,370.00 928.85,343.33 929.43,330.00 930.00,430.00" />
  <rect x="720" y="80" width="190" height="127" fill="#ffffff" stroke="#cccccc" stroke-width="1" rx="8" ry="8" />
  <line x1="732" y1="105" x2="762" y2="105" stroke="#2563eb" stroke-width="4" />
  <text x="770" y="110" font-size="14" font-family="Arial">base_data</text>
  <line x1="732" y1="133" x2="762" y2="133" stroke="#dc2626" stroke-width="4" />
  <text x="770" y="138" font-size="14" font-family="Arial">pruning_884</text>
  <line x1="732" y1="161" x2="762" y2="161" stroke="#16a34a" stroke-width="4" />
  <text x="770" y="166" font-size="14" font-family="Arial">pruning_mcts_885</text>
  <line x1="732" y1="189" x2="762" y2="189" stroke="#ea580c" stroke-width="4" />
  <text x="770" y="194" font-size="14" font-family="Arial">pruning_best885</text>
</svg>