<svg xmlns="http://www.w3.org/2000/svg" width="1000" height="520">
  <rect x="0" y="0" width="1000" height="520" fill="#ffffff" />
  <line x1="70" y1="450" x2="930" y2="450" stroke="#333333" stroke-width="2" />
  <line x1="70" y1="70" x2="70" y2="450" stroke="#333333" stroke-width="2" />
  <text x="500.0" y="35" text-anchor="middle" font-size="24" font-family="Arial">Training Loss Comparison</text>
  <text x="500.0" y="500" text-anchor="middle" font-size="16" font-family="Arial">Batch</text>
  <text x="28" y="260.0" text-anchor="middle" font-size="16" font-family="Arial" transform="rotate(-90 28 260.0)">Loss</text>
  <text x="70" y="58" font-size="13" font-family="Arial">5.127</text>
  <text x="70" y="470" font-size="13" font-family="Arial">1.627</text>
  <text x="70" y="488" font-size="13" font-family="Arial">3</text>
  <text x="930" y="488" text-anchor="end" font-size="13" font-family="Arial">1500</text>
  <line x1="70" y1="146.00" x2="930" y2="146.00" stroke="#dddddd" stroke-width="1" stroke-dasharray="4,4" />
  <line x1="70" y1="222.00" x2="930" y2="222.00" stroke="#dddddd" stroke-width="1" stroke-dasharray="4,4" />
  <line x1="70" y1="298.00" x2="930" y2="298.00" stroke="#dddddd" stroke-width="1" stroke-dasharray="4,4" />
  <line x1="70" y1="374.00" x2="930" y2="374.00" stroke="#dddddd" stroke-width="1" stroke-dasharray="4,4" />
  <polyline fill="none" stroke="#2563eb" stroke-width="3" points="70.57,129.51 71.15,130.47 71.72,133.44 72.30,134.14 72.87,136.84 73.45,144.26 74.02,157.78 74.60,176.67 75.17,160.25 75.74,165.62 76.32,165.33 76.89,171.24 77.47,184.00 78.04,182.38 78.62,183.70 79.19,185.35 79.77,185.61 80.34,184.80 80.92,178.80 81.49,182.81 82.06,172.62 82.64,170.98 83.21,184.50 83.79,173.07 84.36,173.40 84.94,172.95 85.51,176.63 86.09,179.21 86.66,173.99 87.23,177.96 87.81,176.89 88.38,177.79 88.96,175.58 89.53,188.24 90.11,183.15 90.68,180.04 91.26,183.62 91.83,189.39 92.40,187.20 92.98,180.39 93.55,175.03 94.13,175.54 94.70,184.10 95.28,178.66 95.85,177.58 96.43,178.80 97.00,180.28 97.58,169.85 98.15,180.81 98.72,180.70 99.30,190.22 99.87,188.16 100.45,181.63 101.02,187.09 101.60,188.85 102.17,193.64 102.75,193.30 103.32,187.53 103.89,190.82 104.47,193.02 105.04,195.26 105.62,192.21 106.19,198.30 106.77,193.42 107.34,200.05 107.92,191.22 108.49,200.23 109.06,198.49 109.64,196.24 110.21,200.80 110.79,202.65 111.36,197.25 111.94,209.63 112.51,198.75 113.09,202.11 113.66,201.00 114.24,201.11 114.81,204.15 115.38,195.32 115.96,199.63 116.53,201.32 117.11,208.25 117.68,201.30 118.26,199.89 118.83,202.60 119.41,207.53 119.98,202.37 120.55,204.38 121.13,201.45 121.70,214.50 122.28,210.19 122.85,211.71 123.43,219.12 124.00,207.89 124.58,208.87 125.15,208.71 125.72,214.88 126.30,212.11 126.87,208.94 127.45,215.72 128.02,208.12 128.60,215.86 129.17,217.06 129.75,213.22 130.32,223.82 130.90,222.47 131.47,218.73 132.04,214.59 132.62,218.83 133.19,214.67 133.77,223.17 134.34,222.00 134.92,225.51 135.49,229.62 136.07,210.69 136.64,217.57 137.21,218.79 137.79,223.33 138.36,222.07 138.94,229.30 139.51,227.33 140.09,219.37 140.66,228.65 141.24,235.90 141.81,224.74 142.38,228.06 142.96,235.44 143.53,238.02 144.11,238.74 144.68,240.63 145.26,231.39 145.83,237.61 146.41,236.23 146.98,233.91 147.56,229.04 148.13,240.55 148.70,231.49 149.28,246.67 149.85,238.44 150.43,240.94 151.00,245.54 151.58,244.45 152.15,238.77 152.73,245.45 153.30,246.37 153.87,252.34 154.45,241.34 155.02,252.57 155.60,253.14 156.17,256.64 156.75,245.64 157.32,252.03 157.90,246.68 158.47,248.21 159.04,256.28 159.62,251.73 160.19,259.93 160.77,250.46 161.34,251.05 161.92,266.13 162.49,257.26 163.07,267.13 163.64,256.71 164.22,273.27 164.79,264.15 165.36,268.14 165.94,258.56 166.51,256.83 167.09,260.91 167.66,262.10 168.24,250.95 168.81,263.74 169.39,260.92 169.96,262.80 170.53,268.85 171.11,271.20 171.68,266.49 172.26,275.27 172.83,262.49 173.41,273.59 173.98,273.21 174.56,255.67 175.13,275.99 175.70,281.11 176.28,263.25 176.85,277.12 177.43,266.04 178.00,265.94 178.58,271.28 179.15,270.16 179.73,284.58 180.30,277.79 180.88,274.04 181.45,274.84 182.02,275.94 182.60,283.05 183.17,285.02 183.75,274.31 184.32,281.50 184.90,283.92 185.47,278.97 186.05,281.58 186.62,287.38 187.19,286.88 187.77,288.06 188.34,284.71 188.92,270.64 189.49,277.53 190.07,285.06 190.64,277.08 191.22,284.19 191.79,283.66 192.36,282.68 192.94,300.52 193.51,286.39 194.09,282.52 194.66,284.27 195.24,282.74 195.81,288.81 196.39,289.63 196.96,278.70 197.54,288.91 198.11,290.42 198.68,293.83 199.26,295.85 199.83,288.84 200.41,290.50 200.98,293.51 201.56,298.16 202.13,306.90 202.71,292.66 203.28,296.67 203.85,302.17 204.43,303.02 205.00,297.80 205.58,293.42 206.15,290.86 206.73,301.91 207.30,302.39 207.88,296.89 208.45,291.38 209.02,292.78 209.60,308.27 210.17,305.98 210.75,302.89 211.32,303.47 211.90,303.06 212.47,300.86 213.05,299.19 213.62,310.51 214.20,310.56 214.77,319.70 215.34,309.93 215.92,311.09 216.49,311.80 217.07,309.52 217.64,297.39 218.22,316.64 218.79,312.39 219.37,314.67 219.94,315.22 220.51,308.41 221.09,311.11 221.66,325.00 222.24,328.53 222.81,315.61 223.39,331.26 223.96,319.09 224.54,318.09 225.11,319.46 225.68,324.95 226.26,321.93 226.83,318.36 227.41,320.93 227.98,326.09 228.56,326.03 229.13,330.68 229.71,328.21 230.28,327.38 230.86,326.94 231.43,324.06 232.00,324.19 232.58,335.36 233.15,331.51 233.73,322.08 234.30,323.60 234.88,345.00 235.45,334.90 236.03,344.43 236.60,344.70 237.17,332.75 237.75,336.41 238.32,328.88 238.90,336.01 239.47,325.37 240.05,338.16 240.62,333.92 241.20,326.76 241.77,323.95 242.34,335.76 242.92,336.94 243.49,344.95 244.07,340.42 244.64,325.91 245.22,340.66 245.79,329.27 246.37,335.80 246.94,338.97 247.52,345.65 248.09,343.77 248.66,329.97 249.24,345.78 249.81,349.80 250.39,352.03 250.96,347.50 251.54,352.15 252.11,354.26 252.69,346.98 253.26,348.38 253.83,355.37 254.41,353.19 254.98,352.06 255.56,340.42 256.13,344.58 256.71,345.65 257.28,350.33 257.86,353.25 258.43,351.35 259.00,350.10 259.58,352.68 260.15,349.64 260.73,356.04 261.30,350.87 261.88,359.14 262.45,355.84 263.03,348.50 263.60,357.52 264.18,352.56 264.75,348.61 265.32,351.20 265.90,355.46 266.47,357.55 267.05,353.63 267.62,347.74 268.20,346.97 268.77,357.12 269.35,350.81 269.92,364.34 270.49,363.31 271.07,356.65 271.64,360.93 272.22,366.06 272.79,352.89 273.37,364.78 273.94,380.66 274.52,368.99 275.09,375.40 275.66,368.55 276.24,379.00 276.81,376.51 277.39,372.33 277.96,360.10 278.54,361.05 279.11,361.42 279.69,364.90 280.26,366.35 280.84,366.78 281.41,375.72 281.98,368.01 282.56,372.60 283.13,371.59 283.71,362.14 284.28,384.13 284.86,369.26 285.43,372.27 286.01,364.87 286.58,380.65 287.15,366.17 287.73,372.53 288.30,371.94 288.88,381.54 289.45,359.18 290.03,367.44 290.60,378.82 291.18,376.18 291.75,368.05 292.32,356.18 292.90,364.44 293.47,370.71 294.05,362.99 294.62,365.52 295.20,361.82 295.77,360.29 296.35,364.44 296.92,361.81 297.49,364.88 298.07,368.74 298.64,372.47 299.22,368.94 299.79,374.27 300.37,364.75 300.94,377.01 301.52,378.28 302.09,376.40 302.67,376.51 303.24,359.70 303.81,373.36 304.39,368.65 304.96,375.08 305.54,365.78 306.11,368.97 306.69,377.03 307.26,373.30 307.84,378.65 308.41,377.16 308.98,366.64 309.56,371.93 310.13,381.03 310.71,372.66 311.28,387.95 311.86,383.82 312.43,375.90 313.01,362.72 313.58,370.23 314.15,367.30 314.73,371.18 315.30,367.76 315.88,378.17 316.45,373.65 317.03,378.42 317.60,381.26 318.18,381.26 318.75,380.90 319.33,378.26 319.90,378.75 320.47,385.42 321.05,376.50 321.62,375.08 322.20,379.50 322.77,378.94 323.35,392.30 323.92,391.52 324.50,386.74 325.07,383.48 325.64,376.55 326.22,378.00 326.79,384.20 327.37,385.45 327.94,386.17 328.52,373.01 329.09,387.91 329.67,382.34 330.24,383.73 330.81,394.05 331.39,384.27 331.96,384.28 332.54,381.30 333.11,383.02 333.69,376.39 334.26,378.34 334.84,386.32 335.41,385.05 335.99,380.54 336.56,380.54 337.13,382.31 337.71,387.59 338.28,388.16 338.86,376.32 339.43,387.43 340.01,386.53 340.58,394.12 341.16,387.08 341.73,380.81 342.30,388.15 342.88,385.68 343.45,393.42 344.03,380.88 344.60,384.00 345.18,383.51 345.75,393.63 346.33,387.10 346.90,389.43 347.47,391.00 348.05,389.82 348.62,384.68 349.20,390.81 349.77,397.44 350.35,394.52 350.92,385.17 351.50,388.54 352.07,393.49 352.65,389.52 353.22,384.19 353.79,394.22 354.37,385.66 354.94,401.48 355.52,388.21 356.09,389.26 356.67,392.47 357.24,388.85 357.82,389.25 358.39,386.30 358.96,389.74 359.54,385.25 360.11,397.22 360.69,384.84 361.26,390.78 361.84,385.31 362.41,394.93 362.99,390.59 363.56,390.34 364.13,398.32 364.71,389.77 365.28,388.35 365.86,385.44 366.43,389.57 367.01,398.20 367.58,401.73 368.16,398.40 368.73,401.30 369.31,392.70 369.88,385.51 370.45,394.13 371.03,392.74 371.60,390.41 372.18,400.23 372.75,387.93 373.33,399.74 373.90,396.84 374.48,390.86 375.05,397.82 375.62,389.92 376.20,386.92 376.77,397.38 377.35,393.79 377.92,392.29 378.50,383.08 379.07,396.58 379.65,395.27 380.22,397.21 380.79,385.41 381.37,407.49 381.94,413.81 382.52,399.65 383.09,394.92 383.67,405.03 384.24,395.12 384.82,404.88 385.39,397.84 385.97,393.70 386.54,406.63 387.11,402.65 387.69,392.65 388.26,400.21 388.84,400.13 389.41,394.22 389.99,405.85 390.56,400.66 391.14,405.26 391.71,408.77 392.28,410.83 392.86,402.99 393.43,409.97 394.01,403.26 394.58,400.62 395.16,404.29 395.73,408.28 396.31,399.26 396.88,408.45 397.45,409.61 398.03,404.25 398.60,396.20 399.18,406.19 399.75,407.78 400.33,404.96 400.90,405.54 401.48,406.55 402.05,408.72 402.63,410.87 403.20,400.83 403.77,407.20 404.35,411.93 404.92,419.15 405.50,407.93 406.07,402.41 406.65,409.60 407.22,421.08 407.80,418.44 408.37,404.38 408.94,405.73 409.52,404.20 410.09,403.64 410.67,417.60 411.24,412.18 411.82,406.71 412.39,412.76 412.97,410.85 413.54,405.71 414.11,397.78 414.69,409.53 415.26,402.57 415.84,412.73 416.41,409.86 416.99,411.54 417.56,411.01 418.14,410.76 418.71,404.96 419.29,411.82 419.86,402.66 420.43,409.83 421.01,415.08 421.58,406.74 422.16,422.15 422.73,409.38 423.31,413.27 423.88,409.07 424.46,405.25 425.03,407.53 425.60,411.90 426.18,407.77 426.75,413.77 427.33,412.70 427.90,417.79 428.48,428.63 429.05,420.37 429.63,423.14 430.20,420.83 430.77,411.86 431.35,408.29 431.92,416.22 432.50,413.52 433.07,416.35 433.65,416.14 434.22,418.14 434.80,394.83 435.37,403.35 435.95,409.47 436.52,413.64 437.09,409.60 437.67,415.50 438.24,416.22 438.82,400.97 439.39,406.02 439.97,394.19 440.54,396.10 441.12,418.97 441.69,405.46 442.26,409.37 442.84,409.71 443.41,409.08 443.99,409.56 444.56,418.43 445.14,413.57 445.71,401.86 446.29,402.06 446.86,415.87 447.43,411.14 448.01,410.79 448.58,407.71 449.16,411.11 449.73,408.71 450.31,401.84 450.88,406.73 451.46,414.67 452.03,402.31 452.61,418.36 453.18,415.75 453.75,405.17 454.33,411.97 454.90,407.67 455.48,408.03 456.05,411.26 456.63,403.14 457.20,417.31 457.78,401.31 458.35,418.17 458.92,406.43 459.50,420.49 460.07,413.30 460.65,410.11 461.22,419.41 461.80,408.68 462.37,416.26 462.95,412.84 463.52,405.67 464.09,410.99 464.67,409.86 465.24,412.85 465.82,417.24 466.39,418.66 466.97,411.00 467.54,418.14 468.12,405.44 468.69,395.53 469.27,415.07 469.84,414.88 470.41,406.68 470.99,406.50 471.56,402.84 472.14,400.71 472.71,409.58 473.29,411.31 473.86,416.13 474.44,406.69 475.01,414.62 475.58,421.47 476.16,408.16 476.73,416.65 477.31,413.61 477.88,421.57 478.46,428.05 479.03,410.65 479.61,415.59 480.18,413.12 480.75,407.48 481.33,414.58 481.90,416.32 482.48,427.55 483.05,422.16 483.63,420.84 484.20,404.29 484.78,424.59 485.35,413.15 485.93,418.99 486.50,420.14 487.07,417.35 487.65,415.53 488.22,424.91 488.80,418.91 489.37,426.25 489.95,418.41 490.52,419.01 491.10,414.54 491.67,423.35 492.24,423.96 492.82,406.72 493.39,412.59 493.97,412.90 494.54,420.92 495.12,416.16 495.69,416.04 496.27,396.06 496.84,409.75 497.41,403.41 497.99,417.34 498.56,413.08 499.14,419.16 499.71,417.50 500.29,426.81 500.86,408.76 501.44,418.24 502.01,421.26 502.59,419.04 503.16,422.83 503.73,421.02 504.31,407.75 504.88,420.80 505.46,429.31 506.03,421.01 506.61,421.11 507.18,407.52 507.76,422.85 508.33,408.81 508.90,429.13 509.48,416.77 510.05,423.81 510.63,412.38 511.20,414.40 511.78,421.42 512.35,423.27 512.93,417.30 513.50,435.35 514.07,418.40 514.65,417.77 515.22,414.73 515.80,418.78 516.37,418.40 516.95,412.76 517.52,414.22 518.10,420.20 518.67,420.73 519.25,418.46 519.82,425.70 520.39,418.12 520.97,409.87 521.54,424.60 522.12,414.86 522.69,418.16 523.27,407.40 523.84,419.24 524.42,420.98 524.99,408.03 525.56,410.20 526.14,410.62 526.71,423.56 527.29,417.44 527.86,410.32 528.44,409.80 529.01,426.88 529.59,424.96 530.16,417.93 530.73,419.23 531.31,420.68 531.88,416.27 532.46,422.39 533.03,418.10 533.61,416.11 534.18,416.53 534.76,419.95 535.33,421.40 535.91,420.83 536.48,423.38 537.05,422.60 537.63,415.79 538.20,424.93 538.78,426.19 539.35,414.10 539.93,425.65 540.50,414.81 541.08,418.18 541.65,430.89 542.22,418.54 542.80,422.08 543.37,427.61 543.95,417.10 544.52,428.69 545.10,423.87 545.67,419.44 546.25,423.78 546.82,430.54 547.39,414.37 547.97,418.22 548.54,418.49 549.12,424.50 549.69,424.83 550.27,421.69 550.84,414.35 551.42,426.18 551.99,432.73 552.57,426.24 553.14,428.60 553.71,415.15 554.29,421.61 554.86,420.10 555.44,419.90 556.01,419.06 556.59,423.05 557.16,417.13 557.74,427.21 558.31,422.89 558.88,411.98 559.46,423.65 560.03,417.08 560.61,412.66 561.18,424.88 561.76,414.24 562.33,416.19 562.91,421.08 563.48,416.61 564.05,419.55 564.63,423.87 565.20,408.63 565.78,426.08 566.35,421.95 566.93,418.06 567.50,422.93 568.08,419.64 568.65,425.22 569.23,417.87 569.80,412.68 570.37,419.69 570.95,423.14 571.52,414.46 572.10,415.67 572.67,424.74 573.25,418.00 573.82,417.59 574.40,407.22 574.97,410.67 575.54,415.10 576.12,411.54 576.69,407.47 577.27,404.98 577.84,418.66 578.42,411.49 578.99,419.08 579.57,409.98 580.14,423.40 580.71,414.19 581.29,407.47 581.86,418.30 582.44,420.09 583.01,411.80 583.59,411.87 584.16,415.64 584.74,409.72 585.31,417.25 585.89,407.21 586.46,410.76 587.03,423.62 587.61,421.61 588.18,415.75 588.76,417.64 589.33,422.56 589.91,410.36 590.48,411.45 591.06,411.75 591.63,405.88 592.20,414.93 592.78,418.31 593.35,432.21 593.93,416.92 594.50,406.49 595.08,415.66 595.65,423.12 596.23,417.85 596.80,411.39 597.37,417.27 597.95,411.39 598.52,412.86 599.10,421.71 599.67,405.51 600.25,413.48 600.82,411.04 601.40,411.41 601.97,407.51 602.55,413.28 603.12,414.44 603.69,419.71 604.27,401.98 604.84,418.85 605.42,415.06 605.99,418.20 606.57,405.57 607.14,408.70 607.72,414.98 608.29,408.63 608.86,413.90 609.44,411.97 610.01,405.76 610.59,415.26 611.16,402.91 611.74,407.67 612.31,416.45 612.89,407.42 613.46,405.44 614.03,413.67 614.61,410.39 615.18,406.30 615.76,414.76 616.33,408.24 616.91,406.94 617.48,420.18 618.06,411.76 618.63,406.54 619.21,404.31 619.78,404.95 620.35,408.66 620.93,410.10 621.50,413.71 622.08,417.59 622.65,406.08 623.23,411.21 623.80,410.94 624.38,408.06 624.95,408.44 625.52,413.46 626.10,409.32 626.67,406.01 627.25,421.08 627.82,409.30 628.40,411.66 628.97,408.37 629.55,405.27 630.12,409.24 630.69,420.86 631.27,404.30 631.84,406.12 632.42,404.22 632.99,405.78 633.57,412.97 634.14,424.34 634.72,415.18 635.29,406.83 635.87,418.83 636.44,404.19 637.01,416.01 637.59,416.03 638.16,411.44 638.74,409.41 639.31,397.01 639.89,409.05 640.46,411.50 641.04,405.08 641.61,410.00 642.18,423.99 642.76,413.88 643.33,404.99 643.91,408.26 644.48,412.18 645.06,413.93 645.63,421.22 646.21,408.14 646.78,416.16 647.35,411.11 647.93,407.01 648.50,416.58 649.08,410.56 649.65,422.09 650.23,412.78 650.80,412.69 651.38,426.72 651.95,420.10 652.53,413.25 653.10,395.89 653.67,419.45 654.25,424.29 654.82,423.02 655.40,404.95 655.97,417.06 656.55,420.12 657.12,413.80 657.70,402.47 658.27,401.68 658.84,411.35 659.42,407.44 659.99,427.61 660.57,412.75 661.14,408.70 661.72,409.81 662.29,412.79 662.87,422.37 663.44,408.73 664.01,412.48 664.59,422.26 665.16,412.43 665.74,415.24 666.31,411.77 666.89,413.48 667.46,410.46 668.04,411.08 668.61,418.31 669.19,417.29 669.76,407.01 670.33,412.62 670.91,407.12 671.48,412.72 672.06,412.92 672.63,411.34 673.21,424.99 673.78,432.43 674.36,413.41 674.93,406.20 675.50,415.82 676.08,418.77 676.65,415.92 677.23,414.59 677.80,424.12 678.38,417.26 678.95,408.18 679.53,396.54 680.10,424.70 680.67,411.83 681.25,414.62 681.82,418.59 682.40,421.14 682.97,402.22 683.55,410.35 684.12,414.19 684.70,409.47 685.27,417.66 685.85,408.53 686.42,417.29 686.99,419.51 687.57,412.25 688.14,423.03 688.72,421.51 689.29,417.70 689.87,409.04 690.44,414.85 691.02,407.44 691.59,410.82 692.16,413.59 692.74,420.05 693.31,406.74 693.89,415.66 694.46,429.37 695.04,408.73 695.61,417.95 696.19,424.60 696.76,412.92 697.33,418.55 697.91,414.12 698.48,418.38 699.06,420.97 699.63,410.87 700.21,423.66 700.78,420.14 701.36,403.97 701.93,418.27 702.51,421.71 703.08,427.43 703.65,417.39 704.23,415.67 704.80,416.88 705.38,429.03 705.95,417.65 706.53,403.72 707.10,412.79 707.68,421.18 708.25,425.79 708.82,431.58 709.40,430.52 709.97,422.90 710.55,431.12 711.12,427.72 711.70,431.22 712.27,427.99 712.85,419.38 713.42,421.17 713.99,420.59 714.57,426.24 715.14,423.54 715.72,424.64 716.29,414.69 716.87,419.27 717.44,404.41 718.02,412.38 718.59,420.80 719.16,420.85 719.74,417.84 720.31,427.87 720.89,422.35 721.46,405.64 722.04,422.65 722.61,425.80 723.19,425.71 723.76,430.47 724.34,424.67 724.91,418.60 725.48,423.91 726.06,419.54 726.63,426.65 727.21,430.90 727.78,416.11 728.36,425.89 728.93,417.01 729.51,429.49 730.08,422.77 730.65,439.40 731.23,432.36 731.80,418.45 732.38,431.32 732.95,426.13 733.53,428.28 734.10,428.19 734.68,424.54 735.25,431.11 735.82,430.81 736.40,430.24 736.97,434.87 737.55,420.10 738.12,432.37 738.70,422.93 739.27,429.16 739.85,424.17 740.42,429.31 741.00,424.08 741.57,432.25 742.14,436.10 742.72,428.03 743.29,430.05 743.87,435.67 744.44,435.58 745.02,436.63 745.59,436.98 746.17,429.66 746.74,428.43 747.31,438.17 747.89,433.13 748.46,430.99 749.04,435.84 749.61,429.63 750.19,429.86 750.76,439.65 751.34,441.15 751.91,441.42 752.48,442.74 753.06,429.84 753.63,440.82 754.21,440.04 754.78,447.07 755.36,446.37 755.93,448.70 756.51,441.07 757.08,436.69 757.66,435.65 758.23,446.99 758.80,450.00 759.38,435.74 759.95,441.52 760.53,435.37 761.10,436.41 761.68,436.84 762.25,449.25 762.83,438.11 763.40,442.66 763.97,446.56 764.55,444.99 765.12,442.31 765.70,430.50 766.27,428.80 766.85,439.54 767.42,444.34 768.00,438.35 768.57,440.60 769.14,434.34 769.72,430.17 770.29,432.29 770.87,443.53 771.44,439.73 772.02,427.36 772.59,434.79 773.17,431.88 773.74,431.47 774.32,437.35 774.89,430.38 775.46,427.39 776.04,426.28 776.61,427.09 777.19,429.11 777.76,417.31 778.34,425.21 778.91,433.22 779.49,429.27 780.06,435.90 780.63,419.85 781.21,434.24 781.78,437.06 782.36,429.35 782.93,430.19 783.51,426.32 784.08,426.88 784.66,426.24 785.23,436.56 785.80,412.54 786.38,424.32 786.95,420.17 787.53,428.20 788.10,430.91 788.68,440.09 789.25,437.46 789.83,422.90 790.40,429.36 790.98,425.91 791.55,418.20 792.12,418.76 792.70,418.57 793.27,424.84 793.85,418.54 794.42,426.18 795.00,420.44 795.57,418.94 796.15,421.82 796.72,423.37 797.29,407.16 797.87,411.60 798.44,424.11 799.02,417.98 799.59,428.68 800.17,414.64 800.74,415.95 801.32,436.56 801.89,421.73 802.46,419.97 803.04,409.24 803.61,415.49 804.19,422.66 804.76,419.80 805.34,411.67 805.91,409.05 806.49,414.66 807.06,416.42 807.64,413.62 808.21,416.14 808.78,429.10 809.36,414.64 809.93,417.10 810.51,430.27 811.08,416.68 811.66,424.06 812.23,418.31 812.81,410.27 813.38,415.02 813.95,418.51 814.53,421.13 815.10,416.89 815.68,412.22 816.25,410.43 816.83,415.69 817.40,411.43 817.98,426.39 818.55,429.04 819.12,412.00 819.70,422.20 820.27,433.12 820.85,418.82 821.42,410.05 822.00,422.74 822.57,424.20 823.15,411.83 823.72,415.97 824.30,420.26 824.87,407.30 825.44,423.45 826.02,411.83 826.59,424.87 827.17,412.20 827.74,419.66 828.32,421.51 828.89,416.16 829.47,417.23 830.04,419.26 830.61,431.54 831.19,424.18 831.76,415.55 832.34,423.94 832.91,423.81 833.49,418.87 834.06,419.97 834.64,414.42 835.21,434.89 835.78,421.52 836.36,410.39 836.93,413.95 837.51,411.00 838.08,422.94 838.66,416.17 839.23,421.11 839.81,430.31 840.38,433.31 840.96,432.05 841.53,422.05 842.10,425.03 842.68,424.66 843.25,424.57 843.83,413.12 844.40,409.97 844.98,420.57 845.55,409.50 846.13,411.39 846.70,408.84 847.27,410.31 847.85,424.00 848.42,418.02 849.00,409.23 849.57,401.57 850.15,404.82 850.72,405.90 851.30,408.94 851.87,406.45 852.44,415.32 853.02,415.78 853.59,410.25 854.17,406.55 854.74,411.80 855.32,413.00 855.89,405.05 856.47,422.27 857.04,412.17 857.62,402.22 858.19,411.47 858.76,420.39 859.34,408.12 859.91,413.88 860.49,403.56 861.06,432.49 861.64,410.73 862.21,419.28 862.79,413.97 863.36,421.41 863.93,415.00 864.51,425.98 865.08,412.43 865.66,420.08 866.23,407.29 866.81,421.01 867.38,407.86 867.96,420.66 868.53,420.38 869.10,418.35 869.68,407.09 870.25,404.75 870.83,416.21 871.40,413.88 871.98,418.07 872.55,413.50 873.13,415.66 873.70,408.09 874.28,422.03 874.85,420.90 875.42,410.50 876.00,414.97 876.57,425.91 877.15,421.44 877.72,424.32 878.30,416.55 878.87,415.90 879.45,420.23 880.02,419.22 880.59,405.59 881.17,419.44 881.74,420.83 882.32,408.88 882.89,406.65 883.47,410.18 884.04,403.98 884.62,407.87 885.19,409.16 885.76,408.43 886.34,412.90 886.91,421.76 887.49,410.75 888.06,412.99 888.64,415.68 889.21,412.82 889.79,426.97 890.36,427.36 890.94,421.28 891.51,407.93 892.08,407.10 892.66,405.19 893.23,403.66 893.81,414.62 894.38,400.89 894.96,394.45 895.53,404.77 896.11,410.24 896.68,406.36 897.25,416.98 897.83,407.69 898.40,415.02 898.98,401.44 899.55,409.64 900.13,409.09 900.70,414.99 901.28,404.41 901.85,414.75 902.42,402.59 903.00,409.75 903.57,407.95 904.15,402.86 904.72,403.67 905.30,401.69 905.87,405.18 906.45,399.96 907.02,404.11 907.60,410.99 908.17,414.52 908.74,405.24 909.32,416.06 909.89,411.15 910.47,403.42 911.04,408.52 911.62,411.23 912.19,419.99 912.77,413.54 913.34,401.80 913.91,412.77 914.49,411.69 915.06,413.56 915.64,408.95 916.21,408.76 916.79,410.43 917.36,406.16 917.94,422.15 918.51,408.36 919.08,409.27 919.66,407.82 920.23,416.86 920.81,420.21 921.38,419.27 921.96,405.71 922.53,414.36 923.11,416.89 923.68,423.43 924.26,414.86 924.83,413.00 925.40,413.25 925.98,422.96 926.55,430.78 927.13,428.78 927.70,412.10 928.28,412.98 928.85,420.17 929.43,420.00 930.00,412.44" />
  <polyline fill="none" stroke="#dc2626" stroke-width="3" points="70.00,70.00 70.57,77.56 71.15,89.33 71.72,94.12 72.30,96.06 72.87,101.94 73.45,104.07 74.02,105.57 74.60,108.95 75.17,111.12 75.74,115.00 76.32,115.66 76.89,118.81 77.47,120.83 78.04,125.07 78.62,123.39 79.19,127.97 79.77,129.31 80.34,129.69 80.92,130.85 81.49,135.03 82.06,138.54 82.64,139.27 83.21,142.60 83.79,142.55 84.36,144.93 84.94,145.48 85.51,149.42 86.09,149.26 86.66,149.33 87.23,153.08 87.81,151.19 88.38,153.50 88.96,152.87 89.53,152.89 90.11,156.01 90.68,159.38 91.26,159.24 91.83,165.99 92.40,163.03 92.98,163.01 93.55,159.43 94.13,164.68 94.70,166.27 95.28,165.76 95.85,164.51 96.43,169.23 97.00,168.38 97.58,169.02 98.15,167.25 98.72,169.31 99.30,172.16 99.87,169.84 100.45,170.76 101.02,173.93 101.60,173.43 102.17,171.12 102.75,171.81 103.32,172.24 103.89,175.30 104.47,172.17 105.04,173.60 105.62,170.71 106.19,173.45 106.77,175.90 107.34,178.53 107.92,173.06 108.49,179.34 109.06,173.53 109.64,171.43 110.21,178.01 110.79,181.80 111.36,176.92 111.94,179.64 112.51,181.88 113.09,175.38 113.66,176.19 114.24,174.97 114.81,177.83 115.38,176.85 115.96,179.34 116.53,181.29 117.11,184.76 117.68,178.69 118.26,181.37 118.83,186.95 119.41,184.58 119.98,185.43 120.55,186.51 121.13,186.82 121.70,188.91 122.28,188.52 122.85,188.87 123.43,190.45 124.00,188.67 124.58,185.27 125.15,191.15 125.72,187.91 126.30,190.12 126.87,187.78 127.45,192.05 128.02,194.54 128.60,191.48 129.17,192.17 129.75,191.08 130.32,195.21 130.90,196.75 131.47,191.74 132.04,197.60 132.62,193.47 133.19,189.67 133.77,195.66 134.34,193.54 134.92,198.54 135.49,197.23 136.07,195.59 136.64,195.67 137.21,195.07 137.79,197.57 138.36,198.32 138.94,193.50 139.51,199.71 140.09,204.68 140.66,199.32 141.24,204.26 141.81,200.14 142.38,205.40 142.96,205.92 143.53,201.56 144.11,204.32 144.68,208.46 145.26,204.23 145.83,207.14 146.41,204.99 146.98,204.17 147.56,208.40 148.13,208.36 148.70,208.72 149.28,209.65 149.85,210.33 150.43,212.50 151.00,211.32 151.58,216.18 152.15,211.02 152.73,212.82 153.30,216.46 153.87,209.83 154.45,209.75 155.02,208.79 155.60,215.52 156.17,213.11 156.75,212.76 157.32,212.49 157.90,214.30 158.47,215.54 159.04,213.30 159.62,213.28 160.19,210.20 160.77,211.99 161.34,212.10 161.92,215.21 162.49,211.46 163.07,218.50 163.64,219.63 164.22,215.88 164.79,219.84 165.36,215.83 165.94,219.80 166.51,217.25 167.09,220.83 167.66,218.05 168.24,219.76 168.81,218.56 169.39,218.33 169.96,217.83 170.53,219.47 171.11,220.75 171.68,221.22 172.26,220.28 172.83,220.24 173.41,220.33 173.98,219.40 174.56,222.55 175.13,224.14 175.70,221.92 176.28,220.59 176.85,221.92 177.43,224.97 178.00,223.75 178.58,225.10 179.15,223.26 179.73,223.78 180.30,227.29 180.88,223.59 181.45,227.87 182.02,222.52 182.60,225.46 183.17,223.25 183.75,228.75 184.32,229.77 184.90,232.08 185.47,230.34 186.05,226.07 186.62,230.67 187.19,227.56 187.77,228.85 188.34,233.22 188.92,235.07 189.49,230.71 190.07,229.58 190.64,229.47 191.22,230.29 191.79,232.98 192.36,226.35 192.94,232.51 193.51,231.98 194.09,232.29 194.66,236.34 195.24,235.59 195.81,231.22 196.39,238.97 196.96,231.02 197.54,241.56 198.11,237.99 198.68,234.37 199.26,238.79 199.83,238.69 200.41,237.95 200.98,237.64 201.56,238.99 202.13,239.75 202.71,237.92 203.28,237.04 203.85,235.43 204.43,233.26 205.00,240.58 205.58,240.66 206.15,236.98 206.73,237.59 207.30,234.96 207.88,242.72 208.45,245.04 209.02,250.94 209.60,237.63 210.17,240.82 210.75,239.48 211.32,243.11 211.90,232.53 212.47,236.90 213.05,243.27 213.62,251.98 214.20,240.15 214.77,245.46 215.34,242.92 215.92,244.14 216.49,244.82 217.07,243.74 217.64,239.87 218.22,244.21 218.79,247.04 219.37,244.58 219.94,253.16 220.51,248.80 221.09,251.03 221.66,247.67 222.24,253.89 222.81,249.98 223.39,250.42 223.96,258.77 224.54,252.56 225.11,250.15 225.68,250.60 226.26,259.55 226.83,252.77 227.41,256.18 227.98,257.37 228.56,253.68 229.13,252.04 229.71,262.52 230.28,255.86 230.86,258.48 231.43,266.00 232.00,259.85 232.58,251.04 233.15,256.67 233.73,259.33 234.30,258.79 234.88,259.87 235.45,253.52 236.03,267.89 236.60,257.64 237.17,259.16 237.75,254.47 238.32,266.25 238.90,263.32 239.47,262.22 240.05,261.81 240.62,257.79 241.20,268.87 241.77,267.50 242.34,262.42 242.92,267.33 243.49,277.10 244.07,253.80 244.64,257.22 245.22,258.86 245.79,266.44 246.37,273.94 246.94,261.61 247.52,269.38 248.09,265.77 248.66,264.17 249.24,270.60 249.81,270.63 250.39,277.55 250.96,273.89 251.54,276.34 252.11,268.98 252.69,268.18 253.26,276.00 253.83,274.04 254.41,276.89 254.98,267.42 255.56,285.21 256.13,274.02 256.71,269.38 257.28,274.54 257.86,276.01 258.43,275.47 259.00,272.14 259.58,283.18 260.15,283.59 260.73,272.94 261.30,285.45 261.88,275.02 262.45,273.34 263.03,272.81 263.60,277.90 264.18,283.17 264.75,273.85 265.32,281.53 265.90,282.27 266.47,279.50 267.05,280.27 267.62,293.92 268.20,287.39 268.77,287.09 269.35,294.24 269.92,289.21 270.49,296.04 271.07,296.19 271.64,284.56 272.22,288.72 272.79,285.19 273.37,293.58 273.94,292.73 274.52,297.67 275.09,300.01 275.66,280.24 276.24,284.66 276.81,299.42 277.39,294.75 277.96,291.88 278.54,285.32 279.11,304.47 279.69,295.43 280.26,291.01 280.84,293.98 281.41,287.44 281.98,293.56 282.56,289.81 283.13,290.83 283.71,299.07 284.28,301.56 284.86,293.00 285.43,290.27 286.01,296.25 286.58,302.11 287.15,296.34 287.73,298.91 288.30,292.87 288.88,296.28 289.45,299.69 290.03,291.36 290.60,294.81 291.18,297.30 291.75,302.99 292.32,287.24 292.90,302.24 293.47,303.42 294.05,305.77 294.62,309.80 295.20,308.90 295.77,303.30 296.35,304.34 296.92,304.91 297.49,299.50 298.07,293.87 298.64,293.73 299.22,310.23 299.79,297.34 300.37,298.35 300.94,301.69 301.52,308.55 302.09,308.22 302.67,306.31 303.24,311.03 303.81,304.74 304.39,310.56 304.96,309.34 305.54,307.00 306.11,304.21 306.69,304.30 307.26,306.70 307.84,299.69 308.41,305.71 308.98,312.26 309.56,297.37 310.13,305.33 310.71,308.76 311.28,302.12 311.86,313.54 312.43,312.34 313.01,318.64 313.58,311.80 314.15,307.31 314.73,319.24 315.30,308.94 315.88,315.03 316.45,315.07 317.03,309.83 317.60,314.02 318.18,308.25 318.75,305.28 319.33,312.57 319.90,314.85 320.47,320.84 321.05,315.26 321.62,322.62 322.20,309.04 322.77,315.07 323.35,319.80 323.92,315.05 324.50,317.94 325.07,322.97 325.64,318.30 326.22,316.62 326.79,319.39 327.37,315.14 327.94,324.34 328.52,324.02 329.09,305.88 329.67,328.82 330.24,322.92 330.81,320.48 331.39,327.71 331.96,317.72 332.54,321.34 333.11,314.51 333.69,322.85 334.26,322.32 334.84,324.90 335.41,321.42 335.99,308.33 336.56,325.09 337.13,331.27 337.71,316.84 338.28,314.18 338.86,310.38 339.43,312.15 340.01,318.94 340.58,309.88 341.16,311.20 341.73,317.69 342.30,312.80 342.88,321.48 343.45,307.99 344.03,320.38 344.60,311.31 345.18,322.37 345.75,316.57 346.33,323.95 346.90,316.93 347.47,321.23 348.05,315.88 348.62,318.07 349.20,320.63 349.77,321.36 350.35,315.64 350.92,317.74 351.50,323.82 352.07,319.08 352.65,325.92 353.22,318.34 353.79,320.94 354.37,318.39 354.94,317.47 355.52,318.90 356.09,323.49 356.67,327.69 357.24,322.80 357.82,316.17 358.39,319.32 358.96,330.24 359.54,316.32 360.11,321.56 360.69,321.23 361.26,326.31 361.84,324.24 362.41,326.61 362.99,321.51 363.56,324.11 364.13,322.58 364.71,318.45 365.28,318.08 365.86,318.28 366.43,315.59 367.01,314.20 367.58,320.20 368.16,312.75 368.73,313.53 369.31,327.02 369.88,322.92 370.45,316.26 371.03,319.95 371.60,320.18 372.18,320.01 372.75,317.05 373.33,314.16 373.90,323.97 374.48,323.53 375.05,315.33 375.62,322.02 376.20,317.83 376.77,324.20 377.35,321.24 377.92,323.27 378.50,324.69 379.07,325.27 379.65,313.22 380.22,321.10 380.79,327.68 381.37,313.41 381.94,319.63 382.52,324.67 383.09,318.15 383.67,323.03 384.24,316.86 384.82,308.68 385.39,325.67 385.97,318.83 386.54,320.07 387.11,317.71 387.69,318.97 388.26,321.09 388.84,316.44 389.41,313.15 389.99,321.96 390.56,312.32 391.14,320.04 391.71,325.36 392.28,313.84 392.86,325.29 393.43,321.25 394.01,321.37 394.58,314.42 395.16,322.83 395.73,318.41 396.31,321.53 396.88,324.60 397.45,321.99 398.03,329.87 398.60,317.26 399.18,313.96 399.75,326.20 400.33,325.73 400.90,325.49 401.48,323.09 402.05,317.30 402.63,323.63 403.20,326.45 403.77,325.97 404.35,318.94 404.92,329.42 405.50,328.02 406.07,330.56 406.65,323.93 407.22,332.55 407.80,325.63 408.37,321.82 408.94,321.04 409.52,323.06 410.09,323.74 410.67,332.74 411.24,317.35 411.82,321.90 412.39,321.35 412.97,326.97 413.54,325.55 414.11,327.79 414.69,320.41 415.26,320.16 415.84,330.41 416.41,318.45 416.99,330.15 417.56,327.45 418.14,324.81 418.71,319.15 419.29,323.21 419.86,330.04 420.43,309.91 421.01,322.47 421.58,334.96 422.16,323.66 422.73,323.45 423.31,327.16 423.88,328.02 424.46,331.29 425.03,325.65 425.60,325.49 426.18,332.25 426.75,340.00 427.33,333.50 427.90,323.26 428.48,326.63 429.05,330.42 429.63,336.31 430.20,332.82 430.77,321.42 431.35,331.38 431.92,334.16 432.50,329.67 433.07,317.87 433.65,329.27 434.22,327.45 434.80,330.84 435.37,330.28 435.95,325.10 436.52,326.55 437.09,328.53 437.67,332.49 438.24,324.28 438.82,329.18 439.39,328.05 439.97,331.89 440.54,328.19 441.12,329.42 441.69,329.10 442.26,336.80 442.84,333.27 443.41,336.51 443.99,342.30 444.56,320.87 445.14,333.52 445.71,333.36 446.29,334.94 446.86,333.12 447.43,333.32 448.01,326.52 448.58,324.33 449.16,337.10 449.73,332.65 450.31,338.25 450.88,334.01 451.46,329.29 452.03,329.18 452.61,331.18 453.18,330.41 453.75,326.42 454.33,331.95 454.90,345.39 455.48,347.65 456.05,342.31 456.63,341.78 457.20,341.99 457.78,345.02 458.35,337.95 458.92,337.22 459.50,343.70 460.07,352.09 460.65,338.79 461.22,340.80 461.80,345.46 462.37,335.94 462.95,337.40 463.52,335.32 464.09,334.82 464.67,340.85 465.24,342.34 465.82,342.31 466.39,347.34 466.97,339.71 467.54,344.81 468.12,338.60 468.69,345.78 469.27,342.85 469.84,341.34 470.41,342.98 470.99,343.78 471.56,347.17 472.14,343.27 472.71,348.36 473.29,341.43 473.86,341.20 474.44,346.53 475.01,349.65 475.58,351.29 476.16,343.11 476.73,346.47 477.31,354.78 477.88,345.93 478.46,351.22 479.03,353.96 479.61,347.48 480.18,349.90 480.75,366.76 481.33,340.03 481.90,347.89 482.48,365.47 483.05,356.43 483.63,359.97 484.20,363.03 484.78,364.30 485.35,354.53 485.93,354.14 486.50,362.69 487.07,351.58 487.65,346.88 488.22,359.83 488.80,360.99 489.37,367.61 489.95,354.36 490.52,357.29 491.10,365.84 491.67,350.95 492.24,362.32 492.82,355.29 493.39,354.64 493.97,353.61 494.54,359.90 495.12,353.18 495.69,346.86 496.27,353.98 496.84,349.77 497.41,345.33 497.99,357.13 498.56,361.00 499.14,359.04 499.71,355.57 500.29,357.63 500.86,347.61 501.44,353.27 502.01,349.70 502.59,353.11 503.16,353.40 503.73,353.81 504.31,349.97 504.88,358.14 505.46,356.25 506.03,355.24 506.61,345.95 507.18,362.56 507.76,350.92 508.33,357.12 508.90,357.79 509.48,347.85 510.05,333.62 510.63,348.74 511.20,343.96 511.78,350.00 512.35,349.64 512.93,350.53 513.50,344.81 514.07,345.41 514.65,353.13 515.22,342.00 515.80,351.21 516.37,346.56 516.95,353.23 517.52,349.82 518.10,360.57 518.67,352.55 519.25,349.18 519.82,356.91 520.39,346.17 520.97,356.95 521.54,349.90 522.12,355.32 522.69,352.09 523.27,355.06 523.84,355.55 524.42,347.86 524.99,356.03 525.56,344.33 526.14,349.78 526.71,349.98 527.29,351.74 527.86,344.08 528.44,354.17 529.01,355.30 529.59,351.27 530.16,348.95 530.73,354.42 531.31,349.60 531.88,357.61 532.46,360.90 533.03,354.28 533.61,351.29 534.18,357.94 534.76,354.03 535.33,343.48 535.91,348.37 536.48,359.40 537.05,352.17 537.63,356.08 538.20,360.10 538.78,357.36 539.35,349.58 539.93,355.34 540.50,358.56 541.08,347.49 541.65,361.24 542.22,361.42 542.80,350.50 543.37,363.63 543.95,353.91 544.52,358.95 545.10,355.80 545.67,352.57 546.25,364.77 546.82,364.77 547.39,347.55 547.97,361.43 548.54,358.02 549.12,356.89 549.69,350.64 550.27,357.96 550.84,354.29 551.42,357.50 551.99,359.56 552.57,353.72 553.14,358.75 553.71,351.82 554.29,361.50 554.86,361.25 555.44,357.19 556.01,356.37 556.59,357.02 557.16,345.44 557.74,350.17 558.31,357.26 558.88,356.04 559.46,339.51 560.03,351.67 560.61,351.53 561.18,344.43 561.76,353.47 562.33,351.00 562.91,353.16 563.48,365.49 564.05,354.27 564.63,355.32 565.20,365.22 565.78,345.82 566.35,348.07 566.93,351.49 567.50,354.86 568.08,360.67 568.65,341.41 569.23,360.67 569.80,353.16 570.37,348.83 570.95,363.26 571.52,354.57 572.10,363.89 572.67,361.21 573.25,357.66 573.82,360.09 574.40,360.61 574.97,364.11 575.54,370.76 576.12,351.42 576.69,349.46 577.27,356.24 577.84,364.49 578.42,352.66 578.99,364.94 579.57,363.52 580.14,355.88 580.71,364.55 581.29,349.68 581.86,362.37 582.44,361.95 583.01,355.06 583.59,349.15 584.16,363.20 584.74,365.22 585.31,363.86 585.89,357.80 586.46,361.06 587.03,348.38 587.61,352.18 588.18,367.32 588.76,353.81 589.33,353.34 589.91,352.39 590.48,360.60 591.06,357.98 591.63,369.73 592.20,359.29 592.78,358.02 593.35,367.63 593.93,363.28 594.50,354.82 595.08,356.76 595.65,350.12 596.23,361.60 596.80,369.63 597.37,358.30 597.95,370.74 598.52,359.20 599.10,362.24 599.67,357.44 600.25,365.59 600.82,366.96 601.40,368.67 601.97,358.23 602.55,356.93 603.12,363.19 603.69,368.24 604.27,354.21 604.84,364.52 605.42,365.49 605.99,364.68 606.57,359.25 607.14,371.54 607.72,370.81 608.29,363.11 608.86,376.05 609.44,351.99 610.01,355.03 610.59,360.33 611.16,358.47 611.74,370.36 612.31,365.89 612.89,369.62 613.46,372.35 614.03,355.21 614.61,362.98 615.18,363.10 615.76,360.23 616.33,360.10 616.91,366.88 617.48,366.33 618.06,355.58 618.63,360.21 619.21,357.83 619.78,363.43 620.35,367.08 620.93,361.46 621.50,364.10 622.08,353.81 622.65,364.17 623.23,360.51 623.80,353.58 624.38,359.74 624.95,361.52 625.52,368.76 626.10,365.46 626.67,358.66 627.25,365.21 627.82,360.80 628.40,365.04 628.97,368.16 629.55,361.70 630.12,360.53 630.69,365.99 631.27,358.25 631.84,365.59 632.42,363.57 632.99,366.67 633.57,356.02 634.14,364.22 634.72,357.01 635.29,352.57 635.87,370.36 636.44,357.88 637.01,357.14 637.59,357.59 638.16,356.57 638.74,366.96 639.31,359.29 639.89,364.27 640.46,355.34 641.04,349.98 641.61,354.27 642.18,363.59 642.76,357.51 643.33,350.04 643.91,359.60 644.48,353.40 645.06,363.26 645.63,358.15 646.21,361.41 646.78,364.01 647.35,357.79 647.93,355.82 648.50,350.67 649.08,360.44 649.65,351.04 650.23,359.33 650.80,354.41 651.38,363.54 651.95,358.63 652.53,360.24 653.10,367.57 653.67,360.18 654.25,356.53 654.82,365.05 655.40,364.17 655.97,366.47 656.55,348.79 657.12,354.39 657.70,359.24 658.27,347.01 658.84,354.36 659.42,358.64 659.99,368.83 660.57,360.11 661.14,362.32 661.72,361.83 662.29,349.23 662.87,361.93 663.44,368.64 664.01,360.87 664.59,359.37 665.16,356.05 665.74,352.95 666.31,356.57 666.89,360.05 667.46,352.45 668.04,356.54 668.61,353.83 669.19,353.89 669.76,354.62 670.33,361.56 670.91,359.30 671.48,355.61 672.06,346.00 672.63,362.51 673.21,356.38 673.78,352.13 674.36,354.41 674.93,354.71 675.50,365.54 676.08,361.29 676.65,364.66 677.23,357.02 677.80,353.76 678.38,356.68 678.95,356.36 679.53,358.32 680.10,358.83 680.67,360.32 681.25,363.69 681.82,351.87 682.40,359.23 682.97,362.34 683.55,364.47 684.12,354.55 684.70,364.09 685.27,361.37 685.85,367.90 686.42,378.91 686.99,356.47 687.57,354.64 688.14,362.51 688.72,369.73 689.29,363.16 689.87,361.99 690.44,364.09 691.02,361.52 691.59,356.57 692.16,355.89 692.74,359.84 693.31,368.72 693.89,361.65 694.46,353.51 695.04,368.61 695.61,357.85 696.19,368.72 696.76,359.04 697.33,358.83 697.91,368.73 698.48,358.80 699.06,364.24 699.63,361.16 700.21,364.91 700.78,357.06 701.36,375.85 701.93,369.12 702.51,357.98 703.08,363.95 703.65,362.91 704.23,364.78 704.80,359.26 705.38,362.62 705.95,369.17 706.53,370.17 707.10,373.70 707.68,369.30 708.25,371.55 708.82,369.71 709.40,362.30 709.97,364.17 710.55,367.82 711.12,365.70 711.70,368.67 712.27,371.54 712.85,356.77 713.42,374.44 713.99,382.03 714.57,370.31 715.14,366.06 715.72,369.87 716.29,360.36 716.87,371.13 717.44,381.44 718.02,374.13 718.59,376.17 719.16,369.05 719.74,367.25 720.31,372.77 720.89,370.39 721.46,359.22 722.04,372.71 722.61,371.16 723.19,371.43 723.76,367.11 724.34,368.97 724.91,368.73 725.48,376.79 726.06,369.10 726.63,360.05 727.21,367.37 727.78,379.16 728.36,374.95 728.93,372.55 729.51,367.70 730.08,373.53 730.65,377.09 731.23,368.50 731.80,369.03 732.38,375.44 732.95,371.91 733.53,369.39 734.10,370.60 734.68,367.61 735.25,381.73 735.82,371.52 736.40,375.10 736.97,368.66 737.55,366.52 738.12,377.17 738.70,381.96 739.27,375.96 739.85,389.79 740.42,379.23 741.00,393.80 741.57,367.06 742.14,383.96 742.72,381.86 743.29,385.22 743.87,382.87 744.44,372.21 745.02,383.38 745.59,378.10 746.17,379.24 746.74,376.03 747.31,371.52 747.89,377.81 748.46,379.21 749.04,378.43 749.61,367.95 750.19,371.28 750.76,377.23 751.34,375.99 751.91,385.14 752.48,377.55 753.06,383.65 753.63,382.06 754.21,376.13 754.78,377.46 755.36,380.58 755.93,374.60 756.51,377.18 757.08,371.40 757.66,381.32 758.23,375.86 758.80,378.48 759.38,376.89 759.95,379.17 760.53,372.99 761.10,369.29 761.68,390.49 762.25,385.15 762.83,379.27 763.40,383.09 763.97,371.26 764.55,392.62 765.12,391.51 765.70,382.66 766.27,374.21 766.85,379.00 767.42,376.27 768.00,370.22 768.57,380.28 769.14,374.06 769.72,374.43 770.29,376.23 770.87,375.21 771.44,380.01 772.02,371.36 772.59,376.56 773.17,368.05 773.74,370.61 774.32,374.86 774.89,371.80 775.46,372.98 776.04,372.71 776.61,383.55 777.19,373.73 777.76,371.78 778.34,366.66 778.91,372.24 779.49,378.35 780.06,375.25 780.63,372.52 781.21,370.39 781.78,384.41 782.36,363.25 782.93,372.86 783.51,373.33 784.08,378.40 784.66,374.22 785.23,370.76 785.80,378.58 786.38,369.79 786.95,372.50 787.53,375.43 788.10,372.61 788.68,380.56 789.25,379.43 789.83,384.02 790.40,367.80 790.98,381.95 791.55,372.09 792.12,376.05 792.70,376.25 793.27,386.62 793.85,370.28 794.42,374.16 795.00,376.48 795.57,378.99 796.15,373.81 796.72,378.20 797.29,372.15 797.87,372.66 798.44,371.42 799.02,370.42 799.59,371.01 800.17,375.52 800.74,366.91 801.32,380.17 801.89,371.66 802.46,366.99 803.04,376.74 803.61,376.86 804.19,370.00 804.76,371.36 805.34,379.12 805.91,367.59 806.49,376.90 807.06,375.54 807.64,375.29 808.21,380.99 808.78,377.52 809.36,377.86 809.93,371.71 810.51,369.66 811.08,379.48 811.66,379.91 812.23,376.24 812.81,375.07 813.38,378.09 813.95,362.96 814.53,379.40 815.10,383.01 815.68,373.76 816.25,383.34 816.83,374.95 817.40,377.23 817.98,372.07 818.55,366.25 819.12,375.47 819.70,377.90 820.27,378.77 820.85,390.58 821.42,370.49 822.00,376.67 822.57,377.84 823.15,382.82 823.72,373.46 824.30,377.11 824.87,375.64 825.44,366.76 826.02,371.30 826.59,375.58 827.17,378.69 827.74,383.15 828.32,376.34 828.89,376.11 829.47,390.92 830.04,378.86 830.61,377.86 831.19,383.40 831.76,375.94 832.34,382.83 832.91,386.73 833.49,388.74 834.06,372.73 834.64,395.86 835.21,384.18 835.78,384.97 836.36,389.01 836.93,381.32 837.51,390.88 838.08,397.96 838.66,377.20 839.23,375.70 839.81,385.96 840.38,383.16 840.96,386.11 841.53,384.34 842.10,381.32 842.68,375.81 843.25,383.86 843.83,390.08 844.40,389.30 844.98,377.35 845.55,387.95 846.13,389.70 846.70,387.63 847.27,405.42 847.85,387.17 848.42,388.46 849.00,390.21 849.57,393.11 850.15,392.04 850.72,397.85 851.30,394.77 851.87,402.28 852.44,392.35 853.02,393.30 853.59,401.36 854.17,402.76 854.74,394.63 855.32,390.63 855.89,395.67 856.47,390.94 857.04,384.76 857.62,388.89 858.19,389.43 858.76,386.86 859.34,387.92 859.91,391.28 860.49,391.99 861.06,404.58 861.64,387.56 862.21,394.66 862.79,386.87 863.36,390.94 863.93,401.42 864.51,385.24 865.08,396.55 865.66,390.27 866.23,387.12 866.81,383.75 867.38,391.31 867.96,394.94 868.53,394.38 869.10,382.77 869.68,386.15 870.25,388.43 870.83,397.71 871.40,392.66 871.98,394.57 872.55,387.64 873.13,392.75 873.70,398.21 874.28,395.10 874.85,385.27 875.42,391.00 876.00,375.00 876.57,392.24 877.15,383.40 877.72,387.45 878.30,377.77 878.87,383.55 879.45,386.26 880.02,393.85 880.59,394.70 881.17,388.70 881.74,392.18 882.32,389.03 882.89,391.42 883.47,381.36 884.04,389.10 884.62,389.32 885.19,380.74 885.76,386.75 886.34,405.54 886.91,393.24 887.49,387.00 888.06,405.08 888.64,399.85 889.21,382.38 889.79,393.48 890.36,387.97 890.94,389.07 891.51,390.68 892.08,394.90 892.66,404.16 893.23,397.72 893.81,386.17 894.38,393.01 894.96,401.14 895.53,393.83 896.11,392.46 896.68,388.42 897.25,388.40 897.83,391.13 898.40,384.87 898.98,401.11 899.55,383.05 900.13,396.01 900.70,391.57 901.28,396.78 901.85,387.59 902.42,391.30 903.00,389.17 903.57,391.09 904.15,380.26 904.72,376.61 905.30,384.41 905.87,391.25 906.45,389.46 907.02,392.27 907.60,396.45 908.17,385.51 908.74,394.28 909.32,389.41 909.89,376.10 910.47,385.94 911.04,387.06 911.62,384.12 912.19,384.28 912.77,372.77 913.34,393.85 913.91,390.18 914.49,388.19 915.06,391.98 915.64,388.35 916.21,395.46 916.79,397.11 917.36,380.20 917.94,392.21 918.51,389.17 919.08,375.13 919.66,395.68 920.23,386.95 920.81,379.05 921.38,397.72 921.96,381.94 922.53,374.36 923.11,392.27 923.68,383.38 924.26,393.71 924.83,394.11 925.40,386.04 925.98,385.12 926.55,381.01 927.13,384.86 927.70,385.26 928.28,384.11 928.85,383.42 929.43,383.68 930.00,392.15" />
  <polyline fill="none" stroke="#16a34a" stroke-width="3" points="70.00,129.44 70.57,97.21 71.15,109.04 71.72,126.66 72.30,121.89 72.87,131.65 73.45,138.11 74.02,132.71 74.60,142.79 75.17,151.53 75.74,124.14 76.32,119.06 76.89,121.62 77.47,121.52 78.04,127.46 78.62,126.46 79.19,124.59 79.77,125.25 80.34,125.93 80.92,129.48 81.49,133.63 82.06,131.66 82.64,141.09 83.21,138.01 83.79,139.79 84.36,140.45 84.94,144.90 85.51,142.58 86.09,142.14 86.66,139.64 87.23,151.97 87.81,146.13 88.38,152.16 88.96,154.18 89.53,159.87 90.11,154.17 90.68,159.57 91.26,158.57 91.83,158.20 92.40,162.24 92.98,154.70 93.55,167.67 94.13,160.63 94.70,165.66 95.28,156.23 95.85,159.48 96.43,154.57 97.00,155.49 97.58,164.49 98.15,166.15 98.72,164.45 99.30,172.96 99.87,167.52 100.45,165.11 101.02,169.20 101.60,173.72 102.17,162.47 102.75,172.70 103.32,170.56 103.89,170.30 104.47,174.57 105.04,180.36 105.62,178.19 106.19,180.25 106.77,186.35 107.34,188.05 107.92,185.60 108.49,187.91 109.06,187.50 109.64,195.34 110.21,185.53 110.79,195.20 111.36,181.98 111.94,186.87 112.51,202.58 113.09,195.08 113.66,198.64 114.24,192.24 114.81,190.55 115.38,197.86 115.96,193.06 116.53,192.85 117.11,190.21 117.68,196.60 118.26,194.82 118.83,200.90 119.41,199.92 119.98,196.25 120.55,194.91 121.13,199.15 121.70,201.95 122.28,208.18 122.85,209.50 123.43,216.45 124.00,216.39 124.58,216.94 125.15,219.85 125.72,215.17 126.30,215.59 126.87,214.84 127.45,217.72 128.02,222.18 128.60,224.57 129.17,233.27 129.75,228.17 130.32,231.49 130.90,229.69 131.47,229.52 132.04,228.01 132.62,232.11 133.19,232.06 133.77,237.03 134.34,237.20 134.92,237.71 135.49,239.30 136.07,236.34 136.64,237.80 137.21,235.00 137.79,240.54 138.36,240.20 138.94,237.68 139.51,238.94 140.09,246.40 140.66,246.85 141.24,250.82 141.81,254.07 142.38,249.15 142.96,254.24 143.53,247.39 144.11,252.48 144.68,245.94 145.26,254.61 145.83,258.23 146.41,262.04 146.98,261.36 147.56,260.97 148.13,260.59 148.70,254.23 149.28,254.92 149.85,256.95 150.43,260.78 151.00,256.70 151.58,259.64 152.15,259.11 152.73,259.10 153.30,259.93 153.87,262.08 154.45,259.30 155.02,256.97 155.60,265.41 156.17,257.88 156.75,263.42 157.32,257.13 157.90,254.70 158.47,264.01 159.04,260.89 159.62,252.78 160.19,260.21 160.77,258.87 161.34,268.92 161.92,267.70 162.49,258.51 163.07,263.34 163.64,270.87 164.22,266.24 164.79,264.51 165.36,258.40 165.94,263.88 166.51,262.57 167.09,263.04 167.66,260.60 168.24,260.79 168.81,257.82 169.39,258.84 169.96,257.02 170.53,264.87 171.11,262.75 171.68,255.14 172.26,252.35 172.83,264.94 173.41,258.97 173.98,266.85 174.56,255.21 175.13,263.13 175.70,260.28 176.28,267.28 176.85,266.00 177.43,263.54 178.00,266.92 178.58,263.82 179.15,258.62 179.73,259.20 180.30,262.67 180.88,259.91 181.45,262.86 182.02,263.00 182.60,266.99 183.17,259.31 183.75,265.44 184.32,263.23 184.90,262.91 185.47,267.48 186.05,268.28 186.62,269.94 187.19,267.26 187.77,269.73 188.34,269.33 188.92,262.26 189.49,266.00 190.07,268.99 190.64,264.62 191.22,272.49 191.79,266.48 192.36,271.91 192.94,270.91 193.51,269.58 194.09,266.40 194.66,266.85 195.24,270.66 195.81,274.95 196.39,273.17 196.96,269.48 197.54,265.79 198.11,274.19 198.68,271.10 199.26,270.66 199.83,273.72 200.41,270.17 200.98,272.06 201.56,272.98 202.13,275.65 202.71,275.88 203.28,272.02 203.85,269.98 204.43,278.23 205.00,275.16 205.58,269.30 206.15,272.56 206.73,266.59 207.30,276.84 207.88,273.73 208.45,274.08 209.02,277.49 209.60,270.81 210.17,274.07 210.75,275.42 211.32,273.14 211.90,271.83 212.47,270.98 213.05,278.93 213.62,279.71 214.20,280.96 214.77,281.82 215.34,277.47 215.92,283.00 216.49,277.50 217.07,286.85 217.64,279.24 218.22,283.97 218.79,288.05 219.37,282.26 219.94,281.50 220.51,289.52 221.09,274.68 221.66,284.20 222.24,286.54 222.81,286.81 223.39,285.33 223.96,287.39 224.54,285.42 225.11,287.19 225.68,286.96 226.26,286.26 226.83,292.46 227.41,289.18 227.98,288.62 228.56,293.65 229.13,297.75 229.71,295.24 230.28,286.77 230.86,292.93 231.43,297.60 232.00,294.51 232.58,283.58 233.15,297.32 233.73,288.99 234.30,285.57 234.88,287.61 235.45,289.81 236.03,296.89 236.60,286.50 237.17,291.32 237.75,287.08 238.32,292.73 238.90,288.43 239.47,284.85 240.05,286.42 240.62,291.75 241.20,292.92 241.77,284.53 242.34,285.59 242.92,282.54 243.49,288.39 244.07,281.41 244.64,287.47 245.22,282.41 245.79,284.52 246.37,286.93 246.94,280.94 247.52,286.10 248.09,283.40 248.66,282.97 249.24,287.00 249.81,285.92 250.39,291.15 250.96,287.36 251.54,294.91 252.11,289.93 252.69,294.69 253.26,283.63 253.83,292.43 254.41,288.71 254.98,285.59 255.56,289.67 256.13,289.40 256.71,295.07 257.28,294.79 257.86,296.93 258.43,298.15 259.00,293.24 259.58,296.66 260.15,297.18 260.73,300.90 261.30,293.12 261.88,296.96 262.45,293.16 263.03,298.03 263.60,304.03 264.18,300.18 264.75,297.57 265.32,295.72 265.90,291.46 266.47,298.11 267.05,300.51 267.62,294.13 268.20,301.57 268.77,296.60 269.35,301.07 269.92,294.78 270.49,295.04 271.07,297.64 271.64,297.24 272.22,295.53 272.79,301.81 273.37,301.57 273.94,302.81 274.52,311.31 275.09,302.35 275.66,309.06 276.24,309.39 276.81,304.89 277.39,306.17 277.96,310.51 278.54,309.64 279.11,305.35 279.69,305.80 280.26,306.98 280.84,305.68 281.41,302.82 281.98,313.08 282.56,303.65 283.13,306.88 283.71,305.05 284.28,310.45 284.86,308.16 285.43,313.65 286.01,309.50 286.58,309.62 287.15,306.44 287.73,312.09 288.30,310.55 288.88,311.52 289.45,314.61 290.03,318.02 290.60,309.28 291.18,317.58 291.75,307.49 292.32,314.02 292.90,317.11 293.47,316.94 294.05,314.57 294.62,315.91 295.20,316.54 295.77,325.43 296.35,311.26 296.92,315.77 297.49,313.52 298.07,317.34 298.64,314.38 299.22,324.02 299.79,320.33 300.37,324.41 300.94,327.49 301.52,324.49 302.09,332.47 302.67,330.43 303.24,326.26 303.81,323.08 304.39,325.69 304.96,329.22 305.54,315.91 306.11,326.99 306.69,323.86 307.26,323.58 307.84,321.67 308.41,324.79 308.98,322.89 309.56,321.17 310.13,319.83 310.71,323.82 311.28,323.46 311.86,327.99 312.43,323.18 313.01,324.32 313.58,320.91 314.15,325.79 314.73,324.19 315.30,323.09 315.88,319.17 316.45,321.77 317.03,314.15 317.60,317.34 318.18,319.89 318.75,323.18 319.33,314.87 319.90,314.72 320.47,315.17 321.05,315.16 321.62,314.19 322.20,316.89 322.77,326.89 323.35,329.61 323.92,331.25 324.50,325.06 325.07,323.89 325.64,327.43 326.22,318.34 326.79,335.74 327.37,328.91 327.94,337.30 328.52,338.89 329.09,346.65 329.67,335.36 330.24,337.87 330.81,340.73 331.39,340.27 331.96,334.04 332.54,333.40 333.11,335.28 333.69,343.22 334.26,348.02 334.84,350.95 335.41,350.72 335.99,346.79 336.56,351.12 337.13,341.03 337.71,340.69 338.28,350.62 338.86,339.81 339.43,348.23 340.01,340.54 340.58,347.13 341.16,341.15 341.73,344.10 342.30,340.02 342.88,336.91 343.45,345.96 344.03,340.70 344.60,339.50 345.18,345.55 345.75,340.47 346.33,349.68 346.90,352.73 347.47,339.76 348.05,339.34 348.62,343.32 349.20,348.05 349.77,345.62 350.35,341.96 350.92,355.64 351.50,349.20 352.07,343.69 352.65,348.35 353.22,353.15 353.79,351.10 354.37,354.49 354.94,356.57 355.52,357.65 356.09,357.55 356.67,343.15 357.24,349.81 357.82,346.23 358.39,345.93 358.96,347.66 359.54,341.68 360.11,342.06 360.69,343.36 361.26,336.46 361.84,336.14 362.41,347.99 362.99,341.70 363.56,331.26 364.13,347.76 364.71,346.46 365.28,346.35 365.86,341.81 366.43,340.39 367.01,328.51 367.58,339.68 368.16,338.69 368.73,339.53 369.31,343.14 369.88,340.73 370.45,340.99 371.03,334.81 371.60,339.00 372.18,338.62 372.75,334.62 373.33,340.56 373.90,334.63 374.48,343.18 375.05,339.99 375.62,340.69 376.20,339.98 376.77,342.41 377.35,341.18 377.92,339.12 378.50,346.60 379.07,346.47 379.65,342.98 380.22,346.38 380.79,336.47 381.37,339.28 381.94,340.20 382.52,343.71 383.09,342.62 383.67,331.69 384.24,323.63 384.82,328.29 385.39,329.20 385.97,334.49 386.54,319.99 387.11,328.40 387.69,321.22 388.26,326.05 388.84,330.17 389.41,328.73 389.99,332.14 390.56,327.45 391.14,330.85 391.71,336.71 392.28,338.61 392.86,337.31 393.43,330.56 394.01,337.35 394.58,336.04 395.16,335.82 395.73,336.51 396.31,333.50 396.88,330.44 397.45,335.88 398.03,330.53 398.60,327.30 399.18,327.23 399.75,328.75 400.33,331.63 400.90,328.81 401.48,336.66 402.05,322.71 402.63,333.17 403.20,347.46 403.77,343.27 404.35,348.38 404.92,345.14 405.50,338.28 406.07,339.57 406.65,335.95 407.22,330.62 407.80,335.70 408.37,339.27 408.94,339.95 409.52,329.06 410.09,327.65 410.67,337.58 411.24,339.23 411.82,334.43 412.39,339.67 412.97,337.31 413.54,330.03 414.11,336.50 414.69,337.61 415.26,333.89 415.84,344.29 416.41,349.13 416.99,344.70 417.56,347.58 418.14,340.63 418.71,346.76 419.29,351.81 419.86,358.85 420.43,354.92 421.01,355.02 421.58,355.15 422.16,338.08 422.73,361.17 423.31,352.84 423.88,357.43 424.46,357.18 425.03,353.06 425.60,348.28 426.18,351.85 426.75,348.56 427.33,346.55 427.90,353.50 428.48,353.96 429.05,352.61 429.63,358.46 430.20,348.92 430.77,348.05 431.35,337.98 431.92,343.11 432.50,339.77 433.07,342.64 433.65,348.11 434.22,342.89 434.80,340.13 435.37,343.22 435.95,348.12 436.52,342.77 437.09,340.32 437.67,339.64 438.24,347.12 438.82,340.05 439.39,337.02 439.97,345.05 440.54,342.64 441.12,350.14 441.69,353.53 442.26,348.26 442.84,346.61 443.41,342.07 443.99,338.14 444.56,338.40 445.14,342.97 445.71,341.05 446.29,347.68 446.86,342.94 447.43,350.35 448.01,350.75 448.58,335.90 449.16,337.90 449.73,337.99 450.31,345.44 450.88,348.51 451.46,343.89 452.03,338.31 452.61,337.72 453.18,343.66 453.75,330.32 454.33,331.79 454.90,336.81 455.48,339.83 456.05,329.58 456.63,340.34 457.20,345.79 457.78,341.91 458.35,342.01 458.92,335.36 459.50,337.80 460.07,336.97 460.65,339.36 461.22,338.85 461.80,325.18 462.37,334.09 462.95,342.10 463.52,334.07 464.09,336.62 464.67,336.44 465.24,337.26 465.82,336.14 466.39,335.22 466.97,333.24 467.54,325.59 468.12,332.93 468.69,335.56 469.27,334.55 469.84,335.17 470.41,331.22 470.99,328.45 471.56,331.71 472.14,334.73 472.71,339.97 473.29,337.34 473.86,331.56 474.44,339.91 475.01,333.17 475.58,334.13 476.16,338.16 476.73,342.80 477.31,336.12 477.88,337.19 478.46,348.05 479.03,345.60 479.61,342.90 480.18,349.77 480.75,350.15 481.33,344.03 481.90,347.20 482.48,347.79 483.05,352.74 483.63,351.93 484.20,348.38 484.78,349.21 485.35,350.65 485.93,343.46 486.50,344.86 487.07,349.14 487.65,339.66 488.22,343.67 488.80,336.12 489.37,333.76 489.95,335.40 490.52,340.23 491.10,337.85 491.67,334.08 492.24,333.79 492.82,332.76 493.39,338.67 493.97,345.08 494.54,338.66 495.12,342.59 495.69,342.07 496.27,342.92 496.84,341.85 497.41,333.88 497.99,338.51 498.56,337.66 499.14,333.21 499.71,337.42 500.29,341.87 500.86,336.47 501.44,337.14 502.01,337.59 502.59,334.89 503.16,336.78 503.73,337.20 504.31,332.96 504.88,328.06 505.46,338.21 506.03,336.89 506.61,332.05 507.18,342.52 507.76,341.81 508.33,336.05 508.90,326.76 509.48,329.41 510.05,330.32 510.63,327.60 511.20,325.48 511.78,334.86 512.35,341.42 512.93,334.42 513.50,331.12 514.07,324.98 514.65,327.81 515.22,327.74 515.80,334.73 516.37,335.65 516.95,332.30 517.52,334.07 518.10,337.58 518.67,334.43 519.25,327.10 519.82,322.02 520.39,340.12 520.97,328.70 521.54,340.02 522.12,336.70 522.69,346.89 523.27,336.23 523.84,332.89 524.42,332.71 524.99,327.03 525.56,333.11 526.14,327.08 526.71,333.60 527.29,331.80 527.86,340.27 528.44,338.79 529.01,336.49 529.59,335.49 530.16,339.90 530.73,341.73 531.31,340.27 531.88,344.54 532.46,354.34 533.03,344.08 533.61,333.55 534.18,329.82 534.76,338.39 535.33,335.05 535.91,337.88 536.48,337.36 537.05,343.61 537.63,331.97 538.20,337.25 538.78,334.40 539.35,332.54 539.93,338.43 540.50,335.98 541.08,341.82 541.65,334.92 542.22,329.76 542.80,331.01 543.37,336.41 543.95,337.59 544.52,336.98 545.10,339.86 545.67,338.56 546.25,332.79 546.82,344.60 547.39,340.96 547.97,357.08 548.54,354.19 549.12,350.94 549.69,348.96 550.27,347.25 550.84,346.58 551.42,347.23 551.99,346.24 552.57,352.62 553.14,357.41 553.71,356.30 554.29,356.44 554.86,351.74 555.44,352.69 556.01,348.05 556.59,346.58 557.16,353.71 557.74,347.89 558.31,351.42 558.88,348.74 559.46,345.14 560.03,350.22 560.61,349.96 561.18,352.83 561.76,347.82 562.33,356.07 562.91,348.46 563.48,350.56 564.05,350.93 564.63,348.88 565.20,335.55 565.78,349.64 566.35,344.77 566.93,345.68 567.50,342.35 568.08,346.96 568.65,346.84 569.23,356.28 569.80,359.02 570.37,363.28 570.95,352.49 571.52,353.19 572.10,355.39 572.67,345.58 573.25,338.39 573.82,339.40 574.40,333.28 574.97,336.72 575.54,340.58 576.12,329.38 576.69,337.30 577.27,335.79 577.84,339.55 578.42,344.51 578.99,338.83 579.57,343.81 580.14,342.01 580.71,337.79 581.29,343.95 581.86,343.84 582.44,345.81 583.01,343.11 583.59,346.63 584.16,353.32 584.74,349.93 585.31,349.71 585.89,347.57 586.46,358.65 587.03,351.61 587.61,352.20 588.18,355.80 588.76,351.59 589.33,354.53 589.91,353.69 590.48,351.88 591.06,349.13 591.63,350.59 592.20,341.68 592.78,343.55 593.35,344.39 593.93,342.42 594.50,344.66 595.08,358.23 595.65,351.75 596.23,352.10 596.80,351.09 597.37,349.11 597.95,342.32 598.52,336.96 599.10,351.94 599.67,338.11 600.25,351.55 600.82,345.77 601.40,349.08 601.97,348.70 602.55,342.11 603.12,351.16 603.69,351.84 604.27,342.03 604.84,346.64 605.42,350.78 605.99,349.02 606.57,355.30 607.14,345.52 607.72,355.97 608.29,345.46 608.86,354.34 609.44,356.68 610.01,346.23 610.59,355.10 611.16,346.24 611.74,349.51 612.31,346.09 612.89,345.99 613.46,353.47 614.03,339.85 614.61,341.63 615.18,346.96 615.76,342.73 616.33,347.90 616.91,350.79 617.48,342.60 618.06,347.11 618.63,340.68 619.21,352.09 619.78,343.93 620.35,336.78 620.93,344.65 621.50,341.80 622.08,343.98 622.65,341.51 623.23,342.01 623.80,353.16 624.38,346.20 624.95,335.31 625.52,339.79 626.10,337.61 626.67,347.32 627.25,349.53 627.82,343.57 628.40,342.04 628.97,354.09 629.55,355.06 630.12,350.49 630.69,350.04 631.27,352.43 631.84,343.10 632.42,353.20 632.99,356.52 633.57,351.88 634.14,357.59 634.72,352.41 635.29,354.71 635.87,350.11 636.44,345.63 637.01,343.98 637.59,355.69 638.16,348.71 638.74,353.50 639.31,355.51 639.89,356.00 640.46,354.15 641.04,357.12 641.61,356.74 642.18,368.11 642.76,366.27 643.33,355.33 643.91,344.23 644.48,352.46 645.06,354.94 645.63,356.59 646.21,352.66 646.78,358.14 647.35,363.93 647.93,361.89 648.50,359.43 649.08,359.69 649.65,361.55 650.23,367.04 650.80,366.68 651.38,372.97 651.95,371.02 652.53,368.67 653.10,372.34 653.67,369.26 654.25,355.47 654.82,356.95 655.40,356.39 655.97,359.43 656.55,359.73 657.12,350.32 657.70,362.63 658.27,360.64 658.84,347.05 659.42,352.94 659.99,356.53 660.57,353.69 661.14,346.83 661.72,346.90 662.29,354.83 662.87,354.85 663.44,341.01 664.01,343.56 664.59,342.76 665.16,339.66 665.74,358.30 666.31,344.75 666.89,348.62 667.46,342.09 668.04,358.15 668.61,344.89 669.19,350.74 669.76,347.06 670.33,345.00 670.91,343.89 671.48,351.79 672.06,346.74 672.63,344.16 673.21,343.69 673.78,350.57 674.36,347.84 674.93,345.37 675.50,353.99 676.08,341.75 676.65,338.95 677.23,341.14 677.80,343.45 678.38,345.28 678.95,343.33 679.53,337.40 680.10,333.38 680.67,341.14 681.25,334.35 681.82,345.63 682.40,350.04 682.97,342.11 683.55,336.90 684.12,334.48 684.70,335.17 685.27,336.18 685.85,334.20 686.42,333.23 686.99,335.36 687.57,336.65 688.14,325.36 688.72,331.00 689.29,334.08 689.87,334.28 690.44,323.76 691.02,336.66 691.59,332.85 692.16,330.81 692.74,334.82 693.31,327.32 693.89,328.85 694.46,330.31 695.04,333.53 695.61,333.31 696.19,336.42 696.76,334.75 697.33,330.99 697.91,340.99 698.48,334.38 699.06,344.08 699.63,342.78 700.21,337.49 700.78,332.62 701.36,342.27 701.93,338.55 702.51,338.83 703.08,345.43 703.65,341.62 704.23,340.70 704.80,345.59 705.38,335.09 705.95,347.82 706.53,348.81 707.10,340.13 707.68,345.56 708.25,351.19 708.82,344.09 709.40,348.17 709.97,343.44 710.55,336.71 711.12,339.96 711.70,350.65 712.27,339.67 712.85,343.27 713.42,343.12 713.99,342.67 714.57,333.72 715.14,344.60 715.72,341.90 716.29,342.20 716.87,344.79 717.44,340.45 718.02,337.96 718.59,336.14 719.16,345.27 719.74,344.79 720.31,355.09 720.89,346.41 721.46,346.26 722.04,348.11 722.61,340.16 723.19,339.88 723.76,343.98 724.34,337.77 724.91,344.62 725.48,346.35 726.06,339.61 726.63,344.03 727.21,338.84 727.78,343.81 728.36,344.04 728.93,348.93 729.51,342.16 730.08,342.45 730.65,349.23 731.23,338.37 731.80,345.12 732.38,337.56 732.95,342.03 733.53,331.59 734.10,333.47 734.68,334.49 735.25,337.75 735.82,332.88 736.40,339.52 736.97,339.77 737.55,336.71 738.12,337.83 738.70,340.74 739.27,340.38 739.85,338.54 740.42,342.56 741.00,343.25 741.57,336.32 742.14,332.24 742.72,337.97 743.29,334.00 743.87,341.80 744.44,348.49 745.02,347.86 745.59,335.78 746.17,332.62 746.74,342.31 747.31,344.05 747.89,343.12 748.46,337.28 749.04,349.68 749.61,343.81 750.19,342.87 750.76,340.40 751.34,347.02 751.91,351.34 752.48,345.82 753.06,347.69 753.63,354.76 754.21,355.09 754.78,355.59 755.36,358.89 755.93,350.73 756.51,357.36 757.08,354.32 757.66,358.69 758.23,353.20 758.80,356.39 759.38,366.58 759.95,355.14 760.53,345.60 761.10,358.16 761.68,357.00 762.25,358.72 762.83,359.19 763.40,363.89 763.97,361.30 764.55,352.91 765.12,355.50 765.70,354.25 766.27,369.45 766.85,363.41 767.42,360.52 768.00,363.02 768.57,368.98 769.14,366.29 769.72,362.50 770.29,355.08 770.87,360.63 771.44,362.45 772.02,362.27 772.59,365.66 773.17,356.45 773.74,355.19 774.32,351.52 774.89,354.34 775.46,354.03 776.04,369.55 776.61,366.86 777.19,366.61 777.76,376.03 778.34,363.04 778.91,357.84 779.49,359.78 780.06,368.47 780.63,364.25 781.21,373.43 781.78,364.50 782.36,361.69 782.93,351.32 783.51,357.02 784.08,357.12 784.66,354.16 785.23,343.72 785.80,342.14 786.38,339.15 786.95,341.33 787.53,353.31 788.10,341.23 788.68,355.05 789.25,352.14 789.83,351.90 790.40,356.19 790.98,344.65 791.55,334.42 792.12,340.10 792.70,347.99 793.27,339.69 793.85,341.31 794.42,347.54 795.00,353.40 795.57,347.43 796.15,343.36 796.72,342.73 797.29,340.21 797.87,344.87 798.44,342.38 799.02,338.20 799.59,349.63 800.17,347.65 800.74,341.69 801.32,341.01 801.89,348.47 802.46,344.94 803.04,346.91 803.61,345.47 804.19,346.62 804.76,342.65 805.34,346.76 805.91,343.40 806.49,343.34 807.06,347.49 807.64,341.69 808.21,345.38 808.78,344.24 809.36,349.45 809.93,345.46 810.51,347.43 811.08,348.74 811.66,350.29 812.23,345.45 812.81,345.49 813.38,345.00 813.95,340.52 814.53,344.57 815.10,347.63 815.68,353.47 816.25,349.97 816.83,348.18 817.40,345.35 817.98,340.88 818.55,358.03 819.12,346.60 819.70,359.10 820.27,354.66 820.85,358.23 821.42,350.70 822.00,353.58 822.57,362.98 823.15,357.40 823.72,343.59 824.30,356.70 824.87,350.25 825.44,352.13 826.02,355.61 826.59,350.91 827.17,351.66 827.74,350.28 828.32,355.18 828.89,354.18 829.47,358.78 830.04,361.97 830.61,356.92 831.19,355.38 831.76,357.25 832.34,365.49 832.91,362.20 833.49,366.22 834.06,359.39 834.64,355.76 835.21,363.44 835.78,369.71 836.36,363.17 836.93,361.93 837.51,358.67 838.08,360.63 838.66,359.17 839.23,353.07 839.81,361.76 840.38,364.49 840.96,357.55 841.53,362.51 842.10,355.64 842.68,368.98 843.25,350.21 843.83,356.63 844.40,349.58 844.98,357.68 845.55,357.84 846.13,354.26 846.70,352.10 847.27,352.66 847.85,359.26 848.42,358.73 849.00,353.27 849.57,356.21 850.15,357.74 850.72,349.27 851.30,348.96 851.87,357.46 852.44,352.51 853.02,356.53 853.59,352.74 854.17,354.61 854.74,347.53 855.32,346.56 855.89,346.83 856.47,355.63 857.04,356.32 857.62,356.42 858.19,350.73 858.76,344.51 859.34,354.81 859.91,348.46 860.49,344.35 861.06,351.73 861.64,348.87 862.21,344.87 862.79,341.92 863.36,350.63 863.93,350.01 864.51,343.34 865.08,358.64 865.66,346.80 866.23,355.09 866.81,355.98 867.38,347.49 867.96,353.79 868.53,349.53 869.10,351.72 869.68,353.96 870.25,358.83 870.83,345.72 871.40,350.26 871.98,354.22 872.55,358.99 873.13,348.77 873.70,346.66 874.28,361.31 874.85,346.91 875.42,356.40 876.00,345.85 876.57,348.13 877.15,350.13 877.72,343.91 878.30,342.76 878.87,343.63 879.45,353.07 880.02,338.97 880.59,337.49 881.17,342.14 881.74,334.53 882.32,336.51 882.89,339.61 883.47,347.14 884.04,344.12 884.62,349.93 885.19,344.99 885.76,348.14 886.34,352.25 886.91,348.32 887.49,347.95 888.06,349.42 888.64,351.22 889.21,344.13 889.79,344.75 890.36,345.82 890.94,347.47 891.51,335.81 892.08,343.92 892.66,333.78 893.23,337.81 893.81,341.25 894.38,347.82 894.96,339.97 895.53,339.31 896.11,340.60 896.68,337.89 897.25,343.06 897.83,345.43 898.40,338.00 898.98,340.50 899.55,344.67 900.13,340.98 900.70,339.89 901.28,336.39 901.85,336.34 902.42,331.40 903.00,326.76 903.57,327.78 904.15,324.01 904.72,340.34 905.30,327.25 905.87,331.50 906.45,325.07 907.02,333.94 907.60,327.71 908.17,341.13 908.74,343.48 909.32,339.71 909.89,341.34 910.47,336.99 911.04,349.32 911.62,333.58 912.19,338.97 912.77,343.41 913.34,341.69 913.91,346.74 914.49,345.87 915.06,342.92 915.64,336.38 916.21,338.19 916.79,350.28 917.36,336.85 917.94,335.34 918.51,340.17 919.08,342.09 919.66,340.70 920.23,351.43 920.81,348.53 921.38,343.53 921.96,347.69 922.53,345.05 923.11,354.04 923.68,349.88 924.26,342.98 924.83,344.79 925.40,340.04 925.98,343.05 926.55,354.03 927.13,336.83 927.70,354.54 928.28,347.59 928.85,337.74 929.43,339.48 930.00,329.75" />
  <polyline fill="none" stroke="#ea580c" stroke-width="3" points="70.00,74.55 70.57,93.10 71.15,158.86 71.72,192.20 72.30,137.97 72.87,111.86 73.45,81.36 74.02,111.75 74.60,120.17 75.17,116.26 75.74,121.09 76.32,115.09 76.89,114.87 77.47,120.70 78.04,114.89 78.62,112.06 79.19,114.10 79.77,111.93 80.34,109.21 80.92,113.29 81.49,111.47 82.06,112.84 82.64,115.37 83.21,118.73 83.79,116.01 84.36,117.34 84.94,113.38 85.51,114.07 86.09,116.57 86.66,116.04 87.23,116.09 87.81,117.59 88.38,117.66 88.96,118.22 89.53,118.98 90.11,119.24 90.68,116.84 91.26,116.44 91.83,116.13 92.40,117.81 92.98,120.25 93.55,120.29 94.13,118.76 94.70,122.68 95.28,121.41 95.85,118.74 96.43,117.44 97.00,120.48 97.58,122.34 98.15,128.53 98.72,126.65 99.30,132.29 99.87,127.82 100.45,133.84 101.02,127.10 101.60,134.47 102.17,125.71 102.75,128.82 103.32,129.25 103.89,134.03 104.47,132.24 105.04,138.51 105.62,130.91 106.19,134.20 106.77,133.65 107.34,138.09 107.92,131.45 108.49,135.23 109.06,134.03 109.64,134.63 110.21,137.40 110.79,138.11 111.36,138.35 111.94,141.69 112.51,139.42 113.09,145.45 113.66,142.51 114.24,145.21 114.81,156.08 115.38,149.11 115.96,154.46 116.53,150.53 117.11,153.56 117.68,161.40 118.26,168.53 118.83,158.07 119.41,170.24 119.98,167.08 120.55,176.09 121.13,180.04 121.70,169.42 122.28,174.79 122.85,177.35 123.43,171.27 124.00,182.89 124.58,178.51 125.15,188.28 125.72,178.97 126.30,189.26 126.87,181.65 127.45,189.46 128.02,189.68 128.60,191.93 129.17,202.09 129.75,203.07 130.32,212.41 130.90,216.48 131.47,222.95 132.04,215.55 132.62,235.14 133.19,239.43 133.77,229.15 134.34,224.30 134.92,227.90 135.49,229.67 136.07,231.47 136.64,225.93 137.21,233.20 137.79,229.20 138.36,230.50 138.94,226.93 139.51,233.09 140.09,223.49 140.66,232.63 141.24,227.56 141.81,231.53 142.38,234.14 142.96,223.23 143.53,227.69 144.11,227.05 144.68,229.10 145.26,223.25 145.83,227.47 146.41,228.04 146.98,225.72 147.56,225.64 148.13,222.92 148.70,215.88 149.28,220.77 149.85,231.12 150.43,230.21 151.00,225.15 151.58,232.16 152.15,233.18 152.73,230.97 153.30,234.45 153.87,232.26 154.45,235.25 155.02,230.57 155.60,232.12 156.17,233.28 156.75,233.75 157.32,231.28 157.90,236.42 158.47,235.96 159.04,232.90 159.62,238.46 160.19,246.85 160.77,236.70 161.34,240.39 161.92,247.08 162.49,237.94 163.07,241.71 163.64,249.86 164.22,243.17 164.79,253.27 165.36,251.67 165.94,247.78 166.51,260.22 167.09,257.49 167.66,249.70 168.24,251.22 168.81,253.17 169.39,258.03 169.96,259.97 170.53,263.21 171.11,257.89 171.68,269.45 172.26,245.28 172.83,259.60 173.41,250.61 173.98,262.42 174.56,253.79 175.13,260.52 175.70,260.71 176.28,265.56 176.85,264.35 177.43,264.07 178.00,268.36 178.58,271.86 179.15,270.50 179.73,260.39 180.30,251.91 180.88,253.54 181.45,257.52 182.02,260.40 182.60,250.89 183.17,249.00 183.75,256.47 184.32,251.09 184.90,256.44 185.47,261.04 186.05,254.84 186.62,259.33 187.19,255.89 187.77,250.09 188.34,260.07 188.92,262.70 189.49,266.63 190.07,257.30 190.64,263.09 191.22,262.03 191.79,263.82 192.36,262.97 192.94,265.18 193.51,260.35 194.09,262.36 194.66,258.46 195.24,260.85 195.81,261.77 196.39,260.29 196.96,264.68 197.54,261.38 198.11,261.01 198.68,266.09 199.26,269.09 199.83,261.45 200.41,262.19 200.98,259.00 201.56,271.08 202.13,265.08 202.71,264.45 203.28,266.77 203.85,264.00 204.43,266.71 205.00,267.39 205.58,265.31 206.15,266.25 206.73,269.24 207.30,266.47 207.88,274.49 208.45,271.95 209.02,269.13 209.60,278.72 210.17,277.94 210.75,275.82 211.32,271.65 211.90,275.47 212.47,273.70 213.05,265.45 213.62,272.49 214.20,278.04 214.77,274.47 215.34,271.07 215.92,274.59 216.49,272.52 217.07,271.94 217.64,270.74 218.22,268.60 218.79,267.90 219.37,270.95 219.94,264.06 220.51,269.79 221.09,270.17 221.66,271.44 222.24,274.49 222.81,266.44 223.39,272.14 223.96,271.49 224.54,272.62 225.11,276.86 225.68,276.45 226.26,276.07 226.83,280.38 227.41,287.56 227.98,282.56 228.56,280.79 229.13,286.90 229.71,279.72 230.28,282.12 230.86,277.38 231.43,278.81 232.00,274.84 232.58,283.87 233.15,269.35 233.73,272.88 234.30,271.39 234.88,278.22 235.45,276.54 236.03,276.66 236.60,277.00 237.17,276.82 237.75,276.52 238.32,275.31 238.90,269.60 239.47,274.61 240.05,270.46 240.62,273.02 241.20,268.79 241.77,271.87 242.34,274.99 242.92,267.71 243.49,271.22 244.07,273.85 244.64,274.74 245.22,272.43 245.79,270.81 246.37,269.66 246.94,266.77 247.52,267.16 248.09,263.46 248.66,263.15 249.24,269.26 249.81,264.70 250.39,272.00 250.96,276.83 251.54,270.28 252.11,269.15 252.69,270.05 253.26,269.64 253.83,272.81 254.41,263.89 254.98,267.26 255.56,264.54 256.13,266.10 256.71,270.33 257.28,266.83 257.86,269.52 258.43,265.26 259.00,264.74 259.58,272.22 260.15,267.28 260.73,264.49 261.30,270.04 261.88,271.98 262.45,273.23 263.03,268.43 263.60,272.34 264.18,273.80 264.75,272.19 265.32,271.57 265.90,277.11 266.47,276.68 267.05,272.91 267.62,275.59 268.20,282.04 268.77,279.89 269.35,284.22 269.92,282.09 270.49,281.68 271.07,289.05 271.64,279.37 272.22,283.01 272.79,284.04 273.37,286.17 273.94,283.42 274.52,278.90 275.09,281.20 275.66,287.26 276.24,287.98 276.81,281.47 277.39,284.30 277.96,281.12 278.54,280.43 279.11,282.46 279.69,287.82 280.26,284.97 280.84,288.15 281.41,290.23 281.98,285.47 282.56,291.69 283.13,283.57 283.71,284.53 284.28,285.25 284.86,285.49 285.43,285.59 286.01,287.33 286.58,287.68 287.15,288.42 287.73,285.11 288.30,289.77 288.88,292.58 289.45,293.46 290.03,291.21 290.60,294.47 291.18,297.31 291.75,304.86 292.32,296.64 292.90,296.40 293.47,301.76 294.05,299.82 294.62,301.44 295.20,301.57 295.77,297.55 296.35,292.96 296.92,298.33 297.49,293.41 298.07,295.68 298.64,290.59 299.22,285.06 299.79,290.70 300.37,287.19 300.94,288.00 301.52,289.25 302.09,293.91 302.67,298.73 303.24,290.75 303.81,296.31 304.39,297.34 304.96,303.26 305.54,301.30 306.11,303.07 306.69,304.91 307.26,298.39 307.84,304.50 308.41,298.26 308.98,303.62 309.56,297.74 310.13,303.90 310.71,291.68 311.28,294.06 311.86,306.17 312.43,291.37 313.01,297.07 313.58,303.36 314.15,302.81 314.73,295.08 315.30,289.80 315.88,295.03 316.45,286.96 317.03,290.24 317.60,293.27 318.18,291.52 318.75,292.91 319.33,299.09 319.90,295.57 320.47,282.37 321.05,292.91 321.62,286.52 322.20,287.36 322.77,283.62 323.35,286.55 323.92,284.61 324.50,286.89 325.07,291.90 325.64,280.32 326.22,284.31 326.79,279.11 327.37,275.61 327.94,280.85 328.52,278.12 329.09,278.62 329.67,277.61 330.24,274.81 330.81,278.61 331.39,272.52 331.96,274.86 332.54,280.39 333.11,278.57 333.69,280.49 334.26,278.33 334.84,279.71 335.41,283.12 335.99,283.49 336.56,273.78 337.13,270.72 337.71,272.49 338.28,276.38 338.86,276.91 339.43,275.20 340.01,276.68 340.58,272.08 341.16,278.59 341.73,281.29 342.30,280.76 342.88,283.94 343.45,282.47 344.03,282.81 344.60,276.83 345.18,278.12 345.75,277.22 346.33,275.14 346.90,280.61 347.47,277.72 348.05,275.37 348.62,272.84 349.20,278.84 349.77,279.91 350.35,283.18 350.92,276.58 351.50,280.37 352.07,278.47 352.65,280.57 353.22,281.22 353.79,277.28 354.37,280.19 354.94,282.70 355.52,280.05 356.09,279.56 356.67,279.92 357.24,286.61 357.82,284.16 358.39,285.33 358.96,280.77 359.54,280.20 360.11,277.26 360.69,282.46 361.26,281.51 361.84,282.14 362.41,282.07 362.99,283.25 363.56,281.72 364.13,285.98 364.71,283.93 365.28,289.04 365.86,288.28 366.43,285.87 367.01,279.01 367.58,280.69 368.16,276.13 368.73,285.32 369.31,282.44 369.88,278.13 370.45,287.03 371.03,281.65 371.60,289.90 372.18,283.53 372.75,289.56 373.33,277.99 373.90,286.12 374.48,290.05 375.05,285.30 375.62,285.74 376.20,279.41 376.77,273.72 377.35,280.96 377.92,281.88 378.50,282.61 379.07,283.88 379.65,278.31 380.22,284.01 380.79,284.15 381.37,284.75 381.94,279.90 382.52,280.64 383.09,280.17 383.67,279.92 384.24,278.38 384.82,284.67 385.39,282.25 385.97,287.70 386.54,289.62 387.11,283.91 387.69,285.41 388.26,286.33 388.84,286.69 389.41,285.88 389.99,294.98 390.56,286.65 391.14,287.59 391.71,292.03 392.28,298.44 392.86,293.29 393.43,293.37 394.01,290.20 394.58,286.76 395.16,295.27 395.73,296.23 396.31,297.79 396.88,296.10 397.45,293.09 398.03,300.53 398.60,301.37 399.18,292.35 399.75,299.04 400.33,306.86 400.90,303.26 401.48,303.00 402.05,302.47 402.63,307.61 403.20,302.72 403.77,308.06 404.35,315.14 404.92,308.91 405.50,310.92 406.07,316.52 406.65,316.68 407.22,313.89 407.80,307.12 408.37,302.39 408.94,316.03 409.52,326.86 410.09,317.71 410.67,316.73 411.24,314.01 411.82,310.85 412.39,310.24 412.97,303.14 413.54,309.10 414.11,316.61 414.69,306.24 415.26,309.41 415.84,292.72 416.41,299.12 416.99,313.74 417.56,308.61 418.14,303.72 418.71,308.33 419.29,315.42 419.86,315.53 420.43,314.39 421.01,319.32 421.58,316.48 422.16,306.32 422.73,324.44 423.31,316.78 423.88,325.72 424.46,327.48 425.03,324.97 425.60,326.12 426.18,324.27 426.75,324.86 427.33,322.04 427.90,324.15 428.48,320.86 429.05,324.74 429.63,323.91 430.20,329.56 430.77,326.35 431.35,320.57 431.92,336.38 432.50,337.60 433.07,333.40 433.65,326.36 434.22,327.35 434.80,328.37 435.37,334.24 435.95,323.36 436.52,328.26 437.09,324.84 437.67,330.36 438.24,321.32 438.82,334.55 439.39,323.45 439.97,328.41 440.54,326.58 441.12,333.06 441.69,328.50 442.26,333.05 442.84,329.63 443.41,318.16 443.99,317.45 444.56,322.55 445.14,325.84 445.71,318.46 446.29,312.16 446.86,328.90 447.43,320.03 448.01,323.46 448.58,319.12 449.16,318.23 449.73,316.55 450.31,322.85 450.88,324.63 451.46,311.97 452.03,310.65 452.61,318.30 453.18,312.52 453.75,316.37 454.33,313.01 454.90,309.50 455.48,310.27 456.05,303.25 456.63,306.28 457.20,306.00 457.78,309.22 458.35,305.68 458.92,309.70 459.50,318.84 460.07,304.28 460.65,305.78 461.22,318.42 461.80,301.57 462.37,306.92 462.95,303.47 463.52,310.00 464.09,306.03 464.67,310.35 465.24,309.73 465.82,309.70 466.39,303.51 466.97,306.96 467.54,313.80 468.12,311.78 468.69,302.30 469.27,307.48 469.84,297.81 470.41,305.07 470.99,303.79 471.56,293.62 472.14,313.87 472.71,307.71 473.29,309.74 473.86,304.40 474.44,302.34 475.01,294.11 475.58,293.43 476.16,296.44 476.73,305.43 477.31,303.17 477.88,299.16 478.46,297.25 479.03,298.26 479.61,303.84 480.18,297.69 480.75,289.85 481.33,298.10 481.90,292.34 482.48,293.24 483.05,297.68 483.63,297.52 484.20,301.45 484.78,289.06 485.35,300.36 485.93,299.08 486.50,297.21 487.07,306.83 487.65,295.25 488.22,293.24 488.80,297.33 489.37,292.86 489.95,293.45 490.52,303.44 491.10,296.38 491.67,300.43 492.24,290.96 492.82,302.51 493.39,301.77 493.97,298.12 494.54,296.94 495.12,294.22 495.69,297.93 496.27,296.98 496.84,296.23 497.41,301.21 497.99,303.51 498.56,299.59 499.14,297.72 499.71,296.12 500.29,300.86 500.86,300.91 501.44,293.86 502.01,294.74 502.59,300.41 503.16,297.45 503.73,294.12 504.31,301.94 504.88,307.42 505.46,299.72 506.03,302.31 506.61,297.27 507.18,305.11 507.76,299.31 508.33,304.57 508.90,302.80 509.48,307.26 510.05,308.23 510.63,304.89 511.20,304.70 511.78,306.81 512.35,306.75 512.93,317.25 513.50,310.01 514.07,308.02 514.65,307.95 515.22,306.39 515.80,320.23 516.37,326.70 516.95,321.13 517.52,320.68 518.10,314.73 518.67,313.86 519.25,314.95 519.82,319.97 520.39,312.41 520.97,323.76 521.54,315.76 522.12,323.41 522.69,320.96 523.27,315.13 523.84,319.90 524.42,321.14 524.99,318.80 525.56,321.89 526.14,324.78 526.71,314.99 527.29,316.26 527.86,315.89 528.44,316.73 529.01,310.05 529.59,313.05 530.16,317.63 530.73,311.33 531.31,319.11 531.88,314.34 532.46,316.79 533.03,326.74 533.61,313.12 534.18,307.80 534.76,312.91 535.33,316.19 535.91,310.35 536.48,319.98 537.05,323.44 537.63,319.90 538.20,316.82 538.78,321.49 539.35,318.03 539.93,313.92 540.50,322.29 541.08,317.79 541.65,317.13 542.22,323.57 542.80,319.32 543.37,320.75 543.95,310.80 544.52,316.86 545.10,308.57 545.67,315.64 546.25,308.02 546.82,315.79 547.39,311.43 547.97,312.14 548.54,321.29 549.12,323.67 549.69,309.64 550.27,307.01 550.84,310.08 551.42,318.50 551.99,315.42 552.57,315.65 553.14,307.13 553.71,313.78 554.29,304.70 554.86,298.03 555.44,297.38 556.01,301.15 556.59,305.37 557.16,312.43 557.74,312.54 558.31,310.28 558.88,309.49 559.46,311.98 560.03,322.43 560.61,303.81 561.18,316.17 561.76,310.15 562.33,308.05 562.91,307.55 563.48,310.55 564.05,309.66 564.63,313.79 565.20,311.49 565.78,308.15 566.35,311.57 566.93,316.68 567.50,319.49 568.08,314.43 568.65,311.66 569.23,325.96 569.80,320.46 570.37,320.54 570.95,318.11 571.52,316.74 572.10,317.43 572.67,319.78 573.25,311.97 573.82,314.90 574.40,317.10 574.97,307.40 575.54,317.50 576.12,315.34 576.69,315.15 577.27,311.21 577.84,326.20 578.42,328.11 578.99,324.60 579.57,321.95 580.14,327.87 580.71,319.67 581.29,334.74 581.86,323.61 582.44,327.89 583.01,332.93 583.59,332.49 584.16,334.69 584.74,337.70 585.31,335.69 585.89,341.33 586.46,336.21 587.03,345.77 587.61,338.44 588.18,335.86 588.76,326.62 589.33,338.34 589.91,337.07 590.48,335.31 591.06,334.14 591.63,329.06 592.20,320.17 592.78,322.82 593.35,335.87 593.93,335.32 594.50,327.78 595.08,319.63 595.65,326.40 596.23,323.73 596.80,316.13 597.37,323.52 597.95,323.09 598.52,322.73 599.10,332.01 599.67,326.96 600.25,329.31 600.82,324.94 601.40,319.93 601.97,329.90 602.55,324.11 603.12,325.94 603.69,332.58 604.27,327.25 604.84,327.02 605.42,320.12 605.99,330.19 606.57,322.14 607.14,324.99 607.72,325.83 608.29,332.56 608.86,328.74 609.44,332.58 610.01,327.59 610.59,326.20 611.16,329.14 611.74,328.53 612.31,328.56 612.89,329.48 613.46,330.31 614.03,328.24 614.61,330.60 615.18,322.74 615.76,325.12 616.33,322.11 616.91,318.31 617.48,323.81 618.06,320.75 618.63,319.30 619.21,323.74 619.78,324.70 620.35,331.83 620.93,319.79 621.50,322.74 622.08,324.11 622.65,326.20 623.23,322.29 623.80,326.89 624.38,328.36 624.95,318.33 625.52,323.56 626.10,322.66 626.67,324.27 627.25,323.22 627.82,331.38 628.40,330.07 628.97,327.69 629.55,336.80 630.12,330.03 630.69,328.24 631.27,322.66 631.84,331.85 632.42,323.00 632.99,324.00 633.57,331.22 634.14,325.82 634.72,324.21 635.29,323.57 635.87,320.23 636.44,323.41 637.01,329.64 637.59,320.97 638.16,324.99 638.74,323.32 639.31,329.39 639.89,319.83 640.46,327.00 641.04,318.92 641.61,317.90 642.18,316.81 642.76,321.94 643.33,317.26 643.91,326.17 644.48,320.03 645.06,322.63 645.63,324.18 646.21,314.69 646.78,326.53 647.35,326.00 647.93,330.21 648.50,319.76 649.08,308.03 649.65,322.72 650.23,315.11 650.80,324.36 651.38,321.74 651.95,321.97 652.53,318.06 653.10,319.00 653.67,320.84 654.25,322.82 654.82,332.42 655.40,324.67 655.97,315.94 656.55,336.84 657.12,324.35 657.70,332.30 658.27,321.33 658.84,320.65 659.42,320.14 659.99,313.80 660.57,329.68 661.14,328.62 661.72,332.70 662.29,339.53 662.87,328.75 663.44,323.97 664.01,327.67 664.59,330.14 665.16,319.69 665.74,326.45 666.31,327.95 666.89,332.07 667.46,334.02 668.04,325.15 668.61,332.84 669.19,328.30 669.76,334.14 670.33,327.81 670.91,334.62 671.48,335.29 672.06,332.33 672.63,327.29 673.21,322.19 673.78,324.99 674.36,326.55 674.93,330.96 675.50,324.15 676.08,330.69 676.65,328.32 677.23,331.22 677.80,325.84 678.38,325.63 678.95,327.52 679.53,327.15 680.10,330.11 680.67,337.73 681.25,325.52 681.82,334.94 682.40,330.78 682.97,325.96 683.55,334.73 684.12,346.30 684.70,338.90 685.27,329.92 685.85,338.35 686.42,337.33 686.99,338.40 687.57,333.13 688.14,335.10 688.72,339.17 689.29,341.93 689.87,339.55 690.44,330.96 691.02,333.29 691.59,338.32 692.16,332.07 692.74,335.12 693.31,340.70 693.89,330.44 694.46,346.29 695.04,334.90 695.61,334.83 696.19,336.70 696.76,341.43 697.33,343.84 697.91,341.93 698.48,343.14 699.06,340.47 699.63,350.54 700.21,339.86 700.78,344.60 701.36,338.83 701.93,336.38 702.51,340.82 703.08,340.37 703.65,335.52 704.23,327.93 704.80,340.00 705.38,334.66 705.95,339.80 706.53,340.47 707.10,336.82 707.68,343.77 708.25,332.11 708.82,326.75 709.40,336.48 709.97,331.50 710.55,336.41 711.12,341.93 711.70,331.51 712.27,338.99 712.85,334.87 713.42,326.65 713.99,332.77 714.57,328.57 715.14,334.82 715.72,342.57 716.29,334.04 716.87,329.73 717.44,330.69 718.02,325.65 718.59,333.98 719.16,338.85 719.74,337.25 720.31,324.05 720.89,339.33 721.46,342.81 722.04,337.90 722.61,340.13 723.19,334.00 723.76,343.15 724.34,341.49 724.91,336.00 725.48,339.75 726.06,331.01 726.63,335.11 727.21,336.88 727.78,332.45 728.36,327.05 728.93,334.29 729.51,326.47 730.08,332.05 730.65,335.94 731.23,331.53 731.80,332.25 732.38,336.32 732.95,336.93 733.53,330.47 734.10,339.79 734.68,327.05 735.25,326.44 735.82,334.00 736.40,336.78 736.97,336.94 737.55,347.62 738.12,335.10 738.70,335.34 739.27,336.68 739.85,340.14 740.42,344.90 741.00,337.73 741.57,340.01 742.14,343.03 742.72,349.23 743.29,338.27 743.87,346.28 744.44,336.72 745.02,340.77 745.59,343.23 746.17,343.56 746.74,345.31 747.31,347.96 747.89,354.22 748.46,347.73 749.04,349.42 749.61,351.29 750.19,344.94 750.76,349.30 751.34,351.65 751.91,349.47 752.48,348.24 753.06,349.55 753.63,348.72 754.21,346.00 754.78,350.48 755.36,346.65 755.93,344.59 756.51,343.11 757.08,350.79 757.66,352.64 758.23,349.39 758.80,344.49 759.38,345.40 759.95,345.52 760.53,346.55 761.10,354.77 761.68,339.28 762.25,338.43 762.83,353.15 763.40,351.87 763.97,348.20 764.55,341.66 765.12,354.03 765.70,347.13 766.27,344.08 766.85,345.08 767.42,349.15 768.00,352.45 768.57,344.80 769.14,346.56 769.72,345.81 770.29,352.11 770.87,351.87 771.44,343.38 772.02,353.39 772.59,346.61 773.17,345.12 773.74,349.03 774.32,346.42 774.89,350.24 775.46,347.87 776.04,345.67 776.61,335.97 777.19,354.19 777.76,338.35 778.34,341.29 778.91,343.41 779.49,345.67 780.06,335.33 780.63,344.96 781.21,346.68 781.78,341.11 782.36,341.60 782.93,344.50 783.51,343.14 784.08,343.47 784.66,346.46 785.23,348.12 785.80,356.10 786.38,336.98 786.95,356.71 787.53,344.53 788.10,343.69 788.68,340.45 789.25,348.80 789.83,352.83 790.40,345.53 790.98,352.19 791.55,337.29 792.12,345.48 792.70,345.15 793.27,334.85 793.85,344.96 794.42,337.74 795.00,349.61 795.57,350.92 796.15,338.16 796.72,348.03 797.29,350.57 797.87,346.83 798.44,340.17 799.02,332.94 799.59,331.35 800.17,337.44 800.74,337.05 801.32,338.28 801.89,329.88 802.46,329.93 803.04,332.23 803.61,324.90 804.19,337.64 804.76,329.24 805.34,341.80 805.91,341.69 806.49,334.04 807.06,336.66 807.64,332.83 808.21,337.09 808.78,335.01 809.36,329.76 809.93,339.16 810.51,342.00 811.08,335.60 811.66,340.78 812.23,333.91 812.81,340.79 813.38,341.87 813.95,344.03 814.53,342.38 815.10,343.62 815.68,340.60 816.25,342.21 816.83,337.11 817.40,341.19 817.98,339.13 818.55,340.38 819.12,343.20 819.70,340.04 820.27,345.67 820.85,344.84 821.42,340.06 822.00,343.56 822.57,341.48 823.15,345.39 823.72,341.48 824.30,342.81 824.87,344.80 825.44,345.92 826.02,344.57 826.59,350.34 827.17,343.02 827.74,348.37 828.32,349.22 828.89,348.65 829.47,336.99 830.04,350.86 830.61,352.57 831.19,349.18 831.76,350.71 832.34,346.92 832.91,351.30 833.49,342.05 834.06,342.29 834.64,347.84 835.21,345.71 835.78,351.75 836.36,337.70 836.93,347.48 837.51,344.07 838.08,351.34 838.66,352.88 839.23,354.11 839.81,360.22 840.38,364.91 840.96,350.86 841.53,355.48 842.10,349.72 842.68,354.37 843.25,358.07 843.83,351.88 844.40,333.12 844.98,341.59 845.55,343.05 846.13,339.04 846.70,342.43 847.27,340.40 847.85,341.98 848.42,347.01 849.00,348.24 849.57,354.51 850.15,354.38 850.72,351.09 851.30,360.18 851.87,356.20 852.44,359.87 853.02,345.90 853.59,350.56 854.17,351.79 854.74,348.41 855.32,360.02 855.89,359.89 856.47,354.22 857.04,360.71 857.62,369.18 858.19,353.43 858.76,360.07 859.34,353.08 859.91,363.01 860.49,363.98 861.06,365.85 861.64,356.67 862.21,370.24 862.79,367.98 863.36,369.09 863.93,369.72 864.51,366.11 865.08,363.28 865.66,360.98 866.23,362.89 866.81,362.41 867.38,357.69 867.96,362.66 868.53,358.50 869.10,364.20 869.68,359.46 870.25,356.20 870.83,362.61 871.40,357.83 871.98,361.97 872.55,360.04 873.13,362.21 873.70,362.03 874.28,358.04 874.85,353.02 875.42,353.22 876.00,355.90 876.57,350.04 877.15,349.26 877.72,351.83 878.30,349.80 878.87,349.26 879.45,340.89 880.02,344.49 880.59,347.14 881.17,346.13 881.74,351.83 882.32,353.10 882.89,343.73 883.47,360.46 884.04,349.28 884.62,347.58 885.19,353.36 885.76,355.42 886.34,349.13 886.91,344.52 887.49,345.02 888.06,338.76 888.64,337.51 889.21,344.00 889.79,343.93 890.36,340.94 890.94,331.94 891.51,346.01 892.08,347.69 892.66,342.47 893.23,346.46 893.81,330.37 894.38,338.07 894.96,331.27 895.53,342.70 896.11,334.75 896.68,332.44 897.25,333.29 897.83,327.95 898.40,339.45 898.98,333.92 899.55,331.53 900.13,334.95 900.70,345.14 901.28,339.31 901.85,347.21 902.42,343.35 903.00,335.93 903.57,340.06 904.15,342.91 904.72,349.64 905.30,350.68 905.87,351.58 906.45,346.63 907.02,350.63 907.60,350.91 908.17,343.26 908.74,357.87 909.32,354.44 909.89,351.81 910.47,345.95 911.04,344.89 911.62,340.37 912.19,342.73 912.77,355.52 913.34,349.93 913.91,349.24 914.49,356.66 915.06,343.02 915.64,346.11 916.21,342.97 916.79,345.60 917.36,338.66 917.94,347.58 918.51,344.11 919.08,359.29 919.66,353.62 920.23,358.77 920.81,352.54 921.38,356.18 921.96,350.88 922.53,363.79 923.11,357.04 923.68,365.88 924.26,356.22 924.83,358.75 925.40,358.03 925.98,349.90 926.55,358.68 927.13,348.63 927.70,358.40 928.28,352.19 928.85,353.51 929.43,354.15 930.00,351.59" />
  <rect x="720" y="80" width="190" height="127" fill="#ffffff" stroke="#cccccc" stroke-width="1" rx="8" ry="8" />
  <line x1="732" y1="105" x2="762" y2="105" stroke="#2563eb" stroke-width="4" />
  <text x="770" y="110" font-size="14" font-family="Arial">base_data</text>
  <line x1="732" y1="133" x2="762" y2="133" stroke="#dc2626" stroke-width="4" />
  <text x="770" y="138" font-size="14" font-family="Arial">pruning_884</text>
  <line x1="732" y1="161" x2="762" y2="161" stroke="#16a34a" stroke-width="4" />
  <text x="770" y="166" font-size="14" font-family="Arial">pruning_mcts_885</text>
  <line x1="732" y1="189" x2="762" y2="189" stroke="#ea580c" stroke-width="4" />
  <text x="770" y="194" font-size="14" font-family="Arial">pruning_best885</text>
</svg>