<svg xmlns="http://www.w3.org/2000/svg" width="800" height="420">
  <rect x="0" y="0" width="800" height="420" fill="#ffffff" />
  <line x1="60" y1="360" x2="740" y2="360" stroke="#333333" stroke-width="2" />
  <line x1="60" y1="60" x2="60" y2="360" stroke="#333333" stroke-width="2" />
  <text x="400.0" y="30" text-anchor="middle" font-size="22" font-family="Arial">Policy Entropy</text>
  <text x="400.0" y="405" text-anchor="middle" font-size="16" font-family="Arial">Batch</text>
  <text x="24" y="210.0" text-anchor="middle" font-size="16" font-family="Arial" transform="rotate(-90 24 210.0)">Entropy</text>
  <text x="60" y="50" font-size="13" font-family="Arial">4.149</text>
  <text x="60" y="380" font-size="13" font-family="Arial">1.657</text>
  <text x="60" y="395" font-size="13" font-family="Arial">3</text>
  <text x="740" y="395" text-anchor="end" font-size="13" font-family="Arial">1500</text>
  <polyline fill="none" stroke="#ea580c" stroke-width="3" points="60.00,60.00 60.45,79.80 60.91,87.03 61.36,84.44 61.82,83.78 62.27,94.72 62.73,86.08 63.18,95.02 63.63,95.83 64.09,94.07 64.54,104.29 65.00,100.07 65.45,99.74 65.91,105.28 66.36,103.58 66.81,101.92 67.27,105.05 67.72,104.39 68.18,102.49 68.63,103.76 69.08,106.87 69.54,105.32 69.99,104.69 70.45,105.91 70.90,109.91 71.36,111.01 71.81,111.89 72.26,111.13 72.72,113.14 73.17,108.62 73.63,106.71 74.08,108.95 74.54,110.93 74.99,111.44 75.44,113.75 75.90,113.83 76.35,116.33 76.81,114.54 77.26,111.51 77.72,112.45 78.17,113.60 78.62,112.56 79.08,111.84 79.53,116.42 79.99,115.92 80.44,117.01 80.90,114.96 81.35,113.94 81.80,115.30 82.26,117.47 82.71,118.93 83.17,122.25 83.62,124.52 84.07,119.44 84.53,122.46 84.98,121.98 85.44,119.69 85.89,119.05 86.35,122.43 86.80,119.98 87.25,123.66 87.71,120.30 88.16,125.24 88.62,122.12 89.07,124.99 89.53,118.62 89.98,124.51 90.43,120.20 90.89,121.13 91.34,120.16 91.80,125.41 92.25,125.73 92.71,123.54 93.16,128.68 93.61,127.93 94.07,126.98 94.52,129.37 94.98,129.10 95.43,127.48 95.89,127.37 96.34,129.70 96.79,132.08 97.25,128.14 97.70,131.90 98.16,134.77 98.61,140.15 99.06,125.93 99.52,126.14 99.97,132.25 100.43,137.23 100.88,136.55 101.34,134.70 101.79,138.89 102.24,139.51 102.70,132.86 103.15,142.41 103.61,145.18 104.06,137.86 104.52,145.52 104.97,140.19 105.42,147.31 105.88,148.77 106.33,147.74 106.79,148.18 107.24,149.58 107.70,157.89 108.15,153.93 108.60,152.76 109.06,153.06 109.51,157.65 109.97,160.37 110.42,160.38 110.88,155.27 111.33,159.24 111.78,158.25 112.24,159.28 112.69,165.84 113.15,169.14 113.60,168.91 114.05,169.11 114.51,165.80 114.96,169.00 115.42,169.86 115.87,169.61 116.33,178.33 116.78,177.66 117.23,174.81 117.69,179.63 118.14,189.08 118.60,183.54 119.05,181.04 119.51,185.65 119.96,187.16 120.41,193.75 120.87,187.94 121.32,191.11 121.78,192.31 122.23,198.28 122.69,196.44 123.14,198.44 123.59,206.80 124.05,202.40 124.50,195.41 124.96,209.82 125.41,210.80 125.87,207.05 126.32,206.42 126.77,206.00 127.23,215.03 127.68,215.09 128.14,209.97 128.59,212.07 129.04,220.09 129.50,215.79 129.95,219.06 130.41,220.52 130.86,217.95 131.32,227.16 131.77,223.79 132.22,226.55 132.68,224.15 133.13,224.45 133.59,229.23 134.04,231.53 134.50,227.26 134.95,233.58 135.40,233.68 135.86,227.82 136.31,236.38 136.77,235.96 137.22,234.02 137.68,240.24 138.13,240.29 138.58,238.58 139.04,237.62 139.49,241.76 139.95,239.98 140.40,236.58 140.86,241.59 141.31,239.53 141.76,241.23 142.22,241.89 142.67,243.79 143.13,246.30 143.58,243.35 144.03,248.21 144.49,243.14 144.94,245.32 145.40,244.68 145.85,249.47 146.31,249.62 146.76,242.51 147.21,247.71 147.67,246.39 148.12,245.62 148.58,254.33 149.03,245.11 149.49,253.73 149.94,251.74 150.39,246.26 150.85,254.77 151.30,249.18 151.76,249.71 152.21,255.34 152.67,255.59 153.12,250.24 153.57,252.03 154.03,256.06 154.48,255.07 154.94,255.25 155.39,254.28 155.85,257.25 156.30,261.44 156.75,260.09 157.21,257.10 157.66,257.43 158.12,257.70 158.57,262.17 159.02,264.35 159.48,264.04 159.93,259.75 160.39,264.81 160.84,263.13 161.30,263.89 161.75,264.32 162.20,269.07 162.66,268.24 163.11,264.78 163.57,259.48 164.02,270.26 164.48,267.91 164.93,266.31 165.38,265.19 165.84,268.64 166.29,266.04 166.75,267.78 167.20,266.91 167.66,266.46 168.11,272.88 168.56,270.02 169.02,270.77 169.47,274.73 169.93,271.15 170.38,274.85 170.84,273.22 171.29,275.80 171.74,272.79 172.20,270.26 172.65,272.04 173.11,271.49 173.56,274.92 174.01,276.46 174.47,273.85 174.92,272.75 175.38,278.78 175.83,273.07 176.29,277.64 176.74,278.02 177.19,273.46 177.65,274.82 178.10,276.42 178.56,274.62 179.01,276.66 179.47,275.07 179.92,273.02 180.37,278.31 180.83,275.90 181.28,275.38 181.74,275.73 182.19,275.69 182.65,280.35 183.10,276.62 183.55,279.23 184.01,279.90 184.46,273.46 184.92,279.67 185.37,278.71 185.82,282.42 186.28,284.74 186.73,278.88 187.19,276.69 187.64,281.94 188.10,279.85 188.55,277.83 189.00,276.02 189.46,274.63 189.91,275.14 190.37,281.67 190.82,284.80 191.28,272.34 191.73,280.71 192.18,285.51 192.64,278.53 193.09,280.65 193.55,278.38 194.00,278.88 194.46,274.37 194.91,278.45 195.36,277.81 195.82,277.61 196.27,285.19 196.73,277.81 197.18,276.17 197.64,279.41 198.09,280.50 198.54,279.72 199.00,281.60 199.45,275.93 199.91,273.01 200.36,274.99 200.81,274.53 201.27,273.56 201.72,274.48 202.18,268.86 202.63,279.56 203.09,281.58 203.54,282.11 203.99,279.17 204.45,277.14 204.90,281.54 205.36,277.46 205.81,276.62 206.27,274.73 206.72,282.02 207.17,275.85 207.63,279.35 208.08,274.83 208.54,277.40 208.99,278.40 209.45,277.17 209.90,280.83 210.35,279.80 210.81,273.60 211.26,275.66 211.72,277.97 212.17,279.14 212.63,278.52 213.08,277.61 213.53,279.32 213.99,278.91 214.44,281.74 214.90,281.78 215.35,280.87 215.80,282.92 216.26,282.41 216.71,283.89 217.17,281.92 217.62,284.17 218.08,282.05 218.53,283.95 218.98,285.59 219.44,280.64 219.89,284.02 220.35,283.49 220.80,290.67 221.26,280.86 221.71,278.68 222.16,285.56 222.62,286.66 223.07,289.69 223.53,287.44 223.98,288.74 224.44,286.96 224.89,283.68 225.34,279.19 225.80,285.66 226.25,285.75 226.71,289.48 227.16,290.15 227.62,289.24 228.07,290.45 228.52,290.24 228.98,284.93 229.43,284.00 229.89,287.12 230.34,286.36 230.79,285.13 231.25,290.40 231.70,290.55 232.16,289.52 232.61,285.93 233.07,290.78 233.52,295.79 233.97,291.70 234.43,293.10 234.88,293.08 235.34,298.44 235.79,292.91 236.25,291.75 236.70,297.02 237.15,297.91 237.61,292.20 238.06,292.57 238.52,292.79 238.97,296.11 239.43,291.86 239.88,290.01 240.33,296.26 240.79,291.52 241.24,291.73 241.70,292.73 242.15,292.71 242.61,292.60 243.06,291.40 243.51,289.81 243.97,294.56 244.42,294.99 244.88,289.17 245.33,291.64 245.78,294.86 246.24,294.00 246.69,295.63 247.15,296.53 247.60,292.52 248.06,288.22 248.51,291.97 248.96,289.53 249.42,293.67 249.87,293.80 250.33,290.42 250.78,285.68 251.24,290.36 251.69,289.68 252.14,292.31 252.60,295.71 253.05,294.65 253.51,290.54 253.96,292.23 254.42,296.34 254.87,289.18 255.32,294.36 255.78,293.50 256.23,294.54 256.69,285.10 257.14,290.05 257.60,290.54 258.05,293.51 258.50,287.93 258.96,287.38 259.41,294.36 259.87,289.51 260.32,284.43 260.77,292.45 261.23,291.78 261.68,291.09 262.14,284.85 262.59,295.07 263.05,289.07 263.50,288.18 263.95,289.50 264.41,288.73 264.86,284.33 265.32,287.29 265.77,287.04 266.23,293.38 266.68,285.30 267.13,284.83 267.59,284.62 268.04,293.49 268.50,286.40 268.95,289.50 269.41,288.37 269.86,293.77 270.31,286.22 270.77,288.66 271.22,287.74 271.68,283.18 272.13,284.97 272.59,292.11 273.04,289.18 273.49,282.01 273.95,277.48 274.40,287.73 274.86,282.84 275.31,293.53 275.76,291.31 276.22,290.50 276.67,289.01 277.13,282.49 277.58,291.19 278.04,292.93 278.49,291.25 278.94,286.88 279.40,286.64 279.85,287.50 280.31,285.50 280.76,292.05 281.22,287.20 281.67,287.27 282.12,286.25 282.58,285.99 283.03,286.84 283.49,285.35 283.94,285.04 284.40,291.04 284.85,287.31 285.30,293.84 285.76,289.39 286.21,293.53 286.67,286.30 287.12,290.97 287.58,289.09 288.03,289.05 288.48,285.47 288.94,295.71 289.39,287.30 289.85,293.56 290.30,286.23 290.75,290.24 291.21,289.06 291.66,288.79 292.12,292.05 292.57,293.77 293.03,286.86 293.48,292.49 293.93,294.98 294.39,294.95 294.84,287.73 295.30,284.98 295.75,286.26 296.21,292.19 296.66,292.19 297.11,281.83 297.57,288.58 298.02,291.04 298.48,292.39 298.93,294.82 299.39,294.27 299.84,284.81 300.29,292.93 300.75,293.70 301.20,294.97 301.66,292.28 302.11,292.92 302.57,287.32 303.02,291.02 303.47,289.76 303.93,287.20 304.38,288.55 304.84,289.77 305.29,289.25 305.74,291.12 306.20,294.26 306.65,292.87 307.11,288.87 307.56,291.35 308.02,290.29 308.47,293.28 308.92,288.94 309.38,287.34 309.83,295.64 310.29,296.85 310.74,287.78 311.20,290.12 311.65,292.20 312.10,292.56 312.56,294.44 313.01,297.79 313.47,294.21 313.92,296.84 314.38,295.20 314.83,295.93 315.28,292.98 315.74,289.67 316.19,297.97 316.65,292.14 317.10,295.64 317.56,295.60 318.01,291.10 318.46,294.27 318.92,290.30 319.37,298.83 319.83,297.77 320.28,295.29 320.73,299.15 321.19,294.08 321.64,295.81 322.10,296.97 322.55,294.17 323.01,295.64 323.46,288.46 323.91,302.73 324.37,297.59 324.82,298.29 325.28,301.24 325.73,294.14 326.19,293.32 326.64,298.81 327.09,295.12 327.55,291.28 328.00,296.10 328.46,300.36 328.91,299.57 329.37,295.70 329.82,293.36 330.27,298.34 330.73,294.66 331.18,292.84 331.64,297.46 332.09,290.84 332.55,304.97 333.00,289.03 333.45,292.45 333.91,289.45 334.36,302.31 334.82,292.85 335.27,300.26 335.72,291.51 336.18,303.11 336.63,294.44 337.09,296.45 337.54,296.03 338.00,298.76 338.45,295.74 338.90,298.47 339.36,288.03 339.81,296.85 340.27,300.03 340.72,302.71 341.18,299.29 341.63,296.43 342.08,301.59 342.54,299.13 342.99,301.05 343.45,299.75 343.90,303.96 344.36,293.62 344.81,301.90 345.26,297.07 345.72,292.04 346.17,297.27 346.63,296.09 347.08,302.39 347.54,297.21 347.99,299.28 348.44,298.54 348.90,301.92 349.35,298.26 349.81,305.70 350.26,297.28 350.71,297.52 351.17,302.76 351.62,298.29 352.08,295.06 352.53,297.90 352.99,304.46 353.44,301.28 353.89,300.61 354.35,300.07 354.80,302.94 355.26,297.92 355.71,300.87 356.17,296.44 356.62,300.59 357.07,298.45 357.53,300.29 357.98,294.16 358.44,298.39 358.89,295.75 359.35,301.22 359.80,297.46 360.25,290.47 360.71,298.73 361.16,299.46 361.62,297.32 362.07,294.09 362.53,294.79 362.98,292.87 363.43,298.34 363.89,292.53 364.34,299.10 364.80,296.19 365.25,293.38 365.70,294.51 366.16,292.73 366.61,293.09 367.07,291.82 367.52,297.57 367.98,295.03 368.43,299.81 368.88,293.13 369.34,295.61 369.79,285.44 370.25,297.71 370.70,287.06 371.16,301.54 371.61,295.65 372.06,297.35 372.52,298.81 372.97,294.82 373.43,293.43 373.88,304.35 374.34,293.02 374.79,304.23 375.24,292.06 375.70,297.98 376.15,297.22 376.61,297.67 377.06,298.97 377.52,292.62 377.97,306.06 378.42,295.72 378.88,298.62 379.33,294.68 379.79,294.60 380.24,296.73 380.69,292.82 381.15,302.48 381.60,297.84 382.06,295.47 382.51,296.67 382.97,291.35 383.42,297.07 383.87,297.70 384.33,297.59 384.78,299.52 385.24,298.53 385.69,297.93 386.15,297.65 386.60,302.14 387.05,301.67 387.51,303.53 387.96,301.13 388.42,300.30 388.87,304.55 389.33,298.02 389.78,304.25 390.23,296.78 390.69,300.30 391.14,301.33 391.60,297.73 392.05,303.10 392.51,299.83 392.96,302.44 393.41,302.93 393.87,300.69 394.32,304.37 394.78,301.54 395.23,299.64 395.68,302.45 396.14,298.50 396.59,295.74 397.05,303.47 397.50,300.06 397.96,299.95 398.41,297.21 398.86,301.98 399.32,301.35 399.77,298.59 400.23,304.05 400.68,300.75 401.14,300.12 401.59,307.06 402.04,305.88 402.50,299.03 402.95,301.42 403.41,300.30 403.86,303.11 404.32,302.48 404.77,303.27 405.22,302.36 405.68,306.13 406.13,305.41 406.59,305.46 407.04,304.31 407.49,306.20 407.95,302.67 408.40,302.81 408.86,306.15 409.31,304.82 409.77,310.21 410.22,308.24 410.67,308.58 411.13,307.97 411.58,304.48 412.04,305.92 412.49,303.92 412.95,304.71 413.40,304.33 413.85,298.48 414.31,303.00 414.76,305.87 415.22,301.01 415.67,306.52 416.13,305.26 416.58,305.06 417.03,308.46 417.49,302.94 417.94,308.13 418.40,306.89 418.85,300.23 419.31,308.51 419.76,306.58 420.21,303.28 420.67,309.27 421.12,304.23 421.58,306.26 422.03,308.72 422.48,307.42 422.94,308.12 423.39,304.07 423.85,301.51 424.30,305.95 424.76,310.38 425.21,306.15 425.66,313.59 426.12,308.93 426.57,306.45 427.03,313.01 427.48,305.84 427.94,308.76 428.39,307.35 428.84,306.74 429.30,315.72 429.75,313.15 430.21,303.91 430.66,308.47 431.12,308.55 431.57,309.58 432.02,313.47 432.48,313.39 432.93,309.86 433.39,307.00 433.84,302.09 434.30,310.74 434.75,307.26 435.20,312.48 435.66,309.28 436.11,304.88 436.57,308.69 437.02,307.36 437.47,311.42 437.93,304.17 438.38,310.65 438.84,314.99 439.29,305.77 439.75,309.98 440.20,312.84 440.65,317.19 441.11,311.36 441.56,313.02 442.02,312.97 442.47,318.66 442.93,310.09 443.38,303.01 443.83,306.18 444.29,309.73 444.74,306.98 445.20,316.60 445.65,312.31 446.11,309.54 446.56,311.99 447.01,314.33 447.47,321.64 447.92,311.94 448.38,318.21 448.83,319.46 449.29,314.45 449.74,313.71 450.19,313.44 450.65,316.14 451.10,320.83 451.56,314.98 452.01,315.70 452.46,313.29 452.92,313.95 453.37,320.58 453.83,317.70 454.28,320.94 454.74,326.90 455.19,316.61 455.64,321.59 456.10,321.47 456.55,318.97 457.01,316.08 457.46,320.10 457.92,319.42 458.37,317.82 458.82,318.60 459.28,317.41 459.73,325.76 460.19,322.60 460.64,315.75 461.10,319.75 461.55,320.57 462.00,320.15 462.46,325.71 462.91,323.22 463.37,323.87 463.82,319.09 464.28,323.93 464.73,319.17 465.18,320.89 465.64,327.22 466.09,324.24 466.55,326.60 467.00,327.88 467.45,330.30 467.91,329.38 468.36,317.83 468.82,327.36 469.27,323.56 469.73,325.66 470.18,328.74 470.63,330.36 471.09,333.92 471.54,333.24 472.00,329.41 472.45,328.16 472.91,325.87 473.36,323.61 473.81,331.63 474.27,333.16 474.72,329.33 475.18,326.29 475.63,327.34 476.09,329.11 476.54,319.74 476.99,322.87 477.45,331.43 477.90,329.87 478.36,332.12 478.81,331.22 479.27,331.04 479.72,326.68 480.17,322.11 480.63,329.06 481.08,336.82 481.54,330.32 481.99,331.66 482.44,328.14 482.90,324.46 483.35,330.51 483.81,329.66 484.26,333.76 484.72,328.04 485.17,326.38 485.62,334.77 486.08,331.10 486.53,332.32 486.99,333.90 487.44,334.51 487.90,330.36 488.35,329.11 488.80,329.15 489.26,326.84 489.71,331.43 490.17,334.97 490.62,326.43 491.08,325.66 491.53,333.32 491.98,330.10 492.44,323.66 492.89,328.50 493.35,325.49 493.80,320.56 494.26,327.98 494.71,327.44 495.16,334.88 495.62,321.47 496.07,329.01 496.53,328.32 496.98,325.56 497.43,322.98 497.89,324.72 498.34,325.78 498.80,326.45 499.25,328.55 499.71,317.18 500.16,321.09 500.61,323.00 501.07,326.73 501.52,331.92 501.98,322.20 502.43,332.35 502.89,320.35 503.34,323.18 503.79,325.10 504.25,325.46 504.70,321.19 505.16,313.80 505.61,321.29 506.07,321.88 506.52,316.69 506.97,315.35 507.43,314.91 507.88,318.36 508.34,321.41 508.79,315.81 509.25,318.69 509.70,313.31 510.15,318.26 510.61,319.84 511.06,318.47 511.52,317.98 511.97,316.80 512.42,316.81 512.88,320.24 513.33,312.69 513.79,314.39 514.24,312.44 514.70,317.83 515.15,323.54 515.60,316.70 516.06,315.25 516.51,315.90 516.97,316.56 517.42,319.35 517.88,314.94 518.33,316.18 518.78,319.07 519.24,318.64 519.69,314.67 520.15,319.63 520.60,319.47 521.06,312.95 521.51,316.73 521.96,320.32 522.42,318.61 522.87,322.31 523.33,316.82 523.78,325.17 524.24,323.21 524.69,320.95 525.14,323.00 525.60,325.13 526.05,316.81 526.51,318.78 526.96,328.67 527.41,323.30 527.87,324.77 528.32,332.23 528.78,319.58 529.23,325.15 529.69,327.42 530.14,326.71 530.59,325.59 531.05,326.84 531.50,328.01 531.96,325.45 532.41,327.42 532.87,324.17 533.32,329.73 533.77,323.55 534.23,331.27 534.68,331.73 535.14,330.17 535.59,323.96 536.05,327.12 536.50,336.63 536.95,327.90 537.41,329.11 537.86,327.78 538.32,331.30 538.77,331.43 539.23,332.46 539.68,330.09 540.13,329.02 540.59,329.74 541.04,335.43 541.50,332.15 541.95,330.64 542.40,335.95 542.86,340.03 543.31,335.12 543.77,335.98 544.22,332.82 544.68,329.21 545.13,335.03 545.58,340.17 546.04,339.96 546.49,331.78 546.95,333.77 547.40,333.82 547.86,332.83 548.31,336.23 548.76,338.36 549.22,337.89 549.67,339.82 550.13,345.51 550.58,341.96 551.04,339.36 551.49,333.09 551.94,333.86 552.40,340.12 552.85,336.28 553.31,332.78 553.76,344.86 554.22,338.06 554.67,340.47 555.12,335.59 555.58,343.60 556.03,344.23 556.49,337.98 556.94,340.57 557.39,344.45 557.85,347.90 558.30,345.41 558.76,340.26 559.21,335.31 559.67,340.37 560.12,342.96 560.57,346.17 561.03,337.32 561.48,339.34 561.94,346.44 562.39,338.43 562.85,340.69 563.30,342.05 563.75,338.39 564.21,342.51 564.66,342.13 565.12,333.05 565.57,340.16 566.03,342.36 566.48,343.98 566.93,341.52 567.39,337.24 567.84,343.40 568.30,338.17 568.75,339.81 569.21,336.91 569.66,332.11 570.11,343.54 570.57,343.16 571.02,343.84 571.48,335.59 571.93,340.23 572.38,332.90 572.84,344.96 573.29,339.58 573.75,337.07 574.20,325.34 574.66,340.00 575.11,339.44 575.56,334.83 576.02,338.46 576.47,336.50 576.93,344.69 577.38,343.50 577.84,337.97 578.29,338.17 578.74,338.49 579.20,339.86 579.65,337.70 580.11,337.87 580.56,339.14 581.02,338.64 581.47,338.47 581.92,339.69 582.38,345.21 582.83,341.03 583.29,338.90 583.74,347.53 584.20,345.41 584.65,341.17 585.10,344.34 585.56,335.30 586.01,335.40 586.47,336.29 586.92,342.19 587.37,344.02 587.83,350.60 588.28,338.64 588.74,342.72 589.19,340.03 589.65,339.24 590.10,345.70 590.55,345.88 591.01,345.59 591.46,348.64 591.92,346.69 592.37,347.49 592.83,345.56 593.28,337.20 593.73,342.11 594.19,347.76 594.64,348.39 595.10,349.64 595.55,348.98 596.01,348.71 596.46,346.33 596.91,348.40 597.37,353.20 597.82,347.28 598.28,345.80 598.73,352.81 599.19,348.42 599.64,345.23 600.09,345.13 600.55,351.86 601.00,351.18 601.46,352.25 601.91,351.16 602.36,349.97 602.82,345.22 603.27,352.57 603.73,351.97 604.18,349.06 604.64,357.53 605.09,352.44 605.54,352.54 606.00,353.46 606.45,354.01 606.91,346.74 607.36,338.38 607.82,343.31 608.27,351.04 608.72,344.19 609.18,349.08 609.63,349.03 610.09,345.71 610.54,350.84 611.00,344.82 611.45,345.30 611.90,346.19 612.36,343.35 612.81,341.59 613.27,340.40 613.72,343.64 614.18,347.44 614.63,348.46 615.08,348.25 615.54,348.16 615.99,343.59 616.45,341.62 616.90,335.27 617.35,348.22 617.81,347.16 618.26,346.93 618.72,339.96 619.17,340.93 619.63,331.67 620.08,335.75 620.53,341.99 620.99,338.46 621.44,340.59 621.90,340.87 622.35,341.64 622.81,341.93 623.26,340.59 623.71,339.60 624.17,335.05 624.62,335.65 625.08,338.76 625.53,340.53 625.99,346.25 626.44,337.94 626.89,341.54 627.35,334.80 627.80,335.06 628.26,341.15 628.71,342.40 629.16,337.72 629.62,338.74 630.07,341.30 630.53,340.57 630.98,334.05 631.44,346.68 631.89,341.66 632.34,343.44 632.80,334.56 633.25,336.65 633.71,338.26 634.16,338.30 634.62,343.04 635.07,339.72 635.52,340.34 635.98,340.72 636.43,334.87 636.89,335.16 637.34,336.54 637.80,335.74 638.25,335.58 638.70,334.67 639.16,342.29 639.61,341.77 640.07,332.61 640.52,334.34 640.98,339.88 641.43,341.82 641.88,338.81 642.34,336.69 642.79,344.13 643.25,343.48 643.70,340.59 644.15,341.90 644.61,342.22 645.06,344.45 645.52,350.72 645.97,342.04 646.43,341.95 646.88,340.58 647.33,349.27 647.79,343.40 648.24,347.49 648.70,351.22 649.15,343.57 649.61,344.49 650.06,345.64 650.51,346.69 650.97,345.43 651.42,348.77 651.88,342.45 652.33,348.62 652.79,342.22 653.24,350.61 653.69,352.68 654.15,348.13 654.60,348.48 655.06,349.57 655.51,349.38 655.97,344.36 656.42,347.09 656.87,348.93 657.33,346.99 657.78,346.85 658.24,346.41 658.69,339.68 659.14,346.83 659.60,349.57 660.05,346.58 660.51,345.83 660.96,355.63 661.42,349.63 661.87,342.57 662.32,350.98 662.78,348.21 663.23,353.26 663.69,344.32 664.14,348.99 664.60,347.52 665.05,348.55 665.50,357.47 665.96,346.31 666.41,350.47 666.87,342.64 667.32,344.25 667.78,343.56 668.23,350.70 668.68,352.71 669.14,354.32 669.59,350.00 670.05,344.76 670.50,348.62 670.96,343.85 671.41,348.50 671.86,351.50 672.32,351.26 672.77,346.78 673.23,342.20 673.68,341.45 674.13,347.02 674.59,350.89 675.04,344.86 675.50,342.45 675.95,344.49 676.41,347.35 676.86,348.94 677.31,352.44 677.77,350.61 678.22,351.88 678.68,344.27 679.13,345.67 679.59,351.76 680.04,349.31 680.49,346.86 680.95,349.62 681.40,356.53 681.86,352.35 682.31,344.04 682.77,356.60 683.22,354.10 683.67,348.83 684.13,348.54 684.58,350.20 685.04,351.74 685.49,353.04 685.95,351.29 686.40,360.00 686.85,348.89 687.31,355.14 687.76,358.04 688.22,355.15 688.67,348.25 689.12,347.95 689.58,354.56 690.03,349.86 690.49,346.76 690.94,353.85 691.40,352.26 691.85,350.09 692.30,350.36 692.76,353.70 693.21,350.71 693.67,349.81 694.12,354.41 694.58,349.75 695.03,351.76 695.48,352.42 695.94,353.38 696.39,345.34 696.85,346.07 697.30,346.55 697.76,344.11 698.21,344.46 698.66,346.81 699.12,355.46 699.57,344.65 700.03,339.93 700.48,345.78 700.94,348.36 701.39,343.66 701.84,346.84 702.30,343.04 702.75,339.07 703.21,347.97 703.66,339.82 704.11,343.60 704.57,347.19 705.02,344.69 705.48,342.29 705.93,339.00 706.39,340.83 706.84,336.18 707.29,336.33 707.75,343.90 708.20,338.59 708.66,341.87 709.11,332.29 709.57,335.86 710.02,341.62 710.47,337.09 710.93,338.79 711.38,334.53 711.84,330.05 712.29,332.91 712.75,334.60 713.20,329.32 713.65,337.91 714.11,340.08 714.56,337.66 715.02,332.49 715.47,331.63 715.93,329.91 716.38,332.72 716.83,332.65 717.29,332.65 717.74,335.78 718.20,330.94 718.65,333.85 719.10,335.13 719.56,338.31 720.01,333.55 720.47,337.69 720.92,336.74 721.38,336.34 721.83,332.45 722.28,335.30 722.74,332.64 723.19,332.87 723.65,334.34 724.10,332.08 724.56,332.20 725.01,335.32 725.46,334.09 725.92,333.73 726.37,335.62 726.83,333.10 727.28,334.88 727.74,330.35 728.19,334.16 728.64,336.52 729.10,335.51 729.55,334.15 730.01,333.78 730.46,340.23 730.92,340.61 731.37,336.43 731.82,343.21 732.28,341.92 732.73,340.87 733.19,339.53 733.64,339.49 734.09,345.36 734.55,337.85 735.00,335.43 735.46,348.44 735.91,344.01 736.37,345.56 736.82,345.67 737.27,339.25 737.73,344.72 738.18,345.89 738.64,342.60 739.09,339.23 739.55,342.53 740.00,340.55" />
</svg>
