<svg xmlns="http://www.w3.org/2000/svg" width="800" height="420">
  <rect x="0" y="0" width="800" height="420" fill="#ffffff" />
  <line x1="60" y1="360" x2="740" y2="360" stroke="#333333" stroke-width="2" />
  <line x1="60" y1="60" x2="60" y2="360" stroke="#333333" stroke-width="2" />
  <text x="400.0" y="30" text-anchor="middle" font-size="22" font-family="Arial">Self-Play Episode Length</text>
  <text x="400.0" y="405" text-anchor="middle" font-size="16" font-family="Arial">Batch</text>
  <text x="24" y="210.0" text-anchor="middle" font-size="16" font-family="Arial" transform="rotate(-90 24 210.0)">Episode Length</text>
  <text x="60" y="50" font-size="13" font-family="Arial">64.000</text>
  <text x="60" y="380" font-size="13" font-family="Arial">9.000</text>
  <text x="60" y="395" font-size="13" font-family="Arial">1</text>
  <text x="740" y="395" text-anchor="end" font-size="13" font-family="Arial">1500</text>
  <polyline fill="none" stroke="#2563eb" stroke-width="3" points="60.00,245.45 60.45,289.09 60.91,289.09 61.36,278.18 61.81,278.18 62.27,267.27 62.72,283.64 63.18,261.82 63.63,240.00 64.08,278.18 64.54,321.82 64.99,283.64 65.44,201.82 65.90,272.73 66.35,294.55 66.80,223.64 67.26,207.27 67.71,261.82 68.17,245.45 68.62,316.36 69.07,207.27 69.53,261.82 69.98,327.27 70.43,305.45 70.89,305.45 71.34,354.55 71.79,256.36 72.25,185.45 72.70,207.27 73.16,278.18 73.61,278.18 74.06,354.55 74.52,278.18 74.97,294.55 75.42,289.09 75.88,256.36 76.33,278.18 76.78,332.73 77.24,250.91 77.69,196.36 78.15,256.36 78.60,250.91 79.05,321.82 79.51,267.27 79.96,174.55 80.41,261.82 80.87,261.82 81.32,185.45 81.77,305.45 82.23,250.91 82.68,305.45 83.14,283.64 83.59,240.00 84.04,316.36 84.50,283.64 84.95,272.73 85.40,321.82 85.86,294.55 86.31,234.55 86.76,294.55 87.22,201.82 87.67,332.73 88.13,327.27 88.58,272.73 89.03,300.00 89.49,267.27 89.94,141.82 90.39,321.82 90.85,278.18 91.30,300.00 91.75,174.55 92.21,250.91 92.66,327.27 93.12,316.36 93.57,240.00 94.02,294.55 94.48,327.27 94.93,250.91 95.38,141.82 95.84,272.73 96.29,272.73 96.74,289.09 97.20,300.00 97.65,261.82 98.11,327.27 98.56,327.27 99.01,196.36 99.47,60.00 99.92,294.55 100.37,163.64 100.83,327.27 101.28,316.36 101.73,174.55 102.19,289.09 102.64,272.73 103.10,207.27 103.55,261.82 104.00,60.00 104.46,207.27 104.91,294.55 105.36,278.18 105.82,283.64 106.27,294.55 106.72,130.91 107.18,294.55 107.63,174.55 108.09,272.73 108.54,185.45 108.99,185.45 109.45,218.18 109.90,196.36 110.35,316.36 110.81,316.36 111.26,158.18 111.71,196.36 112.17,294.55 112.62,283.64 113.08,207.27 113.53,300.00 113.98,185.45 114.44,278.18 114.89,289.09 115.34,60.00 115.80,152.73 116.25,250.91 116.70,196.36 117.16,278.18 117.61,278.18 118.07,294.55 118.52,300.00 118.97,321.82 119.43,261.82 119.88,305.45 120.33,310.91 120.79,201.82 121.24,201.82 121.69,283.64 122.15,305.45 122.60,283.64 123.06,267.27 123.51,207.27 123.96,267.27 124.42,327.27 124.87,272.73 125.32,207.27 125.78,316.36 126.23,305.45 126.68,316.36 127.14,278.18 127.59,283.64 128.05,294.55 128.50,272.73 128.95,261.82 129.41,267.27 129.86,294.55 130.31,261.82 130.77,196.36 131.22,283.64 131.67,240.00 132.13,278.18 132.58,130.91 133.04,327.27 133.49,261.82 133.94,332.73 134.40,305.45 134.85,294.55 135.30,196.36 135.76,196.36 136.21,272.73 136.66,289.09 137.12,316.36 137.57,310.91 138.03,185.45 138.48,141.82 138.93,267.27 139.39,321.82 139.84,294.55 140.29,250.91 140.75,338.18 141.20,207.27 141.65,223.64 142.11,278.18 142.56,190.91 143.02,207.27 143.47,300.00 143.92,250.91 144.38,267.27 144.83,283.64 145.28,283.64 145.74,316.36 146.19,250.91 146.64,321.82 147.10,294.55 147.55,343.64 148.01,136.36 148.46,190.91 148.91,278.18 149.37,278.18 149.82,360.00 150.27,305.45 150.73,218.18 151.18,283.64 151.63,152.73 152.09,185.45 152.54,250.91 153.00,300.00 153.45,256.36 153.90,261.82 154.36,60.00 154.81,338.18 155.26,294.55 155.72,185.45 156.17,229.09 156.62,169.09 157.08,310.91 157.53,289.09 157.99,294.55 158.44,310.91 158.89,283.64 159.35,310.91 159.80,283.64 160.25,190.91 160.71,310.91 161.16,261.82 161.61,261.82 162.07,310.91 162.52,278.18 162.98,240.00 163.43,321.82 163.88,174.55 164.34,278.18 164.79,305.45 165.24,267.27 165.70,278.18 166.15,305.45 166.60,305.45 167.06,250.91 167.51,250.91 167.97,310.91 168.42,349.09 168.87,343.64 169.33,310.91 169.78,185.45 170.23,316.36 170.69,256.36 171.14,305.45 171.59,283.64 172.05,300.00 172.50,305.45 172.96,196.36 173.41,305.45 173.86,169.09 174.32,212.73 174.77,163.64 175.22,316.36 175.68,300.00 176.13,261.82 176.58,294.55 177.04,190.91 177.49,294.55 177.95,185.45 178.40,283.64 178.85,256.36 179.31,349.09 179.76,185.45 180.21,294.55 180.67,327.27 181.12,310.91 181.57,343.64 182.03,316.36 182.48,327.27 182.94,327.27 183.39,196.36 183.84,163.64 184.30,272.73 184.75,294.55 185.20,316.36 185.66,245.45 186.11,245.45 186.56,327.27 187.02,321.82 187.47,321.82 187.93,305.45 188.38,332.73 188.83,294.55 189.29,332.73 189.74,278.18 190.19,267.27 190.65,349.09 191.10,278.18 191.55,250.91 192.01,272.73 192.46,267.27 192.92,316.36 193.37,180.00 193.82,327.27 194.28,300.00 194.73,349.09 195.18,321.82 195.64,343.64 196.09,321.82 196.54,300.00 197.00,332.73 197.45,278.18 197.91,327.27 198.36,240.00 198.81,343.64 199.27,283.64 199.72,310.91 200.17,261.82 200.63,343.64 201.08,278.18 201.53,321.82 201.99,332.73 202.44,283.64 202.90,321.82 203.35,250.91 203.80,278.18 204.26,305.45 204.71,250.91 205.16,201.82 205.62,250.91 206.07,283.64 206.52,289.09 206.98,261.82 207.43,332.73 207.89,278.18 208.34,310.91 208.79,207.27 209.25,343.64 209.70,321.82 210.15,294.55 210.61,240.00 211.06,321.82 211.51,327.27 211.97,316.36 212.42,310.91 212.88,349.09 213.33,327.27 213.78,321.82 214.24,289.09 214.69,305.45 215.14,294.55 215.60,190.91 216.05,158.18 216.50,185.45 216.96,294.55 217.41,60.00 217.87,272.73 218.32,310.91 218.77,289.09 219.23,272.73 219.68,305.45 220.13,316.36 220.59,349.09 221.04,272.73 221.49,201.82 221.95,294.55 222.40,300.00 222.86,201.82 223.31,283.64 223.76,316.36 224.22,223.64 224.67,250.91 225.12,283.64 225.58,305.45 226.03,267.27 226.48,196.36 226.94,310.91 227.39,338.18 227.85,283.64 228.30,300.00 228.75,294.55 229.21,305.45 229.66,240.00 230.11,300.00 230.57,310.91 231.02,196.36 231.47,321.82 231.93,190.91 232.38,169.09 232.84,272.73 233.29,261.82 233.74,196.36 234.20,305.45 234.65,327.27 235.10,250.91 235.56,305.45 236.01,278.18 236.46,207.27 236.92,272.73 237.37,316.36 237.83,272.73 238.28,354.55 238.73,185.45 239.19,360.00 239.64,278.18 240.09,316.36 240.55,321.82 241.00,305.45 241.45,300.00 241.91,327.27 242.36,300.00 242.82,294.55 243.27,300.00 243.72,294.55 244.18,201.82 244.63,316.36 245.08,229.09 245.54,305.45 245.99,294.55 246.44,305.45 246.90,294.55 247.35,240.00 247.81,305.45 248.26,332.73 248.71,332.73 249.17,360.00 249.62,305.45 250.07,316.36 250.53,321.82 250.98,180.00 251.43,272.73 251.89,316.36 252.34,321.82 252.80,332.73 253.25,294.55 253.70,212.73 254.16,343.64 254.61,278.18 255.06,289.09 255.52,321.82 255.97,267.27 256.42,283.64 256.88,310.91 257.33,349.09 257.79,250.91 258.24,321.82 258.69,245.45 259.15,310.91 259.60,343.64 260.05,305.45 260.51,250.91 260.96,332.73 261.41,349.09 261.87,332.73 262.32,343.64 262.78,289.09 263.23,294.55 263.68,272.73 264.14,201.82 264.59,272.73 265.04,294.55 265.50,278.18 265.95,332.73 266.40,343.64 266.86,327.27 267.31,283.64 267.77,278.18 268.22,289.09 268.67,234.55 269.13,332.73 269.58,207.27 270.03,234.55 270.49,294.55 270.94,332.73 271.39,338.18 271.85,327.27 272.30,250.91 272.76,267.27 273.21,305.45 273.66,300.00 274.12,321.82 274.57,256.36 275.02,338.18 275.48,272.73 275.93,278.18 276.38,240.00 276.84,234.55 277.29,289.09 277.75,305.45 278.20,316.36 278.65,207.27 279.11,272.73 279.56,300.00 280.01,196.36 280.47,321.82 280.92,240.00 281.37,300.00 281.83,158.18 282.28,201.82 282.74,321.82 283.19,316.36 283.64,294.55 284.10,321.82 284.55,310.91 285.00,354.55 285.46,294.55 285.91,338.18 286.36,256.36 286.82,201.82 287.27,360.00 287.73,310.91 288.18,289.09 288.63,289.09 289.09,305.45 289.54,294.55 289.99,316.36 290.45,343.64 290.90,332.73 291.35,245.45 291.81,261.82 292.26,190.91 292.72,207.27 293.17,327.27 293.62,294.55 294.08,289.09 294.53,332.73 294.98,305.45 295.44,294.55 295.89,338.18 296.34,256.36 296.80,316.36 297.25,190.91 297.71,261.82 298.16,305.45 298.61,327.27 299.07,201.82 299.52,294.55 299.97,289.09 300.43,310.91 300.88,169.09 301.33,349.09 301.79,332.73 302.24,207.27 302.70,327.27 303.15,207.27 303.60,316.36 304.06,283.64 304.51,201.82 304.96,289.09 305.42,240.00 305.87,283.64 306.32,207.27 306.78,294.55 307.23,316.36 307.69,294.55 308.14,327.27 308.59,354.55 309.05,272.73 309.50,283.64 309.95,343.64 310.41,207.27 310.86,207.27 311.31,327.27 311.77,234.55 312.22,321.82 312.68,272.73 313.13,327.27 313.58,294.55 314.04,321.82 314.49,267.27 314.94,261.82 315.40,316.36 315.85,185.45 316.30,294.55 316.76,338.18 317.21,201.82 317.67,327.27 318.12,250.91 318.57,283.64 319.03,327.27 319.48,327.27 319.93,321.82 320.39,316.36 320.84,283.64 321.29,338.18 321.75,250.91 322.20,250.91 322.66,316.36 323.11,305.45 323.56,316.36 324.02,256.36 324.47,283.64 324.92,250.91 325.38,300.00 325.83,267.27 326.28,229.09 326.74,250.91 327.19,283.64 327.65,250.91 328.10,278.18 328.55,207.27 329.01,174.55 329.46,240.00 329.91,316.36 330.37,294.55 330.82,289.09 331.27,283.64 331.73,300.00 332.18,240.00 332.64,327.27 333.09,207.27 333.54,300.00 334.00,180.00 334.45,316.36 334.90,60.00 335.36,120.00 335.81,256.36 336.26,250.91 336.72,316.36 337.17,327.27 337.63,332.73 338.08,283.64 338.53,240.00 338.99,272.73 339.44,174.55 339.89,207.27 340.35,163.64 340.80,185.45 341.25,294.55 341.71,316.36 342.16,305.45 342.62,332.73 343.07,261.82 343.52,300.00 343.98,283.64 344.43,305.45 344.88,261.82 345.34,294.55 345.79,305.45 346.24,305.45 346.70,60.00 347.15,272.73 347.61,272.73 348.06,310.91 348.51,305.45 348.97,234.55 349.42,180.00 349.87,316.36 350.33,240.00 350.78,294.55 351.23,343.64 351.69,321.82 352.14,316.36 352.60,283.64 353.05,321.82 353.50,294.55 353.96,261.82 354.41,272.73 354.86,294.55 355.32,278.18 355.77,300.00 356.22,256.36 356.68,354.55 357.13,349.09 357.59,294.55 358.04,240.00 358.49,305.45 358.95,294.55 359.40,283.64 359.85,196.36 360.31,332.73 360.76,321.82 361.21,289.09 361.67,327.27 362.12,332.73 362.58,300.00 363.03,316.36 363.48,305.45 363.94,245.45 364.39,332.73 364.84,261.82 365.30,343.64 365.75,272.73 366.20,283.64 366.66,305.45 367.11,294.55 367.57,283.64 368.02,343.64 368.47,283.64 368.93,310.91 369.38,305.45 369.83,305.45 370.29,250.91 370.74,321.82 371.19,229.09 371.65,310.91 372.10,218.18 372.56,327.27 373.01,278.18 373.46,283.64 373.92,185.45 374.37,305.45 374.82,294.55 375.28,349.09 375.73,250.91 376.18,289.09 376.64,332.73 377.09,300.00 377.55,267.27 378.00,196.36 378.45,207.27 378.91,283.64 379.36,278.18 379.81,289.09 380.27,300.00 380.72,300.00 381.17,305.45 381.63,321.82 382.08,349.09 382.54,327.27 382.99,343.64 383.44,250.91 383.90,201.82 384.35,289.09 384.80,294.55 385.26,245.45 385.71,310.91 386.16,234.55 386.62,289.09 387.07,321.82 387.53,305.45 387.98,218.18 388.43,343.64 388.89,283.64 389.34,283.64 389.79,272.73 390.25,338.18 390.70,305.45 391.15,332.73 391.61,196.36 392.06,343.64 392.52,283.64 392.97,272.73 393.42,338.18 393.88,338.18 394.33,305.45 394.78,278.18 395.24,327.27 395.69,354.55 396.14,283.64 396.60,240.00 397.05,300.00 397.51,207.27 397.96,321.82 398.41,305.45 398.87,327.27 399.32,327.27 399.77,338.18 400.23,332.73 400.68,305.45 401.13,207.27 401.59,338.18 402.04,321.82 402.49,229.09 402.95,316.36 403.40,169.09 403.86,343.64 404.31,283.64 404.76,272.73 405.22,196.36 405.67,321.82 406.12,294.55 406.58,354.55 407.03,310.91 407.48,261.82 407.94,300.00 408.39,316.36 408.85,321.82 409.30,294.55 409.75,278.18 410.21,316.36 410.66,316.36 411.11,283.64 411.57,212.73 412.02,272.73 412.47,305.45 412.93,207.27 413.38,294.55 413.84,332.73 414.29,332.73 414.74,289.09 415.20,305.45 415.65,229.09 416.10,207.27 416.56,272.73 417.01,310.91 417.46,321.82 417.92,294.55 418.37,354.55 418.83,316.36 419.28,310.91 419.73,300.00 420.19,283.64 420.64,360.00 421.09,272.73 421.55,305.45 422.00,316.36 422.45,310.91 422.91,310.91 423.36,289.09 423.82,305.45 424.27,332.73 424.72,338.18 425.18,321.82 425.63,185.45 426.08,267.27 426.54,332.73 426.99,190.91 427.44,256.36 427.90,294.55 428.35,250.91 428.81,272.73 429.26,316.36 429.71,250.91 430.17,283.64 430.62,327.27 431.07,354.55 431.53,343.64 431.98,349.09 432.43,152.73 432.89,310.91 433.34,163.64 433.80,332.73 434.25,332.73 434.70,310.91 435.16,267.27 435.61,240.00 436.06,245.45 436.52,310.91 436.97,234.55 437.42,289.09 437.88,338.18 438.33,272.73 438.79,305.45 439.24,343.64 439.69,283.64 440.15,327.27 440.60,300.00 441.05,316.36 441.51,289.09 441.96,289.09 442.41,289.09 442.87,327.27 443.32,300.00 443.78,305.45 444.23,343.64 444.68,283.64 445.14,321.82 445.59,360.00 446.04,278.18 446.50,229.09 446.95,327.27 447.40,272.73 447.86,354.55 448.31,327.27 448.77,305.45 449.22,272.73 449.67,229.09 450.13,310.91 450.58,321.82 451.03,283.64 451.49,316.36 451.94,272.73 452.39,316.36 452.85,250.91 453.30,278.18 453.76,300.00 454.21,294.55 454.66,196.36 455.12,218.18 455.57,207.27 456.02,305.45 456.48,310.91 456.93,316.36 457.38,316.36 457.84,321.82 458.29,321.82 458.75,283.64 459.20,332.73 459.65,190.91 460.11,310.91 460.56,349.09 461.01,300.00 461.47,310.91 461.92,207.27 462.37,283.64 462.83,310.91 463.28,349.09 463.74,229.09 464.19,327.27 464.64,343.64 465.10,283.64 465.55,338.18 466.00,261.82 466.46,250.91 466.91,327.27 467.36,283.64 467.82,305.45 468.27,272.73 468.73,338.18 469.18,289.09 469.63,300.00 470.09,190.91 470.54,278.18 470.99,338.18 471.45,294.55 471.90,305.45 472.35,278.18 472.81,289.09 473.26,321.82 473.72,229.09 474.17,278.18 474.62,207.27 475.08,321.82 475.53,300.00 475.98,321.82 476.44,261.82 476.89,294.55 477.34,332.73 477.80,327.27 478.25,316.36 478.71,283.64 479.16,267.27 479.61,272.73 480.07,327.27 480.52,349.09 480.97,294.55 481.43,316.36 481.88,272.73 482.33,261.82 482.79,338.18 483.24,289.09 483.70,289.09 484.15,201.82 484.60,289.09 485.06,272.73 485.51,185.45 485.96,289.09 486.42,332.73 486.87,201.82 487.32,321.82 487.78,283.64 488.23,272.73 488.69,261.82 489.14,305.45 489.59,261.82 490.05,305.45 490.50,321.82 490.95,327.27 491.41,256.36 491.86,300.00 492.31,294.55 492.77,283.64 493.22,256.36 493.68,130.91 494.13,349.09 494.58,332.73 495.04,354.55 495.49,289.09 495.94,169.09 496.40,300.00 496.85,316.36 497.30,310.91 497.76,332.73 498.21,267.27 498.67,321.82 499.12,218.18 499.57,305.45 500.03,327.27 500.48,327.27 500.93,327.27 501.39,354.55 501.84,294.55 502.29,267.27 502.75,349.09 503.20,338.18 503.66,201.82 504.11,310.91 504.56,343.64 505.02,305.45 505.47,310.91 505.92,332.73 506.38,354.55 506.83,310.91 507.28,283.64 507.74,196.36 508.19,316.36 508.65,185.45 509.10,300.00 509.55,316.36 510.01,300.00 510.46,354.55 510.91,201.82 511.37,338.18 511.82,305.45 512.27,300.00 512.73,207.27 513.18,316.36 513.64,223.64 514.09,327.27 514.54,261.82 515.00,321.82 515.45,190.91 515.90,316.36 516.36,332.73 516.81,207.27 517.26,158.18 517.72,300.00 518.17,201.82 518.63,300.00 519.08,321.82 519.53,338.18 519.99,327.27 520.44,261.82 520.89,310.91 521.35,332.73 521.80,256.36 522.25,223.64 522.71,180.00 523.16,130.91 523.62,349.09 524.07,349.09 524.52,261.82 524.98,207.27 525.43,256.36 525.88,305.45 526.34,240.00 526.79,278.18 527.24,272.73 527.70,343.64 528.15,294.55 528.61,272.73 529.06,338.18 529.51,201.82 529.97,240.00 530.42,321.82 530.87,321.82 531.33,332.73 531.78,278.18 532.23,316.36 532.69,212.73 533.14,327.27 533.60,310.91 534.05,294.55 534.50,305.45 534.96,305.45 535.41,272.73 535.86,332.73 536.32,207.27 536.77,180.00 537.22,300.00 537.68,338.18 538.13,305.45 538.59,300.00 539.04,278.18 539.49,278.18 539.95,267.27 540.40,321.82 540.85,305.45 541.31,305.45 541.76,316.36 542.21,207.27 542.67,289.09 543.12,321.82 543.58,327.27 544.03,278.18 544.48,185.45 544.94,294.55 545.39,250.91 545.84,327.27 546.30,283.64 546.75,332.73 547.20,316.36 547.66,343.64 548.11,305.45 548.57,289.09 549.02,349.09 549.47,305.45 549.93,343.64 550.38,261.82 550.83,272.73 551.29,283.64 551.74,250.91 552.19,321.82 552.65,174.55 553.10,229.09 553.56,332.73 554.01,289.09 554.46,360.00 554.92,327.27 555.37,294.55 555.82,343.64 556.28,332.73 556.73,294.55 557.18,338.18 557.64,310.91 558.09,294.55 558.55,332.73 559.00,245.45 559.45,283.64 559.91,289.09 560.36,332.73 560.81,240.00 561.27,190.91 561.72,360.00 562.17,360.00 562.63,360.00 563.08,283.64 563.54,349.09 563.99,310.91 564.44,349.09 564.90,207.27 565.35,190.91 565.80,278.18 566.26,321.82 566.71,349.09 567.16,300.00 567.62,300.00 568.07,343.64 568.53,278.18 568.98,349.09 569.43,349.09 569.89,256.36 570.34,207.27 570.79,354.55 571.25,256.36 571.70,283.64 572.15,250.91 572.61,283.64 573.06,207.27 573.52,283.64 573.97,327.27 574.42,283.64 574.88,354.55 575.33,289.09 575.78,338.18 576.24,327.27 576.69,360.00 577.14,300.00 577.60,305.45 578.05,338.18 578.51,349.09 578.96,278.18 579.41,256.36 579.87,278.18 580.32,283.64 580.77,360.00 581.23,349.09 581.68,229.09 582.13,305.45 582.59,310.91 583.04,316.36 583.50,196.36 583.95,207.27 584.40,310.91 584.86,207.27 585.31,343.64 585.76,338.18 586.22,327.27 586.67,267.27 587.12,338.18 587.58,272.73 588.03,360.00 588.49,316.36 588.94,354.55 589.39,305.45 589.85,240.00 590.30,283.64 590.75,343.64 591.21,316.36 591.66,207.27 592.11,349.09 592.57,234.55 593.02,316.36 593.48,201.82 593.93,354.55 594.38,354.55 594.84,354.55 595.29,332.73 595.74,316.36 596.20,207.27 596.65,332.73 597.10,289.09 597.56,321.82 598.01,316.36 598.47,261.82 598.92,300.00 599.37,338.18 599.83,321.82 600.28,174.55 600.73,354.55 601.19,316.36 601.64,245.45 602.09,327.27 602.55,343.64 603.00,305.45 603.46,294.55 603.91,360.00 604.36,267.27 604.82,245.45 605.27,267.27 605.72,327.27 606.18,338.18 606.63,261.82 607.08,283.64 607.54,261.82 607.99,316.36 608.45,261.82 608.90,321.82 609.35,201.82 609.81,360.00 610.26,185.45 610.71,289.09 611.17,240.00 611.62,316.36 612.07,338.18 612.53,294.55 612.98,218.18 613.44,321.82 613.89,283.64 614.34,272.73 614.80,234.55 615.25,261.82 615.70,327.27 616.16,294.55 616.61,141.82 617.06,300.00 617.52,267.27 617.97,261.82 618.43,338.18 618.88,272.73 619.33,338.18 619.79,196.36 620.24,289.09 620.69,349.09 621.15,289.09 621.60,294.55 622.05,190.91 622.51,289.09 622.96,267.27 623.42,349.09 623.87,327.27 624.32,349.09 624.78,327.27 625.23,289.09 625.68,245.45 626.14,207.27 626.59,305.45 627.04,272.73 627.50,343.64 627.95,278.18 628.41,316.36 628.86,294.55 629.31,300.00 629.77,245.45 630.22,300.00 630.67,294.55 631.13,321.82 631.58,207.27 632.03,327.27 632.49,360.00 632.94,338.18 633.40,207.27 633.85,283.64 634.30,147.27 634.76,305.45 635.21,349.09 635.66,294.55 636.12,305.45 636.57,321.82 637.02,310.91 637.48,240.00 637.93,316.36 638.39,278.18 638.84,289.09 639.29,180.00 639.75,360.00 640.20,327.27 640.65,207.27 641.11,278.18 641.56,349.09 642.01,332.73 642.47,201.82 642.92,360.00 643.38,338.18 643.83,327.27 644.28,310.91 644.74,338.18 645.19,310.91 645.64,321.82 646.10,360.00 646.55,305.45 647.00,278.18 647.46,332.73 647.91,207.27 648.37,283.64 648.82,305.45 649.27,212.73 649.73,207.27 650.18,354.55 650.63,207.27 651.09,321.82 651.54,327.27 651.99,294.55 652.45,207.27 652.90,354.55 653.36,201.82 653.81,196.36 654.26,185.45 654.72,310.91 655.17,300.00 655.62,300.00 656.08,294.55 656.53,338.18 656.98,305.45 657.44,207.27 657.89,278.18 658.35,349.09 658.80,294.55 659.25,283.64 659.71,218.18 660.16,234.55 660.61,152.73 661.07,261.82 661.52,261.82 661.97,305.45 662.43,338.18 662.88,267.27 663.34,305.45 663.79,245.45 664.24,316.36 664.70,267.27 665.15,267.27 665.60,223.64 666.06,289.09 666.51,261.82 666.96,305.45 667.42,109.09 667.87,169.09 668.33,305.45 668.78,250.91 669.23,283.64 669.69,201.82 670.14,229.09 670.59,207.27 671.05,250.91 671.50,338.18 671.95,103.64 672.41,201.82 672.86,201.82 673.32,283.64 673.77,245.45 674.22,332.73 674.68,360.00 675.13,207.27 675.58,349.09 676.04,283.64 676.49,267.27 676.94,327.27 677.40,60.00 677.85,343.64 678.31,289.09 678.76,278.18 679.21,338.18 679.67,267.27 680.12,321.82 680.57,207.27 681.03,338.18 681.48,338.18 681.93,349.09 682.39,327.27 682.84,261.82 683.30,316.36 683.75,283.64 684.20,310.91 684.66,196.36 685.11,283.64 685.56,207.27 686.02,316.36 686.47,272.73 686.92,283.64 687.38,327.27 687.83,201.82 688.29,316.36 688.74,338.18 689.19,261.82 689.65,332.73 690.10,310.91 690.55,267.27 691.01,343.64 691.46,338.18 691.91,289.09 692.37,349.09 692.82,354.55 693.28,321.82 693.73,245.45 694.18,261.82 694.64,300.00 695.09,267.27 695.54,256.36 696.00,332.73 696.45,207.27 696.90,196.36 697.36,310.91 697.81,240.00 698.27,272.73 698.72,343.64 699.17,120.00 699.63,338.18 700.08,343.64 700.53,283.64 700.99,180.00 701.44,294.55 701.89,294.55 702.35,305.45 702.80,321.82 703.26,327.27 703.71,349.09 704.16,294.55 704.62,338.18 705.07,272.73 705.52,338.18 705.98,354.55 706.43,190.91 706.88,267.27 707.34,343.64 707.79,327.27 708.25,283.64 708.70,267.27 709.15,349.09 709.61,250.91 710.06,294.55 710.51,294.55 710.97,272.73 711.42,65.45 711.87,190.91 712.33,294.55 712.78,321.82 713.24,180.00 713.69,360.00 714.14,174.55 714.60,332.73 715.05,338.18 715.50,305.45 715.96,196.36 716.41,261.82 716.86,310.91 717.32,338.18 717.77,349.09 718.23,321.82 718.68,201.82 719.13,207.27 719.59,360.00 720.04,349.09 720.49,316.36 720.95,240.00 721.40,250.91 721.85,349.09 722.31,316.36 722.76,261.82 723.22,305.45 723.67,332.73 724.12,289.09 724.58,289.09 725.03,349.09 725.48,305.45 725.94,294.55 726.39,332.73 726.84,283.64 727.30,349.09 727.75,338.18 728.21,321.82 728.66,256.36 729.11,354.55 729.57,305.45 730.02,332.73 730.47,60.00 730.93,201.82 731.38,250.91 731.83,289.09 732.29,354.55 732.74,240.00 733.20,316.36 733.65,305.45 734.10,185.45 734.56,294.55 735.01,261.82 735.46,267.27 735.92,338.18 736.37,338.18 736.82,289.09 737.28,196.36 737.73,201.82 738.19,310.91 738.64,305.45 739.09,283.64 739.55,272.73 740.00,354.55" />
</svg>
