<svg xmlns="http://www.w3.org/2000/svg" width="800" height="420">
  <rect x="0" y="0" width="800" height="420" fill="#ffffff" />
  <line x1="60" y1="360" x2="740" y2="360" stroke="#333333" stroke-width="2" />
  <line x1="60" y1="60" x2="60" y2="360" stroke="#333333" stroke-width="2" />
  <text x="400.0" y="30" text-anchor="middle" font-size="22" font-family="Arial">Training Loss</text>
  <text x="400.0" y="405" text-anchor="middle" font-size="16" font-family="Arial">Batch</text>
  <text x="24" y="210.0" text-anchor="middle" font-size="16" font-family="Arial" transform="rotate(-90 24 210.0)">Loss</text>
  <text x="60" y="50" font-size="13" font-family="Arial">5.085</text>
  <text x="60" y="380" font-size="13" font-family="Arial">2.362</text>
  <text x="60" y="395" font-size="13" font-family="Arial">3</text>
  <text x="740" y="395" text-anchor="end" font-size="13" font-family="Arial">1500</text>
  <polyline fill="none" stroke="#dc2626" stroke-width="3" points="60.00,60.00 60.45,78.82 60.91,145.54 61.36,179.37 61.82,124.35 62.27,97.86 62.73,66.91 63.18,97.74 63.63,106.29 64.09,102.32 64.54,107.22 65.00,101.13 65.45,100.91 65.91,106.82 66.36,100.93 66.81,98.06 67.27,100.13 67.72,97.93 68.18,95.17 68.63,99.31 69.08,97.46 69.54,98.85 69.99,101.42 70.45,104.83 70.90,102.06 71.36,103.41 71.81,99.40 72.26,100.10 72.72,102.64 73.17,102.10 73.63,102.15 74.08,103.67 74.54,103.74 74.99,104.31 75.44,105.08 75.90,105.34 76.35,102.91 76.81,102.50 77.26,102.19 77.72,103.89 78.17,106.37 78.62,106.40 79.08,104.86 79.53,108.83 79.99,107.54 80.44,104.84 80.90,103.51 81.35,106.60 81.80,108.49 82.26,114.76 82.71,112.86 83.17,118.58 83.62,114.04 84.07,120.16 84.53,113.32 84.98,120.79 85.44,111.90 85.89,115.06 86.35,115.50 86.80,120.34 87.25,118.53 87.71,124.89 88.16,117.18 88.62,120.52 89.07,119.96 89.53,124.47 89.98,117.73 90.43,121.57 90.89,120.35 91.34,120.96 91.80,123.77 92.25,124.48 92.71,124.73 93.16,128.12 93.61,125.82 94.07,131.94 94.52,128.95 94.98,131.69 95.43,142.71 95.89,135.65 96.34,141.08 96.79,137.09 97.25,140.16 97.70,148.12 98.16,155.35 98.61,144.73 99.06,157.08 99.52,153.88 99.97,163.02 100.43,167.03 100.88,156.26 101.34,161.70 101.79,164.30 102.24,158.13 102.70,169.91 103.15,165.47 103.61,175.38 104.06,165.95 104.52,176.38 104.97,168.66 105.42,176.58 105.88,176.80 106.33,179.09 106.79,189.40 107.24,190.39 107.70,199.87 108.15,204.00 108.60,210.57 109.06,203.05 109.51,222.93 109.97,227.28 110.42,216.85 110.88,211.94 111.33,215.59 111.78,217.38 112.24,219.20 112.69,213.58 113.15,220.96 113.60,216.91 114.05,218.22 114.51,214.60 114.96,220.85 115.42,211.11 115.87,220.39 116.33,215.24 116.78,219.26 117.23,221.91 117.69,210.84 118.14,215.37 118.60,214.72 119.05,216.80 119.51,210.87 119.96,215.15 120.41,215.73 120.87,213.37 121.32,213.29 121.78,210.53 122.23,203.39 122.69,208.35 123.14,218.85 123.59,217.92 124.05,212.79 124.50,219.91 124.96,220.94 125.41,218.70 125.87,222.23 126.32,220.01 126.77,223.05 127.23,218.30 127.68,219.86 128.14,221.04 128.59,221.52 129.04,219.02 129.50,224.23 129.95,223.76 130.41,220.66 130.86,226.30 131.32,234.81 131.77,224.51 132.22,228.26 132.68,235.04 133.13,225.77 133.59,229.59 134.04,237.87 134.50,231.07 134.95,241.32 135.40,239.70 135.86,235.76 136.31,248.37 136.77,245.60 137.22,237.70 137.68,239.25 138.13,241.22 138.58,246.16 139.04,248.12 139.49,251.41 139.95,246.01 140.40,257.74 140.86,233.22 141.31,247.75 141.76,238.63 142.22,250.61 142.67,241.85 143.13,248.68 143.58,248.87 144.03,253.79 144.49,252.56 144.94,252.29 145.40,256.64 145.85,260.18 146.31,258.81 146.76,248.55 147.21,239.94 147.67,241.60 148.12,245.64 148.58,248.56 149.03,238.91 149.49,236.99 149.94,244.57 150.39,239.11 150.85,244.54 151.30,249.21 151.76,242.91 152.21,247.47 152.67,243.98 153.12,238.10 153.57,248.22 154.03,250.89 154.48,254.88 154.94,245.41 155.39,251.28 155.85,250.21 156.30,252.03 156.75,251.16 157.21,253.41 157.66,248.50 158.12,250.54 158.57,246.59 159.02,249.01 159.48,249.95 159.93,248.45 160.39,252.90 160.84,249.55 161.30,249.18 161.75,254.33 162.20,257.38 162.66,249.62 163.11,250.37 163.57,247.13 164.02,259.40 164.48,253.31 164.93,252.67 165.38,255.02 165.84,252.21 166.29,254.96 166.75,255.65 167.20,253.54 167.66,254.49 168.11,257.53 168.56,254.72 169.02,262.85 169.47,260.27 169.93,257.41 170.38,267.15 170.84,266.35 171.29,264.20 171.74,259.97 172.20,263.85 172.65,262.05 173.11,253.68 173.56,260.83 174.01,266.46 174.47,262.84 174.92,259.38 175.38,262.95 175.83,260.85 176.29,260.26 176.74,259.05 177.19,256.87 177.65,256.17 178.10,259.26 178.56,252.27 179.01,258.09 179.47,258.47 179.92,259.76 180.37,262.85 180.83,254.68 181.28,260.47 181.74,259.81 182.19,260.96 182.65,265.25 183.10,264.84 183.55,264.46 184.01,268.83 184.46,276.11 184.92,271.04 185.37,269.25 185.82,275.44 186.28,268.16 186.73,270.59 187.19,265.78 187.64,267.24 188.10,263.21 188.55,272.37 189.00,257.64 189.46,261.22 189.91,259.71 190.37,266.64 190.82,264.93 191.28,265.05 191.73,265.40 192.18,265.22 192.64,264.91 193.09,263.69 193.55,257.89 194.00,262.97 194.46,258.76 194.91,261.36 195.36,257.07 195.82,260.19 196.27,263.36 196.73,255.98 197.18,259.54 197.64,262.20 198.09,263.10 198.54,260.76 199.00,259.12 199.45,257.95 199.91,255.02 200.36,255.42 200.81,251.66 201.27,251.35 201.72,257.55 202.18,252.92 202.63,260.33 203.09,265.22 203.54,258.59 203.99,257.43 204.45,258.35 204.90,257.93 205.36,261.15 205.81,252.10 206.27,255.52 206.72,252.75 207.17,254.34 207.63,258.63 208.08,255.08 208.54,257.81 208.99,253.49 209.45,252.97 209.90,260.55 210.35,255.53 210.81,252.71 211.26,258.34 211.72,260.30 212.17,261.57 212.63,256.71 213.08,260.67 213.53,262.16 213.99,260.52 214.44,259.89 214.90,265.52 215.35,265.08 215.80,261.25 216.26,263.97 216.71,270.52 217.17,268.33 217.62,272.72 218.08,270.56 218.53,270.15 218.98,277.63 219.44,267.81 219.89,271.49 220.35,272.55 220.80,274.70 221.26,271.91 221.71,267.33 222.16,269.66 222.62,275.81 223.07,276.54 223.53,269.94 223.98,272.80 224.44,269.58 224.89,268.88 225.34,270.94 225.80,276.37 226.25,273.49 226.71,276.72 227.16,278.82 227.62,273.99 228.07,280.31 228.52,272.07 228.98,273.04 229.43,273.77 229.89,274.01 230.34,274.11 230.79,275.88 231.25,276.23 231.70,276.98 232.16,273.63 232.61,278.36 233.07,281.20 233.52,282.10 233.97,279.82 234.43,283.12 234.88,286.01 235.34,293.66 235.79,285.33 236.25,285.08 236.70,290.52 237.15,288.56 237.61,290.20 238.06,290.33 238.52,286.25 238.97,281.60 239.43,287.04 239.88,282.05 240.33,284.36 240.79,279.18 241.24,273.58 241.70,279.30 242.15,275.73 242.61,276.56 243.06,277.83 243.51,282.56 243.97,287.44 244.42,279.35 244.88,284.99 245.33,286.04 245.78,292.04 246.24,290.06 246.69,291.85 247.15,293.71 247.60,287.11 248.06,293.30 248.51,286.97 248.96,292.41 249.42,286.44 249.87,292.69 250.33,280.29 250.78,282.71 251.24,294.99 251.69,279.98 252.14,285.77 252.60,292.14 253.05,291.59 253.51,283.75 253.96,278.38 254.42,283.69 254.87,275.50 255.32,278.84 255.78,281.90 256.23,280.13 256.69,281.54 257.14,287.81 257.60,284.24 258.05,270.85 258.50,281.54 258.96,275.06 259.41,275.92 259.87,272.12 260.32,275.09 260.77,273.12 261.23,275.43 261.68,280.52 262.14,268.76 262.59,272.82 263.05,267.54 263.50,263.99 263.95,269.31 264.41,266.53 264.86,267.04 265.32,266.02 265.77,263.18 266.23,267.04 266.68,260.85 267.13,263.23 267.59,268.84 268.04,266.99 268.50,268.94 268.95,266.75 269.41,268.14 269.86,271.61 270.31,271.98 270.77,262.13 271.22,259.02 271.68,260.83 272.13,264.77 272.59,265.31 273.04,263.58 273.49,265.08 273.95,260.40 274.40,267.01 274.86,269.75 275.31,269.22 275.76,272.44 276.22,270.94 276.67,271.29 277.13,265.22 277.58,266.54 278.04,265.62 278.49,263.51 278.94,269.06 279.40,266.13 279.85,263.74 280.31,261.18 280.76,267.27 281.22,268.35 281.67,271.67 282.12,264.98 282.58,268.82 283.03,266.90 283.49,269.02 283.94,269.68 284.40,265.68 284.85,268.64 285.30,271.19 285.76,268.49 286.21,268.00 286.67,268.36 287.12,275.15 287.58,272.66 288.03,273.85 288.48,269.23 288.94,268.64 289.39,265.66 289.85,270.94 290.30,269.98 290.75,270.61 291.21,270.55 291.66,271.75 292.12,270.19 292.57,274.51 293.03,272.43 293.48,277.61 293.93,276.85 294.39,274.40 294.84,267.44 295.30,269.15 295.75,264.51 296.21,273.84 296.66,270.92 297.11,266.55 297.57,275.57 298.02,270.12 298.48,278.49 298.93,272.02 299.39,278.15 299.84,266.40 300.29,274.65 300.75,278.64 301.20,273.82 301.66,274.27 302.11,267.84 302.57,262.08 303.02,269.42 303.47,270.36 303.93,271.10 304.38,272.38 304.84,266.73 305.29,272.51 305.74,272.65 306.20,273.27 306.65,268.34 307.11,269.09 307.56,268.62 308.02,268.36 308.47,266.80 308.92,273.18 309.38,270.73 309.83,276.25 310.29,278.20 310.74,272.42 311.20,273.93 311.65,274.86 312.10,275.23 312.56,274.40 313.01,283.64 313.47,275.19 313.92,276.14 314.38,280.65 314.83,287.15 315.28,281.92 315.74,282.01 316.19,278.79 316.65,275.30 317.10,283.93 317.56,284.91 318.01,286.49 318.46,284.78 318.92,281.73 319.37,289.27 319.83,290.12 320.28,280.97 320.73,287.76 321.19,295.70 321.64,292.04 322.10,291.78 322.55,291.24 323.01,296.46 323.46,291.49 323.91,296.91 324.37,304.10 324.82,297.77 325.28,299.82 325.73,305.49 326.19,305.66 326.64,302.83 327.09,295.96 327.55,291.16 328.00,305.00 328.46,315.99 328.91,306.70 329.37,305.71 329.82,302.95 330.27,299.74 330.73,299.12 331.18,291.92 331.64,297.96 332.09,305.58 332.55,295.06 333.00,298.28 333.45,281.34 333.91,287.85 334.36,302.67 334.82,297.47 335.27,292.51 335.72,297.19 336.18,304.38 336.63,304.49 337.09,303.33 337.54,308.33 338.00,305.45 338.45,295.15 338.90,313.53 339.36,305.76 339.81,314.83 340.27,316.61 340.72,314.07 341.18,315.24 341.63,313.36 342.08,313.96 342.54,311.10 342.99,313.24 343.45,309.90 343.90,313.84 344.36,312.99 344.81,318.72 345.26,315.47 345.72,309.61 346.17,325.64 346.63,326.89 347.08,322.63 347.54,315.48 347.99,316.49 348.44,317.51 348.90,323.47 349.35,312.44 349.81,317.41 350.26,313.93 350.71,319.54 351.17,310.37 351.62,323.79 352.08,312.53 352.53,317.56 352.99,315.70 353.44,322.28 353.89,317.65 354.35,322.26 354.80,318.79 355.26,307.16 355.71,306.44 356.17,311.61 356.62,314.95 357.07,307.47 357.53,301.07 357.98,318.06 358.44,309.06 358.89,312.53 359.35,308.14 359.80,307.23 360.25,305.53 360.71,311.91 361.16,313.72 361.62,300.88 362.07,299.54 362.53,307.30 362.98,301.43 363.43,305.35 363.89,301.93 364.34,298.37 364.80,299.15 365.25,292.03 365.70,295.10 366.16,294.82 366.61,298.09 367.07,294.50 367.52,298.58 367.98,307.84 368.43,293.07 368.88,294.60 369.34,307.42 369.79,290.33 370.25,295.75 370.70,292.25 371.16,298.88 371.61,294.86 372.06,299.24 372.52,298.60 372.97,298.58 373.43,292.30 373.88,295.80 374.34,302.74 374.79,300.69 375.24,291.07 375.70,296.33 376.15,286.51 376.61,293.87 377.06,292.58 377.52,282.26 377.97,302.81 378.42,296.56 378.88,298.62 379.33,293.20 379.79,291.11 380.24,282.75 380.69,282.06 381.15,285.13 381.60,294.25 382.06,291.95 382.51,287.88 382.97,285.95 383.42,286.97 383.87,292.63 384.33,286.39 384.78,278.44 385.24,286.80 385.69,280.96 386.15,281.88 386.60,286.39 387.05,286.22 387.51,290.21 387.96,277.64 388.42,289.10 388.87,287.80 389.33,285.90 389.78,295.67 390.23,283.92 390.69,281.87 391.14,286.03 391.60,281.50 392.05,282.09 392.51,292.22 392.96,285.06 393.41,289.17 393.87,279.56 394.32,291.28 394.78,290.53 395.23,286.83 395.68,285.63 396.14,282.87 396.59,286.64 397.05,285.67 397.50,284.91 397.96,289.96 398.41,292.30 398.86,288.32 399.32,286.42 399.77,284.80 400.23,289.61 400.68,289.66 401.14,282.51 401.59,283.40 402.04,289.15 402.50,286.15 402.95,282.77 403.41,290.70 403.86,296.26 404.32,288.45 404.77,291.08 405.22,285.97 405.68,293.92 406.13,288.04 406.59,293.37 407.04,291.58 407.49,296.10 407.95,297.08 408.40,293.69 408.86,293.50 409.31,295.65 409.77,295.58 410.22,306.24 410.67,298.89 411.13,296.87 411.58,296.80 412.04,295.22 412.49,309.26 412.95,315.82 413.40,310.17 413.85,309.72 414.31,303.68 414.76,302.79 415.22,303.90 415.67,308.99 416.13,301.33 416.58,312.84 417.03,304.73 417.49,312.49 417.94,310.00 418.40,304.09 418.85,308.92 419.31,310.18 419.76,307.81 420.21,310.94 420.67,313.87 421.12,303.95 421.58,305.23 422.03,304.86 422.48,305.71 422.94,298.93 423.39,301.97 423.85,306.62 424.30,300.23 424.76,308.13 425.21,303.28 425.66,305.77 426.12,315.86 426.57,302.05 427.03,296.65 427.48,301.83 427.94,305.16 428.39,299.24 428.84,309.01 429.30,312.52 429.75,308.92 430.21,305.80 430.66,310.53 431.12,307.03 431.57,302.85 432.02,311.35 432.48,306.78 432.93,306.11 433.39,312.64 433.84,308.33 434.30,309.78 434.75,299.69 435.20,305.85 435.66,297.43 436.11,304.61 436.57,296.87 437.02,304.75 437.47,300.33 437.93,301.06 438.38,310.33 438.84,312.75 439.29,298.51 439.75,295.85 440.20,298.97 440.65,307.51 441.11,304.38 441.56,304.61 442.02,295.97 442.47,302.71 442.93,293.50 443.38,286.74 443.83,286.08 444.29,289.90 444.74,294.18 445.20,301.35 445.65,301.46 446.11,299.17 446.56,298.36 447.01,300.89 447.47,311.49 447.92,292.60 448.38,305.14 448.83,299.03 449.29,296.91 449.74,296.40 450.19,299.43 450.65,298.53 451.10,302.72 451.56,300.39 452.01,297.00 452.46,300.47 452.92,305.66 453.37,308.50 453.83,303.37 454.28,300.56 454.74,315.07 455.19,309.50 455.64,309.58 456.10,307.11 456.55,305.71 457.01,306.42 457.46,308.80 457.92,300.88 458.37,303.85 458.82,306.08 459.28,296.24 459.73,306.49 460.19,304.30 460.64,304.10 461.10,300.11 461.55,315.32 462.00,317.26 462.46,313.69 462.91,311.00 463.37,317.01 463.82,308.69 464.28,323.98 464.73,312.69 465.18,317.03 465.64,322.15 466.09,321.70 466.55,323.93 467.00,326.98 467.45,324.95 467.91,330.67 468.36,325.47 468.82,335.17 469.27,327.74 469.73,325.12 470.18,315.74 470.63,327.63 471.09,326.34 471.54,324.56 472.00,323.38 472.45,318.22 472.91,309.20 473.36,311.88 473.81,325.13 474.27,324.57 474.72,316.91 475.18,308.65 475.63,315.52 476.09,312.81 476.54,305.10 476.99,312.60 477.45,312.16 477.90,311.80 478.36,321.21 478.81,316.09 479.27,318.47 479.72,314.04 480.17,308.95 480.63,319.07 481.08,313.19 481.54,315.05 481.99,321.79 482.44,316.38 482.90,316.15 483.35,309.14 483.81,319.36 484.26,311.20 484.72,314.08 485.17,314.94 485.62,321.77 486.08,317.89 486.53,321.78 486.99,316.73 487.44,315.32 487.90,318.30 488.35,317.68 488.80,317.71 489.26,318.64 489.71,319.48 490.17,317.38 490.62,319.78 491.08,311.80 491.53,314.22 491.98,311.17 492.44,307.31 492.89,312.89 493.35,309.78 493.80,308.32 494.26,312.82 494.71,313.79 495.16,321.02 495.62,308.82 496.07,311.81 496.53,313.19 496.98,315.31 497.43,311.35 497.89,316.02 498.34,317.51 498.80,307.34 499.25,312.63 499.71,311.73 500.16,313.36 500.61,312.29 501.07,320.57 501.52,319.24 501.98,316.82 502.43,326.07 502.89,319.20 503.34,317.39 503.79,311.72 504.25,321.05 504.70,312.07 505.16,313.09 505.61,320.41 506.07,314.93 506.52,313.30 506.97,312.65 507.43,309.25 507.88,312.49 508.34,318.81 508.79,310.01 509.25,314.09 509.70,312.40 510.15,318.56 510.61,308.85 511.06,316.13 511.52,307.93 511.97,306.89 512.42,305.79 512.88,311.00 513.33,306.24 513.79,315.29 514.24,309.06 514.70,311.69 515.15,313.26 515.60,303.64 516.06,315.65 516.51,315.11 516.97,319.38 517.42,308.78 517.88,296.88 518.33,311.78 518.78,304.06 519.24,313.45 519.69,310.79 520.15,311.03 520.60,307.05 521.06,308.01 521.51,309.88 521.96,311.89 522.42,321.63 522.87,313.76 523.33,304.91 523.78,326.11 524.24,313.44 524.69,321.51 525.14,310.37 525.60,309.68 526.05,309.17 526.51,302.74 526.96,318.85 527.41,317.77 527.87,321.91 528.32,328.84 528.78,317.90 529.23,313.05 529.69,316.80 530.14,319.32 530.59,308.71 531.05,315.57 531.50,317.09 531.96,321.27 532.41,323.25 532.87,314.25 533.32,322.05 533.77,317.44 534.23,323.37 534.68,316.95 535.14,323.86 535.59,324.54 536.05,321.53 536.50,316.43 536.95,311.25 537.41,314.08 537.86,315.67 538.32,320.14 538.77,313.23 539.23,319.87 539.68,317.47 540.13,320.41 540.59,314.95 541.04,314.74 541.50,316.65 541.95,316.28 542.40,319.28 542.86,327.01 543.31,314.63 543.77,324.19 544.22,319.96 544.68,315.07 545.13,323.97 545.58,335.70 546.04,328.20 546.49,319.09 546.95,327.64 547.40,326.61 547.86,327.69 548.31,322.34 548.76,324.34 549.22,328.47 549.67,331.27 550.13,328.86 550.58,320.15 551.04,322.51 551.49,327.62 551.94,321.27 552.40,324.37 552.85,330.02 553.31,319.61 553.76,335.70 554.22,324.15 554.67,324.07 555.12,325.97 555.58,330.77 556.03,333.22 556.49,331.27 556.94,332.51 557.39,329.80 557.85,340.01 558.30,329.17 558.76,333.99 559.21,328.13 559.67,325.64 560.12,330.15 560.57,329.69 561.03,324.77 561.48,317.07 561.94,329.32 562.39,323.90 562.85,329.12 563.30,329.79 563.75,326.10 564.21,333.14 564.66,321.31 565.12,315.88 565.57,325.75 566.03,320.70 566.48,325.68 566.93,331.28 567.39,320.71 567.84,328.29 568.30,324.11 568.75,315.77 569.21,321.98 569.66,317.72 570.11,324.07 570.57,331.93 571.02,323.27 571.48,318.89 571.93,319.87 572.38,314.76 572.84,323.21 573.29,328.15 573.75,326.53 574.20,313.13 574.66,328.64 575.11,332.17 575.56,327.19 576.02,329.45 576.47,323.23 576.93,332.51 577.38,330.83 577.84,325.26 578.29,329.06 578.74,320.19 579.20,324.35 579.65,326.15 580.11,321.66 580.56,316.18 581.02,323.52 581.47,315.59 581.92,321.25 582.38,325.19 582.83,320.73 583.29,321.46 583.74,325.58 584.20,326.20 584.65,319.65 585.10,329.10 585.56,316.18 586.01,315.56 586.47,323.23 586.92,326.05 587.37,326.22 587.83,337.05 588.28,324.34 588.74,324.59 589.19,325.95 589.65,329.46 590.10,334.29 590.55,327.01 591.01,329.32 591.46,332.39 591.92,338.68 592.37,327.57 592.83,335.69 593.28,325.99 593.73,330.10 594.19,332.60 594.64,332.93 595.10,334.71 595.55,337.40 596.01,343.75 596.46,337.16 596.91,338.88 597.37,340.78 597.82,334.33 598.28,338.75 598.73,341.13 599.19,338.92 599.64,337.67 600.09,339.01 600.55,338.16 601.00,335.41 601.46,339.95 601.91,336.06 602.36,333.97 602.82,332.47 603.27,340.27 603.73,342.14 604.18,338.84 604.64,333.88 605.09,334.80 605.54,334.91 606.00,335.97 606.45,344.31 606.91,328.59 607.36,327.72 607.82,342.66 608.27,341.36 608.72,337.63 609.18,331.00 609.63,343.55 610.09,336.55 610.54,333.46 611.00,334.47 611.45,338.60 611.90,341.95 612.36,334.18 612.81,335.97 613.27,335.22 613.72,341.61 614.18,341.37 614.63,332.74 615.08,342.90 615.54,336.02 615.99,334.52 616.45,338.48 616.90,335.83 617.35,339.71 617.81,337.30 618.26,335.07 618.72,325.23 619.17,343.71 619.63,327.64 620.08,330.62 620.53,332.77 620.99,335.07 621.44,324.57 621.90,334.35 622.35,336.10 622.81,330.44 623.26,330.94 623.71,333.88 624.17,332.51 624.62,332.84 625.08,335.87 625.53,337.56 625.99,345.65 626.44,326.25 626.89,346.27 627.35,333.91 627.80,333.06 628.26,329.78 628.71,338.24 629.16,342.33 629.62,334.92 630.07,341.69 630.53,326.56 630.98,334.88 631.44,334.54 631.89,324.10 632.34,334.35 632.80,327.03 633.25,339.07 633.71,340.40 634.16,327.45 634.62,337.47 635.07,340.04 635.52,336.25 635.98,329.49 636.43,322.16 636.89,320.54 637.34,326.72 637.80,326.33 638.25,327.57 638.70,319.05 639.16,319.10 639.61,321.43 640.07,313.99 640.52,326.92 640.98,318.40 641.43,331.15 641.88,331.03 642.34,323.27 642.79,325.93 643.25,322.05 643.70,326.36 644.15,324.26 644.61,318.93 645.06,328.47 645.52,331.34 645.97,324.85 646.43,330.11 646.88,323.14 647.33,330.12 647.79,331.22 648.24,333.41 648.70,331.73 649.15,332.99 649.61,329.92 650.06,331.56 650.51,326.38 650.97,330.53 651.42,328.44 651.88,329.70 652.33,332.57 652.79,329.36 653.24,335.07 653.69,334.23 654.15,329.38 654.60,332.93 655.06,330.82 655.51,334.78 655.97,330.82 656.42,332.17 656.87,334.18 657.33,335.33 657.78,333.96 658.24,339.81 658.69,332.38 659.14,337.81 659.60,338.67 660.05,338.10 660.51,326.26 660.96,340.33 661.42,342.07 661.87,338.63 662.32,340.18 662.78,336.34 663.23,340.78 663.69,331.40 664.14,331.64 664.60,337.28 665.05,335.11 665.50,341.24 665.96,326.99 666.41,336.91 666.87,333.45 667.32,340.82 667.78,342.38 668.23,343.63 668.68,349.83 669.14,354.59 669.59,340.34 670.05,345.02 670.50,339.18 670.96,343.90 671.41,347.65 671.86,341.37 672.32,322.34 672.77,330.93 673.23,332.41 673.68,328.35 674.13,331.79 674.59,329.72 675.04,331.32 675.50,336.43 675.95,337.68 676.41,344.04 676.86,343.91 677.31,340.57 677.77,349.79 678.22,345.75 678.68,349.47 679.13,335.30 679.59,340.03 680.04,341.28 680.49,337.85 680.95,349.63 681.40,349.50 681.86,343.75 682.31,350.33 682.77,358.92 683.22,342.94 683.67,349.68 684.13,342.59 684.58,352.67 685.04,353.65 685.49,355.55 685.95,346.23 686.40,360.00 686.85,357.71 687.31,358.83 687.76,359.47 688.22,355.81 688.67,352.94 689.12,350.60 689.58,352.54 690.03,352.05 690.49,347.26 690.94,352.30 691.40,348.08 691.85,353.87 692.30,349.06 692.76,345.75 693.21,352.26 693.67,347.41 694.12,351.61 694.58,349.65 695.03,351.85 695.48,351.67 695.94,347.62 696.39,342.53 696.85,342.73 697.30,345.45 697.76,339.50 698.21,338.71 698.66,341.32 699.12,339.26 699.57,338.71 700.03,330.22 700.48,333.87 700.94,336.56 701.39,335.53 701.84,341.32 702.30,342.61 702.75,333.10 703.21,350.07 703.66,338.73 704.11,337.01 704.57,342.87 705.02,344.96 705.48,338.58 705.93,333.90 706.39,334.41 706.84,328.05 707.29,326.79 707.75,333.37 708.20,333.31 708.66,330.27 709.11,321.14 709.57,335.42 710.02,337.11 710.47,331.83 710.93,335.87 711.38,319.55 711.84,327.36 712.29,320.46 712.75,332.06 713.20,323.99 713.65,321.65 714.11,322.51 714.56,317.09 715.02,328.75 715.47,323.15 715.93,320.73 716.38,324.20 716.83,334.53 717.29,328.62 717.74,336.63 718.20,332.72 718.65,325.19 719.10,329.38 719.56,332.27 720.01,339.09 720.47,340.15 720.92,341.07 721.38,336.05 721.83,340.11 722.28,340.38 722.74,332.62 723.19,347.44 723.65,343.97 724.10,341.30 724.56,335.36 725.01,334.28 725.46,329.70 725.92,332.09 726.37,345.06 726.83,339.39 727.28,338.69 727.74,346.22 728.19,332.38 728.64,335.51 729.10,332.33 729.55,335.00 730.01,327.96 730.46,337.01 730.92,333.49 731.37,348.89 731.82,343.14 732.28,348.36 732.73,342.04 733.19,345.74 733.64,340.35 734.09,353.45 734.55,346.60 735.00,355.57 735.46,345.77 735.91,348.34 736.37,347.61 736.82,339.36 737.27,348.27 737.73,338.07 738.18,347.98 738.64,341.68 739.09,343.02 739.55,343.67 740.00,341.07" />
</svg>
